v -0.9644707441329956 2.0770788192749023 2.473175287246704
v 1.081672191619873 0.6166592240333557 -0.7103332281112671
v 0.7997534275054932 2.4542367458343506 0.7920335531234741
v -0.06291815638542175 2.8019204139709473 -0.6836046576499939
v -0.49263960123062134 2.122323513031006 -0.5920672416687012
v 1.4460248947143555 1.6602095365524292 -0.7501751780509949
v 0.15843091905117035 2.4519317150115967 1.0056276321411133
v 1.31453537940979 0.5171721577644348 0.935242235660553
v -0.03573082014918327 0.6173396110534668 1.2426793575286865
v 1.112764835357666 2.248553514480591 -0.14219783246517181
v 0.28903961181640625 0.9872698187828064 2.3390846252441406
v -0.5770761966705322 1.623395562171936 1.2621794939041138
v 1.038329005241394 2.1101465225219727 -0.6797466278076172
v 0.9844127893447876 1.6283963918685913 1.2720977067947388
v -0.04994780942797661 1.8100675344467163 2.133334159851074
vn -0.8112893104553223 0.44629397988319397 0.37766554951667786
vn -0.20667745172977448 -0.7032141089439392 -0.6802753210067749
vn 0.4816373586654663 0.799531102180481 0.35885298252105713
vn -0.1854211539030075 0.8465251922607422 -0.49901318550109863
vn -0.8431130051612854 -0.3329754173755646 -0.42224135994911194
vn 0.944752037525177 0.09967242181301117 -0.3122643232345581
vn 0.0067187724635005 0.9741950035095215 0.22560785710811615
vn 0.7775011658668518 -0.5781154632568359 0.24753662943840027
vn -0.595594584941864 -0.7996630072593689 -0.07619857043027878
vn 0.7632920742034912 0.6452444791793823 0.03232329711318016
vn 0.2967101037502289 -0.45852357149124146 0.8376867175102234
vn -0.8851710557937622 -0.4428127408027649 -0.1427900791168213
vn 0.5369775891304016 0.7339473366737366 -0.41590413451194763
vn 0.8557464480400085 0.29449933767318726 0.42540356516838074
vn 0.5317177176475525 0.5199276208877563 0.668544352054596
vt 0.0 1.0
vt 0.0 1.0
vt 0.0 1.0
vt 0.0 1.0
vt 0.0 1.0
vt 0.0 1.0
vt 0.0 1.0
vt 0.0 1.0
vt 0.0 1.0
vt 0.0 1.0
vt 0.0 1.0
vt 0.0 1.0
vt 0.0 1.0
vt 0.0 1.0
vt 0.0 1.0

g 
s 1
usemtl 
f 5/5/5 1/1/1 4/4/4 
f 5/5/5 4/4/4 2/2/2 
f 6/6/6 2/2/2 4/4/4 
f 7/7/7 1/1/1 3/3/3 
f 7/7/7 3/3/3 4/4/4 
f 7/7/7 4/4/4 1/1/1 
f 8/8/8 2/2/2 6/6/6 
f 9/9/9 5/5/5 2/2/2 
f 9/9/9 2/2/2 8/8/8 
f 10/10/10 4/4/4 3/3/3 
f 11/11/11 9/9/9 8/8/8 
f 11/11/11 1/1/1 9/9/9 
f 12/12/12 9/9/9 1/1/1 
f 12/12/12 1/1/1 5/5/5 
f 12/12/12 5/5/5 9/9/9 
f 13/13/13 10/10/10 6/6/6 
f 13/13/13 6/6/6 4/4/4 
f 13/13/13 4/4/4 10/10/10 
f 14/14/14 8/8/8 6/6/6 
f 14/14/14 6/6/6 10/10/10 
f 14/14/14 10/10/10 3/3/3 
f 14/14/14 11/11/11 8/8/8 
f 15/15/15 3/3/3 1/1/1 
f 15/15/15 1/1/1 11/11/11 
f 15/15/15 14/14/14 3/3/3 
f 15/15/15 11/11/11 14/14/14 

