v -0.16507689654827118 0.11007476598024368 2.7238550186157227
v -0.97358638048172 -0.6512740850448608 0.5007432699203491
v 0.23110106587409973 -0.6884794235229492 1.3854906558990479
v -0.97358638048172 0.5010337829589844 0.5007432699203491
v -0.97358638048172 0.12916122376918793 2.1041805744171143
v 0.10847777128219604 -0.1413961797952652 2.2484240531921387
v -0.045128174126148224 -0.7096005082130432 2.543386697769165
v -0.97358638048172 -0.6512740850448608 1.1876059770584106
vn 0.16010093688964844 0.8793707489967346 0.4484136998653412
vn -0.4696551263332367 -0.7485436201095581 -0.4680880904197693
vn 0.8594896197319031 -0.15996432304382324 -0.485478013753891
vn 0.3049631714820862 0.8539378643035889 -0.4216487407684326
vn -0.9270971417427063 0.0496232733130455 0.37152186036109924
vn 0.843731164932251 0.5324495434761047 -0.06793523579835892
vn -0.17750580608844757 -0.8824114799499512 0.4357081651687622
vn -0.7138360738754272 -0.6296864151954651 0.30648502707481384
vt 0.0 1.0
vt 0.0 1.0
vt 0.0 1.0
vt 0.0 1.0
vt 0.0 1.0
vt 0.0 1.0
vt 0.0 1.0
vt 0.0 1.0

g 
s 1
usemtl 
f 3/3/3 2/2/2 4/4/4 
f 5/5/5 1/1/1 4/4/4 
f 5/5/5 4/4/4 2/2/2 
f 6/6/6 3/3/3 4/4/4 
f 6/6/6 4/4/4 1/1/1 
f 7/7/7 2/2/2 3/3/3 
f 7/7/7 6/6/6 1/1/1 
f 7/7/7 3/3/3 6/6/6 
f 7/7/7 1/1/1 5/5/5 
f 8/8/8 7/7/7 5/5/5 
f 8/8/8 5/5/5 2/2/2 
f 8/8/8 2/2/2 7/7/7 

