v -0.5723217725753784 -0.5860792398452759 0.0441729761660099
v -0.8405444025993347 -0.9843524098396301 -1.420879602432251
v -0.5314672589302063 -0.8040374517440796 -1.4461647272109985
v -1.1011499166488647 0.008662495762109756 -1.1443209648132324
v -0.8658618330955505 -1.1348222494125366 -1.2008512020111084
v -0.476569801568985 -0.953896701335907 -1.412671446800232
vn 0.5210012793540955 0.1018013060092926 0.8474633693695068
vn -0.5210010409355164 -0.10180123150348663 -0.8474634885787964
vn 0.7614299058914185 0.5766390562057495 -0.29616180062294006
vn -0.7223448753356934 0.6893305778503418 -0.05514657497406006
vn -0.7614299654960632 -0.5766390562057495 0.29616183042526245
vn 0.7223449945449829 -0.689330518245697 0.055146537721157074
vt 0.0 1.0
vt 0.0 1.0
vt 0.0 1.0
vt 0.0 1.0
vt 0.0 1.0
vt 0.0 1.0

g 
s 1
usemtl 
f 1/1/1 3/3/3 4/4/4 
f 3/3/3 2/2/2 4/4/4 
f 5/5/5 1/1/1 4/4/4 
f 5/5/5 4/4/4 2/2/2 
f 6/6/6 5/5/5 2/2/2 
f 6/6/6 2/2/2 3/3/3 
f 6/6/6 3/3/3 1/1/1 
f 6/6/6 1/1/1 5/5/5 

