v -0.3402489721775055 -1.1233597993850708 3.571387529373169
v 0.39027953147888184 -1.2210936546325684 1.6885764598846436
v 0.5695727467536926 -0.43528255820274353 2.046137809753418
v 0.41548335552215576 -0.6633712649345398 1.5313901901245117
v -0.9409387111663818 -1.387354850769043 3.1989972591400146
v 0.648729145526886 -0.6482629776000977 1.7530806064605713
v -0.30478635430336 -1.7847524881362915 3.400623321533203
v -0.3227514326572418 -0.952272891998291 2.3713161945343018
v -0.5553125143051147 -0.4025411903858185 2.8916001319885254
v 0.3851293921470642 -0.21529068052768707 2.0499579906463623
v -0.9409387111663818 -1.823992133140564 3.53592586517334
v 0.04852905124425888 -1.1055196523666382 3.2317020893096924
v -0.9409387111663818 -0.999579131603241 3.198993682861328
v 0.2337328940629959 -0.12942412495613098 2.110307216644287
v -0.9409387111663818 -1.1152784824371338 3.6490092277526855
vn 0.36892199516296387 0.4172692596912384 0.8305317163467407
vn -0.146041601896286 -0.7925205826759338 -0.5921005010604858
vn 0.8721461296081543 0.23780784010887146 0.42756134271621704
vn -0.6191548705101013 0.25695598125457764 -0.7420382499694824
vn -0.7387760877609253 -0.2893051207065582 -0.6086973547935486
vn 0.9453651309013367 -0.2927081286907196 0.14355072379112244
vn 0.7118308544158936 -0.649635910987854 0.26696446537971497
vn -0.7710236310958862 0.017982710152864456 -0.6365526914596558
vn -0.6005927920341492 0.795673131942749 -0.07869324833154678
vn 0.6631765365600586 0.7104822397232056 0.23539741337299347
vn -0.49660274386405945 -0.8672824501991272 -0.034738827496767044
vn 0.8474872708320618 0.07775046676397324 0.5250906944274902
vn -0.9229111075401306 0.1866879165172577 -0.3367233872413635
vn 0.1619398444890976 0.920037567615509 0.3568004071712494
vn -0.39483386278152466 0.46602246165275574 0.791788637638092
vt 0.0 1.0
vt 0.0 1.0
vt 0.0 1.0
vt 0.0 1.0
vt 0.0 1.0
vt 0.0 1.0
vt 0.0 1.0
vt 0.0 1.0
vt 0.0 1.0
vt 0.0 1.0
vt 0.0 1.0
vt 0.0 1.0
vt 0.0 1.0
vt 0.0 1.0
vt 0.0 1.0

g 
s 1
usemtl 
f 6/6/6 2/2/2 4/4/4 
f 7/7/7 2/2/2 6/6/6 
f 8/8/8 4/4/4 2/2/2 
f 8/8/8 2/2/2 5/5/5 
f 9/9/9 4/4/4 8/8/8 
f 10/10/10 6/6/6 4/4/4 
f 10/10/10 3/3/3 6/6/6 
f 11/11/11 5/5/5 2/2/2 
f 11/11/11 2/2/2 7/7/7 
f 11/11/11 7/7/7 1/1/1 
f 12/12/12 7/7/7 6/6/6 
f 12/12/12 6/6/6 3/3/3 
f 12/12/12 1/1/1 7/7/7 
f 12/12/12 3/3/3 10/10/10 
f 13/13/13 9/9/9 8/8/8 
f 13/13/13 8/8/8 5/5/5 
f 13/13/13 5/5/5 11/11/11 
f 14/14/14 10/10/10 4/4/4 
f 14/14/14 4/4/4 9/9/9 
f 14/14/14 9/9/9 1/1/1 
f 14/14/14 12/12/12 10/10/10 
f 14/14/14 1/1/1 12/12/12 
f 15/15/15 13/13/13 11/11/11 
f 15/15/15 11/11/11 1/1/1 
f 15/15/15 1/1/1 9/9/9 
f 15/15/15 9/9/9 13/13/13 

