v 0.25395262241363525 -1.1995965242385864 2.183363914489746
v 0.4141809046268463 -1.6405831575393677 0.7282662987709045
v 0.5807909965515137 -1.6889958381652832 0.7332534790039062
v 0.5655175447463989 -0.6512740850448608 0.5007430911064148
v -0.40156492590904236 -0.6884794235229492 1.1876059770584106
v 0.5649657845497131 -0.7000234723091125 1.3009905815124512
v 0.3102734386920929 -1.843793272972107 1.82223379611969
v -0.4041162133216858 -1.7069087028503418 1.361265778541565
vn -0.2801932096481323 0.32377129793167114 0.9036946296691895
vn -0.5477680563926697 -0.16539473831653595 -0.82011878490448
vn 0.8458810448646545 -0.5314827561378479 -0.04484705999493599
vn 0.11608359217643738 0.5029276013374329 -0.8564977645874023
vn -0.8127463459968567 0.5441798567771912 -0.20811456441879272
vn 0.8309639692306519 0.4556369185447693 0.3192083239555359
vn 0.6810327768325806 -0.6334766149520874 0.3672897517681122
vn -0.8355996608734131 -0.5480695962905884 0.03732356056571007
vt 0.0 1.0
vt 0.0 1.0
vt 0.0 1.0
vt 0.0 1.0
vt 0.0 1.0
vt 0.0 1.0
vt 0.0 1.0
vt 0.0 1.0

g 
s 1
usemtl 
f 3/3/3 2/2/2 4/4/4 
f 5/5/5 4/4/4 2/2/2 
f 6/6/6 3/3/3 4/4/4 
f 6/6/6 5/5/5 1/1/1 
f 6/6/6 4/4/4 5/5/5 
f 7/7/7 6/6/6 1/1/1 
f 7/7/7 3/3/3 6/6/6 
f 8/8/8 2/2/2 3/3/3 
f 8/8/8 3/3/3 7/7/7 
f 8/8/8 5/5/5 2/2/2 
f 8/8/8 7/7/7 1/1/1 
f 8/8/8 1/1/1 5/5/5 

