v -0.16507689654827118 0.11007476598024368 2.7238550186157227
v -0.40156492590904236 -0.6884794235229492 1.1876059770584106
v -0.4041162133216858 -1.9023973941802979 1.810437560081482
v 0.23110106587409973 -0.6884794235229492 1.3854906558990479
v -0.21321532130241394 0.13036590814590454 2.043325185775757
v 0.3102734386920929 -1.843793272972107 1.82223379611969
v -0.3739708960056305 0.31431838870048523 2.522700548171997
v 0.10847777128219604 -0.1413961797952652 2.2484240531921387
v -0.4097644090652466 -1.3448220491409302 2.4943079948425293
vn 0.575564444065094 -0.08161064237356186 0.8136739730834961
vn -0.8105254173278809 0.018372109159827232 -0.5854151248931885
vn -0.7212448716163635 -0.6171583533287048 -0.31451788544654846
vn 0.8047285676002502 0.27245816588401794 -0.5274261832237244
vn 0.2852022051811218 0.7890809178352356 -0.5440689921379089
vn 0.9006369709968567 -0.4114484488964081 0.1398686021566391
vn -0.9669499397277832 0.2442072629928589 0.07328583300113678
vn 0.9529485106468201 0.2731877565383911 0.13136820495128632
vn -0.8044143915176392 -0.22120292484760284 0.551349937915802
vt 0.0 1.0
vt 0.0 1.0
vt 0.0 1.0
vt 0.0 1.0
vt 0.0 1.0
vt 0.0 1.0
vt 0.0 1.0
vt 0.0 1.0
vt 0.0 1.0

g 
s 1
usemtl 
f 5/5/5 4/4/4 2/2/2 
f 6/6/6 3/3/3 2/2/2 
f 6/6/6 2/2/2 4/4/4 
f 7/7/7 5/5/5 2/2/2 
f 8/8/8 4/4/4 5/5/5 
f 8/8/8 6/6/6 4/4/4 
f 8/8/8 1/1/1 6/6/6 
f 8/8/8 7/7/7 1/1/1 
f 8/8/8 5/5/5 7/7/7 
f 9/9/9 6/6/6 1/1/1 
f 9/9/9 3/3/3 6/6/6 
f 9/9/9 1/1/1 7/7/7 
f 9/9/9 7/7/7 2/2/2 
f 9/9/9 2/2/2 3/3/3 

