v 1.31453537940979 0.5171721577644348 0.935242235660553
v 0.8438735604286194 -0.45547449588775635 -2.7297468185424805
v 1.4615647792816162 -0.45547449588775635 -2.709141254425049
v 0.7926685810089111 0.5624197125434875 -2.730109453201294
v 0.8188132643699646 -0.45547449588775635 0.8032465577125549
v 1.3301366567611694 0.4988287091255188 -2.681997060775757
v 1.081672191619873 0.6166592240333557 -0.7103332281112671
v 1.6728148460388184 -0.45547449588775635 -0.40289008617401123
v 1.5337247848510742 0.4988287091255188 -0.40193721652030945
vn 0.5236876010894775 0.4888210892677307 0.6977143287658691
vn -0.8247060179710388 -0.5450538992881775 -0.15091758966445923
vn 0.4676513373851776 -0.8400232195854187 -0.27506929636001587
vn -0.9377856254577637 0.3125058710575104 -0.15132194757461548
vn -0.8555286526679993 -0.4826519787311554 0.18739745020866394
vn 0.860420286655426 0.47919154167175293 -0.17335647344589233
vn -0.5916063189506531 0.80086749792099 0.09280725568532944
vn 0.9510600566864014 -0.2958018183708191 0.08936403691768646
vn 0.8755471110343933 0.48313096165657043 0.001326252124272287
vt 0.0 1.0
vt 0.0 1.0
vt 0.0 1.0
vt 0.0 1.0
vt 0.0 1.0
vt 0.0 1.0
vt 0.0 1.0
vt 0.0 1.0
vt 0.0 1.0

g 
s 1
usemtl 
f 3/3/3 2/2/2 4/4/4 
f 5/5/5 4/4/4 2/2/2 
f 5/5/5 2/2/2 3/3/3 
f 6/6/6 3/3/3 4/4/4 
f 7/7/7 5/5/5 1/1/1 
f 7/7/7 4/4/4 5/5/5 
f 7/7/7 6/6/6 4/4/4 
f 8/8/8 5/5/5 3/3/3 
f 8/8/8 1/1/1 5/5/5 
f 8/8/8 3/3/3 6/6/6 
f 9/9/9 7/7/7 1/1/1 
f 9/9/9 6/6/6 7/7/7 
f 9/9/9 8/8/8 6/6/6 
f 9/9/9 1/1/1 8/8/8 

