v -0.5553125143051147 -0.4025411903858185 2.8916001319885254
v -0.9409387111663818 1.6859368085861206 1.0288103818893433
v -0.5396252274513245 1.865419864654541 1.1817423105239868
v -0.9409387111663818 1.8714202642440796 1.1879692077636719
v -0.9409387111663818 -0.4025411903858185 2.891599655151367
v -0.9409387111663818 0.7854302525520325 2.2108733654022217
v -0.5553125143051147 1.6859368085861206 1.0288105010986328
v -0.5396252274513245 0.7776739597320557 2.2059502601623535
vn 0.9783304333686829 -0.1960766464471817 0.0665089562535286
vn -0.5177973508834839 -0.45470789074897766 -0.7246562838554382
vn 0.712106466293335 0.5602920055389404 0.4230569899082184
vn -0.886273980140686 0.36843010783195496 0.28067344427108765
vn -0.5741552710533142 -0.5842764973640442 -0.5735560655593872
vn -0.19060595333576202 0.5906557440757751 0.7840887904167175
vn 0.2828928828239441 -0.608824610710144 -0.7411506175994873
vn 0.40005138516426086 0.5499633550643921 0.7331434488296509
vt 0.0 1.0
vt 0.0 1.0
vt 0.0 1.0
vt 0.0 1.0
vt 0.0 1.0
vt 0.0 1.0
vt 0.0 1.0
vt 0.0 1.0

g 
s 1
usemtl 
f 3/3/3 2/2/2 4/4/4 
f 5/5/5 4/4/4 2/2/2 
f 6/6/6 3/3/3 4/4/4 
f 6/6/6 5/5/5 1/1/1 
f 6/6/6 4/4/4 5/5/5 
f 7/7/7 2/2/2 3/3/3 
f 7/7/7 3/3/3 1/1/1 
f 7/7/7 5/5/5 2/2/2 
f 7/7/7 1/1/1 5/5/5 
f 8/8/8 6/6/6 1/1/1 
f 8/8/8 1/1/1 3/3/3 
f 8/8/8 3/3/3 6/6/6 

