v -0.7790600657463074 -0.07554992288351059 3.8418757915496826
v -0.97358638048172 -0.6512740850448608 1.1876059770584106
v -0.97358638048172 -1.4281779527664185 3.343519926071167
v -0.40156492590904236 -0.6884794235229492 1.1876059770584106
v -0.6245471239089966 0.7006517648696899 3.2387404441833496
v -0.4097644090652466 -1.3448220491409302 2.4943079948425293
v -0.97358638048172 0.697739839553833 3.274425506591797
v -0.21321532130241394 0.13036590814590454 2.043325185775757
v -0.97358638048172 -1.3510973453521729 2.7421586513519287
v -0.7437707185745239 -1.4143104553222656 3.3418633937835693
v -0.97358638048172 -0.0846005231142044 3.880178928375244
v -0.97358638048172 0.12916122376918793 2.1041805744171143
v -0.045128174126148224 -0.7096005082130432 2.543386697769165
v -0.4688439667224884 0.5646068453788757 3.3601250648498535
v -0.7550671100616455 -0.8763783574104309 3.570263385772705
v -0.45845580101013184 0.26932966709136963 3.564992666244507
v -0.16507689654827118 0.11007476598024368 2.7238550186157227
v -0.97358638048172 -0.8777202367782593 3.5840656757354736
vn 0.5884332656860352 -0.14868274331092834 0.7947575449943542
vn -0.94480961561203 -0.0758233591914177 -0.31872478127479553
vn -0.9952963590621948 -0.09616559743881226 0.01171599980443716
vn 0.7880692481994629 -0.27358493208885193 -0.5514509677886963
vn 0.10369870811700821 0.9260953068733215 -0.3627590835094452
vn 0.3593301475048065 -0.8951302170753479 -0.26386338472366333
vn -0.9916677474975586 0.12267053872346878 0.03933170810341835
vn 0.5555357336997986 0.680498480796814 -0.4778093993663788
vn -0.34827369451522827 -0.8818800449371338 -0.3177937865257263
vn 0.7750117182731628 -0.35770171880722046 0.5209667086601257
vn -0.7596947550773621 0.2200426161289215 0.6119192242622375
vn -0.20947293937206268 0.8324273228645325 -0.513016402721405
vn 0.9712002873420715 -0.18442662060260773 0.1508541703224182
vn 0.5922930836677551 0.6810904741287231 0.4304702877998352
vn 0.5585871338844299 -0.27790993452072144 0.7815027832984924
vn 0.8420034050941467 -0.07295366376638412 0.5345166921615601
vn 0.9628814458847046 0.23444414138793945 0.13377314805984497
vn -0.009899607859551907 -0.3767035901546478 0.9262810349464417
vt 0.0 1.0
vt 0.0 1.0
vt 0.0 1.0
vt 0.0 1.0
vt 0.0 1.0
vt 0.0 1.0
vt 0.0 1.0
vt 0.0 1.0
vt 0.0 1.0
vt 0.0 1.0
vt 0.0 1.0
vt 0.0 1.0
vt 0.0 1.0
vt 0.0 1.0
vt 0.0 1.0
vt 0.0 1.0
vt 0.0 1.0
vt 0.0 1.0

g 
s 1
usemtl 
f 6/6/6 2/2/2 4/4/4 
f 7/7/7 2/2/2 3/3/3 
f 8/8/8 4/4/4 2/2/2 
f 9/9/9 6/6/6 3/3/3 
f 9/9/9 3/3/3 2/2/2 
f 9/9/9 2/2/2 6/6/6 
f 10/10/10 3/3/3 6/6/6 
f 11/11/11 7/7/7 3/3/3 
f 12/12/12 7/7/7 5/5/5 
f 12/12/12 5/5/5 8/8/8 
f 12/12/12 8/8/8 2/2/2 
f 12/12/12 2/2/2 7/7/7 
f 13/13/13 6/6/6 4/4/4 
f 13/13/13 4/4/4 8/8/8 
f 13/13/13 10/10/10 6/6/6 
f 14/14/14 5/5/5 7/7/7 
f 14/14/14 7/7/7 11/11/11 
f 14/14/14 8/8/8 5/5/5 
f 15/15/15 1/1/1 11/11/11 
f 16/16/16 14/14/14 11/11/11 
f 16/16/16 11/11/11 1/1/1 
f 16/16/16 1/1/1 15/15/15 
f 16/16/16 15/15/15 10/10/10 
f 16/16/16 10/10/10 13/13/13 
f 17/17/17 13/13/13 8/8/8 
f 17/17/17 8/8/8 14/14/14 
f 17/17/17 16/16/16 13/13/13 
f 17/17/17 14/14/14 16/16/16 
f 18/18/18 15/15/15 11/11/11 
f 18/18/18 11/11/11 3/3/3 
f 18/18/18 3/3/3 10/10/10 
f 18/18/18 10/10/10 15/15/15 

