v -0.3809100389480591 0.5203214883804321 2.072861671447754
v -0.3806201219558716 0.92042475938797 1.8328261375427246
v -0.8101928234100342 0.7742065191268921 1.281086802482605
v -0.7890795469284058 0.4388696849346161 1.487001895904541
v -0.43905821442604065 1.5421017408370972 1.1702302694320679
v -0.818648636341095 1.241532564163208 0.7636653184890747
v -0.3806201219558716 0.92042475938797 1.8328261375427246
v -0.8180883526802063 1.4341931343078613 0.22631652653217316
v -0.43650388717651367 1.8135650157928467 0.49101683497428894
v -0.8101928234100342 0.7742065191268921 1.281086802482605
v -0.818648636341095 1.241532564163208 0.7636653184890747
v -0.9943902492523193 0.8767393231391907 0.58368319272995
v -0.9934942126274109 1.2214322090148926 0.08909095823764801
v -0.8180883526802063 1.4341931343078613 0.22631652653217316
v -0.7180675864219666 1.0004726648330688 0.050412796437740326
v -0.5313064455986023 0.5390047430992126 0.6077121496200562
v -0.9943902492523193 0.8767393231391907 0.58368319272995
v -0.9934942126274109 1.2214322090148926 0.08909095823764801
v -0.9946820139884949 0.41229820251464844 1.0441311597824097
v -0.5313064455986023 0.5390047430992126 0.6077121496200562
v -0.3806201219558716 0.92042475938797 1.8328261375427246
v -0.3809100389480591 0.5203214883804321 2.072861671447754
v -0.4955097734928131 0.5390047430992126 0.6011679768562317
v -0.43650388717651367 1.8135650157928467 0.49101683497428894
v -0.43650388717651367 1.8135650157928467 0.49101683497428894
v -0.43905821442604065 1.5421017408370972 1.1702302694320679
v -0.3806201219558716 0.92042475938797 1.8328261375427246
v -0.8101928234100342 0.7742065191268921 1.281086802482605
v -0.9943902492523193 0.8767393231391907 0.58368319272995
v -0.9946820139884949 0.41229820251464844 1.0441311597824097
v -0.7890795469284058 0.4388696849346161 1.487001895904541
v -0.4955097734928131 0.5390047430992126 0.6011679768562317
v -0.5313064455986023 0.5390047430992126 0.6077121496200562
v -0.7180675864219666 1.0004726648330688 0.050412796437740326
v -0.4955097734928131 0.5390047430992126 0.6011679768562317
v -0.7180675864219666 1.0004726648330688 0.050412796437740326
v -0.43650388717651367 1.8135650157928467 0.49101683497428894
v -0.5313064455986023 0.5390047430992126 0.6077121496200562
v -0.4955097734928131 0.5390047430992126 0.6011679768562317
v -0.3809100389480591 0.5203214883804321 2.072861671447754
v -0.9946820139884949 0.41229820251464844 1.0441311597824097
v -0.3809100389480591 0.5203214883804321 2.072861671447754
v -0.7890795469284058 0.4388696849346161 1.487001895904541
v -0.9946820139884949 0.41229820251464844 1.0441311597824097
v -0.43650388717651367 1.8135650157928467 0.49101683497428894
v -0.7180675864219666 1.0004726648330688 0.050412796437740326
v -0.9934942126274109 1.2214322090148926 0.08909095823764801
v -0.43650388717651367 1.8135650157928467 0.49101683497428894
v -0.8180883526802063 1.4341931343078613 0.22631652653217316
vn -0.7963027358055115 0.2969931960105896 0.5269696116447449
vn -0.788899302482605 0.3715033233165741 0.4895130693912506
vn -0.8286504745483398 0.3598615825176239 0.4287632405757904
vn -0.8372771739959717 0.28381890058517456 0.46734756231307983
vn -0.7759249210357666 0.5015756487846375 0.38257333636283875
vn -0.8084932565689087 0.4959923028945923 0.3167497515678406
vn -0.788899302482605 0.3715033233165741 0.4895130693912506
vn -0.8140639066696167 0.5345128774642944 0.22714698314666748
vn -0.7539132237434387 0.6144618391990662 0.2324897050857544
vn -0.8286504745483398 0.3598615825176239 0.4287632405757904
vn -0.8084932565689087 0.4959923028945923 0.3167497515678406
vn -0.8948874473571777 0.3752020299434662 0.24166063964366913
vn -0.8824511766433716 0.41773611307144165 0.21627852320671082
vn -0.8140639066696167 0.5345128774642944 0.22714698314666748
vn -0.5452908277511597 -0.7090709805488586 -0.4470752775669098
vn -0.4999469816684723 -0.6825771331787109 -0.5330493450164795
vn -0.518455445766449 -0.6938654780387878 -0.49975454807281494
vn -0.5452908277511597 -0.7090709805488586 -0.4470752775669098
vn -0.4301658868789673 -0.635442316532135 -0.6412255764007568
vn -0.4999469816684723 -0.6825771331787109 -0.5330493450164795
vn 0.9976229071617126 -0.029406506568193436 -0.06231994926929474
vn 0.9976229071617126 -0.029406506568193436 -0.06231994926929474
vn 0.9976229071617126 -0.029406500980257988 -0.06231994554400444
vn 0.9976229071617126 -0.029406506568193436 -0.062319956719875336
vn 0.9976229071617126 -0.029406506568193436 -0.062319956719875336
vn 0.9976229071617126 -0.029406506568193436 -0.062319956719875336
vn 0.9976229071617126 -0.029406506568193436 -0.06231994926929474
vn -0.8286504745483398 0.3598615825176239 0.4287632405757904
vn -0.9110713005065918 0.2496292144060135 0.3280767798423767
vn -0.9110713005065918 0.24962922930717468 0.3280767798423767
vn -0.8372771739959717 0.28381890058517456 0.46734756231307983
vn 0.8874436616897583 -0.10705487430095673 -0.44831132888793945
vn 0.8874436616897583 -0.10705487430095673 -0.44831138849258423
vn 0.8874436616897583 -0.10705485939979553 -0.44831132888793945
vn 0.8874436616897583 -0.10705487430095673 -0.44831132888793945
vn 0.8874436616897583 -0.10705485939979553 -0.44831132888793945
vn 0.8874436616897583 -0.10705487430095673 -0.44831138849258423
vn 0.22447995841503143 -0.9737021923065186 -0.038893092423677444
vn 0.22447995841503143 -0.9737021923065186 -0.038893092423677444
vn 0.22447995841503143 -0.9737021923065186 -0.03889309614896774
vn 0.22447995841503143 -0.9737021923065186 -0.03889309987425804
vn 0.22447995841503143 -0.9737021923065186 -0.03889309614896774
vn 0.22447991371154785 -0.9737021923065186 -0.038893092423677444
vn 0.22447995841503143 -0.9737021923065186 -0.03889309987425804
vn 0.2073575109243393 0.40835362672805786 -0.8889601230621338
vn 0.2073575109243393 0.40835365653038025 -0.8889601230621338
vn 0.2073575109243393 0.4083535969257355 -0.8889601826667786
vn 0.2073575109243393 0.40835362672805786 -0.8889601230621338
vn 0.2073575258255005 0.4083535969257355 -0.8889601826667786
vt 5.017897605895996 -4.939460277557373
vt 5.017897605895996 -4.972887992858887
vt -1.8645973205566406 -2.2906947135925293
vt -1.8837251663208008 -1.989586353302002
vt 5.4405412673950195 -4.062275409698486
vt -1.8639003038406372 -2.8324084281921387
vt 5.4405412673950195 -4.00527286529541
vt -1.8546783924102783 -3.2684078216552734
vt 5.4405412673950195 -4.120694160461426
vt -1.8645973205566406 -2.2906947135925293
vt -1.8639003038406372 -2.8324084281921387
vt -1.6232752799987793 -2.821589946746826
vt -1.6386909484863281 -3.293302536010742
vt -1.8546783924102783 -3.2684078216552734
vt 5.955994606018066 -4.510860443115234
vt 5.967949390411377 -4.787679672241211
vt 5.993252754211426 -4.792121410369873
vt 5.992985725402832 -4.750328063964844
vt 5.30679178237915 -4.922750949859619
vt 5.967949390411377 -4.787679672241211
vt 4.675209045410156 -4.0437421798706055
vt 4.647332191467285 -4.027354717254639
vt 5.889210224151611 -4.7298383712768555
vt 4.73958683013916 -4.139996528625488
vt 4.73958683013916 -4.139996528625488
vt 4.7200188636779785 -4.091279029846191
vt 4.675209045410156 -4.0437421798706055
vt -1.8645973205566406 -2.2906947135925293
vt -1.6232752799987793 -2.821589946746826
vt -1.5639643669128418 -2.057847261428833
vt -1.8837251663208008 -1.989586353302002
vt 5.631726264953613 -4.744520664215088
vt 5.644513130187988 -4.743442535400391
vt 5.644513130187988 -4.711092472076416
vt 5.631726264953613 -4.744520664215088
vt 5.644513130187988 -4.711092472076416
vt 5.4405412673950195 -4.120694160461426
vt 5.967949390411377 -4.787679672241211
vt 5.631726264953613 -4.744520664215088
vt 4.647332191467285 -4.027354717254639
vt -1.5639643669128418 -2.057847261428833
vt 4.647332191467285 -4.027354717254639
vt -1.8837251663208008 -1.989586353302002
vt -1.5639643669128418 -2.057847261428833
vt 5.4405412673950195 -4.120694160461426
vt 5.644513130187988 -4.711092472076416
vt 5.992985725402832 -4.750328063964844
vt 5.4405412673950195 -4.120694160461426
vt -1.8546783924102783 -3.2684078216552734

g Alienware_Ears_L_Col_2
s 1
usemtl Alienware_Ears_L_Col_2
f 1/1/1 2/2/2 3/3/3 
f 1/1/1 3/3/3 4/4/4 
f 5/5/5 6/6/6 3/3/3 
f 5/5/5 3/3/3 7/7/7 
f 5/5/5 8/8/8 6/6/6 
f 5/5/5 9/9/9 8/8/8 
f 10/10/10 11/11/11 12/12/12 
f 13/13/13 12/12/12 11/11/11 
f 13/13/13 11/11/11 14/14/14 
f 15/15/15 16/16/16 17/17/17 
f 15/15/15 17/17/17 18/18/18 
f 19/19/19 17/17/17 20/20/20 
f 21/21/21 22/22/22 23/23/23 
f 23/23/23 24/24/24 21/21/21 
f 25/25/25 26/26/26 27/27/27 
f 28/28/28 29/29/29 30/30/30 
f 28/28/28 30/30/30 31/31/31 
f 32/32/32 33/33/33 34/34/34 
f 35/35/35 36/36/36 37/37/37 
f 38/38/38 39/39/39 40/40/40 
f 40/40/40 41/41/41 38/38/38 
f 42/42/42 43/43/43 44/44/44 
f 45/45/45 46/46/46 47/47/47 
f 48/48/48 47/47/47 49/49/49 

