v 0.4394497275352478 1.1427340507507324 0.6086859107017517
v -0.2906185984611511 0.8078640699386597 0.4889658987522125
v -0.2829388380050659 0.5461061000823975 1.1718534231185913
v 0.4491807520389557 1.2733391523361206 -0.47725874185562134
v -0.2897894084453583 0.9003584384918213 -0.5505395531654358
v 0.9572100043296814 1.4112212657928467 -0.4863975942134857
v 0.9561220407485962 1.2611743211746216 0.6567642092704773
v 0.43698209524154663 0.7912821769714355 1.3779009580612183
v -0.2829388380050659 0.5461061000823975 1.1718534231185913
v 0.9628176093101501 0.8766459226608276 1.4544639587402344
v 0.44294267892837524 0.9569259285926819 -1.701448678970337
v -0.2897894084453583 0.9003584384918213 -0.5505395531654358
v 0.9559969305992126 1.0856685638427734 -1.7159185409545898
v 0.44294267892837524 0.9569259285926819 -1.701448678970337
v 0.4491807520389557 1.2733391523361206 -0.47725874185562134
v 0.44294267892837524 0.9569259285926819 -1.701448678970337
v 0.4280494451522827 0.5472868084907532 -1.755600094795227
v -0.3101757764816284 0.5472866892814636 -1.7807317972183228
v 0.44294267892837524 0.9569259285926819 -1.701448678970337
v -0.3101757764816284 0.5472866892814636 -1.7807317972183228
v -0.3019891381263733 0.6269694566726685 -1.7732746601104736
v 0.44294267892837524 0.9569259285926819 -1.701448678970337
v -0.3019891381263733 0.6269694566726685 -1.7732746601104736
v -0.2897894084453583 0.9003584384918213 -0.5505395531654358
v -0.29007017612457275 0.5372341871261597 1.0698292255401611
v -0.3101757764816284 0.5472866892814636 -1.7807317972183228
v 0.4280494451522827 0.5472868084907532 -1.755600094795227
v 0.9366884231567383 0.5410497784614563 1.0736364126205444
v 0.9492537379264832 0.5473658442497253 -1.780662178993225
v 0.9492537379264832 0.5473658442497253 -1.780662178993225
v 0.4280494451522827 0.5472868084907532 -1.755600094795227
v 0.44294267892837524 0.9569259285926819 -1.701448678970337
v 0.9559969305992126 1.0856685638427734 -1.7159185409545898
v -0.3101757764816284 0.5472866892814636 -1.7807317972183228
v -0.29007017612457275 0.5372341871261597 1.0698292255401611
v -0.2829388380050659 0.5461061000823975 1.1718534231185913
v -0.2906185984611511 0.8078640699386597 0.4889658987522125
v -0.3019891381263733 0.6269694566726685 -1.7732746601104736
v -0.2897894084453583 0.9003584384918213 -0.5505395531654358
v 0.9628176093101501 0.8766459226608276 1.4544639587402344
v 0.9366884231567383 0.5410497784614563 1.0736364126205444
v 0.9492537379264832 0.5473658442497253 -1.780662178993225
v 0.9559969305992126 1.0856685638427734 -1.7159185409545898
v 0.9561220407485962 1.2611743211746216 0.6567642092704773
v 0.9572100043296814 1.4112212657928467 -0.4863975942134857
v -0.2829388380050659 0.5461061000823975 1.1718534231185913
v -0.29007017612457275 0.5372341871261597 1.0698292255401611
v 0.9366884231567383 0.5410497784614563 1.0736364126205444
v 0.9366884231567383 0.5410497784614563 1.0736364126205444
v 0.9628176093101501 0.8766459226608276 1.4544639587402344
v -0.2829388380050659 0.5461061000823975 1.1718534231185913
v 0.43698209524154663 0.7912821769714355 1.3779009580612183
v -0.2829388380050659 0.5461061000823975 1.1718534231185913
vn -0.3521270155906677 0.9082702398300171 0.22594591975212097
vn -0.4349623918533325 0.8781585693359375 0.19911092519760132
vn -0.41490063071250916 0.8376589417457581 0.35522523522377014
vn -0.35444459319114685 0.9327069520950317 -0.06653357297182083
vn -0.42357301712036133 0.9020028114318848 -0.08352667838335037
vn 0.0 0.9999443292617798 0.010553840547800064
vn -0.0004722788871731609 0.9121484756469727 0.409859836101532
vn -0.3297361135482788 0.8623532652854919 0.384214848279953
vn -0.41490063071250916 0.8376589417457581 0.35522523522377014
vn -0.0009059633011929691 0.8354838490486145 0.5495142936706543
vn -0.34753379225730896 0.9104505181312561 -0.2242765575647354
vn -0.42357301712036133 0.9020028114318848 -0.08352667838335037
vn 0.0 0.9190556406974792 -0.39412757754325867
vn -0.34753379225730896 0.9104505181312561 -0.2242765575647354
vn -0.35444459319114685 0.9327069520950317 -0.06653357297182083
vn -0.025669729337096214 0.12485429644584656 -0.9918429255485535
vn -0.014026615768671036 0.12456671893596649 -0.9921120405197144
vn 0.03744450956583023 0.12309344857931137 -0.9916884303092957
vn -0.025669729337096214 0.12485429644584656 -0.9918429255485535
vn 0.03744450956583023 0.12309344857931137 -0.9916884303092957
vn 0.03744450956583023 0.12309344112873077 -0.9916884303092957
vn -0.34753379225730896 0.9104505181312561 -0.2242765575647354
vn -0.4014066159725189 0.8910837173461914 -0.21176056563854218
vn -0.42357301712036133 0.9020028114318848 -0.08352667838335037
vn 0.0015777962980791926 -0.9999946355819702 -0.002875811420381069
vn 0.0015777962980791926 -0.9999946355819702 -0.002875811653211713
vn 0.0015777962980791926 -0.9999946355819702 -0.002875811420381069
vn 0.0015777964144945145 -0.9999946355819702 -0.002875811653211713
vn 0.0015777964144945145 -0.9999946355819702 -0.002875811420381069
vn -0.05349373817443848 0.12547318637371063 -0.9906536936759949
vn -0.014026615768671036 0.12456671893596649 -0.9921120405197144
vn -0.025669729337096214 0.12485429644584656 -0.9918429255485535
vn 0.0 0.9190556406974792 -0.39412757754325867
vn -0.999416708946228 0.03368689864873886 0.005596535746008158
vn -0.999416708946228 0.03368690237402916 0.005596536211669445
vn -0.999416708946228 0.03368689864873886 0.005596536677330732
vn -0.999416708946228 0.03368689492344856 0.005596536211669445
vn -0.999416708946228 0.03368689864873886 0.005596536211669445
vn -0.999416708946228 0.03368689864873886 0.005596536211669445
vn -0.0009059633011929691 0.8354838490486145 0.5495142936706543
vn 0.9997931122779846 -0.020334044471383095 -0.0004848738026339561
vn 0.9997931122779846 -0.020334044471383095 -0.00048487374442629516
vn 0.0 0.9190556406974792 -0.39412757754325867
vn -0.0004722788871731609 0.9121484756469727 0.409859836101532
vn 0.0 0.9999443292617798 0.010553840547800064
vn 0.037316009402275085 -0.7972362041473389 0.6025130152702332
vn 0.037316009402275085 -0.7972361445426941 0.6025130748748779
vn 0.037316013127565384 -0.7972362041473389 0.6025130748748779
vn 0.037316013127565384 -0.7972362041473389 0.6025130748748779
vn 0.037316013127565384 -0.7972361445426941 0.6025130748748779
vn 0.037316009402275085 -0.7972362041473389 0.6025130152702332
vn 0.037316009402275085 -0.7972362041473389 0.6025130152702332
vn 0.037316009402275085 -0.7972362041473389 0.6025130152702332
vt -2.900451421737671 -3.3247642517089844
vt 5.510219573974609 -4.068021774291992
vt 5.510219573974609 -4.009603500366211
vt -2.8852810859680176 -3.979642868041992
vt 5.510219573974609 -4.157468795776367
vt -3.2769742012023926 -4.003372669219971
vt -3.278364896774292 -3.3371477127075195
vt -2.909029483795166 -2.84470796585083
vt 5.510219573974609 -4.009603500366211
vt -3.2848219871520996 -2.848905563354492
vt -2.796745538711548 -4.779917240142822
vt 5.510219573974609 -4.157468795776367
vt -3.276153326034546 -4.804654598236084
vt -2.796745538711548 -4.779917240142822
vt -2.8852810859680176 -3.979642868041992
vt 5.250197410583496 -4.939647197723389
vt 4.797455310821533 -4.792820930480957
vt 4.797455310821533 -4.738855361938477
vt 5.250197410583496 -4.939647197723389
vt 4.797455310821533 -4.738855361938477
vt 4.788451194763184 -4.738855361938477
vt -2.796745538711548 -4.779917240142822
vt 5.510219573974609 -4.263579845428467
vt 5.510219573974609 -4.157468795776367
vt 5.658472537994385 -4.244476318359375
vt 5.658472537994385 -4.001992225646973
vt 5.5937604904174805 -4.001992225646973
vt 5.54528284072876 -4.244476318359375
vt 5.54528284072876 -4.001992225646973
vt 4.797455310821533 -4.833248615264893
vt 4.797455310821533 -4.792820930480957
vt 5.250197410583496 -4.939647197723389
vt 5.240755558013916 -4.988124847412109
vt 4.885820388793945 -4.001974582672119
vt 4.885820388793945 -4.2041916847229
vt 4.889577865600586 -4.213775634765625
vt 4.909145355224609 -4.165058135986328
vt 4.894824504852295 -4.001974582672119
vt 4.915774345397949 -4.0904645919799805
vt 4.161318778991699 -4.094490051269531
vt 4.13332986831665 -4.124671459197998
vt 4.13332986831665 -4.326888561248779
vt 4.17569637298584 -4.322729110717773
vt 4.188865661621094 -4.151700019836426
vt 4.199655532836914 -4.233839511871338
vt 5.510219573974609 -4.009603500366211
vt 4.885820388793945 -4.2041916847229
vt 5.54528284072876 -4.244476318359375
vt 5.54528284072876 -4.244476318359375
vt 4.161318778991699 -4.094490051269531
vt 5.510219573974609 -4.009603500366211
vt -2.909029483795166 -2.84470796585083
vt 5.510219573974609 -4.009603500366211

g Alienware_Head_L_Col_1
s 1
usemtl Alienware_Head_L_Col_1
f 1/1/1 2/2/2 3/3/3 
f 4/4/4 2/2/2 1/1/1 
f 4/4/4 5/5/5 2/2/2 
f 6/6/6 4/4/4 1/1/1 
f 6/6/6 1/1/1 7/7/7 
f 7/7/7 1/1/1 8/8/8 
f 1/1/1 9/9/9 8/8/8 
f 7/7/7 8/8/8 10/10/10 
f 11/11/11 12/12/12 4/4/4 
f 6/6/6 13/13/13 14/14/14 
f 6/6/6 14/14/14 15/15/15 
f 16/16/16 17/17/17 18/18/18 
f 19/19/19 20/20/20 21/21/21 
f 22/22/22 23/23/23 24/24/24 
f 25/25/25 26/26/26 27/27/27 
f 28/28/28 25/25/25 27/27/27 
f 27/27/27 29/29/29 28/28/28 
f 30/30/30 31/31/31 32/32/32 
f 30/30/30 32/32/32 33/33/33 
f 34/34/34 35/35/35 36/36/36 
f 36/36/36 37/37/37 34/34/34 
f 37/37/37 38/38/38 34/34/34 
f 37/37/37 39/39/39 38/38/38 
f 40/40/40 41/41/41 42/42/42 
f 42/42/42 43/43/43 40/40/40 
f 43/43/43 44/44/44 40/40/40 
f 43/43/43 45/45/45 44/44/44 
f 46/46/46 47/47/47 48/48/48 
f 49/49/49 50/50/50 51/51/51 
f 50/50/50 52/52/52 53/53/53 

