v 0.9395406246185303 -0.8321920037269592 2.693202495574951
v 0.42634502053260803 -0.8308119177818298 2.5566964149475098
v 0.4071057140827179 -1.317779302597046 2.654782772064209
v 0.9521846771240234 -1.313867449760437 2.765678644180298
v -0.0910211130976677 -0.7749877572059631 2.318615198135376
v 0.4071057140827179 -1.317779302597046 2.654782772064209
v -0.0910211130976677 -0.7749877572059631 2.318615198135376
v -0.10599426180124283 -1.3139759302139282 2.4349145889282227
v 0.9467406868934631 -0.8321920037269592 1.0786329507827759
v 0.9492537379264832 -1.3104952573776245 1.079882025718689
v -0.12279357761144638 -1.3104777336120605 1.0798949003219604
v -0.10107970982789993 -0.7619108557701111 1.0798906087875366
v -0.12279357761144638 -1.3104777336120605 1.0798949003219604
v -0.10599426180124283 -1.3139759302139282 2.4349145889282227
v -0.0910211130976677 -0.7749877572059631 2.318615198135376
v -0.10107970982789993 -0.7619108557701111 1.0798906087875366
v -0.12279357761144638 -1.3104777336120605 1.0798949003219604
v 0.9492537379264832 -1.3104952573776245 1.079882025718689
v 0.9521846771240234 -1.313867449760437 2.765678644180298
v -0.10599426180124283 -1.3139759302139282 2.4349145889282227
v 0.4071057140827179 -1.317779302597046 2.654782772064209
v 0.9395406246185303 -0.8321920037269592 2.693202495574951
v 0.9521846771240234 -1.313867449760437 2.765678644180298
v 0.9492537379264832 -1.3104952573776245 1.079882025718689
v 0.9467406868934631 -0.8321920037269592 1.0786329507827759
v 0.9395406246185303 -0.8321920037269592 2.693202495574951
v 0.9467406868934631 -0.8321920037269592 1.0786329507827759
v -0.10107970982789993 -0.7619108557701111 1.0798906087875366
v -0.10107970982789993 -0.7619108557701111 1.0798906087875366
v -0.0910211130976677 -0.7749877572059631 2.318615198135376
v 0.9395406246185303 -0.8321920037269592 2.693202495574951
v -0.0910211130976677 -0.7749877572059631 2.318615198135376
v 0.42634502053260803 -0.8308119177818298 2.5566964149475098
v 0.9395406246185303 -0.8321920037269592 2.693202495574951
vn 0.0010632904013618827 0.22425906360149384 0.974528968334198
vn -0.3155492842197418 0.18788361549377441 0.9301227927207947
vn -0.1542455106973648 0.09693470597267151 0.9832659959793091
vn 0.00015870710194576532 0.08660293370485306 0.996242880821228
vn -0.3881017565727234 0.20089375972747803 0.8994547128677368
vn -0.1542455106973648 0.09693470597267151 0.9832659959793091
vn -0.3881017565727234 0.20089375972747803 0.8994547128677368
vn -0.38810181617736816 0.20089378952980042 0.899454653263092
vn -0.000639330770354718 -0.0012086034985259175 -0.9999990463256836
vn -0.0006393308867700398 -0.0012086037313565612 -0.9999990463256836
vn -0.0006393308285623789 -0.0012086034985259175 -0.9999990463256836
vn -0.000639330770354718 -0.0012086034985259175 -0.9999990463256836
vn -0.9993368983268738 0.03484155610203743 0.010570663027465343
vn -0.9993368983268738 0.03484155610203743 0.010570663958787918
vn -0.9993368983268738 0.03484155610203743 0.010570663958787918
vn -0.9993368983268738 0.03484155610203743 0.010570663958787918
vn 0.0007750567165203393 -0.9999938011169434 -0.003455846104770899
vn 0.0007750566583126783 -0.9999938011169434 -0.003455846104770899
vn 0.00015870710194576532 0.08660293370485306 0.996242880821228
vn 0.0007750566001050174 -0.9999938011169434 -0.003455845871940255
vn -0.1542455106973648 0.09693470597267151 0.9832659959793091
vn 0.0010632904013618827 0.22425906360149384 0.974528968334198
vn 0.00015870710194576532 0.08660293370485306 0.996242880821228
vn 0.9998729228973389 0.015887578949332237 0.001309611601755023
vn 0.9998729228973389 0.015887578949332237 0.001309611601755023
vn 0.05697610601782799 0.998281717300415 0.013683338649570942
vn 0.05697610601782799 0.998281717300415 0.013683338649570942
vn 0.05697610229253769 0.998281717300415 0.013683339580893517
vn 0.05697610229253769 0.998281717300415 0.013683339580893517
vn 0.05697610601782799 0.998281717300415 0.013683339580893517
vn 0.05697610601782799 0.998281717300415 0.013683338649570942
vn 0.05697610601782799 0.998281717300415 0.013683339580893517
vn 0.05697610229253769 0.998281717300415 0.013683337718248367
vn 0.05697610601782799 0.998281717300415 0.013683338649570942
vt -3.286691188812256 -1.6914176940917969
vt -2.932363748550415 -1.7129583358764648
vt -2.9280056953430176 -1.4259657859802246
vt -3.287809133529663 -1.4171867370605469
vt 5.0495405197143555 -4.354059219360352
vt -2.9280056953430176 -1.4259657859802246
vt 5.0495405197143555 -4.354059219360352
vt 5.001982688903809 -4.36305570602417
vt 5.769914627075195 -4.780979633331299
vt 5.769914627075195 -4.812474727630615
vt 5.867220401763916 -4.812474727630615
vt 5.867220401763916 -4.764916896820068
vt 4.754494667053223 -4.204193115234375
vt 4.754482269287109 -4.303080081939697
vt 4.794142723083496 -4.295577049255371
vt 4.794154644012451 -4.204193115234375
vt 4.7810587882995605 -4.53237247467041
vt 4.699912071228027 -4.53237247467041
vt 4.699912071228027 -4.6550679206848145
vt 4.781032562255859 -4.631259441375732
vt 4.742688179016113 -4.648868560791016
vt 4.038185119628906 -4.006288051605225
vt 4.001992225646973 -4.001974582672119
vt 4.002004146575928 -4.124670028686523
vt 4.028269290924072 -4.124670505523682
vt -3.286691188812256 -1.6914176940917969
vt 4.028269290924072 -4.124670505523682
vt 5.867220401763916 -4.764916896820068
vt 5.867220401763916 -4.764916896820068
vt 4.794142723083496 -4.295577049255371
vt -3.286691188812256 -1.6914176940917969
vt 4.794142723083496 -4.295577049255371
vt -2.932363748550415 -1.7129583358764648
vt -3.286691188812256 -1.6914176940917969

g Alienware_Head_L_Col_3
s 1
usemtl Alienware_Head_L_Col_3
f 1/1/1 2/2/2 3/3/3 
f 1/1/1 3/3/3 4/4/4 
f 3/3/3 2/2/2 5/5/5 
f 6/6/6 7/7/7 8/8/8 
f 9/9/9 10/10/10 11/11/11 
f 9/9/9 11/11/11 12/12/12 
f 13/13/13 14/14/14 15/15/15 
f 13/13/13 15/15/15 16/16/16 
f 17/17/17 18/18/18 19/19/19 
f 19/19/19 20/20/20 17/17/17 
f 19/19/19 21/21/21 20/20/20 
f 22/22/22 23/23/23 24/24/24 
f 22/22/22 24/24/24 25/25/25 
f 26/26/26 27/27/27 28/28/28 
f 29/29/29 30/30/30 31/31/31 
f 32/32/32 33/33/33 34/34/34 

