v 0.43698209524154663 0.7912821769714355 1.3779009580612183
v -0.2829388380050659 0.5461061000823975 1.1718534231185913
v -0.287883460521698 0.05323287844657898 1.6807605028152466
v 0.43622371554374695 0.23153747618198395 1.9656896591186523
v 0.961881160736084 0.2815304398536682 2.0615880489349365
v 0.9628176093101501 0.8766459226608276 1.4544639587402344
v 0.43698209524154663 0.7912821769714355 1.3779009580612183
v 0.43277496099472046 -0.3662071228027344 2.3934850692749023
v 0.9545515775680542 -0.3535919189453125 2.517374277114868
v 0.42634502053260803 -0.8308119177818298 2.5566964149475098
v 0.9395406246185303 -0.8321920037269592 2.693202495574951
v -0.28303587436676025 -0.4592498540878296 2.0650346279144287
v 0.43622371554374695 0.23153747618198395 1.9656896591186523
v -0.28303587436676025 -0.4592498540878296 2.0650346279144287
v 0.42634502053260803 -0.8308119177818298 2.5566964149475098
v -0.0910211130976677 -0.7749877572059631 2.318615198135376
v -0.10107970982789993 -0.7619108557701111 1.0798906087875366
v -0.0910211130976677 -0.7749877572059631 2.318615198135376
v -0.28303587436676025 -0.4592498540878296 2.0650346279144287
v -0.2884625196456909 -0.4401065707206726 1.079897403717041
v -0.2884625196456909 -0.4401065707206726 1.079897403717041
v -0.28303587436676025 -0.4592498540878296 2.0650346279144287
v -0.287883460521698 0.05323287844657898 1.6807605028152466
v -0.29007017612457275 0.5372341871261597 1.0698292255401611
v -0.2829388380050659 0.5461061000823975 1.1718534231185913
v 0.9545515775680542 -0.3535919189453125 2.517374277114868
v 0.9395406246185303 -0.8321920037269592 2.693202495574951
v 0.9467406868934631 -0.8321920037269592 1.0786329507827759
v 0.9366884231567383 0.5410497784614563 1.0736364126205444
v 0.961881160736084 0.2815304398536682 2.0615880489349365
v 0.9366884231567383 0.5410497784614563 1.0736364126205444
v 0.9628176093101501 0.8766459226608276 1.4544639587402344
v -0.2884625196456909 -0.4401065707206726 1.079897403717041
v -0.29007017612457275 0.5372341871261597 1.0698292255401611
v 0.9366884231567383 0.5410497784614563 1.0736364126205444
v -0.10107970982789993 -0.7619108557701111 1.0798906087875366
v 0.9467406868934631 -0.8321920037269592 1.0786329507827759
v 0.9366884231567383 0.5410497784614563 1.0736364126205444
v -0.29007017612457275 0.5372341871261597 1.0698292255401611
v -0.2829388380050659 0.5461061000823975 1.1718534231185913
v 0.9628176093101501 0.8766459226608276 1.4544639587402344
v 0.43698209524154663 0.7912821769714355 1.3779009580612183
v -0.10107970982789993 -0.7619108557701111 1.0798906087875366
v 0.9467406868934631 -0.8321920037269592 1.0786329507827759
v 0.9395406246185303 -0.8321920037269592 2.693202495574951
v -0.0910211130976677 -0.7749877572059631 2.318615198135376
v 0.9395406246185303 -0.8321920037269592 2.693202495574951
v 0.42634502053260803 -0.8308119177818298 2.5566964149475098
v -0.0910211130976677 -0.7749877572059631 2.318615198135376
vn -0.32116758823394775 0.6828857660293579 0.6561391353607178
vn -0.40804407000541687 0.6597216129302979 0.6310844421386719
vn -0.4121778905391693 0.6059927940368652 0.6803544759750366
vn -0.3226710557937622 0.6241134405136108 0.7115938067436218
vn -0.002358298748731613 0.7237833738327026 0.6900232434272766
vn -0.0009059633011929691 0.8354838490486145 0.5495142936706543
vn -0.32116758823394775 0.6828857660293579 0.6561391353607178
vn -0.3206997513771057 0.4819163382053375 0.8154191374778748
vn 0.0005610103253275156 0.4101283550262451 0.9120275974273682
vn -0.31220558285713196 0.3456942141056061 0.8848860263824463
vn 0.0010632904013618827 0.22425906360149384 0.974528968334198
vn -0.41231945157051086 0.49680179357528687 0.7636626362800598
vn -0.3226710557937622 0.6241134405136108 0.7115938067436218
vn -0.41231945157051086 0.49680179357528687 0.7636626362800598
vn -0.31220558285713196 0.3456942141056061 0.8848860263824463
vn -0.3989088833332062 0.35640063881874084 0.844896674156189
vn -0.8590957522392273 -0.5118128061294556 -0.0014332601567730308
vn -0.8590957522392273 -0.5118128657341003 -0.0014332602731883526
vn -0.8590957522392273 -0.5118128061294556 -0.0014332602731883526
vn -0.8590957522392273 -0.5118128657341003 -0.0014332603896036744
vn -0.9999784231185913 0.00042243354255333543 0.006568800192326307
vn -0.9999784231185913 0.0004224336298648268 0.006568801589310169
vn -0.9999784231185913 0.0004224336298648268 0.006568801589310169
vn -0.9999784231185913 0.0004224336298648268 0.006568801589310169
vn -0.9999784231185913 0.0004224335716571659 0.006568801123648882
vn 0.0005610103253275156 0.4101283550262451 0.9120275974273682
vn 0.0010632904013618827 0.22425906360149384 0.974528968334198
vn 0.9998555183410645 -0.011783022433519363 -0.012254116125404835
vn 0.9998555183410645 -0.011783023364841938 -0.012254116125404835
vn -0.002358298748731613 0.7237833738327026 0.6900232434272766
vn 0.9998555183410645 -0.011783023364841938 -0.012254116125404835
vn -0.0009059633011929691 0.8354838490486145 0.5495142936706543
vn -0.00010587682481855154 -0.005833911709487438 -0.9999829530715942
vn 0.0 1.0 0.0
vn -0.00010587682481855154 -0.0058339121751487255 -0.9999829530715942
vn -0.00010587682481855154 -0.0058339121751487255 -0.9999829530715942
vn -0.00010587681754259393 -0.005833911709487438 -0.9999829530715942
vn -0.03731607273221016 0.7972362041473389 -0.6025130748748779
vn -0.03731606900691986 0.7972361445426941 -0.6025130748748779
vn -0.03731607273221016 0.7972362041473389 -0.6025130152702332
vn -0.03731606900691986 0.7972361445426941 -0.6025130748748779
vn -0.03731607645750046 0.7972361445426941 -0.6025130748748779
vn -0.05697610229253769 -0.998281717300415 -0.013683339580893517
vn -0.05697610601782799 -0.998281717300415 -0.013683338649570942
vn -0.05697610601782799 -0.998281717300415 -0.013683338649570942
vn -0.05697610601782799 -0.998281717300415 -0.013683339580893517
vn -0.05697610601782799 -0.998281717300415 -0.013683338649570942
vn -0.05697610229253769 -0.998281717300415 -0.013683337718248367
vn -0.05697610601782799 -0.998281717300415 -0.013683339580893517
vt -2.909029483795166 -2.84470796585083
vt 5.071780204772949 -4.8559112548828125
vt 5.071780204772949 -4.831411361694336
vt -2.919187068939209 -2.548844814300537
vt -3.28800892829895 -2.551011800765991
vt -3.2848219871520996 -2.848905563354492
vt -2.909029483795166 -2.84470796585083
vt -2.931652307510376 -1.9840736389160156
vt -3.285551071166992 -1.9651167392730713
vt -2.932363748550415 -1.7129583358764648
vt -3.286691188812256 -1.6914176940917969
vt 5.071780204772949 -4.7687506675720215
vt -2.919187068939209 -2.548844814300537
vt 5.071780204772949 -4.7687506675720215
vt -2.932363748550415 -1.7129583358764648
vt 5.055865287780762 -4.741472244262695
vt 4.794154644012451 -4.204193115234375
vt 4.794142723083496 -4.295577049255371
vt 4.816891193389893 -4.277699947357178
vt 4.816903114318848 -4.204193115234375
vt 4.816903114318848 -4.204193115234375
vt 4.816891193389893 -4.277699947357178
vt 4.869146347045898 -4.24007511138916
vt 4.885820388793945 -4.2041916847229
vt 4.889577865600586 -4.213775634765625
vt 4.072874546051025 -4.018089294433594
vt 4.038185119628906 -4.006288051605225
vt 4.028269290924072 -4.124670505523682
vt 4.13332986831665 -4.124671459197998
vt 4.136379241943359 -4.063645839691162
vt 4.13332986831665 -4.124671459197998
vt 4.161318778991699 -4.094490051269531
vt 5.88310432434082 -4.7376389503479
vt 5.88310432434082 -4.654998779296875
vt 5.769914627075195 -4.654998779296875
vt 5.867220401763916 -4.764916896820068
vt 5.769914627075195 -4.780979633331299
vt 4.13332986831665 -4.124671459197998
vt 5.88310432434082 -4.654998779296875
vt 4.889577865600586 -4.213775634765625
vt -3.2848219871520996 -2.848905563354492
vt -2.909029483795166 -2.84470796585083
vt 4.794154644012451 -4.204193115234375
vt 5.769914627075195 -4.780979633331299
vt 4.038185119628906 -4.006288051605225
vt 5.055865287780762 -4.741472244262695
vt 4.038185119628906 -4.006288051605225
vt -2.932363748550415 -1.7129583358764648
vt 5.055865287780762 -4.741472244262695

g Alienware_Head_L_Col_2
s 1
usemtl Alienware_Head_L_Col_2
f 1/1/1 2/2/2 3/3/3 
f 1/1/1 3/3/3 4/4/4 
f 4/4/4 5/5/5 6/6/6 
f 4/4/4 6/6/6 7/7/7 
f 5/5/5 4/4/4 8/8/8 
f 5/5/5 8/8/8 9/9/9 
f 9/9/9 8/8/8 10/10/10 
f 9/9/9 10/10/10 11/11/11 
f 12/12/12 8/8/8 4/4/4 
f 12/12/12 13/13/13 3/3/3 
f 10/10/10 8/8/8 14/14/14 
f 15/15/15 14/14/14 16/16/16 
f 17/17/17 18/18/18 19/19/19 
f 17/17/17 19/19/19 20/20/20 
f 21/21/21 22/22/22 23/23/23 
f 23/23/23 24/24/24 21/21/21 
f 23/23/23 25/25/25 24/24/24 
f 26/26/26 27/27/27 28/28/28 
f 28/28/28 29/29/29 26/26/26 
f 29/29/29 30/30/30 26/26/26 
f 31/31/31 32/32/32 30/30/30 
f 33/33/33 34/34/34 35/35/35 
f 35/35/35 36/36/36 33/33/33 
f 35/35/35 37/37/37 36/36/36 
f 38/38/38 39/39/39 40/40/40 
f 40/40/40 41/41/41 38/38/38 
f 40/40/40 42/42/42 41/41/41 
f 43/43/43 44/44/44 45/45/45 
f 45/45/45 46/46/46 43/43/43 
f 47/47/47 48/48/48 49/49/49 

