v -0.6108697652816772 -1.0470223426818848 0.37207403779029846
v -0.9538940191268921 -0.0886712595820427 0.25557923316955566
v -0.9421270489692688 -0.13374893367290497 -0.0544443316757679
v -0.6108697652816772 -1.0470223426818848 0.37207403779029846
v -0.9421270489692688 -0.13374893367290497 -0.0544443316757679
v -0.7727459669113159 -0.642178475856781 -0.07755021750926971
v -0.6108697652816772 -1.0470223426818848 0.37207403779029846
v -0.7727459669113159 -0.642178475856781 -0.07755021750926971
v -0.5134271383285522 -0.6554742455482483 -0.05709485337138176
v -0.5388342142105103 -1.0726702213287354 0.3297763764858246
v -0.9538940191268921 -0.0886712595820427 0.25557923316955566
v -0.5200616121292114 -0.02432842180132866 0.23878543078899384
v -0.5134429931640625 -0.05120490863919258 -0.06765627861022949
v -0.9421270489692688 -0.13374893367290497 -0.0544443316757679
v -0.5388342142105103 -1.0726702213287354 0.3297763764858246
v -0.5134271383285522 -0.6554742455482483 -0.05709485337138176
v -0.5134429931640625 -0.05120490863919258 -0.06765627861022949
v -0.5200616121292114 -0.02432842180132866 0.23878543078899384
v -0.5134429931640625 -0.05120490863919258 -0.06765627861022949
v -0.5134271383285522 -0.6554742455482483 -0.05709485337138176
v -0.7727459669113159 -0.642178475856781 -0.07755021750926971
v -0.9421270489692688 -0.13374893367290497 -0.0544443316757679
v -0.5200616121292114 -0.02432842180132866 0.23878543078899384
v -0.9538940191268921 -0.0886712595820427 0.25557923316955566
v -0.6108697652816772 -1.0470223426818848 0.37207403779029846
v -0.5388342142105103 -1.0726702213287354 0.3297763764858246
vn -0.9442083835601807 -0.327857106924057 0.03130757063627243
vn -0.9442083835601807 -0.327857106924057 0.03130757063627243
vn -0.9442083835601807 -0.327857106924057 0.03130757063627243
vn -0.9442083835601807 -0.327857106924057 0.03130757063627243
vn -0.9442083835601807 -0.327857106924057 0.03130757063627243
vn -0.9442083835601807 -0.327857106924057 0.03130757063627243
vn -0.12945282459259033 -0.7177202701568604 -0.6841926574707031
vn -0.12945282459259033 -0.7177202701568604 -0.6841927170753479
vn -0.12945283949375153 -0.7177202701568604 -0.6841927170753479
vn -0.12945282459259033 -0.7177202105522156 -0.6841927766799927
vn -0.17071568965911865 0.9780771732330322 -0.11925315111875534
vn -0.17071568965911865 0.9780771732330322 -0.11925315856933594
vn -0.17071568965911865 0.9780771732330322 -0.11925315111875534
vn -0.17071567475795746 0.9780771732330322 -0.11925315111875534
vn 0.9991124272346497 -0.008806622587144375 0.041192419826984406
vn 0.9991124272346497 -0.0088066216558218 0.041192419826984406
vn 0.9991124272346497 -0.00880662351846695 0.041192423552274704
vn 0.9991124272346497 -0.008806622587144375 0.041192423552274704
vn 0.00925053283572197 0.012680787593126297 -0.999876856803894
vn 0.009250534698367119 0.012680787593126297 -0.999876856803894
vn 0.00925053283572197 0.012680786661803722 -0.999876856803894
vn 0.009250533767044544 0.012680787593126297 -0.999876856803894
vn 0.10619334876537323 0.11922948062419891 0.9871713519096375
vn 0.10619335621595383 0.11922948807477951 0.9871713519096375
vn 0.10619334876537323 0.11922949552536011 0.9871713519096375
vn 0.10619335621595383 0.11922948807477951 0.9871713519096375
vt 5.557158946990967 -4.823328971862793
vt -1.210827350616455 -0.39909684658050537
vt -1.0717167854309082 -0.25911474227905273
vt 5.557158946990967 -4.823328971862793
vt -1.0717167854309082 -0.25911474227905273
vt 5.592208385467529 -4.857690811157227
vt 4.231322288513184 -4.4046406745910645
vt 4.244997024536133 -4.3759846687316895
vt 4.222623348236084 -4.375982761383057
vt 4.222623348236084 -4.404679298400879
vt 5.958346366882324 -4.927590370178223
vt 5.937095642089844 -4.865877151489258
vt 5.937095642089844 -4.894097328186035
vt 5.958346366882324 -4.954552173614502
vt 5.092075824737549 -4.40609884262085
vt 5.057026386260986 -4.440509796142578
vt 5.057026386260986 -4.494593620300293
vt 5.085247039794922 -4.499420642852783
vt 4.222623348236084 -4.330880165100098
vt 4.222623348236084 -4.375982761383057
vt 4.244997024536133 -4.3759846687316895
vt 4.255586624145508 -4.336741924285889
vt 5.085247039794922 -4.499420642852783
vt 5.958346366882324 -4.927590370178223
vt 5.557158946990967 -4.823328971862793
vt 4.222623348236084 -4.404679298400879

g Alienware_Jaw_L_Col_4
s 1
usemtl Alienware_Jaw_L_Col_4
f 1/1/1 2/2/2 3/3/3 
f 4/4/4 5/5/5 6/6/6 
f 7/7/7 8/8/8 9/9/9 
f 7/7/7 9/9/9 10/10/10 
f 11/11/11 12/12/12 13/13/13 
f 11/11/11 13/13/13 14/14/14 
f 15/15/15 16/16/16 17/17/17 
f 15/15/15 17/17/17 18/18/18 
f 19/19/19 20/20/20 21/21/21 
f 19/19/19 21/21/21 22/22/22 
f 23/23/23 24/24/24 25/25/25 
f 23/23/23 25/25/25 26/26/26 

