v -0.62274169921875 0.20278030633926392 -1.141141414642334
v -1.0831772089004517 0.1896279901266098 -1.0514196157455444
v -1.081502079963684 0.7129603624343872 -0.7925031185150146
v -0.62274169921875 0.7812126278877258 -0.8521815538406372
v -0.62274169921875 -0.4276750087738037 -1.0346529483795166
v -1.0815212726593018 -0.3880669176578522 -0.9579542875289917
v -1.0831772089004517 0.1896279901266098 -1.0514196157455444
v -0.62274169921875 0.20278030633926392 -1.141141414642334
v -0.62274169921875 -0.8773081302642822 -0.5811800360679626
v -1.0831729173660278 -0.7959410548210144 -0.5411459803581238
v -1.0815212726593018 -0.3880669176578522 -0.9579542875289917
v -0.62274169921875 -0.4276750087738037 -1.0346529483795166
v -0.62274169921875 -0.9703884124755859 0.0499119833111763
v -1.0832055807113647 -0.8815930485725403 0.03487423434853554
v -1.0831729173660278 -0.7959410548210144 -0.5411459803581238
v -0.62274169921875 -0.8773081302642822 -0.5811800360679626
v -0.62274169921875 -0.6793144345283508 0.6212920546531677
v -1.0815017223358154 -0.6170181035995483 0.5553227066993713
v -1.0832055807113647 -0.8815930485725403 0.03487423434853554
v -0.62274169921875 -0.9703884124755859 0.0499119833111763
v -1.0831729173660278 -0.7959410548210144 -0.5411459803581238
v -1.0832055807113647 -0.8815930485725403 0.03487423434853554
v -1.0815017223358154 -0.6170181035995483 0.5553227066993713
v -1.0815212726593018 -0.3880669176578522 -0.9579542875289917
v -1.0831772089004517 -0.0936882346868515 0.8142381310462952
v -1.0831772089004517 0.1896279901266098 -1.0514196157455444
v -1.0815218687057495 0.4840049743652344 0.7207701802253723
v -1.081502079963684 0.7129603624343872 -0.7925031185150146
v -1.0831729173660278 0.8918803334236145 0.3039654791355133
v -1.0832055807113647 0.9775347709655762 -0.2720571458339691
v -1.0815218687057495 0.4840049743652344 0.7207701802253723
v -1.0831772089004517 -0.0936882346868515 0.8142381310462952
v -0.62274169921875 -0.10682815313339233 0.903961181640625
v -0.62274169921875 0.5236278176307678 0.7974584698677063
v -1.0831729173660278 0.8918803334236145 0.3039654791355133
v -1.0815218687057495 0.4840049743652344 0.7207701802253723
v -0.62274169921875 0.5236278176307678 0.7974584698677063
v -0.62274169921875 0.9732555747032166 0.3439851999282837
v -1.0832055807113647 0.9775347709655762 -0.2720571458339691
v -1.0831729173660278 0.8918803334236145 0.3039654791355133
v -0.62274169921875 0.9732555747032166 0.3439851999282837
v -0.62274169921875 1.0664663314819336 -0.28709128499031067
v -1.081502079963684 0.7129603624343872 -0.7925031185150146
v -1.0832055807113647 0.9775347709655762 -0.2720571458339691
v -0.62274169921875 1.0664663314819336 -0.28709128499031067
v -1.081502079963684 0.7129603624343872 -0.7925031185150146
v -0.62274169921875 1.0664663314819336 -0.28709128499031067
v -0.62274169921875 0.7812126278877258 -0.8521815538406372
v -0.62274169921875 -0.10682815313339233 0.903961181640625
v -1.0831772089004517 -0.0936882346868515 0.8142381310462952
v -1.0815017223358154 -0.6170181035995483 0.5553227066993713
v -0.62274169921875 -0.6793144345283508 0.6212920546531677
v -0.62274169921875 -0.6793144345283508 0.6212920546531677
v -0.62274169921875 -0.3044032156467438 0.8611578941345215
v -0.62274169921875 -0.10682815313339233 0.903961181640625
v -0.62274169921875 -0.6793144345283508 0.6212920546531677
v -0.62274169921875 -0.9703884124755859 0.0499119833111763
v -0.62274169921875 -0.8773081302642822 -0.5811800360679626
v -0.62274169921875 -0.8773081302642822 -0.5811800360679626
v -0.62274169921875 -0.4276750087738037 -1.0346529483795166
v -0.62274169921875 -0.6793144345283508 0.6212920546531677
v -0.62274169921875 0.20278030633926392 -1.141141414642334
v -0.62274169921875 -0.3044032156467438 0.8611578941345215
v -0.62274169921875 0.7812126278877258 -0.8521815538406372
v -0.62274169921875 0.5236278176307678 0.7974584698677063
v -0.62274169921875 1.0664663314819336 -0.28709128499031067
v -0.62274169921875 0.9732555747032166 0.3439851999282837
v -0.62274169921875 -0.4276750087738037 -1.0346529483795166
v -0.62274169921875 -0.3044032156467438 0.8611578941345215
v -0.62274169921875 -0.6793144345283508 0.6212920546531677
v -0.62274169921875 0.20278030633926392 -1.141141414642334
v -0.62274169921875 -0.10682815313339233 0.903961181640625
v -0.62274169921875 0.5236278176307678 0.7974584698677063
v -0.62274169921875 0.7812126278877258 -0.8521815538406372
v -0.62274169921875 0.9732555747032166 0.3439851999282837
v -0.62274169921875 0.5236278176307678 0.7974584698677063
vn -0.18188194930553436 0.4380532205104828 -0.8803569674491882
vn -0.18188194930553436 0.4380532205104828 -0.8803569674491882
vn -0.18188194930553436 0.438053160905838 -0.8803569674491882
vn -0.18188193440437317 0.438053160905838 -0.8803569674491882
vn -0.1803109347820282 -0.16084709763526917 -0.9703691005706787
vn -0.1803109347820282 -0.16084709763526917 -0.9703691005706787
vn -0.180310919880867 -0.16084709763526917 -0.9703691005706787
vn -0.180310919880867 -0.16084709763526917 -0.9703691005706787
vn -0.17989319562911987 -0.7005237936973572 -0.6905829906463623
vn -0.17989318072795868 -0.7005237340927124 -0.6905829906463623
vn -0.17989318072795868 -0.7005237340927124 -0.6905829906463623
vn -0.1798931509256363 -0.7005237340927124 -0.6905829906463623
vn -0.18358783423900604 -0.9724011421203613 -0.14398448169231415
vn -0.18358786404132843 -0.9724011421203613 -0.14398449659347534
vn -0.18358786404132843 -0.9724011421203613 -0.14398448169231415
vn -0.18358783423900604 -0.9724011421203613 -0.14398448169231415
vn -0.18330159783363342 -0.8760101795196533 0.4461015462875366
vn -0.18330158293247223 -0.8760101795196533 0.44610148668289185
vn -0.18330161273479462 -0.8760102987289429 0.44610148668289185
vn -0.1833016276359558 -0.8760102987289429 0.44610148668289185
vn -1.0 0.0 0.0
vn -1.0 0.0 0.0
vn -1.0 0.0 0.0
vn -1.0 0.0 0.0
vn -1.0 0.0 0.0
vn -1.0 0.0 0.0
vn -1.0 0.0 0.0
vn -1.0 0.0 0.0
vn -1.0 0.0 0.0
vn -1.0 0.0 0.0
vn -0.18030628561973572 0.16086047887802124 0.9703677296638489
vn -0.1803063005208969 0.16086047887802124 0.9703677296638489
vn -0.18030627071857452 0.16086046397686005 0.9703677296638489
vn -0.1803063005208969 0.16086047887802124 0.9703677296638489
vn -0.1798919290304184 0.7005243897438049 0.6905826926231384
vn -0.1798919141292572 0.7005244493484497 0.6905825734138489
vn -0.1798919439315796 0.7005244493484497 0.6905825734138489
vn -0.1798919439315796 0.7005244493484497 0.6905826330184937
vn -0.18373353779315948 0.9723584055900574 0.14408671855926514
vn -0.18373355269432068 0.9723584055900574 0.14408673346042633
vn -0.18373353779315948 0.9723584055900574 0.14408670365810394
vn -0.18373355269432068 0.9723584055900574 0.14408673346042633
vn -0.18596720695495605 0.8764148950576782 -0.4441992938518524
vn -0.18596717715263367 0.8764148950576782 -0.4441992938518524
vn -0.18596720695495605 0.8764148950576782 -0.4441993534564972
vn -0.18596720695495605 0.8764148950576782 -0.4441992938518524
vn -0.18596720695495605 0.8764148950576782 -0.4441993534564972
vn -0.18596719205379486 0.8764148950576782 -0.4441993534564972
vn -0.2370462715625763 -0.4306665062904358 0.8708245754241943
vn -0.23704630136489868 -0.4306664764881134 0.8708245754241943
vn -0.2370462715625763 -0.4306665062904358 0.8708245754241943
vn -0.2370462715625763 -0.4306665360927582 0.8708245754241943
vn -0.2370462715625763 -0.4306665360927582 0.8708245754241943
vn -0.2370462715625763 -0.4306665062904358 0.8708245754241943
vn -0.2370462715625763 -0.4306665062904358 0.8708245754241943
vn 1.0 1.0821824503182143e-07 0.0
vn 1.0 1.0821824503182143e-07 0.0
vn 1.0 1.0821824503182143e-07 0.0
vn 1.0 1.0821824503182143e-07 0.0
vn 1.0 1.0821824503182143e-07 0.0
vn 1.0 1.0821824503182143e-07 0.0
vn 1.0 1.0821824503182143e-07 0.0
vn 1.0 1.082182663481035e-07 0.0
vn 1.0 1.0821825213724878e-07 0.0
vn 1.0 1.0821824503182143e-07 0.0
vn 1.0 1.0821825213724878e-07 0.0
vn 1.0 1.0821824503182143e-07 0.0
vn 1.0 1.0821824503182143e-07 0.0
vn 1.0 1.082182663481035e-07 0.0
vn 1.0 1.0821824503182143e-07 0.0
vn 1.0 1.0821824503182143e-07 0.0
vn 1.0 1.0821824503182143e-07 0.0
vn 1.0 1.0821824503182143e-07 0.0
vn 1.0 1.0821825213724878e-07 0.0
vn 1.0 1.0821824503182143e-07 0.0
vn 1.0 1.0821824503182143e-07 0.0
vt 4.647290229797363 -4.5823974609375
vt 4.693403244018555 -4.583418369293213
vt 4.693403244018555 -4.5457353591918945
vt 4.661320686340332 -4.540846824645996
vt 4.647290229797363 -4.628332614898682
vt 4.693403244018555 -4.6250834465026855
vt 4.693403244018555 -4.583418369293213
vt 4.647290229797363 -4.5823974609375
vt 4.647290229797363 -4.655727863311768
vt 4.693403244018555 -4.649919033050537
vt 4.693403244018555 -4.6250834465026855
vt 4.647290229797363 -4.628332614898682
vt 4.875317573547363 -4.668816089630127
vt 4.921430587768555 -4.667649269104004
vt 4.921430587768555 -4.625926971435547
vt 4.875317573547363 -4.6228179931640625
vt 4.9136061668396 -4.716744422912598
vt 4.921430587768555 -4.705165386199951
vt 4.921430587768555 -4.667649269104004
vt 4.875317573547363 -4.668816089630127
vt 4.1017255783081055 -4.51112174987793
vt 4.06000280380249 -4.504912376403809
vt 4.022486686706543 -4.524299621582031
vt 4.131688594818115 -4.540823936462402
vt 4.003567218780518 -4.56198263168335
vt 4.138678550720215 -4.582489013671875
vt 4.010557651519775 -4.603647232055664
vt 4.119758605957031 -4.620172023773193
vt 4.040520668029785 -4.633349895477295
vt 4.082242965698242 -4.639559745788574
vt 4.998007774353027 -4.799168586730957
vt 4.998007774353027 -4.757503509521484
vt 4.970602035522461 -4.756483554840088
vt 4.970602035522461 -4.8024187088012695
vt 4.998007774353027 -4.824004650115967
vt 4.998007774353027 -4.799168586730957
vt 4.970602035522461 -4.8024187088012695
vt 4.970602035522461 -4.829813003540039
vt 4.082242965698242 -4.639559745788574
vt 4.040520668029785 -4.633349895477295
vt 4.6938042640686035 -4.6703691482543945
vt 4.6938042640686035 -4.716366767883301
vt 4.119758605957031 -4.620172023773193
vt 4.082242965698242 -4.639559745788574
vt 4.6938042640686035 -4.716366767883301
vt 4.119758605957031 -4.620172023773193
vt 4.6938042640686035 -4.716366767883301
vt 4.6938042640686035 -4.7493438720703125
vt 4.970602035522461 -4.756483554840088
vt 4.998007774353027 -4.757503509521484
vt 4.998007774353027 -4.727499485015869
vt 4.9136061668396 -4.716744422912598
vt 4.9136061668396 -4.716744422912598
vt 4.951894760131836 -4.7406415939331055
vt 4.970602035522461 -4.756483554840088
vt 4.9136061668396 -4.716744422912598
vt 4.875317573547363 -4.668816089630127
vt 4.875317573547363 -4.6228179931640625
vt 4.875317573547363 -4.6228179931640625
vt 4.647290229797363 -4.628332614898682
vt 4.9136061668396 -4.716744422912598
vt 4.647290229797363 -4.5823974609375
vt 4.951894760131836 -4.7406415939331055
vt 4.661320686340332 -4.540846824645996
vt 4.970602035522461 -4.8024187088012695
vt 4.6938042640686035 -4.716366767883301
vt 4.6938042640686035 -4.6703691482543945
vt 4.647290229797363 -4.628332614898682
vt 4.951894760131836 -4.7406415939331055
vt 4.9136061668396 -4.716744422912598
vt 4.647290229797363 -4.5823974609375
vt 4.970602035522461 -4.756483554840088
vt 4.970602035522461 -4.8024187088012695
vt 4.661320686340332 -4.540846824645996
vt 4.6938042640686035 -4.6703691482543945
vt 4.970602035522461 -4.8024187088012695

g Alienware_Ears_L_Col_1
s 1
usemtl Alienware_Ears_L_Col_1
f 1/1/1 2/2/2 3/3/3 
f 1/1/1 3/3/3 4/4/4 
f 5/5/5 6/6/6 7/7/7 
f 5/5/5 7/7/7 8/8/8 
f 9/9/9 10/10/10 11/11/11 
f 9/9/9 11/11/11 12/12/12 
f 13/13/13 14/14/14 15/15/15 
f 13/13/13 15/15/15 16/16/16 
f 17/17/17 18/18/18 19/19/19 
f 17/17/17 19/19/19 20/20/20 
f 21/21/21 22/22/22 23/23/23 
f 23/23/23 24/24/24 21/21/21 
f 23/23/23 25/25/25 24/24/24 
f 25/25/25 26/26/26 24/24/24 
f 25/25/25 27/27/27 26/26/26 
f 27/27/27 28/28/28 26/26/26 
f 27/27/27 29/29/29 28/28/28 
f 29/29/29 30/30/30 28/28/28 
f 31/31/31 32/32/32 33/33/33 
f 31/31/31 33/33/33 34/34/34 
f 35/35/35 36/36/36 37/37/37 
f 35/35/35 37/37/37 38/38/38 
f 39/39/39 40/40/40 41/41/41 
f 39/39/39 41/41/41 42/42/42 
f 43/43/43 44/44/44 45/45/45 
f 46/46/46 47/47/47 48/48/48 
f 49/49/49 50/50/50 51/51/51 
f 51/51/51 52/52/52 49/49/49 
f 53/53/53 54/54/54 55/55/55 
f 56/56/56 57/57/57 58/58/58 
f 59/59/59 60/60/60 61/61/61 
f 60/60/60 62/62/62 63/63/63 
f 62/62/62 64/64/64 65/65/65 
f 64/64/64 66/66/66 67/67/67 
f 68/68/68 69/69/69 70/70/70 
f 71/71/71 72/72/72 69/69/69 
f 71/71/71 73/73/73 72/72/72 
f 74/74/74 75/75/75 76/76/76 

