v 0.8918798565864563 0.8472190499305725 3.6004786491394043
v -0.4698852300643921 1.2823855876922607 2.3927407264709473
v 0.9033446907997131 0.3387660086154938 3.278852701187134
v 0.9041332602500916 1.3784817457199097 2.3145384788513184
v -0.057636722922325134 0.8519124388694763 3.6654908657073975
v -0.12103759497404099 0.34761661291122437 3.286862373352051
vn 0.5497162342071533 0.5678321719169617 0.6126815676689148
vn -0.48707690834999084 -0.2919777035713196 -0.8231070637702942
vn 0.25522810220718384 -0.8755527138710022 -0.41020259261131287
vn 0.41845816373825073 0.895929217338562 -0.1490085870027542
vn -0.24435940384864807 0.6648440361022949 0.7058830261230469
vn -0.5059531331062317 -0.8534864783287048 -0.12478850036859512
vt 0.0 1.0
vt 0.0 1.0
vt 0.0 1.0
vt 0.0 1.0
vt 0.0 1.0
vt 0.0 1.0

g Eagle_Neck_L_Col
s 1
usemtl Eagle_Neck_L_Col
f 1/1/1 3/3/3 4/4/4 
f 3/3/3 2/2/2 4/4/4 
f 5/5/5 1/1/1 4/4/4 
f 5/5/5 4/4/4 2/2/2 
f 5/5/5 3/3/3 1/1/1 
f 6/6/6 5/5/5 2/2/2 
f 6/6/6 2/2/2 3/3/3 
f 6/6/6 3/3/3 5/5/5 

