v 0.9046947956085205 0.38641324639320374 1.530184030532837
v -0.5521532893180847 -0.5282450914382935 0.18833892047405243
v 0.8991162180900574 0.39947080612182617 0.2421654313802719
v -0.556872546672821 0.41821929812431335 0.2634589970111847
v -0.5689623951911926 0.4286230504512787 1.5576896667480469
v 0.9085814952850342 -0.5207754969596863 0.24710708856582642
v -0.6349536180496216 -0.38178279995918274 0.6973693370819092
v 0.9195141196250916 0.3661593198776245 1.4756883382797241
v -0.5934130549430847 -0.3770061433315277 0.876717746257782
v 0.917346179485321 -0.38336336612701416 0.8415886759757996
v -0.47662353515625 0.3652368187904358 1.506269097328186
vn 0.055126942694187164 -0.031074682250618935 0.9979956746101379
vn -0.16674400866031647 -0.337650328874588 -0.926384687423706
vn 0.32325753569602966 0.7753725051879883 -0.5424962043762207
vn -0.5063027143478394 0.7039455771446228 -0.49811461567878723
vn -0.2845029830932617 0.9573933482170105 0.049558911472558975
vn 0.2719931900501251 -0.8658976554870605 -0.41981053352355957
vn -0.9993036985397339 0.023691343143582344 -0.028821611776947975
vn 0.9997889995574951 0.02012273110449314 -0.004126219544559717
vn -0.03155551850795746 -0.8213302493095398 0.5695796012878418
vn 0.5476188063621521 -0.684711754322052 0.4809194505214691
vn -0.004232239909470081 -0.6454669237136841 0.7637766003608704
vt 0.0 1.0
vt 0.0 1.0
vt 0.0 1.0
vt 0.0 1.0
vt 0.0 1.0
vt 0.0 1.0
vt 0.0 1.0
vt 0.0 1.0
vt 0.0 1.0
vt 0.0 1.0
vt 0.0 1.0

g Eagle_Feathers_L_Col
s 1
usemtl Eagle_Feathers_L_Col
f 3/3/3 2/2/2 4/4/4 
f 5/5/5 1/1/1 3/3/3 
f 5/5/5 3/3/3 4/4/4 
f 6/6/6 2/2/2 3/3/3 
f 7/7/7 5/5/5 4/4/4 
f 7/7/7 4/4/4 2/2/2 
f 8/8/8 3/3/3 1/1/1 
f 9/9/9 7/7/7 2/2/2 
f 9/9/9 2/2/2 6/6/6 
f 9/9/9 5/5/5 7/7/7 
f 10/10/10 6/6/6 3/3/3 
f 10/10/10 3/3/3 8/8/8 
f 10/10/10 8/8/8 1/1/1 
f 10/10/10 9/9/9 6/6/6 
f 10/10/10 1/1/1 9/9/9 
f 11/11/11 9/9/9 1/1/1 
f 11/11/11 1/1/1 5/5/5 
f 11/11/11 5/5/5 9/9/9 

