v 0.9033446907997131 0.3387660086154938 3.278852701187134
v 0.9186522960662842 -0.7118211984634399 1.034382939338684
v 0.9163867235183716 -0.7617132663726807 2.477259635925293
v 0.9037890434265137 1.2686684131622314 1.5729948282241821
v -0.4383032023906708 0.46530091762542725 2.221118688583374
v 0.9056054353713989 1.114479899406433 2.056687831878662
v 0.16829344630241394 -0.6057747006416321 2.440026044845581
v -0.12103759497404099 0.34761661291122437 3.286862373352051
vn 0.7072033882141113 0.15851421654224396 0.6890113353729248
vn 0.06977321207523346 -0.3660903871059418 -0.9279598593711853
vn 0.810849130153656 -0.47810691595077515 0.33754611015319824
vn -0.419187992811203 0.7316202521324158 -0.5375993847846985
vn -0.8759803175926208 0.12869423627853394 -0.4648616909980774
vn 0.9384260177612305 0.3037014603614807 0.16468782722949982
vn -0.674568772315979 -0.7373605370521545 0.035447727888822556
vn -0.5170146226882935 0.31228941679000854 0.7969762682914734
vt 0.0 1.0
vt 0.0 1.0
vt 0.0 1.0
vt 0.0 1.0
vt 0.0 1.0
vt 0.0 1.0
vt 0.0 1.0
vt 0.0 1.0

g Eagle_Neck_L_Col
s 1
usemtl Eagle_Neck_L_Col
f 5/5/5 4/4/4 2/2/2 
f 6/6/6 3/3/3 2/2/2 
f 6/6/6 2/2/2 4/4/4 
f 6/6/6 1/1/1 3/3/3 
f 7/7/7 5/5/5 2/2/2 
f 7/7/7 2/2/2 3/3/3 
f 8/8/8 1/1/1 6/6/6 
f 8/8/8 5/5/5 7/7/7 
f 8/8/8 7/7/7 3/3/3 
f 8/8/8 3/3/3 1/1/1 
f 8/8/8 6/6/6 4/4/4 
f 8/8/8 4/4/4 5/5/5 

