v 0.4383032023906708 0.46530091762542725 2.221118688583374
v -0.9186522960662842 -0.7118211984634399 1.034382939338684
v 0.23820799589157104 -0.6510540843009949 0.9989527463912964
v -0.9075952172279358 0.5340607762336731 1.0561991930007935
v -0.9163867235183716 -0.7617132663726807 2.477259635925293
v -0.16829344630241394 -0.6057747006416321 2.440026044845581
vn 0.45093870162963867 0.7920452952384949 0.4114832878112793
vn -0.6225643754005432 -0.5763416886329651 -0.5293806791305542
vn 0.7057195901870728 -0.45802026987075806 -0.5405341386795044
vn -0.46265414357185364 0.8346434831619263 -0.29886695742607117
vn -0.7465288043022156 -0.1683516651391983 0.6437022089958191
vn 0.6431983113288879 -0.6148664951324463 0.4563279449939728
vt 0.0 1.0
vt 0.0 1.0
vt 0.0 1.0
vt 0.0 1.0
vt 0.0 1.0
vt 0.0 1.0

g Eagle_Neck_R_Col
s 1
usemtl Eagle_Neck_R_Col
f 1/1/1 3/3/3 4/4/4 
f 3/3/3 2/2/2 4/4/4 
f 5/5/5 1/1/1 4/4/4 
f 5/5/5 4/4/4 2/2/2 
f 5/5/5 2/2/2 3/3/3 
f 6/6/6 5/5/5 3/3/3 
f 6/6/6 3/3/3 1/1/1 
f 6/6/6 1/1/1 5/5/5 

