v 0.16829344630241394 -0.6057747006416321 2.440026044845581
v -0.5723217725753784 -0.5860792398452759 0.0441729761660099
v 0.9075952172279358 0.5340607762336731 1.0561991930007935
v -0.5452612042427063 0.5102632641792297 1.0431736707687378
v 0.8814648389816284 -0.6515015363693237 0.4920347034931183
v 0.9186522960662842 -0.7118211984634399 1.034382939338684
v -0.23820799589157104 -0.6510540843009949 0.9989527463912964
vn -0.3152141273021698 -0.10814312845468521 0.9428388476371765
vn -0.6564912796020508 -0.10708951950073242 -0.74669349193573
vn 0.5588071346282959 0.8155229687690735 -0.1505216658115387
vn -0.6787663698196411 0.7019938826560974 0.21559368073940277
vn 0.5542750358581543 0.019489886239171028 -0.8321053981781006
vn 0.533085823059082 -0.8236328959465027 0.19351595640182495
vn -0.09874240309000015 -0.9948621392250061 0.02234521694481373
vt 0.0 1.0
vt 0.0 1.0
vt 0.0 1.0
vt 0.0 1.0
vt 0.0 1.0
vt 0.0 1.0
vt 0.0 1.0

g Eagle_Neck_L_Col
s 1
usemtl Eagle_Neck_L_Col
f 1/1/1 3/3/3 4/4/4 
f 3/3/3 2/2/2 4/4/4 
f 2/2/2 1/1/1 4/4/4 
f 5/5/5 2/2/2 3/3/3 
f 6/6/6 2/2/2 5/5/5 
f 6/6/6 5/5/5 3/3/3 
f 6/6/6 3/3/3 1/1/1 
f 7/7/7 6/6/6 1/1/1 
f 7/7/7 1/1/1 2/2/2 
f 7/7/7 2/2/2 6/6/6 

