v -0.7536816000938416 0.20657165348529816 1.2731118202209473
v -2.124872922897339 0.24692898988723755 -3.5365898609161377
v -1.312477946281433 -0.5317432880401611 -0.6656074523925781
v -2.0691258907318115 0.39089110493659973 -3.557109832763672
v -1.064365267753601 0.9393105506896973 -0.8062589764595032
v -1.56728994846344 -0.4182770252227783 -0.5933153629302979
v -0.8062573075294495 0.8399865627288818 -0.8777145147323608
vn 0.28619930148124695 0.04324862360954285 0.9571936130523682
vn -0.960061252117157 0.18222668766975403 0.21231068670749664
vn 0.8112403154373169 -0.5326783061027527 -0.24112826585769653
vn 0.8958154916763306 -0.1895262748003006 -0.40198808908462524
vn -0.8112403154373169 0.5326784253120422 0.24112829566001892
vn -0.9446315765380859 0.1852220892906189 0.27085793018341064
vn 0.9464032649993896 -0.18494142591953278 -0.264797180891037
vt 0.0 1.0
vt 0.0 1.0
vt 0.0 1.0
vt 0.0 1.0
vt 0.0 1.0
vt 0.0 1.0
vt 0.0 1.0

g Eagle_Feathers_L_Col
s 1
usemtl Eagle_Feathers_L_Col
f 3/3/3 2/2/2 4/4/4 
f 5/5/5 4/4/4 2/2/2 
f 6/6/6 2/2/2 3/3/3 
f 6/6/6 3/3/3 1/1/1 
f 6/6/6 5/5/5 2/2/2 
f 6/6/6 1/1/1 5/5/5 
f 7/7/7 5/5/5 1/1/1 
f 7/7/7 1/1/1 3/3/3 
f 7/7/7 3/3/3 4/4/4 
f 7/7/7 4/4/4 5/5/5 

