v -0.6349536180496216 -0.38178279995918274 0.6973693370819092
v -2.482126235961914 -1.100506067276001 -3.99283766746521
v -1.3052855730056763 0.46233612298965454 -1.5958322286605835
v -2.5506246089935303 -1.0539833307266235 -3.6659774780273438
v -1.3409349918365479 -0.8756945729255676 -1.1981160640716553
v -1.5039575099945068 0.42042508721351624 -1.5210615396499634
v -1.2119457721710205 -0.34935957193374634 0.17525260150432587
v -2.4257125854492188 -1.2241426706314087 -3.6511318683624268
v -1.0657908916473389 0.39322569966316223 -1.6624623537063599
v -0.9444531202316284 0.08701064437627792 0.6210787892341614
v -1.5764745473861694 -0.7945483326911926 -1.1321287155151367
v -1.4656835794448853 -0.9010694026947021 -1.6677486896514893
v -1.6808544397354126 -0.6664766669273376 -1.1165162324905396
vn 0.9229026436805725 -0.38261112570762634 -0.04312143474817276
vn 0.7686041593551636 0.14522352814674377 -0.6230229735374451
vn -0.018371878191828728 0.9697356224060059 -0.24346503615379333
vn -0.940241277217865 0.24002332985401154 0.2415265440940857
vn -0.00818545836955309 -0.9810821413993835 0.19341892004013062
vn -0.8763209581375122 0.44460931420326233 0.18542985618114471
vn -0.9331327080726624 0.10812646150588989 0.34288787841796875
vn -0.2932318449020386 -0.9349649548530579 0.19963832199573517
vn 0.9484792351722717 0.005049234721809626 -0.3167988061904907
vn -0.07915792614221573 0.9229008555412292 0.3768130838871002
vn -0.41601288318634033 -0.843045711517334 0.3408917784690857
vn 0.8967535495758057 -0.3182551860809326 -0.30748435854911804
vn -0.8229681253433228 -0.438405305147171 0.36128130555152893
vt 0.0 1.0
vt 0.0 1.0
vt 0.0 1.0
vt 0.0 1.0
vt 0.0 1.0
vt 0.0 1.0
vt 0.0 1.0
vt 0.0 1.0
vt 0.0 1.0
vt 0.0 1.0
vt 0.0 1.0
vt 0.0 1.0
vt 0.0 1.0

g Eagle_Feathers_L_Col
s 1
usemtl Eagle_Feathers_L_Col
f 6/6/6 3/3/3 2/2/2 
f 6/6/6 2/2/2 4/4/4 
f 7/7/7 6/6/6 4/4/4 
f 8/8/8 4/4/4 2/2/2 
f 9/9/9 2/2/2 3/3/3 
f 10/10/10 3/3/3 6/6/6 
f 10/10/10 9/9/9 3/3/3 
f 10/10/10 1/1/1 9/9/9 
f 10/10/10 7/7/7 1/1/1 
f 10/10/10 6/6/6 7/7/7 
f 11/11/11 5/5/5 1/1/1 
f 11/11/11 1/1/1 7/7/7 
f 11/11/11 8/8/8 5/5/5 
f 12/12/12 8/8/8 2/2/2 
f 12/12/12 5/5/5 8/8/8 
f 12/12/12 2/2/2 9/9/9 
f 12/12/12 9/9/9 1/1/1 
f 12/12/12 1/1/1 5/5/5 
f 13/13/13 11/11/11 7/7/7 
f 13/13/13 7/7/7 4/4/4 
f 13/13/13 4/4/4 8/8/8 
f 13/13/13 8/8/8 11/11/11 

