v -0.6854053139686584 -1.3709566593170166 5.517656326293945
v -0.9052808284759521 -2.594849109649658 4.1267523765563965
v -0.0771166980266571 -1.037292718887329 4.310521602630615
v -0.8893750309944153 -1.1065341234207153 3.8681864738464355
v -0.9110204577445984 -1.3598719835281372 5.538002967834473
v -0.474113792181015 -2.5838284492492676 4.12777042388916
v -0.9095410704612732 -0.8057377934455872 5.10429048538208
v -0.5807861685752869 -1.8832881450653076 5.588967800140381
v -0.9097778797149658 -2.7847588062286377 4.625234603881836
v -0.5943066477775574 -0.836880624294281 5.097886562347412
v -0.5856420993804932 -2.778733730316162 4.619544982910156
v -0.4243750274181366 -1.5997503995895386 5.249907970428467
v -0.834094226360321 -2.69960618019104 5.591856956481934
v -0.9063037633895874 -2.744264841079712 4.302365779876709
v -0.7176708579063416 -2.750838279724121 5.060686111450195
v -0.7406323552131653 -2.728339910507202 4.3026227951049805
vn 0.5984645485877991 0.3466871678829193 0.7222522497177124
vn -0.9692429304122925 -0.05463627353310585 -0.23996469378471375
vn 0.9543139934539795 0.22523564100265503 -0.19635123014450073
vn -0.4565649628639221 0.3397730588912964 -0.8222546577453613
vn -0.9324096441268921 0.07405303418636322 0.3537348210811615
vn 0.6075578331947327 -0.2290002852678299 -0.7605475187301636
vn -0.9430685639381409 0.3303639888763428 -0.03848809748888016
vn 0.8216530680656433 -0.1757120043039322 0.5422282814979553
vn -0.9909765720367432 -0.130690336227417 0.029754064977169037
vn 0.6473188996315002 0.5397219657897949 0.5382179021835327
vn 0.9180575609207153 -0.3524051308631897 0.18160617351531982
vn 0.940934956073761 -0.05510014668107033 0.334073930978775
vn -0.5215071439743042 -0.455384761095047 0.7215642929077148
vn -0.10323771089315414 -0.91903156042099 -0.3804246783256531
vn 0.020027950406074524 -0.9960783123970032 0.08617935329675674
vn 0.21466264128684998 -0.9236764311790466 -0.31739839911460876
vt 0.0 1.0
vt 0.0 1.0
vt 0.0 1.0
vt 0.0 1.0
vt 0.0 1.0
vt 0.0 1.0
vt 0.0 1.0
vt 0.0 1.0
vt 0.0 1.0
vt 0.0 1.0
vt 0.0 1.0
vt 0.0 1.0
vt 0.0 1.0
vt 0.0 1.0
vt 0.0 1.0
vt 0.0 1.0

g Eagle_Face_R_Col
s 1
usemtl Eagle_Face_R_Col
f 6/6/6 2/2/2 4/4/4 
f 6/6/6 4/4/4 3/3/3 
f 7/7/7 4/4/4 2/2/2 
f 7/7/7 3/3/3 4/4/4 
f 8/8/8 1/1/1 5/5/5 
f 9/9/9 7/7/7 2/2/2 
f 9/9/9 5/5/5 7/7/7 
f 10/10/10 7/7/7 5/5/5 
f 10/10/10 5/5/5 1/1/1 
f 10/10/10 3/3/3 7/7/7 
f 11/11/11 6/6/6 3/3/3 
f 12/12/12 1/1/1 8/8/8 
f 12/12/12 10/10/10 1/1/1 
f 12/12/12 3/3/3 10/10/10 
f 12/12/12 11/11/11 3/3/3 
f 12/12/12 8/8/8 11/11/11 
f 13/13/13 8/8/8 5/5/5 
f 13/13/13 5/5/5 9/9/9 
f 13/13/13 11/11/11 8/8/8 
f 14/14/14 11/11/11 9/9/9 
f 14/14/14 9/9/9 2/2/2 
f 14/14/14 2/2/2 6/6/6 
f 15/15/15 13/13/13 9/9/9 
f 15/15/15 9/9/9 11/11/11 
f 15/15/15 11/11/11 13/13/13 
f 16/16/16 14/14/14 6/6/6 
f 16/16/16 6/6/6 11/11/11 
f 16/16/16 11/11/11 14/14/14 

