v 0.9009569883346558 -0.44580650329589844 3.4260520935058594
v 0.2316308468580246 -0.4017435610294342 3.438054084777832
v 0.9163867235183716 -0.7617132663726807 2.477259635925293
v 0.9075952172279358 0.5340607762336731 1.0561991930007935
v 0.9037890434265137 1.268668293952942 1.5729948282241821
v 0.2316308468580246 -0.4017435610294342 3.438054084777832
v 0.16829344630241394 -0.6057747006416321 2.440025806427002
v 0.9163867235183716 -0.7617132663726807 2.477259635925293
v 0.9186522960662842 -0.7118211984634399 1.034382939338684
v 0.9075952172279358 0.5340607762336731 1.0561991930007935
v 0.8814648389816284 -0.6515015363693237 0.4920347034931183
v 0.9037890434265137 1.268668293952942 1.5729948282241821
v 0.9056054353713989 1.114479899406433 2.056687831878662
v 0.9033446907997131 0.3387659788131714 3.278852701187134
v 0.9041332602500916 1.3784817457199097 2.3145384788513184
v 0.8918798565864563 0.8472190499305725 3.6004786491394043
v 0.9009569883346558 -0.44580650329589844 3.4260520935058594
v -0.23820799589157104 -0.6510540843009949 0.9989527463912964
v 0.9186522960662842 -0.7118211984634399 1.034382939338684
v 0.16829344630241394 -0.6057747006416321 2.440025806427002
v 0.9163867235183716 -0.7617132663726807 2.477259635925293
v 0.8877831697463989 -0.8848543167114258 0.2949041724205017
v -0.139404296875 -0.8671504855155945 0.3516070544719696
v 0.2316308468580246 -0.4017435610294342 3.438054084777832
v -0.12103759497404099 0.34761661291122437 3.2868621349334717
v 0.16829344630241394 -0.6057747006416321 2.440025806427002
v -0.4383032023906708 0.46530091762542725 2.221118688583374
v -0.5820727348327637 1.0875606536865234 2.1941163539886475
v -0.4698852300643921 1.2823855876922607 2.3927407264709473
v -0.057636719197034836 0.8519124388694763 3.6654906272888184
v -0.69703608751297 1.1830782890319824 1.6329972743988037
v -0.70196533203125 0.5318917632102966 1.0062923431396484
v -0.23820799589157104 -0.6510540843009949 0.9989527463912964
v -0.70196533203125 0.5318917632102966 1.0062923431396484
v -0.4027050733566284 -0.7557950615882874 0.4621679484844208
v -0.139404296875 -0.8671504855155945 0.3516070544719696
v -0.139404296875 -0.8671504855155945 0.3516070544719696
v -0.6912378072738647 -1.24917733669281 0.03444816544651985
v -0.476569801568985 -0.9538966417312622 -1.412671446800232
v -0.8658617734909058 -1.1348222494125366 -1.2008512020111084
v -0.8405444025993347 -0.9843524098396301 -1.4208794832229614
v -1.025246500968933 -1.087857723236084 -1.2028980255126953
v -0.8740014433860779 -0.7915228009223938 -1.3269002437591553
v 0.8877831697463989 -0.8848543167114258 0.2949041724205017
v -0.139404296875 -0.8671504855155945 0.3516070544719696
v 0.8995263576507568 -1.0195798873901367 -1.5266337394714355
v -0.476569801568985 -0.9538966417312622 -1.412671446800232
v -0.4027050733566284 -0.7557950615882874 0.4621679484844208
v -0.8740014433860779 -0.7915228009223938 -1.3269002437591553
v -0.8244457840919495 -1.2308621406555176 0.026634978130459785
v -0.8740014433860779 -0.7915228009223938 -1.3269002437591553
v -1.025246500968933 -1.087857723236084 -1.2028980255126953
v -0.8244457840919495 -1.2308621406555176 0.026634978130459785
v -0.4027050733566284 -0.7557950615882874 0.4621679484844208
v -0.6912378072738647 -1.24917733669281 0.03444816544651985
v -0.8658617734909058 -1.1348222494125366 -1.2008512020111084
v -0.6912378072738647 -1.24917733669281 0.03444816544651985
v -1.025246500968933 -1.087857723236084 -1.2028980255126953
v -0.8244457840919495 -1.2308621406555176 0.026634978130459785
v -0.8740014433860779 -0.7915228009223938 -1.3269002437591553
v -1.2618554830551147 0.02844868414103985 -1.1484408378601074
v -0.23820799589157104 -0.6510540843009949 0.9989527463912964
v -0.4698852300643921 1.2823855876922607 2.3927407264709473
v -0.057636719197034836 0.8519124388694763 3.6654906272888184
v 0.9041332602500916 1.3784817457199097 2.3145384788513184
v 0.8918798565864563 0.8472190499305725 3.6004786491394043
v -0.69703608751297 1.1830782890319824 1.6329972743988037
v 0.9037890434265137 1.268668293952942 1.5729948282241821
v -0.5452612042427063 0.5102632641792297 1.0431736707687378
v 0.9075952172279358 0.5340607762336731 1.0561991930007935
v -0.70196533203125 0.5318917632102966 1.0062923431396484
v -0.12103759497404099 0.34761661291122437 3.2868621349334717
v 0.9033446907997131 0.3387659788131714 3.278852701187134
v -0.057636719197034836 0.8519124388694763 3.6654906272888184
v 0.8918798565864563 0.8472190499305725 3.6004786491394043
v -0.5820727348327637 1.0875606536865234 2.1941163539886475
v -0.4698852300643921 1.2823855876922607 2.3927407264709473
v 0.9056054353713989 1.114479899406433 2.056687831878662
v 0.9041332602500916 1.3784817457199097 2.3145384788513184
v -0.69703608751297 1.1830782890319824 1.6329972743988037
v -0.5820727348327637 1.0875606536865234 2.1941163539886475
v 0.9037890434265137 1.268668293952942 1.5729948282241821
v 0.9056054353713989 1.114479899406433 2.056687831878662
v -0.12103759497404099 0.34761661291122437 3.2868621349334717
v 0.2316308468580246 -0.4017435610294342 3.438054084777832
v 0.9033446907997131 0.3387659788131714 3.278852701187134
v 0.9009569883346558 -0.44580650329589844 3.4260520935058594
v 0.8995263576507568 -1.0195798873901367 -1.5266337394714355
v 0.8982152938842773 -0.9093778729438782 -1.5162972211837769
v 0.8877831697463989 -0.8848543167114258 0.2949041724205017
v 0.8814648389816284 -0.6515015363693237 0.4920347034931183
v -0.5723217725753784 -0.5860792398452759 0.044172972440719604
v 0.8982152938842773 -0.9093778729438782 -1.5162972211837769
v 0.8814648389816284 -0.6515015363693237 0.4920347034931183
v 0.8877831697463989 -0.8848543167114258 0.2949041724205017
v 0.8995263576507568 -1.0195798873901367 -1.5266337394714355
v -0.476569801568985 -0.9538966417312622 -1.412671446800232
v -0.5314672589302063 -0.8040374517440796 -1.4461647272109985
v 0.8877831697463989 -0.8848543167114258 0.2949041724205017
v 0.8814648389816284 -0.6515015363693237 0.4920347034931183
v 0.9186522960662842 -0.7118211984634399 1.034382939338684
v -0.8405444025993347 -0.9843524098396301 -1.4208794832229614
v -0.5314672589302063 -0.8040374517440796 -1.4461647272109985
v -0.476569801568985 -0.9538966417312622 -1.412671446800232
v -0.8740014433860779 -0.7915228009223938 -1.3269002437591553
v -0.8405444025993347 -0.9843524098396301 -1.4208794832229614
v -0.5314672589302063 -0.8040374517440796 -1.4461647272109985
v -0.8740014433860779 -0.7915228009223938 -1.3269002437591553
v -1.1011499166488647 0.008662495762109756 -1.1443209648132324
v -1.2618554830551147 0.02844868414103985 -1.1484408378601074
v 0.8982152938842773 -0.9093778729438782 -1.5162972211837769
v -0.5314672589302063 -0.8040374517440796 -1.4461647272109985
v -0.5723217725753784 -0.5860792398452759 0.044172972440719604
v -1.1011499166488647 0.008662495762109756 -1.1443209648132324
v -0.5452612042427063 0.5102632641792297 1.0431736707687378
v 0.8814648389816284 -0.6515015363693237 0.4920347034931183
v 0.9075952172279358 0.5340607762336731 1.0561991930007935
v -0.5452612042427063 0.5102632641792297 1.0431736707687378
v -0.5452612042427063 0.5102632641792297 1.0431736707687378
v -1.1011499166488647 0.008662495762109756 -1.1443209648132324
v -0.70196533203125 0.5318917632102966 1.0062923431396484
v -1.2618554830551147 0.02844868414103985 -1.1484408378601074
v -0.23820799589157104 -0.6510540843009949 0.9989527463912964
v -0.5820727348327637 1.0875606536865234 2.1941163539886475
v -0.4698852300643921 1.2823855876922607 2.3927407264709473
v -0.35288816690444946 1.2015459537506104 2.3487443923950195
vn 0.6694151759147644 -0.4499734342098236 0.5911068916320801
vn -0.500495433807373 -0.5106186866760254 0.6991228461265564
vn 0.8133812546730042 -0.579406201839447 0.05195491760969162
vn 0.7005605697631836 0.4063548147678375 -0.586592435836792
vn 0.6544923782348633 0.6620985865592957 -0.3650548458099365
vn -0.500495433807373 -0.5106186866760254 0.6991228461265564
vn -0.5998306274414062 -0.78135085105896 0.172319233417511
vn 0.8133812546730042 -0.579406201839447 0.05195491760969162
vn 0.7050060033798218 -0.7066651582717896 0.05992377549409866
vn 0.7005605697631836 0.4063548147678375 -0.586592435836792
vn 0.4006897211074829 0.7620705962181091 -0.508621871471405
vn 0.6544923782348633 0.6620985865592957 -0.3650548458099365
vn 0.9150117635726929 0.4020381271839142 -0.03344927728176117
vn 0.9341089725494385 -0.053074829280376434 0.3530203700065613
vn 0.3328709304332733 0.9377612471580505 0.09899944812059402
vn 0.49513673782348633 0.5922436714172363 0.6356784105300903
vn 0.6694151759147644 -0.4499734342098236 0.5911068916320801
vn -0.6977541446685791 -0.6676426529884338 0.25960057973861694
vn 0.7050060033798218 -0.7066651582717896 0.05992377549409866
vn -0.5998306274414062 -0.78135085105896 0.172319233417511
vn 0.8133812546730042 -0.579406201839447 0.05195491760969162
vn 0.2191624492406845 -0.9676446318626404 0.1250266432762146
vn 0.07976730912923813 -0.9878336191177368 0.13349883258342743
vn -0.500495433807373 -0.5106186866760254 0.6991228461265564
vn -0.7634634375572205 -0.3322755694389343 0.553820013999939
vn -0.5998306274414062 -0.78135085105896 0.172319233417511
vn -0.9086381196975708 -0.35239455103874207 0.22404217720031738
vn -0.7282460927963257 0.6627630591392517 0.17436374723911285
vn -0.34799864888191223 0.9158738851547241 0.2001798450946808
vn -0.32727405428886414 0.6492593288421631 0.6865522861480713
vn -0.5388093590736389 0.769534707069397 -0.3427838981151581
vn -0.9434011578559875 -0.2416253387928009 0.22718173265457153
vn -0.6977541446685791 -0.6676426529884338 0.25960057973861694
vn -0.9434011578559875 -0.2416253387928009 0.22718173265457153
vn -0.8845661282539368 -0.27934500575065613 0.37350907921791077
vn 0.07976730912923813 -0.9878336191177368 0.13349883258342743
vn 0.07976730912923813 -0.9878336191177368 0.13349883258342743
vn 0.4861629009246826 -0.8738230466842651 0.008884700015187263
vn 0.059055738151073456 -0.9944932460784912 -0.08657755702733994
vn 0.18626530468463898 -0.9679394960403442 -0.1685185432434082
vn -0.30789807438850403 -0.3570345342159271 -0.8818873167037964
vn -0.9846280813217163 0.1376390904188156 0.10753174126148224
vn -0.980712890625 -0.193588986992836 0.02693728357553482
vn 0.2191624492406845 -0.9676446318626404 0.1250266432762146
vn 0.07976730912923813 -0.9878336191177368 0.13349883258342743
vn 0.043740205466747284 -0.9990270137786865 -0.005635282024741173
vn 0.059055738151073456 -0.9944932460784912 -0.08657755702733994
vn -0.8845661282539368 -0.27934500575065613 0.37350907921791077
vn -0.980712890625 -0.193588986992836 0.02693728357553482
vn -0.8906058669090271 0.38502034544944763 0.24203379452228546
vn -0.980712890625 -0.193588986992836 0.02693728357553482
vn -0.9846280813217163 0.1376390904188156 0.10753174126148224
vn -0.8906058669090271 0.38502034544944763 0.24203379452228546
vn -0.8845661282539368 -0.27934500575065613 0.37350907921791077
vn 0.4861629009246826 -0.8738230466842651 0.008884700015187263
vn 0.18626530468463898 -0.9679394960403442 -0.1685185432434082
vn 0.4861629009246826 -0.8738230466842651 0.008884700015187263
vn -0.9846280813217163 0.1376390904188156 0.10753174126148224
vn -0.8906058669090271 0.38502034544944763 0.24203379452228546
vn -0.980712890625 -0.193588986992836 0.02693728357553482
vn -0.9288461208343506 -0.2984350919723511 0.2195025086402893
vn -0.6977541446685791 -0.6676426529884338 0.25960057973861694
vn -0.34799864888191223 0.9158738851547241 0.2001798450946808
vn -0.32727405428886414 0.6492593288421631 0.6865522861480713
vn 0.3328709304332733 0.9377612471580505 0.09899944812059402
vn 0.49513673782348633 0.5922436714172363 0.6356784105300903
vn -0.5388093590736389 0.769534707069397 -0.3427838981151581
vn 0.6544923782348633 0.6620985865592957 -0.3650548458099365
vn 0.17464680969715118 0.6679016947746277 -0.7234678268432617
vn 0.7005605697631836 0.4063548147678375 -0.586592435836792
vn -0.9434011578559875 -0.2416253387928009 0.22718173265457153
vn -0.7634634375572205 -0.3322755694389343 0.553820013999939
vn 0.9341089725494385 -0.053074829280376434 0.3530203700065613
vn -0.32727405428886414 0.6492593288421631 0.6865522861480713
vn 0.49513673782348633 0.5922436714172363 0.6356784105300903
vn -0.7282460927963257 0.6627630591392517 0.17436374723911285
vn -0.34799864888191223 0.9158738851547241 0.2001798450946808
vn 0.9150117635726929 0.4020381271839142 -0.03344927728176117
vn 0.3328709304332733 0.9377612471580505 0.09899944812059402
vn -0.5388093590736389 0.769534707069397 -0.3427838981151581
vn -0.7282460927963257 0.6627630591392517 0.17436374723911285
vn 0.6544923782348633 0.6620985865592957 -0.3650548458099365
vn 0.9150117635726929 0.4020381271839142 -0.03344927728176117
vn -0.7634634375572205 -0.3322755694389343 0.553820013999939
vn -0.500495433807373 -0.5106186866760254 0.6991228461265564
vn 0.9341089725494385 -0.053074829280376434 0.3530203700065613
vn 0.6694151759147644 -0.4499734342098236 0.5911068916320801
vn 0.043740205466747284 -0.9990270137786865 -0.005635282024741173
vn 0.16555224359035492 0.9667894840240479 -0.19470614194869995
vn 0.2191624492406845 -0.9676446318626404 0.1250266432762146
vn 0.4006897211074829 0.7620705962181091 -0.508621871471405
vn 0.4910876154899597 0.7720171809196472 -0.4035125970840454
vn 0.16555224359035492 0.9667894840240479 -0.19470614194869995
vn 0.4006897211074829 0.7620705962181091 -0.508621871471405
vn 0.2191624492406845 -0.9676446318626404 0.1250266432762146
vn 0.043740205466747284 -0.9990270137786865 -0.005635282024741173
vn 0.059055738151073456 -0.9944932460784912 -0.08657755702733994
vn 0.2968498766422272 0.9214192032814026 -0.25073230266571045
vn 0.2191624492406845 -0.9676446318626404 0.1250266432762146
vn 0.4006897211074829 0.7620705962181091 -0.508621871471405
vn 0.7050060033798218 -0.7066651582717896 0.05992377549409866
vn -0.30789807438850403 -0.3570345342159271 -0.8818873167037964
vn 0.2968498766422272 0.9214192032814026 -0.25073230266571045
vn 0.059055738151073456 -0.9944932460784912 -0.08657755702733994
vn -0.980712890625 -0.193588986992836 0.02693728357553482
vn -0.30789807438850403 -0.3570345342159271 -0.8818873167037964
vn 0.2968498766422272 0.9214192032814026 -0.25073230266571045
vn -0.980712890625 -0.193588986992836 0.02693728357553482
vn 0.7689464092254639 0.5754202604293823 -0.2785907983779907
vn -0.9288461208343506 -0.2984350919723511 0.2195025086402893
vn 0.16555224359035492 0.9667894840240479 -0.19470614194869995
vn 0.2968498766422272 0.9214192032814026 -0.25073230266571045
vn 0.4910876154899597 0.7720171809196472 -0.4035125970840454
vn 0.7689464092254639 0.5754202604293823 -0.2785907983779907
vn 0.17464680969715118 0.6679016947746277 -0.7234678268432617
vn 0.4006897211074829 0.7620705962181091 -0.508621871471405
vn 0.7005605697631836 0.4063548147678375 -0.586592435836792
vn 0.17464680969715118 0.6679016947746277 -0.7234678268432617
vn 0.17464680969715118 0.6679016947746277 -0.7234678268432617
vn 0.7689464092254639 0.5754202604293823 -0.2785907983779907
vn -0.9434011578559875 -0.2416253387928009 0.22718173265457153
vn -0.9288461208343506 -0.2984350919723511 0.2195025086402893
vn -0.6977541446685791 -0.6676426529884338 0.25960057973861694
vn 0.17331843078136444 0.6523949503898621 -0.7377951145172119
vn 0.17331840097904205 0.6523948311805725 -0.7377951741218567
vn 0.17331843078136444 0.6523949503898621 -0.7377951145172119
vt 0.1875 0.5
vt 0.3125 1.0
vt 0.375 1.0
vt 1.0 0.0
vt 0.0 0.0
vt 0.3125 1.0
vt 0.625 1.0
vt 0.375 1.0
vt 0.0 1.0
vt 1.0 0.0
vt 0.0 0.0
vt 0.0 0.0
vt 0.0 0.0
vt 0.0 0.0
vt 0.0 0.0
vt 0.0 0.0
vt 0.1875 0.5
vt 0.625 0.1274999976158142
vt 0.375 0.1274999976158142
vt 0.625 0.0
vt 0.375 0.0
vt 0.375 0.25
vt 0.625 0.25
vt 0.625 1.0
vt 0.625 0.834933266043663
vt 0.625 0.0
vt 0.625 0.29567956924438477
vt 0.625 0.5204708874225616
vt 0.625 0.5437102913856506
vt 0.625 0.752864882349968
vt 0.625 0.4393296241760254
vt 0.625 0.2819756865501404
vt 0.625 0.1274999976158142
vt 0.625 0.2771793603897095
vt 0.625 0.2373855710029602
vt 0.625 0.25
vt 1.0 1.0
vt 1.0 1.0
vt 1.0 0.0
vt 1.0 0.0
vt 0.3999999761581421 0.0
vt 0.19999998807907104 0.0
vt 0.0 0.0
vt 1.0 1.0
vt 0.0 1.0
vt 1.0 0.0
vt 0.0 0.0
vt 0.625 0.2373855710029602
vt 0.625 0.25
vt 0.20000000298023224 1.0
vt 0.625 0.25
vt 0.19999998807907104 0.0
vt 0.20000000298023224 1.0
vt 0.625 0.2373855710029602
vt 1.0 1.0
vt 1.0 0.0
vt 1.0 1.0
vt 0.19999998807907104 0.0
vt 0.20000000298023224 1.0
vt 0.625 0.25
vt 1.0 1.0
vt 0.625 0.1274999976158142
vt 1.0 1.0
vt 0.0 1.0
vt 1.0 0.0
vt 0.0 0.0
vt 0.0 1.0
vt 0.0 0.0
vt 1.0 0.8553439974784851
vt 1.0 0.0
vt 1.0 1.0
vt 0.0 1.0
vt 0.0 0.0
vt 1.0 1.0
vt 1.0 0.0
vt 1.0 1.0
vt 0.0 1.0
vt 1.0 0.0
vt 0.0 0.0
vt 1.0 1.0
vt 0.0 1.0
vt 1.0 0.0
vt 0.0 0.0
vt 1.0 1.0
vt 0.3125 1.0
vt 1.0 0.0
vt 0.1875 0.5
vt 0.0 1.0
vt 0.5 0.0
vt 1.0 1.0
vt 0.5 0.5
vt 1.0 0.0
vt 0.5 0.0
vt 0.5 0.5
vt 1.0 1.0
vt 1.0 1.0
vt 0.0 1.0
vt 0.4000000059604645 0.0
vt 0.0 1.0
vt 0.0 0.0
vt 0.0 1.0
vt 0.0 1.0
vt 0.4000000059604645 0.0
vt 1.0 1.0
vt 0.0 1.0
vt 1.0 1.0
vt 1.0 0.0
vt 1.0 1.0
vt 0.5 0.0
vt 4.676644493883941e-08 0.9999999064671101
vt 0.5 0.0
vt 0.4000000059604645 0.0
vt 1.0 0.0
vt 0.5 0.0
vt 0.3333333432674408 0.0
vt 0.5 0.5
vt 1.0 0.0
vt 1.0 0.8553439974784851
vt 0.3333333432674408 0.0
vt 0.5 0.0
vt 0.625 0.2723829746246338
vt 1.0 1.0
vt 0.625 0.1274999976158142
vt 0.47404971718788147 0.5
vt 0.3800896406173706 0.5018098950386047
vt 0.3792549967765808 0.5015915334224701

g Eagle_Neck_L_Col
s 1
usemtl Eagle_Neck_L_Col
f 1/1/1 2/2/2 3/3/3 
f 4/4/4 5/5/5 3/3/3 
f 6/6/6 7/7/7 8/8/8 
f 9/9/9 10/10/10 8/8/8 
f 11/11/11 10/10/10 9/9/9 
f 12/12/12 13/13/13 8/8/8 
f 13/13/13 14/14/14 8/8/8 
f 15/15/15 14/14/14 13/13/13 
f 16/16/16 14/14/14 15/15/15 
f 8/8/8 14/14/14 17/17/17 
f 18/18/18 19/19/19 20/20/20 
f 19/19/19 21/21/21 20/20/20 
f 19/19/19 18/18/18 22/22/22 
f 18/18/18 23/23/23 22/22/22 
f 24/24/24 25/25/25 26/26/26 
f 25/25/25 27/27/27 26/26/26 
f 25/25/25 28/28/28 27/27/27 
f 29/29/29 28/28/28 25/25/25 
f 30/30/30 29/29/29 25/25/25 
f 27/27/27 28/28/28 31/31/31 
f 32/32/32 27/27/27 31/31/31 
f 26/26/26 27/27/27 33/33/33 
f 34/34/34 33/33/33 27/27/27 
f 35/35/35 36/36/36 33/33/33 
f 37/37/37 35/35/35 38/38/38 
f 37/37/37 38/38/38 39/39/39 
f 38/38/38 40/40/40 39/39/39 
f 39/39/39 40/40/40 41/41/41 
f 40/40/40 42/42/42 41/41/41 
f 42/42/42 43/43/43 41/41/41 
f 44/44/44 45/45/45 46/46/46 
f 45/45/45 47/47/47 46/46/46 
f 48/48/48 49/49/49 50/50/50 
f 51/51/51 52/52/52 53/53/53 
f 54/54/54 53/53/53 55/55/55 
f 56/56/56 57/57/57 53/53/53 
f 58/58/58 56/56/56 59/59/59 
f 60/60/60 54/54/54 61/61/61 
f 61/61/61 54/54/54 62/62/62 
f 63/63/63 64/64/64 65/65/65 
f 64/64/64 66/66/66 65/65/65 
f 67/67/67 68/68/68 69/69/69 
f 68/68/68 70/70/70 69/69/69 
f 67/67/67 69/69/69 71/71/71 
f 72/72/72 73/73/73 74/74/74 
f 73/73/73 75/75/75 74/74/74 
f 76/76/76 77/77/77 78/78/78 
f 77/77/77 79/79/79 78/78/78 
f 80/80/80 81/81/81 82/82/82 
f 81/81/81 83/83/83 82/82/82 
f 84/84/84 85/85/85 86/86/86 
f 85/85/85 87/87/87 86/86/86 
f 88/88/88 89/89/89 90/90/90 
f 91/91/91 89/89/89 92/92/92 
f 93/93/93 94/94/94 95/95/95 
f 96/96/96 97/97/97 93/93/93 
f 97/97/97 98/98/98 93/93/93 
f 99/99/99 100/100/100 101/101/101 
f 102/102/102 103/103/103 104/104/104 
f 105/105/105 103/103/103 106/106/106 
f 107/107/107 108/108/108 109/109/109 
f 108/108/108 110/110/110 109/109/109 
f 111/111/111 112/112/112 113/113/113 
f 112/112/112 114/114/114 113/113/113 
f 114/114/114 115/115/115 113/113/113 
f 116/116/116 113/113/113 117/117/117 
f 113/113/113 118/118/118 117/117/117 
f 119/119/119 120/120/120 121/121/121 
f 120/120/120 122/122/122 121/121/121 
f 121/121/121 122/122/122 123/123/123 
f 124/124/124 125/125/125 126/126/126 

