v 0.057636722922325134 0.8519124388694763 3.6654908657073975
v -0.9056054353713989 1.114479899406433 2.056687831878662
v 0.5820727348327637 1.0875606536865234 2.1941163539886475
v -0.9041332602500916 1.3784817457199097 2.3145384788513184
v -0.9033446907997131 0.3387660086154938 3.278852701187134
v 0.4698852300643921 1.2823855876922607 2.3927407264709473
v -0.8918798565864563 0.8472190499305725 3.6004786491394043
v 0.12103759497404099 0.34761661291122437 3.286862373352051
vn 0.32757052779197693 0.6281690001487732 0.7057629227638245
vn -0.11275659501552582 -0.7388132214546204 -0.6644102334976196
vn 0.6060214638710022 -0.49251335859298706 -0.6246347427368164
vn -0.3126275837421417 0.9412216544151306 0.12792856991291046
vn -0.5737015008926392 -0.8138434886932373 0.09233219176530838
vn 0.20471973717212677 0.9524881839752197 0.2255133092403412
vn -0.5497162938117981 0.5678321719169617 0.6126815676689148
vn 0.24692091345787048 -0.9219759702682495 -0.2983121871948242
vt 0.0 1.0
vt 0.0 1.0
vt 0.0 1.0
vt 0.0 1.0
vt 0.0 1.0
vt 0.0 1.0
vt 0.0 1.0
vt 0.0 1.0

g Eagle_Neck_R_Col
s 1
usemtl Eagle_Neck_R_Col
f 3/3/3 2/2/2 4/4/4 
f 5/5/5 4/4/4 2/2/2 
f 6/6/6 1/1/1 3/3/3 
f 6/6/6 3/3/3 4/4/4 
f 6/6/6 4/4/4 1/1/1 
f 7/7/7 5/5/5 1/1/1 
f 7/7/7 1/1/1 4/4/4 
f 7/7/7 4/4/4 5/5/5 
f 8/8/8 5/5/5 2/2/2 
f 8/8/8 2/2/2 3/3/3 
f 8/8/8 3/3/3 1/1/1 
f 8/8/8 1/1/1 5/5/5 

