v 0.9163867235183716 -0.7617132663726807 2.477259635925293
v -0.23820799589157104 -0.6510540843009949 0.9989527463912964
v 0.9186522960662842 -0.7118211984634399 1.034382939338684
v 0.9075952172279358 0.5340607762336731 1.0561991930007935
v -0.4383032023906708 0.46530091762542725 2.221118688583374
v 0.9037890434265137 1.2686684131622314 1.5729948282241821
v 0.16829344630241394 -0.6057747006416321 2.440026044845581
vn 0.645075798034668 -0.2757471203804016 0.7126294374465942
vn -0.7408915162086487 -0.25120627880096436 -0.6228765249252319
vn 0.8442623019218445 -0.3934039771556854 -0.3639430105686188
vn 0.04331018030643463 0.262483686208725 -0.9639639258384705
vn -0.6573606729507446 0.5131868720054626 0.5518298745155334
vn 0.4776536524295807 0.8764550685882568 0.06060905009508133
vn -0.6431983113288879 -0.6148664951324463 0.4563279449939728
vt 0.0 1.0
vt 0.0 1.0
vt 0.0 1.0
vt 0.0 1.0
vt 0.0 1.0
vt 0.0 1.0
vt 0.0 1.0

g Eagle_Neck_L_Col
s 1
usemtl Eagle_Neck_L_Col
f 1/1/1 2/2/2 3/3/3 
f 3/3/3 2/2/2 4/4/4 
f 6/6/6 1/1/1 3/3/3 
f 6/6/6 3/3/3 4/4/4 
f 6/6/6 5/5/5 1/1/1 
f 6/6/6 4/4/4 2/2/2 
f 6/6/6 2/2/2 5/5/5 
f 7/7/7 5/5/5 2/2/2 
f 7/7/7 2/2/2 1/1/1 
f 7/7/7 1/1/1 5/5/5 

