v -0.6530321836471558 0.36651885509490967 1.5794026851654053
v -0.94666987657547 -0.5516917109489441 0.1169431284070015
v -0.5521532893180847 -0.5282450914382935 0.18833892047405243
v -0.5772313475608826 1.5810201168060303 0.11579825729131699
v -0.8265868425369263 0.8515545725822449 0.13433219492435455
v -0.3515283167362213 0.13595229387283325 1.174862265586853
v -0.8928173780441284 -0.36808913946151733 0.9182243347167969
v -0.6880297660827637 0.3899826109409332 1.574425220489502
v -0.47662353515625 0.3652368187904358 1.506269097328186
v -0.5934130549430847 -0.3770061433315277 0.876717746257782
v -0.7733007073402405 -0.380697101354599 0.8697145581245422
vn 0.11572694033384323 -0.6605368852615356 0.7418210506439209
vn -0.6994158029556274 -0.3016412556171417 -0.6479430198669434
vn 0.9014215469360352 -0.16327457129955292 -0.4009746015071869
vn 0.8488482236862183 0.35776951909065247 -0.38917574286460876
vn -0.9816389679908752 0.18219375610351562 0.056483738124370575
vn 0.9988723993301392 -0.02414100617170334 -0.04087850823998451
vn -0.9781952500343323 -0.015005139634013176 0.20714451372623444
vn -0.9042856097221375 0.32815369963645935 0.273098349571228
vn 0.8200880289077759 0.22603315114974976 0.5257039070129395
vn 0.37723055481910706 -0.7945544719696045 0.47579458355903625
vn 0.0019149251747876406 -0.9747650623321533 0.22322528064250946
vt 0.0 1.0
vt 0.0 1.0
vt 0.0 1.0
vt 0.0 1.0
vt 0.0 1.0
vt 0.0 1.0
vt 0.0 1.0
vt 0.0 1.0
vt 0.0 1.0
vt 0.0 1.0
vt 0.0 1.0

g Eagle_Feathers_L_Col
s 1
usemtl Eagle_Feathers_L_Col
f 3/3/3 2/2/2 4/4/4 
f 5/5/5 4/4/4 2/2/2 
f 6/6/6 3/3/3 4/4/4 
f 7/7/7 5/5/5 2/2/2 
f 8/8/8 4/4/4 5/5/5 
f 8/8/8 7/7/7 1/1/1 
f 8/8/8 5/5/5 7/7/7 
f 9/9/9 6/6/6 4/4/4 
f 9/9/9 8/8/8 1/1/1 
f 9/9/9 4/4/4 8/8/8 
f 10/10/10 2/2/2 3/3/3 
f 10/10/10 3/3/3 6/6/6 
f 10/10/10 6/6/6 9/9/9 
f 10/10/10 9/9/9 1/1/1 
f 10/10/10 1/1/1 7/7/7 
f 11/11/11 10/10/10 7/7/7 
f 11/11/11 7/7/7 2/2/2 
f 11/11/11 2/2/2 10/10/10 

