v 0.3101293742656708 -1.817968726158142 4.575462341308594
v 0.2174975723028183 -2.4052093029022217 3.609445095062256
v 0.8893750309944153 -1.1065341234207153 3.8681864738464355
v -0.12489257752895355 -1.6818253993988037 3.467879295349121
v 0.1973242312669754 -2.3538613319396973 4.163660049438477
v 0.9050366878509521 -1.6897239685058594 3.469879627227783
v -0.0548413060605526 -1.0489755868911743 3.941596746444702
v 0.9064233303070068 -2.4418704509735107 3.5967209339141846
v -0.03555664047598839 -1.4407440423965454 4.015702247619629
vn 0.35566672682762146 0.024963663890957832 0.9342793822288513
vn -0.4786926805973053 -0.7317826747894287 -0.4851260781288147
vn 0.7554559111595154 0.6395356059074402 0.14240963757038116
vn -0.4634801149368286 0.12276201695203781 -0.877562403678894
vn -0.6419355273246765 -0.6264508962631226 0.4421290457248688
vn 0.2621142864227295 0.19546592235565186 -0.9450339674949646
vn -0.2978755235671997 0.9262706637382507 0.2308521419763565
vn 0.8430427312850952 -0.53751140832901 -0.018984923139214516
vn -0.9289893507957458 -0.11993947625160217 0.35013335943222046
vt 0.0 1.0
vt 0.0 1.0
vt 0.0 1.0
vt 0.0 1.0
vt 0.0 1.0
vt 0.0 1.0
vt 0.0 1.0
vt 0.0 1.0
vt 0.0 1.0

g Eagle_Face_L_Col
s 1
usemtl Eagle_Face_L_Col
f 5/5/5 4/4/4 2/2/2 
f 6/6/6 4/4/4 3/3/3 
f 7/7/7 1/1/1 3/3/3 
f 7/7/7 3/3/3 4/4/4 
f 8/8/8 2/2/2 4/4/4 
f 8/8/8 4/4/4 6/6/6 
f 8/8/8 5/5/5 2/2/2 
f 8/8/8 1/1/1 5/5/5 
f 8/8/8 6/6/6 3/3/3 
f 8/8/8 3/3/3 1/1/1 
f 9/9/9 5/5/5 1/1/1 
f 9/9/9 1/1/1 7/7/7 
f 9/9/9 7/7/7 4/4/4 
f 9/9/9 4/4/4 5/5/5 

