v 0.5689623355865479 0.4286230504512787 1.5576896667480469
v -0.9085814952850342 -0.5207754969596863 0.24710705876350403
v 0.5521532297134399 -0.5282450914382935 0.18833892047405243
v -0.8991162180900574 0.39947080612182617 0.2421654313802719
v -0.9046947360038757 0.38641324639320374 1.5301839113235474
v 0.556872546672821 0.41821929812431335 0.2634589970111847
v 0.5934130549430847 -0.3770061433315277 0.876717746257782
v -0.9195140600204468 0.3661593198776245 1.4756882190704346
v 0.6349535584449768 -0.38178277015686035 0.697369396686554
v -0.9173461198806763 -0.38336336612701416 0.8415886759757996
v 0.47662353515625 0.3652368187904358 1.5062692165374756
vn 0.2845030128955841 0.9573933482170105 0.04955889657139778
vn -0.2719931900501251 -0.8658976554870605 -0.41981059312820435
vn 0.16674402356147766 -0.3376502990722656 -0.926384687423706
vn -0.32325756549835205 0.7753725051879883 -0.5424962639808655
vn -0.055127039551734924 -0.031074611470103264 0.9979956746101379
vn 0.5063027143478394 0.7039455771446228 -0.49811461567878723
vn 0.031555499881505966 -0.8213302493095398 0.5695794820785522
vn -0.9997889995574951 0.020122691988945007 -0.004126173909753561
vn 0.9993038177490234 0.023691346868872643 -0.028821617364883423
vn -0.5476188659667969 -0.6847116947174072 0.4809195101261139
vn 0.004232177045196295 -0.6454668641090393 0.7637766003608704
vt 0.0 1.0
vt 0.0 1.0
vt 0.0 1.0
vt 0.0 1.0
vt 0.0 1.0
vt 0.0 1.0
vt 0.0 1.0
vt 0.0 1.0
vt 0.0 1.0
vt 0.0 1.0
vt 0.0 1.0

g Eagle_Feathers_R_Col
s 1
usemtl Eagle_Feathers_R_Col
f 3/3/3 2/2/2 4/4/4 
f 5/5/5 1/1/1 4/4/4 
f 6/6/6 3/3/3 4/4/4 
f 6/6/6 4/4/4 1/1/1 
f 7/7/7 2/2/2 3/3/3 
f 8/8/8 5/5/5 4/4/4 
f 9/9/9 6/6/6 1/1/1 
f 9/9/9 1/1/1 7/7/7 
f 9/9/9 7/7/7 3/3/3 
f 9/9/9 3/3/3 6/6/6 
f 10/10/10 7/7/7 5/5/5 
f 10/10/10 2/2/2 7/7/7 
f 10/10/10 5/5/5 8/8/8 
f 10/10/10 8/8/8 4/4/4 
f 10/10/10 4/4/4 2/2/2 
f 11/11/11 7/7/7 1/1/1 
f 11/11/11 1/1/1 5/5/5 
f 11/11/11 5/5/5 7/7/7 

