v 0.8903339505195618 -0.725945770740509 1.4779282808303833
v 0.5473217964172363 -1.0224765539169312 -1.0915098190307617
v 1.0117297172546387 -0.725945770740509 -1.0915098190307617
v 0.5473216772079468 -0.725945770740509 -1.0915098190307617
v 0.4376901388168335 -0.725945770740509 1.4779282808303833
v 1.0117297172546387 -0.1661352515220642 0.1755925714969635
v 1.0117297172546387 -1.0224765539169312 0.1755923181772232
v 0.5473216772079468 -0.1661352515220642 0.1755925714969635
v 1.0117298364639282 -1.0224765539169312 -1.0915098190307617
v 0.4376903474330902 -1.0224765539169312 1.4779282808303833
v 0.8903339505195618 -1.0224765539169312 1.4779282808303833
vn 0.42966940999031067 0.6558752655982971 0.6206542253494263
vn -0.6156312823295593 -0.7759389281272888 -0.13753852248191833
vn 0.4270514249801636 0.6688215136528015 -0.6085266470909119
vn -0.8235857486724854 0.49251553416252136 -0.2813093066215515
vn -0.9003803730010986 0.40523743629455566 0.1584225296974182
vn 0.7802034020423889 0.6245388984680176 0.035126958042383194
vn 0.6588557958602905 -0.7516249418258667 0.031128356233239174
vn -0.7333170771598816 0.6791664361953735 -0.031288810074329376
vn 0.9240437150001526 -0.3722296357154846 -0.08711022138595581
vn -0.3661954700946808 -0.923602819442749 0.11339662224054337
vn 0.9176632165908813 -0.3602953553199768 0.16757509112358093
vt 0.0 1.0
vt 0.0 1.0
vt 0.0 1.0
vt 0.0 1.0
vt 0.0 1.0
vt 0.0 1.0
vt 0.0 1.0
vt 0.0 1.0
vt 0.0 1.0
vt 0.0 1.0
vt 0.0 1.0

g face_right_col
s 1
usemtl face_right_col
f 3/3/3 2/2/2 4/4/4 
f 5/5/5 4/4/4 2/2/2 
f 6/6/6 3/3/3 4/4/4 
f 6/6/6 5/5/5 1/1/1 
f 8/8/8 6/6/6 4/4/4 
f 8/8/8 4/4/4 5/5/5 
f 8/8/8 5/5/5 6/6/6 
f 9/9/9 7/7/7 2/2/2 
f 9/9/9 2/2/2 3/3/3 
f 9/9/9 3/3/3 6/6/6 
f 9/9/9 6/6/6 7/7/7 
f 10/10/10 5/5/5 2/2/2 
f 10/10/10 2/2/2 7/7/7 
f 10/10/10 1/1/1 5/5/5 
f 11/11/11 10/10/10 7/7/7 
f 11/11/11 1/1/1 10/10/10 
f 11/11/11 7/7/7 6/6/6 
f 11/11/11 6/6/6 1/1/1 

