v -0.08378462493419647 2.965301990509033 2.581613063812256
v 0.22940443456172943 1.6359381675720215 1.0073463916778564
v 0.6098421812057495 2.1265742778778076 1.2812379598617554
v 0.1851016879081726 2.1919400691986084 1.1848595142364502
v -0.3842526078224182 1.4660242795944214 2.5310418605804443
v 0.412297785282135 2.1919400691986084 1.1739319562911987
v -0.23488418757915497 3.024003028869629 2.015577793121338
v 0.032979659736156464 1.328295350074768 2.383134126663208
v 0.44982197880744934 1.6359381675720215 1.0073463916778564
v -0.31581130623817444 1.8886356353759766 3.07649564743042
v -0.015301130712032318 2.964935064315796 1.6421101093292236
v -0.05952155590057373 1.2274781465530396 2.2585952281951904
v 0.5126321315765381 1.6452093124389648 1.4948869943618774
v 0.3660139739513397 2.8948333263397217 1.682883858680725
v 0.20901434123516083 2.971386671066284 1.6355527639389038
vn 0.8084813356399536 0.2226087898015976 0.5447966456413269
vn -0.8643255829811096 -0.14561456441879272 -0.4813915193080902
vn 0.9675066471099854 0.07289521396160126 0.242110013961792
vn -0.3052923381328583 0.3640594482421875 -0.8799189329147339
vn -0.9629483819007874 -0.12623295187950134 -0.23831817507743835
vn 0.20795491337776184 0.458877831697464 -0.863820493221283
vn -0.964300811290741 0.1494332253932953 -0.21861790120601654
vn 0.8356388211250305 -0.2687113881111145 0.479063481092453
vn 0.5967733860015869 -0.6796321272850037 -0.4265696108341217
vn 0.44062724709510803 0.01995796523988247 0.8974682688713074
vn -0.5963045358657837 0.3502101004123688 -0.7223390936851501
vn -0.06153034791350365 -0.9973672032356262 -0.03837517276406288
vn 0.9106170535087585 -0.11320117861032486 0.397444486618042
vn 0.9150172472000122 0.3883853852748871 0.109088234603405
vn 0.2311919778585434 0.9190803170204163 -0.3191263973712921
vt 0.0 1.0
vt 0.0 1.0
vt 0.0 1.0
vt 0.0 1.0
vt 0.0 1.0
vt 0.0 1.0
vt 0.0 1.0
vt 0.0 1.0
vt 0.0 1.0
vt 0.0 1.0
vt 0.0 1.0
vt 0.0 1.0
vt 0.0 1.0
vt 0.0 1.0
vt 0.0 1.0

g face_right_col
s 1
usemtl face_right_col
f 6/6/6 2/2/2 4/4/4 
f 7/7/7 2/2/2 5/5/5 
f 9/9/9 6/6/6 3/3/3 
f 9/9/9 2/2/2 6/6/6 
f 10/10/10 7/7/7 5/5/5 
f 10/10/10 1/1/1 7/7/7 
f 11/11/11 4/4/4 2/2/2 
f 11/11/11 2/2/2 7/7/7 
f 11/11/11 6/6/6 4/4/4 
f 12/12/12 5/5/5 2/2/2 
f 12/12/12 2/2/2 9/9/9 
f 12/12/12 10/10/10 5/5/5 
f 12/12/12 8/8/8 10/10/10 
f 13/13/13 9/9/9 3/3/3 
f 13/13/13 12/12/12 9/9/9 
f 13/13/13 8/8/8 12/12/12 
f 13/13/13 10/10/10 8/8/8 
f 13/13/13 3/3/3 1/1/1 
f 13/13/13 1/1/1 10/10/10 
f 14/14/14 3/3/3 6/6/6 
f 14/14/14 1/1/1 3/3/3 
f 15/15/15 14/14/14 6/6/6 
f 15/15/15 6/6/6 11/11/11 
f 15/15/15 11/11/11 7/7/7 
f 15/15/15 7/7/7 1/1/1 
f 15/15/15 1/1/1 14/14/14 

