v -0.31581130623817444 1.8886356353759766 3.07649564743042
v -1.0000001192092896 -0.765073299407959 1.253158450126648
v 0.22199247777462006 0.5359373092651367 1.253158450126648
v -1.0000001192092896 0.5359374284744263 1.253158688545227
v -0.9999996423721313 1.0143827199935913 3.3489739894866943
v 0.0817520022392273 -0.7647876739501953 1.2517809867858887
v -0.06653732061386108 1.4660242795944214 1.991395115852356
v -0.9999996423721313 1.8886359930038452 3.07649564743042
v -0.389095276594162 -0.5577965974807739 2.3170337677001953
v 0.032979659736156464 1.328295350074768 2.383134126663208
v -0.9999996423721313 1.4639147520065308 2.3139121532440186
v -1.0000001192092896 -0.5577965974807739 2.292677879333496
v -0.54023277759552 1.0143815279006958 3.3489742279052734
vn 0.6369677782058716 0.6369976997375488 0.43417292833328247
vn -0.5476468205451965 -0.7201870083808899 -0.42592674493789673
vn 0.5977382659912109 0.2878111004829407 -0.7482471466064453
vn -0.7049093246459961 0.25127264857292175 -0.6632984280586243
vn -0.5155876278877258 -0.3688364624977112 0.7733880877494812
vn 0.83332359790802 -0.4306159019470215 -0.34661465883255005
vn 0.07326769828796387 0.8034945726394653 -0.5907862186431885
vn -0.944317638874054 0.32393816113471985 0.057690367102622986
vn 0.5672662258148193 -0.5728907585144043 0.5916123390197754
vn 0.9276534914970398 -0.10208763182163239 0.3592172861099243
vn -0.3125264644622803 0.7628900408744812 -0.5659733414649963
vn -0.96465003490448 -0.20089109241962433 0.17056715488433838
vn 0.6339274644851685 -0.16300146281719208 0.7560201287269592
vt 0.0 1.0
vt 0.0 1.0
vt 0.0 1.0
vt 0.0 1.0
vt 0.0 1.0
vt 0.0 1.0
vt 0.0 1.0
vt 0.0 1.0
vt 0.0 1.0
vt 0.0 1.0
vt 0.0 1.0
vt 0.0 1.0
vt 0.0 1.0

g face_right_col
s 1
usemtl face_right_col
f 6/6/6 2/2/2 4/4/4 
f 6/6/6 4/4/4 3/3/3 
f 7/7/7 3/3/3 4/4/4 
f 8/8/8 1/1/1 7/7/7 
f 9/9/9 2/2/2 6/6/6 
f 10/10/10 6/6/6 3/3/3 
f 10/10/10 9/9/9 6/6/6 
f 10/10/10 7/7/7 1/1/1 
f 10/10/10 3/3/3 7/7/7 
f 11/11/11 8/8/8 7/7/7 
f 11/11/11 7/7/7 4/4/4 
f 11/11/11 4/4/4 8/8/8 
f 12/12/12 9/9/9 5/5/5 
f 12/12/12 2/2/2 9/9/9 
f 12/12/12 4/4/4 2/2/2 
f 12/12/12 8/8/8 4/4/4 
f 12/12/12 5/5/5 8/8/8 
f 13/13/13 5/5/5 9/9/9 
f 13/13/13 8/8/8 5/5/5 
f 13/13/13 1/1/1 8/8/8 
f 13/13/13 10/10/10 1/1/1 
f 13/13/13 9/9/9 10/10/10 

