v 0.38092511892318726 1.0137168169021606 3.3276498317718506
v 0.10153297334909439 -1.375367283821106 -1.800173044204712
v 1.3372031450271606 0.267721563577652 0.5066249966621399
v 0.10153297334909439 0.9698798060417175 -2.019118547439575
v 0.10346496105194092 1.9426422119140625 2.5437302589416504
v 0.9134601950645447 0.016307830810546875 -1.403045892715454
v 0.81452876329422 -1.7376035451889038 0.9938227534294128
v 0.1198837161064148 -1.2943683862686157 1.9521749019622803
v -1.5258788721439487e-07 0.22199247777462006 0.5359373092651367
v 0.6128971576690674 2.5838942527770996 1.7898180484771729
v 0.536109447479248 0.27880048751831055 -2.1169614791870117
v 0.9134600758552551 -0.4693835377693176 2.2861554622650146
v 1.2342419624328613 -0.7916759252548218 0.06780872493982315
v 0.20021437108516693 0.9406815767288208 3.225372552871704
v 0.19573019444942474 -2.2165889739990234 0.00814798753708601
v 0.1131882444024086 2.747804880142212 -0.1655750423669815
v 7.629394360719743e-08 -0.22199203073978424 -0.5359371304512024
v -7.629394076502649e-07 -0.2219918668270111 0.5359373092651367
v 0.5799595713615417 2.004089832305908 2.6789145469665527
v 0.536109447479248 -1.375367283821106 -1.800173044204712
v 0.10153273493051529 -0.3297407031059265 -2.060358762741089
v 0.5619953870773315 -0.9354893565177917 2.482984781265259
v 1.2342419624328613 0.11804915964603424 -0.6302486658096313
v 1.2342419624328613 -0.6420031189918518 1.2046821117401123
v 0.14049392938613892 1.5620919466018677 2.8638107776641846
v 0.7158139944076538 -1.2943683862686157 1.9519108533859253
v 0.10219176113605499 2.697859287261963 1.175845742225647
v 0.6226212978363037 2.0099668502807617 -1.5148347616195679
v -1.5258788721439487e-07 0.5359373092651367 -0.22199243307113647
v 0.11632750928401947 -2.0187604427337646 -0.44057050347328186
v 0.10346496105194092 2.2589869499206543 2.2240734100341797
v 1.2342419624328613 0.4173938035964966 1.6434985399246216
v 0.536109447479248 -0.4087119698524475 -2.03994083404541
v 0.5374650359153748 -2.2165889739990234 0.00814798753708601
v 0.10153297334909439 0.27880048751831055 -2.1169614791870117
v 0.3097817897796631 0.12960845232009888 2.8719303607940674
v 1.2342419624328613 -0.43033552169799805 -0.40309980511665344
v 1.2342419624328613 -0.8691517114639282 0.6562976241111755
v 0.5251451134681702 1.6641508340835571 2.959468364715576
v 0.9134601950645447 -1.2603952884674072 1.6791912317276
v 0.6226204037666321 2.854156255722046 0.5134927034378052
v 0.536109447479248 0.9698798060417175 -2.019118547439575
v 0.11318900436162949 1.9765033721923828 -1.4388320446014404
v 1.2342419624328613 1.1774462461471558 -0.19143226742744446
v 6.103515488575795e-07 0.22199247777462006 -0.5359375476837158
v -1.5258788721439487e-07 0.5359373092651367 0.22199209034442902
v -1.5258788721439487e-07 -0.5359370112419128 -0.22199223935604095
v 0.10153273493051529 -1.5898641347885132 -1.3753924369812012
v 0.5991936922073364 2.318089008331299 2.3071460723876953
v 0.10346496105194092 2.5022196769714355 1.7722351551055908
v 0.9063457250595093 0.5111836194992065 2.4173431396484375
v 1.2342419624328613 -0.17109526693820953 1.5660226345062256
v 0.9134601950645447 -1.5118087530136108 -0.23047952353954315
v 0.536109447479248 -2.08976411819458 -0.2901344299316406
v 0.9134601950645447 -1.6419492959976196 0.7580387592315674
v 0.6116239428520203 2.766489028930664 1.175845742225647
v 0.1131882444024086 2.784959077835083 0.5089554786682129
v 0.6226204037666321 2.61735200881958 -0.7990771532058716
v 0.5808810591697693 1.6085537672042847 -1.7776923179626465
v 0.9134601950645447 1.0048264265060425 -1.2729053497314453
v 0.1131882444024086 2.5549614429473877 -0.756537914276123
v 1.2342419624328613 0.7065379023551941 -0.5527728796005249
v 1.2342419624328613 1.32711923122406 0.9454417824745178
v 0.10153297334909439 1.5750898122787476 -1.7016886472702026
vn 0.6466236710548401 -0.06864660978317261 0.7597140073776245
vn -0.9668615460395813 -0.12544049322605133 -0.22235865890979767
vn 1.0 9.885370300111163e-10 7.414027725083372e-10
vn -0.8605217337608337 0.14441367983818054 -0.48851507902145386
vn -0.9937591552734375 0.035781752318143845 0.10565230995416641
vn 0.9061824679374695 -0.04707052931189537 -0.42025890946388245
vn 0.5542122721672058 -0.7700809240341187 0.31594955921173096
vn -0.9559127688407898 -0.22492781281471252 0.18878105282783508
vn -0.9992574453353882 0.014745405875146389 0.03559653460979462
vn 0.7003419995307922 0.6638708114624023 0.2622911036014557
vn 0.6434751749038696 0.03120744414627552 -0.7648305892944336
vn 0.85155189037323 -0.1696111410856247 0.49607589840888977
vn 0.9654204249382019 -0.24989211559295654 -0.07427888363599777
vn -0.8839434385299683 -0.154891699552536 0.4411942958831787
vn -0.5683199167251587 -0.8030217885971069 0.17935560643672943
vn -0.9426470994949341 0.3284560441970825 -0.059439826756715775
vn -0.9988634586334229 -0.012057621031999588 -0.04611280560493469
vn -0.9985169172286987 -0.02054624818265438 0.05041578412055969
vn 0.8626210689544678 0.3164842426776886 0.3946169316768646
vn 0.793775737285614 -0.38765326142311096 -0.46866294741630554
vn -0.8415564298629761 -0.1016010120511055 -0.5305280089378357
vn 0.25123506784439087 -0.48913735151290894 0.835239827632904
vn 0.9529972076416016 -0.057161930948495865 -0.29753783345222473
vn 0.9766454696655273 -0.17045749723911285 0.1307966113090515
vn -0.9655594825744629 0.08050304651260376 0.24741490185260773
vn 0.12379269301891327 -0.8755030632019043 0.4670863151550293
vn -0.9631712436676025 0.2645321488380432 0.04820691794157028
vn 0.8413136005401611 0.3541885316371918 -0.40834033489227295
vn -0.9989813566207886 0.04204358160495758 -0.016389846801757812
vn -0.9799163937568665 -0.19800741970539093 -0.02359824813902378
vn -0.955603837966919 0.23533308506011963 0.17731234431266785
vn 0.9565359354019165 0.10060007870197296 0.2737126648426056
vn 0.6586268544197083 -0.14153286814689636 -0.7390392422676086
vn 0.33015507459640503 -0.9011524319648743 0.2809305191040039
vn -0.96507328748703 0.0078050424344837666 -0.2618637979030609
vn -0.5557155609130859 -0.3963382840156555 0.7308188080787659
vn 0.9525147080421448 -0.20492181181907654 -0.22521743178367615
vn 0.9654204845428467 -0.25355231761932373 0.06061863154172897
vn 0.7777507305145264 0.25726741552352905 0.5735129714012146
vn 0.8877777457237244 -0.3549627661705017 0.29300516843795776
vn 0.7929709553718567 0.60814368724823 -0.03685441240668297
vn 0.6637044548988342 0.1638592779636383 -0.7298263311386108
vn -0.2333589643239975 0.6799970865249634 -0.6950882077217102
vn 0.9539058804512024 0.27715733647346497 -0.11509764194488525
vn -0.9983648061752319 0.019123418256640434 -0.05387130007147789
vn -0.9992967844009399 0.03326086699962616 0.017306655645370483
vn -0.9975184798240662 -0.07017099857330322 0.005740873981267214
vn -0.8167192935943604 -0.5249789357185364 -0.23951356112957
vn 0.7273176312446594 0.5678085684776306 0.3854900300502777
vn -0.9465315937995911 0.2943888306617737 0.13195866346359253
vn 0.8949691653251648 0.022273236885666847 0.44557178020477295
vn 0.9654203653335571 -0.12417714297771454 0.2292235940694809
vn 0.8950921297073364 -0.4039783179759979 -0.1887103170156479
vn 0.4491826295852661 -0.8108869791030884 -0.37509623169898987
vn 0.9028223156929016 -0.4295615553855896 0.019715651869773865
vn 0.7749693989753723 0.6170669794082642 0.1365678310394287
vn -0.24749816954135895 0.9682908058166504 0.03402381390333176
vn 0.7133617401123047 0.6370833516120911 -0.29195860028266907
vn 0.4186268150806427 0.38898709416389465 -0.8206342458724976
vn 0.9074599742889404 0.09430612623691559 -0.4094177484512329
vn -0.9707911014556885 0.20499005913734436 -0.12467454373836517
vn 0.9637472033500671 0.12211106717586517 -0.2372342348098755
vn 0.9581409096717834 0.26213759183883667 0.11510737985372543
vn -0.9845117926597595 0.09990321844816208 -0.14406900107860565
vt 0.0 1.0
vt 0.0 1.0
vt 0.0 1.0
vt 0.0 1.0
vt 0.0 1.0
vt 0.0 1.0
vt 0.0 1.0
vt 0.0 1.0
vt 0.0 1.0
vt 0.0 1.0
vt 0.0 1.0
vt 0.0 1.0
vt 0.0 1.0
vt 0.0 1.0
vt 0.0 1.0
vt 0.0 1.0
vt 0.0 1.0
vt 0.0 1.0
vt 0.0 1.0
vt 0.0 1.0
vt 0.0 1.0
vt 0.0 1.0
vt 0.0 1.0
vt 0.0 1.0
vt 0.0 1.0
vt 0.0 1.0
vt 0.0 1.0
vt 0.0 1.0
vt 0.0 1.0
vt 0.0 1.0
vt 0.0 1.0
vt 0.0 1.0
vt 0.0 1.0
vt 0.0 1.0
vt 0.0 1.0
vt 0.0 1.0
vt 0.0 1.0
vt 0.0 1.0
vt 0.0 1.0
vt 0.0 1.0
vt 0.0 1.0
vt 0.0 1.0
vt 0.0 1.0
vt 0.0 1.0
vt 0.0 1.0
vt 0.0 1.0
vt 0.0 1.0
vt 0.0 1.0
vt 0.0 1.0
vt 0.0 1.0
vt 0.0 1.0
vt 0.0 1.0
vt 0.0 1.0
vt 0.0 1.0
vt 0.0 1.0
vt 0.0 1.0
vt 0.0 1.0
vt 0.0 1.0
vt 0.0 1.0
vt 0.0 1.0
vt 0.0 1.0
vt 0.0 1.0
vt 0.0 1.0
vt 0.0 1.0

g guard_right_col
s 1
usemtl guard_right_col
f 18/18/18 8/8/8 5/5/5 
f 18/18/18 5/5/5 9/9/9 
f 21/21/21 2/2/2 17/17/17 
f 21/21/21 20/20/20 2/2/2 
f 22/22/22 12/12/12 1/1/1 
f 22/22/22 1/1/1 14/14/14 
f 23/23/23 20/20/20 6/6/6 
f 25/25/25 14/14/14 1/1/1 
f 25/25/25 5/5/5 8/8/8 
f 25/25/25 8/8/8 14/14/14 
f 26/26/26 22/22/22 8/8/8 
f 29/29/29 27/27/27 16/16/16 
f 29/29/29 17/17/17 18/18/18 
f 30/30/30 15/15/15 8/8/8 
f 31/31/31 5/5/5 19/19/19 
f 33/33/33 11/11/11 6/6/6 
f 33/33/33 6/6/6 20/20/20 
f 33/33/33 21/21/21 11/11/11 
f 33/33/33 20/20/20 21/21/21 
f 34/34/34 7/7/7 26/26/26 
f 34/34/34 26/26/26 8/8/8 
f 34/34/34 8/8/8 15/15/15 
f 35/35/35 4/4/4 11/11/11 
f 35/35/35 11/11/11 21/21/21 
f 35/35/35 21/21/21 17/17/17 
f 36/36/36 22/22/22 14/14/14 
f 36/36/36 14/14/14 8/8/8 
f 36/36/36 8/8/8 22/22/22 
f 37/37/37 23/23/23 3/3/3 
f 37/37/37 3/3/3 13/13/13 
f 37/37/37 20/20/20 23/23/23 
f 38/38/38 13/13/13 3/3/3 
f 38/38/38 3/3/3 24/24/24 
f 39/39/39 19/19/19 5/5/5 
f 39/39/39 5/5/5 25/25/25 
f 39/39/39 25/25/25 1/1/1 
f 39/39/39 32/32/32 19/19/19 
f 40/40/40 12/12/12 22/22/22 
f 40/40/40 22/22/22 26/26/26 
f 40/40/40 26/26/26 7/7/7 
f 40/40/40 38/38/38 24/24/24 
f 42/42/42 11/11/11 4/4/4 
f 45/45/45 17/17/17 29/29/29 
f 45/45/45 35/35/35 17/17/17 
f 45/45/45 4/4/4 35/35/35 
f 46/46/46 27/27/27 29/29/29 
f 46/46/46 9/9/9 5/5/5 
f 46/46/46 5/5/5 31/31/31 
f 46/46/46 29/29/29 18/18/18 
f 46/46/46 18/18/18 9/9/9 
f 47/47/47 18/18/18 17/17/17 
f 47/47/47 17/17/17 2/2/2 
f 47/47/47 30/30/30 8/8/8 
f 47/47/47 8/8/8 18/18/18 
f 48/48/48 2/2/2 20/20/20 
f 48/48/48 47/47/47 2/2/2 
f 48/48/48 30/30/30 47/47/47 
f 49/49/49 31/31/31 19/19/19 
f 50/50/50 10/10/10 27/27/27 
f 50/50/50 46/46/46 31/31/31 
f 50/50/50 27/27/27 46/46/46 
f 50/50/50 49/49/49 10/10/10 
f 50/50/50 31/31/31 49/49/49 
f 51/51/51 1/1/1 12/12/12 
f 51/51/51 12/12/12 32/32/32 
f 51/51/51 39/39/39 1/1/1 
f 51/51/51 32/32/32 39/39/39 
f 52/52/52 32/32/32 12/12/12 
f 52/52/52 24/24/24 3/3/3 
f 52/52/52 3/3/3 32/32/32 
f 52/52/52 40/40/40 24/24/24 
f 52/52/52 12/12/12 40/40/40 
f 53/53/53 37/37/37 13/13/13 
f 53/53/53 20/20/20 37/37/37 
f 54/54/54 34/34/34 15/15/15 
f 54/54/54 15/15/15 30/30/30 
f 54/54/54 30/30/30 48/48/48 
f 54/54/54 48/48/48 20/20/20 
f 54/54/54 53/53/53 34/34/34 
f 54/54/54 20/20/20 53/53/53 
f 55/55/55 40/40/40 7/7/7 
f 55/55/55 38/38/38 40/40/40 
f 55/55/55 7/7/7 34/34/34 
f 55/55/55 34/34/34 53/53/53 
f 55/55/55 53/53/53 13/13/13 
f 55/55/55 13/13/13 38/38/38 
f 56/56/56 41/41/41 27/27/27 
f 56/56/56 27/27/27 10/10/10 
f 57/57/57 41/41/41 16/16/16 
f 57/57/57 16/16/16 27/27/27 
f 57/57/57 27/27/27 41/41/41 
f 58/58/58 16/16/16 41/41/41 
f 58/58/58 28/28/28 43/43/43 
f 58/58/58 44/44/44 28/28/28 
f 58/58/58 41/41/41 44/44/44 
f 59/59/59 42/42/42 4/4/4 
f 59/59/59 43/43/43 28/28/28 
f 60/60/60 6/6/6 11/11/11 
f 60/60/60 11/11/11 42/42/42 
f 60/60/60 42/42/42 59/59/59 
f 60/60/60 23/23/23 6/6/6 
f 60/60/60 59/59/59 28/28/28 
f 61/61/61 29/29/29 16/16/16 
f 61/61/61 58/58/58 43/43/43 
f 61/61/61 16/16/16 58/58/58 
f 62/62/62 44/44/44 3/3/3 
f 62/62/62 3/3/3 23/23/23 
f 62/62/62 23/23/23 60/60/60 
f 62/62/62 60/60/60 28/28/28 
f 62/62/62 28/28/28 44/44/44 
f 63/63/63 32/32/32 3/3/3 
f 63/63/63 3/3/3 44/44/44 
f 63/63/63 10/10/10 49/49/49 
f 63/63/63 49/49/49 19/19/19 
f 63/63/63 19/19/19 32/32/32 
f 63/63/63 56/56/56 10/10/10 
f 63/63/63 44/44/44 41/41/41 
f 63/63/63 41/41/41 56/56/56 
f 64/64/64 4/4/4 45/45/45 
f 64/64/64 59/59/59 4/4/4 
f 64/64/64 43/43/43 59/59/59 
f 64/64/64 45/45/45 29/29/29 
f 64/64/64 61/61/61 43/43/43 
f 64/64/64 29/29/29 61/61/61 

