v -0.3331616222858429 -3.2127749919891357 6.318198204040527
v -1.5025286674499512 -3.5333852767944336 5.73545503616333
v 0.06647514551877975 -3.1241323947906494 6.059859752655029
v -1.5025286674499512 -3.090386390686035 6.0939812660217285
v -1.5025286674499512 -3.705900192260742 6.0803985595703125
v -0.4769931435585022 -3.082268714904785 6.0938591957092285
v -1.5025286674499512 -3.214343786239624 6.319958686828613
v 0.0656515434384346 -3.590175151824951 5.81607723236084
v -0.6004694700241089 -3.536081314086914 5.727315902709961
v -0.3304866552352905 -3.7058873176574707 6.080114841461182
vn 0.1625983715057373 0.01645583286881447 0.9865551590919495
vn -0.27611568570137024 -0.3740774095058441 -0.8853395581245422
vn 0.751929521560669 0.6155216097831726 -0.2360830456018448
vn -0.29229989647865295 0.7498887181282043 -0.5934876799583435
vn -0.3009926378726959 -0.9430370330810547 0.14171986281871796
vn 0.0069805653765797615 0.9553156495094299 -0.2955053448677063
vn -0.09807109087705612 -0.0449930839240551 0.9941617846488953
vn 0.18739871680736542 -0.8177659511566162 -0.5441879630088806
vn 0.027188189327716827 0.5534623265266418 -0.8324302434921265
vn 0.1690964698791504 -0.5951431393623352 0.7856278419494629
vt 0.0 1.0
vt 0.0 1.0
vt 0.0 1.0
vt 0.0 1.0
vt 0.0 1.0
vt 0.0 1.0
vt 0.0 1.0
vt 0.0 1.0
vt 0.0 1.0
vt 0.0 1.0

g guard_right_col
s 1
usemtl guard_right_col
f 5/5/5 4/4/4 2/2/2 
f 6/6/6 1/1/1 3/3/3 
f 7/7/7 4/4/4 5/5/5 
f 7/7/7 6/6/6 4/4/4 
f 7/7/7 1/1/1 6/6/6 
f 8/8/8 5/5/5 2/2/2 
f 9/9/9 6/6/6 3/3/3 
f 9/9/9 2/2/2 4/4/4 
f 9/9/9 4/4/4 6/6/6 
f 9/9/9 8/8/8 2/2/2 
f 9/9/9 3/3/3 8/8/8 
f 10/10/10 7/7/7 5/5/5 
f 10/10/10 1/1/1 7/7/7 
f 10/10/10 5/5/5 8/8/8 
f 10/10/10 8/8/8 3/3/3 
f 10/10/10 3/3/3 1/1/1 

