v -0.5615254044532776 -1.3325037956237793 5.662302017211914
v 0.0027348326984792948 -1.113945722579956 2.3475561141967773
v 0.5991194248199463 -1.113945722579956 2.3492376804351807
v 0.2654939293861389 -0.19286832213401794 2.5673999786376953
v -0.8236402273178101 -1.1607954502105713 5.569793224334717
v 0.5463573932647705 -0.8213459849357605 2.3472609519958496
v -0.9254682660102844 -1.8848751783370972 5.6502861976623535
v 0.2654939293861389 -0.8213459849357605 2.3472609519958496
v 0.5247343182563782 -0.33924680948257446 2.541522979736328
v -0.5916526913642883 -1.7623885869979858 5.350000381469727
v -0.9052345752716064 -1.7623885869979858 5.325433731079102
v 0.5619953870773315 -0.9354893565177917 2.482984781265259
vn 0.871997594833374 0.19736763834953308 0.4479579031467438
vn -0.911827564239502 -0.11627563089132309 -0.39376434683799744
vn 0.6147654056549072 -0.7887100577354431 -0.00023065994901116937
vn -0.5914018750190735 0.8002600073814392 -0.09913545846939087
vn -0.8850343823432922 0.4522455036640167 -0.11039955168962479
vn 0.1255515068769455 0.20418822765350342 -0.9708470106124878
vn -0.03125199303030968 -0.9947720766067505 -0.09722063690423965
vn -0.1451328694820404 0.2686825096607208 -0.9522322416305542
vn 0.8869370818138123 0.3125064969062805 0.3401208817958832
vn 0.8066523671150208 -0.5368586778640747 0.24717362225055695
vn -0.9633442759513855 0.10818632692098618 -0.2454863339662552
vn 0.9435563087463379 0.008415982127189636 0.3311053216457367
vt 0.0 1.0
vt 0.0 1.0
vt 0.0 1.0
vt 0.0 1.0
vt 0.0 1.0
vt 0.0 1.0
vt 0.0 1.0
vt 0.0 1.0
vt 0.0 1.0
vt 0.0 1.0
vt 0.0 1.0
vt 0.0 1.0

g guard_right_col
s 1
usemtl guard_right_col
f 5/5/5 1/1/1 4/4/4 
f 5/5/5 4/4/4 2/2/2 
f 6/6/6 3/3/3 2/2/2 
f 7/7/7 2/2/2 3/3/3 
f 7/7/7 1/1/1 5/5/5 
f 8/8/8 6/6/6 2/2/2 
f 8/8/8 2/2/2 4/4/4 
f 8/8/8 4/4/4 6/6/6 
f 9/9/9 3/3/3 6/6/6 
f 9/9/9 6/6/6 4/4/4 
f 9/9/9 4/4/4 1/1/1 
f 10/10/10 7/7/7 3/3/3 
f 10/10/10 3/3/3 1/1/1 
f 10/10/10 1/1/1 7/7/7 
f 11/11/11 7/7/7 5/5/5 
f 11/11/11 5/5/5 2/2/2 
f 11/11/11 2/2/2 7/7/7 
f 12/12/12 9/9/9 1/1/1 
f 12/12/12 1/1/1 3/3/3 
f 12/12/12 3/3/3 9/9/9 

