v 0.5361088514328003 0.13146056234836578 2.871138572692871
v 0.11302535980939865 -1.1350271701812744 1.41014564037323
v 1.2342419624328613 -0.6420031189918518 1.2046821117401123
v 0.12401892989873886 0.570391058921814 1.7759774923324585
v -0.3852963149547577 0.158721923828125 2.773481607437134
v 0.9063457250595093 0.5111836194992065 2.4173431396484375
v 0.5991194248199463 -1.113945722579956 2.3492376804351807
v -0.3852963149547577 -1.113945722579956 2.3478732109069824
v 0.12401869893074036 0.5703904628753662 2.434144973754883
v 0.9134601950645447 -1.2603952884674072 1.6791912317276
v 0.9134600758552551 -0.4693835377693176 2.2861554622650146
v 0.5619953870773315 -0.9354893565177917 2.482984781265259
v 0.3097817897796631 0.12960845232009888 2.8719303607940674
v 0.1198837161064148 -1.2943683862686157 1.9521749019622803
v 0.7158139944076538 -1.2943683862686157 1.9519108533859253
vn 0.5423462390899658 0.10818234831094742 0.833160936832428
vn -0.5276355743408203 -0.13653352856636047 -0.8384266495704651
vn 0.6010466814041138 0.24202391505241394 -0.761687159538269
vn -0.5026624798774719 0.4763129651546478 -0.7214266061782837
vn -0.9268104434013367 0.2667113244533539 0.2643623352050781
vn 0.7787579894065857 0.6262229084968567 0.03716064617037773
vn 0.41252246499061584 -0.7111976146697998 0.569230318069458
vn -0.9342929720878601 -0.29796886444091797 0.1957327425479889
vn -0.13094638288021088 0.9025286436080933 0.4102378487586975
vn 0.6653476357460022 -0.7432670593261719 -0.06976211816072464
vn 0.8762139678001404 -0.17352281510829926 0.4495985209941864
vn 0.1944805532693863 -0.3714711368083954 0.9078471660614014
vn -0.0921468660235405 -0.15284079313278198 0.9839454889297485
vn -0.12321507930755615 -0.9916126132011414 0.03901845961809158
vn 0.13410577178001404 -0.9531251788139343 0.2712344527244568
vt 0.0 1.0
vt 0.0 1.0
vt 0.0 1.0
vt 0.0 1.0
vt 0.0 1.0
vt 0.0 1.0
vt 0.0 1.0
vt 0.0 1.0
vt 0.0 1.0
vt 0.0 1.0
vt 0.0 1.0
vt 0.0 1.0
vt 0.0 1.0
vt 0.0 1.0
vt 0.0 1.0

g guard_right_col
s 1
usemtl guard_right_col
f 3/3/3 2/2/2 4/4/4 
f 6/6/6 3/3/3 4/4/4 
f 8/8/8 5/5/5 4/4/4 
f 8/8/8 4/4/4 2/2/2 
f 9/9/9 1/1/1 6/6/6 
f 9/9/9 6/6/6 4/4/4 
f 9/9/9 4/4/4 5/5/5 
f 10/10/10 2/2/2 3/3/3 
f 11/11/11 6/6/6 1/1/1 
f 11/11/11 7/7/7 10/10/10 
f 11/11/11 10/10/10 3/3/3 
f 11/11/11 3/3/3 6/6/6 
f 12/12/12 8/8/8 7/7/7 
f 12/12/12 11/11/11 1/1/1 
f 12/12/12 7/7/7 11/11/11 
f 13/13/13 5/5/5 8/8/8 
f 13/13/13 9/9/9 5/5/5 
f 13/13/13 1/1/1 9/9/9 
f 13/13/13 12/12/12 1/1/1 
f 13/13/13 8/8/8 12/12/12 
f 14/14/14 8/8/8 2/2/2 
f 14/14/14 2/2/2 10/10/10 
f 14/14/14 7/7/7 8/8/8 
f 15/15/15 14/14/14 10/10/10 
f 15/15/15 10/10/10 7/7/7 
f 15/15/15 7/7/7 14/14/14 

