v -0.3561316132545471 1.3403739929199219 2.4647068977355957
v -0.9833110570907593 1.4305622577667236 0.5064391493797302
v 1.1184108257293701 1.366733193397522 0.7090763449668884
v -0.9833113551139832 2.6723124980926514 0.5462847352027893
v -0.9833109974861145 1.3403739929199219 2.4647068977355957
v -0.356131911277771 2.6723124980926514 0.5462847352027893
v -0.9833109974861145 2.2533180713653564 1.6289920806884766
v -0.9833109378814697 -0.010674591176211834 1.7042653560638428
v 0.6226826310157776 1.3076304197311401 0.6260038018226624
v 0.4617666006088257 2.0277256965637207 1.2875831127166748
v -0.9833110570907593 1.9387538433074951 2.032165288925171
v -0.9833113551139832 2.554671049118042 1.0206459760665894
v 1.0443624258041382 0.7127946019172668 1.3613985776901245
v -0.3561316132545471 2.2533180713653564 1.6289920806884766
v -0.3561316132545471 1.6679457426071167 2.2701611518859863
v 0.4269021153450012 1.204682469367981 2.088679313659668
v 0.6226826310157776 0.5781101584434509 1.3086026906967163
v -0.35613182187080383 2.555337905883789 1.0178314447402954
v -0.9833109974861145 1.6679461002349854 2.270160675048828
v -0.3561316132545471 1.9356452226638794 2.0331382751464844
v 1.0991766452789307 1.0527335405349731 1.080844759941101
v 0.4507961571216583 1.7774910926818848 1.6249113082885742
v 0.4386177957057953 1.5217781066894531 1.8638744354248047
vn 0.203945130109787 -0.3803122639656067 0.902091383934021
vn -0.24083657562732697 -0.33660057187080383 -0.9103283882141113
vn 0.831561803817749 0.3305479884147644 -0.4463666081428528
vn -0.960649311542511 0.11554398387670517 -0.252591609954834
vn -0.9300328493118286 -0.06688437610864639 0.3613382875919342
vn 0.3206244707107544 0.47317007184028625 -0.8205546140670776
vn -0.0936501994729042 0.8503661155700684 0.5177905559539795
vn -0.5866841673851013 -0.8097326159477234 -0.011603549122810364
vn 0.06849128752946854 -0.4462440609931946 -0.8922865390777588
vn 0.6090381741523743 0.7678183317184448 0.19881564378738403
vn -0.3691618740558624 0.6863454580307007 0.626617431640625
vn -0.9497607946395874 0.29188272356987 0.11295519024133682
vn 0.5219143629074097 -0.659815788269043 0.5406001806259155
vn 0.2089480608701706 0.8285526037216187 0.5194624662399292
vn 0.2436661422252655 0.5656369924545288 0.787833571434021
vn 0.487423300743103 -0.3390224277973175 0.8046627640724182
vn 0.15483352541923523 -0.722830593585968 -0.6734555959701538
vn 0.26372575759887695 0.8995861411094666 0.34812867641448975
vn -0.05450231581926346 0.5849565267562866 0.8092312812805176
vn 0.3014557361602783 0.6927601099014282 0.6551396250724792
vn 0.824828565120697 0.3432284891605377 0.4492795765399933
vn 0.657770574092865 0.561213493347168 0.5023717284202576
vn 0.6349833607673645 0.47781577706336975 0.6070322394371033
vt 0.0 1.0
vt 0.0 1.0
vt 0.0 1.0
vt 0.0 1.0
vt 0.0 1.0
vt 0.0 1.0
vt 0.0 1.0
vt 0.0 1.0
vt 0.0 1.0
vt 0.0 1.0
vt 0.0 1.0
vt 0.0 1.0
vt 0.0 1.0
vt 0.0 1.0
vt 0.0 1.0
vt 0.0 1.0
vt 0.0 1.0
vt 0.0 1.0
vt 0.0 1.0
vt 0.0 1.0
vt 0.0 1.0
vt 0.0 1.0
vt 0.0 1.0

g helmet_right_col
s 1
usemtl helmet_right_col
f 6/6/6 2/2/2 4/4/4 
f 8/8/8 1/1/1 5/5/5 
f 8/8/8 4/4/4 2/2/2 
f 9/9/9 6/6/6 3/3/3 
f 9/9/9 2/2/2 6/6/6 
f 9/9/9 8/8/8 2/2/2 
f 10/10/10 3/3/3 6/6/6 
f 12/12/12 6/6/6 4/4/4 
f 12/12/12 11/11/11 7/7/7 
f 12/12/12 5/5/5 11/11/11 
f 12/12/12 8/8/8 5/5/5 
f 12/12/12 4/4/4 8/8/8 
f 14/14/14 7/7/7 11/11/11 
f 14/14/14 12/12/12 7/7/7 
f 15/15/15 5/5/5 1/1/1 
f 16/16/16 1/1/1 8/8/8 
f 16/16/16 8/8/8 13/13/13 
f 16/16/16 15/15/15 1/1/1 
f 17/17/17 9/9/9 3/3/3 
f 17/17/17 3/3/3 13/13/13 
f 17/17/17 13/13/13 8/8/8 
f 17/17/17 8/8/8 9/9/9 
f 18/18/18 14/14/14 10/10/10 
f 18/18/18 10/10/10 6/6/6 
f 18/18/18 6/6/6 12/12/12 
f 18/18/18 12/12/12 14/14/14 
f 19/19/19 15/15/15 11/11/11 
f 19/19/19 11/11/11 5/5/5 
f 19/19/19 5/5/5 15/15/15 
f 20/20/20 14/14/14 11/11/11 
f 20/20/20 11/11/11 15/15/15 
f 21/21/21 16/16/16 13/13/13 
f 21/21/21 13/13/13 3/3/3 
f 22/22/22 10/10/10 14/14/14 
f 22/22/22 14/14/14 20/20/20 
f 22/22/22 21/21/21 3/3/3 
f 22/22/22 3/3/3 10/10/10 
f 23/23/23 16/16/16 21/21/21 
f 23/23/23 21/21/21 22/22/22 
f 23/23/23 15/15/15 16/16/16 
f 23/23/23 22/22/22 20/20/20 
f 23/23/23 20/20/20 15/15/15 

