v 0.30416005849838257 3.0830624103546143 -1.6097434759140015
v -0.9833113551139832 1.6799168586730957 -3.5738258361816406
v 0.30353084206581116 2.285902738571167 -3.276355504989624
v -0.9833114147186279 2.135746479034424 -3.139625072479248
v -0.9833109378814697 1.9855637550354004 -1.4856188297271729
v -0.21386824548244476 2.311011791229248 -3.28354549407959
v -0.9833114147186279 2.852530002593994 -1.5218638181686401
v 1.1418383121490479 1.4102363586425781 -2.7543067932128906
v 0.2967059910297394 1.8113077878952026 -3.7299118041992188
v 0.30416005849838257 2.9250195026397705 -2.2014482021331787
v -0.9833114147186279 2.5331268310546875 -2.701221227645874
v -0.9833107590675354 1.5467280149459839 -2.964146375656128
v 1.1418378353118896 1.8531675338745117 -1.7834960222244263
v 0.30416005849838257 2.6442711353302 -2.784115791320801
v -0.21358603239059448 2.9359757900238037 -2.2049546241760254
v 0.6324062347412109 1.3767726421356201 -2.6783041954040527
v 1.1418378353118896 1.6659965515136719 -2.397146463394165
v -0.21358612179756165 3.0933375358581543 -1.6072677373886108
v -0.9833114147186279 2.7861809730529785 -2.1019108295440674
v -0.21358603239059448 2.662214517593384 -2.7938835620880127
v 0.6324056386947632 1.796448826789856 -1.7636445760726929
vn 0.2968767285346985 0.28500640392303467 0.911392092704773
vn -0.7066665291786194 -0.5019028186798096 -0.4987143874168396
vn 0.6030458807945251 0.5962777137756348 -0.529895007610321
vn -0.739164412021637 0.48157575726509094 -0.47087228298187256
vn -0.3281969428062439 -0.5807812809944153 0.7449697256088257
vn -0.14403361082077026 0.7053232192993164 -0.6940990686416626
vn -0.9031183123588562 0.17524932324886322 0.3920013904571533
vn 0.6876687407493591 -0.48419785499572754 -0.5409844517707825
vn 0.2823461890220642 -0.13322624564170837 -0.9500165581703186
vn 0.6402056217193604 0.7203417420387268 -0.26691675186157227
vn -0.42099595069885254 0.7769076824188232 -0.46816328167915344
vn -0.2569836378097534 -0.9562270641326904 0.13996122777462006
vn 0.577851414680481 -0.05163486674427986 0.814507007598877
vn 0.6011676788330078 0.6765767931938171 -0.4252544045448303
vn -0.12307731807231903 0.9330419301986694 -0.33806005120277405
vn -0.05573628097772598 -0.9752295613288879 0.21405760943889618
vn 0.8057511448860168 0.5368598699569702 -0.2500930428504944
vn -0.1894233524799347 0.9773807525634766 -0.09405142068862915
vn -0.3173670470714569 0.9159117937088013 -0.24573089182376862
vn -0.08444084227085114 0.8686546683311462 -0.4881686866283417
vn 0.010102111846208572 -0.8850244879722595 0.4654347598552704
vt 0.0 1.0
vt 0.0 1.0
vt 0.0 1.0
vt 0.0 1.0
vt 0.0 1.0
vt 0.0 1.0
vt 0.0 1.0
vt 0.0 1.0
vt 0.0 1.0
vt 0.0 1.0
vt 0.0 1.0
vt 0.0 1.0
vt 0.0 1.0
vt 0.0 1.0
vt 0.0 1.0
vt 0.0 1.0
vt 0.0 1.0
vt 0.0 1.0
vt 0.0 1.0
vt 0.0 1.0
vt 0.0 1.0

g helmet_right_col
s 1
usemtl helmet_right_col
f 6/6/6 2/2/2 4/4/4 
f 7/7/7 5/5/5 1/1/1 
f 7/7/7 4/4/4 2/2/2 
f 7/7/7 2/2/2 5/5/5 
f 9/9/9 6/6/6 3/3/3 
f 9/9/9 2/2/2 6/6/6 
f 9/9/9 8/8/8 2/2/2 
f 9/9/9 3/3/3 8/8/8 
f 11/11/11 6/6/6 4/4/4 
f 11/11/11 4/4/4 7/7/7 
f 12/12/12 5/5/5 2/2/2 
f 13/13/13 1/1/1 5/5/5 
f 13/13/13 10/10/10 1/1/1 
f 14/14/14 3/3/3 6/6/6 
f 14/14/14 8/8/8 3/3/3 
f 15/15/15 1/1/1 10/10/10 
f 16/16/16 5/5/5 12/12/12 
f 16/16/16 8/8/8 13/13/13 
f 16/16/16 12/12/12 2/2/2 
f 16/16/16 2/2/2 8/8/8 
f 17/17/17 13/13/13 8/8/8 
f 17/17/17 10/10/10 13/13/13 
f 17/17/17 14/14/14 10/10/10 
f 17/17/17 8/8/8 14/14/14 
f 18/18/18 7/7/7 1/1/1 
f 18/18/18 1/1/1 15/15/15 
f 19/19/19 15/15/15 11/11/11 
f 19/19/19 11/11/11 7/7/7 
f 19/19/19 18/18/18 15/15/15 
f 19/19/19 7/7/7 18/18/18 
f 20/20/20 15/15/15 10/10/10 
f 20/20/20 10/10/10 14/14/14 
f 20/20/20 14/14/14 6/6/6 
f 20/20/20 6/6/6 11/11/11 
f 20/20/20 11/11/11 15/15/15 
f 21/21/21 16/16/16 13/13/13 
f 21/21/21 13/13/13 5/5/5 
f 21/21/21 5/5/5 16/16/16 

