v 0.4786779284477234 2.304506540298462 0.8275213837623596
v -0.9833109378814697 1.9855637550354004 -1.4856188297271729
v 1.1418378353118896 1.9028000831604004 -1.0845768451690674
v -0.9833113551139832 2.849163055419922 -0.8291212320327759
v -0.9833110570907593 1.7522447109222412 0.006304500158876181
v 0.4786779284477234 2.7024028301239014 -0.8344529867172241
v -0.9833113551139832 2.6723124980926514 0.5462847352027893
v 0.6226826310157776 1.5508631467819214 0.17416562139987946
v -0.35613203048706055 2.8491628170013428 -0.8291212320327759
v 0.4786779284477234 2.624314785003662 -0.1805008500814438
v 0.6324056386947632 1.8336031436920166 -1.0891143083572388
v 1.1321147680282593 1.6325386762619019 0.19174838066101074
v -0.35613182187080383 2.781147003173828 -0.10735771805047989
v 0.4786779284477234 2.456691265106201 0.47756317257881165
v 1.1308417320251465 1.8151333332061768 -0.4222240149974823
v -0.9833113551139832 2.781147003173828 -0.10735771805047989
v -0.356131911277771 2.6723124980926514 0.5462847352027893
vn -0.06946973502635956 -0.40496310591697693 0.9116900563240051
vn -0.2582624852657318 -0.5618669390678406 -0.7858792543411255
vn 0.6546907424926758 0.06775590777397156 -0.7528539896011353
vn -0.8974974155426025 0.41671842336654663 -0.1443750262260437
vn -0.6208785772323608 -0.6996756196022034 0.353502094745636
vn 0.30503422021865845 0.7512447237968445 -0.5853079557418823
vn -0.731873095035553 0.08172129094600677 0.676522970199585
vn -0.050421275198459625 -0.996630072593689 0.06470128148794174
vn 0.08303090929985046 0.8462528586387634 -0.5262717604637146
vn 0.5658575892448425 0.8116928339004517 0.14477501809597015
vn 0.012362523004412651 -0.9643025398254395 -0.2645144760608673
vn 0.8817970156669617 -0.27730563282966614 0.38149118423461914
vn 0.09388107061386108 0.9876359701156616 0.12554459273815155
vn 0.6497802138328552 0.725524365901947 0.22671587765216827
vn 0.8032692670822144 0.5800358653068542 0.13533946871757507
vn -0.03917135298252106 0.9910733699798584 0.12743283808231354
vn 0.1658504754304886 0.935696005821228 0.3113947808742523
vt 0.0 1.0
vt 0.0 1.0
vt 0.0 1.0
vt 0.0 1.0
vt 0.0 1.0
vt 0.0 1.0
vt 0.0 1.0
vt 0.0 1.0
vt 0.0 1.0
vt 0.0 1.0
vt 0.0 1.0
vt 0.0 1.0
vt 0.0 1.0
vt 0.0 1.0
vt 0.0 1.0
vt 0.0 1.0
vt 0.0 1.0

g helmet_right_col
s 1
usemtl helmet_right_col
f 5/5/5 4/4/4 2/2/2 
f 6/6/6 3/3/3 2/2/2 
f 7/7/7 5/5/5 1/1/1 
f 7/7/7 4/4/4 5/5/5 
f 8/8/8 5/5/5 2/2/2 
f 8/8/8 1/1/1 5/5/5 
f 9/9/9 6/6/6 2/2/2 
f 9/9/9 2/2/2 4/4/4 
f 10/10/10 3/3/3 6/6/6 
f 11/11/11 8/8/8 2/2/2 
f 11/11/11 2/2/2 3/3/3 
f 11/11/11 3/3/3 8/8/8 
f 12/12/12 8/8/8 3/3/3 
f 12/12/12 1/1/1 8/8/8 
f 13/13/13 9/9/9 4/4/4 
f 13/13/13 10/10/10 6/6/6 
f 13/13/13 6/6/6 9/9/9 
f 14/14/14 1/1/1 12/12/12 
f 15/15/15 12/12/12 3/3/3 
f 15/15/15 3/3/3 10/10/10 
f 15/15/15 14/14/14 12/12/12 
f 15/15/15 10/10/10 14/14/14 
f 16/16/16 13/13/13 4/4/4 
f 16/16/16 4/4/4 7/7/7 
f 16/16/16 7/7/7 13/13/13 
f 17/17/17 14/14/14 10/10/10 
f 17/17/17 10/10/10 13/13/13 
f 17/17/17 13/13/13 7/7/7 
f 17/17/17 7/7/7 1/1/1 
f 17/17/17 1/1/1 14/14/14 

