v 0.4588705599308014 -0.5190281867980957 1.8554614782333374
v -0.45947954058647156 -0.4594741761684418 0.0
v 0.45950987935066223 0.45945650339126587 7.629394644936838e-07
v -0.45947954058647156 0.45945650339126587 0.0
v -0.4343816339969635 -0.5190281867980957 1.8554614782333374
v 0.19035926461219788 -0.4594741761684418 1.5258788721439487e-07
v -0.45947954058647156 0.45945650339126587 0.7739134430885315
v -0.45947954058647156 -0.4594741761684418 0.7739134430885315
v -0.4343816339969635 0.06594100594520569 1.4157637357711792
v 0.45950987935066223 0.45945650339126587 0.7739142179489136
v 0.3514074683189392 0.009944839403033257 1.385022759437561
vn 0.713024377822876 -0.6759883165359497 0.1861075460910797
vn -0.4439561367034912 -0.8714954853057861 -0.20832368731498718
vn 0.8630343675613403 0.3233503997325897 -0.38809317350387573
vn -0.40457573533058167 0.4046022891998291 -0.8201313018798828
vn -0.6716862320899963 -0.6882460713386536 0.27414369583129883
vn 0.5730412006378174 -0.573077380657196 -0.5858379602432251
vn -0.7856100797653198 0.6070097088813782 0.11981678009033203
vn -0.9998517632484436 -0.011090397834777832 0.013168535195291042
vn -0.04492463916540146 0.7408202290534973 0.6701993346214294
vn 0.4056514501571655 0.8377531170845032 0.3655362129211426
vn 0.15348932147026062 0.7327231764793396 0.6629915237426758
vt 0.0 1.0
vt 0.0 1.0
vt 0.0 1.0
vt 0.0 1.0
vt 0.0 1.0
vt 0.0 1.0
vt 0.0 1.0
vt 0.0 1.0
vt 0.0 1.0
vt 0.0 1.0
vt 0.0 1.0

g Honeydew_beard_R_col
s 1
usemtl Honeydew_beard_R_col
f 5/5/5 2/2/2 1/1/1 
f 6/6/6 1/1/1 2/2/2 
f 6/6/6 3/3/3 1/1/1 
f 6/6/6 2/2/2 4/4/4 
f 6/6/6 4/4/4 3/3/3 
f 7/7/7 4/4/4 2/2/2 
f 7/7/7 3/3/3 4/4/4 
f 8/8/8 7/7/7 2/2/2 
f 8/8/8 2/2/2 5/5/5 
f 8/8/8 5/5/5 7/7/7 
f 9/9/9 7/7/7 5/5/5 
f 9/9/9 5/5/5 1/1/1 
f 10/10/10 1/1/1 3/3/3 
f 10/10/10 3/3/3 7/7/7 
f 10/10/10 7/7/7 9/9/9 
f 11/11/11 10/10/10 9/9/9 
f 11/11/11 9/9/9 1/1/1 
f 11/11/11 1/1/1 10/10/10 

