v 0.4971725046634674 0.5194146633148193 1.2419353723526
v -0.5535998344421387 -0.45547449588775635 0.0
v 0.5013073682785034 0.5266796946525574 6.993611378902642e-08
v -0.5535998344421387 0.5266794562339783 1.23977656585339e-07
v -0.5559826493263245 -0.45547449588775635 1.2405146360397339
v -0.5559826493263245 0.5266796946525574 1.2405146360397339
v 0.5013073682785034 -0.45547449588775635 4.768370942542788e-08
v 0.4958776533603668 -0.45547449588775635 1.2405146360397339
vn 0.704791784286499 0.37740635871887207 0.6006937026977539
vn -0.7045007348060608 -0.3783433437347412 -0.6004456877708435
vn 0.3461465537548065 0.7370877265930176 -0.580417275428772
vn -0.589250385761261 0.6328990459442139 -0.5022178292274475
vn -0.3441911041736603 -0.737883448600769 0.5805692076683044
vn -0.6533493995666504 0.7037661075592041 0.27901244163513184
vn 0.6540539264678955 -0.7041226029396057 -0.2764500677585602
vn 0.5876145362854004 -0.63551926612854 0.5008236169815063
vt 0.0 1.0
vt 0.0 1.0
vt 0.0 1.0
vt 0.0 1.0
vt 0.0 1.0
vt 0.0 1.0
vt 0.0 1.0
vt 0.0 1.0

g Honeydew_horns_R_col
s 1
usemtl Honeydew_horns_R_col
f 3/3/3 2/2/2 4/4/4 
f 6/6/6 1/1/1 3/3/3 
f 6/6/6 3/3/3 4/4/4 
f 6/6/6 5/5/5 1/1/1 
f 6/6/6 4/4/4 2/2/2 
f 6/6/6 2/2/2 5/5/5 
f 7/7/7 2/2/2 3/3/3 
f 7/7/7 3/3/3 1/1/1 
f 7/7/7 5/5/5 2/2/2 
f 8/8/8 7/7/7 1/1/1 
f 8/8/8 1/1/1 5/5/5 
f 8/8/8 5/5/5 7/7/7 

