v 0.787086546421051 -1.0945261716842651 3.3578367233276367
v 2.192617416381836 -0.8291868567466736 -0.5102757811546326
v 1.6052294969558716 -0.05529731884598732 1.3176225423812866
v 1.6003061532974243 -0.7655512094497681 0.041387736797332764
v 0.4026065170764923 -2.23205304145813 3.131486654281616
v 1.2035404443740845 -0.10918457061052322 1.2034862041473389
v 1.2970892190933228 -2.355631113052368 3.320615530014038
v 1.497717261314392 -1.847179889678955 0.9580090641975403
v -0.13149552047252655 -1.1142281293869019 3.4653871059417725
v 2.0091679096221924 -1.9155325889587402 1.1413631439208984
v 1.39765465259552 -0.683361828327179 2.1625397205352783
v 0.8307867050170898 -2.1286349296569824 2.1506075859069824
v 0.6901577711105347 -0.5692762732505798 1.9804952144622803
v 0.19421173632144928 -0.8749237060546875 2.8929781913757324
vn 0.4440578818321228 0.553816556930542 0.7043434977531433
vn 0.8846952319145203 0.19963350892066956 -0.4212610423564911
vn 0.7808023691177368 0.5131798386573792 0.3563624322414398
vn -0.8533496856689453 -0.10216537117958069 -0.5112305879592896
vn -0.6454859375953674 -0.7557163834571838 0.11063770204782486
vn -0.5266708731651306 0.800757646560669 -0.28531545400619507
vn 0.7958889007568359 -0.2189444601535797 0.5644681453704834
vn -0.4398247301578522 -0.6975008249282837 -0.5657266974449158
vn -0.9806001782417297 0.19581106305122375 0.009012522175908089
vn 0.9531213045120239 -0.2640893757343292 0.14770469069480896
vn 0.8145434260368347 0.31503215432167053 0.48710742592811584
vn -0.6765732169151306 -0.5917246341705322 -0.4383043050765991
vn -0.8799667954444885 0.21054336428642273 -0.42582857608795166
vn -0.8541755676269531 0.40738633275032043 -0.32314157485961914
vt 0.0 1.0
vt 0.0 1.0
vt 0.0 1.0
vt 0.0 1.0
vt 0.0 1.0
vt 0.0 1.0
vt 0.0 1.0
vt 0.0 1.0
vt 0.0 1.0
vt 0.0 1.0
vt 0.0 1.0
vt 0.0 1.0
vt 0.0 1.0
vt 0.0 1.0

g Honeydew_beard_R_col
s 1
usemtl Honeydew_beard_R_col
f 6/6/6 3/3/3 2/2/2 
f 6/6/6 2/2/2 4/4/4 
f 8/8/8 4/4/4 2/2/2 
f 9/9/9 1/1/1 3/3/3 
f 9/9/9 3/3/3 6/6/6 
f 9/9/9 7/7/7 1/1/1 
f 9/9/9 5/5/5 7/7/7 
f 10/10/10 2/2/2 3/3/3 
f 10/10/10 3/3/3 7/7/7 
f 10/10/10 8/8/8 2/2/2 
f 11/11/11 7/7/7 3/3/3 
f 11/11/11 3/3/3 1/1/1 
f 11/11/11 1/1/1 7/7/7 
f 12/12/12 4/4/4 8/8/8 
f 12/12/12 9/9/9 4/4/4 
f 12/12/12 5/5/5 9/9/9 
f 12/12/12 7/7/7 5/5/5 
f 12/12/12 10/10/10 7/7/7 
f 12/12/12 8/8/8 10/10/10 
f 13/13/13 6/6/6 4/4/4 
f 13/13/13 4/4/4 9/9/9 
f 14/14/14 13/13/13 9/9/9 
f 14/14/14 9/9/9 6/6/6 
f 14/14/14 6/6/6 13/13/13 

