v 0.15474767982959747 0.3580488860607147 1.5724809169769287
v 0.15474767982959747 -0.9169599413871765 -0.3256475627422333
v 1.0303452014923096 -1.032509207725525 0.2353408932685852
v 0.15474753081798553 0.35804903507232666 -0.8236656188964844
v 0.544842004776001 -0.894711434841156 -0.40553557872772217
v 0.9510229229927063 0.35804903507232666 -0.1080763190984726
v 0.15474753081798553 -1.6550118923187256 0.23184315860271454
v 0.5448418259620667 0.35804903507232666 -0.8419740200042725
v 0.544842004776001 -1.7016509771347046 0.16357757151126862
vn -0.43642425537109375 0.29145321249961853 0.8512278199195862
vn -0.40490931272506714 -0.45643946528434753 -0.7922825217247009
vn 0.9760920405387878 -0.16007648408412933 0.14703631401062012
vn -0.9301152229309082 0.32360294461250305 -0.17368605732917786
vn 0.371436208486557 -0.39293360710144043 -0.8412124514579773
vn 0.7923823595046997 0.5964398980140686 0.1280221939086914
vn -0.9854312539100647 -0.14117972552776337 0.09483308345079422
vn 0.7214553952217102 -0.07034721970558167 -0.6888782978057861
vn 0.47008001804351807 -0.7768892645835876 0.4188888967037201
vt 0.0 1.0
vt 0.0 1.0
vt 0.0 1.0
vt 0.0 1.0
vt 0.0 1.0
vt 0.0 1.0
vt 0.0 1.0
vt 0.0 1.0
vt 0.0 1.0

g Honeydew_face_R_col
s 1
usemtl Honeydew_face_R_col
f 5/5/5 2/2/2 4/4/4 
f 6/6/6 1/1/1 3/3/3 
f 6/6/6 4/4/4 1/1/1 
f 7/7/7 1/1/1 4/4/4 
f 7/7/7 4/4/4 2/2/2 
f 8/8/8 5/5/5 4/4/4 
f 8/8/8 4/4/4 6/6/6 
f 8/8/8 6/6/6 3/3/3 
f 8/8/8 3/3/3 5/5/5 
f 9/9/9 3/3/3 1/1/1 
f 9/9/9 1/1/1 7/7/7 
f 9/9/9 5/5/5 3/3/3 
f 9/9/9 7/7/7 2/2/2 
f 9/9/9 2/2/2 5/5/5 

