v 2.9604196548461914 6.167718887329102 1.7595819234848022
v 2.5584261417388916 4.2863993644714355 0.6351902484893799
v 2.7240469455718994 3.990208625793457 1.352781891822815
v 2.972817897796631 4.277843475341797 0.4787404239177704
v 2.434736967086792 4.14542818069458 1.024477243423462
v 3.4323949813842773 4.0974040031433105 0.8186703324317932
v 3.0699551105499268 5.678117275238037 1.8376715183258057
v 3.3347280025482178 5.841866493225098 1.5104848146438599
v 3.159372329711914 4.015462398529053 1.1360914707183838
vn -0.8498249650001526 0.49226677417755127 -0.18833746016025543
vn -0.6997703909873962 0.3976297676563263 -0.5934744477272034
vn -0.4243452250957489 -0.5054619908332825 0.7512916922569275
vn 0.09058292210102081 0.11704614758491516 -0.9889868497848511
vn -0.9768369197845459 -0.12440627068281174 0.17410534620285034
vn 0.9941269755363464 -0.10253991931676865 0.03459867835044861
vn 0.5367611050605774 -0.21463367342948914 0.8159778118133545
vn 0.7975714802742004 0.39070212841033936 -0.4595993757247925
vn 0.5348802804946899 -0.6072521209716797 0.5874930024147034
vt 0.0 1.0
vt 0.0 1.0
vt 0.0 1.0
vt 0.0 1.0
vt 0.0 1.0
vt 0.0 1.0
vt 0.0 1.0
vt 0.0 1.0
vt 0.0 1.0

g Honeydew_horns_R_col
s 1
usemtl Honeydew_horns_R_col
f 2/2/2 1/1/1 4/4/4 
f 5/5/5 2/2/2 4/4/4 
f 5/5/5 4/4/4 3/3/3 
f 5/5/5 1/1/1 2/2/2 
f 5/5/5 3/3/3 1/1/1 
f 7/7/7 1/1/1 3/3/3 
f 8/8/8 6/6/6 4/4/4 
f 8/8/8 4/4/4 1/1/1 
f 8/8/8 7/7/7 6/6/6 
f 8/8/8 1/1/1 7/7/7 
f 9/9/9 7/7/7 3/3/3 
f 9/9/9 6/6/6 7/7/7 
f 9/9/9 3/3/3 4/4/4 
f 9/9/9 4/4/4 6/6/6 

