v 1.9280847311019897 2.379932165145874 1.2923803329467773
v 1.5337247848510742 0.4988287091255188 -0.40193721652030945
v 2.867462396621704 1.7648869752883911 0.07005961984395981
v 1.4460248947143555 1.6602095365524292 -0.7501751780509949
v 0.7997534275054932 2.4542367458343506 0.7920335531234741
v 2.3242197036743164 2.399160146713257 -0.4683891534805298
v 1.31453537940979 0.5171721577644348 0.935242235660553
v 1.112764835357666 2.248553514480591 -0.14219783246517181
v 1.4962157011032104 2.8816893100738525 0.8754046559333801
v 1.7833280563354492 2.7839956283569336 0.32898348569869995
v 2.6231637001037598 1.8002378940582275 0.9449098706245422
v 0.9844127893447876 1.6283963918685913 1.2720977067947388
vn 0.3150714933872223 0.15610535442829132 0.9361416101455688
vn -0.33232855796813965 -0.6937611103057861 -0.6389470100402832
vn 0.9397276043891907 -0.32929471135139465 -0.09207001328468323
vn -0.26823413372039795 0.07800281047821045 -0.9601905941963196
vn -0.9939767718315125 -0.045223962515592575 -0.09982483834028244
vn 0.3970046639442444 0.3174457252025604 -0.8611710667610168
vn 0.012782027944922447 -0.8358051776885986 0.5488772988319397
vn -0.7363415956497192 0.4265648126602173 -0.525208055973053
vn -0.34554344415664673 0.8484048247337341 0.4010099768638611
vn 0.46975600719451904 0.8823711276054382 -0.027392681688070297
vn 0.7926807999610901 -0.0008848278666846454 0.609636127948761
vn -0.40180540084838867 0.054006610065698624 0.9141311049461365
vt 0.0 1.0
vt 0.0 1.0
vt 0.0 1.0
vt 0.0 1.0
vt 0.0 1.0
vt 0.0 1.0
vt 0.0 1.0
vt 0.0 1.0
vt 0.0 1.0
vt 0.0 1.0
vt 0.0 1.0
vt 0.0 1.0

g Honeydew_horns_R_col
s 1
usemtl Honeydew_horns_R_col
f 6/6/6 3/3/3 2/2/2 
f 6/6/6 2/2/2 4/4/4 
f 7/7/7 2/2/2 3/3/3 
f 7/7/7 5/5/5 2/2/2 
f 8/8/8 4/4/4 2/2/2 
f 8/8/8 2/2/2 5/5/5 
f 8/8/8 6/6/6 4/4/4 
f 9/9/9 8/8/8 5/5/5 
f 10/10/10 3/3/3 6/6/6 
f 10/10/10 9/9/9 1/1/1 
f 10/10/10 6/6/6 8/8/8 
f 10/10/10 8/8/8 9/9/9 
f 11/11/11 7/7/7 3/3/3 
f 11/11/11 1/1/1 7/7/7 
f 11/11/11 10/10/10 1/1/1 
f 11/11/11 3/3/3 10/10/10 
f 12/12/12 7/7/7 1/1/1 
f 12/12/12 5/5/5 7/7/7 
f 12/12/12 9/9/9 5/5/5 
f 12/12/12 1/1/1 9/9/9 

