v 1.038329005241394 2.1101465225219727 -0.6797466278076172
v 0.7926685810089111 0.5624197125434875 -2.730109453201294
v 1.3301366567611694 0.4988287091255188 -2.681997060775757
v -0.06291815638542175 2.0893592834472656 -2.709141254425049
v -0.49263960123062134 2.122323513031006 -0.5920672416687012
v 0.9114736318588257 1.0630974769592285 -2.6753909587860107
v -0.06291815638542175 2.8019204139709473 -0.6836046576499939
v 1.5337247848510742 0.4988287091255188 -0.40193721652030945
v 1.4460248947143555 1.6602095365524292 -0.7501751780509949
v 1.081672191619873 0.6166592240333557 -0.7103332281112671
vn 0.6020588874816895 0.7883177995681763 0.1268073320388794
vn -0.6829988956451416 -0.725674569606781 -0.08311942964792252
vn 0.9105004072189331 -0.050403330475091934 -0.4104246497154236
vn -0.04412839561700821 0.6974917054176331 -0.7152328491210938
vn -0.8567787408828735 -0.4634256362915039 0.2262008637189865
vn 0.692226231098175 0.5994227528572083 -0.40188953280448914
vn 0.03809105232357979 0.8348466753959656 0.5491631031036377
vn 0.43306219577789307 -0.33843421936035156 0.835415780544281
vn 0.8460574746131897 0.47363924980163574 -0.24464763700962067
vn -0.6253749132156372 -0.7596794962882996 0.17830687761306763
vt 0.0 1.0
vt 0.0 1.0
vt 0.0 1.0
vt 0.0 1.0
vt 0.0 1.0
vt 0.0 1.0
vt 0.0 1.0
vt 0.0 1.0
vt 0.0 1.0
vt 0.0 1.0

g Honeydew_horns_R_col
s 1
usemtl Honeydew_horns_R_col
f 3/3/3 2/2/2 4/4/4 
f 5/5/5 4/4/4 2/2/2 
f 6/6/6 3/3/3 4/4/4 
f 7/7/7 1/1/1 4/4/4 
f 7/7/7 4/4/4 5/5/5 
f 8/8/8 2/2/2 3/3/3 
f 8/8/8 7/7/7 5/5/5 
f 8/8/8 1/1/1 7/7/7 
f 9/9/9 3/3/3 6/6/6 
f 9/9/9 8/8/8 3/3/3 
f 9/9/9 1/1/1 8/8/8 
f 9/9/9 6/6/6 4/4/4 
f 9/9/9 4/4/4 1/1/1 
f 10/10/10 8/8/8 5/5/5 
f 10/10/10 5/5/5 2/2/2 
f 10/10/10 2/2/2 8/8/8 

