v -1.25235116481781 3.209505796432495 -0.10931158810853958
v -0.17084968090057373 3.4002883434295654 -0.15976499021053314
v -0.5094995498657227 3.7837748527526855 -2.499288558959961
v -1.3676658868789673 3.567080020904541 -2.5302963256835938
v 0.2715037167072296 1.597644329071045 -0.9926919937133789
v -0.5094995498657227 3.7837748527526855 -2.499288558959961
v -0.17084968090057373 3.4002883434295654 -0.15976499021053314
v 0.2782793939113617 1.8374394178390503 -0.5021286010742188
v 0.2782793939113617 1.8374394178390503 -0.5021286010742188
v -0.17084968090057373 3.4002883434295654 -0.15976499021053314
v -1.25235116481781 3.209505796432495 -0.10931158810853958
v -0.9567444324493408 1.8234336376190186 -0.09508828073740005
v -1.2178553342819214 2.0367140769958496 -3.339783191680908
v -0.9618910551071167 0.19772283732891083 -1.8410465717315674
v -0.9567444324493408 1.8234336376190186 -0.09508828073740005
v -1.25235116481781 3.209505796432495 -0.10931158810853958
v -1.3676658868789673 3.567080020904541 -2.5302963256835938
v 0.11316898465156555 0.9143125414848328 -1.6798337697982788
v -0.39292407035827637 2.0105671882629395 -3.2957253456115723
v -0.5094995498657227 3.7837748527526855 -2.499288558959961
v 0.2715037167072296 1.597644329071045 -0.9926919937133789
v 0.0063748168759047985 0.4988372027873993 -2.066056251525879
v -0.39292407035827637 2.0105671882629395 -3.2957253456115723
v 0.11316898465156555 0.9143125414848328 -1.6798337697982788
v -1.2178553342819214 2.0367140769958496 -3.339783191680908
v -0.39292407035827637 2.0105671882629395 -3.2957253456115723
v 0.0063748168759047985 0.4988372027873993 -2.066056251525879
v -0.9618910551071167 0.19772283732891083 -1.8410465717315674
v -0.9618910551071167 0.19772283732891083 -1.8410465717315674
v 0.0063748168759047985 0.4988372027873993 -2.066056251525879
v 0.11316898465156555 0.9143125414848328 -1.6798337697982788
v -0.9567444324493408 1.8234336376190186 -0.09508828073740005
v 0.11316898465156555 0.9143125414848328 -1.6798337697982788
v 0.2715037167072296 1.597644329071045 -0.9926919937133789
v -0.9567444324493408 1.8234336376190186 -0.09508828073740005
v 0.2782793939113617 1.8374394178390503 -0.5021286010742188
vn -0.07622575759887695 0.9799847602844238 0.18390102684497833
vn -0.035444945096969604 0.9703723788261414 0.23900052905082703
vn -0.035444945096969604 0.9703723788261414 0.23900052905082703
vn -0.07622575759887695 0.9799847602844238 0.18390102684497833
vn 0.9524356126785278 0.10933578014373779 -0.2844504714012146
vn 0.9524356126785278 0.10933578014373779 -0.2844504714012146
vn 0.9524356126785278 0.10933578014373779 -0.2844504714012146
vn 0.9524356126785278 0.10933578014373779 -0.2844504714012146
vn 0.14607945084571838 0.06857628375291824 0.9868930578231812
vn 0.14607945084571838 0.06857628375291824 0.9868930578231812
vn -0.0002858539519365877 0.0034287141170352697 0.999994158744812
vn -0.0002858539519365877 0.0034287141170352697 0.999994158744812
vn -0.9801939725875854 -0.09761669486761093 0.17230994999408722
vn -0.9750413298606873 -0.11600849032402039 0.18930520117282867
vn -0.9817481637001038 -0.18746502697467804 0.03205491602420807
vn -0.9817481637001038 -0.18746502697467804 0.03205491602420807
vn -0.9817481637001038 -0.18746502697467804 0.03205491602420807
vn 0.9370797872543335 0.1685313731431961 -0.3057428002357483
vn 0.9370797872543335 0.1685313731431961 -0.3057428002357483
vn 0.9370797872543335 0.1685313731431961 -0.3057428002357483
vn 0.9370797872543335 0.1685313731431961 -0.3057428002357483
vn 0.9461283087730408 0.16958801448345184 -0.2758280336856842
vn 0.9461283087730408 0.16958801448345184 -0.2758280336856842
vn 0.9461283087730408 0.16958801448345184 -0.2758280336856842
vn 0.013816445134580135 -0.5512157082557678 -0.834248423576355
vn 0.020424507558345795 -0.5510026216506958 -0.8342535495758057
vn 0.020424507558345795 -0.5510026216506958 -0.8342535495758057
vn 0.013816445134580135 -0.5512157082557678 -0.834248423576355
vn 0.3278736174106598 -0.7201206684112549 0.6114941835403442
vn 0.32787367701530457 -0.7201206684112549 0.6114941835403442
vn 0.32787367701530457 -0.7201206088066101 0.6114941239356995
vn 0.3278736472129822 -0.7201206088066101 0.6114941239356995
vn 0.32787367701530457 -0.7201206088066101 0.6114941239356995
vn 0.32787367701530457 -0.7201206684112549 0.6114941835403442
vn 0.3278736472129822 -0.7201206088066101 0.6114941239356995
vn 0.3278736472129822 -0.7201206088066101 0.6114941835403442
vt 1.0 0.0
vt 1.0 1.0
vt 0.0 1.0
vt 0.0 0.0
vt 0.0 1.0
vt 0.0 1.0
vt 1.0 1.0
vt 1.0 1.0
vt 1.0 1.0
vt 1.0 1.0
vt 1.0 0.0
vt 1.0 0.0
vt 0.0 0.0
vt 0.0 0.0
vt 1.0 0.0
vt 1.0 0.0
vt 0.0 0.0
vt 0.0 1.0
vt 0.0 1.0
vt 1.0 1.0
vt 1.0 1.0
vt 0.0 1.0
vt 1.0 1.0
vt 1.0 1.0
vt 1.0 0.0
vt 1.0 1.0
vt 0.0 1.0
vt 0.0 0.0
vt 0.0 0.0
vt 0.0 1.0
vt 1.0 1.0
vt 1.0 0.0
vt 1.0 1.0
vt 1.0 1.0
vt 1.0 0.0
vt 1.0 1.0

g Left_Horn_Col_2
s 1
usemtl Left_Horn_Col_2
f 1/1/1 2/2/2 3/3/3 
f 1/1/1 3/3/3 4/4/4 
f 5/5/5 6/6/6 7/7/7 
f 5/5/5 7/7/7 8/8/8 
f 9/9/9 10/10/10 11/11/11 
f 9/9/9 11/11/11 12/12/12 
f 13/13/13 14/14/14 15/15/15 
f 15/15/15 16/16/16 13/13/13 
f 16/16/16 17/17/17 13/13/13 
f 18/18/18 19/19/19 20/20/20 
f 18/18/18 20/20/20 21/21/21 
f 22/22/22 23/23/23 24/24/24 
f 25/25/25 26/26/26 27/27/27 
f 25/25/25 27/27/27 28/28/28 
f 29/29/29 30/30/30 31/31/31 
f 31/31/31 32/32/32 29/29/29 
f 33/33/33 34/34/34 35/35/35 
f 34/34/34 36/36/36 35/35/35 

