v 0.8377227783203125 1.264262318611145 1.498826265335083
v 0.8915929794311523 2.062570095062256 1.3720229864120483
v 0.867824375629425 0.38658416271209717 3.3910655975341797
v 0.8377227783203125 1.264262318611145 1.498826265335083
v 0.867824375629425 0.38658416271209717 3.3910655975341797
v 0.835009753704071 0.4539163112640381 1.9297155141830444
v 0.867824375629425 0.38658416271209717 3.3910655975341797
v 0.8915929794311523 2.062570095062256 1.3720229864120483
v -0.7440401911735535 2.065992593765259 1.3696492910385132
v 0.8377227783203125 1.264262318611145 1.498826265335083
v 0.35064223408699036 0.4777056872844696 1.553015112876892
v -0.5057104229927063 1.6288399696350098 0.12550948560237885
v 0.8377227783203125 1.264262318611145 1.498826265335083
v 0.835009753704071 0.4539163112640381 1.9297155141830444
v 0.35064223408699036 0.4777056872844696 1.553015112876892
v -0.9896496534347534 1.5569628477096558 0.08202270418405533
v -0.7200341820716858 0.8094174265861511 2.0945284366607666
v -0.7440401911735535 2.065992593765259 1.3696492910385132
v -0.9896496534347534 1.5569628477096558 0.08202270418405533
v -0.5057104229927063 1.6288399696350098 0.12550948560237885
v 0.35064223408699036 0.4777056872844696 1.553015112876892
v -0.7200341820716858 0.8094174265861511 2.0945284366607666
v -0.7200341820716858 0.8094174265861511 2.0945284366607666
v 0.35064223408699036 0.4777056872844696 1.553015112876892
v 0.835009753704071 0.4539163112640381 1.9297155141830444
v -0.7200341820716858 0.8094174265861511 2.0945284366607666
v 0.835009753704071 0.4539163112640381 1.9297155141830444
v 0.867824375629425 0.38658416271209717 3.3910655975341797
v 0.8915929794311523 2.062570095062256 1.3720229864120483
v 0.8377227783203125 1.264262318611145 1.498826265335083
v -0.5057104229927063 1.6288399696350098 0.12550948560237885
v 0.8915929794311523 2.062570095062256 1.3720229864120483
v -0.5057104229927063 1.6288399696350098 0.12550948560237885
v -0.9896496534347534 1.5569628477096558 0.08202270418405533
v 0.8915929794311523 2.062570095062256 1.3720229864120483
v -0.9896496534347534 1.5569628477096558 0.08202270418405533
v -0.7440401911735535 2.065992593765259 1.3696492910385132
v 0.867824375629425 0.38658416271209717 3.3910655975341797
v -0.7440401911735535 2.065992593765259 1.3696492910385132
v -0.7200341820716858 0.8094174265861511 2.0945284366607666
vn 0.9980928301811218 -0.04839358106255531 -0.03832397237420082
vn 0.9980928301811218 -0.04839358851313591 -0.03832397237420082
vn 0.9980928301811218 -0.04839358106255531 -0.03832397237420082
vn 0.9980928301811218 -0.04839358106255531 -0.03832397237420082
vn 0.9980928301811218 -0.04839358106255531 -0.03832397237420082
vn 0.9980928301811218 -0.04839358478784561 -0.03832397237420082
vn 0.000683498743455857 0.7694433331489563 0.6387147903442383
vn 0.000683498743455857 0.7694432735443115 0.6387148499488831
vn 0.000683498743455857 0.7694432735443115 0.6387148499488831
vn 0.5929796099662781 -0.414756178855896 -0.6901829838752747
vn 0.5929796099662781 -0.4147561192512512 -0.6901829838752747
vn 0.5929796099662781 -0.414756178855896 -0.6901829838752747
vn 0.552476167678833 -0.3927742540836334 -0.7351860404014587
vn 0.552476167678833 -0.39277416467666626 -0.7351860404014587
vn 0.552476167678833 -0.39277419447898865 -0.7351860404014587
vn -0.984585702419281 0.07290340214967728 0.1589849442243576
vn -0.984585702419281 0.07290340214967728 0.1589849293231964
vn -0.984585702419281 0.07290339469909668 0.1589849293231964
vn -0.27309489250183105 -0.8772423267364502 -0.39479732513427734
vn -0.27309489250183105 -0.8772423267364502 -0.39479732513427734
vn -0.27309489250183105 -0.8772423267364502 -0.39479735493659973
vn -0.27309495210647583 -0.8772424459457397 -0.39479732513427734
vn -0.2214333564043045 -0.9750755429267883 0.013966461643576622
vn -0.2214333415031433 -0.9750755429267883 0.013966459780931473
vn -0.2214333415031433 -0.9750755429267883 0.013966457918286324
vn -0.2214333564043045 -0.9750755429267883 0.013966461643576622
vn -0.2214333415031433 -0.9750755429267883 0.013966457918286324
vn -0.2214333415031433 -0.9750755429267883 0.013966458849608898
vn 0.6842648983001709 -0.15921175479888916 -0.7116411924362183
vn 0.6842648386955261 -0.15921176970005035 -0.711641252040863
vn 0.6842649579048157 -0.15921178460121155 -0.7116411924362183
vn -0.023160941898822784 0.9418058395385742 -0.3353586792945862
vn -0.023160938173532486 0.9418058395385742 -0.3353586792945862
vn -0.023160938173532486 0.9418058395385742 -0.3353586494922638
vn -0.023160941898822784 0.9418058395385742 -0.3353586792945862
vn -0.023160938173532486 0.9418058395385742 -0.3353586494922638
vn -0.023160934448242188 0.9418057203292847 -0.3353586494922638
vn -0.5019313097000122 0.4249684512615204 0.7533039450645447
vn -0.5019313097000122 0.424968421459198 0.7533039450645447
vn -0.5019313097000122 0.4249684512615204 0.7533039450645447
vt 0.3125 0.75
vt 0.3125 0.75
vt 0.375 0.875
vt 0.3125 0.75
vt 0.375 0.875
vt 0.3125 1.0
vt 0.375 0.875
vt 0.3125 0.75
vt 0.328125 0.75
vt 0.3125 0.75
vt 0.3125 1.0
vt 0.25 0.75
vt 0.3125 0.75
vt 0.3125 1.0
vt 0.3125 1.0
vt 0.625 0.625
vt 0.541015625 0.8701171875
vt 0.5 0.7109375
vt 0.625 0.625
vt 0.25 0.75
vt 0.3125 1.0
vt 0.541015625 0.8701171875
vt 0.541015625 0.8701171875
vt 0.3125 1.0
vt 0.3125 1.0
vt 0.541015625 0.8701171875
vt 0.3125 1.0
vt 0.375 0.875
vt 0.3125 0.75
vt 0.3125 0.75
vt 0.25 0.75
vt 0.3125 0.75
vt 0.25 0.75
vt 0.625 0.625
vt 0.3125 0.75
vt 0.625 0.625
vt 0.5 0.7109375
vt 0.375 0.875
vt 0.328125 0.75
vt 0.541015625 0.8701171875

g Left_Eye_Col_4
s 1
usemtl Left_Eye_Col_4
f 1/1/1 2/2/2 3/3/3 
f 4/4/4 5/5/5 6/6/6 
f 7/7/7 8/8/8 9/9/9 
f 10/10/10 11/11/11 12/12/12 
f 13/13/13 14/14/14 15/15/15 
f 16/16/16 17/17/17 18/18/18 
f 19/19/19 20/20/20 21/21/21 
f 19/19/19 21/21/21 22/22/22 
f 23/23/23 24/24/24 25/25/25 
f 26/26/26 27/27/27 28/28/28 
f 29/29/29 30/30/30 31/31/31 
f 32/32/32 33/33/33 34/34/34 
f 35/35/35 36/36/36 37/37/37 
f 38/38/38 39/39/39 40/40/40 

