v -0.48218920826911926 0.45072391629219055 2.7183287143707275
v -1.426694631576538 -0.0274630319327116 2.044780969619751
v -0.4727467894554138 -0.2259104698896408 3.7969963550567627
v 0.9662390947341919 -0.22361432015895844 3.796290874481201
v 0.9586516618728638 -1.4102953672409058 4.041271686553955
v 0.953779935836792 -1.3990892171859741 2.7392783164978027
v 0.9662390947341919 -0.22361432015895844 3.796290874481201
v 0.953779935836792 -1.3990892171859741 2.7392783164978027
v 0.952454686164856 0.4653927981853485 2.721473217010498
v 0.9596213102340698 0.469948410987854 1.4955902099609375
v 0.9609200954437256 -1.4059914350509644 1.5100653171539307
v -0.4727467894554138 -0.2259104698896408 3.7969963550567627
v 0.9662390947341919 -0.22361432015895844 3.796290874481201
v 0.952454686164856 0.4653927981853485 2.721473217010498
v -0.4727467894554138 -0.2259104698896408 3.7969963550567627
v 0.952454686164856 0.4653927981853485 2.721473217010498
v -0.48218920826911926 0.45072391629219055 2.7183287143707275
v 0.9596213102340698 0.469948410987854 1.4955902099609375
v 0.9609200954437256 -1.4059914350509644 1.5100653171539307
v 0.4950402081012726 -1.4148924350738525 1.527923345565796
v 0.49407973885536194 0.4749893546104431 1.5115004777908325
v -1.426694631576538 -0.0274630319327116 2.044780969619751
v -1.436414122581482 -1.399743676185608 2.035871982574463
v -0.47791343927383423 -1.3990211486816406 4.042686462402344
v -1.426694631576538 -0.0274630319327116 2.044780969619751
v -0.47791343927383423 -1.3990211486816406 4.042686462402344
v -0.4727467894554138 -0.2259104698896408 3.7969963550567627
v -0.47791343927383423 -1.3990211486816406 4.042686462402344
v 0.9586516618728638 -1.4102953672409058 4.041271686553955
v 0.9662390947341919 -0.22361432015895844 3.796290874481201
v -0.4727467894554138 -0.2259104698896408 3.7969963550567627
v -1.431143045425415 -1.4181514978408813 1.0829991102218628
v -1.436414122581482 -1.399743676185608 2.035871982574463
v -1.426694631576538 -0.0274630319327116 2.044780969619751
v 0.952454686164856 0.4653927981853485 2.721473217010498
v 0.9596213102340698 0.469948410987854 1.4955902099609375
v 0.49407973885536194 0.4749893546104431 1.5115004777908325
v -0.48218920826911926 0.45072391629219055 2.7183287143707275
v -0.48218920826911926 0.45072391629219055 2.7183287143707275
v 0.49407973885536194 0.4749893546104431 1.5115004777908325
v -0.48808467388153076 0.4584071636199951 1.4973901510238647
v -0.4976653456687927 -1.3839704990386963 2.7396678924560547
v -0.49441996216773987 -1.4034723043441772 1.0973334312438965
v 0.4950402081012726 -1.4148924350738525 1.527923345565796
v 0.953779935836792 -1.3990892171859741 2.7392783164978027
v 0.9609200954437256 -1.4059914350509644 1.5100653171539307
v -0.47791343927383423 -1.3990211486816406 4.042686462402344
v 0.9586516618728638 -1.4102953672409058 4.041271686553955
v -0.48218920826911926 0.45072391629219055 2.7183287143707275
v -0.48808467388153076 0.4584071636199951 1.4973901510238647
v -1.426694631576538 -0.0274630319327116 2.044780969619751
v 0.49407973885536194 0.4749893546104431 1.5115004777908325
v 0.4950402081012726 -1.4148924350738525 1.527923345565796
v -0.49441996216773987 -1.4034723043441772 1.0973334312438965
v 0.49407973885536194 0.4749893546104431 1.5115004777908325
v -0.49441996216773987 -1.4034723043441772 1.0973334312438965
v -0.48808467388153076 0.4584071636199951 1.4973901510238647
v -1.426694631576538 -0.0274630319327116 2.044780969619751
v -0.48808467388153076 0.4584071636199951 1.4973901510238647
v -0.49441996216773987 -1.4034723043441772 1.0973334312438965
v -1.426694631576538 -0.0274630319327116 2.044780969619751
v -0.49441996216773987 -1.4034723043441772 1.0973334312438965
v -1.431143045425415 -1.4181514978408813 1.0829991102218628
v -1.431143045425415 -1.4181514978408813 1.0829991102218628
v -0.49441996216773987 -1.4034723043441772 1.0973334312438965
v -0.4976653456687927 -1.3839704990386963 2.7396678924560547
v -0.47791343927383423 -1.3990211486816406 4.042686462402344
v -1.436414122581482 -1.399743676185608 2.035871982574463
v -1.431143045425415 -1.4181514978408813 1.0829991102218628
v -0.4976653456687927 -1.3839704990386963 2.7396678924560547
v -1.436414122581482 -1.399743676185608 2.035871982574463
vn -0.6293420195579529 0.6558341979980469 0.41690537333488464
vn -0.6293420791625977 0.6558341383934021 0.4169054627418518
vn -0.6293420791625977 0.6558341383934021 0.4169054627418518
vn 0.9999585151672363 -0.002799323294311762 -0.008673567324876785
vn 0.9999585151672363 -0.002799323061481118 -0.00867356639355421
vn 0.9999585151672363 -0.0027993235271424055 -0.00867356639355421
vn 0.9999585151672363 -0.002799323294311762 -0.008673567324876785
vn 0.9999585151672363 -0.0027993235271424055 -0.00867356639355421
vn 0.9999585151672363 -0.0027993228286504745 -0.008673567324876785
vn 0.9999827146530151 0.0007517441990785301 0.005826565902680159
vn 0.9999827146530151 0.000751744257286191 0.005826565902680159
vn -0.00544009217992425 0.8444665670394897 0.5355806350708008
vn -0.005440092645585537 0.8444665670394897 0.5355806350708008
vn -0.00544009217992425 0.8444665670394897 0.5355806350708008
vn -0.00544009217992425 0.8444665670394897 0.5355806350708008
vn -0.00544009217992425 0.8444665670394897 0.5355806350708008
vn -0.00544009217992425 0.8444665670394897 0.5355806350708008
vn -0.0361953005194664 -0.008220904506742954 -0.9993108510971069
vn -0.0361953005194664 -0.008220905438065529 -0.9993108510971069
vn -0.0361953005194664 -0.008220904506742954 -0.9993108510971069
vn -0.0361952967941761 -0.008220904506742954 -0.9993108510971069
vn -0.8892626762390137 0.04751911014318466 0.4549217224121094
vn -0.8892626762390137 0.04751912131905556 0.45492178201675415
vn -0.8892626762390137 0.04751911386847496 0.4549217224121094
vn -0.8892626762390137 0.04751911014318466 0.4549217224121094
vn -0.8892626762390137 0.04751911386847496 0.4549217224121094
vn -0.8892626762390137 0.04751911386847496 0.4549217224121094
vn 0.001357372966594994 0.20356854796409607 0.9790598154067993
vn 0.0013573731994256377 0.20356853306293488 0.9790598154067993
vn 0.001357373083010316 0.20356854796409607 0.9790598154067993
vn 0.0013573731994256377 0.20356854796409607 0.9790598154067993
vn -0.9999586343765259 0.007119540125131607 -0.005669154226779938
vn -0.9999586343765259 0.007119540125131607 -0.005669154226779938
vn -0.9999586343765259 0.00711953965947032 -0.005669154226779938
vn -0.009097558446228504 0.9999213218688965 0.00864420272409916
vn -0.009097559377551079 0.9999213218688965 0.008644201792776585
vn -0.009097558446228504 0.9999213218688965 0.008644201792776585
vn -0.00909755751490593 0.9999213218688965 0.008644201792776585
vn -0.00909755751490593 0.9999213218688965 0.008644201792776585
vn -0.009097558446228504 0.9999213218688965 0.008644201792776585
vn -0.009097558446228504 0.9999213218688965 0.008644201792776585
vn -0.008911398239433765 -0.9999583959579468 0.001967021496966481
vn -0.008690719492733479 -0.9998745918273926 0.01324247196316719
vn -0.008690719492733479 -0.9998745918273926 0.01324247196316719
vn -0.008912130258977413 -0.9999583959579468 0.0019295321544632316
vn -0.008690718561410904 -0.9998745918273926 0.013242471031844616
vn -0.009144212119281292 -0.9999083280563354 -0.009992016479372978
vn -0.009144212119281292 -0.9999083280563354 -0.009992015548050404
vn -0.4561017155647278 0.8898934125900269 0.007802342996001244
vn -0.4561017155647278 0.8898934125900269 0.007802342996001244
vn -0.45610177516937256 0.8898934125900269 0.007802343927323818
vn 0.21869651973247528 0.09895137697458267 -0.9707627892494202
vn 0.21869654953479767 0.09895138442516327 -0.9707627892494202
vn 0.21869654953479767 0.09895138442516327 -0.9707627892494202
vn 0.21869651973247528 0.09895137697458267 -0.9707627892494202
vn 0.21869654953479767 0.09895138442516327 -0.9707627892494202
vn 0.21869653463363647 0.09895138442516327 -0.9707627892494202
vn -0.3432292342185974 0.36371636390686035 -0.8659700155258179
vn -0.34322917461395264 0.36371639370918274 -0.8659700751304626
vn -0.34322917461395264 0.36371639370918274 -0.8659700155258179
vn -0.3432292342185974 0.36371636390686035 -0.8659700155258179
vn -0.34322917461395264 0.36371639370918274 -0.8659700155258179
vn -0.34322917461395264 0.3637164235115051 -0.8659700155258179
vn 0.010628771036863327 -0.9998363256454468 0.014640126377344131
vn 0.010628770105540752 -0.9998363256454468 0.014640125446021557
vn 0.010628770105540752 -0.9998363256454468 0.014640126377344131
vn 0.025744326412677765 -0.9995973706245422 -0.011936175636947155
vn 0.025744326412677765 -0.9995973706245422 -0.011936175636947155
vn 0.010628771036863327 -0.9998363256454468 0.014640126377344131
vn 0.010628770105540752 -0.9998363256454468 0.014640126377344131
vn 0.010628770105540752 -0.9998363256454468 0.014640125446021557
vt 0.375 0.71875
vt 0.640625 0.515625
vt 0.5 1.0
vt 0.375 1.0
vt 0.375 1.0
vt 0.34375 1.0
vt 0.375 1.0
vt 0.34375 1.0
vt 0.34375 0.75
vt 0.3125 0.75
vt 0.3125 1.0
vt 0.5 1.0
vt 0.375 1.0
vt 0.34375 0.75
vt 0.5 1.0
vt 0.34375 0.75
vt 0.34375 0.75
vt 0.3125 0.75
vt 0.3125 1.0
vt 0.3125 1.0
vt 0.3125 0.75
vt 0.640625 0.515625
vt 0.625 0.03125
vt 0.5 0.0
vt 0.640625 0.515625
vt 0.5 0.0
vt 0.5 0.0
vt 0.375 1.0
vt 0.375 1.0
vt 0.375 1.0
vt 0.5 1.0
vt 0.625 0.0625
vt 0.625 0.03125
vt 0.640625 0.515625
vt 0.34375 0.75
vt 0.3125 0.75
vt 0.3125 0.75
vt 0.34375 0.75
vt 0.34375 0.75
vt 0.3125 0.75
vt 0.34375 0.71875
vt 0.34375 1.0
vt 0.3125 1.0
vt 0.3125 1.0
vt 0.34375 1.0
vt 0.3125 1.0
vt 0.375 1.0
vt 0.375 1.0
vt 0.375 0.71875
vt 0.34375 0.71875
vt 0.640625 0.515625
vt 0.3125 0.75
vt 0.3125 1.0
vt 0.3125 1.0
vt 0.3125 0.75
vt 0.3125 1.0
vt 0.34375 0.71875
vt 0.640625 0.515625
vt 0.34375 0.71875
vt 0.3125 1.0
vt 0.640625 0.515625
vt 0.3125 1.0
vt 0.625 0.0625
vt 0.625 0.0625
vt 0.3125 1.0
vt 0.34375 1.0
vt 0.375 1.0
vt 0.625 0.03125
vt 0.625 0.0625
vt 0.34375 1.0
vt 0.625 0.03125

g Left_Jaw_Col_2
s 1
usemtl Left_Jaw_Col_2
f 1/1/1 2/2/2 3/3/3 
f 4/4/4 5/5/5 6/6/6 
f 7/7/7 8/8/8 9/9/9 
f 8/8/8 10/10/10 9/9/9 
f 8/8/8 11/11/11 10/10/10 
f 12/12/12 13/13/13 14/14/14 
f 15/15/15 16/16/16 17/17/17 
f 18/18/18 19/19/19 20/20/20 
f 18/18/18 20/20/20 21/21/21 
f 22/22/22 23/23/23 24/24/24 
f 25/25/25 26/26/26 27/27/27 
f 28/28/28 29/29/29 30/30/30 
f 28/28/28 30/30/30 31/31/31 
f 32/32/32 33/33/33 34/34/34 
f 35/35/35 36/36/36 37/37/37 
f 37/37/37 38/38/38 35/35/35 
f 39/39/39 40/40/40 41/41/41 
f 42/42/42 43/43/43 44/44/44 
f 44/44/44 45/45/45 42/42/42 
f 45/45/45 44/44/44 46/46/46 
f 45/45/45 47/47/47 42/42/42 
f 45/45/45 48/48/48 47/47/47 
f 49/49/49 50/50/50 51/51/51 
f 52/52/52 53/53/53 54/54/54 
f 55/55/55 56/56/56 57/57/57 
f 58/58/58 59/59/59 60/60/60 
f 61/61/61 62/62/62 63/63/63 
f 64/64/64 65/65/65 66/66/66 
f 66/66/66 67/67/67 68/68/68 
f 69/69/69 70/70/70 71/71/71 

