v -0.5780850052833557 -1.332876205444336 1.5629806518554688
v -0.09495361149311066 -1.329450011253357 2.0224947929382324
v -0.47645050287246704 -1.3379027843475342 2.1882107257843018
v -0.5986337065696716 -0.7049296498298645 0.7760542035102844
v -0.5780850052833557 -1.332876205444336 1.5629806518554688
v -0.47645050287246704 -1.3379027843475342 2.1882107257843018
v -0.5986337065696716 -0.7049296498298645 0.7760542035102844
v -0.47645050287246704 -1.3379027843475342 2.1882107257843018
v -1.2729527950286865 -0.7357505559921265 0.7158222794532776
v -0.09495361149311066 -0.9054615497589111 1.929689645767212
v -0.09495361149311066 -1.329450011253357 2.0224947929382324
v -0.5780850052833557 -1.332876205444336 1.5629806518554688
v -0.5986337065696716 -0.7049296498298645 0.7760542035102844
v -1.2729527950286865 -0.7357505559921265 0.7158222794532776
v -0.47645050287246704 -1.3379027843475342 2.1882107257843018
v -0.7200341820716858 0.8094174265861511 2.0945284366607666
v -0.7200341820716858 0.8094174265861511 2.0945284366607666
v -0.09495361149311066 -0.9054615497589111 1.929689645767212
v -0.5986337065696716 -0.7049296498298645 0.7760542035102844
v -0.09495361149311066 -0.9054615497589111 1.929689645767212
v -0.7200341820716858 0.8094174265861511 2.0945284366607666
v -0.47645050287246704 -1.3379027843475342 2.1882107257843018
v -0.09495361149311066 -0.9054615497589111 1.929689645767212
v -0.47645050287246704 -1.3379027843475342 2.1882107257843018
v -0.09495361149311066 -1.329450011253357 2.0224947929382324
v -0.7200341820716858 0.8094174265861511 2.0945284366607666
v -0.5986337065696716 -0.7049296498298645 0.7760542035102844
v -1.2729527950286865 -0.7357505559921265 0.7158222794532776
vn 0.017429884523153305 -0.9997890591621399 -0.010871345177292824
vn 0.017429884523153305 -0.9997890591621399 -0.010871345177292824
vn 0.017429882660508156 -0.9997890591621399 -0.01087134424597025
vn -0.3071141242980957 -0.8780604004859924 -0.36700257658958435
vn -0.3071141541004181 -0.8780604004859924 -0.36700254678726196
vn -0.3071141242980957 -0.8780604004859924 -0.36700254678726196
vn -0.3071141242980957 -0.8780604004859924 -0.36700257658958435
vn -0.3071141242980957 -0.8780604004859924 -0.36700254678726196
vn -0.3071140944957733 -0.8780604004859924 -0.36700257658958435
vn 0.7535657286643982 -0.4129970669746399 -0.5114411115646362
vn 0.7535657286643982 -0.4129970669746399 -0.511441171169281
vn 0.7535656690597534 -0.4129970371723175 -0.511441171169281
vn 0.7535656690597534 -0.4129970371723175 -0.511441171169281
vn -0.8901887536048889 -0.08142354339361191 0.44825688004493713
vn -0.8901887536048889 -0.0814235508441925 0.4482569396495819
vn -0.8901887536048889 -0.0814235508441925 0.44825688004493713
vn 0.8788846731185913 0.3513709008693695 -0.3226458430290222
vn 0.8788846731185913 0.3513709306716919 -0.32264581322669983
vn 0.8788846731185913 0.3513709008693695 -0.32264578342437744
vn 0.47080346941947937 0.1081031784415245 0.8755899667739868
vn 0.47080346941947937 0.10810317099094391 0.8755899667739868
vn 0.47080346941947937 0.10810317099094391 0.8755899667739868
vn 0.47080346941947937 0.1081031784415245 0.8755899667739868
vn 0.47080346941947937 0.10810317099094391 0.8755899667739868
vn 0.47080346941947937 0.1081031933426857 0.8755899667739868
vn 0.03711917996406555 0.6578850150108337 -0.7522030472755432
vn 0.03711917996406555 0.6578851342201233 -0.7522030472755432
vn 0.03711917996406555 0.6578851342201233 -0.7522030472755432
vt 0.375 0.0625
vt 0.375 0.03125
vt 0.5625 0.0234375
vt 0.375 0.0625
vt 0.375 0.0625
vt 0.5625 0.0234375
vt 0.375 0.0625
vt 0.5625 0.0234375
vt 0.625 0.0625
vt 0.375 0.03125
vt 0.375 0.03125
vt 0.375 0.0625
vt 0.375 0.0625
vt 0.625 0.0625
vt 0.5625 0.0234375
vt 0.5625 0.015625
vt 0.5625 0.015625
vt 0.375 0.03125
vt 0.375 0.0625
vt 0.375 0.03125
vt 0.5625 0.015625
vt 0.5625 0.0234375
vt 0.375 0.03125
vt 0.5625 0.0234375
vt 0.375 0.03125
vt 0.5625 0.015625
vt 0.375 0.0625
vt 0.625 0.0625

g Left_Eye_Col_2
s 1
usemtl Left_Eye_Col_2
f 1/1/1 2/2/2 3/3/3 
f 4/4/4 5/5/5 6/6/6 
f 7/7/7 8/8/8 9/9/9 
f 10/10/10 11/11/11 12/12/12 
f 10/10/10 12/12/12 13/13/13 
f 14/14/14 15/15/15 16/16/16 
f 17/17/17 18/18/18 19/19/19 
f 20/20/20 21/21/21 22/22/22 
f 23/23/23 24/24/24 25/25/25 
f 26/26/26 27/27/27 28/28/28 

