v -1.0822027921676636 3.5379817485809326 -6.398502826690674
v -1.5610352754592896 3.532982349395752 -6.398156642913818
v -1.5107742547988892 4.395524501800537 -6.417260646820068
v -1.0774493217468262 4.426919937133789 -6.422903060913086
v -0.5094995498657227 3.7837748527526855 -2.499288558959961
v -1.0774493217468262 4.426919937133789 -6.422903060913086
v -1.5107742547988892 4.395524501800537 -6.417260646820068
v -1.3676658868789673 3.567080020904541 -2.5302963256835938
v -1.3676658868789673 3.567080020904541 -2.5302963256835938
v -1.5107742547988892 4.395524501800537 -6.417260646820068
v -1.5610352754592896 3.532982349395752 -6.398156642913818
v -1.2178553342819214 2.0367140769958496 -3.339783191680908
v -1.0822027921676636 3.5379817485809326 -6.398502826690674
v -0.39292407035827637 2.0105671882629395 -3.2957253456115723
v -1.2178553342819214 2.0367140769958496 -3.339783191680908
v -1.5610352754592896 3.532982349395752 -6.398156642913818
v -1.0822027921676636 3.5379817485809326 -6.398502826690674
v -1.0774493217468262 4.426919937133789 -6.422903060913086
v -0.5094995498657227 3.7837748527526855 -2.499288558959961
v -0.39292407035827637 2.0105671882629395 -3.2957253456115723
v -0.5094995498657227 3.7837748527526855 -2.499288558959961
v -1.3676658868789673 3.567080020904541 -2.5302963256835938
v -1.2178553342819214 2.0367140769958496 -3.339783191680908
v -0.39292407035827637 2.0105671882629395 -3.2957253456115723
vn 6.569675315404311e-05 -0.0038347283843904734 -0.9999927282333374
vn 6.569675315404311e-05 -0.0038347283843904734 -0.9999927282333374
vn 6.569675315404311e-05 -0.0038347283843904734 -0.9999927282333374
vn 6.569675315404311e-05 -0.0038347283843904734 -0.9999927282333374
vn -0.2405022531747818 0.9508711099624634 0.1949431151151657
vn -0.2405022531747818 0.9508711099624634 0.1949431151151657
vn -0.1691630631685257 0.9645860195159912 0.20238037407398224
vn -0.1691630631685257 0.9645860195159912 0.20238037407398224
vn -0.9988719820976257 0.018114756792783737 0.043891746550798416
vn -0.9988719820976257 0.018114756792783737 0.043891746550798416
vn -0.9988719820976257 0.018114756792783737 0.043891746550798416
vn -0.9988719820976257 0.018114756792783737 0.043891746550798416
vn -0.0026286623906344175 -0.8998848795890808 -0.43611958622932434
vn -0.005303436890244484 -0.9002367854118347 -0.43536821007728577
vn -0.0026286623906344175 -0.8998848795890808 -0.43611958622932434
vn -0.0026286623906344175 -0.8998848795890808 -0.43611958622932434
vn 0.9839099645614624 0.0873524397611618 -0.1558547019958496
vn 0.9839099645614624 0.0873524397611618 -0.1558547019958496
vn 0.9839099645614624 0.0873524397611618 -0.1558547019958496
vn 0.9839099645614624 0.0873524397611618 -0.1558547019958496
vn 0.009302600286900997 -0.4365713596343994 0.8996214866638184
vn 0.009302600286900997 -0.4365713596343994 0.8996214866638184
vn 0.009302600286900997 -0.4365713596343994 0.8996214866638184
vn 0.009302599355578423 -0.4365713596343994 0.8996214866638184
vt 0.0 1.0
vt 0.0 0.0
vt 1.0 0.0
vt 1.0 1.0
vt 1.0 1.0
vt 1.0 1.0
vt 1.0 0.0
vt 1.0 0.0
vt 1.0 0.0
vt 1.0 0.0
vt 0.0 0.0
vt 0.0 0.0
vt 0.0 1.0
vt 0.0 1.0
vt 0.0 0.0
vt 0.0 0.0
vt 0.0 1.0
vt 1.0 1.0
vt 1.0 1.0
vt 0.0 1.0
vt 1.0 1.0
vt 1.0 0.0
vt 0.0 0.0
vt 0.0 1.0

g Left_Horn_Col_3
s 1
usemtl Left_Horn_Col_3
f 1/1/1 2/2/2 3/3/3 
f 1/1/1 3/3/3 4/4/4 
f 5/5/5 6/6/6 7/7/7 
f 5/5/5 7/7/7 8/8/8 
f 9/9/9 10/10/10 11/11/11 
f 9/9/9 11/11/11 12/12/12 
f 13/13/13 14/14/14 15/15/15 
f 13/13/13 15/15/15 16/16/16 
f 17/17/17 18/18/18 19/19/19 
f 17/17/17 19/19/19 20/20/20 
f 21/21/21 22/22/22 23/23/23 
f 21/21/21 23/23/23 24/24/24 

