v 0.6929650902748108 -0.625498354434967 0.7765318155288696
v 0.48640379309654236 -1.8414647579193115 -1.32201087474823
v 0.9876342415809631 -1.8414647579193115 -1.294633150100708
v 0.4790697991847992 -0.6474877595901489 -1.0312707424163818
v 0.48640379309654236 -2.5460760593414307 0.25421813130378723
v 0.7781933546066284 0.8222576975822449 -0.3061050474643707
v 0.9622045159339905 -2.0199804306030273 -1.0882903337478638
v 0.914196789264679 -0.6588487029075623 -1.002159595489502
v 0.7507458329200745 -2.1618731021881104 -0.0881100445985794
vn 0.6218003034591675 0.1697750836610794 0.7645527124404907
vn -0.8652151226997375 -0.28750061988830566 -0.4107872247695923
vn 0.9523648619651794 0.08372768759727478 -0.293241947889328
vn -0.9807619452476501 0.14807499945163727 -0.12720011174678802
vn -0.9735530614852905 -0.19614021480083466 0.1171470358967781
vn 0.027124734595417976 0.9995139837265015 -0.015367057174444199
vn 0.9068649411201477 -0.42122402787208557 0.012896004132926464
vn 0.9855650663375854 0.121314637362957 -0.11808554083108902
vn 0.9476240277290344 -0.1746426820755005 0.26741093397140503
vt 0.0 1.0
vt 0.0 1.0
vt 0.0 1.0
vt 0.0 1.0
vt 0.0 1.0
vt 0.0 1.0
vt 0.0 1.0
vt 0.0 1.0
vt 0.0 1.0

g Mech_7_Side_R_Col
s 1
usemtl Mech_7_Side_R_Col
f 3/3/3 2/2/2 4/4/4 
f 5/5/5 1/1/1 4/4/4 
f 5/5/5 4/4/4 2/2/2 
f 6/6/6 4/4/4 1/1/1 
f 7/7/7 5/5/5 2/2/2 
f 7/7/7 2/2/2 3/3/3 
f 7/7/7 3/3/3 1/1/1 
f 8/8/8 6/6/6 1/1/1 
f 8/8/8 1/1/1 3/3/3 
f 8/8/8 3/3/3 4/4/4 
f 8/8/8 4/4/4 6/6/6 
f 9/9/9 7/7/7 1/1/1 
f 9/9/9 1/1/1 5/5/5 
f 9/9/9 5/5/5 7/7/7 

