v 0.4906066358089447 0.8941317796707153 1.8826087713241577
v -0.6740038990974426 0.8932808637619019 0.3176109194755554
v 1.0753674507141113 1.3748724460601807 0.3175643980503082
v -0.9291307926177979 1.7562487125396729 0.31720930337905884
v -0.9291307926177979 1.7560113668441772 1.5142854452133179
v 0.822847843170166 1.722939372062683 0.314840704202652
v 1.0726598501205444 0.912238359451294 0.31659331917762756
v 0.8151769638061523 1.7424969673156738 0.3148612976074219
v 0.837618350982666 0.8974920511245728 0.32494306564331055
v 0.9335583448410034 0.9125383496284485 1.4091846942901611
v 0.3273962438106537 1.741129755973816 1.5127732753753662
v 0.5381262302398682 0.8924557566642761 1.3056445121765137
v 0.7024962902069092 1.7427865266799927 1.1030089855194092
v 0.9626818299293518 1.3755528926849365 1.1244088411331177
v 0.5430358648300171 1.37699556350708 1.5510196685791016
vn -0.21680094301700592 -0.6649538278579712 0.7147263884544373
vn -0.44738736748695374 -0.8163949847221375 -0.36516278982162476
vn 0.9830995798110962 0.18033653497695923 0.03152749314904213
vn -0.3973172605037689 0.6947923302650452 -0.5995019674301147
vn -0.6115100979804993 0.576550304889679 0.5418903231620789
vn -0.0004016212478745729 -0.0014104010770097375 -0.999998927116394
vn 0.32535305619239807 -0.17194902896881104 -0.9298273324966431
vn 0.16146250069141388 0.9867988228797913 0.012569395825266838
vn 0.021624743938446045 -0.9997320175170898 -0.008263232186436653
vn 0.83793044090271 -0.489218533039093 0.24194586277008057
vn 0.2103821337223053 0.637370228767395 0.7412816286087036
vn 0.002793304156512022 -0.9999949932098389 -0.001534953829832375
vn 0.21382708847522736 0.9728835225105286 0.08817915618419647
vn 0.8124107718467712 0.4231053292751312 0.4012115001678467
vn 0.6355661749839783 0.40851789712905884 0.6551097631454468
vt 0.0 1.0
vt 0.0 1.0
vt 0.0 1.0
vt 0.0 1.0
vt 0.0 1.0
vt 0.0 1.0
vt 0.0 1.0
vt 0.0 1.0
vt 0.0 1.0
vt 0.0 1.0
vt 0.0 1.0
vt 0.0 1.0
vt 0.0 1.0
vt 0.0 1.0
vt 0.0 1.0

g Mech_7_Nose_R_Col
s 1
usemtl Mech_7_Nose_R_Col
f 5/5/5 2/2/2 1/1/1 
f 5/5/5 4/4/4 2/2/2 
f 6/6/6 2/2/2 4/4/4 
f 7/7/7 6/6/6 3/3/3 
f 7/7/7 2/2/2 6/6/6 
f 8/8/8 6/6/6 4/4/4 
f 8/8/8 4/4/4 5/5/5 
f 8/8/8 3/3/3 6/6/6 
f 9/9/9 2/2/2 7/7/7 
f 10/10/10 7/7/7 3/3/3 
f 10/10/10 9/9/9 7/7/7 
f 10/10/10 1/1/1 9/9/9 
f 11/11/11 5/5/5 1/1/1 
f 12/12/12 9/9/9 1/1/1 
f 12/12/12 1/1/1 2/2/2 
f 12/12/12 2/2/2 9/9/9 
f 13/13/13 8/8/8 5/5/5 
f 13/13/13 5/5/5 11/11/11 
f 14/14/14 1/1/1 10/10/10 
f 14/14/14 13/13/13 11/11/11 
f 14/14/14 10/10/10 3/3/3 
f 14/14/14 3/3/3 8/8/8 
f 14/14/14 8/8/8 13/13/13 
f 15/15/15 14/14/14 11/11/11 
f 15/15/15 11/11/11 1/1/1 
f 15/15/15 1/1/1 14/14/14 

