v -0.6241845488548279 1.1299902200698853 5.2482805252075195
v -0.7363525032997131 0.8924557566642761 1.7821483612060547
v 0.5430358648300171 1.37699556350708 1.5510196685791016
v -0.9291307926177979 1.7560113668441772 1.5142854452133179
v -0.9291307926177979 1.693292498588562 4.432956695556641
v -0.2619348168373108 -0.11793716996908188 4.448432445526123
v -0.7435937523841858 0.854052722454071 3.9997670650482178
v -0.34571409225463867 1.7374438047409058 4.548174858093262
v 0.4906066358089447 0.8941317796707153 1.8826087713241577
v -0.2497595101594925 1.4025756120681763 4.460390090942383
vn -0.503882884979248 -0.20784571766853333 0.8383925557136536
vn -0.5307568907737732 -0.7407881617546082 -0.41174033284187317
vn 0.643028974533081 0.7256930470466614 -0.24471062421798706
vn -0.567780613899231 0.7909691333770752 -0.22802001237869263
vn -0.9319671988487244 0.3373927175998688 0.13267691433429718
vn 0.3328234851360321 -0.9340057373046875 0.12985362112522125
vn -0.9497716426849365 -0.31065380573272705 0.037790022790431976
vn 0.3015768826007843 0.9498016834259033 0.0832352340221405
vn 0.8372811675071716 -0.5446274876594543 -0.048386186361312866
vn 0.9515866041183472 0.03767615184187889 0.3050629794597626
vt 0.0 1.0
vt 0.0 1.0
vt 0.0 1.0
vt 0.0 1.0
vt 0.0 1.0
vt 0.0 1.0
vt 0.0 1.0
vt 0.0 1.0
vt 0.0 1.0
vt 0.0 1.0

g Mech_7_Nose_R_Col
s 1
usemtl Mech_7_Nose_R_Col
f 3/3/3 2/2/2 4/4/4 
f 7/7/7 5/5/5 4/4/4 
f 7/7/7 4/4/4 2/2/2 
f 7/7/7 2/2/2 6/6/6 
f 7/7/7 6/6/6 1/1/1 
f 7/7/7 1/1/1 5/5/5 
f 8/8/8 5/5/5 1/1/1 
f 8/8/8 3/3/3 4/4/4 
f 8/8/8 4/4/4 5/5/5 
f 9/9/9 6/6/6 2/2/2 
f 9/9/9 2/2/2 3/3/3 
f 10/10/10 8/8/8 1/1/1 
f 10/10/10 1/1/1 6/6/6 
f 10/10/10 6/6/6 9/9/9 
f 10/10/10 9/9/9 3/3/3 
f 10/10/10 3/3/3 8/8/8 

