v -0.7229712009429932 0.6461913585662842 4.600244045257568
v -0.7168627977371216 -0.012382572516798973 1.3543667793273926
v 0.8268334269523621 0.9203230142593384 1.3628838062286377
v -0.7065478563308716 0.9539257884025574 1.7819359302520752
v -0.9589135050773621 0.8545898199081421 3.0200743675231934
v 0.4794323444366455 0.9467149972915649 1.3433113098144531
v 0.09471923112869263 -1.221161961555481 3.30240797996521
v -0.9589135050773621 -1.2648285627365112 4.413013935089111
v -0.9589135050773621 0.18269555270671844 1.781929850578308
v 0.2908312678337097 0.9203546047210693 2.6759543418884277
v 0.7775207161903381 -0.19687722623348236 2.0087714195251465
v -0.9589135050773621 0.6461913585662842 4.600244045257568
v -0.5087206959724426 -1.2648285627365112 4.4130167961120605
v -0.9589135050773621 -1.2339057922363281 3.2938802242279053
v -0.7383520603179932 0.9174804091453552 2.945340156555176
v 0.5983923077583313 0.4901812970638275 2.878741979598999
v -0.9589135050773621 -0.6731054782867432 4.617131233215332
v -0.9589135050773621 -0.20109963417053223 1.992280125617981
v 0.24690183997154236 0.7706377506256104 3.167388439178467
v -0.6131445169448853 -0.6731042861938477 4.617128372192383
v -0.9589135050773621 0.0645577684044838 1.8274245262145996
vn 0.552527129650116 0.5568785071372986 0.6201614737510681
vn -0.03112725354731083 -0.6120846271514893 -0.7901793718338013
vn 0.8818549513816833 0.05843900889158249 -0.4678853452205658
vn -0.38866615295410156 0.8610057234764099 -0.3280360698699951
vn -0.9929468631744385 0.11759395897388458 -0.015105039812624454
vn -0.12054673582315445 0.8520310521125793 -0.5094228386878967
vn 0.5432367920875549 -0.8216692209243774 -0.17249222099781036
vn -0.997072160243988 -0.07040353119373322 0.029837366193532944
vn -0.9960960149765015 0.06056681647896767 -0.06422271579504013
vn 0.0868779867887497 0.9906206727027893 0.1054648905992508
vn 0.6930544376373291 -0.5995103120803833 -0.40032872557640076
vn -0.970234215259552 0.2106630951166153 0.11944220960140228
vn 0.7065945863723755 -0.4939858317375183 0.5066577792167664
vn -0.4495890140533447 -0.8314419388771057 -0.326456755399704
vn -0.020297639071941376 0.9936640858650208 0.11054258048534393
vn 0.8870545029640198 0.02243822254240513 0.46111899614334106
vn -0.21841220557689667 -0.11937639117240906 0.9685274362564087
vn -0.8711761236190796 -0.36758431792259216 -0.32547512650489807
vn 0.6629334092140198 0.6495122909545898 0.37236177921295166
vn 0.7390868663787842 0.01688689924776554 0.673398494720459
vn -0.8885118961334229 -0.22053654491901398 -0.4023806154727936
vt 0.0 1.0
vt 0.0 1.0
vt 0.0 1.0
vt 0.0 1.0
vt 0.0 1.0
vt 0.0 1.0
vt 0.0 1.0
vt 0.0 1.0
vt 0.0 1.0
vt 0.0 1.0
vt 0.0 1.0
vt 0.0 1.0
vt 0.0 1.0
vt 0.0 1.0
vt 0.0 1.0
vt 0.0 1.0
vt 0.0 1.0
vt 0.0 1.0
vt 0.0 1.0
vt 0.0 1.0
vt 0.0 1.0

g Mech_7_Jaw_R_Col
s 1
usemtl Mech_7_Jaw_R_Col
f 6/6/6 3/3/3 2/2/2 
f 6/6/6 2/2/2 4/4/4 
f 9/9/9 5/5/5 4/4/4 
f 9/9/9 4/4/4 2/2/2 
f 9/9/9 8/8/8 5/5/5 
f 10/10/10 3/3/3 6/6/6 
f 10/10/10 6/6/6 4/4/4 
f 11/11/11 7/7/7 2/2/2 
f 11/11/11 2/2/2 3/3/3 
f 12/12/12 5/5/5 8/8/8 
f 14/14/14 2/2/2 7/7/7 
f 14/14/14 13/13/13 8/8/8 
f 14/14/14 7/7/7 13/13/13 
f 14/14/14 8/8/8 9/9/9 
f 15/15/15 10/10/10 4/4/4 
f 15/15/15 4/4/4 5/5/5 
f 15/15/15 5/5/5 12/12/12 
f 15/15/15 12/12/12 1/1/1 
f 15/15/15 1/1/1 10/10/10 
f 16/16/16 11/11/11 3/3/3 
f 16/16/16 13/13/13 7/7/7 
f 16/16/16 7/7/7 11/11/11 
f 17/17/17 12/12/12 8/8/8 
f 17/17/17 8/8/8 13/13/13 
f 17/17/17 1/1/1 12/12/12 
f 18/18/18 14/14/14 9/9/9 
f 18/18/18 2/2/2 14/14/14 
f 19/19/19 16/16/16 3/3/3 
f 19/19/19 3/3/3 10/10/10 
f 19/19/19 10/10/10 1/1/1 
f 19/19/19 1/1/1 16/16/16 
f 20/20/20 16/16/16 1/1/1 
f 20/20/20 13/13/13 16/16/16 
f 20/20/20 17/17/17 13/13/13 
f 20/20/20 1/1/1 17/17/17 
f 21/21/21 18/18/18 9/9/9 
f 21/21/21 9/9/9 2/2/2 
f 21/21/21 2/2/2 18/18/18 

