v -0.2619348168373108 -0.11793716996908188 4.448432445526123
v -0.9291307926177979 -1.074820637702942 3.0200722217559814
v 0.16248412430286407 -1.148543357849121 3.178406238555908
v 0.4906066358089447 0.8941317796707153 1.8826087713241577
v -0.9291307926177979 -0.03364257887005806 4.212647438049316
v -0.738354504108429 -1.0119301080703735 2.945338010787964
v -0.9291307926177979 -1.1594252586364746 3.155994176864624
v -0.9291307926177979 -0.8534414172172546 3.456796407699585
vn 0.6811465620994568 -0.014986911788582802 0.7319937348365784
vn -0.853374183177948 0.29360926151275635 -0.43075069785118103
vn 0.8355007767677307 -0.5467996597290039 0.05430050939321518
vn 0.20123551785945892 0.7940173149108887 -0.5736207962036133
vn -0.7969755530357361 0.6028332710266113 -0.03770896792411804
vn 0.08444623649120331 -0.5433963537216187 -0.8352181315422058
vn -0.15941964089870453 -0.8044067621231079 0.5722892880439758
vn -0.325408935546875 -0.6471179723739624 0.6894544363021851
vt 0.0 1.0
vt 0.0 1.0
vt 0.0 1.0
vt 0.0 1.0
vt 0.0 1.0
vt 0.0 1.0
vt 0.0 1.0
vt 0.0 1.0

g Mech_7_Nose_R_Col
s 1
usemtl Mech_7_Nose_R_Col
f 1/1/1 3/3/3 4/4/4 
f 5/5/5 1/1/1 4/4/4 
f 5/5/5 4/4/4 2/2/2 
f 6/6/6 3/3/3 2/2/2 
f 6/6/6 2/2/2 4/4/4 
f 6/6/6 4/4/4 3/3/3 
f 7/7/7 2/2/2 3/3/3 
f 7/7/7 3/3/3 1/1/1 
f 7/7/7 5/5/5 2/2/2 
f 8/8/8 7/7/7 1/1/1 
f 8/8/8 1/1/1 5/5/5 
f 8/8/8 5/5/5 7/7/7 

