v 2.8337621688842773 0.3909081220626831 2.005298614501953
v 2.9484965801239014 0.6805269718170166 0.16070924699306488
v 3.367814302444458 1.22220778465271 0.49429792165756226
v 2.9484965801239014 1.2550301551818848 0.47678008675575256
v 2.602968454360962 0.011727752164006233 1.3763421773910522
v 2.9701030254364014 0.46794596314430237 1.8652714490890503
v 2.602968692779541 0.586230993270874 1.6924138069152832
v 3.367814302444458 0.6833000183105469 0.19780990481376648
v 2.9701030254364014 -0.0709616094827652 1.5687832832336426
v 2.8337042331695557 -0.14803238213062286 1.7088695764541626
vn -0.081820547580719 -0.22821524739265442 0.9701666235923767
vn -0.74468994140625 -0.24283383786678314 -0.6216660737991333
vn 0.640175998210907 0.6725506782531738 0.37128204107284546
vn -0.8371954560279846 0.47365081310272217 -0.2734203040599823
vn -0.8253180384635925 -0.42739731073379517 -0.36902791261672974
vn 0.9085925817489624 0.16368500888347626 0.3842744529247284
vn -0.7003795504570007 0.6024124622344971 0.38284167647361755
vn 0.8508266806602478 -0.4544757306575775 -0.26371562480926514
vn 0.8126199841499329 -0.582737386226654 0.008121892809867859
vn -0.6849861145019531 -0.4849437475204468 0.5437127351760864
vt 0.0 1.0
vt 0.0 1.0
vt 0.0 1.0
vt 0.0 1.0
vt 0.0 1.0
vt 0.0 1.0
vt 0.0 1.0
vt 0.0 1.0
vt 0.0 1.0
vt 0.0 1.0

g Megabot_MkII_Cockpit_Front_R_Col
s 1
usemtl Megabot_MkII_Cockpit_Front_R_Col
f 5/5/5 4/4/4 2/2/2 
f 7/7/7 4/4/4 5/5/5 
f 7/7/7 1/1/1 6/6/6 
f 7/7/7 6/6/6 3/3/3 
f 7/7/7 3/3/3 4/4/4 
f 8/8/8 5/5/5 2/2/2 
f 8/8/8 3/3/3 6/6/6 
f 8/8/8 2/2/2 4/4/4 
f 8/8/8 4/4/4 3/3/3 
f 9/9/9 6/6/6 1/1/1 
f 9/9/9 8/8/8 6/6/6 
f 9/9/9 5/5/5 8/8/8 
f 10/10/10 7/7/7 5/5/5 
f 10/10/10 1/1/1 7/7/7 
f 10/10/10 9/9/9 1/1/1 
f 10/10/10 5/5/5 9/9/9 

