v -0.0831281989812851 2.3912060260772705 2.5624752044677734
v -0.987084150314331 2.1240668296813965 2.2844574451446533
v -0.07665496319532394 2.406832456588745 2.284456729888916
v -0.987084150314331 2.406832456588745 2.284456729888916
v -0.987084150314331 2.3912060260772705 2.5624752044677734
v -0.35105958580970764 2.1240668296813965 2.2844574451446533
v -0.34458649158477783 2.139693260192871 2.5624752044677734
v -0.987084150314331 2.139693260192871 2.5624752044677734
vn 0.3212471008300781 0.7687421441078186 0.5530243515968323
vn -0.26154065132141113 -0.62586510181427 -0.7347715497016907
vn 0.16817611455917358 0.37827613949775696 -0.9102878570556641
vn -0.14049160480499268 0.9014730453491211 -0.4094002842903137
vn -0.2984565794467926 0.5049651265144348 0.8098973631858826
vn 0.3747809827327728 -0.822046160697937 -0.4286949336528778
vn 0.11695893853902817 -0.7161246538162231 0.6881033182144165
vn -0.2716570794582367 -0.6939569711685181 0.6668030619621277
vt 0.0 1.0
vt 0.0 1.0
vt 0.0 1.0
vt 0.0 1.0
vt 0.0 1.0
vt 0.0 1.0
vt 0.0 1.0
vt 0.0 1.0

g Megabot_MkII_Cockpit_Front_R_Col
s 1
usemtl Megabot_MkII_Cockpit_Front_R_Col
f 1/1/1 3/3/3 4/4/4 
f 3/3/3 2/2/2 4/4/4 
f 5/5/5 1/1/1 4/4/4 
f 5/5/5 4/4/4 2/2/2 
f 6/6/6 2/2/2 3/3/3 
f 6/6/6 3/3/3 1/1/1 
f 7/7/7 1/1/1 5/5/5 
f 7/7/7 6/6/6 1/1/1 
f 7/7/7 2/2/2 6/6/6 
f 8/8/8 7/7/7 5/5/5 
f 8/8/8 5/5/5 2/2/2 
f 8/8/8 2/2/2 7/7/7 

