v 0.6229274868965149 0.16367782652378082 1.466956615447998
v -0.9436337351799011 -0.4350816011428833 0.5129783749580383
v 0.6201666593551636 0.42425337433815 1.0215659141540527
v -0.9471724629402161 0.34920942783355713 1.1556675434112549
v -0.9419330954551697 -0.5047258138656616 2.051532030105591
v -0.9413675665855408 0.1655770093202591 1.5363126993179321
v 0.6063657402992249 -0.43148359656333923 0.5198664665222168
vn 0.5495372414588928 0.0022283410653471947 0.8354662656784058
vn -0.4548218548297882 -0.1979120969772339 -0.8683132529258728
vn 0.1044146791100502 0.8501575589179993 -0.5160714387893677
vn -0.645966112613678 0.6589609980583191 -0.38535481691360474
vn -0.10441470146179199 -0.8501575589179993 0.5160714387893677
vn -0.03583906218409538 0.7685242891311646 0.6388160586357117
vn 0.43095484375953674 -0.8899701237678528 -0.1491011083126068
vt 0.0 1.0
vt 0.0 1.0
vt 0.0 1.0
vt 0.0 1.0
vt 0.0 1.0
vt 0.0 1.0
vt 0.0 1.0

g Megabot_MkII_Cockpit_Top_R_Col
s 1
usemtl Megabot_MkII_Cockpit_Top_R_Col
f 3/3/3 2/2/2 4/4/4 
f 5/5/5 4/4/4 2/2/2 
f 6/6/6 1/1/1 3/3/3 
f 6/6/6 3/3/3 4/4/4 
f 6/6/6 5/5/5 1/1/1 
f 6/6/6 4/4/4 5/5/5 
f 7/7/7 2/2/2 3/3/3 
f 7/7/7 3/3/3 1/1/1 
f 7/7/7 5/5/5 2/2/2 
f 7/7/7 1/1/1 5/5/5 

