v 0.6973422765731812 -0.013430560939013958 1.4254196882247925
v 0.695496141910553 -0.7740886807441711 1.3369052410125732
v 0.699258029460907 -0.6562702059745789 0.9521287083625793
v 0.6962509751319885 0.4686492085456848 0.510729193687439
v 0.696160614490509 -0.6637029647827148 0.46677955985069275
v 0.6984351277351379 0.04926195368170738 1.8086552619934082
v 0.6937494277954102 0.3982578217983246 2.035634756088257
v 0.8265114426612854 2.485785961151123 -1.9346489906311035
v 0.8236067891120911 0.9843039512634277 0.7482014298439026
v 3.4948549270629883 0.985444188117981 0.74416184425354
v 4.183171272277832 2.4820003509521484 -1.9305825233459473
v 3.4948549270629883 0.985444188117981 0.74416184425354
v 3.7930126190185547 0.7527657747268677 0.618179202079773
v 4.48228120803833 2.1846871376037598 -1.929417371749878
v 3.7930126190185547 0.7527657747268677 0.618179202079773
v 3.4948549270629883 0.985444188117981 0.74416184425354
v 3.496917724609375 -0.3787302076816559 -0.02200622484087944
v 3.795722007751465 -0.11387574672698975 0.1297161877155304
v 4.483108997344971 -1.1827696561813354 -1.929384469985962
v 4.184731483459473 -1.481030821800232 -1.9311645030975342
v 4.48228120803833 2.1846871376037598 -1.929417371749878
v 3.7930126190185547 0.7527657747268677 0.618179202079773
v 3.795722007751465 -0.11387574672698975 0.1297161877155304
v 4.483108997344971 -1.1827696561813354 -1.929384469985962
v 4.48228120803833 2.1846871376037598 -1.929417371749878
v 4.329326152801514 2.0590410232543945 -1.9219638109207153
v 4.047212600708008 2.3467776775360107 -1.9211269617080688
v 4.183171272277832 2.4820003509521484 -1.9305825233459473
v 4.184731483459473 -1.481030821800232 -1.9311645030975342
v 4.04978084564209 -1.3467696905136108 -1.921126365661621
v 4.329342365264893 -1.0590307712554932 -1.9219692945480347
v 4.483108997344971 -1.1827696561813354 -1.929384469985962
v 4.483108997344971 -1.1827696561813354 -1.929384469985962
v 4.329342365264893 -1.0590307712554932 -1.9219692945480347
v 4.329326152801514 2.0590410232543945 -1.9219638109207153
v 4.48228120803833 2.1846871376037598 -1.929417371749878
v 0.8265814781188965 -1.485776662826538 -1.934770107269287
v 0.8210790157318115 -1.3462380170822144 -1.9236953258514404
v 4.04978084564209 -1.3467696905136108 -1.921126365661621
v 3.499999523162842 -1.4799293279647827 -1.931374430656433
v 4.184731483459473 -1.481030821800232 -1.9311645030975342
v 0.8210836052894592 0.8879526257514954 -0.7468997240066528
v 0.8210791349411011 2.346266269683838 -1.923680067062378
v 4.047212600708008 2.3467776775360107 -1.9211269617080688
v 3.66623592376709 0.8884837031364441 -0.7443467378616333
v 0.8210793137550354 0.11207538098096848 -0.7469152808189392
v 3.6687960624694824 0.11154387891292572 -0.7443464398384094
v 0.8210790157318115 -1.3462380170822144 -1.9236953258514404
v 4.04978084564209 -1.3467696905136108 -1.921126365661621
v 3.9514641761779785 0.8274242281913757 -0.747118353843689
v 4.329326152801514 2.0590410232543945 -1.9219638109207153
v 4.047212600708008 2.3467776775360107 -1.9211269617080688
v 3.951484203338623 0.17260991036891937 -0.7471279501914978
v 4.04978084564209 -1.3467696905136108 -1.921126365661621
v 4.329342365264893 -1.0590307712554932 -1.9219692945480347
v 4.329342365264893 -1.0590307712554932 -1.9219692945480347
v 3.951484203338623 0.17260991036891937 -0.7471279501914978
v 3.9514641761779785 0.8274242281913757 -0.747118353843689
v 4.329326152801514 2.0590410232543945 -1.9219638109207153
v 0.8210790157318115 -1.3462380170822144 -1.9236953258514404
v 0.8265814781188965 -1.485776662826538 -1.934770107269287
v 0.8208987712860107 -0.3797118365764618 -0.01961425691843033
v 0.8210793137550354 0.11207538098096848 -0.7469152808189392
v 0.8236067891120911 0.9843039512634277 0.7482014298439026
v 0.8210836052894592 0.8879526257514954 -0.7468997240066528
v 0.8210791349411011 2.346266269683838 -1.923680067062378
v 0.8265114426612854 2.485785961151123 -1.9346489906311035
v 4.183171272277832 2.4820003509521484 -1.9305825233459473
v 4.047212600708008 2.3467776775360107 -1.9211269617080688
v 0.8210791349411011 2.346266269683838 -1.923680067062378
v -0.948188066482544 0.4686492085456848 0.510729193687439
v -0.9480977654457092 -0.6637029647827148 0.46677955985069275
v -0.9511951208114624 -0.6562702059745789 0.9521287083625793
v -0.9492794871330261 -0.013430560939013958 1.4254196882247925
v -0.9503722786903381 0.04926195368170738 1.8086552619934082
v -0.9456866383552551 0.3982578217983246 2.035634756088257
v -0.9474332928657532 -0.7740886807441711 1.3369052410125732
v -0.948188066482544 0.4686492085456848 0.510729193687439
v -0.9456866383552551 0.3982578217983246 2.035634756088257
v 0.6937494277954102 0.3982578217983246 2.035634756088257
v 0.6962509751319885 0.4686492085456848 0.510729193687439
v 0.6984351277351379 0.04926195368170738 1.8086552619934082
v -0.9503722786903381 0.04926195368170738 1.8086552619934082
v 0.6973422765731812 -0.013430560939013958 1.4254196882247925
v -0.9492794871330261 -0.013430560939013958 1.4254196882247925
v -0.9474332928657532 -0.7740886807441711 1.3369052410125732
v 0.695496141910553 -0.7740886807441711 1.3369052410125732
v 0.699258029460907 -0.6562702059745789 0.9521287083625793
v -0.9511951208114624 -0.6562702059745789 0.9521287083625793
v 0.696160614490509 -0.6637029647827148 0.46677955985069275
v -0.9480977654457092 -0.6637029647827148 0.46677955985069275
v 0.8208987712860107 -0.3797118365764618 -0.01961425691843033
v 0.8265814781188965 -1.485776662826538 -1.934770107269287
v 3.499999523162842 -1.4799293279647827 -1.931374430656433
v 3.499999523162842 -1.4799293279647827 -1.931374430656433
v 4.184731483459473 -1.481030821800232 -1.9311645030975342
v 0.8208987712860107 -0.3797118365764618 -0.01961425691843033
v 4.184731483459473 -1.481030821800232 -1.9311645030975342
v 3.496917724609375 -0.3787302076816559 -0.02200622484087944
v 0.8208987712860107 -0.3797118365764618 -0.01961425691843033
v 0.8208987712860107 -0.3797118365764618 -0.01961425691843033
v 3.496917724609375 -0.3787302076816559 -0.02200622484087944
v 3.4948549270629883 0.985444188117981 0.74416184425354
v 0.8236067891120911 0.9843039512634277 0.7482014298439026
vn 0.6804527640342712 -0.36381691694259644 0.6360984444618225
vn 0.6374987959861755 -0.45721492171287537 0.6201208233833313
vn 0.8398386836051941 -0.5384911894798279 -0.06854339689016342
vn 0.36581966280937195 0.770438551902771 -0.5221114754676819
vn 0.5127584934234619 -0.3140298128128052 -0.7990394830703735
vn 0.8328021764755249 -0.4586482346057892 0.30997154116630554
vn 0.3412225544452667 0.8939094543457031 0.29067689180374146
vn -0.2382303774356842 0.8669331073760986 0.4378049969673157
vn -0.328076034784317 0.5599040389060974 0.7608373761177063
vn 0.05793026089668274 0.6281077861785889 0.7759668827056885
vn 0.07998574525117874 0.8753228187561035 0.47687774896621704
vn 0.05793026089668274 0.6281077861785889 0.7759668827056885
vn 0.9086047410964966 0.059007544070482254 0.41346755623817444
vn 0.9417845606803894 0.1574154943227768 0.2970893979072571
vn 0.9086047410964966 0.059007544070482254 0.41346755623817444
vn 0.05793026089668274 0.6281077861785889 0.7759668827056885
vn 0.046490900218486786 -0.758371889591217 0.6501620411872864
vn 0.9246405363082886 -0.11615992337465286 0.362693727016449
vn 0.9379326701164246 -0.18997208774089813 0.2901601195335388
vn 0.07320540398359299 -0.8750254511833191 0.4785096347332001
vn 0.9417845606803894 0.1574154943227768 0.2970893979072571
vn 0.9086047410964966 0.059007544070482254 0.41346755623817444
vn 0.9246405363082886 -0.11615992337465286 0.362693727016449
vn 0.9379326701164246 -0.18997208774089813 0.2901601195335388
vn 0.9417845606803894 0.1574154943227768 0.2970893979072571
vn -0.6240113973617554 -0.18321523070335388 -0.7596327662467957
vn -0.025030456483364105 -0.5676541328430176 -0.82288658618927
vn 0.07998574525117874 0.8753228187561035 0.47687774896621704
vn 0.07320540398359299 -0.8750254511833191 0.4785096347332001
vn -0.024998435750603676 0.5682777166366577 -0.822456955909729
vn -0.6256906390190125 0.1823594570159912 -0.7584564685821533
vn 0.9379326701164246 -0.18997208774089813 0.2901601195335388
vn 0.9379326701164246 -0.18997208774089813 0.2901601195335388
vn -0.6256906390190125 0.1823594570159912 -0.7584564685821533
vn -0.6240113973617554 -0.18321523070335388 -0.7596327662467957
vn 0.9417845606803894 0.1574154943227768 0.2970893979072571
vn -0.32121923565864563 -0.8463394641876221 0.424885630607605
vn -0.6868793368339539 0.43438616394996643 -0.5826709866523743
vn -0.024998435750603676 0.5682777166366577 -0.822456955909729
vn 0.0008112263749353588 -0.8935397863388062 0.44898322224617004
vn 0.07320540398359299 -0.8750254511833191 0.4785096347332001
vn -0.5930182933807373 -0.38175350427627563 -0.7089384198188782
vn -0.6873893737792969 -0.4326185882091522 -0.5833841562271118
vn -0.025030456483364105 -0.5676541328430176 -0.82288658618927
vn -0.02200288325548172 -0.4863365590572357 -0.8734945058822632
vn -0.5924228429794312 0.3832637071609497 -0.7086213231086731
vn -0.02203707955777645 0.4867555499076843 -0.8732602000236511
vn -0.6868793368339539 0.43438616394996643 -0.5826709866523743
vn -0.024998435750603676 0.5682777166366577 -0.822456955909729
vn -0.8913851380348206 -0.08753563463687897 -0.44471341371536255
vn -0.6240113973617554 -0.18321523070335388 -0.7596327662467957
vn -0.025030456483364105 -0.5676541328430176 -0.82288658618927
vn -0.8918160200119019 0.08670732378959656 -0.44401127099990845
vn -0.024998435750603676 0.5682777166366577 -0.822456955909729
vn -0.6256906390190125 0.1823594570159912 -0.7584564685821533
vn -0.6256906390190125 0.1823594570159912 -0.7584564685821533
vn -0.8918160200119019 0.08670732378959656 -0.44401127099990845
vn -0.8913851380348206 -0.08753563463687897 -0.44471341371536255
vn -0.6240113973617554 -0.18321523070335388 -0.7596327662467957
vn -0.6868793368339539 0.43438616394996643 -0.5826709866523743
vn -0.32121923565864563 -0.8463394641876221 0.424885630607605
vn -0.48865216970443726 -0.6500031352043152 0.5819922685623169
vn -0.5924228429794312 0.3832637071609497 -0.7086213231086731
vn -0.328076034784317 0.5599040389060974 0.7608373761177063
vn -0.5930182933807373 -0.38175350427627563 -0.7089384198188782
vn -0.6873893737792969 -0.4326185882091522 -0.5833841562271118
vn -0.2382303774356842 0.8669331073760986 0.4378049969673157
vn 0.07998574525117874 0.8753228187561035 0.47687774896621704
vn -0.025030456483364105 -0.5676541328430176 -0.82288658618927
vn -0.6873893737792969 -0.4326185882091522 -0.5833841562271118
vn -0.36581966280937195 0.7704386115074158 -0.5221114754676819
vn -0.5127584338188171 -0.3140298128128052 -0.799039363861084
vn -0.8398386240005493 -0.5384911894798279 -0.0685434564948082
vn -0.6804528832435608 -0.3638169765472412 0.6360983848571777
vn -0.8328021764755249 -0.45864835381507874 0.30997148156166077
vn -0.3412225544452667 0.8939094543457031 0.29067686200141907
vn -0.6374987959861755 -0.45721495151519775 0.6201208233833313
vn -0.36581966280937195 0.7704386115074158 -0.5221114754676819
vn -0.3412225544452667 0.8939094543457031 0.29067686200141907
vn 0.3412225544452667 0.8939094543457031 0.29067689180374146
vn 0.36581966280937195 0.770438551902771 -0.5221114754676819
vn 0.8328021764755249 -0.4586482346057892 0.30997154116630554
vn -0.8328021764755249 -0.45864835381507874 0.30997148156166077
vn 0.6804527640342712 -0.36381691694259644 0.6360984444618225
vn -0.6804528832435608 -0.3638169765472412 0.6360983848571777
vn -0.6374987959861755 -0.45721495151519775 0.6201208233833313
vn 0.6374987959861755 -0.45721492171287537 0.6201208233833313
vn 0.8398386836051941 -0.5384911894798279 -0.06854339689016342
vn -0.8398386240005493 -0.5384911894798279 -0.0685434564948082
vn 0.5127584934234619 -0.3140298128128052 -0.7990394830703735
vn -0.5127584338188171 -0.3140298128128052 -0.799039363861084
vn -0.48865216970443726 -0.6500031352043152 0.5819922685623169
vn -0.32121923565864563 -0.8463394641876221 0.424885630607605
vn 0.0008112263749353588 -0.8935397863388062 0.44898322224617004
vn 0.0008112263749353588 -0.8935397863388062 0.44898322224617004
vn 0.07320540398359299 -0.8750254511833191 0.4785096347332001
vn -0.48865216970443726 -0.6500031352043152 0.5819922685623169
vn 0.07320540398359299 -0.8750254511833191 0.4785096347332001
vn 0.046490900218486786 -0.758371889591217 0.6501620411872864
vn -0.48865216970443726 -0.6500031352043152 0.5819922685623169
vn -0.48865216970443726 -0.6500031352043152 0.5819922685623169
vn 0.046490900218486786 -0.758371889591217 0.6501620411872864
vn 0.05793026089668274 0.6281077861785889 0.7759668827056885
vn -0.328076034784317 0.5599040389060974 0.7608373761177063
vt 0.2795138359069824 0.0371013879776001
vt 0.27965694665908813 0.03871709108352661
vt 0.28027278184890747 0.03850674629211426
vt 0.2809711694717407 0.03607583045959473
vt 0.2810404896736145 0.03850674629211426
vt 0.278924822807312 0.03698998689651489
vt 0.2785686254501343 0.03621816635131836
vt 1.0 1.0
vt 0.0 1.0
vt 0.0 0.0
vt 0.18555504083633423 0.048008620738983154
vt 0.18338043987751007 0.04856318235397339
vt 0.18348602950572968 0.04831510782241821
vt 0.18555504083633423 0.047760605812072754
vt 0.16087006032466888 0.044041454792022705
vt 0.16111817955970764 0.04385209083557129
vt 0.16111817955970764 0.04496264457702637
vt 0.16087006032466888 0.044746458530426025
vt 0.1603155881166458 0.04560214281082153
vt 0.160563662648201 0.045850157737731934
vt 0.16531959176063538 0.04793137311935425
vt 0.1673886775970459 0.04908508062362671
vt 0.16699564456939697 0.049790024757385254
vt 0.16531959176063538 0.05064570903778076
vt 0.24479544162750244 0.06621193885803223
vt 0.24507355690002441 0.06595802307128906
vt 0.2454957365989685 0.06648945808410645
vt 0.24527394771575928 0.06678974628448486
vt 0.24527394771575928 0.0593104362487793
vt 0.2454957365989685 0.059610724449157715
vt 0.24507355690002441 0.0601421594619751
vt 0.24479544162750244 0.05988830327987671
vt 0.24479544162750244 0.05988830327987671
vt 0.24507355690002441 0.0601421594619751
vt 0.24507355690002441 0.06595802307128906
vt 0.24479544162750244 0.06621193885803223
vt 0.25059664249420166 0.0593104362487793
vt 0.25059664249420166 0.059610724449157715
vt 0.2454957365989685 0.059610724449157715
vt 0.24634307622909546 0.0593104362487793
vt 0.24527394771575928 0.0593104362487793
vt 0.2505965232849121 0.06376272439956665
vt 0.25059664249420166 0.06648951768875122
vt 0.2454957365989685 0.06648945808410645
vt 0.24608534574508667 0.06376272439956665
vt 0.25059664249420166 0.062337517738342285
vt 0.2460852861404419 0.062337517738342285
vt 0.25059664249420166 0.059610724449157715
vt 0.2454957365989685 0.059610724449157715
vt 0.2456631064414978 0.0636526346206665
vt 0.24507355690002441 0.06595802307128906
vt 0.2454957365989685 0.06648945808410645
vt 0.2456631064414978 0.06244760751724243
vt 0.2454957365989685 0.059610724449157715
vt 0.24507355690002441 0.0601421594619751
vt 0.2425960898399353 0.05954015254974365
vt 0.2407747507095337 0.05723464488983154
vt 0.2407747507095337 0.056029677391052246
vt 0.2425960898399353 0.05372422933578491
vt 0.2720222473144531 0.06956589221954346
vt 0.2720222473144531 0.06986624002456665
vt 0.2690226435661316 0.06779861450195312
vt 0.2702009081840515 0.06683915853500366
vt 0.2670496702194214 0.0665169358253479
vt 0.2702007293701172 0.0654139518737793
vt 0.2720221281051636 0.06268715858459473
vt 0.2720221281051636 0.062386929988861084
vt 0.18555504083633423 0.048008620738983154
vt 0.2454957365989685 0.06648945808410645
vt 0.25059664249420166 0.06648951768875122
vt 0.2809711694717407 0.03607583045959473
vt 0.2810404896736145 0.03850674629211426
vt 0.28027278184890747 0.03850674629211426
vt 0.2795138359069824 0.0371013879776001
vt 0.278924822807312 0.03698998689651489
vt 0.2785686254501343 0.03621816635131836
vt 0.27965694665908813 0.03871709108352661
vt 0.2809711694717407 0.03607583045959473
vt 0.2785686254501343 0.03621816635131836
vt 0.2785686254501343 0.03621816635131836
vt 0.2809711694717407 0.03607583045959473
vt 0.278924822807312 0.03698998689651489
vt 0.278924822807312 0.03698998689651489
vt 0.2795138359069824 0.0371013879776001
vt 0.2795138359069824 0.0371013879776001
vt 0.27965694665908813 0.03871709108352661
vt 0.27965694665908813 0.03871709108352661
vt 0.28027278184890747 0.03850674629211426
vt 0.28027278184890747 0.03850674629211426
vt 0.2810404896736145 0.03850674629211426
vt 0.2810404896736145 0.03850674629211426
vt 1.0 1.0
vt 0.0 1.0
vt 0.0 0.0
vt 0.0 0.0
vt 0.16622312366962433 0.041774868965148926
vt 1.0 1.0
vt 0.16622312366962433 0.041774868965148926
vt 0.1667776107788086 0.04021942615509033
vt 1.0 1.0
vt 0.0 1.0
vt 0.0 0.0
vt 1.0 0.0
vt 1.0 1.0

g Megabot_MkII_Cockpit_Mid_R_Col
s 1
usemtl Megabot_MkII_Cockpit_Mid_R_Col
f 1/1/1 2/2/2 3/3/3 
f 4/4/4 1/1/1 3/3/3 
f 3/3/3 5/5/5 4/4/4 
f 4/4/4 6/6/6 1/1/1 
f 4/4/4 7/7/7 6/6/6 
f 8/8/8 9/9/9 10/10/10 
f 8/8/8 10/10/10 11/11/11 
f 11/11/11 12/12/12 13/13/13 
f 11/11/11 13/13/13 14/14/14 
f 15/15/15 16/16/16 17/17/17 
f 15/15/15 17/17/17 18/18/18 
f 19/19/19 18/18/18 17/17/17 
f 19/19/19 17/17/17 20/20/20 
f 21/21/21 22/22/22 23/23/23 
f 21/21/21 23/23/23 24/24/24 
f 25/25/25 26/26/26 27/27/27 
f 25/25/25 27/27/27 28/28/28 
f 29/29/29 30/30/30 31/31/31 
f 29/29/29 31/31/31 32/32/32 
f 33/33/33 34/34/34 35/35/35 
f 33/33/33 35/35/35 36/36/36 
f 37/37/37 38/38/38 39/39/39 
f 39/39/39 40/40/40 37/37/37 
f 39/39/39 41/41/41 40/40/40 
f 42/42/42 43/43/43 44/44/44 
f 42/42/42 44/44/44 45/45/45 
f 45/45/45 46/46/46 42/42/42 
f 45/45/45 47/47/47 46/46/46 
f 47/47/47 48/48/48 46/46/46 
f 47/47/47 49/49/49 48/48/48 
f 50/50/50 47/47/47 45/45/45 
f 51/51/51 50/50/50 45/45/45 
f 51/51/51 45/45/45 52/52/52 
f 50/50/50 53/53/53 47/47/47 
f 54/54/54 47/47/47 53/53/53 
f 54/54/54 53/53/53 55/55/55 
f 56/56/56 57/57/57 58/58/58 
f 56/56/56 58/58/58 59/59/59 
f 60/60/60 61/61/61 62/62/62 
f 62/62/62 63/63/63 60/60/60 
f 62/62/62 64/64/64 63/63/63 
f 64/64/64 65/65/65 63/63/63 
f 64/64/64 66/66/66 65/65/65 
f 64/64/64 67/67/67 66/66/66 
f 67/67/67 68/68/68 69/69/69 
f 67/67/67 69/69/69 70/70/70 
f 71/71/71 72/72/72 73/73/73 
f 73/73/73 74/74/74 71/71/71 
f 74/74/74 75/75/75 71/71/71 
f 75/75/75 76/76/76 71/71/71 
f 74/74/74 73/73/73 77/77/77 
f 78/78/78 79/79/79 80/80/80 
f 78/78/78 80/80/80 81/81/81 
f 79/79/79 82/82/82 80/80/80 
f 79/79/79 83/83/83 82/82/82 
f 83/83/83 84/84/84 82/82/82 
f 83/83/83 85/85/85 84/84/84 
f 84/84/84 85/85/85 86/86/86 
f 84/84/84 86/86/86 87/87/87 
f 86/86/86 88/88/88 87/87/87 
f 86/86/86 89/89/89 88/88/88 
f 89/89/89 90/90/90 88/88/88 
f 89/89/89 91/91/91 90/90/90 
f 91/91/91 78/78/78 81/81/81 
f 91/91/91 81/81/81 90/90/90 
f 92/92/92 93/93/93 94/94/94 
f 95/95/95 96/96/96 97/97/97 
f 98/98/98 99/99/99 100/100/100 
f 101/101/101 102/102/102 103/103/103 
f 101/101/101 103/103/103 104/104/104 

