v 0.7318576574325562 3.3984670639038086 -2.6644508838653564
v 0.6174693703651428 1.576284408569336 -2.914506435394287
v 0.7399013638496399 1.576284408569336 -2.914506435394287
v 0.625281572341919 3.351005792617798 -2.6767659187316895
v 0.6174703240394592 1.5762816667556763 -1.9145013093948364
v 0.7399004101753235 1.5762816667556763 -1.9145013093948364
vn 0.985943078994751 0.11552240699529648 0.12070972472429276
vn -0.9914553165435791 -0.04777223989367485 -0.12138442695140839
vn 0.971171498298645 -0.09589164704084396 -0.21824456751346588
vn -0.9895066618919373 0.07874132692813873 -0.12114550918340683
vn -0.9751036763191223 -0.033997099846601486 0.2191278636455536
vn 0.9925135374069214 -0.012293889187276363 0.12151381373405457
vt 0.0 1.0
vt 0.0 1.0
vt 0.0 1.0
vt 0.0 1.0
vt 0.0 1.0
vt 0.0 1.0

g Megabot_MkII_Cockpit_Top_R_Col
s 1
usemtl Megabot_MkII_Cockpit_Top_R_Col
f 1/1/1 3/3/3 4/4/4 
f 3/3/3 2/2/2 4/4/4 
f 5/5/5 1/1/1 4/4/4 
f 5/5/5 4/4/4 2/2/2 
f 5/5/5 2/2/2 3/3/3 
f 6/6/6 5/5/5 3/3/3 
f 6/6/6 3/3/3 1/1/1 
f 6/6/6 1/1/1 5/5/5 

