v 0.625281572341919 3.351005792617798 -2.6767659187316895
v 0.11107688397169113 3.6951818466186523 -2.5842323303222656
v 0.10855796933174133 3.6802639961242676 -3.957153797149658
v 0.6200243234634399 3.359412670135498 -3.956390857696533
v 0.15017646551132202 1.131028413772583 1.9338433742523193
v 0.6233074069023132 0.824250340461731 1.83840811252594
v 0.6174693703651428 2.564500331878662 -3.9027225971221924
v 0.6174693703651428 1.576284408569336 -2.914506435394287
v 0.6174703240394592 1.5762816667556763 -1.9145013093948364
v 0.6233074069023132 0.824250340461731 1.83840811252594
v 0.6201666593551636 0.42425337433815 1.0215659141540527
v 0.11107688397169113 3.6951818466186523 -2.5842323303222656
v -0.9434182047843933 1.1510330438613892 1.940346598625183
v -0.9438009262084961 3.6896848678588867 -2.5887792110443115
v -0.9473256468772888 3.6781489849090576 -3.960771322250366
v 0.10855796933174133 3.6802639961242676 -3.957153797149658
v 0.1364872008562088 -0.5446050763130188 2.176201820373535
v 0.1349421590566635 1.1461197137832642 2.1762282848358154
v -0.9401859045028687 1.1513229608535767 2.1857197284698486
v -0.946488082408905 -0.5418270826339722 2.1840429306030273
v 0.13880783319473267 3.7936179637908936 -3.9571282863616943
v -0.9473600387573242 3.7957675457000732 -3.960707902908325
v -0.9438632726669312 3.793398141860962 -2.5618138313293457
v 0.1361386775970459 3.7872207164764404 -2.5634117126464844
v 0.7318576574325562 3.3984670639038086 -2.6644508838653564
v 0.7373055219650269 3.405033588409424 -3.956411123275757
v 0.1349421590566635 1.1461197137832642 2.1762282848358154
v 0.7318576574325562 3.3984670639038086 -2.6644508838653564
v 0.1349421590566635 1.1461197137832642 2.1762282848358154
v -0.9401859045028687 1.1513229608535767 2.1857197284698486
v 0.1349421590566635 1.1461197137832642 2.1762282848358154
v 0.7318576574325562 3.3984670639038086 -2.6644508838653564
v 0.7307935357093811 0.8238157629966736 1.7874871492385864
v 0.7381241321563721 -0.41604894399642944 1.6888269186019897
v 0.7339951395988464 -0.4237813353538513 0.49147894978523254
v 0.7397545576095581 -0.4230057895183563 0.087066650390625
v 0.7397545576095581 -0.4230057895183563 0.087066650390625
v 0.7399004101753235 1.5762816667556763 -1.9145013093948364
v 0.7381241321563721 -0.41604894399642944 1.6888269186019897
v 0.7320702075958252 -0.2420123964548111 1.7845863103866577
v 0.7307935357093811 0.8238157629966736 1.7874871492385864
v 0.13130882382392883 -0.4793808162212372 2.102064371109009
v 0.7318576574325562 3.3984670639038086 -2.6644508838653564
v 0.7307935357093811 0.8238157629966736 1.7874871492385864
v 0.7399013638496399 1.576284408569336 -2.914506435394287
v 0.7399013638496399 2.564500331878662 -3.9027225971221924
v 0.7373055219650269 3.405033588409424 -3.956411123275757
v -0.9419330954551697 -0.5047258138656616 2.051532030105591
v -0.946488082408905 -0.5418270826339722 2.1840429306030273
v -0.9401859045028687 1.1513229608535767 2.1857197284698486
v -0.9433550238609314 0.9474172592163086 1.998460292816162
v -0.9413676261901855 0.1655770093202591 1.5363126993179321
v -0.9401859045028687 1.1513229608535767 2.1857197284698486
v -0.9434182047843933 1.1510330438613892 1.940346598625183
v -0.9401859045028687 1.1513229608535767 2.1857197284698486
v -0.9413676261901855 0.1655770093202591 1.5363126993179321
v -0.9419330954551697 -0.5047258138656616 2.051532030105591
v -0.9471724629402161 0.34920942783355713 1.1556675434112549
v -0.9436337947845459 -0.4350816011428833 0.5129783749580383
v -0.9413676261901855 0.1655770093202591 1.5363126993179321
v -0.9419330954551697 -0.5047258138656616 2.051532030105591
v 0.6054044365882874 -0.42019128799438477 0.08827438205480576
v 0.6063657402992249 -0.43148359656333923 0.5198664665222168
v 0.6201666593551636 0.42425337433815 1.0215659141540527
v 0.6201666593551636 0.42425337433815 1.0215659141540527
v 0.6174703240394592 1.5762816667556763 -1.9145013093948364
v 0.7381241321563721 -0.41604894399642944 1.6888269186019897
v -0.9419330954551697 -0.5047258138656616 2.051532030105591
v 0.7339951395988464 -0.4237813353538513 0.49147894978523254
v 0.6054044365882874 -0.42019128799438477 0.08827438205480576
v -0.9419330954551697 -0.5047258138656616 2.051532030105591
v 0.13130882382392883 -0.4793808162212372 2.102064371109009
v -0.946488082408905 -0.5418270826339722 2.1840429306030273
v -0.9436337947845459 -0.4350816011428833 0.5129783749580383
v 0.6063657402992249 -0.43148359656333923 0.5198664665222168
v 0.6233074069023132 0.824250340461731 1.83840811252594
v 0.6201666593551636 0.42425337433815 1.0215659141540527
v 0.6229274868965149 0.16367782652378082 1.466956615447998
v -0.9413676261901855 0.1655770093202591 1.5363126993179321
v -0.9433550238609314 0.9474172592163086 1.998460292816162
v 0.1468508094549179 0.9482078552246094 2.006395101547241
v 0.369851291179657 0.11890289187431335 1.5477722883224487
v 0.37206870317459106 0.7256506085395813 1.8893014192581177
v -0.9434182047843933 1.1510330438613892 1.940346598625183
v 0.15017646551132202 1.131028413772583 1.9338433742523193
v 0.6229274868965149 0.16367782652378082 1.466956615447998
v 0.6233074069023132 0.824250340461731 1.83840811252594
v 0.13880783319473267 3.7936179637908936 -3.9571282863616943
v 0.10855796933174133 3.6802639961242676 -3.957153797149658
v -0.9473256468772888 3.6781489849090576 -3.960771322250366
v -0.9473600387573242 3.7957675457000732 -3.960707902908325
v 0.7373055219650269 3.405033588409424 -3.956411123275757
v 0.6200243234634399 3.359412670135498 -3.956390857696533
v 0.7399013638496399 2.564500331878662 -3.9027225971221924
v 0.6174693703651428 2.564500331878662 -3.9027225971221924
v 0.7399013638496399 1.576284408569336 -2.914506435394287
v 0.6174693703651428 1.576284408569336 -2.914506435394287
v -0.9434182047843933 1.1510330438613892 1.940346598625183
v -0.9401859045028687 1.1513229608535767 2.1857197284698486
v -0.9438632726669312 3.793398141860962 -2.5618138313293457
v -0.9438009262084961 3.6896848678588867 -2.5887792110443115
v -0.9473600387573242 3.7957675457000732 -3.960707902908325
v -0.9473256468772888 3.6781489849090576 -3.960771322250366
v 0.6174693703651428 1.576284408569336 -2.914506435394287
v 0.7399013638496399 1.576284408569336 -2.914506435394287
v 0.7399004101753235 1.5762816667556763 -1.9145013093948364
v 0.6174703240394592 1.5762816667556763 -1.9145013093948364
v 0.7397545576095581 -0.4230057895183563 0.087066650390625
v 0.6054044365882874 -0.42019128799438477 0.08827438205480576
v 0.7339951395988464 -0.4237813353538513 0.49147894978523254
v 0.6229274868965149 0.16367782652378082 1.466956615447998
v 0.6201666593551636 0.42425337433815 1.0215659141540527
v -0.9471724629402161 0.34920942783355713 1.1556675434112549
v -0.9471724629402161 0.34920942783355713 1.1556675434112549
v -0.9413676261901855 0.1655770093202591 1.5363126993179321
v 0.369851291179657 0.11890289187431335 1.5477722883224487
v 0.6063657402992249 -0.43148359656333923 0.5198664665222168
v -0.9436337947845459 -0.4350816011428833 0.5129783749580383
v 0.6201666593551636 0.42425337433815 1.0215659141540527
v 0.13130882382392883 -0.4793808162212372 2.102064371109009
v 0.1364872008562088 -0.5446050763130188 2.176201820373535
v -0.946488082408905 -0.5418270826339722 2.1840429306030273
vn -0.980842113494873 -0.1792415827512741 -0.0762968510389328
vn -0.19826816022396088 -0.8998099565505981 -0.388628214597702
vn -0.1991266906261444 -0.9752183556556702 -0.09642431885004044
vn -0.9970417618751526 -0.07366792112588882 -0.02192441187798977
vn -0.21856190264225006 -0.8390232920646667 -0.49826759099960327
vn -0.9750322699546814 -0.18378432095050812 -0.12464097142219543
vn -0.9999067783355713 -0.0034584254026412964 -0.013210208155214787
vn -0.9999009370803833 -0.012669607065618038 -0.006141676101833582
vn -0.9995934367179871 -0.02317335084080696 -0.016614146530628204
vn -0.9750322699546814 -0.18378432095050812 -0.12464097142219543
vn -0.9788121581077576 0.17937105894088745 -0.09875673800706863
vn -0.19826816022396088 -0.8998099565505981 -0.388628214597702
vn -0.17990952730178833 -0.8441914319992065 -0.5049487352371216
vn -0.12999704480171204 -0.9103952050209045 -0.39278680086135864
vn -0.10093675553798676 -0.9920525550842285 -0.07512319087982178
vn -0.1991266906261444 -0.9752183556556702 -0.09642431885004044
vn 0.14090074598789215 -0.15776503086090088 0.9773725867271423
vn 0.23268885910511017 0.7277853488922119 0.6451235413551331
vn -0.06320770829916 0.7363986968994141 0.6735886931419373
vn -0.2612820565700531 -0.1851503700017929 0.9473389983177185
vn 0.22192597389221191 0.9730406999588013 -0.06277476251125336
vn -0.09677651524543762 0.9922472238540649 -0.07797347754240036
vn -0.08007576316595078 0.9155687093734741 0.3941090404987335
vn 0.2345951497554779 0.8918379545211792 0.3867688477039337
vn 0.9752530455589294 0.20185109972953796 0.09020926058292389
vn 0.9962654709815979 0.08592203259468079 -0.008513792417943478
vn 0.23268885910511017 0.7277853488922119 0.6451235413551331
vn 0.9752530455589294 0.20185109972953796 0.09020926058292389
vn 0.23268885910511017 0.7277853488922119 0.6451235413551331
vn -0.06320770829916 0.7363986968994141 0.6735886931419373
vn 0.23268885910511017 0.7277853488922119 0.6451235413551331
vn 0.9752530455589294 0.20185109972953796 0.09020926058292389
vn 0.9666677117347717 0.19032180309295654 0.17126300930976868
vn 0.9784073233604431 -0.20668365061283112 0.0009822363499552011
vn 0.9728217720985413 -0.23154926300048828 -0.0016570599982514977
vn 0.9852241277694702 -0.17037786543369293 -0.017456619068980217
vn 0.9852241277694702 -0.17037786543369293 -0.017456619068980217
vn 0.9996410608291626 -0.022421278059482574 -0.014661502093076706
vn 0.9784073233604431 -0.20668365061283112 0.0009822363499552011
vn 0.9979531764984131 0.0005638788570649922 0.06394621729850769
vn 0.9666677117347717 0.19032180309295654 0.17126300930976868
vn 0.5596969127655029 -0.36861085891723633 0.7422029376029968
vn 0.9752530455589294 0.20185109972953796 0.09020926058292389
vn 0.9666677117347717 0.19032180309295654 0.17126300930976868
vn 0.999902606010437 -0.012941736727952957 -0.005217599682509899
vn 0.9999216794967651 -0.004619471728801727 -0.011634333059191704
vn 0.9962654709815979 0.08592203259468079 -0.008513792417943478
vn -0.4717639684677124 -0.880306601524353 -0.04999011754989624
vn -0.2612820565700531 -0.1851503700017929 0.9473389983177185
vn -0.06320770829916 0.7363986968994141 0.6735886931419373
vn -0.6420837044715881 0.29543280601501465 -0.7074235081672668
vn -0.7948097586631775 0.5429822206497192 -0.2710126042366028
vn -0.06320770829916 0.7363986968994141 0.6735886931419373
vn -0.17990952730178833 -0.8441914319992065 -0.5049487352371216
vn -0.06320770829916 0.7363986968994141 0.6735886931419373
vn -0.7948097586631775 0.5429822206497192 -0.2710126042366028
vn -0.4717639684677124 -0.880306601524353 -0.04999011754989624
vn -0.4320887625217438 0.7973854541778564 -0.4212787449359894
vn -0.21518298983573914 -0.7171431183815002 -0.6628740429878235
vn -0.7948097586631775 0.5429822206497192 -0.2710126042366028
vn -0.4717639684677124 -0.880306601524353 -0.04999011754989624
vn -0.981775164604187 -0.18901841342449188 -0.01973820850253105
vn -0.9868386387825012 -0.11623694747686386 -0.11242109537124634
vn -0.9788121581077576 0.17937105894088745 -0.09875673800706863
vn -0.9788121581077576 0.17937105894088745 -0.09875673800706863
vn -0.9995934367179871 -0.02317335084080696 -0.016614146530628204
vn 0.9784073233604431 -0.20668365061283112 0.0009822363499552011
vn -0.4717639684677124 -0.880306601524353 -0.04999011754989624
vn 0.9728217720985413 -0.23154926300048828 -0.0016570599982514977
vn -0.981775164604187 -0.18901841342449188 -0.01973820850253105
vn -0.4717639684677124 -0.880306601524353 -0.04999011754989624
vn 0.5596969127655029 -0.36861085891723633 0.7422029376029968
vn -0.2612820565700531 -0.1851503700017929 0.9473389983177185
vn -0.21518298983573914 -0.7171431183815002 -0.6628740429878235
vn -0.9868386387825012 -0.11623694747686386 -0.11242109537124634
vn -0.9750322699546814 -0.18378432095050812 -0.12464097142219543
vn -0.9788121581077576 0.17937105894088745 -0.09875673800706863
vn -0.9926215410232544 0.11494531482458115 0.03859996795654297
vn -0.7948097586631775 0.5429822206497192 -0.2710126042366028
vn -0.6420837044715881 0.29543280601501465 -0.7074235081672668
vn -0.005572420544922352 0.39321810007095337 -0.9194283485412598
vn -0.015529396943747997 0.9669116139411926 -0.2546387314796448
vn -0.04015699028968811 0.4708332121372223 -0.88130784034729
vn -0.17990952730178833 -0.8441914319992065 -0.5049487352371216
vn -0.21856190264225006 -0.8390232920646667 -0.49826759099960327
vn -0.9926215410232544 0.11494531482458115 0.03859996795654297
vn -0.9750322699546814 -0.18378432095050812 -0.12464097142219543
vn 0.22192597389221191 0.9730406999588013 -0.06277476251125336
vn -0.1991266906261444 -0.9752183556556702 -0.09642431885004044
vn -0.10093675553798676 -0.9920525550842285 -0.07512319087982178
vn -0.09677651524543762 0.9922472238540649 -0.07797347754240036
vn 0.9962654709815979 0.08592203259468079 -0.008513792417943478
vn -0.9970417618751526 -0.07366792112588882 -0.02192441187798977
vn 0.9999216794967651 -0.004619471728801727 -0.011634333059191704
vn -0.9999067783355713 -0.0034584254026412964 -0.013210208155214787
vn 0.999902606010437 -0.012941736727952957 -0.005217599682509899
vn -0.9999009370803833 -0.012669607065618038 -0.006141676101833582
vn -0.17990952730178833 -0.8441914319992065 -0.5049487352371216
vn -0.06320770829916 0.7363986968994141 0.6735886931419373
vn -0.08007576316595078 0.9155687093734741 0.3941090404987335
vn -0.12999704480171204 -0.9103952050209045 -0.39278680086135864
vn -0.09677651524543762 0.9922472238540649 -0.07797347754240036
vn -0.10093675553798676 -0.9920525550842285 -0.07512319087982178
vn -0.9999009370803833 -0.012669607065618038 -0.006141676101833582
vn 0.999902606010437 -0.012941736727952957 -0.005217599682509899
vn 0.9996410608291626 -0.022421278059482574 -0.014661502093076706
vn -0.9995934367179871 -0.02317335084080696 -0.016614146530628204
vn 0.9852241277694702 -0.17037786543369293 -0.017456619068980217
vn -0.981775164604187 -0.18901841342449188 -0.01973820850253105
vn 0.9728217720985413 -0.23154926300048828 -0.0016570599982514977
vn -0.9926215410232544 0.11494531482458115 0.03859996795654297
vn -0.9788121581077576 0.17937105894088745 -0.09875673800706863
vn -0.4320887625217438 0.7973854541778564 -0.4212787449359894
vn -0.4320887625217438 0.7973854541778564 -0.4212787449359894
vn -0.7948097586631775 0.5429822206497192 -0.2710126042366028
vn -0.015529396943747997 0.9669116139411926 -0.2546387314796448
vn -0.9868386387825012 -0.11623694747686386 -0.11242109537124634
vn -0.21518298983573914 -0.7171431183815002 -0.6628740429878235
vn -0.9788121581077576 0.17937105894088745 -0.09875673800706863
vn 0.5596969127655029 -0.36861085891723633 0.7422029376029968
vn 0.14090074598789215 -0.15776503086090088 0.9773725867271423
vn -0.2612820565700531 -0.1851503700017929 0.9473389983177185
vt 0.2543199062347412 0.08029651641845703
vt 0.2547927498817444 0.08014273643493652
vt 0.2547808289527893 0.08249783515930176
vt 0.25434136390686035 0.08249783515930176
vt 0.23861074447631836 0.07863503694534302
vt 0.23796045780181885 0.07879352569580078
vt 0.25317782163619995 0.08249783515930176
vt 0.2517702579498291 0.08079719543457031
vt 0.252726674079895 0.0793723464012146
vt 0.2480120062828064 0.020446598529815674
vt 0.24278724193572998 0.03387254476547241
vt 0.23866713047027588 0.08629560470581055
vt 0.23891139030456543 0.07895064353942871
vt 0.24023699760437012 0.08630061149597168
vt 0.24023699760437012 0.08865070343017578
vt 0.23866713047027588 0.08865070343017578
vt 0.1573270708322525 0.04020833969116211
vt 0.1573270708322525 0.03893083333969116
vt 0.15748299658298492 0.03893077373504639
vt 0.15748299658298492 0.04020833969116211
vt 0.1860976666212082 0.0570375919342041
vt 0.1869410276412964 0.0570375919342041
vt 0.1869410276412964 0.05807238817214966
vt 0.1860976666212082 0.05807238817214966
vt 0.18565385043621063 0.05799698829650879
vt 0.18565385043621063 0.0570375919342041
vt 0.18649452924728394 0.06142449378967285
vt 0.18565385043621063 0.05799698829650879
vt 0.18649452924728394 0.06142449378967285
vt 0.1869410276412964 0.05880451202392578
vt 0.18649452924728394 0.06142449378967285
vt 0.18565385043621063 0.05799698829650879
vt 0.18665242195129395 0.06375449895858765
vt 0.18570196628570557 0.06367707252502441
vt 0.1856984794139862 0.06279969215393066
vt 0.18569712340831757 0.062460482120513916
vt 0.18569712340831757 0.062460482120513916
vt 0.18707293272018433 0.06153947114944458
vt 0.18570196628570557 0.06367707252502441
vt 0.18584083020687103 0.06375449895858765
vt 0.18665242195129395 0.06375449895858765
vt 0.1856592893600464 0.06398642063140869
vt 0.1885376274585724 0.06049907207489014
vt 0.18665242195129395 0.06375449895858765
vt 0.18715962767601013 0.06026959419250488
vt 0.18788956105709076 0.059539616107940674
vt 0.1885376274585724 0.059539616107940674
vt 0.210149884223938 0.03264904022216797
vt 0.15538103878498077 0.046501994132995605
vt 0.15559819340705872 0.045103371143341064
vt 0.15553762018680573 0.04537677764892578
vt 0.2634690999984741 0.0331953763961792
vt 0.15559819340705872 0.045103371143341064
vt 0.15572229027748108 0.045156240463256836
vt 0.15559819340705872 0.045103371143341064
vt 0.2634690999984741 0.0331953763961792
vt 0.210149884223938 0.03264904022216797
vt 0.26389360427856445 0.03407067060470581
vt 0.2625933885574341 0.03495490550994873
vt 0.2634690999984741 0.0331953763961792
vt 0.210149884223938 0.03264904022216797
vt 0.2534008026123047 0.07891881465911865
vt 0.275825560092926 0.07707750797271729
vt 0.24278724193572998 0.03387254476547241
vt 0.24278724193572998 0.03387254476547241
vt 0.252726674079895 0.0793723464012146
vt 0.18450181186199188 0.055493950843811035
vt 0.2774312198162079 0.07443737983703613
vt 0.18450181186199188 0.05637139081954956
vt 0.18460841476917267 0.05671060085296631
vt 0.18510159850120544 0.055233120918273926
vt 0.18494567275047302 0.05518454313278198
vt 0.18510159850120544 0.05512654781341553
vt 0.27808576822280884 0.07707750797271729
vt 0.275825560092926 0.07707750797271729
vt 0.2480120062828064 0.020446598529815674
vt 0.24278724193572998 0.03387254476547241
vt 0.2485164999961853 0.021535873413085938
vt 0.23896116018295288 0.036926984786987305
vt 0.2378278374671936 0.035345256328582764
vt 0.2378278374671936 0.03498196601867676
vt 0.23896723985671997 0.03460359573364258
vt 0.238131582736969 0.0346035361289978
vt 0.2375585436820984 0.035345256328582764
vt 0.23759114742279053 0.03498196601867676
vt 0.2389088273048401 0.03419637680053711
vt 0.2380073070526123 0.034196317195892334
vt 0.1869611144065857 0.042640864849090576
vt 0.18699035048484802 0.042534053325653076
vt 0.18780457973480225 0.04253411293029785
vt 0.18780453503131866 0.042640864849090576
vt 0.18651731312274933 0.042350828647613525
vt 0.1866239309310913 0.04230618476867676
vt 0.18651731312274933 0.04170280694961548
vt 0.1866239309310913 0.04170280694961548
vt 0.18651731312274933 0.04097282886505127
vt 0.1866239309310913 0.04097282886505127
vt 0.16921168565750122 0.04200690984725952
vt 0.16930481791496277 0.041954994201660156
vt 0.1697130650281906 0.04268723726272583
vt 0.16961301863193512 0.0427132248878479
vt 0.1697130650281906 0.04372197389602661
vt 0.1696062982082367 0.04372197389602661
vt 0.18460841476917267 0.058901429176330566
vt 0.18450181186199188 0.058901429176330566
vt 0.18450181186199188 0.05817145109176636
vt 0.18460841476917267 0.05817145109176636
vt 0.18450181186199188 0.05671060085296631
vt 0.18460841476917267 0.05671060085296631
vt 0.18450181186199188 0.05637139081954956
vt 0.24181360006332397 0.03403449058532715
vt 0.2424410581588745 0.03403443098068237
vt 0.24243974685668945 0.036765098571777344
vt 0.24243974685668945 0.036765098571777344
vt 0.24171537160873413 0.036765098571777344
vt 0.2417130470275879 0.03444170951843262
vt 0.24408555030822754 0.03387254476547241
vt 0.24408555030822754 0.03660315275192261
vt 0.24278724193572998 0.03387254476547241
vt 0.18494567275047302 0.05518454313278198
vt 0.18494567275047302 0.05512654781341553
vt 0.18510159850120544 0.05512654781341553

g Megabot_MkII_Cockpit_Top_R_Col
s 1
usemtl Megabot_MkII_Cockpit_Top_R_Col
f 1/1/1 2/2/2 3/3/3 
f 1/1/1 3/3/3 4/4/4 
f 1/1/1 5/5/5 2/2/2 
f 1/1/1 6/6/6 5/5/5 
f 1/1/1 4/4/4 7/7/7 
f 1/1/1 7/7/7 8/8/8 
f 1/1/1 8/8/8 9/9/9 
f 10/10/10 1/1/1 9/9/9 
f 11/11/11 10/10/10 9/9/9 
f 12/12/12 5/5/5 13/13/13 
f 12/12/12 13/13/13 14/14/14 
f 15/15/15 12/12/12 14/14/14 
f 15/15/15 16/16/16 12/12/12 
f 17/17/17 18/18/18 19/19/19 
f 17/17/17 19/19/19 20/20/20 
f 21/21/21 22/22/22 23/23/23 
f 21/21/21 23/23/23 24/24/24 
f 25/25/25 21/21/21 24/24/24 
f 25/25/25 26/26/26 21/21/21 
f 23/23/23 27/27/27 24/24/24 
f 28/28/28 24/24/24 29/29/29 
f 23/23/23 30/30/30 31/31/31 
f 32/32/32 31/31/31 33/33/33 
f 34/34/34 35/35/35 36/36/36 
f 37/37/37 38/38/38 39/39/39 
f 38/38/38 40/40/40 39/39/39 
f 38/38/38 41/41/41 40/40/40 
f 39/39/39 40/40/40 42/42/42 
f 38/38/38 43/43/43 44/44/44 
f 38/38/38 45/45/45 43/43/43 
f 45/45/45 46/46/46 43/43/43 
f 46/46/46 47/47/47 43/43/43 
f 48/48/48 49/49/49 50/50/50 
f 50/50/50 51/51/51 52/52/52 
f 51/51/51 53/53/53 54/54/54 
f 55/55/55 56/56/56 57/57/57 
f 56/56/56 58/58/58 59/59/59 
f 60/60/60 59/59/59 61/61/61 
f 62/62/62 63/63/63 64/64/64 
f 65/65/65 66/66/66 62/62/62 
f 63/63/63 67/67/67 68/68/68 
f 69/69/69 67/67/67 63/63/63 
f 69/69/69 63/63/63 70/70/70 
f 71/71/71 67/67/67 72/72/72 
f 72/72/72 73/73/73 71/71/71 
f 68/68/68 74/74/74 75/75/75 
f 76/76/76 77/77/77 78/78/78 
f 79/79/79 80/80/80 81/81/81 
f 81/81/81 82/82/82 79/79/79 
f 81/81/81 83/83/83 82/82/82 
f 84/84/84 81/81/81 80/80/80 
f 84/84/84 85/85/85 81/81/81 
f 85/85/85 83/83/83 81/81/81 
f 86/86/86 82/82/82 83/83/83 
f 86/86/86 83/83/83 87/87/87 
f 85/85/85 87/87/87 83/83/83 
f 88/88/88 89/89/89 90/90/90 
f 88/88/88 90/90/90 91/91/91 
f 89/89/89 88/88/88 92/92/92 
f 89/89/89 92/92/92 93/93/93 
f 93/93/93 92/92/92 94/94/94 
f 93/93/93 94/94/94 95/95/95 
f 95/95/95 94/94/94 96/96/96 
f 95/95/95 96/96/96 97/97/97 
f 98/98/98 99/99/99 100/100/100 
f 98/98/98 100/100/100 101/101/101 
f 101/101/101 100/100/100 102/102/102 
f 101/101/101 102/102/102 103/103/103 
f 104/104/104 105/105/105 106/106/106 
f 104/104/104 106/106/106 107/107/107 
f 107/107/107 106/106/106 108/108/108 
f 107/107/107 108/108/108 109/109/109 
f 109/109/109 108/108/108 110/110/110 
f 111/111/111 112/112/112 113/113/113 
f 114/114/114 115/115/115 111/111/111 
f 115/115/115 116/116/116 111/111/111 
f 117/117/117 118/118/118 114/114/114 
f 117/117/117 114/114/114 119/119/119 
f 120/120/120 121/121/121 122/122/122 

