v 0.6973422765731812 -0.013430560007691383 1.4254196882247925
v -0.9480977654457092 -0.6637029647827148 0.46677955985069275
v 0.6962509751319885 0.4686492085456848 0.510729193687439
v -0.948188066482544 0.4686492085456848 0.510729193687439
v -0.9492794871330261 -0.013430560007691383 1.4254196882247925
v 0.696160614490509 -0.6637029647827148 0.46677955985069275
v 0.695496141910553 -0.7740886807441711 1.3369052410125732
v -0.9511951208114624 -0.6562702059745789 0.9521287679672241
v 0.699258029460907 -0.6562702059745789 0.9521287679672241
v -0.9474332332611084 -0.7740886807441711 1.3369052410125732
vn 0.2672370672225952 0.6842301487922668 0.6785377860069275
vn -0.12310807406902313 -0.5492973923683167 -0.8265087604522705
vn 0.37579718232154846 0.4544088542461395 -0.8076441287994385
vn -0.40336188673973083 0.9113260507583618 -0.08236515522003174
vn -0.30334314703941345 0.32961195707321167 0.89405757188797
vn 0.24055281281471252 -0.5374701023101807 -0.8082452416419983
vn 0.09479619562625885 -0.8236960172653198 0.5590514540672302
vn -0.9999994039535522 -0.000983422389253974 -0.0005656224093399942
vn 0.9999994039535522 -0.00098339410033077 -0.0005655796849168837
vn -0.18699581921100616 -0.813078761100769 0.5513035655021667
vt 0.0 1.0
vt 0.0 1.0
vt 0.0 1.0
vt 0.0 1.0
vt 0.0 1.0
vt 0.0 1.0
vt 0.0 1.0
vt 0.0 1.0
vt 0.0 1.0
vt 0.0 1.0

g Megabot_MkII_Cockpit_Mid_R_Col
s 1
usemtl Megabot_MkII_Cockpit_Mid_R_Col
f 1/1/1 3/3/3 4/4/4 
f 3/3/3 2/2/2 4/4/4 
f 5/5/5 1/1/1 4/4/4 
f 6/6/6 2/2/2 3/3/3 
f 7/7/7 1/1/1 5/5/5 
f 7/7/7 2/2/2 6/6/6 
f 8/8/8 5/5/5 4/4/4 
f 8/8/8 4/4/4 2/2/2 
f 9/9/9 6/6/6 3/3/3 
f 9/9/9 3/3/3 1/1/1 
f 9/9/9 7/7/7 6/6/6 
f 9/9/9 1/1/1 7/7/7 
f 10/10/10 7/7/7 5/5/5 
f 10/10/10 5/5/5 8/8/8 
f 10/10/10 8/8/8 2/2/2 
f 10/10/10 2/2/2 7/7/7 

