v 0.987084150314331 2.3912060260772705 2.5624752044677734
v 0.2717928886413574 2.044799327850342 2.2844574451446533
v 0.987084150314331 2.406832456588745 2.284456729888916
v 0.07665496319532394 2.406832456588745 2.284456729888916
v 0.0130157470703125 2.321092128753662 2.5624752044677734
v 0.987084150314331 2.1240668296813965 2.2844574451446533
v 0.256165474653244 2.05127215385437 2.562474250793457
v 0.0831281989812851 2.3912060260772705 2.5624752044677734
v -0.0026116943918168545 2.3275656700134277 2.2844579219818115
v 0.987084150314331 2.139693260192871 2.5624752044677734
vn 0.23788388073444366 0.8078438639640808 0.5392584204673767
vn -0.08868088573217392 -0.43129026889801025 -0.8978443145751953
vn 0.1351809948682785 0.4352441132068634 -0.8901059627532959
vn -0.03503118082880974 0.8368659615516663 -0.5462859272956848
vn -0.17444586753845215 -0.08880012482404709 0.9806544780731201
vn 0.40347471833229065 -0.8312475085258484 -0.3824077248573303
vn -0.17706717550754547 -0.9034051299095154 0.39052075147628784
vn -0.13544771075248718 0.9550909399986267 0.2635437250137329
vn -0.8707402348518372 -0.4566947817802429 -0.18232227861881256
vn 0.17990083992481232 -0.3868214786052704 0.9044361710548401
vt 0.0 1.0
vt 0.0 1.0
vt 0.0 1.0
vt 0.0 1.0
vt 0.0 1.0
vt 0.0 1.0
vt 0.0 1.0
vt 0.0 1.0
vt 0.0 1.0
vt 0.0 1.0

g Megabot_MkII_Cockpit_Front_L_Col
s 1
usemtl Megabot_MkII_Cockpit_Front_L_Col
f 1/1/1 3/3/3 4/4/4 
f 3/3/3 2/2/2 4/4/4 
f 6/6/6 2/2/2 3/3/3 
f 6/6/6 3/3/3 1/1/1 
f 7/7/7 2/2/2 6/6/6 
f 8/8/8 5/5/5 1/1/1 
f 8/8/8 1/1/1 4/4/4 
f 9/9/9 4/4/4 2/2/2 
f 9/9/9 7/7/7 5/5/5 
f 9/9/9 2/2/2 7/7/7 
f 9/9/9 8/8/8 4/4/4 
f 9/9/9 5/5/5 8/8/8 
f 10/10/10 7/7/7 6/6/6 
f 10/10/10 6/6/6 1/1/1 
f 10/10/10 1/1/1 5/5/5 
f 10/10/10 5/5/5 7/7/7 

