v 3.4948551654815674 0.985444188117981 0.74416184425354
v 3.6687960624694824 0.11154387146234512 -0.7443464398384094
v 3.9514641761779785 0.8274242281913757 -0.747118353843689
v 3.66623592376709 0.8884837627410889 -0.7443467378616333
v 3.496917963027954 -0.3787302076816559 -0.02200622484087944
v 3.951484203338623 0.17260991036891937 -0.7471279501914978
v 3.7930126190185547 0.7527657747268677 0.618179202079773
vn -0.9012210965156555 0.41488587856292725 0.12518024444580078
vn -0.7043915390968323 -0.27813589572906494 -0.6530490517616272
vn 0.8498650789260864 0.526326060295105 -0.026649905368685722
vn -0.9294914603233337 0.21048396825790405 -0.30288952589035034
vn -0.8378278613090515 -0.5197240710258484 0.16712696850299835
vn 0.9470780491828918 -0.318991094827652 -0.03588638827204704
vn 0.9246708154678345 -0.13426125049591064 0.35631152987480164
vt 0.0 1.0
vt 0.0 1.0
vt 0.0 1.0
vt 0.0 1.0
vt 0.0 1.0
vt 0.0 1.0
vt 0.0 1.0

g Megabot_MkII_Cockpit_Mid_R_Col
s 1
usemtl Megabot_MkII_Cockpit_Mid_R_Col
f 1/1/1 3/3/3 4/4/4 
f 5/5/5 1/1/1 4/4/4 
f 5/5/5 4/4/4 2/2/2 
f 6/6/6 2/2/2 4/4/4 
f 6/6/6 4/4/4 3/3/3 
f 6/6/6 5/5/5 2/2/2 
f 7/7/7 6/6/6 3/3/3 
f 7/7/7 3/3/3 1/1/1 
f 7/7/7 1/1/1 5/5/5 
f 7/7/7 5/5/5 6/6/6 

