v 3.7930126190185547 0.7527657747268677 0.618179202079773
v 0.8210793137550354 0.11207538843154907 -0.7469152808189392
v 3.6687960624694824 0.11154387146234512 -0.7443464398384094
v 0.8210836052894592 0.8879526257514954 -0.7468997240066528
v 3.66623592376709 0.8884837627410889 -0.7443467378616333
v 3.496917963027954 -0.3787302076816559 -0.02200622484087944
v 3.795722007751465 -0.11387574672698975 0.1297161877155304
vn -0.14590664207935333 0.35293203592300415 0.9242024421691895
vn -0.5224834084510803 -0.8488374948501587 -0.08053501695394516
vn 0.20842185616493225 -0.5052127838134766 -0.8374487161636353
vn -0.2614683508872986 0.9577574729919434 0.11972834169864655
vn 0.3160071074962616 0.6460927724838257 -0.6947687864303589
vn -0.19424644112586975 -0.8806347250938416 0.4321466386318207
vn 0.9892221689224243 -0.14475035667419434 -0.02206246554851532
vt 0.0 1.0
vt 0.0 1.0
vt 0.0 1.0
vt 0.0 1.0
vt 0.0 1.0
vt 0.0 1.0
vt 0.0 1.0

g Megabot_MkII_Cockpit_Mid_R_Col
s 1
usemtl Megabot_MkII_Cockpit_Mid_R_Col
f 2/2/2 1/1/1 4/4/4 
f 5/5/5 4/4/4 1/1/1 
f 5/5/5 3/3/3 2/2/2 
f 5/5/5 2/2/2 4/4/4 
f 6/6/6 1/1/1 2/2/2 
f 6/6/6 2/2/2 3/3/3 
f 7/7/7 5/5/5 1/1/1 
f 7/7/7 3/3/3 5/5/5 
f 7/7/7 6/6/6 3/3/3 
f 7/7/7 1/1/1 6/6/6 

