v 0.9616541862487793 0.8079520463943481 2.3182737827301025
v 0.29423636198043823 -0.3566761612892151 1.4962133169174194
v 0.9616541862487793 0.8079520463943481 1.4962133169174194
v 0.29423636198043823 0.8079520463943481 1.4962133169174194
v 0.29423636198043823 -0.3566761612892151 2.3182737827301025
v 0.9616541862487793 -0.3566761612892151 1.4962133169174194
v 0.29423636198043823 0.8079520463943481 2.3182737827301025
v 0.9616541862487793 -0.3566761612892151 2.3182737827301025
vn 0.7093145251274109 0.4064895212650299 0.5758812427520752
vn -0.5021995902061462 -0.28779739141464233 -0.8154557943344116
vn 0.5021995902061462 0.28779739141464233 -0.8154557943344116
vn -0.8183528780937195 0.46897655725479126 -0.33220386505126953
vn -0.7093145251274109 -0.4064895212650299 0.5758812427520752
vn 0.8183528780937195 -0.46897655725479126 -0.33220386505126953
vn -0.7093145251274109 0.4064895212650299 0.5758812427520752
vn 0.7093145251274109 -0.4064895212650299 0.5758812427520752
vt 0.0 1.0
vt 0.0 1.0
vt 0.0 1.0
vt 0.0 1.0
vt 0.0 1.0
vt 0.0 1.0
vt 0.0 1.0
vt 0.0 1.0

g Megabot_MkII_Cockpit_Front_L_Col
s 1
usemtl Megabot_MkII_Cockpit_Front_L_Col
f 1/1/1 3/3/3 4/4/4 
f 3/3/3 2/2/2 4/4/4 
f 5/5/5 4/4/4 2/2/2 
f 6/6/6 2/2/2 3/3/3 
f 6/6/6 3/3/3 1/1/1 
f 6/6/6 5/5/5 2/2/2 
f 7/7/7 5/5/5 1/1/1 
f 7/7/7 1/1/1 4/4/4 
f 7/7/7 4/4/4 5/5/5 
f 8/8/8 6/6/6 1/1/1 
f 8/8/8 1/1/1 5/5/5 
f 8/8/8 5/5/5 6/6/6 

