v 0.9616541862487793 0.07491616159677505 1.3471763134002686
v -0.604685366153717 -0.800764799118042 0.45323118567466736
v 0.9616541862487793 0.18740881979465485 0.45323115587234497
v -0.604685366153717 0.18740881979465485 0.45323115587234497
v -0.14341430366039276 0.07225578278303146 1.347175121307373
v 0.9616541862487793 0.18740881979465485 0.9492833018302917
v 0.9616541862487793 -1.4101954698562622 0.815845787525177
v -0.7516853213310242 0.18740881979465485 0.9492833018302917
v 0.9616541862487793 -0.800764799118042 0.45323118567466736
v -0.14087775349617004 -1.3300211429595947 1.3471763134002686
v -0.1249227225780487 -1.4101954698562622 0.815845787525177
v -0.7516853213310242 -0.7208555936813354 0.9492833018302917
v 0.9616541862487793 -1.3300106525421143 1.3471763134002686
vn 0.5195462703704834 0.26621192693710327 0.8119130730628967
vn -0.16005174815654755 -0.2441830188035965 -0.9564298987388611
vn 0.4915466010570526 0.21200288832187653 -0.8446518778800964
vn -0.3589589595794678 0.6207796931266785 -0.6969799995422363
vn -0.28320080041885376 0.13498084247112274 0.9495143294334412
vn 0.024080488830804825 0.9962441325187683 0.08317281305789948
vn 0.6964696645736694 -0.5938894152641296 -0.402771919965744
vn -0.36015841364860535 0.8733013272285461 0.32807108759880066
vn 0.138299822807312 -0.21921704709529877 -0.9658244848251343
vn -0.20203538239002228 -0.3306442201137543 0.9218764901161194
vn -0.37494799494743347 -0.8698891401290894 -0.32047900557518005
vn -0.8936777114868164 -0.21866700053215027 0.3918227255344391
vn 0.39445099234580994 -0.309547483921051 0.8652101755142212
vt 0.0 1.0
vt 0.0 1.0
vt 0.0 1.0
vt 0.0 1.0
vt 0.0 1.0
vt 0.0 1.0
vt 0.0 1.0
vt 0.0 1.0
vt 0.0 1.0
vt 0.0 1.0
vt 0.0 1.0
vt 0.0 1.0
vt 0.0 1.0

g Megabot_MkII_Cockpit_Front_L_Col
s 1
usemtl Megabot_MkII_Cockpit_Front_L_Col
f 3/3/3 2/2/2 4/4/4 
f 6/6/6 1/1/1 3/3/3 
f 6/6/6 3/3/3 4/4/4 
f 7/7/7 3/3/3 1/1/1 
f 8/8/8 6/6/6 4/4/4 
f 8/8/8 5/5/5 1/1/1 
f 8/8/8 1/1/1 6/6/6 
f 9/9/9 7/7/7 2/2/2 
f 9/9/9 2/2/2 3/3/3 
f 9/9/9 3/3/3 7/7/7 
f 10/10/10 1/1/1 5/5/5 
f 11/11/11 2/2/2 7/7/7 
f 11/11/11 7/7/7 10/10/10 
f 12/12/12 11/11/11 10/10/10 
f 12/12/12 2/2/2 11/11/11 
f 12/12/12 8/8/8 4/4/4 
f 12/12/12 4/4/4 2/2/2 
f 12/12/12 10/10/10 5/5/5 
f 12/12/12 5/5/5 8/8/8 
f 13/13/13 10/10/10 7/7/7 
f 13/13/13 7/7/7 1/1/1 
f 13/13/13 1/1/1 10/10/10 

