v 1.131250023841858 1.1321896314620972 -1.3704787492752075
v 0.5564550757408142 1.1292941570281982 -1.3788821697235107
v 0.5564550757408142 0.849294126033783 -0.9435849785804749
v 1.1447558403015137 0.8340032696723938 -0.9508358836174011
v 1.1172558069229126 1.1263985633850098 -1.8716976642608643
v 0.5564550757408142 1.1271014213562012 -1.8778960704803467
v 0.5564550757408142 1.1292941570281982 -1.3788821697235107
v 1.131250023841858 1.1321896314620972 -1.3704787492752075
v 1.1172558069229126 1.1263985633850098 -1.8716976642608643
v 1.131250023841858 1.1321896314620972 -1.3704787492752075
v 1.1447558403015137 0.8340032696723938 -0.9508358836174011
v 0.9731835722923279 -0.2869406044483185 -1.7442269325256348
v 0.5564550757408142 -0.2863864004611969 -1.7443087100982666
v 0.5564550757408142 1.1271014213562012 -1.8778960704803467
v 1.1172558069229126 1.1263985633850098 -1.8716976642608643
v 1.0452147722244263 0.40075650811195374 -1.8482482433319092
v 0.9731835722923279 -0.2869406044483185 -1.7442269325256348
v 0.9731835722923279 -0.3131580948829651 -1.1390985250473022
v 0.5564550757408142 -0.31502532958984375 -1.1426687240600586
v 0.5564550757408142 -0.2863864004611969 -1.7443087100982666
v 0.5564550757408142 -0.2863864004611969 -1.7443087100982666
v 0.5564550757408142 -0.31502532958984375 -1.1426687240600586
v 0.5564550757408142 0.849294126033783 -0.9435849785804749
v 0.5564550757408142 0.849294126033783 -0.9435849785804749
v 0.5564550757408142 1.1271014213562012 -1.8778960704803467
v 0.5564550757408142 -0.2863864004611969 -1.7443087100982666
v 0.5564550757408142 0.849294126033783 -0.9435849785804749
v 0.5564550757408142 1.1292941570281982 -1.3788821697235107
v 0.5564550757408142 1.1271014213562012 -1.8778960704803467
v 1.0452147722244263 0.40075650811195374 -1.8482482433319092
v 1.1172558069229126 1.1263985633850098 -1.8716976642608643
v 1.1447558403015137 0.8340032696723938 -0.9508358836174011
v 1.0589648485183716 0.24145019054412842 -1.083964467048645
v 0.9731835722923279 -0.3131580948829651 -1.1390985250473022
v 0.9731835722923279 -0.2869406044483185 -1.7442269325256348
v 1.1447558403015137 0.8340032696723938 -0.9508358836174011
v 0.5564550757408142 0.849294126033783 -0.9435849785804749
v 0.5564550757408142 -0.31502532958984375 -1.1426687240600586
v 0.5564550757408142 -0.31502532958984375 -1.1426687240600586
v 0.9731835722923279 -0.3131580948829651 -1.1390985250473022
v 1.1447558403015137 0.8340032696723938 -0.9508358836174011
v 1.0589648485183716 0.24145019054412842 -1.083964467048645
vn 0.22915105521678925 0.9335436820983887 0.2756556570529938
vn -0.9542238116264343 0.2871396541595459 0.08371216058731079
vn -0.8660378456115723 0.10626178979873657 0.4885559380054474
vn 0.6780374050140381 0.07767842710018158 0.7309112548828125
vn 0.529755175113678 0.22056470811367035 -0.8189692497253418
vn -0.817632257938385 0.17473533749580383 -0.5485845804214478
vn -0.9542238116264343 0.2871396541595459 0.08371216058731079
vn 0.22915105521678925 0.9335436820983887 0.2756556570529938
vn 0.529755175113678 0.22056470811367035 -0.8189692497253418
vn 0.22915105521678925 0.9335436820983887 0.2756556570529938
vn 0.6780374050140381 0.07767842710018158 0.7309112548828125
vn 0.4665544331073761 -0.39274489879608154 -0.7925139665603638
vn -0.8394680023193359 -0.220450758934021 -0.4966840147972107
vn -0.817632257938385 0.17473533749580383 -0.5485845804214478
vn 0.529755175113678 0.22056470811367035 -0.8189692497253418
vn 0.5548327565193176 -0.139799103140831 -0.8201321959495544
vn 0.4665544331073761 -0.39274489879608154 -0.7925139665603638
vn 0.5195026993751526 -0.472591370344162 0.7118809223175049
vn -0.8575564026832581 -0.2680632472038269 0.4390207529067993
vn -0.8394680023193359 -0.220450758934021 -0.4966840147972107
vn -0.8394680023193359 -0.220450758934021 -0.4966840147972107
vn -0.8575564026832581 -0.2680632472038269 0.4390207529067993
vn -0.8660378456115723 0.10626178979873657 0.4885559380054474
vn -0.8660378456115723 0.10626178979873657 0.4885559380054474
vn -0.817632257938385 0.17473533749580383 -0.5485845804214478
vn -0.8394680023193359 -0.220450758934021 -0.4966840147972107
vn -0.8660378456115723 0.10626178979873657 0.4885559380054474
vn -0.9542238116264343 0.2871396541595459 0.08371216058731079
vn -0.817632257938385 0.17473533749580383 -0.5485845804214478
vn 0.5548327565193176 -0.139799103140831 -0.8201321959495544
vn 0.529755175113678 0.22056470811367035 -0.8189692497253418
vn 0.6780374050140381 0.07767842710018158 0.7309112548828125
vn 0.6810861825942993 -0.20410138368606567 0.7031815052032471
vn 0.5195026993751526 -0.472591370344162 0.7118809223175049
vn 0.4665544331073761 -0.39274489879608154 -0.7925139665603638
vn 0.6780374050140381 0.07767842710018158 0.7309112548828125
vn -0.8660378456115723 0.10626178979873657 0.4885559380054474
vn -0.8575564026832581 -0.2680632472038269 0.4390207529067993
vn -0.8575564026832581 -0.2680632472038269 0.4390207529067993
vn 0.5195026993751526 -0.472591370344162 0.7118809223175049
vn 0.6780374050140381 0.07767842710018158 0.7309112548828125
vn 0.6810861825942993 -0.20410138368606567 0.7031815052032471
vt 0.0 1.0
vt 0.0 0.0
vt 1.0 0.0
vt 1.0 1.0
vt 0.0 1.0
vt 0.0 0.0
vt 1.0 0.0
vt 1.0 1.0
vt 1.0 1.0
vt 0.7900649905204773 0.6499535143375397
vt 0.9999226331710815 0.25
vt 1.0 1.0
vt 1.0 0.0
vt 0.0 1.0
vt 0.5 1.0
vt 0.75 1.0
vt 1.0 1.0
vt 0.5 0.0
vt 0.5 0.0
vt 0.0 1.0
vt -3.4924599323638006e-10 1.0000000004527263
vt 0.4334128797054291 0.727562665939331
vt 0.0 0.0
vt 0.0 0.0
vt 1.0 1.0
vt -3.4924599323638006e-10 1.0000000004527263
vt 0.0 0.0
vt 0.0 1.0
vt 1.0 1.0
vt 0.5 0.0
vt 0.0 0.0
vt 0.0 1.0
vt 0.5 0.7999999970197678
vt 1.0 0.5999999940395355
vt 1.0 0.0
vt 0.0 1.0
vt 1.0 0.0
vt 0.4334128797054291 0.727562665939331
vt 0.4334128797054291 0.727562665939331
vt 0.5 0.0
vt 0.0 1.0
vt 0.25 0.5

g Ninja_Bandana_R_004
s 1
usemtl Ninja_Bandana_R_004
f 1/1/1 2/2/2 3/3/3 
f 1/1/1 3/3/3 4/4/4 
f 5/5/5 6/6/6 7/7/7 
f 5/5/5 7/7/7 8/8/8 
f 9/9/9 10/10/10 11/11/11 
f 12/12/12 13/13/13 14/14/14 
f 14/14/14 15/15/15 12/12/12 
f 15/15/15 16/16/16 12/12/12 
f 17/17/17 18/18/18 19/19/19 
f 17/17/17 19/19/19 20/20/20 
f 21/21/21 22/22/22 23/23/23 
f 24/24/24 25/25/25 26/26/26 
f 27/27/27 28/28/28 29/29/29 
f 30/30/30 31/31/31 32/32/32 
f 30/30/30 32/32/32 33/33/33 
f 34/34/34 30/30/30 33/33/33 
f 34/34/34 35/35/35 30/30/30 
f 36/36/36 37/37/37 38/38/38 
f 39/39/39 40/40/40 41/41/41 
f 40/40/40 42/42/42 41/41/41 

