v 0.9923339486122131 -0.051516417413949966 -0.1986778974533081
v 0.8336913585662842 -0.05406204238533974 0.49191388487815857
v 0.5564550757408142 -0.09003112465143204 0.488148033618927
v 0.5564550757408142 -0.06588500738143921 -0.19358320534229279
v 1.0617578029632568 -0.051516417413949966 -0.9171549081802368
v 0.9923339486122131 -0.051516417413949966 -0.1986778974533081
v 0.5564550757408142 -0.06588500738143921 -0.19358320534229279
v 0.5564550757408142 -0.06987319886684418 -0.9228450655937195
v 1.0518163442611694 0.20453765988349915 -1.34412682056427
v 1.0617578029632568 -0.051516417413949966 -0.9171549081802368
v 0.5564550757408142 -0.06987319886684418 -0.9228450655937195
v 0.5564550757408142 0.1798635870218277 -1.352918028831482
v 0.5564550757408142 0.1798635870218277 -1.352918028831482
v 0.5564550757408142 -0.06987319886684418 -0.9228450655937195
v 0.5564550757408142 -0.06588500738143921 -0.19358320534229279
v 0.5564550757408142 0.8092941045761108 0.5823050737380981
v 0.5564550757408142 -0.09003112465143204 0.488148033618927
v 0.7561230063438416 0.5730966329574585 -0.19243979454040527
v 0.47440582513809204 1.2218416929244995 -0.2716445028781891
v 0.5564550757408142 0.8092941045761108 0.5823050737380981
v 0.5970898270606995 0.5374429225921631 0.5538429617881775
v 0.5564550757408142 -0.09003112465143204 0.488148033618927
v 0.8336913585662842 -0.05406204238533974 0.49191388487815857
v 0.9923339486122131 -0.051516417413949966 -0.1986778974533081
v 0.7561230063438416 0.5730966329574585 -0.19243979454040527
v 0.88954097032547 0.5310540795326233 -1.34412682056427
v 0.47440582513809204 1.204053282737732 -1.3529179096221924
v 0.47440582513809204 1.2218416929244995 -0.2716445028781891
v 0.5564550757408142 0.1798635870218277 -1.352918028831482
v 0.5564550757408142 0.8092941045761108 0.5823050737380981
v 0.5564550757408142 0.1798635870218277 -1.352918028831482
v 1.0518163442611694 0.20453765988349915 -1.34412682056427
v 0.7561230063438416 0.5730966329574585 -0.19243979454040527
v 0.9923339486122131 -0.051516417413949966 -0.1986778974533081
v 1.0617578029632568 -0.051516417413949966 -0.9171549081802368
v 1.0518163442611694 0.20453765988349915 -1.34412682056427
v 1.0518163442611694 0.20453765988349915 -1.34412682056427
v 0.88954097032547 0.5310540795326233 -1.34412682056427
v 0.7561230063438416 0.5730966329574585 -0.19243979454040527
vn 0.9773972630500793 -0.14467236399650574 0.1541576236486435
vn 0.9150692224502563 -0.18808284401893616 0.3567536473274231
vn -0.9666847586631775 -0.24055597186088562 0.08748380094766617
vn -0.9578282237052917 -0.28734058141708374 -0.0006335555226542056
vn 0.9929859042167664 -0.11822808533906937 0.0010090029099956155
vn 0.9773972630500793 -0.14467236399650574 0.1541576236486435
vn -0.9578282237052917 -0.28734058141708374 -0.0006335555226542056
vn -0.9455782771110535 -0.317408949136734 -0.07164575904607773
vn 0.9624064564704895 0.12257487326860428 -0.24238230288028717
vn 0.9929859042167664 -0.11822808533906937 0.0010090029099956155
vn -0.9455782771110535 -0.317408949136734 -0.07164575904607773
vn -0.9610480666160583 -0.13806484639644623 -0.23942604660987854
vn -0.9610480666160583 -0.13806484639644623 -0.23942604660987854
vn -0.9455782771110535 -0.317408949136734 -0.07164575904607773
vn -0.9578282237052917 -0.28734058141708374 -0.0006335555226542056
vn -0.9865598678588867 0.13161639869213104 0.09683384001255035
vn -0.9666847586631775 -0.24055597186088562 0.08748380094766617
vn 0.9309917688369751 0.3446977436542511 0.12015761435031891
vn -0.9376062154769897 0.34038642048835754 0.07093408703804016
vn -0.9865598678588867 0.13161639869213104 0.09683384001255035
vn 0.8796024918556213 0.2627318501472473 0.39657464623451233
vn -0.9666847586631775 -0.24055597186088562 0.08748380094766617
vn 0.9150692224502563 -0.18808284401893616 0.3567536473274231
vn 0.9773972630500793 -0.14467236399650574 0.1541576236486435
vn 0.9309917688369751 0.3446977436542511 0.12015761435031891
vn 0.9000386595726013 0.3549751937389374 -0.25282976031303406
vn -0.8511348366737366 0.5208193063735962 -0.06570222228765488
vn -0.9376062154769897 0.34038642048835754 0.07093408703804016
vn -0.9610480666160583 -0.13806484639644623 -0.23942604660987854
vn -0.9865598678588867 0.13161639869213104 0.09683384001255035
vn -0.9610480666160583 -0.13806484639644623 -0.23942604660987854
vn 0.9624064564704895 0.12257487326860428 -0.24238230288028717
vn 0.9309917688369751 0.3446977436542511 0.12015761435031891
vn 0.9773972630500793 -0.14467236399650574 0.1541576236486435
vn 0.9929859042167664 -0.11822808533906937 0.0010090029099956155
vn 0.9624064564704895 0.12257487326860428 -0.24238230288028717
vn 0.9624064564704895 0.12257487326860428 -0.24238230288028717
vn 0.9000386595726013 0.3549751937389374 -0.25282976031303406
vn 0.9309917688369751 0.3446977436542511 0.12015761435031891
vt 1.0 0.0
vt 0.21014286577701569 0.6444068551063538
vt 0.5 1.0
vt 1.0 0.0
vt 0.0 0.0
vt 0.0 1.0
vt 1.0 1.0
vt 1.0 0.0
vt 0.0 0.0
vt 0.0 1.0
vt 1.0 1.0
vt 1.0 0.0
vt 1.0 0.0
vt 0.0 0.0
vt 0.0 0.0
vt 0.51274174451828 0.40967196226119995
vt 0.5 1.0
vt 0.4609375 0.10785269737243652
vt 0.578125 0.02093350887298584
vt 0.51274174451828 0.40967196226119995
vt 0.360036164522171 0.4546242952346802
vt 0.5 1.0
vt 0.21014286577701569 0.6444068551063538
vt 0.34375 0.15625
vt 0.0 1.0
vt 0.28019028902053833 0.5
vt 0.09999999403953552 0.25
vt 0.0 0.0
vt 0.625 0.25
vt 0.51274174451828 0.40967196226119995
vt 1.0 0.0
vt 0.7899999618530273 0.3500000238418579
vt 0.0 0.0
vt 0.0 1.0
vt 1.0 0.5
vt 0.7899999618530273 0.3500000238418579
vt 0.7899999618530273 0.3500000238418579
vt 0.1336505115032196 0.5
vt 0.0 0.0

g Ninja_Head_R_002
s 1
usemtl Ninja_Head_R_002
f 1/1/1 2/2/2 3/3/3 
f 1/1/1 3/3/3 4/4/4 
f 5/5/5 6/6/6 7/7/7 
f 5/5/5 7/7/7 8/8/8 
f 9/9/9 10/10/10 11/11/11 
f 9/9/9 11/11/11 12/12/12 
f 13/13/13 14/14/14 15/15/15 
f 16/16/16 13/13/13 15/15/15 
f 15/15/15 17/17/17 16/16/16 
f 18/18/18 19/19/19 20/20/20 
f 18/18/18 20/20/20 21/21/21 
f 22/22/22 21/21/21 20/20/20 
f 22/22/22 23/23/23 21/21/21 
f 18/18/18 21/21/21 23/23/23 
f 18/18/18 23/23/23 24/24/24 
f 25/25/25 26/26/26 27/27/27 
f 25/25/25 27/27/27 28/28/28 
f 29/29/29 28/28/28 27/27/27 
f 29/29/29 30/30/30 28/28/28 
f 31/31/31 27/27/27 26/26/26 
f 31/31/31 26/26/26 32/32/32 
f 33/33/33 34/34/34 35/35/35 
f 35/35/35 36/36/36 33/33/33 
f 37/37/37 38/38/38 39/39/39 

