v 0.9521581530570984 0.8034692406654358 0.6052064895629883
v 0.6031835675239563 0.4952273368835449 0.1991758644580841
v -0.16198241710662842 0.48393523693084717 0.9379212856292725
v 0.07905273139476776 0.8836172223091125 1.6084378957748413
v 0.836230456829071 -0.69755619764328 0.45990583300590515
v 0.9331835508346558 0.03295654058456421 0.5325561165809631
v 0.18581053614616394 -0.04836776480078697 1.490416407585144
v 0.19013671576976776 -0.9981273412704468 1.153052806854248
v 0.07905273139476776 0.8836172223091125 1.6084378957748413
v 0.9521581530570984 0.8034692406654358 0.6052064895629883
v 0.0041308593936264515 -0.45786529779434204 0.9189954996109009
v -0.16198241710662842 0.48393523693084717 0.9379212856292725
v 0.6031835675239563 0.4952273368835449 0.1991758644580841
v 0.6031835675239563 -0.6833792924880981 0.19917571544647217
v 0.836230456829071 -0.69755619764328 0.45990583300590515
v 0.19013671576976776 -0.9981273412704468 1.153052806854248
v 0.6031835675239563 -0.6833792924880981 0.19917571544647217
v 0.0041308593936264515 -0.45786529779434204 0.9189954996109009
v 0.6031835675239563 -0.6833792924880981 0.19917571544647217
v 0.19013671576976776 -0.9981273412704468 1.153052806854248
v -0.16198241710662842 0.48393523693084717 0.9379212856292725
v 0.18581053614616394 -0.04836776480078697 1.490416407585144
v 0.6031835675239563 0.4952273368835449 0.1991758644580841
v 0.9521581530570984 0.8034692406654358 0.6052064895629883
v 0.9331835508346558 0.03295654058456421 0.5325561165809631
v 0.836230456829071 -0.69755619764328 0.45990583300590515
v 0.6031835675239563 -0.6833792924880981 0.19917571544647217
v -0.16198241710662842 0.48393523693084717 0.9379212856292725
v 0.18581053614616394 -0.04836776480078697 1.490416407585144
v 0.07905273139476776 0.8836172223091125 1.6084378957748413
vn 0.6370319128036499 0.7033704519271851 0.31537336111068726
vn -0.48677346110343933 0.3924885094165802 -0.7803873419761658
vn -0.8146428465843201 0.38654768466949463 -0.43236321210861206
vn 0.4622557461261749 0.6018170118331909 0.6512571573257446
vn 0.9187280535697937 -0.2964293956756592 0.2608993947505951
vn 0.9289221167564392 -0.09547701478004456 0.35775381326675415
vn 0.4321383833885193 -0.18237096071243286 0.8831745386123657
vn 0.4471134841442108 -0.4701269865036011 0.7609665989875793
vn 0.4622557461261749 0.6018170118331909 0.6512571573257446
vn 0.6370319128036499 0.7033704519271851 0.31537336111068726
vn -0.936538815498352 -0.15942305326461792 -0.31221678853034973
vn -0.8146428465843201 0.38654768466949463 -0.43236321210861206
vn -0.48677346110343933 0.3924885094165802 -0.7803873419761658
vn -0.3831537663936615 -0.20549726486206055 -0.900535523891449
vn 0.9187280535697937 -0.2964293956756592 0.2608993947505951
vn 0.4471134841442108 -0.4701269865036011 0.7609665989875793
vn -0.3831537663936615 -0.20549726486206055 -0.900535523891449
vn -0.936538815498352 -0.15942305326461792 -0.31221678853034973
vn -0.3831537663936615 -0.20549726486206055 -0.900535523891449
vn 0.4471134841442108 -0.4701269865036011 0.7609665989875793
vn -0.8146428465843201 0.38654768466949463 -0.43236321210861206
vn 0.4321383833885193 -0.18237096071243286 0.8831745386123657
vn -0.48677346110343933 0.3924885094165802 -0.7803873419761658
vn 0.6370319128036499 0.7033704519271851 0.31537336111068726
vn 0.9289221167564392 -0.09547701478004456 0.35775381326675415
vn 0.9187280535697937 -0.2964293956756592 0.2608993947505951
vn -0.3831537663936615 -0.20549726486206055 -0.900535523891449
vn -0.8146428465843201 0.38654768466949463 -0.43236321210861206
vn 0.4321383833885193 -0.18237096071243286 0.8831745386123657
vn 0.4622557461261749 0.6018170118331909 0.6512571573257446
vt 0.0 1.0
vt 0.0 0.0
vt 1.0 0.0
vt 1.0 1.0
vt 0.45147159695625305 0.6597568094730377
vt 0.256828635931015 0.41996192932128906
vt -6.988553624687199e-10 0.75
vt -6.988553624687199e-10 0.75
vt -6.988553624687199e-10 0.75
vt 0.06218567490577698 0.1801670789718628
vt 1.0 1.0
vt 1.0 0.0
vt 0.0 0.0
vt 0.0 0.5
vt 1.0 1.0
vt 0.5 0.0
vt 0.19583332538604736 0.6101446449756622
vt 1.0 1.0
vt 0.19583332538604736 0.6101446449756622
vt 0.17778120934963226 0.5000601708889008
vt 1.0 0.0
vt 0.08889060467481613 0.6250301003456116
vt 0.0 0.0
vt 0.0 1.0
vt 0.22573579847812653 0.8298784047365189
vt 0.45147159695625305 0.6597568094730377
vt 0.19583332538604736 0.6101446449756622
vt 1.0 0.0
vt 0.08889060467481613 0.6250301003456116
vt -6.988553624687199e-10 0.75

g Ninja_Bandana_R_002
s 1
usemtl Ninja_Bandana_R_002
f 1/1/1 2/2/2 3/3/3 
f 1/1/1 3/3/3 4/4/4 
f 5/5/5 6/6/6 7/7/7 
f 5/5/5 7/7/7 8/8/8 
f 6/6/6 9/9/9 7/7/7 
f 6/6/6 10/10/10 9/9/9 
f 11/11/11 12/12/12 13/13/13 
f 11/11/11 13/13/13 14/14/14 
f 15/15/15 16/16/16 17/17/17 
f 18/18/18 19/19/19 20/20/20 
f 21/21/21 18/18/18 20/20/20 
f 21/21/21 20/20/20 22/22/22 
f 23/23/23 24/24/24 25/25/25 
f 23/23/23 25/25/25 26/26/26 
f 23/23/23 26/26/26 27/27/27 
f 28/28/28 29/29/29 30/30/30 

