v 0.6631835699081421 -0.6948098540306091 0.26416870951652527
v 1.0053808689117432 -0.026261748746037483 -0.23503270745277405
v 0.8631835579872131 0.13980193436145782 0.5141686797142029
v 1.079628825187683 0.2145511507987976 -1.0876301527023315
v 0.8631835579872131 0.13980193436145782 0.5141686797142029
v 1.079628825187683 0.2145511507987976 -1.0876301527023315
v 0.5564550757408142 0.2440938502550125 -1.079176664352417
v 0.5564550757408142 0.11288993805646896 0.5141686797142029
v 0.7879296541213989 -0.7779709696769714 -0.8650763034820557
v 0.5564550757408142 -0.8603835701942444 -0.8340301513671875
v 0.5564550757408142 -1.071567177772522 -0.3518296480178833
v 0.5564550757408142 -0.698070228099823 0.26416870951652527
v 0.5564550757408142 0.2440938502550125 -1.079176664352417
v 0.5564550757408142 -0.698070228099823 0.26416870951652527
v 0.6631835699081421 -0.6948098540306091 0.26416870951652527
v 0.8631835579872131 0.13980193436145782 0.5141686797142029
v 0.5564550757408142 -0.8603835701942444 -0.8340301513671875
v 0.5564550757408142 -1.071567177772522 -0.3518296480178833
v 0.5564550757408142 0.2440938502550125 -1.079176664352417
v 0.5564550757408142 -1.071567177772522 -0.3518296480178833
v 0.5564550757408142 -0.8603835701942444 -0.8340301513671875
v 0.7879296541213989 -0.7779709696769714 -0.8650763034820557
v 0.7097265720367432 -1.0057200193405151 -0.3518296480178833
v 0.7097265720367432 -1.0057200193405151 -0.3518296480178833
v 0.7879296541213989 -0.7779709696769714 -0.8650763034820557
v 0.8607812523841858 -0.6207059621810913 -0.3518296778202057
v 1.079628825187683 0.2145511507987976 -1.0876301527023315
v 1.0053808689117432 -0.026261748746037483 -0.23503270745277405
v 0.6631835699081421 -0.6948098540306091 0.26416870951652527
v 0.6631835699081421 -0.6948098540306091 0.26416870951652527
v 0.5564550757408142 -0.698070228099823 0.26416870951652527
v 0.5564550757408142 -1.071567177772522 -0.3518296480178833
v 0.7097265720367432 -1.0057200193405151 -0.3518296480178833
vn 0.6334012150764465 -0.4616602957248688 0.6210255026817322
vn 0.981033205986023 -0.16888095438480377 0.09514746814966202
vn 0.34419673681259155 0.8749077916145325 0.34068289399147034
vn 0.5890339612960815 0.6640960574150085 -0.46045127511024475
vn 0.34419673681259155 0.8749077916145325 0.34068289399147034
vn 0.5890339612960815 0.6640960574150085 -0.46045127511024475
vn -0.7681767344474792 0.5552295446395874 -0.3187862038612366
vn -0.8481648564338684 0.49777647852897644 0.1812044233083725
vn 0.629074215888977 -0.396039754152298 -0.6688932776451111
vn -0.621728241443634 -0.3540043532848358 -0.6986664533615112
vn -0.992065966129303 -0.125676229596138 0.003247816115617752
vn -0.9908316731452942 -0.07145118713378906 0.11466141790151596
vn -0.7681767344474792 0.5552295446395874 -0.3187862038612366
vn -0.9908316731452942 -0.07145118713378906 0.11466141790151596
vn 0.6334012150764465 -0.4616602957248688 0.6210255026817322
vn 0.34419673681259155 0.8749077916145325 0.34068289399147034
vn -0.621728241443634 -0.3540043532848358 -0.6986664533615112
vn -0.992065966129303 -0.125676229596138 0.003247816115617752
vn -0.7681767344474792 0.5552295446395874 -0.3187862038612366
vn -0.992065966129303 -0.125676229596138 0.003247816115617752
vn -0.621728241443634 -0.3540043532848358 -0.6986664533615112
vn 0.629074215888977 -0.396039754152298 -0.6688932776451111
vn 0.6456528306007385 -0.760265052318573 0.07162036001682281
vn 0.6456528306007385 -0.760265052318573 0.07162036001682281
vn 0.629074215888977 -0.396039754152298 -0.6688932776451111
vn 0.956233024597168 -0.28630778193473816 0.060384396463632584
vn 0.5890339612960815 0.6640960574150085 -0.46045127511024475
vn 0.981033205986023 -0.16888095438480377 0.09514746814966202
vn 0.6334012150764465 -0.4616602957248688 0.6210255026817322
vn 0.6334012150764465 -0.4616602957248688 0.6210255026817322
vn -0.9908316731452942 -0.07145118713378906 0.11466141790151596
vn -0.992065966129303 -0.125676229596138 0.003247816115617752
vn 0.6456528306007385 -0.760265052318573 0.07162036001682281
vt 0.3536999821662903 0.8752117156982422
vt 0.24728211760520935 0.47260522842407227
vt 0.4553970992565155 0.40469890832901
vt 0.3424547612667084 0.0
vt 0.0 1.0
vt 1.0 1.0
vt 0.5 0.0
vt 0.2107830047607422 0.0
vt 0.9082001447677612 0.2006111741065979
vt 0.3271390199661255 0.0
vt 0.75 0.75
vt 0.0 0.0
vt 0.5 0.0
vt 0.0 0.0
vt 0.0 1.0
vt 0.4553970992565155 0.40469890832901
vt 0.4098045229911804 0.5780197381973267
vt 0.75 0.75
vt 0.5 0.0
vt 1.0 0.0
vt 0.3271390199661255 0.0
vt 0.25097501277923584 1.0
vt 1.0 1.0
vt 0.798433780670166 0.8575542569160461
vt 0.9082001447677612 0.2006111741065979
vt 0.7201135158538818 0.4947590231895447
vt 0.3424547612667084 0.0
vt 0.24728211760520935 0.47260522842407227
vt 0.3536999821662903 0.8752117156982422
vt 0.0 1.0
vt 0.0 0.0
vt 1.0 0.0
vt 1.0 1.0

g Ninja_Mask_R_004
s 1
usemtl Ninja_Mask_R_004
f 1/1/1 2/2/2 3/3/3 
f 2/2/2 4/4/4 3/3/3 
f 5/5/5 6/6/6 7/7/7 
f 5/5/5 7/7/7 8/8/8 
f 7/7/7 6/6/6 9/9/9 
f 7/7/7 9/9/9 10/10/10 
f 11/11/11 12/12/12 8/8/8 
f 11/11/11 8/8/8 13/13/13 
f 8/8/8 14/14/14 15/15/15 
f 8/8/8 15/15/15 16/16/16 
f 17/17/17 18/18/18 19/19/19 
f 20/20/20 21/21/21 22/22/22 
f 20/20/20 22/22/22 23/23/23 
f 24/24/24 25/25/25 26/26/26 
f 26/26/26 25/25/25 27/27/27 
f 26/26/26 27/27/27 28/28/28 
f 29/29/29 24/24/24 26/26/26 
f 29/29/29 26/26/26 28/28/28 
f 30/30/30 31/31/31 32/32/32 
f 30/30/30 32/32/32 33/33/33 

