v 1.1447558403015137 0.8367021083831787 -0.9456618428230286
v 0.5564550757408142 0.8452724814414978 -0.9435849785804749
v 0.5564550757408142 0.8592941164970398 0.1832714080810547
v 0.9446972608566284 0.8592941164970398 0.5682803988456726
v 1.1019238233566284 0.24233275651931763 -1.0850396156311035
v 1.1447558403015137 0.8367021083831787 -0.9456618428230286
v 1.1396971940994263 0.13125640153884888 -0.9050120115280151
v 1.0590918064117432 -0.31409162282943726 -1.1464227437973022
v 1.0161815881729126 -0.6671146154403687 -1.0074604749679565
v 1.1396971940994263 0.13125640153884888 -0.9050120115280151
v 1.1447558403015137 0.8367021083831787 -0.9456618428230286
v 0.9446972608566284 0.8592941164970398 0.5682803988456726
v 0.94666987657547 0.12733183801174164 0.5358396172523499
v 0.8301855325698853 -0.69755619764328 0.5033988356590271
v 1.0161815881729126 -0.6671146154403687 -1.0074604749679565
v 1.0161815881729126 -0.6671146154403687 -1.0074604749679565
v 0.8301855325698853 -0.69755619764328 0.5033988356590271
v 0.5564550757408142 -0.6827521324157715 0.2679198384284973
v 0.5564550757408142 -0.6638554930686951 -1.004202127456665
v 1.0590918064117432 -0.31409162282943726 -1.1464227437973022
v 1.0161815881729126 -0.6671146154403687 -1.0074604749679565
v 0.5564550757408142 -0.6638554930686951 -1.004202127456665
v 0.5564550757408142 -0.31409162282943726 -1.1525640487670898
v 0.5564550757408142 -0.31409162282943726 -1.1525640487670898
v 0.5564550757408142 -0.6638554930686951 -1.004202127456665
v 0.5564550757408142 -0.6827521324157715 0.2679198384284973
v 0.5564550757408142 -0.4649391174316406 0.1832714080810547
v 0.5564550757408142 0.8592941164970398 0.1832714080810547
v 0.5564550757408142 0.8452724814414978 -0.9435849785804749
v 0.5564550757408142 -0.4649391174316406 0.1832714080810547
v 0.9446972608566284 0.8592941164970398 0.5682803988456726
v 0.5564550757408142 0.8592941164970398 0.1832714080810547
v 0.5564550757408142 -0.4649391174316406 0.1832714080810547
v 0.5564550757408142 -0.6827521324157715 0.2679198384284973
v 0.5564550757408142 -0.6827521324157715 0.2679198384284973
v 0.8301855325698853 -0.69755619764328 0.5033988356590271
v 0.9446972608566284 0.8592941164970398 0.5682803988456726
v 0.94666987657547 0.12733183801174164 0.5358396172523499
vn 0.8653539419174194 0.4888564646244049 0.11037109047174454
vn -0.9301385283470154 0.36720725893974304 0.0010484174126759171
vn -0.8728657364845276 0.4271371364593506 0.2359224259853363
vn 0.5426954030990601 0.42946070432662964 0.7218345999717712
vn 0.982794463634491 -0.0670386403799057 -0.17210684716701508
vn 0.8653539419174194 0.4888564646244049 0.11037109047174454
vn 0.9906172156333923 -0.08510065823793411 0.10693696141242981
vn 0.7215518951416016 -0.2923584580421448 -0.6276060938835144
vn 0.8447909951210022 -0.5337597131729126 -0.03780049830675125
vn 0.9906172156333923 -0.08510065823793411 0.10693696141242981
vn 0.8653539419174194 0.4888564646244049 0.11037109047174454
vn 0.5426954030990601 0.42946070432662964 0.7218345999717712
vn 0.6761688590049744 -0.08239365369081497 0.7321250438690186
vn 0.5782520771026611 -0.45643022656440735 0.6762365698814392
vn 0.8447909951210022 -0.5337597131729126 -0.03780049830675125
vn 0.8447909951210022 -0.5337597131729126 -0.03780049830675125
vn 0.5782520771026611 -0.45643022656440735 0.6762365698814392
vn -0.6847421526908875 -0.5490912199020386 0.47919416427612305
vn -0.6004537343978882 -0.7653520107269287 -0.23171453177928925
vn 0.7215518951416016 -0.2923584580421448 -0.6276060938835144
vn 0.8447909951210022 -0.5337597131729126 -0.03780049830675125
vn -0.6004537343978882 -0.7653520107269287 -0.23171453177928925
vn -0.9945752620697021 -0.0393722727894783 -0.09628035128116608
vn -0.9945752620697021 -0.0393722727894783 -0.09628035128116608
vn -0.6004537343978882 -0.7653520107269287 -0.23171453177928925
vn -0.6847421526908875 -0.5490912199020386 0.47919416427612305
vn -0.9458473920822144 0.011138034984469414 0.32442042231559753
vn -0.8728657364845276 0.4271371364593506 0.2359224259853363
vn -0.9301385283470154 0.36720725893974304 0.0010484174126759171
vn -0.9458473920822144 0.011138034984469414 0.32442042231559753
vn 0.5426954030990601 0.42946070432662964 0.7218345999717712
vn -0.8728657364845276 0.4271371364593506 0.2359224259853363
vn -0.9458473920822144 0.011138034984469414 0.32442042231559753
vn -0.6847421526908875 -0.5490912199020386 0.47919416427612305
vn -0.6847421526908875 -0.5490912199020386 0.47919416427612305
vn 0.5782520771026611 -0.45643022656440735 0.6762365698814392
vn 0.5426954030990601 0.42946070432662964 0.7218345999717712
vn 0.6761688590049744 -0.08239365369081497 0.7321250438690186
vt 0.0 1.0
vt 0.0 0.0
vt 0.75 0.0
vt 0.008680086582899094 0.468910276889801
vt 0.5 0.7999999970197678
vt 0.0 1.0
vt 0.5 1.0
vt 1.0 0.5999999940395355
vt 1.0 1.0
vt 0.5 0.125
vt 0.0 0.25
vt 0.1921664923429489 0.4202607274055481
vt 0.09608324617147446 0.46013033390045166
vt 0.0 0.5
vt 1.0 0.0
vt 1.0 1.0
vt 1.0 0.0
vt 0.0 0.0
vt 0.0 1.0
vt 1.0 1.0
vt 1.0 0.0
vt 0.0 0.0
vt 0.0 1.0
vt 0.0 0.0
vt 0.5 0.0
vt 0.5 0.5
vt 0.0 0.0
vt 1.0 0.0
vt 1.0 0.0
vt 0.75 0.0
vt 0.1921664923429489 0.4202607274055481
vt 0.75 0.0
vt 0.75 0.0
vt 0.5 0.5
vt 0.5 0.5
vt 1.0 0.0
vt 0.1921664923429489 0.4202607274055481
vt 0.5960832238197327 0.21013033390045166

g Ninja_Bandana_R_003
s 1
usemtl Ninja_Bandana_R_003
f 1/1/1 2/2/2 3/3/3 
f 1/1/1 3/3/3 4/4/4 
f 5/5/5 6/6/6 7/7/7 
f 8/8/8 5/5/5 7/7/7 
f 8/8/8 7/7/7 9/9/9 
f 10/10/10 11/11/11 12/12/12 
f 10/10/10 12/12/12 13/13/13 
f 14/14/14 10/10/10 13/13/13 
f 14/14/14 15/15/15 10/10/10 
f 16/16/16 17/17/17 18/18/18 
f 16/16/16 18/18/18 19/19/19 
f 20/20/20 21/21/21 22/22/22 
f 20/20/20 22/22/22 23/23/23 
f 24/24/24 25/25/25 26/26/26 
f 24/24/24 26/26/26 27/27/27 
f 28/28/28 29/29/29 24/24/24 
f 28/28/28 24/24/24 30/30/30 
f 31/31/31 32/32/32 33/33/33 
f 33/33/33 34/34/34 31/31/31 
f 35/35/35 36/36/36 37/37/37 
f 36/36/36 38/38/38 37/37/37 

