v -0.5235041975975037 -0.19607651233673096 2.434279680252075
v -1.820966124534607 -0.849359929561615 -0.7804192900657654
v -0.5528891086578369 -0.841468334197998 -0.7923810482025146
v -1.6577198505401611 0.2998550236225128 -0.5484198331832886
v -1.4128451347351074 -0.9532850980758667 1.2856884002685547
v -0.4754370450973511 0.6394805908203125 0.2492016702890396
v -1.1665539741516113 0.6593511700630188 0.4394940435886383
v -0.5528891086578369 -1.9183987379074097 0.8380908370018005
v -0.5528891086578369 0.30603086948394775 -0.5424908399581909
v -0.9215530753135681 -0.4063672125339508 2.0211572647094727
v -0.38218751549720764 0.6336578726768494 1.5933837890625
v -1.3035650253295898 -1.9123903512954712 0.8635107278823853
v -0.5528891086578369 -1.6255828142166138 0.3504693806171417
v -0.411607950925827 -1.5637322664260864 1.7919481992721558
v -1.5590739250183105 -1.6002532243728638 0.38457274436950684
v -0.7556058168411255 -1.1588627099990845 2.4001879692077637
v -0.5422797799110413 -0.9906982183456421 2.5978102684020996
v -1.1124542951583862 -1.5562435388565063 1.7965797185897827
vn -0.6100940704345703 0.5153130888938904 0.6018618941307068
vn -0.7679829001426697 -0.4248102605342865 -0.47931042313575745
vn 0.9034186601638794 -0.1069401279091835 -0.41520896553993225
vn -0.7538344860076904 0.5404356718063354 -0.3737148642539978
vn -0.9405527710914612 0.127868190407753 0.31465885043144226
vn 0.7138429284095764 0.6657676100730896 -0.2172132283449173
vn -0.7346175909042358 0.6028828620910645 0.311238169670105
vn 0.3597456216812134 -0.9330381751060486 0.0047753965482115746
vn 0.36906564235687256 0.5216799974441528 -0.7691816091537476
vn -0.8398028016090393 0.29890209436416626 0.45319846272468567
vn 0.9814081788063049 0.18104375898838043 0.06372682750225067
vn -0.20424239337444305 -0.9771950244903564 0.05809352546930313
vn 0.33254116773605347 -0.7900959253311157 -0.5149415731430054
vn 0.9655201435089111 -0.24737074971199036 0.08110843598842621
vn -0.8033016920089722 -0.5875881314277649 -0.09719417244195938
vn -0.7275887727737427 -0.16858646273612976 0.6649760603904724
vn 0.9517728090286255 -0.06313849985599518 0.3002367913722992
vn -0.7042470574378967 -0.5239002704620361 0.47912898659706116
vt 0.0 1.0
vt 0.0 1.0
vt 0.0 1.0
vt 0.0 1.0
vt 0.0 1.0
vt 0.0 1.0
vt 0.0 1.0
vt 0.0 1.0
vt 0.0 1.0
vt 0.0 1.0
vt 0.0 1.0
vt 0.0 1.0
vt 0.0 1.0
vt 0.0 1.0
vt 0.0 1.0
vt 0.0 1.0
vt 0.0 1.0
vt 0.0 1.0

g Overwolf_Col_Nose_L
s 1
usemtl Overwolf_Col_Nose_L
f 3/3/3 2/2/2 4/4/4 
f 5/5/5 4/4/4 2/2/2 
f 7/7/7 4/4/4 5/5/5 
f 7/7/7 6/6/6 4/4/4 
f 9/9/9 6/6/6 3/3/3 
f 9/9/9 3/3/3 4/4/4 
f 9/9/9 4/4/4 6/6/6 
f 10/10/10 7/7/7 5/5/5 
f 10/10/10 1/1/1 7/7/7 
f 11/11/11 7/7/7 1/1/1 
f 11/11/11 6/6/6 7/7/7 
f 11/11/11 3/3/3 6/6/6 
f 13/13/13 2/2/2 3/3/3 
f 13/13/13 8/8/8 12/12/12 
f 14/14/14 8/8/8 13/13/13 
f 14/14/14 13/13/13 3/3/3 
f 14/14/14 3/3/3 11/11/11 
f 14/14/14 12/12/12 8/8/8 
f 15/15/15 5/5/5 2/2/2 
f 15/15/15 13/13/13 12/12/12 
f 15/15/15 2/2/2 13/13/13 
f 16/16/16 10/10/10 5/5/5 
f 16/16/16 1/1/1 10/10/10 
f 17/17/17 14/14/14 11/11/11 
f 17/17/17 11/11/11 1/1/1 
f 17/17/17 16/16/16 14/14/14 
f 17/17/17 1/1/1 16/16/16 
f 18/18/18 15/15/15 12/12/12 
f 18/18/18 5/5/5 15/15/15 
f 18/18/18 16/16/16 5/5/5 
f 18/18/18 12/12/12 14/14/14 
f 18/18/18 14/14/14 16/16/16 

