v -0.6274476647377014 0.3187575936317444 0.8954687118530273
v -1.0675219297409058 -0.942886233329773 -1.4153666496276855
v -0.6274476647377014 -0.8453574776649475 -0.5629082918167114
v -1.0433646440505981 0.5166873335838318 -1.4145910739898682
v -1.3263607025146484 -0.22166091203689575 0.788008987903595
v -0.6274476647377014 0.4995132386684418 -0.1618981957435608
v -1.316752552986145 0.640277087688446 -0.1024487316608429
v -1.2296158075332642 -1.6756935119628906 -0.15675902366638184
v -1.162097454071045 0.3129833936691284 0.9044292569160461
v -0.6274476647377014 0.4995133876800537 0.5403881669044495
v -0.6274476647377014 -1.6756935119628906 -0.15675902366638184
v -1.2702908515930176 -1.6595737934112549 -0.15888243913650513
v -0.6274476647377014 -0.8453574776649475 0.6696826219558716
v -1.0156620740890503 -1.7710453271865845 -0.7579577565193176
v -1.3494595289230347 -0.4843320846557617 0.5403881669044495
v -1.3050588369369507 -0.8453574776649475 0.6608495116233826
v -0.6274476647377014 -0.48433196544647217 0.7498071193695068
v -1.237370252609253 -1.562787652015686 0.21354369819164276
v -1.2749592065811157 -1.5552942752838135 0.19437986612319946
v -1.3303829431533813 -0.48433196544647217 0.7321410775184631
v -0.6274476647377014 -1.562787652015686 0.21354369819164276
v -1.3268057107925415 -0.8453574776649475 0.4602636396884918
vn 0.9915031790733337 0.027082262560725212 0.12723183631896973
vn -0.7505478858947754 -0.16689430177211761 -0.63939368724823
vn 0.9749592542648315 -0.004575476516038179 -0.2223362922668457
vn 0.5209277868270874 0.4638049006462097 -0.716602623462677
vn -0.9597733020782471 0.12881053984165192 0.24948562681674957
vn 0.908196210861206 0.389438658952713 -0.15335310995578766
vn -0.9558714032173157 0.2778991758823395 -0.09529899805784225
vn -0.0317908339202404 -0.9781181812286377 0.20560690760612488
vn -0.3359159827232361 0.3466830253601074 0.8757690191268921
vn 0.11934366077184677 0.9661209583282471 0.22883911430835724
vn 0.949762761592865 -0.28957700729370117 -0.11872577667236328
vn -0.9867480993270874 -0.06155630946159363 -0.15013039112091064
vn 0.5973895788192749 -0.3835132122039795 0.7043034434318542
vn -0.019969694316387177 -0.8628983497619629 -0.5049827098846436
vn -0.9989839792251587 -0.009138273075222969 -0.04412881284952164
vn -0.14971934258937836 -0.32855692505836487 0.9325419664382935
vn 0.0010468808468431234 -0.1981557309627533 0.980169951915741
vn -0.018624436110258102 -0.6976400017738342 0.7162063717842102
vn -0.971809983253479 -0.19714951515197754 0.1292952001094818
vn -0.9870816469192505 -0.07397670298814774 0.14211727678775787
vn 0.2871071696281433 -0.6757424473762512 0.6789267659187317
vn -0.9955443739891052 -0.08267167210578918 0.04535028710961342
vt 0.0 1.0
vt 0.0 1.0
vt 0.0 1.0
vt 0.0 1.0
vt 0.0 1.0
vt 0.0 1.0
vt 0.0 1.0
vt 0.0 1.0
vt 0.0 1.0
vt 0.0 1.0
vt 0.0 1.0
vt 0.0 1.0
vt 0.0 1.0
vt 0.0 1.0
vt 0.0 1.0
vt 0.0 1.0
vt 0.0 1.0
vt 0.0 1.0
vt 0.0 1.0
vt 0.0 1.0
vt 0.0 1.0
vt 0.0 1.0

g Overwolf_Col_Ear_L
s 1
usemtl Overwolf_Col_Ear_L
f 3/3/3 2/2/2 4/4/4 
f 6/6/6 1/1/1 3/3/3 
f 6/6/6 3/3/3 4/4/4 
f 7/7/7 4/4/4 2/2/2 
f 7/7/7 6/6/6 4/4/4 
f 9/9/9 7/7/7 5/5/5 
f 10/10/10 1/1/1 6/6/6 
f 10/10/10 6/6/6 7/7/7 
f 10/10/10 9/9/9 1/1/1 
f 10/10/10 7/7/7 9/9/9 
f 11/11/11 2/2/2 3/3/3 
f 11/11/11 3/3/3 1/1/1 
f 12/12/12 7/7/7 2/2/2 
f 13/13/13 11/11/11 1/1/1 
f 14/14/14 11/11/11 8/8/8 
f 14/14/14 2/2/2 11/11/11 
f 14/14/14 12/12/12 2/2/2 
f 14/14/14 8/8/8 12/12/12 
f 15/15/15 5/5/5 7/7/7 
f 15/15/15 7/7/7 12/12/12 
f 16/16/16 9/9/9 5/5/5 
f 17/17/17 13/13/13 1/1/1 
f 17/17/17 1/1/1 9/9/9 
f 17/17/17 16/16/16 13/13/13 
f 17/17/17 9/9/9 16/16/16 
f 18/18/18 8/8/8 11/11/11 
f 18/18/18 13/13/13 16/16/16 
f 19/19/19 18/18/18 16/16/16 
f 19/19/19 12/12/12 8/8/8 
f 19/19/19 8/8/8 18/18/18 
f 20/20/20 16/16/16 5/5/5 
f 20/20/20 5/5/5 15/15/15 
f 21/21/21 18/18/18 11/11/11 
f 21/21/21 11/11/11 13/13/13 
f 21/21/21 13/13/13 18/18/18 
f 22/22/22 19/19/19 16/16/16 
f 22/22/22 15/15/15 12/12/12 
f 22/22/22 12/12/12 19/19/19 
f 22/22/22 20/20/20 15/15/15 
f 22/22/22 16/16/16 20/20/20 

