v -0.5 -0.5 2.9693212509155273
v 0.5 -0.5 1.6793334484100342
v 0.5 0.5 1.6793334484100342
v -0.5 0.5 2.9693212509155273
v -0.5 0.5 2.9693212509155273
v 0.5 0.5 1.6793334484100342
v 0.5 0.5 0.0
v -0.5 0.5 0.0
v -0.5 0.5 0.0
v 0.5 0.5 0.0
v 0.5 -0.5 0.0
v -0.5 -0.5 0.0
v -0.5 -0.5 0.0
v 0.5 -0.5 0.0
v 0.5 -0.5 1.6793334484100342
v -0.5 -0.5 2.9693212509155273
v 0.5 -0.5 1.6793334484100342
v 0.5 -0.5 0.0
v 0.5 0.5 0.0
v 0.5 0.5 1.6793334484100342
v -0.5 -0.5 0.0
v -0.5 -0.5 2.9693212509155273
v -0.5 0.5 2.9693212509155273
v -0.5 0.5 0.0
v -0.7297571897506714 1.2686355113983154 4.156933307647705
v -1.0 1.2731372117996216 4.161816120147705
v -1.0 0.4952842593193054 4.179555416107178
v -0.6604227423667908 0.49716031551361084 4.180090427398682
v -0.38444581627845764 0.9483727812767029 3.821547746658325
v 0.9108893871307373 1.0351918935775757 0.36746641993522644
v 0.5160651803016663 1.354166865348816 0.23388975858688354
v -0.7297571897506714 1.2686355113983154 4.156933307647705
v 0.9215530157089233 -0.4063671827316284 2.0211572647094727
v 0.7556057572364807 -1.1588627099990845 2.4001879692077637
v 1.1124542951583862 -1.5562435388565063 1.7965795993804932
v 1.4128451347351074 -0.9532850384712219 1.2856884002685547
v 1.6577197313308716 0.2998550236225128 -0.5484197735786438
v 1.820966124534607 -0.8493598699569702 -0.7804192900657654
v 1.559073805809021 -1.6002532243728638 0.38457274436950684
v 1.1665539741516113 0.6593511700630188 0.4394940137863159
v 0.5422797799110413 -0.9906981587409973 2.5978100299835205
v 0.5235041975975037 -0.19607649743556976 2.434279680252075
v 1.3035650253295898 -1.9123903512954712 0.8635107278823853
v 1.559073805809021 -1.6002532243728638 0.38457274436950684
v 1.1665539741516113 0.6593511700630188 0.4394940137863159
v 1.559073805809021 -1.6002532243728638 0.38457274436950684
v 1.3035650253295898 -1.9123903512954712 0.8635107278823853
v 0.5528891086578369 -1.9183987379074097 0.8380907773971558
v 0.5528891086578369 -1.6255828142166138 0.35046935081481934
v 0.5528891086578369 -0.841468334197998 -0.7923809885978699
v 1.559073805809021 -1.6002532243728638 0.38457274436950684
v 1.820966124534607 -0.8493598699569702 -0.7804192900657654
v 0.5160651803016663 1.354166865348816 0.23388975858688354
v -0.4426991939544678 1.4375622272491455 -0.1056976318359375
v -1.0 1.440836787223816 -0.1056976318359375
v -1.0 1.2731372117996216 4.161816120147705
v -0.7297571897506714 1.2686355113983154 4.156933307647705
v 0.23336432874202728 0.09027083963155746 2.9883642196655273
v 0.5235041975975037 -0.19607649743556976 2.434279680252075
v 1.1665539741516113 0.6593511700630188 0.4394940137863159
v 0.9108893871307373 1.0351918935775757 0.36746641993522644
v 0.9108893871307373 1.0351918935775757 0.36746641993522644
v -0.38444581627845764 0.9483727812767029 3.821547746658325
v 1.1124542951583862 -1.5562435388565063 1.7965795993804932
v 0.411607950925827 -1.5637322664260864 1.7919481992721558
v 0.5528891086578369 -1.9183987379074097 0.8380907773971558
v 1.3035650253295898 -1.9123903512954712 0.8635107278823853
v 0.2696106731891632 -1.333398699760437 2.1403441429138184
v 0.7556057572364807 -1.1588627099990845 2.4001879692077637
v -0.04845550283789635 -0.984471321105957 2.583303213119507
v 0.5422797799110413 -0.9906981587409973 2.5978100299835205
v 0.5528891086578369 -0.841468334197998 -0.7923809885978699
v 0.5528891086578369 0.30603086948394775 -0.5424908399581909
v 1.6577197313308716 0.2998550236225128 -0.5484197735786438
v 1.820966124534607 -0.8493598699569702 -0.7804192900657654
v 0.4754370152950287 0.6394805908203125 0.24920165538787842
v -0.4426991641521454 0.6394802927970886 -0.11454406380653381
v -0.4426991939544678 1.4375622272491455 -0.1056976318359375
v 0.5160651803016663 1.354166865348816 0.23388975858688354
v 0.9108893871307373 1.0351918935775757 0.36746641993522644
v 1.1665539741516113 0.6593511700630188 0.4394940137863159
v -0.4426991939544678 1.4375622272491455 -0.1056976318359375
v -0.4426991641521454 0.6394802927970886 -0.11454406380653381
v -1.0 0.6425869464874268 -0.11454406380653381
v -1.0 1.440836787223816 -0.1056976318359375
v -0.38444581627845764 0.9483727812767029 3.821547746658325
v -0.7297571897506714 1.2686355113983154 4.156933307647705
v -0.6604227423667908 0.49716031551361084 4.180090427398682
v 0.23336432874202728 0.09027083963155746 2.9883642196655273
v -0.47454193234443665 -0.9768529534339905 3.7914891242980957
v 0.2576062083244324 -0.9848714470863342 2.9971728324890137
v 0.5422797799110413 -0.9906981587409973 2.5978100299835205
v 0.5235041975975037 -0.19607649743556976 2.434279680252075
v -0.6604227423667908 0.49716031551361084 4.180090427398682
v -1.0 0.4952842593193054 4.179555416107178
v -1.0 -0.9768529534339905 3.79742169380188
v -0.47454193234443665 -0.9768529534339905 3.7914891242980957
v -0.8280830383300781 -0.97685307264328 3.6208739280700684
v -0.47454193234443665 -0.9768529534339905 3.7914891242980957
v -1.0 -0.9768529534339905 3.79742169380188
v -1.0 -0.97685307264328 3.6208739280700684
v -0.30833128094673157 -0.9819319844245911 2.9291601181030273
v 0.2576062083244324 -0.9848714470863342 2.9971728324890137
v -0.04845550283789635 -0.984471321105957 2.583303213119507
v 0.5422797799110413 -0.9906981587409973 2.5978100299835205
v 0.411607950925827 -1.5637322664260864 1.7919481992721558
v 0.2696106731891632 -1.333398699760437 2.1403441429138184
v -0.04845550283789635 -0.984471321105957 2.583303213119507
v 0.38218748569488525 0.6336578130722046 1.5933837890625
v 0.5528891086578369 -0.841468334197998 -0.7923809885978699
v 0.5528891086578369 -1.6255828142166138 0.35046935081481934
v 0.5528891086578369 -1.9183987379074097 0.8380907773971558
v 0.5528891086578369 0.30603086948394775 -0.5424908399581909
v 0.4754370152950287 0.6394805908203125 0.24920165538787842
v -1.0 -0.566077709197998 2.391538143157959
v -1.0 -0.97685307264328 3.6208739280700684
v -1.0 -0.9768529534339905 3.79742169380188
v -1.0 0.4952842593193054 4.179555416107178
v -1.0 0.6336578130722046 1.5933837890625
v -1.0 1.2731372117996216 4.161816120147705
v -1.0 0.6425869464874268 -0.11454406380653381
v -1.0 1.440836787223816 -0.1056976318359375
v 0.5528891086578369 0.30603086948394775 -0.5424908399581909
v 0.4754370152950287 0.6394805908203125 0.24920165538787842
v 1.1665539741516113 0.6593511700630188 0.4394940137863159
v 1.6577197313308716 0.2998550236225128 -0.5484197735786438
v -0.8280830383300781 -0.97685307264328 3.6208739280700684
v -0.04845550283789635 -0.984471321105957 2.583303213119507
v -0.30833128094673157 -0.9819319844245911 2.9291601181030273
v -0.8280830383300781 -0.97685307264328 3.6208739280700684
v -1.0 -0.97685307264328 3.6208739280700684
v -1.0 -0.566077709197998 2.391538143157959
v -0.04845550283789635 -0.984471321105957 2.583303213119507
v -0.04845550283789635 -0.984471321105957 2.583303213119507
v -1.0 -0.566077709197998 2.391538143157959
v -1.0 0.6336578130722046 1.5933837890625
v 0.38218748569488525 0.6336578130722046 1.5933837890625
v 0.4754370152950287 0.6394805908203125 0.24920165538787842
v 0.38218748569488525 0.6336578130722046 1.5933837890625
v -0.4426991641521454 0.6394802927970886 -0.11454406380653381
v -1.0 0.6336578130722046 1.5933837890625
v -1.0 0.6425869464874268 -0.11454406380653381
v 0.06623489409685135 -0.8935335278511047 2.8652124404907227
v 0.5532885789871216 -1.103685975074768 2.170109748840332
v 0.3364929258823395 -1.8636415004730225 2.6572070121765137
v 0.3364929258823395 -1.8636415004730225 2.6572070121765137
v 0.5532885789871216 -1.103685975074768 2.170109748840332
v 0.49906402826309204 -0.9740976691246033 2.5523338317871094
v 0.3364929258823395 -1.8636415004730225 2.6572070121765137
v 0.49906402826309204 -0.9740976691246033 2.5523338317871094
v 0.06623489409685135 -0.8935335278511047 2.8652124404907227
v 0.5532885789871216 -1.103685975074768 2.170109748840332
v 0.06623489409685135 -0.8935335278511047 2.8652124404907227
v 0.4904153347015381 -0.9378196001052856 2.413320302963257
v 0.9236050248146057 -1.4121025800704956 1.5504565238952637
v 0.655816912651062 -2.2550370693206787 2.2595653533935547
v 0.655816912651062 -2.2550370693206787 2.2595653533935547
v 0.9236050248146057 -1.4121025800704956 1.5504565238952637
v 0.8871703743934631 -1.278482437133789 2.1166796684265137
v 0.655816912651062 -2.2550370693206787 2.2595653533935547
v 0.8871703743934631 -1.278482437133789 2.1166796684265137
v 0.4904153347015381 -0.9378196001052856 2.413320302963257
v 0.9236050248146057 -1.4121025800704956 1.5504565238952637
v 0.4904153347015381 -0.9378196001052856 2.413320302963257
v 0.8871703743934631 -1.278482437133789 2.1166796684265137
v 0.8567913770675659 -1.4816153049468994 1.8099414110183716
v 1.0324679613113403 -1.6951669454574585 0.7379143834114075
v 0.871972918510437 -2.6779580116271973 1.6051489114761353
v 0.871972918510437 -2.6779580116271973 1.6051489114761353
v 1.0324679613113403 -1.6951669454574585 0.7379143834114075
v 1.18351411819458 -1.6168808937072754 1.28753662109375
v 1.18351411819458 -1.6168808937072754 1.28753662109375
v 0.8567913770675659 -1.4816153049468994 1.8099414110183716
v 0.871972918510437 -2.6779580116271973 1.6051489114761353
v 0.8567913770675659 -1.4816153049468994 1.8099414110183716
v 1.18351411819458 -1.6168808937072754 1.28753662109375
v 1.0324679613113403 -1.6951669454574585 0.7379143834114075
vn 0.7903379797935486 0.0 0.6126710176467896
vn 0.7903379797935486 0.0 0.6126710176467896
vn 0.7903379797935486 0.0 0.6126710176467896
vn 0.7903379797935486 0.0 0.6126710176467896
vn 0.0 1.0 0.0
vn 0.0 1.0 0.0
vn 0.0 1.0 0.0
vn 0.0 1.0 0.0
vn 0.0 0.0 -1.0
vn 0.0 0.0 -1.0
vn 0.0 0.0 -1.0
vn 0.0 0.0 -1.0
vn 0.0 -1.0 0.0
vn 0.0 -1.0 0.0
vn 0.0 -1.0 0.0
vn 0.0 -1.0 0.0
vn 1.0 0.0 0.0
vn 1.0 0.0 0.0
vn 1.0 0.0 0.0
vn 1.0 0.0 0.0
vn -1.0 0.0 0.0
vn -1.0 0.0 0.0
vn -1.0 0.0 0.0
vn -1.0 0.0 0.0
vn 0.0 0.007661312352865934 0.9999706745147705
vn 0.0 0.007661312352865934 0.9999706745147705
vn 0.0 0.007661312352865934 0.9999706745147705
vn 0.0 0.007661312352865934 0.9999706745147705
vn 0.668298065662384 0.7019864916801453 0.24615581333637238
vn 0.668298065662384 0.7019864916801453 0.24615581333637238
vn 0.668298065662384 0.7019864916801453 0.24615581333637238
vn 0.668298065662384 0.7019864916801453 0.24615581333637238
vn 0.7996326088905334 0.2871372401714325 0.5273897647857666
vn 0.7682134509086609 0.05566148832440376 0.6377695202827454
vn 0.8960199952125549 -0.13585150241851807 0.42272040247917175
vn 0.931475043296814 0.0032946753781288862 0.36379027366638184
vn 0.9136346578598022 0.3366315960884094 0.22792750597000122
vn 0.9951190948486328 -0.04618082940578461 0.08720817416906357
vn 0.9604081511497498 -0.20463766157627106 0.1890493780374527
vn 0.8269925713539124 0.4226987659931183 0.3706871569156647
vn 0.7112749218940735 0.11043717712163925 0.6941840052604675
vn 0.7521804571151733 0.3450031280517578 0.5614245533943176
vn 0.8976892232894897 -0.39132848381996155 0.2025243043899536
vn 0.943000078201294 -0.2623074948787689 0.20480650663375854
vn 0.736492395401001 0.49229303002357483 0.46392500400543213
vn 0.121889628469944 -0.848626971244812 -0.5147573947906494
vn 0.2609672248363495 -0.8647582530975342 -0.4290562570095062
vn 0.0 -0.8375168442726135 -0.5464114546775818
vn 0.0 -0.837618350982666 -0.5462558269500732
vn -0.009968431666493416 -0.821868360042572 -0.5695902109146118
vn 0.30675995349884033 -0.841149628162384 -0.44538232684135437
vn 0.33558914065361023 -0.8022980690002441 -0.49365752935409546
vn 0.05515375733375549 0.9977284073829651 0.03868094086647034
vn 0.036434728652238846 0.9984834790229797 0.04127204418182373
vn 0.004754637833684683 0.9992403984069824 0.038678642362356186
vn 0.036434728652238846 0.9984834790229797 0.04127204418182373
vn 0.05515375733375549 0.9977284073829651 0.03868094086647034
vn 0.8786051869392395 0.30351802706718445 0.3686862587928772
vn 0.8830198049545288 0.27282610535621643 0.3818924129009247
vn 0.8830198049545288 0.27282610535621643 0.3818924129009247
vn 0.8786051869392395 0.30351802706718445 0.3686862587928772
vn 0.8332657814025879 0.44341591000556946 0.33022812008857727
vn 0.8332657814025879 0.44341591000556946 0.33022812008857727
vn 0.004370898008346558 -0.8748703598976135 0.48433735966682434
vn 0.004370898008346558 -0.8748703598976135 0.48433735966682434
vn 0.008603446185588837 -0.9727627635002136 0.23164312541484833
vn -0.008543434552848339 -0.9678424596786499 0.2514120638370514
vn -0.013334331102669239 -0.8213099837303162 0.5703263282775879
vn -0.017766516655683517 -0.7863014936447144 0.6175875067710876
vn -0.02626817487180233 -0.7789691090583801 0.626511812210083
vn -0.015406740829348564 -0.759000301361084 0.6509079933166504
vn -0.003286004066467285 0.21665643155574799 -0.9762424230575562
vn -0.006044089328497648 0.2226799875497818 -0.9748728275299072
vn 0.3761935830116272 0.2956482172012329 -0.8781061768531799
vn 0.3032224178314209 0.20092163980007172 -0.9314969778060913
vn 0.3082522749900818 -0.014610537327826023 -0.9511924386024475
vn 0.3502514958381653 -0.00501282699406147 -0.9366423487663269
vn 0.3502514958381653 -0.00501282699406147 -0.9366423487663269
vn 0.30980366468429565 -0.0325186587870121 -0.9502442479133606
vn 0.2622707784175873 0.011647247709333897 -0.9649239778518677
vn 0.2622707784175873 0.011647247709333897 -0.9649239778518677
vn 0.0 -7.771835726089193e-07 -1.0
vn 0.0 -7.771835726089193e-07 -1.0
vn 0.0 -7.771835726089193e-07 -1.0
vn 0.0 -7.771835726089193e-07 -1.0
vn 0.7464661598205566 0.05810439959168434 0.6628817915916443
vn 0.7143972516059875 0.08182669430971146 0.6949395537376404
vn 0.7398905754089355 0.011138011701405048 0.672635018825531
vn 0.8664935231208801 0.010819676332175732 0.4990709125995636
vn 0.7064113020896912 -0.09146478772163391 0.7018671035766602
vn 0.786964476108551 0.01984800212085247 0.6166790127754211
vn 0.84256911277771 0.11951552331447601 0.5251601934432983
vn 0.8697081208229065 0.0590951070189476 0.4900158643722534
vn -2.4096509605442407e-06 -0.25096750259399414 0.9679954648017883
vn -2.4096509605442407e-06 -0.25096750259399414 0.9679954648017883
vn -2.4096509605442407e-06 -0.25096750259399414 0.9679954648017883
vn -2.4096509605442407e-06 -0.25096750259399414 0.9679954648017883
vn -0.0012695356272161007 -0.9999973773956299 0.0019208888988941908
vn 1.0649686998931429e-07 -1.0 -2.367300112382509e-06
vn 0.0 -1.0 1.0097442100232001e-06
vn 0.0 -1.0 1.0097442100232001e-06
vn -0.0065672993659973145 -0.9999697208404541 0.004177799914032221
vn 0.012279224582016468 -0.9997434020042419 0.019032321870326996
vn -0.007602323312312365 -0.9999644756317139 0.0036552418023347855
vn 0.012539434246718884 -0.999755322933197 0.01822313480079174
vn -0.8423813581466675 0.22283227741718292 -0.4906519651412964
vn -0.8049468398094177 0.1719905287027359 -0.5678730607032776
vn -0.8479985594749451 -0.20000331103801727 -0.49081259965896606
vn -0.9727976322174072 -0.12996235489845276 -0.19176720082759857
vn -0.999945878982544 -0.005449558142572641 -0.008862173184752464
vn -0.9997965693473816 -0.01229075901210308 -0.015996497124433517
vn -0.9996616840362549 -0.01176115870475769 -0.023196464404463768
vn -0.9986847043037415 -0.03512410447001457 -0.037351928651332855
vn -0.995073139667511 -0.07294300943613052 -0.06714612245559692
vn -1.0 3.7667751939807204e-07 2.963976726277906e-07
vn -1.0 0.0 0.0
vn -1.0 0.0 0.0
vn -1.0 0.0 -2.6884893031819956e-06
vn -1.0 0.0 1.1118703469037428e-07
vn -1.0 -4.991901505491114e-07 -1.1814248637165292e-06
vn -1.0 0.0 0.0
vn -1.0 0.0 0.0
vn 0.008508503437042236 0.9357138276100159 -0.3526572585105896
vn 0.042538516223430634 0.9387978911399841 -0.34183189272880554
vn 0.042538516223430634 0.9387978911399841 -0.34183189272880554
vn 0.008508503437042236 0.9357138276100159 -0.3526572585105896
vn -0.7753655910491943 -0.07206229865550995 -0.6273875832557678
vn -0.7753655910491943 -0.07206229865550995 -0.6273875832557678
vn -0.7677971124649048 -0.28291675448417664 -0.5748440623283386
vn 0.0 -0.9717537760734558 -0.2359970062971115
vn 0.0 -0.9717537760734558 -0.2359970062971115
vn 0.0 -0.9717537760734558 -0.2359970062971115
vn 0.0 -0.9717537760734558 -0.2359970062971115
vn 0.0 -0.5538984537124634 -0.8325842022895813
vn 0.0 -0.5538984537124634 -0.8325842022895813
vn 0.0 -0.5538984537124634 -0.8325842022895813
vn 0.0 -0.5538984537124634 -0.8325842022895813
vn 0.0015792835038155317 -0.9999901056289673 -0.004171615932136774
vn -1.1256387551838998e-05 -0.999991774559021 -0.0040516238659620285
vn -1.1256387551838998e-05 -0.999991774559021 -0.0040516238659620285
vn -0.0016017964808270335 -0.9999910593032837 -0.003931621555238962
vn -0.0016017964808270335 -0.9999910593032837 -0.003931621555238962
vn -0.8846573829650879 -0.23757746815681458 -0.40117108821868896
vn -0.8846573829650879 -0.23757746815681458 -0.40117108821868896
vn -0.8846573829650879 -0.23757746815681458 -0.40117108821868896
vn 0.76649010181427 -0.44606220722198486 -0.4620838165283203
vn 0.76649010181427 -0.44606220722198486 -0.4620838165283203
vn 0.9528409838676453 -0.11810620874166489 0.27954432368278503
vn 0.7144024968147278 -0.01071790512651205 0.6996528506278992
vn 0.5095277428627014 0.8598987460136414 0.030912192538380623
vn 0.17183203995227814 -0.11534655094146729 0.978350043296814
vn -0.5788658857345581 0.5816794633865356 -0.5714571475982666
vn -0.5788658857345581 0.5816794633865356 -0.5714571475982666
vn -0.9050021767616272 -0.21695521473884583 -0.3659255802631378
vn -0.9050021767616272 -0.21695521473884583 -0.3659255802631378
vn -0.9050021767616272 -0.21695521473884583 -0.3659255802631378
vn 0.8733303546905518 -0.4372960329055786 -0.21463018655776978
vn 0.8733303546905518 -0.4372960329055786 -0.21463018655776978
vn 0.9548729062080383 -0.16499561071395874 0.2469698041677475
vn 0.6953429579734802 -0.023282447829842567 0.7183008790016174
vn 0.6953429579734802 -0.023282447829842567 0.7183008790016174
vn 0.2791000008583069 -0.04514245316386223 0.9592003226280212
vn -0.42574644088745117 0.6584764719009399 -0.6206035017967224
vn -0.42574644088745117 0.6584764719009399 -0.6206035017967224
vn 0.780658483505249 0.6249019503593445 0.008352318778634071
vn -0.9414845705032349 -0.26200616359710693 -0.21203666925430298
vn -0.9414845705032349 -0.26200616359710693 -0.21203666925430298
vn -0.9414845705032349 -0.26200616359710693 -0.21203666925430298
vn 0.6461926698684692 -0.5645157694816589 -0.5135728120803833
vn 0.6461926698684692 -0.5645157694816589 -0.5135728120803833
vn 0.962492048740387 -0.26374515891075134 -0.06362021714448929
vn 0.7909383177757263 -0.0009203089284710586 0.6118952035903931
vn 0.7909383177757263 -0.0009203089284710586 0.6118952035903931
vn 0.7909383177757263 -0.0009203089284710586 0.6118952035903931
vn 0.38306984305381775 0.9192739129066467 -0.09051476418972015
vn 0.38306984305381775 0.9192739129066467 -0.09051476418972015
vn 0.38306984305381775 0.9192739129066467 -0.09051476418972015
vt 0.375 1.0
vt 0.625 1.0
vt 0.625 0.75
vt 0.375 0.75
vt 0.375 0.75
vt 0.625 0.75
vt 0.625 0.5
vt 0.375 0.5
vt 0.375 0.5
vt 0.625 0.5
vt 0.625 0.25
vt 0.375 0.25
vt 0.375 0.25
vt 0.625 0.25
vt 0.625 0.0
vt 0.375 0.0
vt 0.625 1.0
vt 0.875 1.0
vt 0.875 0.75
vt 0.625 0.75
vt 0.125 1.0
vt 0.375 1.0
vt 0.375 0.75
vt 0.125 0.75
vt 0.0 1.0
vt 0.0 1.0
vt 0.0 1.0
vt 0.0 1.0
vt 0.0 1.0
vt 0.0 1.0
vt 0.0 1.0
vt 0.0 1.0
vt 0.0 1.0
vt 0.0 1.0
vt 0.0 1.0
vt 0.0 1.0
vt 0.0 1.0
vt 0.0 1.0
vt 0.0 1.0
vt 0.0 1.0
vt 0.0 1.0
vt 0.0 1.0
vt 0.0 1.0
vt 0.0 1.0
vt 0.0 1.0
vt 0.0 1.0
vt 0.0 1.0
vt 0.0 1.0
vt 0.0 1.0
vt 0.0 1.0
vt 0.0 1.0
vt 0.0 1.0
vt 0.0 1.0
vt 0.0 1.0
vt 0.0 1.0
vt 0.0 1.0
vt 0.0 1.0
vt 0.0 1.0
vt 0.0 1.0
vt 0.0 1.0
vt 0.0 1.0
vt 0.0 1.0
vt 0.0 1.0
vt 0.0 1.0
vt 0.0 1.0
vt 0.0 1.0
vt 0.0 1.0
vt 0.0 1.0
vt 0.0 1.0
vt 0.0 1.0
vt 0.0 1.0
vt 0.0 1.0
vt 0.0 1.0
vt 0.0 1.0
vt 0.0 1.0
vt 0.0 1.0
vt 0.0 1.0
vt 0.0 1.0
vt 0.0 1.0
vt 0.0 1.0
vt 0.0 1.0
vt 0.0 1.0
vt 0.0 1.0
vt 0.0 1.0
vt 0.0 1.0
vt 0.0 1.0
vt 0.0 1.0
vt 0.0 1.0
vt 0.0 1.0
vt 0.0 1.0
vt 0.0 1.0
vt 0.0 1.0
vt 0.0 1.0
vt 0.0 1.0
vt 0.0 1.0
vt 0.0 1.0
vt 0.0 1.0
vt 0.0 1.0
vt 0.0 1.0
vt 0.0 1.0
vt 0.0 1.0
vt 0.0 1.0
vt 0.0 1.0
vt 0.0 1.0
vt 0.0 1.0
vt 0.0 1.0
vt 0.0 1.0
vt 0.0 1.0
vt 0.0 1.0
vt 0.0 1.0
vt 0.0 1.0
vt 0.0 1.0
vt 0.0 1.0
vt 0.0 1.0
vt 0.0 1.0
vt 0.0 1.0
vt 0.0 1.0
vt 0.0 1.0
vt 0.0 1.0
vt 0.0 1.0
vt 0.0 1.0
vt 0.0 1.0
vt 0.0 1.0
vt 0.0 1.0
vt 0.0 1.0
vt 0.0 1.0
vt 0.0 1.0
vt 0.0 1.0
vt 0.0 1.0
vt 0.0 1.0
vt 0.0 1.0
vt 0.0 1.0
vt 0.0 1.0
vt 0.0 1.0
vt 0.0 1.0
vt 0.0 1.0
vt 0.0 1.0
vt 0.0 1.0
vt 0.0 1.0
vt 0.0 1.0
vt 0.0 1.0
vt 0.0 1.0
vt 0.0 1.0
vt 0.0 1.0
vt 0.0 1.0
vt 0.0 1.0
vt 0.0 1.0
vt 0.0 1.0
vt 0.0 1.0
vt 0.0 1.0
vt 0.0 1.0
vt 0.0 1.0
vt 0.0 1.0
vt 0.0 1.0
vt 0.0 1.0
vt 0.0 1.0
vt 0.0 1.0
vt 0.0 1.0
vt 0.0 1.0
vt 0.0 1.0
vt 0.0 1.0
vt 0.0 1.0
vt 0.0 1.0
vt 0.0 1.0
vt 0.0 1.0
vt 0.0 1.0
vt 0.0 1.0
vt 0.0 1.0
vt 0.0 1.0
vt 0.0 1.0
vt 0.0 1.0
vt 0.0 1.0
vt 0.0 1.0
vt 0.0 1.0
vt 0.0 1.0
vt 0.0 1.0
vt 0.0 1.0

g Overwolf_Col_Nose_R
s 1
usemtl Overwolf_Col_Nose_R
f 1/1/1 2/2/2 3/3/3 
f 1/1/1 3/3/3 4/4/4 
f 5/5/5 6/6/6 7/7/7 
f 5/5/5 7/7/7 8/8/8 
f 9/9/9 10/10/10 11/11/11 
f 9/9/9 11/11/11 12/12/12 
f 13/13/13 14/14/14 15/15/15 
f 13/13/13 15/15/15 16/16/16 
f 17/17/17 18/18/18 19/19/19 
f 17/17/17 19/19/19 20/20/20 
f 21/21/21 22/22/22 23/23/23 
f 21/21/21 23/23/23 24/24/24 
f 25/25/25 26/26/26 27/27/27 
f 25/25/25 27/27/27 28/28/28 
f 29/29/29 30/30/30 31/31/31 
f 29/29/29 31/31/31 32/32/32 
f 33/33/33 34/34/34 35/35/35 
f 33/33/33 35/35/35 36/36/36 
f 37/37/37 33/33/33 36/36/36 
f 36/36/36 38/38/38 37/37/37 
f 36/36/36 39/39/39 38/38/38 
f 37/37/37 40/40/40 33/33/33 
f 41/41/41 34/34/34 33/33/33 
f 41/41/41 33/33/33 42/42/42 
f 36/36/36 35/35/35 43/43/43 
f 36/36/36 43/43/43 44/44/44 
f 42/42/42 33/33/33 45/45/45 
f 46/46/46 47/47/47 48/48/48 
f 46/46/46 48/48/48 49/49/49 
f 50/50/50 51/51/51 49/49/49 
f 50/50/50 52/52/52 51/51/51 
f 53/53/53 54/54/54 55/55/55 
f 55/55/55 56/56/56 53/53/53 
f 56/56/56 57/57/57 53/53/53 
f 58/58/58 59/59/59 60/60/60 
f 58/58/58 60/60/60 61/61/61 
f 62/62/62 63/63/63 58/58/58 
f 64/64/64 65/65/65 66/66/66 
f 64/64/64 66/66/66 67/67/67 
f 68/68/68 65/65/65 64/64/64 
f 68/68/68 64/64/64 69/69/69 
f 69/69/69 70/70/70 68/68/68 
f 69/69/69 71/71/71 70/70/70 
f 72/72/72 73/73/73 74/74/74 
f 72/72/72 74/74/74 75/75/75 
f 76/76/76 77/77/77 78/78/78 
f 76/76/76 78/78/78 79/79/79 
f 80/80/80 76/76/76 79/79/79 
f 80/80/80 81/81/81 76/76/76 
f 82/82/82 83/83/83 84/84/84 
f 82/82/82 84/84/84 85/85/85 
f 86/86/86 87/87/87 88/88/88 
f 86/86/86 88/88/88 89/89/89 
f 89/89/89 88/88/88 90/90/90 
f 89/89/89 90/90/90 91/91/91 
f 92/92/92 89/89/89 91/91/91 
f 92/92/92 93/93/93 89/89/89 
f 94/94/94 95/95/95 96/96/96 
f 94/94/94 96/96/96 97/97/97 
f 98/98/98 99/99/99 100/100/100 
f 98/98/98 100/100/100 101/101/101 
f 99/99/99 98/98/98 102/102/102 
f 99/99/99 102/102/102 103/103/103 
f 104/104/104 103/103/103 102/102/102 
f 104/104/104 105/105/105 103/103/103 
f 106/106/106 107/107/107 108/108/108 
f 106/106/106 108/108/108 109/109/109 
f 106/106/106 109/109/109 110/110/110 
f 106/106/106 110/110/110 111/111/111 
f 111/111/111 112/112/112 106/106/106 
f 109/109/109 113/113/113 110/110/110 
f 109/109/109 114/114/114 113/113/113 
f 115/115/115 116/116/116 117/117/117 
f 117/117/117 118/118/118 115/115/115 
f 118/118/118 119/119/119 115/115/115 
f 118/118/118 120/120/120 119/119/119 
f 120/120/120 121/121/121 119/119/119 
f 120/120/120 122/122/122 121/121/121 
f 123/123/123 124/124/124 125/125/125 
f 123/123/123 125/125/125 126/126/126 
f 127/127/127 128/128/128 129/129/129 
f 130/130/130 131/131/131 132/132/132 
f 130/130/130 132/132/132 133/133/133 
f 134/134/134 135/135/135 136/136/136 
f 134/134/134 136/136/136 137/137/137 
f 138/138/138 139/139/139 140/140/140 
f 140/140/140 139/139/139 141/141/141 
f 140/140/140 141/141/141 142/142/142 
f 143/143/143 144/144/144 145/145/145 
f 146/146/146 147/147/147 148/148/148 
f 149/149/149 150/150/150 151/151/151 
f 152/152/152 153/153/153 150/150/150 
f 154/154/154 155/155/155 156/156/156 
f 157/157/157 158/158/158 159/159/159 
f 160/160/160 161/161/161 162/162/162 
f 163/163/163 164/164/164 165/165/165 
f 166/166/166 167/167/167 168/168/168 
f 169/169/169 170/170/170 171/171/171 
f 172/172/172 173/173/173 174/174/174 
f 175/175/175 176/176/176 177/177/177 

