v -0.009718017652630806 1.3475255966186523 1.7125585079193115
v -1.162097454071045 0.3129833936691284 0.9044292569160461
v -0.4674869775772095 0.6733282208442688 1.8272759914398193
v 0.22314849495887756 1.0932562351226807 0.5403881669044495
v -0.40012675523757935 1.1526556015014648 1.1871191263198853
v -0.6274476647377014 0.3187575936317444 0.8954687118530273
v 0.023061370477080345 1.0315313339233398 1.6625341176986694
v -0.670553982257843 0.6662914156913757 1.9190233945846558
v -0.40959182381629944 1.0267363786697388 1.8506072759628296
vn 0.14589549601078033 0.9819571375846863 0.12031087279319763
vn -0.8405892848968506 0.4170479476451874 -0.34565970301628113
vn 0.5280438661575317 -0.7971118688583374 0.2928864359855652
vn 0.5095506906509399 0.18490545451641083 -0.8403381109237671
vn -0.5568211674690247 0.798625648021698 -0.22835779190063477
vn 0.4869042634963989 -0.8730864524841309 0.025381535291671753
vn 0.7540668845176697 -0.5954893827438354 0.2770841121673584
vn -0.3099178671836853 -0.6175210475921631 0.7229236364364624
vn -0.6729078888893127 0.6631563305854797 0.3277477025985718
vt 0.0 1.0
vt 0.0 1.0
vt 0.0 1.0
vt 0.0 1.0
vt 0.0 1.0
vt 0.0 1.0
vt 0.0 1.0
vt 0.0 1.0
vt 0.0 1.0

g Overwolf_Col_Ear_L
s 1
usemtl Overwolf_Col_Ear_L
f 5/5/5 1/1/1 4/4/4 
f 5/5/5 4/4/4 2/2/2 
f 6/6/6 2/2/2 4/4/4 
f 7/7/7 4/4/4 1/1/1 
f 7/7/7 6/6/6 4/4/4 
f 7/7/7 3/3/3 6/6/6 
f 8/8/8 3/3/3 7/7/7 
f 8/8/8 6/6/6 3/3/3 
f 8/8/8 2/2/2 6/6/6 
f 9/9/9 5/5/5 2/2/2 
f 9/9/9 2/2/2 8/8/8 
f 9/9/9 1/1/1 5/5/5 
f 9/9/9 8/8/8 7/7/7 
f 9/9/9 7/7/7 1/1/1 

