v -0.552888810634613 0.05317531153559685 0.7994676828384399
v -1.7520421743392944 0.4064333736896515 -1.2977653741836548
v -0.552888810634613 1.1414161920547485 -0.8310040235519409
v -1.7535713911056519 1.1218992471694946 -0.8434874415397644
v -1.2361706495285034 0.06884509325027466 0.7994676828384399
v -0.552888810634613 0.38124722242355347 -1.3063175678253174
v -1.4473402500152588 -0.18424738943576813 -0.1481146216392517
v -1.674562931060791 0.7280963063240051 -0.2114306390285492
v -0.5528891086578369 -0.025126608088612556 -0.4521319568157196
v -1.62346613407135 0.07362788915634155 -0.6942389011383057
v -1.4948707818984985 0.386977881193161 0.3118462860584259
vn 0.907751739025116 -0.23098038136959076 0.35019245743751526
vn -0.5031285881996155 0.10942873358726501 -0.8572553992271423
vn 0.3674050271511078 0.9263282418251038 0.08324310183525085
vn -0.4439508318901062 0.8673047423362732 -0.22514505684375763
vn -0.21654655039310455 0.558569073677063 0.8006923794746399
vn 0.6736915111541748 -0.4634847939014435 -0.5756053328514099
vn -0.17671550810337067 -0.9821758270263672 -0.06404861807823181
vn -0.7157265543937683 0.5058600902557373 0.481498658657074
vn 0.3914196491241455 -0.9092437028884888 -0.1416560709476471
vn -0.6418826580047607 -0.739953339099884 -0.20113568007946014
vn -0.6333387494087219 0.5035130977630615 0.5876703858375549
vt 0.0 1.0
vt 0.0 1.0
vt 0.0 1.0
vt 0.0 1.0
vt 0.0 1.0
vt 0.0 1.0
vt 0.0 1.0
vt 0.0 1.0
vt 0.0 1.0
vt 0.0 1.0
vt 0.0 1.0

g Overwolf_Col_Jaw_L
s 1
usemtl Overwolf_Col_Jaw_L
f 3/3/3 2/2/2 4/4/4 
f 5/5/5 1/1/1 3/3/3 
f 6/6/6 2/2/2 3/3/3 
f 6/6/6 3/3/3 1/1/1 
f 7/7/7 1/1/1 5/5/5 
f 8/8/8 3/3/3 4/4/4 
f 8/8/8 4/4/4 2/2/2 
f 9/9/9 7/7/7 6/6/6 
f 9/9/9 6/6/6 1/1/1 
f 9/9/9 1/1/1 7/7/7 
f 10/10/10 2/2/2 6/6/6 
f 10/10/10 6/6/6 7/7/7 
f 10/10/10 8/8/8 2/2/2 
f 11/11/11 5/5/5 3/3/3 
f 11/11/11 3/3/3 8/8/8 
f 11/11/11 7/7/7 5/5/5 
f 11/11/11 10/10/10 7/7/7 
f 11/11/11 8/8/8 10/10/10 

