v 0.07021956890821457 0.13853274285793304 -0.28791484236717224
v 0.067398302257061 0.2261742800474167 -0.3878685534000397
v 0.06778640300035477 0.29749035835266113 -0.21081258356571198
v 0.07240310311317444 0.2856253981590271 -0.09484352171421051
v 0.07175567746162415 0.09048499166965485 -0.23336288332939148
v 0.07343177497386932 0.2516968846321106 -0.05768386647105217
v 0.07295570522546768 0.05297844856977463 -0.1907571703195572
v 0.07424705475568771 0.012914459221065044 -0.14500923454761505
v 0.07420600950717926 0.18852019309997559 -0.01608203910291195
v 0.07432632148265839 -0.031097428873181343 -0.12717124819755554
v 0.07204261422157288 0.004975853022187948 -0.0019900130573660135
v 0.03518310561776161 -0.03117019310593605 -0.12622296810150146
v 0.07432632148265839 -0.031097428873181343 -0.12717124819755554
v 0.07204261422157288 0.004975853022187948 -0.0019900130573660135
v 0.05051971226930618 0.0029496215283870697 -0.006604499649256468
v 0.05051971226930618 0.0029496215283870697 -0.006604499649256468
v 0.0473700687289238 0.18930894136428833 -0.01883518137037754
v 0.035445861518383026 0.014728882350027561 -0.1425555944442749
v 0.03518310561776161 -0.03117019310593605 -0.12622296810150146
v 0.04971008375287056 0.05337308719754219 -0.18990135192871094
v 0.04569206014275551 0.2531437277793884 -0.06005069613456726
v 0.043184127658605576 0.28737229108810425 -0.09694598615169525
v 0.04736114293336868 0.09119047969579697 -0.23228728771209717
v 0.03802375867962837 0.29929715394973755 -0.21045789122581482
v 0.04457550123333931 0.13956250250339508 -0.2865859270095825
v 0.047483596950769424 0.22754709422588348 -0.387270450592041
v 0.07204261422157288 0.004975853022187948 -0.0019900130573660135
v 0.07420600950717926 0.18852019309997559 -0.01608203910291195
v 0.0473700687289238 0.18930894136428833 -0.01883518137037754
v 0.05051971226930618 0.0029496215283870697 -0.006604499649256468
v 0.04569206014275551 0.2531437277793884 -0.06005069613456726
v 0.07343177497386932 0.2516968846321106 -0.05768386647105217
v 0.07240310311317444 0.2856253981590271 -0.09484352171421051
v 0.043184127658605576 0.28737229108810425 -0.09694598615169525
v 0.06778640300035477 0.29749035835266113 -0.21081258356571198
v 0.067398302257061 0.2261742800474167 -0.3878685534000397
v 0.047483596950769424 0.22754709422588348 -0.387270450592041
v 0.03802375867962837 0.29929715394973755 -0.21045789122581482
v 0.043184127658605576 0.28737229108810425 -0.09694598615169525
v 0.07240310311317444 0.2856253981590271 -0.09484352171421051
v 0.03518310561776161 -0.03117019310593605 -0.12622296810150146
v 0.035445861518383026 0.014728882350027561 -0.1425555944442749
v 0.07424705475568771 0.012914459221065044 -0.14500923454761505
v 0.07432632148265839 -0.031097428873181343 -0.12717124819755554
v 0.07295570522546768 0.05297844856977463 -0.1907571703195572
v 0.04971008375287056 0.05337308719754219 -0.18990135192871094
v 0.04736114293336868 0.09119047969579697 -0.23228728771209717
v 0.07175567746162415 0.09048499166965485 -0.23336288332939148
v 0.04457550123333931 0.13956250250339508 -0.2865859270095825
v 0.07021956890821457 0.13853274285793304 -0.28791484236717224
v 0.067398302257061 0.2261742800474167 -0.3878685534000397
v 0.047483596950769424 0.22754709422588348 -0.387270450592041
vn 0.9994770884513855 0.021786950528621674 -0.023894088342785835
vn 0.9997392296791077 0.02033962495625019 -0.010383817367255688
vn 0.9994770884513855 0.021786950528621674 -0.023894088342785835
vn 0.9994601607322693 0.01674722321331501 -0.02826429158449173
vn 0.9994601607322693 0.01674722321331501 -0.02826429158449173
vn 0.9998571872711182 0.007626058999449015 -0.01507922075688839
vn 0.9998571872711182 0.007626058999449015 -0.01507922075688839
vn 0.9999752044677734 0.006612405180931091 0.002417161362245679
vn 0.9999752044677734 0.006612405180931091 0.002417161362245679
vn 0.9998401403427124 0.008233719505369663 0.01586831733584404
vn 0.9998401403427124 0.008233719505369663 0.01586831733584404
vn 0.008408834226429462 -0.9618945121765137 0.2732914984226227
vn 0.008408834226429462 -0.9618945121765137 0.2732914984226227
vn 0.008408834226429462 -0.9618945121765137 0.2732914984226227
vn 0.008408834226429462 -0.9618945121765137 0.2732914984226227
vn -0.9915469288825989 -0.008260266855359077 0.12948548793792725
vn -0.9979509711265564 0.05247358977794647 -0.03661062940955162
vn -0.9979509711265564 0.05247358977794647 -0.03661062940955162
vn -0.9915469288825989 -0.008260266855359077 0.12948548793792725
vn -0.9955671429634094 0.035423360764980316 -0.08712779730558395
vn -0.9955671429634094 0.035423360764980316 -0.08712779730558395
vn -0.9989612102508545 -0.038301773369312286 0.02468886598944664
vn -0.9989612102508545 -0.038301773369312286 0.02468886598944664
vn -0.9995488524436951 -0.02716565504670143 -0.012808761559426785
vn -0.9995488524436951 -0.02716565504670143 -0.012808761559426785
vn -0.9987731575965881 -0.019214734435081482 -0.045639656484127045
vn -0.21596099436283112 0.0772760882973671 0.9733392000198364
vn -0.13422299921512604 0.3197559416294098 0.9379448294639587
vn -0.13422299921512604 0.3197559416294098 0.9379448294639587
vn -0.21596099436283112 0.0772760882973671 0.9733392000198364
vn -0.024113480001688004 0.6452403664588928 0.7635990381240845
vn -0.024113480001688004 0.6452403664588928 0.7635990381240845
vn 0.02512032352387905 0.9122516512870789 0.4088593125343323
vn 0.02512032352387905 0.9122516512870789 0.4088593125343323
vn 0.05348207429051399 0.9887359738349915 -0.13978874683380127
vn 0.051784757524728775 0.9262981414794922 -0.3732157349586487
vn 0.051784757524728775 0.9262981414794922 -0.3732157349586487
vn 0.05348207429051399 0.9887359738349915 -0.13978874683380127
vn 0.02512032352387905 0.9122516512870789 0.4088593125343323
vn 0.02512032352387905 0.9122516512870789 0.4088593125343323
vn -0.022196294739842415 -0.33505070209503174 -0.9419385194778442
vn -0.030583959072828293 -0.5618916749954224 -0.8266453146934509
vn -0.030583959072828293 -0.5618916749954224 -0.8266453146934509
vn -0.022196294739842415 -0.33505070209503174 -0.9419385194778442
vn -0.043913763016462326 -0.7494773864746094 -0.6605718731880188
vn -0.043913763016462326 -0.7494773864746094 -0.6605718731880188
vn -0.05080074071884155 -0.7483910322189331 -0.6613094806671143
vn -0.05080074071884155 -0.7483910322189331 -0.6613094806671143
vn -0.061124175786972046 -0.7506117224693298 -0.657910168170929
vn -0.061124175786972046 -0.7506117224693298 -0.657910168170929
vn -0.07148237526416779 -0.7509735226631165 -0.6564517617225647
vn -0.07148237526416779 -0.7509735226631165 -0.6564517617225647
vt 0.42383769154548645 0.08932679891586304
vt 0.4206426441669464 0.091433584690094
vt 0.4199329912662506 0.08611077070236206
vt 0.4211178719997406 0.08305388689041138
vt 0.42558756470680237 0.08817845582962036
vt 0.42234352231025696 0.08227986097335815
vt 0.42695364356040955 0.08728146553039551
vt 0.42841461300849915 0.08631694316864014
vt 0.4244230091571808 0.08158504962921143
vt 0.4297814667224884 0.08613443374633789
vt 0.42968037724494934 0.082455575466156
vt 0.41593894362449646 0.08118462562561035
vt 0.41460710763931274 0.08143538236618042
vt 0.4137755036354065 0.07773709297180176
vt 0.41454654932022095 0.0777539610862732
vt 0.410030335187912 0.08254802227020264
vt 0.4153172969818115 0.08158504962921143
vt 0.41135838627815247 0.08606112003326416
vt 0.40996065735816956 0.08593189716339111
vt 0.41276562213897705 0.08715879917144775
vt 0.41739726066589355 0.08225387334823608
vt 0.418621301651001 0.08300375938415527
vt 0.414129376411438 0.08803361654281616
vt 0.41978147625923157 0.0859648585319519
vt 0.4158741235733032 0.08915603160858154
vt 0.41905418038368225 0.09129494428634644
vt 0.4107877314090729 0.07312613725662231
vt 0.41132575273513794 0.07817280292510986
vt 0.4103245735168457 0.07823765277862549
vt 0.4099600315093994 0.07312333583831787
vt 0.4101710021495819 0.08024966716766357
vt 0.4112006425857544 0.08016902208328247
vt 0.4110083281993866 0.08134549856185913
vt 0.4099271595478058 0.08143377304077148
vt 0.412980854511261 0.07623064517974854
vt 0.41196930408477783 0.08143377304077148
vt 0.4114677906036377 0.08129709959030151
vt 0.41222822666168213 0.07604247331619263
vt 0.412880539894104 0.07312333583831787
vt 0.41363126039505005 0.07324248552322388
vt 0.40996065735816956 0.08593189716339111
vt 0.41135838627815247 0.08606112003326416
vt 0.4112893342971802 0.0863601565361023
vt 0.4099329710006714 0.08617919683456421
vt 0.412739098072052 0.08731657266616821
vt 0.41276562213897705 0.08715879917144775
vt 0.414129376411438 0.08803361654281616
vt 0.4140947163105011 0.08820599317550659
vt 0.4158741235733032 0.08915603160858154
vt 0.4158311188220978 0.08934462070465088
vt 0.41900163888931274 0.091433584690094
vt 0.41905418038368225 0.09129494428634644

g RC_Robot_Eye_IrisBlade_2_LOD0
s 1
usemtl RC_Robot_Eye_IrisBlade_2_LOD0
f 1/1/1 2/2/2 3/3/3 
f 4/4/4 1/1/1 3/3/3 
f 4/4/4 5/5/5 1/1/1 
f 5/5/5 4/4/4 6/6/6 
f 5/5/5 6/6/6 7/7/7 
f 6/6/6 8/8/8 7/7/7 
f 6/6/6 9/9/9 8/8/8 
f 10/10/10 8/8/8 9/9/9 
f 10/10/10 9/9/9 11/11/11 
f 12/12/12 13/13/13 14/14/14 
f 12/12/12 14/14/14 15/15/15 
f 16/16/16 17/17/17 18/18/18 
f 16/16/16 18/18/18 19/19/19 
f 20/20/20 18/18/18 17/17/17 
f 20/20/20 17/17/17 21/21/21 
f 22/22/22 20/20/20 21/21/21 
f 22/22/22 23/23/23 20/20/20 
f 23/23/23 22/22/22 24/24/24 
f 23/23/23 24/24/24 25/25/25 
f 24/24/24 26/26/26 25/25/25 
f 27/27/27 28/28/28 29/29/29 
f 27/27/27 29/29/29 30/30/30 
f 31/31/31 29/29/29 28/28/28 
f 31/31/31 28/28/28 32/32/32 
f 33/33/33 31/31/31 32/32/32 
f 33/33/33 34/34/34 31/31/31 
f 35/35/35 36/36/36 37/37/37 
f 35/35/35 37/37/37 38/38/38 
f 39/39/39 35/35/35 38/38/38 
f 39/39/39 40/40/40 35/35/35 
f 41/41/41 42/42/42 43/43/43 
f 41/41/41 43/43/43 44/44/44 
f 45/45/45 43/43/43 42/42/42 
f 45/45/45 42/42/42 46/46/46 
f 47/47/47 45/45/45 46/46/46 
f 47/47/47 48/48/48 45/45/45 
f 48/48/48 47/47/47 49/49/49 
f 48/48/48 49/49/49 50/50/50 
f 51/51/51 50/50/50 49/49/49 
f 51/51/51 49/49/49 52/52/52 

