v 0.07064741849899292 0.13857115805149078 -0.2878223955631256
v 0.0679347887635231 0.22622326016426086 -0.3877492845058441
v 0.06796088069677353 0.2975098192691803 -0.21076029539108276
v 0.07238554954528809 0.28562837839126587 -0.09482984989881516
v 0.07212439179420471 0.09051758795976639 -0.23328499495983124
v 0.07337485253810883 0.2516959607601166 -0.05768003687262535
v 0.07327841967344284 0.05300652235746384 -0.19069071114063263
v 0.07451987266540527 0.012937690131366253 -0.14495505392551422
v 0.07412344962358475 0.18851611018180847 -0.016087139025330544
v 0.07460066676139832 -0.031074773520231247 -0.1271194964647293
v 0.07207053154706955 0.004978207405656576 -0.0019845457281917334
v 0.03544043377041817 -0.031148921698331833 -0.12617434561252594
v 0.07460066676139832 -0.031074773520231247 -0.1271194964647293
v 0.07207053154706955 0.004978207405656576 -0.0019845457281917334
v 0.050548847764730453 0.0029520716052502394 -0.0065988413989543915
v 0.050548847764730453 0.0029520716052502394 -0.0065988413989543915
v 0.04728125408291817 0.189304381608963 -0.01884131133556366
v 0.035697851330041885 0.014750434085726738 -0.1425052285194397
v 0.03544043377041817 -0.031148921698331833 -0.12617434561252594
v 0.050021734088659286 0.05340028554201126 -0.18983690440654755
v 0.04562735557556152 0.25314220786094666 -0.06004816293716431
v 0.04315756633877754 0.2873745560646057 -0.09693384915590286
v 0.04771803691983223 0.09122209995985031 -0.2322116196155548
v 0.038184575736522675 0.29931551218032837 -0.2104080468416214
v 0.04499022290110588 0.13959980010986328 -0.2864958643913269
v 0.048010244965553284 0.22759529948234558 -0.3871529996395111
v 0.07207053154706955 0.004978207405656576 -0.0019845457281917334
v 0.07412344962358475 0.18851611018180847 -0.016087139025330544
v 0.04728125408291817 0.189304381608963 -0.01884131133556366
v 0.050548847764730453 0.0029520716052502394 -0.0065988413989543915
v 0.04562735557556152 0.25314220786094666 -0.06004816293716431
v 0.07337485253810883 0.2516959607601166 -0.05768003687262535
v 0.07238554954528809 0.28562837839126587 -0.09482984989881516
v 0.04315756633877754 0.2873745560646057 -0.09693384915590286
v 0.06796088069677353 0.2975098192691803 -0.21076029539108276
v 0.0679347887635231 0.22622326016426086 -0.3877492845058441
v 0.048010244965553284 0.22759529948234558 -0.3871529996395111
v 0.038184575736522675 0.29931551218032837 -0.2104080468416214
v 0.04315756633877754 0.2873745560646057 -0.09693384915590286
v 0.07238554954528809 0.28562837839126587 -0.09482984989881516
v 0.03544043377041817 -0.031148921698331833 -0.12617434561252594
v 0.035697851330041885 0.014750434085726738 -0.1425052285194397
v 0.07451987266540527 0.012937690131366253 -0.14495505392551422
v 0.07460066676139832 -0.031074773520231247 -0.1271194964647293
v 0.07327841967344284 0.05300652235746384 -0.19069071114063263
v 0.050021734088659286 0.05340028554201126 -0.18983690440654755
v 0.04771803691983223 0.09122209995985031 -0.2322116196155548
v 0.07212439179420471 0.09051758795976639 -0.23328499495983124
v 0.04499022290110588 0.13959980010986328 -0.2864958643913269
v 0.07064741849899292 0.13857115805149078 -0.2878223955631256
v 0.0679347887635231 0.22622326016426086 -0.3877492845058441
v 0.048010244965553284 0.22759529948234558 -0.3871529996395111
vn 0.9995003938674927 0.0225355364382267 -0.02216191589832306
vn 0.9997403025627136 0.02108844183385372 -0.008640972897410393
vn 0.9995003938674927 0.0225355364382267 -0.02216191589832306
vn 0.9994947910308838 0.01749330386519432 -0.026536494493484497
vn 0.9994947910308838 0.01749330386519432 -0.026536494493484497
vn 0.9998760223388672 0.00836913101375103 -0.013341756537556648
vn 0.9998760223388672 0.00836913101375103 -0.013341756537556648
vn 0.9999642372131348 0.007356366142630577 0.0041677700355648994
vn 0.9999642372131348 0.007356366142630577 0.0041677700355648994
vn 0.9998043179512024 0.008979198522865772 0.017628254368901253
vn 0.9998043179512024 0.008979198522865772 0.017628254368901253
vn 0.008416443131864071 -0.9619044661521912 0.2732561528682709
vn 0.008416443131864071 -0.9619044661521912 0.2732561528682709
vn 0.008416443131864071 -0.9619044661521912 0.2732561528682709
vn 0.008416443131864071 -0.9619044661521912 0.2732561528682709
vn -0.9917499423027039 -0.008989375084638596 0.12787139415740967
vn -0.9979224801063538 0.051752619445323944 -0.038373082876205444
vn -0.9979224801063538 0.051752619445323944 -0.038373082876205444
vn -0.9917499423027039 -0.008989375084638596 0.12787139415740967
vn -0.9954349398612976 0.03468939661979675 -0.08891547471284866
vn -0.9954349398612976 0.03468939661979675 -0.08891547471284866
vn -0.9989732503890991 -0.03905710205435753 0.0229555144906044
vn -0.9989732503890991 -0.03905710205435753 0.0229555144906044
vn -0.9995040893554688 -0.02791806124150753 -0.014568740501999855
vn -0.9995040893554688 -0.02791806124150753 -0.014568740501999855
vn -0.998675525188446 -0.01996518298983574 -0.04741742089390755
vn -0.21595729887485504 0.07720503211021423 0.9733456373214722
vn -0.1342308521270752 0.31970956921577454 0.9379593729972839
vn -0.1342308521270752 0.31970956921577454 0.9379593729972839
vn -0.21595729887485504 0.07720503211021423 0.9733456373214722
vn -0.024172481149435043 0.6451284289360046 0.763691782951355
vn -0.024172481149435043 0.6451284289360046 0.763691782951355
vn 0.025046605616807938 0.9121500253677368 0.4090903401374817
vn 0.025046605616807938 0.9121500253677368 0.4090903401374817
vn 0.053437381982803345 0.9887662529945374 -0.13959082961082458
vn 0.0517614521086216 0.9263406991958618 -0.3731134235858917
vn 0.0517614521086216 0.9263406991958618 -0.3731134235858917
vn 0.053437381982803345 0.9887662529945374 -0.13959082961082458
vn 0.025046605616807938 0.9121500253677368 0.4090903401374817
vn 0.025046605616807938 0.9121500253677368 0.4090903401374817
vn -0.02209978736937046 -0.33502039313316345 -0.9419516921043396
vn -0.030482036992907524 -0.5617789030075073 -0.8267256021499634
vn -0.030482036992907524 -0.5617789030075073 -0.8267256021499634
vn -0.02209978736937046 -0.33502039313316345 -0.9419516921043396
vn -0.04380929842591286 -0.7493289709091187 -0.660747230052948
vn -0.04380929842591286 -0.7493289709091187 -0.660747230052948
vn -0.050690487027168274 -0.7482396364212036 -0.6614892482757568
vn -0.050690487027168274 -0.7482396364212036 -0.6614892482757568
vn -0.06100530922412872 -0.7504560351371765 -0.6580988764762878
vn -0.06100530922412872 -0.7504560351371765 -0.6580988764762878
vn -0.07135442644357681 -0.7508137822151184 -0.6566485166549683
vn -0.07135442644357681 -0.7508137822151184 -0.6566485166549683
vt 0.42383769154548645 0.08932679891586304
vt 0.4206426441669464 0.091433584690094
vt 0.4199329912662506 0.08611077070236206
vt 0.4211178719997406 0.08305388689041138
vt 0.42558756470680237 0.08817845582962036
vt 0.42234352231025696 0.08227986097335815
vt 0.42695364356040955 0.08728146553039551
vt 0.42841461300849915 0.08631694316864014
vt 0.4244230091571808 0.08158504962921143
vt 0.4297814667224884 0.08613443374633789
vt 0.42968037724494934 0.082455575466156
vt 0.41593894362449646 0.08118462562561035
vt 0.41460710763931274 0.08143538236618042
vt 0.4137755036354065 0.07773709297180176
vt 0.41454654932022095 0.0777539610862732
vt 0.410030335187912 0.08254802227020264
vt 0.4153172969818115 0.08158504962921143
vt 0.41135838627815247 0.08606112003326416
vt 0.40996065735816956 0.08593189716339111
vt 0.41276562213897705 0.08715879917144775
vt 0.41739726066589355 0.08225387334823608
vt 0.418621301651001 0.08300375938415527
vt 0.414129376411438 0.08803361654281616
vt 0.41978147625923157 0.0859648585319519
vt 0.4158741235733032 0.08915603160858154
vt 0.41905418038368225 0.09129494428634644
vt 0.4107877314090729 0.07312613725662231
vt 0.41132575273513794 0.07817280292510986
vt 0.4103245735168457 0.07823765277862549
vt 0.4099600315093994 0.07312333583831787
vt 0.4101710021495819 0.08024966716766357
vt 0.4112006425857544 0.08016902208328247
vt 0.4110083281993866 0.08134549856185913
vt 0.4099271595478058 0.08143377304077148
vt 0.412980854511261 0.07623064517974854
vt 0.41196930408477783 0.08143377304077148
vt 0.4114677906036377 0.08129709959030151
vt 0.41222822666168213 0.07604247331619263
vt 0.412880539894104 0.07312333583831787
vt 0.41363126039505005 0.07324248552322388
vt 0.40996065735816956 0.08593189716339111
vt 0.41135838627815247 0.08606112003326416
vt 0.4112893342971802 0.0863601565361023
vt 0.4099329710006714 0.08617919683456421
vt 0.412739098072052 0.08731657266616821
vt 0.41276562213897705 0.08715879917144775
vt 0.414129376411438 0.08803361654281616
vt 0.4140947163105011 0.08820599317550659
vt 0.4158741235733032 0.08915603160858154
vt 0.4158311188220978 0.08934462070465088
vt 0.41900163888931274 0.091433584690094
vt 0.41905418038368225 0.09129494428634644

g RC_Robot_Eye_IrisBlade_3
s 1
usemtl RC_Robot_Eye_IrisBlade_3
f 1/1/1 2/2/2 3/3/3 
f 4/4/4 1/1/1 3/3/3 
f 4/4/4 5/5/5 1/1/1 
f 5/5/5 4/4/4 6/6/6 
f 5/5/5 6/6/6 7/7/7 
f 6/6/6 8/8/8 7/7/7 
f 6/6/6 9/9/9 8/8/8 
f 10/10/10 8/8/8 9/9/9 
f 10/10/10 9/9/9 11/11/11 
f 12/12/12 13/13/13 14/14/14 
f 12/12/12 14/14/14 15/15/15 
f 16/16/16 17/17/17 18/18/18 
f 16/16/16 18/18/18 19/19/19 
f 20/20/20 18/18/18 17/17/17 
f 20/20/20 17/17/17 21/21/21 
f 22/22/22 20/20/20 21/21/21 
f 22/22/22 23/23/23 20/20/20 
f 23/23/23 22/22/22 24/24/24 
f 23/23/23 24/24/24 25/25/25 
f 24/24/24 26/26/26 25/25/25 
f 27/27/27 28/28/28 29/29/29 
f 27/27/27 29/29/29 30/30/30 
f 31/31/31 29/29/29 28/28/28 
f 31/31/31 28/28/28 32/32/32 
f 33/33/33 31/31/31 32/32/32 
f 33/33/33 34/34/34 31/31/31 
f 35/35/35 36/36/36 37/37/37 
f 35/35/35 37/37/37 38/38/38 
f 39/39/39 35/35/35 38/38/38 
f 39/39/39 40/40/40 35/35/35 
f 41/41/41 42/42/42 43/43/43 
f 41/41/41 43/43/43 44/44/44 
f 45/45/45 43/43/43 42/42/42 
f 45/45/45 42/42/42 46/46/46 
f 47/47/47 45/45/45 46/46/46 
f 47/47/47 48/48/48 45/45/45 
f 48/48/48 47/47/47 49/49/49 
f 48/48/48 49/49/49 50/50/50 
f 51/51/51 50/50/50 49/49/49 
f 51/51/51 49/49/49 52/52/52 

