v 0.07021956890821457 -0.24973523616790771 0.1992952674627304
v 0.067398302257061 -0.3720657527446747 0.25132420659065247
v 0.0677863284945488 -0.35949769616127014 0.060859449207782745
v 0.07240302860736847 -0.2984906733036041 -0.0384770967066288
v 0.07175559550523758 -0.18277646601200104 0.17099277675151825
v 0.07343170046806335 -0.2517991364002228 -0.057235755026340485
v 0.07295577973127365 -0.13049833476543427 0.1488797962665558
v 0.07424705475568771 -0.07455267012119293 0.12504543364048004
v 0.07420608401298523 -0.17682860791683197 -0.06730636209249496
v 0.07432624697685242 -0.027159709483385086 0.12807001173496246
v 0.0720425397157669 -0.005346507765352726 -0.00036602019099518657
v 0.035183027386665344 -0.026682719588279724 0.12724721431732178
v 0.07432624697685242 -0.027159709483385086 0.12807001173496246
v 0.0720425397157669 -0.005346507765352726 -0.00036602019099518657
v 0.05051971226930618 -0.005523128435015678 0.0046707154251635075
v 0.05051971226930618 -0.005523128435015678 0.0046707154251635075
v 0.0473700687289238 -0.17873375117778778 -0.06516814976930618
v 0.035445861518383026 -0.07512279599905014 0.12204757332801819
v 0.035183027386665344 -0.026682719588279724 0.12724721431732178
v 0.04970993101596832 -0.13048256933689117 0.14793750643730164
v 0.04569206014275551 -0.25412967801094055 -0.055731046944856644
v 0.043184127658605576 -0.30097681283950806 -0.03734073415398598
v 0.04736114293336868 -0.18294541537761688 0.16971759498119354
v 0.03802375867962837 -0.3609716594219208 0.05975593253970146
v 0.04457534849643707 -0.25008639693260193 0.19765113294124603
v 0.047483596950769424 -0.37304311990737915 0.25018975138664246
v 0.0720425397157669 -0.005346507765352726 -0.00036602019099518657
v 0.07420608401298523 -0.17682860791683197 -0.06730636209249496
v 0.0473700687289238 -0.17873375117778778 -0.06516814976930618
v 0.05051971226930618 -0.005523128435015678 0.0046707154251635075
v 0.04569206014275551 -0.25412967801094055 -0.055731046944856644
v 0.07343170046806335 -0.2517991364002228 -0.057235755026340485
v 0.07240302860736847 -0.2984906733036041 -0.0384770967066288
v 0.043184127658605576 -0.30097681283950806 -0.03734073415398598
v 0.0677863284945488 -0.35949769616127014 0.060859449207782745
v 0.067398302257061 -0.3720657527446747 0.25132420659065247
v 0.047483596950769424 -0.37304311990737915 0.25018975138664246
v 0.03802375867962837 -0.3609716594219208 0.05975593253970146
v 0.043184127658605576 -0.30097681283950806 -0.03734073415398598
v 0.07240302860736847 -0.2984906733036041 -0.0384770967066288
v 0.035183027386665344 -0.026682719588279724 0.12724721431732178
v 0.035445861518383026 -0.07512279599905014 0.12204757332801819
v 0.07424705475568771 -0.07455267012119293 0.12504543364048004
v 0.07432624697685242 -0.027159709483385086 0.12807001173496246
v 0.07295577973127365 -0.13049833476543427 0.1488797962665558
v 0.04970993101596832 -0.13048256933689117 0.14793750643730164
v 0.04736114293336868 -0.18294541537761688 0.16971759498119354
v 0.07175559550523758 -0.18277646601200104 0.17099277675151825
v 0.04457534849643707 -0.25008639693260193 0.19765113294124603
v 0.07021956890821457 -0.24973523616790771 0.1992952674627304
v 0.067398302257061 -0.3720657527446747 0.25132420659065247
v 0.047483596950769424 -0.37304311990737915 0.25018975138664246
vn 0.9994770884513855 -0.0299970805644989 0.01207459345459938
vn 0.9997392296791077 -0.022831343114376068 0.0005301350611262023
vn 0.9994770884513855 -0.0299970805644989 0.01207459345459938
vn 0.9994601607322693 -0.027352681383490562 0.018198834732174873
vn 0.9994601607322693 -0.027352681383490562 0.018198834732174873
vn 0.9998571872711182 -0.0134148970246315 0.010277374647557735
vn 0.9998571872711182 -0.0134148970246315 0.010277374647557735
vn 0.9999752044677734 -0.004908401053398848 -0.005046136677265167
vn 0.9999752044677734 -0.004908401053398848 -0.005046136677265167
vn 0.9998401403427124 -0.0005304394871927798 -0.017868516966700554
vn 0.9998401403427124 -0.0005304394871927798 -0.017868516966700554
vn 0.008408686146140099 0.9852138161659241 0.1711231768131256
vn 0.008408686146140099 0.9852138161659241 0.1711231768131256
vn 0.008408686146140099 0.9852138161659241 0.1711231768131256
vn 0.008408686146140099 0.9852138161659241 0.1711231768131256
vn -0.9915469288825989 0.06362361460924149 -0.11307854950428009
vn -0.997951090335846 -0.06316111981868744 0.010216905735433102
vn -0.997951090335846 -0.06316111981868744 0.010216905735433102
vn -0.9915469288825989 0.06362361460924149 -0.11307854950428009
vn -0.995567262172699 -0.06971806287765503 0.0631292387843132
vn -0.995567262172699 -0.06971806287765503 0.0631292387843132
vn -0.9989612102508545 0.04522112011909485 -0.005625721998512745
vn -0.9989612102508545 0.04522112011909485 -0.005625721998512745
vn -0.9995488524436951 0.018918029963970184 0.023326417431235313
vn -0.9995488524436951 0.018918029963970184 0.023326417431235313
vn -0.9987731575965881 -0.002491291845217347 0.049456462264060974
vn -0.21596099436283112 0.35269245505332947 -0.9104772806167603
vn -0.13422304391860962 0.11886850744485855 -0.9837958812713623
vn -0.13422304391860962 0.11886850744485855 -0.9837958812713623
vn -0.21596099436283112 0.35269245505332947 -0.9104772806167603
vn -0.024113668128848076 -0.2500285506248474 -0.9679381847381592
vn -0.024113668128848076 -0.2500285506248474 -0.9679381847381592
vn 0.025120217353105545 -0.6445130705833435 -0.7641804814338684
vn 0.025120217353105545 -0.6445130705833435 -0.7641804814338684
vn 0.05348217114806175 -0.9514724016189575 -0.30305102467536926
vn 0.051784925162792206 -0.9964981079101562 -0.06564978510141373
vn 0.051784925162792206 -0.9964981079101562 -0.06564978510141373
vn 0.05348217114806175 -0.9514724016189575 -0.30305102467536926
vn 0.025120217353105545 -0.6445130705833435 -0.7641804814338684
vn 0.025120217353105545 -0.6445130705833435 -0.7641804814338684
vn -0.022196393460035324 -0.10682141035795212 0.9940304160118103
vn -0.030583612620830536 0.14757898449897766 0.9885772466659546
vn -0.030583612620830536 0.14757898449897766 0.9885772466659546
vn -0.022196393460035324 -0.10682141035795212 0.9940304160118103
vn -0.04391346499323845 0.38864439725875854 0.9203407764434814
vn -0.04391346499323845 0.38864439725875854 0.9203407764434814
vn -0.0508008748292923 0.387345552444458 0.9205338954925537
vn -0.0508008748292923 0.387345552444458 0.9205338954925537
vn -0.06112409010529518 0.39082130789756775 0.9184349179267883
vn -0.06112409010529518 0.39082130789756775 0.9184349179267883
vn -0.07148206233978271 0.39178022742271423 0.9172778725624084
vn -0.07148206233978271 0.39178022742271423 0.9172778725624084
vt 0.42383769154548645 0.08932679891586304
vt 0.4206426441669464 0.091433584690094
vt 0.4199329912662506 0.08611077070236206
vt 0.4211178719997406 0.08305388689041138
vt 0.42558756470680237 0.08817845582962036
vt 0.42234352231025696 0.08227986097335815
vt 0.42695364356040955 0.08728146553039551
vt 0.42841461300849915 0.08631694316864014
vt 0.4244230091571808 0.08158504962921143
vt 0.4297814667224884 0.08613443374633789
vt 0.42968037724494934 0.082455575466156
vt 0.41593894362449646 0.08118462562561035
vt 0.41460710763931274 0.08143538236618042
vt 0.4137755036354065 0.07773709297180176
vt 0.41454654932022095 0.0777539610862732
vt 0.410030335187912 0.08254802227020264
vt 0.4153172969818115 0.08158504962921143
vt 0.41135838627815247 0.08606112003326416
vt 0.40996065735816956 0.08593189716339111
vt 0.41276562213897705 0.08715879917144775
vt 0.41739726066589355 0.08225387334823608
vt 0.418621301651001 0.08300375938415527
vt 0.414129376411438 0.08803361654281616
vt 0.41978147625923157 0.0859648585319519
vt 0.4158741235733032 0.08915603160858154
vt 0.41905418038368225 0.09129494428634644
vt 0.4107877314090729 0.07312613725662231
vt 0.41132575273513794 0.07817280292510986
vt 0.4103245735168457 0.07823765277862549
vt 0.4099600315093994 0.07312333583831787
vt 0.4101710021495819 0.08024966716766357
vt 0.4112006425857544 0.08016902208328247
vt 0.4110083281993866 0.08134549856185913
vt 0.4099271595478058 0.08143377304077148
vt 0.412980854511261 0.07623064517974854
vt 0.41196930408477783 0.08143377304077148
vt 0.4114677906036377 0.08129709959030151
vt 0.41222822666168213 0.07604247331619263
vt 0.412880539894104 0.07312333583831787
vt 0.41363126039505005 0.07324248552322388
vt 0.40996065735816956 0.08593189716339111
vt 0.41135838627815247 0.08606112003326416
vt 0.4112893342971802 0.0863601565361023
vt 0.4099329710006714 0.08617919683456421
vt 0.412739098072052 0.08731657266616821
vt 0.41276562213897705 0.08715879917144775
vt 0.414129376411438 0.08803361654281616
vt 0.4140947163105011 0.08820599317550659
vt 0.4158741235733032 0.08915603160858154
vt 0.4158311188220978 0.08934462070465088
vt 0.41900163888931274 0.091433584690094
vt 0.41905418038368225 0.09129494428634644

g RC_Robot_Eye_IrisBlade_5_LOD0
s 1
usemtl RC_Robot_Eye_IrisBlade_5_LOD0
f 1/1/1 2/2/2 3/3/3 
f 4/4/4 1/1/1 3/3/3 
f 4/4/4 5/5/5 1/1/1 
f 5/5/5 4/4/4 6/6/6 
f 5/5/5 6/6/6 7/7/7 
f 6/6/6 8/8/8 7/7/7 
f 6/6/6 9/9/9 8/8/8 
f 10/10/10 8/8/8 9/9/9 
f 10/10/10 9/9/9 11/11/11 
f 12/12/12 13/13/13 14/14/14 
f 12/12/12 14/14/14 15/15/15 
f 16/16/16 17/17/17 18/18/18 
f 16/16/16 18/18/18 19/19/19 
f 20/20/20 18/18/18 17/17/17 
f 20/20/20 17/17/17 21/21/21 
f 22/22/22 20/20/20 21/21/21 
f 22/22/22 23/23/23 20/20/20 
f 23/23/23 22/22/22 24/24/24 
f 23/23/23 24/24/24 25/25/25 
f 24/24/24 26/26/26 25/25/25 
f 27/27/27 28/28/28 29/29/29 
f 27/27/27 29/29/29 30/30/30 
f 31/31/31 29/29/29 28/28/28 
f 31/31/31 28/28/28 32/32/32 
f 33/33/33 31/31/31 32/32/32 
f 33/33/33 34/34/34 31/31/31 
f 35/35/35 36/36/36 37/37/37 
f 35/35/35 37/37/37 38/38/38 
f 39/39/39 35/35/35 38/38/38 
f 39/39/39 40/40/40 35/35/35 
f 41/41/41 42/42/42 43/43/43 
f 41/41/41 43/43/43 44/44/44 
f 45/45/45 43/43/43 42/42/42 
f 45/45/45 42/42/42 46/46/46 
f 47/47/47 45/45/45 46/46/46 
f 47/47/47 48/48/48 45/45/45 
f 48/48/48 47/47/47 49/49/49 
f 48/48/48 49/49/49 50/50/50 
f 51/51/51 50/50/50 49/49/49 
f 51/51/51 49/49/49 52/52/52 

