v 0.07063018530607224 -0.24972932040691376 0.19919629395008087
v 0.06790908426046371 -0.37205755710601807 0.25119686126708984
v 0.0679362490773201 -0.35949188470840454 0.06080467998981476
v 0.07236526161432266 -0.2984867990016937 -0.03849032148718834
v 0.07211165875196457 -0.18277181684970856 0.17090928554534912
v 0.07335769385099411 -0.251796156167984 -0.05723853036761284
v 0.07326927036046982 -0.130494624376297 0.14880840480327606
v 0.07451453804969788 -0.07454998791217804 0.12498703598976135
v 0.07411155849695206 -0.17682676017284393 -0.06729990988969803
v 0.07459846138954163 -0.027157681062817574 0.1280139833688736
v 0.07207008451223373 -0.005346271209418774 -0.00037192183663137257
v 0.035438306629657745 -0.026680804789066315 0.1271945834159851
v 0.07459846138954163 -0.027157681062817574 0.1280139833688736
v 0.07207008451223373 -0.005346271209418774 -0.00037192183663137257
v 0.05054840072989464 -0.005522853694856167 0.004664584528654814
v 0.05054840072989464 -0.005522853694856167 0.004664584528654814
v 0.04726921021938324 -0.17873191833496094 -0.06516051292419434
v 0.03569251671433449 -0.07512026280164719 0.1219933032989502
v 0.035438306629657745 -0.026680804789066315 0.1271945834159851
v 0.050012510269880295 -0.13047894835472107 0.14786827564239502
v 0.04561012238264084 -0.25412672758102417 -0.05573241040110588
v 0.04313712939620018 -0.30097296833992004 -0.03735228255391121
v 0.04770522937178612 -0.18294084072113037 0.16963648796081543
v 0.038160014897584915 -0.36096590757369995 0.05970379710197449
v 0.04497283697128296 -0.25008055567741394 0.1975547820329666
v 0.04798446595668793 -0.3730350136756897 0.25006428360939026
v 0.07207008451223373 -0.005346271209418774 -0.00037192183663137257
v 0.07411155849695206 -0.17682676017284393 -0.06729990988969803
v 0.04726921021938324 -0.17873191833496094 -0.06516051292419434
v 0.05054840072989464 -0.005522853694856167 0.004664584528654814
v 0.04561012238264084 -0.25412672758102417 -0.05573241040110588
v 0.07335769385099411 -0.251796156167984 -0.05723853036761284
v 0.07236526161432266 -0.2984867990016937 -0.03849032148718834
v 0.04313712939620018 -0.30097296833992004 -0.03735228255391121
v 0.0679362490773201 -0.35949188470840454 0.06080467998981476
v 0.06790908426046371 -0.37205755710601807 0.25119686126708984
v 0.04798446595668793 -0.3730350136756897 0.25006428360939026
v 0.038160014897584915 -0.36096590757369995 0.05970379710197449
v 0.04313712939620018 -0.30097296833992004 -0.03735228255391121
v 0.07236526161432266 -0.2984867990016937 -0.03849032148718834
v 0.035438306629657745 -0.026680804789066315 0.1271945834159851
v 0.03569251671433449 -0.07512026280164719 0.1219933032989502
v 0.07451453804969788 -0.07454998791217804 0.12498703598976135
v 0.07459846138954163 -0.027157681062817574 0.1280139833688736
v 0.07326927036046982 -0.130494624376297 0.14880840480327606
v 0.050012510269880295 -0.13047894835472107 0.14786827564239502
v 0.04770522937178612 -0.18294084072113037 0.16963648796081543
v 0.07211165875196457 -0.18277181684970856 0.17090928554534912
v 0.04497283697128296 -0.25008055567741394 0.1975547820329666
v 0.07063018530607224 -0.24972932040691376 0.19919629395008087
v 0.06790908426046371 -0.37205755710601807 0.25119686126708984
v 0.04798446595668793 -0.3730350136756897 0.25006428360939026
vn 0.9994983673095703 -0.029987793415784836 0.010190663859248161
vn 0.9997387528419495 -0.02281767688691616 -0.0013634029310196638
vn 0.9994983673095703 -0.029987793415784836 0.010190663859248161
vn 0.999492883682251 -0.02734302170574665 0.01631990447640419
vn 0.999492883682251 -0.02734302170574665 0.01631990447640419
vn 0.9998750686645508 -0.013398383744060993 0.008391114883124828
vn 0.9998750686645508 -0.013398383744060993 0.008391114883124828
vn 0.9999639987945557 -0.004887029528617859 -0.006944552063941956
vn 0.9999639987945557 -0.004887029528617859 -0.006944552063941956
vn 0.9998043179512024 -0.000506387441419065 -0.01977597177028656
vn 0.9998043179512024 -0.000506387441419065 -0.01977597177028656
vn 0.008416260592639446 0.9852074384689331 0.17115898430347443
vn 0.008416260592639446 0.9852074384689331 0.17115898430347443
vn 0.008416260592639446 0.9852074384689331 0.17115898430347443
vn 0.008416260592639446 0.9852074384689331 0.17115898430347443
vn -0.99174565076828 0.06364714354276657 -0.11130861937999725
vn -0.9979268312454224 -0.06320880353450775 0.012116021476686
vn -0.9979268312454224 -0.06320880353450775 0.012116021476686
vn -0.99174565076828 0.06364714354276657 -0.11130861937999725
vn -0.9954397678375244 -0.06976517289876938 0.06505680084228516
vn -0.9954397678375244 -0.06976517289876938 0.06505680084228516
vn -0.9989701509475708 0.04521729797124863 -0.003737853141501546
vn -0.9989701509475708 0.04521729797124863 -0.003737853141501546
vn -0.9995027780532837 0.018900195136666298 0.02523684874176979
vn -0.9995027780532837 0.018900195136666298 0.02523684874176979
vn -0.9986758828163147 -0.0025186254642903805 0.05138202756643295
vn -0.21595638990402222 0.35277223587036133 -0.9104474782943726
vn -0.13423070311546326 0.11892463266849518 -0.9837881326675415
vn -0.13423070311546326 0.11892463266849518 -0.9837881326675415
vn -0.21595638990402222 0.35277223587036133 -0.9104474782943726
vn -0.024172188714146614 -0.24988843500614166 -0.9679728746414185
vn -0.024172188714146614 -0.24988843500614166 -0.9679728746414185
vn 0.025046875700354576 -0.6443246603012085 -0.7643418312072754
vn 0.025046875700354576 -0.6443246603012085 -0.7643418312072754
vn 0.05343733727931976 -0.9514145851135254 -0.3032402992248535
vn 0.051761336624622345 -0.9964919686317444 -0.06576016545295715
vn 0.051761336624622345 -0.9964919686317444 -0.06576016545295715
vn 0.05343733727931976 -0.9514145851135254 -0.3032402992248535
vn 0.025046875700354576 -0.6443246603012085 -0.7643418312072754
vn 0.025046875700354576 -0.6443246603012085 -0.7643418312072754
vn -0.022100551053881645 -0.10685185343027115 0.9940292835235596
vn -0.030482346192002296 0.14744678139686584 0.9886001944541931
vn -0.030482346192002296 0.14744678139686584 0.9886001944541931
vn -0.022100551053881645 -0.10685185343027115 0.9940292835235596
vn -0.04380950704216957 0.388439804315567 0.9204320907592773
vn -0.04380950704216957 0.388439804315567 0.9204320907592773
vn -0.050691187381744385 0.387136846780777 0.9206277132034302
vn -0.050691187381744385 0.387136846780777 0.9206277132034302
vn -0.061005763709545135 0.39060547947883606 0.9185345768928528
vn -0.061005763709545135 0.39060547947883606 0.9185345768928528
vn -0.07135462015867233 0.3915577232837677 0.9173827171325684
vn -0.07135462015867233 0.3915577232837677 0.9173827171325684
vt 0.42383769154548645 0.08932679891586304
vt 0.4206426441669464 0.091433584690094
vt 0.4199329912662506 0.08611077070236206
vt 0.4211178719997406 0.08305388689041138
vt 0.42558756470680237 0.08817845582962036
vt 0.42234352231025696 0.08227986097335815
vt 0.42695364356040955 0.08728146553039551
vt 0.42841461300849915 0.08631694316864014
vt 0.4244230091571808 0.08158504962921143
vt 0.4297814667224884 0.08613443374633789
vt 0.42968037724494934 0.082455575466156
vt 0.41593894362449646 0.08118462562561035
vt 0.41460710763931274 0.08143538236618042
vt 0.4137755036354065 0.07773709297180176
vt 0.41454654932022095 0.0777539610862732
vt 0.410030335187912 0.08254802227020264
vt 0.4153172969818115 0.08158504962921143
vt 0.41135838627815247 0.08606112003326416
vt 0.40996065735816956 0.08593189716339111
vt 0.41276562213897705 0.08715879917144775
vt 0.41739726066589355 0.08225387334823608
vt 0.418621301651001 0.08300375938415527
vt 0.414129376411438 0.08803361654281616
vt 0.41978147625923157 0.0859648585319519
vt 0.4158741235733032 0.08915603160858154
vt 0.41905418038368225 0.09129494428634644
vt 0.4107877314090729 0.07312613725662231
vt 0.41132575273513794 0.07817280292510986
vt 0.4103245735168457 0.07823765277862549
vt 0.4099600315093994 0.07312333583831787
vt 0.4101710021495819 0.08024966716766357
vt 0.4112006425857544 0.08016902208328247
vt 0.4110083281993866 0.08134549856185913
vt 0.4099271595478058 0.08143377304077148
vt 0.412980854511261 0.07623064517974854
vt 0.41196930408477783 0.08143377304077148
vt 0.4114677906036377 0.08129709959030151
vt 0.41222822666168213 0.07604247331619263
vt 0.412880539894104 0.07312333583831787
vt 0.41363126039505005 0.07324248552322388
vt 0.40996065735816956 0.08593189716339111
vt 0.41135838627815247 0.08606112003326416
vt 0.4112893342971802 0.0863601565361023
vt 0.4099329710006714 0.08617919683456421
vt 0.412739098072052 0.08731657266616821
vt 0.41276562213897705 0.08715879917144775
vt 0.414129376411438 0.08803361654281616
vt 0.4140947163105011 0.08820599317550659
vt 0.4158741235733032 0.08915603160858154
vt 0.4158311188220978 0.08934462070465088
vt 0.41900163888931274 0.091433584690094
vt 0.41905418038368225 0.09129494428634644

g RC_Robot_Eye_IrisBlade_7
s 1
usemtl RC_Robot_Eye_IrisBlade_7
f 1/1/1 2/2/2 3/3/3 
f 4/4/4 1/1/1 3/3/3 
f 4/4/4 5/5/5 1/1/1 
f 5/5/5 4/4/4 6/6/6 
f 5/5/5 6/6/6 7/7/7 
f 6/6/6 8/8/8 7/7/7 
f 6/6/6 9/9/9 8/8/8 
f 10/10/10 8/8/8 9/9/9 
f 10/10/10 9/9/9 11/11/11 
f 12/12/12 13/13/13 14/14/14 
f 12/12/12 14/14/14 15/15/15 
f 16/16/16 17/17/17 18/18/18 
f 16/16/16 18/18/18 19/19/19 
f 20/20/20 18/18/18 17/17/17 
f 20/20/20 17/17/17 21/21/21 
f 22/22/22 20/20/20 21/21/21 
f 22/22/22 23/23/23 20/20/20 
f 23/23/23 22/22/22 24/24/24 
f 23/23/23 24/24/24 25/25/25 
f 24/24/24 26/26/26 25/25/25 
f 27/27/27 28/28/28 29/29/29 
f 27/27/27 29/29/29 30/30/30 
f 31/31/31 29/29/29 28/28/28 
f 31/31/31 28/28/28 32/32/32 
f 33/33/33 31/31/31 32/32/32 
f 33/33/33 34/34/34 31/31/31 
f 35/35/35 36/36/36 37/37/37 
f 35/35/35 37/37/37 38/38/38 
f 39/39/39 35/35/35 38/38/38 
f 39/39/39 40/40/40 35/35/35 
f 41/41/41 42/42/42 43/43/43 
f 41/41/41 43/43/43 44/44/44 
f 45/45/45 43/43/43 42/42/42 
f 45/45/45 42/42/42 46/46/46 
f 47/47/47 45/45/45 46/46/46 
f 47/47/47 48/48/48 45/45/45 
f 48/48/48 47/47/47 49/49/49 
f 48/48/48 49/49/49 50/50/50 
f 51/51/51 50/50/50 49/49/49 
f 51/51/51 49/49/49 52/52/52 

