v 0.07064618170261383 0.24976937472820282 0.19914335012435913
v 0.06793095171451569 0.3276859521865845 0.3068335950374603
v 0.06795056164264679 0.1392727643251419 0.33694887161254883
v 0.07237370312213898 0.02889348939061165 0.2995683252811432
v 0.07212452590465546 0.20729263126850128 0.14015895128250122
v 0.07336415350437164 0.0002259647735627368 0.2582201063632965
v 0.07327954471111298 0.1741134375333786 0.09411026537418365
v 0.0745222195982933 0.13844089210033417 0.04486892744898796
v 0.07411511242389679 -0.026265086606144905 0.18736909329891205
v 0.07460476458072662 0.13084626197814941 -0.0020087610464543104
v 0.0720708891749382 0.0008269321988336742 0.00529501074925065
v 0.03544430434703827 0.12994138896465302 -0.0022913918364793062
v 0.07460476458072662 0.13084626197814941 -0.0020087610464543104
v 0.0720708891749382 0.0008269321988336742 0.00529501074925065
v 0.050549134612083435 0.00577646354213357 0.004346448462456465
v 0.050549134612083435 0.00577646354213357 0.004346448462456465
v 0.04727284237742424 -0.023755358532071114 0.18875043094158173
v 0.035699889063835144 0.1356491595506668 0.04609107971191406
v 0.03544430434703827 0.12994138896465302 -0.0022913918364793062
v 0.050022706389427185 0.17319346964359283 0.094304159283638
v 0.045616500079631805 0.002212964231148362 0.2601570785045624
v 0.043145570904016495 0.030556201934814453 0.3017389178276062
v 0.04771794378757477 0.20608939230442047 0.14060693979263306
v 0.03817394748330116 0.13852758705615997 0.33863088488578796
v 0.04498875513672829 0.24824723601341248 0.19985105097293854
v 0.04800625517964363 0.32679930329322815 0.30803850293159485
v 0.0720708891749382 0.0008269321988336742 0.00529501074925065
v 0.07411511242389679 -0.026265086606144905 0.18736909329891205
v 0.04727284237742424 -0.023755358532071114 0.18875043094158173
v 0.050549134612083435 0.00577646354213357 0.004346448462456465
v 0.045616500079631805 0.002212964231148362 0.2601570785045624
v 0.07336415350437164 0.0002259647735627368 0.2582201063632965
v 0.07237370312213898 0.02889348939061165 0.2995683252811432
v 0.043145570904016495 0.030556201934814453 0.3017389178276062
v 0.06795056164264679 0.1392727643251419 0.33694887161254883
v 0.06793095171451569 0.3276859521865845 0.3068335950374603
v 0.04800625517964363 0.32679930329322815 0.30803850293159485
v 0.03817394748330116 0.13852758705615997 0.33863088488578796
v 0.043145570904016495 0.030556201934814453 0.3017389178276062
v 0.07237370312213898 0.02889348939061165 0.2995683252811432
v 0.03544430434703827 0.12994138896465302 -0.0022913918364793062
v 0.035699889063835144 0.1356491595506668 0.04609107971191406
v 0.0745222195982933 0.13844089210033417 0.04486892744898796
v 0.07460476458072662 0.13084626197814941 -0.0020087610464543104
v 0.07327954471111298 0.1741134375333786 0.09411026537418365
v 0.050022706389427185 0.17319346964359283 0.094304159283638
v 0.04771794378757477 0.20608939230442047 0.14060693979263306
v 0.07212452590465546 0.20729263126850128 0.14015895128250122
v 0.04498875513672829 0.24824723601341248 0.19985105097293854
v 0.07064618170261383 0.24976937472820282 0.19914335012435913
v 0.06793095171451569 0.3276859521865845 0.3068335950374603
v 0.04800625517964363 0.32679930329322815 0.30803850293159485
vn 0.9994996786117554 0.01656409166753292 0.026945967227220535
vn 0.9997393488883972 0.003703967435285449 0.022526385262608528
vn 0.9994996786117554 0.01656409166753292 0.026945967227220535
vn 0.9994944334030151 0.021950865164399147 0.0230033490806818
vn 0.9994944334030151 0.021950865164399147 0.0230033490806818
vn 0.9998757839202881 0.011117390356957912 0.011171828024089336
vn 0.9998757839202881 0.011117390356957912 0.011171828024089336
vn 0.9999638795852661 -0.005727220792323351 0.006287506315857172
vn 0.9999638795852661 -0.005727220792323351 0.006287506315857172
vn 0.9998036026954651 -0.019211221486330032 0.004873377736657858
vn 0.9998036026954651 -0.019211221486330032 0.004873377736657858
vn 0.008416789583861828 -0.052360814064741135 -0.9985927939414978
vn 0.008416789583861828 -0.052360814064741135 -0.9985927939414978
vn 0.008416789583861828 -0.052360814064741135 -0.9985927939414978
vn 0.008416789583861828 -0.052360814064741135 -0.9985927939414978
vn -0.9917516112327576 -0.12263930588960648 -0.037261053919792175
vn -0.9979242086410522 0.025922296568751335 0.05895104259252548
vn -0.9979242086410522 0.025922296568751335 0.05895104259252548
vn -0.9917516112327576 -0.12263930588960648 -0.037261053919792175
vn -0.9954350590705872 0.07899464666843414 0.05356183275580406
vn -0.9954350590705872 0.07899464666843414 0.05356183275580406
vn -0.998971700668335 -0.013661873526871204 -0.04322997108101845
vn -0.998971700668335 -0.013661873526871204 -0.04322997108101845
vn -0.999502420425415 0.02044364996254444 -0.024019893258810043
vn -0.999502420425415 0.02044364996254444 -0.024019893258810043
vn -0.9986737966537476 0.05069955810904503 -0.008956694975495338
vn -0.21595583856105804 -0.9661204218864441 -0.14133071899414062
vn -0.1342301219701767 -0.9855857491493225 0.10297145694494247
vn -0.1342301219701767 -0.9855857491493225 0.10297145694494247
vn -0.21595583856105804 -0.9661204218864441 -0.14133071899414062
vn -0.02417253889143467 -0.8881003856658936 0.4590134024620056
vn -0.02417253889143467 -0.8881003856658936 0.4590134024620056
vn 0.02504621632397175 -0.6018084287643433 0.7982476353645325
vn 0.02504621632397175 -0.6018084287643433 0.7982476353645325
vn 0.05343681946396828 -0.08393276482820511 0.9950376152992249
vn 0.05176100134849548 0.15762662887573242 0.9861413240432739
vn 0.05176100134849548 0.15762662887573242 0.9861413240432739
vn 0.05343681946396828 -0.08393276482820511 0.9950376152992249
vn 0.02504621632397175 -0.6018084287643433 0.7982476353645325
vn 0.02504621632397175 -0.6018084287643433 0.7982476353645325
vn -0.022098522633314133 0.9928841590881348 -0.11701612174510956
vn -0.03048037923872471 0.931006133556366 -0.36372870206832886
vn -0.03048037923872471 0.931006133556366 -0.36372870206832886
vn -0.022098522633314133 0.9928841590881348 -0.11701612174510956
vn -0.04380775988101959 0.8109237551689148 -0.5835096836090088
vn -0.04380775988101959 0.8109237551689148 -0.5835096836090088
vn -0.05068938434123993 0.8114047050476074 -0.582282543182373
vn -0.05068938434123993 0.8114047050476074 -0.582282543182373
vn -0.06100389361381531 0.8085924386978149 -0.5851981043815613
vn -0.06100389361381531 0.8085924386978149 -0.5851981043815613
vn -0.07135267555713654 0.8072577714920044 -0.5858699679374695
vn -0.07135267555713654 0.8072577714920044 -0.5858699679374695
vt 0.42383769154548645 0.08932679891586304
vt 0.4206426441669464 0.091433584690094
vt 0.4199329912662506 0.08611077070236206
vt 0.4211178719997406 0.08305388689041138
vt 0.42558756470680237 0.08817845582962036
vt 0.42234352231025696 0.08227986097335815
vt 0.42695364356040955 0.08728146553039551
vt 0.42841461300849915 0.08631694316864014
vt 0.4244230091571808 0.08158504962921143
vt 0.4297814667224884 0.08613443374633789
vt 0.42968037724494934 0.082455575466156
vt 0.41593894362449646 0.08118462562561035
vt 0.41460710763931274 0.08143538236618042
vt 0.4137755036354065 0.07773709297180176
vt 0.41454654932022095 0.0777539610862732
vt 0.410030335187912 0.08254802227020264
vt 0.4153172969818115 0.08158504962921143
vt 0.41135838627815247 0.08606112003326416
vt 0.40996065735816956 0.08593189716339111
vt 0.41276562213897705 0.08715879917144775
vt 0.41739726066589355 0.08225387334823608
vt 0.418621301651001 0.08300375938415527
vt 0.414129376411438 0.08803361654281616
vt 0.41978147625923157 0.0859648585319519
vt 0.4158741235733032 0.08915603160858154
vt 0.41905418038368225 0.09129494428634644
vt 0.4107877314090729 0.07312613725662231
vt 0.41132575273513794 0.07817280292510986
vt 0.4103245735168457 0.07823765277862549
vt 0.4099600315093994 0.07312333583831787
vt 0.4101710021495819 0.08024966716766357
vt 0.4112006425857544 0.08016902208328247
vt 0.4110083281993866 0.08134549856185913
vt 0.4099271595478058 0.08143377304077148
vt 0.412980854511261 0.07623064517974854
vt 0.41196930408477783 0.08143377304077148
vt 0.4114677906036377 0.08129709959030151
vt 0.41222822666168213 0.07604247331619263
vt 0.412880539894104 0.07312333583831787
vt 0.41363126039505005 0.07324248552322388
vt 0.40996065735816956 0.08593189716339111
vt 0.41135838627815247 0.08606112003326416
vt 0.4112893342971802 0.0863601565361023
vt 0.4099329710006714 0.08617919683456421
vt 0.412739098072052 0.08731657266616821
vt 0.41276562213897705 0.08715879917144775
vt 0.414129376411438 0.08803361654281616
vt 0.4140947163105011 0.08820599317550659
vt 0.4158741235733032 0.08915603160858154
vt 0.4158311188220978 0.08934462070465088
vt 0.41900163888931274 0.091433584690094
vt 0.41905418038368225 0.09129494428634644

g RC_Robot_Eye_IrisBlade_5
s 1
usemtl RC_Robot_Eye_IrisBlade_5
f 1/1/1 2/2/2 3/3/3 
f 4/4/4 1/1/1 3/3/3 
f 4/4/4 5/5/5 1/1/1 
f 5/5/5 4/4/4 6/6/6 
f 5/5/5 6/6/6 7/7/7 
f 6/6/6 8/8/8 7/7/7 
f 6/6/6 9/9/9 8/8/8 
f 10/10/10 8/8/8 9/9/9 
f 10/10/10 9/9/9 11/11/11 
f 12/12/12 13/13/13 14/14/14 
f 12/12/12 14/14/14 15/15/15 
f 16/16/16 17/17/17 18/18/18 
f 16/16/16 18/18/18 19/19/19 
f 20/20/20 18/18/18 17/17/17 
f 20/20/20 17/17/17 21/21/21 
f 22/22/22 20/20/20 21/21/21 
f 22/22/22 23/23/23 20/20/20 
f 23/23/23 22/22/22 24/24/24 
f 23/23/23 24/24/24 25/25/25 
f 24/24/24 26/26/26 25/25/25 
f 27/27/27 28/28/28 29/29/29 
f 27/27/27 29/29/29 30/30/30 
f 31/31/31 29/29/29 28/28/28 
f 31/31/31 28/28/28 32/32/32 
f 33/33/33 31/31/31 32/32/32 
f 33/33/33 34/34/34 31/31/31 
f 35/35/35 36/36/36 37/37/37 
f 35/35/35 37/37/37 38/38/38 
f 39/39/39 35/35/35 38/38/38 
f 39/39/39 40/40/40 35/35/35 
f 41/41/41 42/42/42 43/43/43 
f 41/41/41 43/43/43 44/44/44 
f 45/45/45 43/43/43 42/42/42 
f 45/45/45 42/42/42 46/46/46 
f 47/47/47 45/45/45 46/46/46 
f 47/47/47 48/48/48 45/45/45 
f 48/48/48 47/47/47 49/49/49 
f 48/48/48 49/49/49 50/50/50 
f 51/51/51 50/50/50 49/49/49 
f 51/51/51 49/49/49 52/52/52 

