v 0.07065089792013168 0.3114255368709564 -0.07111387699842453
v 0.06793857365846634 0.4442014694213867 -0.06488776206970215
v 0.06795971095561981 0.3502727746963501 0.10119633376598358
v 0.07238239049911499 0.2522270381450653 0.16418801248073578
v 0.07212772220373154 0.2388257533311844 -0.07468036562204361
v 0.07337154448032379 0.20202571153640747 0.16082102060317993
v 0.07328151911497116 0.18213650584220886 -0.07745072990655899
v 0.07452281564474106 0.12139654159545898 -0.08026225119829178
v 0.07412074506282806 0.13011522591114044 0.1373576670885086
v 0.07460407167673111 0.08001085370779037 -0.10355231910943985
v 0.07207080721855164 0.004655417520552874 0.0026548465248197317
v 0.03544360771775246 0.07922568917274475 -0.1030210554599762
v 0.07460407167673111 0.08001085370779037 -0.10355231910943985
v 0.07207080721855164 0.004655417520552874 0.0026548465248197317
v 0.05054912343621254 0.006999739911407232 -0.0018062512390315533
v 0.05054912343621254 0.006999739911407232 -0.0018062512390315533
v 0.047278326004743576 0.1327599436044693 0.13625673949718475
v 0.035700567066669464 0.12061145156621933 -0.07731761038303375
v 0.03544360771775246 0.07922568917274475 -0.1030210554599762
v 0.05002475529909134 0.1817144900560379 -0.07661056518554688
v 0.04562396928668022 0.2047789841890335 0.1604752093553543
v 0.04315425828099251 0.2549607455730438 0.16424141824245453
v 0.04772106185555458 0.23842580616474152 -0.07346032559871674
v 0.03818339854478836 0.351123183965683 0.10282769054174423
v 0.04499340057373047 0.3110297918319702 -0.06948257982730865
v 0.04801395162940025 0.4445907175540924 -0.06344326585531235
v 0.07207080721855164 0.004655417520552874 0.0026548465248197317
v 0.07412074506282806 0.13011522591114044 0.1373576670885086
v 0.047278326004743576 0.1327599436044693 0.13625673949718475
v 0.05054912343621254 0.006999739911407232 -0.0018062512390315533
v 0.04562396928668022 0.2047789841890335 0.1604752093553543
v 0.07337154448032379 0.20202571153640747 0.16082102060317993
v 0.07238239049911499 0.2522270381450653 0.16418801248073578
v 0.04315425828099251 0.2549607455730438 0.16424141824245453
v 0.06795971095561981 0.3502727746963501 0.10119633376598358
v 0.06793857365846634 0.4442014694213867 -0.06488776206970215
v 0.04801395162940025 0.4445907175540924 -0.06344326585531235
v 0.03818339854478836 0.351123183965683 0.10282769054174423
v 0.04315425828099251 0.2549607455730438 0.16424141824245453
v 0.07238239049911499 0.2522270381450653 0.16418801248073578
v 0.03544360771775246 0.07922568917274475 -0.1030210554599762
v 0.035700567066669464 0.12061145156621933 -0.07731761038303375
v 0.07452281564474106 0.12139654159545898 -0.08026225119829178
v 0.07460407167673111 0.08001085370779037 -0.10355231910943985
v 0.07328151911497116 0.18213650584220886 -0.07745072990655899
v 0.05002475529909134 0.1817144900560379 -0.07661056518554688
v 0.04772106185555458 0.23842580616474152 -0.07346032559871674
v 0.07212772220373154 0.2388257533311844 -0.07468036562204361
v 0.04499340057373047 0.3110297918319702 -0.06948257982730865
v 0.07065089792013168 0.3114255368709564 -0.07111387699842453
v 0.06793857365846634 0.4442014694213867 -0.06488776206970215
v 0.04801395162940025 0.4445907175540924 -0.06344326585531235
vn 0.9995003938674927 0.031374797224998474 0.003828537417575717
vn 0.9997400641441345 0.019900759682059288 0.011127675883471966
vn 0.9995003938674927 0.031374797224998474 0.003828537417575717
vn 0.9994949102401733 0.031650323420763016 -0.002841404639184475
vn 0.9994949102401733 0.031650323420763016 -0.002841404639184475
vn 0.9998760223388672 0.015645766630768776 -0.001748101320117712
vn 0.9998760223388672 0.015645766630768776 -0.001748101320117712
vn 0.9999641180038452 0.001325438730418682 0.008376959711313248
vn 0.9999641180038452 0.001325438730418682 0.008376959711313248
vn 0.9998038411140442 -0.008187847211956978 0.018038157373666763
vn 0.9998038411140442 -0.008187847211956978 0.018038157373666763
vn 0.00841659028083086 -0.8133777379989624 -0.5816749334335327
vn 0.00841659028083086 -0.8133777379989624 -0.5816749334335327
vn 0.00841659028083086 -0.8133777379989624 -0.5816749334335327
vn 0.00841659028083086 -0.8133777379989624 -0.5816749334335327
vn -0.9917522072792053 -0.10557612776756287 0.07267270982265472
vn -0.9979225993156433 0.0622728057205677 0.016509762033820152
vn -0.9979225993156433 0.0622728057205677 0.016509762033820152
vn -0.9917522072792053 -0.10557612776756287 0.07267270982265472
vn -0.9954337477684021 0.0911499485373497 -0.028343871235847473
vn -0.9954337477684021 0.0911499485373497 -0.028343871235847473
vn -0.99897301197052 -0.04229579120874405 -0.016250496730208397
vn -0.99897301197052 -0.04229579120874405 -0.016250496730208397
vn -0.9995032548904419 -0.00601247837767005 -0.030937500298023224
vn -0.9995032548904419 -0.00601247837767005 -0.030937500298023224
vn -0.9986742734909058 0.024629060178995132 -0.04520033299922943
vn -0.21595698595046997 -0.7128581404685974 0.6672300100326538
vn -0.13423126935958862 -0.5339924693107605 0.8347658514976501
vn -0.13423126935958862 -0.5339924693107605 0.8347658514976501
vn -0.21595698595046997 -0.7128581404685974 0.6672300100326538
vn -0.02417324110865593 -0.19484911859035492 0.9805353283882141
vn -0.02417324110865593 -0.19484911859035492 0.9805353283882141
vn 0.025046056136488914 0.2488737851381302 0.9682120680809021
vn 0.025046056136488914 0.2488737851381302 0.9682120680809021
vn 0.05343698710203171 0.7256205677986145 0.6860169172286987
vn 0.05176149681210518 0.8692751526832581 0.4916110634803772
vn 0.05176149681210518 0.8692751526832581 0.4916110634803772
vn 0.05343698710203171 0.7256205677986145 0.6860169172286987
vn 0.025046056136488914 0.2488737851381302 0.9682120680809021
vn 0.025046056136488914 0.2488737851381302 0.9682120680809021
vn -0.022098427638411522 0.527566134929657 -0.8492265343666077
vn -0.030480485409498215 0.2960984706878662 -0.9546708464622498
vn -0.030480485409498215 0.2960984706878662 -0.9546708464622498
vn -0.022098427638411522 0.527566134929657 -0.8492265343666077
vn -0.04380781948566437 0.04939704388380051 -0.9978179931640625
vn -0.04380781948566437 0.04939704388380051 -0.9978179931640625
vn -0.05068924278020859 0.05065646767616272 -0.9974289536476135
vn -0.05068924278020859 0.05065646767616272 -0.9974289536476135
vn -0.06100403144955635 0.04662379249930382 -0.9970480799674988
vn -0.06100403144955635 0.04662379249930382 -0.9970480799674988
vn -0.07135314494371414 0.04526660591363907 -0.9964234232902527
vn -0.07135314494371414 0.04526660591363907 -0.9964234232902527
vt 0.42383769154548645 0.08932679891586304
vt 0.4206426441669464 0.091433584690094
vt 0.4199329912662506 0.08611077070236206
vt 0.4211178719997406 0.08305388689041138
vt 0.42558756470680237 0.08817845582962036
vt 0.42234352231025696 0.08227986097335815
vt 0.42695364356040955 0.08728146553039551
vt 0.42841461300849915 0.08631694316864014
vt 0.4244230091571808 0.08158504962921143
vt 0.4297814667224884 0.08613443374633789
vt 0.42968037724494934 0.082455575466156
vt 0.41593894362449646 0.08118462562561035
vt 0.41460710763931274 0.08143538236618042
vt 0.4137755036354065 0.07773709297180176
vt 0.41454654932022095 0.0777539610862732
vt 0.410030335187912 0.08254802227020264
vt 0.4153172969818115 0.08158504962921143
vt 0.41135838627815247 0.08606112003326416
vt 0.40996065735816956 0.08593189716339111
vt 0.41276562213897705 0.08715879917144775
vt 0.41739726066589355 0.08225387334823608
vt 0.418621301651001 0.08300375938415527
vt 0.414129376411438 0.08803361654281616
vt 0.41978147625923157 0.0859648585319519
vt 0.4158741235733032 0.08915603160858154
vt 0.41905418038368225 0.09129494428634644
vt 0.4107877314090729 0.07312613725662231
vt 0.41132575273513794 0.07817280292510986
vt 0.4103245735168457 0.07823765277862549
vt 0.4099600315093994 0.07312333583831787
vt 0.4101710021495819 0.08024966716766357
vt 0.4112006425857544 0.08016902208328247
vt 0.4110083281993866 0.08134549856185913
vt 0.4099271595478058 0.08143377304077148
vt 0.412980854511261 0.07623064517974854
vt 0.41196930408477783 0.08143377304077148
vt 0.4114677906036377 0.08129709959030151
vt 0.41222822666168213 0.07604247331619263
vt 0.412880539894104 0.07312333583831787
vt 0.41363126039505005 0.07324248552322388
vt 0.40996065735816956 0.08593189716339111
vt 0.41135838627815247 0.08606112003326416
vt 0.4112893342971802 0.0863601565361023
vt 0.4099329710006714 0.08617919683456421
vt 0.412739098072052 0.08731657266616821
vt 0.41276562213897705 0.08715879917144775
vt 0.414129376411438 0.08803361654281616
vt 0.4140947163105011 0.08820599317550659
vt 0.4158741235733032 0.08915603160858154
vt 0.4158311188220978 0.08934462070465088
vt 0.41900163888931274 0.091433584690094
vt 0.41905418038368225 0.09129494428634644

g RC_Robot_Eye_IrisBlade_4
s 1
usemtl RC_Robot_Eye_IrisBlade_4
f 1/1/1 2/2/2 3/3/3 
f 4/4/4 1/1/1 3/3/3 
f 4/4/4 5/5/5 1/1/1 
f 5/5/5 4/4/4 6/6/6 
f 5/5/5 6/6/6 7/7/7 
f 6/6/6 8/8/8 7/7/7 
f 6/6/6 9/9/9 8/8/8 
f 10/10/10 8/8/8 9/9/9 
f 10/10/10 9/9/9 11/11/11 
f 12/12/12 13/13/13 14/14/14 
f 12/12/12 14/14/14 15/15/15 
f 16/16/16 17/17/17 18/18/18 
f 16/16/16 18/18/18 19/19/19 
f 20/20/20 18/18/18 17/17/17 
f 20/20/20 17/17/17 21/21/21 
f 22/22/22 20/20/20 21/21/21 
f 22/22/22 23/23/23 20/20/20 
f 23/23/23 22/22/22 24/24/24 
f 23/23/23 24/24/24 25/25/25 
f 24/24/24 26/26/26 25/25/25 
f 27/27/27 28/28/28 29/29/29 
f 27/27/27 29/29/29 30/30/30 
f 31/31/31 29/29/29 28/28/28 
f 31/31/31 28/28/28 32/32/32 
f 33/33/33 31/31/31 32/32/32 
f 33/33/33 34/34/34 31/31/31 
f 35/35/35 36/36/36 37/37/37 
f 35/35/35 37/37/37 38/38/38 
f 39/39/39 35/35/35 38/38/38 
f 39/39/39 40/40/40 35/35/35 
f 41/41/41 42/42/42 43/43/43 
f 41/41/41 43/43/43 44/44/44 
f 45/45/45 43/43/43 42/42/42 
f 45/45/45 42/42/42 46/46/46 
f 47/47/47 45/45/45 46/46/46 
f 47/47/47 48/48/48 45/45/45 
f 48/48/48 47/47/47 49/49/49 
f 48/48/48 49/49/49 50/50/50 
f 51/51/51 50/50/50 49/49/49 
f 51/51/51 49/49/49 52/52/52 

