v 0.07021965086460114 -0.3115226626396179 -0.0709923654794693
v 0.06739837676286697 -0.4284723699092865 -0.13419471681118011
v 0.06778640300035477 -0.2717248797416687 -0.2431214451789856
v 0.07240302860736847 -0.15602321922779083 -0.25735950469970703
v 0.07175575196743011 -0.2476467788219452 -0.03628821671009064
v 0.07343177497386932 -0.11224544048309326 -0.23255044221878052
v 0.07295585423707962 -0.19776330888271332 -0.009202695451676846
v 0.07424705475568771 -0.14424727857112885 0.019676927477121353
v 0.07420600950717926 -0.05762855336070061 -0.1802150309085846
v 0.07432624697685242 -0.11706294864416122 0.05861600860953331
v 0.0720425397157669 -0.0030472944490611553 -0.004408285953104496
v 0.03518310561776161 -0.1161222830414772 0.058475956320762634
v 0.07432624697685242 -0.11706294864416122 0.05861600860953331
v 0.0720425397157669 -0.0030472944490611553 -0.004408285953104496
v 0.05051979050040245 -0.007095298729836941 -0.0014060240937396884
v 0.05051979050040245 -0.007095298729836941 -0.0014060240937396884
v 0.047370146960020065 -0.060488127171993256 -0.18037135899066925
v 0.035445861518383026 -0.14225894212722778 0.017362017184495926
v 0.03518310561776161 -0.1161222830414772 0.058475956320762634
v 0.04971008375287056 -0.19701673090457916 -0.009777884930372238
v 0.04569206014275551 -0.1148749515414238 -0.23343434929847717
v 0.043184127658605576 -0.1584617644548416 -0.2585947513580322
v 0.047361068427562714 -0.24675513803958893 -0.037215352058410645
v 0.03802383318543434 -0.27178114652633667 -0.24496184289455414
v 0.04457542300224304 -0.31045621633529663 -0.07229198515415192
v 0.047483596950769424 -0.4281947910785675 -0.13566620647907257
v 0.0720425397157669 -0.0030472944490611553 -0.004408285953104496
v 0.07420600950717926 -0.05762855336070061 -0.1802150309085846
v 0.047370146960020065 -0.060488127171993256 -0.18037135899066925
v 0.05051979050040245 -0.007095298729836941 -0.0014060240937396884
v 0.04569206014275551 -0.1148749515414238 -0.23343434929847717
v 0.07343177497386932 -0.11224544048309326 -0.23255044221878052
v 0.07240302860736847 -0.15602321922779083 -0.25735950469970703
v 0.043184127658605576 -0.1584617644548416 -0.2585947513580322
v 0.06778640300035477 -0.2717248797416687 -0.2431214451789856
v 0.06739837676286697 -0.4284723699092865 -0.13419471681118011
v 0.047483596950769424 -0.4281947910785675 -0.13566620647907257
v 0.03802383318543434 -0.27178114652633667 -0.24496184289455414
v 0.043184127658605576 -0.1584617644548416 -0.2585947513580322
v 0.07240302860736847 -0.15602321922779083 -0.25735950469970703
v 0.03518310561776161 -0.1161222830414772 0.058475956320762634
v 0.035445861518383026 -0.14225894212722778 0.017362017184495926
v 0.07424705475568771 -0.14424727857112885 0.019676927477121353
v 0.07432624697685242 -0.11706294864416122 0.05861600860953331
v 0.07295585423707962 -0.19776330888271332 -0.009202695451676846
v 0.04971008375287056 -0.19701673090457916 -0.009777884930372238
v 0.047361068427562714 -0.24675513803958893 -0.037215352058410645
v 0.07175575196743011 -0.2476467788219452 -0.03628821671009064
v 0.04457542300224304 -0.31045621633529663 -0.07229198515415192
v 0.07021965086460114 -0.3115226626396179 -0.0709923654794693
v 0.06739837676286697 -0.4284723699092865 -0.13419471681118011
v 0.047483596950769424 -0.4281947910785675 -0.13566620647907257
vn 0.9994770884513855 -0.028142990544438362 -0.015924422070384026
vn 0.9997392296791077 -0.014649622142314911 -0.017519749701023102
vn 0.9994770884513855 -0.028142990544438362 -0.015924422070384026
vn 0.9994601607322693 -0.03128160908818245 -0.010038417764008045
vn 0.9994601607322693 -0.03128160908818245 -0.010038417764008045
vn 0.9998571872711182 -0.016397956758737564 -0.004079930018633604
vn 0.9998571872711182 -0.016397956758737564 -0.004079930018633604
vn 0.9999752044677734 0.0008853544713929296 -0.00698381382972002
vn 0.9999752044677734 0.0008853544713929296 -0.00698381382972002
vn 0.9998401403427124 0.01363932155072689 -0.011556286364793777
vn 0.9998401403427124 0.01363932155072689 -0.011556286364793777
vn 0.008409075438976288 0.48048117756843567 0.8769647479057312
vn 0.008409075438976288 0.48048117756843567 0.8769647479057312
vn 0.008409075438976288 0.48048117756843567 0.8769647479057312
vn 0.008409075438976288 0.48048117756843567 0.8769647479057312
vn -0.9915468096733093 0.12807731330394745 -0.020760344341397285
vn -0.9979509711265564 -0.04736912623047829 -0.043011393398046494
vn -0.9979509711265564 -0.04736912623047829 -0.043011393398046494
vn -0.9915468096733093 0.12807731330394745 -0.020760344341397285
vn -0.9955671429634094 -0.09282553941011429 -0.015147280879318714
vn -0.9955671429634094 -0.09282553941011429 -0.015147280879318714
vn -0.9989612102508545 0.032593224197626114 0.03184778243303299
vn -0.9989612102508545 0.032593224197626114 0.03184778243303299
vn -0.9995488524436951 -0.006442634388804436 0.029334401711821556
vn -0.9995488524436951 -0.006442634388804436 0.029334401711821556
vn -0.9987731575965881 -0.04021982476115227 0.028887957334518433
vn -0.2159619778394699 0.9317398071289062 -0.2919269800186157
vn -0.13422420620918274 0.8432759642601013 -0.5204513669013977
vn -0.13422420620918274 0.8432759642601013 -0.5204513669013977
vn -0.2159619778394699 0.9317398071289062 -0.2919269800186157
vn -0.024114008992910385 0.6008742451667786 -0.7989796996116638
vn -0.024114008992910385 0.6008742451667786 -0.7989796996116638
vn 0.025120539590716362 0.19561296701431274 -0.9803594350814819
vn 0.025120539590716362 0.19561296701431274 -0.9803594350814819
vn 0.053482286632061005 -0.3562983572483063 -0.9328403472900391
vn 0.051785048097372055 -0.5699791312217712 -0.8200256824493408
vn 0.051785048097372055 -0.5699791312217712 -0.8200256824493408
vn 0.053482286632061005 -0.3562983572483063 -0.9328403472900391
vn 0.025120539590716362 0.19561296701431274 -0.9803594350814819
vn 0.025120539590716362 0.19561296701431274 -0.9803594350814819
vn -0.022195734083652496 -0.843766450881958 0.5362513661384583
vn -0.03058355674147606 -0.6808868646621704 0.7317497134208679
vn -0.03058355674147606 -0.6808868646621704 0.7317497134208679
vn -0.022195734083652496 -0.843766450881958 0.5362513661384583
vn -0.04391343146562576 -0.47723570466041565 0.8776775002479553
vn -0.04391343146562576 -0.47723570466041565 0.8776775002479553
vn -0.05080033093690872 -0.47819653153419495 0.8767824172973633
vn -0.05080033093690872 -0.47819653153419495 0.8767824172973633
vn -0.06112370640039444 -0.47438836097717285 0.8781911134719849
vn -0.06112370640039444 -0.47438836097717285 0.8781911134719849
vn -0.071481853723526 -0.4728858768939972 0.8782194256782532
vn -0.071481853723526 -0.4728858768939972 0.8782194256782532
vt 0.42383769154548645 0.08932679891586304
vt 0.4206426441669464 0.091433584690094
vt 0.4199329912662506 0.08611077070236206
vt 0.4211178719997406 0.08305388689041138
vt 0.42558756470680237 0.08817845582962036
vt 0.42234352231025696 0.08227986097335815
vt 0.42695364356040955 0.08728146553039551
vt 0.42841461300849915 0.08631694316864014
vt 0.4244230091571808 0.08158504962921143
vt 0.4297814667224884 0.08613443374633789
vt 0.42968037724494934 0.082455575466156
vt 0.41593894362449646 0.08118462562561035
vt 0.41460710763931274 0.08143538236618042
vt 0.4137755036354065 0.07773709297180176
vt 0.41454654932022095 0.0777539610862732
vt 0.410030335187912 0.08254802227020264
vt 0.4153172969818115 0.08158504962921143
vt 0.41135838627815247 0.08606112003326416
vt 0.40996065735816956 0.08593189716339111
vt 0.41276562213897705 0.08715879917144775
vt 0.41739726066589355 0.08225387334823608
vt 0.418621301651001 0.08300375938415527
vt 0.414129376411438 0.08803361654281616
vt 0.41978147625923157 0.0859648585319519
vt 0.4158741235733032 0.08915603160858154
vt 0.41905418038368225 0.09129494428634644
vt 0.4107877314090729 0.07312613725662231
vt 0.41132575273513794 0.07817280292510986
vt 0.4103245735168457 0.07823765277862549
vt 0.4099600315093994 0.07312333583831787
vt 0.4101710021495819 0.08024966716766357
vt 0.4112006425857544 0.08016902208328247
vt 0.4110083281993866 0.08134549856185913
vt 0.4099271595478058 0.08143377304077148
vt 0.412980854511261 0.07623064517974854
vt 0.41196930408477783 0.08143377304077148
vt 0.4114677906036377 0.08129709959030151
vt 0.41222822666168213 0.07604247331619263
vt 0.412880539894104 0.07312333583831787
vt 0.41363126039505005 0.07324248552322388
vt 0.40996065735816956 0.08593189716339111
vt 0.41135838627815247 0.08606112003326416
vt 0.4112893342971802 0.0863601565361023
vt 0.4099329710006714 0.08617919683456421
vt 0.412739098072052 0.08731657266616821
vt 0.41276562213897705 0.08715879917144775
vt 0.414129376411438 0.08803361654281616
vt 0.4140947163105011 0.08820599317550659
vt 0.4158741235733032 0.08915603160858154
vt 0.4158311188220978 0.08934462070465088
vt 0.41900163888931274 0.091433584690094
vt 0.41905418038368225 0.09129494428634644

g RC_Robot_Eye_IrisBlade_4_LOD0
s 1
usemtl RC_Robot_Eye_IrisBlade_4_LOD0
f 1/1/1 2/2/2 3/3/3 
f 4/4/4 1/1/1 3/3/3 
f 4/4/4 5/5/5 1/1/1 
f 5/5/5 4/4/4 6/6/6 
f 5/5/5 6/6/6 7/7/7 
f 6/6/6 8/8/8 7/7/7 
f 6/6/6 9/9/9 8/8/8 
f 10/10/10 8/8/8 9/9/9 
f 10/10/10 9/9/9 11/11/11 
f 12/12/12 13/13/13 14/14/14 
f 12/12/12 14/14/14 15/15/15 
f 16/16/16 17/17/17 18/18/18 
f 16/16/16 18/18/18 19/19/19 
f 20/20/20 18/18/18 17/17/17 
f 20/20/20 17/17/17 21/21/21 
f 22/22/22 20/20/20 21/21/21 
f 22/22/22 23/23/23 20/20/20 
f 23/23/23 22/22/22 24/24/24 
f 23/23/23 24/24/24 25/25/25 
f 24/24/24 26/26/26 25/25/25 
f 27/27/27 28/28/28 29/29/29 
f 27/27/27 29/29/29 30/30/30 
f 31/31/31 29/29/29 28/28/28 
f 31/31/31 28/28/28 32/32/32 
f 33/33/33 31/31/31 32/32/32 
f 33/33/33 34/34/34 31/31/31 
f 35/35/35 36/36/36 37/37/37 
f 35/35/35 37/37/37 38/38/38 
f 39/39/39 35/35/35 38/38/38 
f 39/39/39 40/40/40 35/35/35 
f 41/41/41 42/42/42 43/43/43 
f 41/41/41 43/43/43 44/44/44 
f 45/45/45 43/43/43 42/42/42 
f 45/45/45 42/42/42 46/46/46 
f 47/47/47 45/45/45 46/46/46 
f 47/47/47 48/48/48 45/45/45 
f 48/48/48 47/47/47 49/49/49 
f 48/48/48 49/49/49 50/50/50 
f 51/51/51 50/50/50 49/49/49 
f 51/51/51 49/49/49 52/52/52 

