v 0.0702194944024086 0.0001079034773283638 0.3195094168186188
v 0.067398302257061 -0.03548606485128403 0.44759082794189453
v 0.0677863284945488 -0.1765613853931427 0.3190118372440338
v 0.07240302860736847 -0.21618850529193878 0.20937933027744293
v 0.07175567746162415 0.019728217273950577 0.2495126724243164
v 0.07343170046806335 -0.20174294710159302 0.1611785590648651
v 0.07295577973127365 0.03503450006246567 0.19485275447368622
v 0.07424698024988174 0.05128163844347 0.13625216484069824
v 0.07420600950717926 -0.16287308931350708 0.09628532081842422
v 0.07432632148265839 0.08319535851478577 0.10108467191457748
v 0.0720425397157669 -0.003619670867919922 0.003951873630285263
v 0.035182952880859375 0.08284948021173477 0.10019870847463608
v 0.07432632148265839 0.08319535851478577 0.10108467191457748
v 0.0720425397157669 -0.003619670867919922 0.003951873630285263
v 0.050519637763500214 0.00020807742839679122 0.007230262737721205
v 0.050519637763500214 0.00020807742839679122 0.007230262737721205
v 0.04736999422311783 -0.16238920390605927 0.0991080105304718
v 0.03544578328728676 0.04858231917023659 0.13482879102230072
v 0.035182952880859375 0.08284948021173477 0.10019870847463608
v 0.04971000552177429 0.03430763632059097 0.19425292313098907
v 0.04569206014275551 -0.2020195871591568 0.16393885016441345
v 0.043184127658605576 -0.2168501615524292 0.21203157305717468
v 0.04736114293336868 0.018625931814312935 0.24884970486164093
v 0.038023680448532104 -0.17834311723709106 0.3194762170314789
v 0.04457542300224304 -0.0013964604586362839 0.31875887513160706
v 0.04748351871967316 -0.03698241710662842 0.4476476311683655
v 0.0720425397157669 -0.003619670867919922 0.003951873630285263
v 0.07420600950717926 -0.16287308931350708 0.09628532081842422
v 0.04736999422311783 -0.16238920390605927 0.0991080105304718
v 0.050519637763500214 0.00020807742839679122 0.007230262737721205
v 0.04569206014275551 -0.2020195871591568 0.16393885016441345
v 0.07343170046806335 -0.20174294710159302 0.1611785590648651
v 0.07240302860736847 -0.21618850529193878 0.20937933027744293
v 0.043184127658605576 -0.2168501615524292 0.21203157305717468
v 0.0677863284945488 -0.1765613853931427 0.3190118372440338
v 0.067398302257061 -0.03548606485128403 0.44759082794189453
v 0.04748351871967316 -0.03698241710662842 0.4476476311683655
v 0.038023680448532104 -0.17834311723709106 0.3194762170314789
v 0.043184127658605576 -0.2168501615524292 0.21203157305717468
v 0.07240302860736847 -0.21618850529193878 0.20937933027744293
v 0.035182952880859375 0.08284948021173477 0.10019870847463608
v 0.03544578328728676 0.04858231917023659 0.13482879102230072
v 0.07424698024988174 0.05128163844347 0.13625216484069824
v 0.07432632148265839 0.08319535851478577 0.10108467191457748
v 0.07295577973127365 0.03503450006246567 0.19485275447368622
v 0.04971000552177429 0.03430763632059097 0.19425292313098907
v 0.04736114293336868 0.018625931814312935 0.24884970486164093
v 0.07175567746162415 0.019728217273950577 0.2495126724243164
v 0.04457542300224304 -0.0013964604586362839 0.31875887513160706
v 0.0702194944024086 0.0001079034773283638 0.3195094168186188
v 0.067398302257061 -0.03548606485128403 0.44759082794189453
v 0.04748351871967316 -0.03698241710662842 0.4476476311683655
vn 0.9994770884513855 -0.009262455627322197 0.030981261283159256
vn 0.9997392296791077 -0.013820348307490349 0.018180610612034798
vn 0.9994770884513855 -0.009262455627322197 0.030981261283159256
vn 0.9994601607322693 -0.002825547242537141 0.03273148089647293
vn 0.9994601607322693 -0.002825547242537141 0.03273148089647293
vn 0.9998571872711182 -0.00032856568577699363 0.01689520664513111
vn 0.9998571872711182 -0.00032856568577699363 0.01689520664513111
vn 0.9999752044677734 -0.0070067816413939 0.0006923351902514696
vn 0.9999752044677734 -0.0070067816413939 0.0006923351902514696
vn 0.9998401403427124 -0.01430358923971653 -0.010724091902375221
vn 0.9998401403427124 -0.01430358923971653 -0.010724091902375221
vn 0.008409335277974606 0.7480601668357849 -0.663577675819397
vn 0.008409335277974606 0.7480601668357849 -0.663577675819397
vn 0.008409335277974606 0.7480601668357849 -0.663577675819397
vn 0.008409335277974606 0.7480601668357849 -0.663577675819397
vn -0.9915468096733093 -0.04873988404870033 -0.12024657428264618
vn -0.997951090335846 -0.031392574310302734 0.055752240121364594
vn -0.997951090335846 -0.031392574310302734 0.055752240121364594
vn -0.9915468096733093 -0.04873988404870033 -0.12024657428264618
vn -0.9955671429634094 0.0058881621807813644 0.09386847168207169
vn -0.9955671429634094 0.0058881621807813644 0.09386847168207169
vn -0.9989612102508545 0.023796990513801575 -0.03886330872774124
vn -0.9989612102508545 0.023796990513801575 -0.03886330872774124
vn -0.9995488524436951 0.0300331749022007 -0.00024686523829586804
vn -0.9995488524436951 0.0300331749022007 -0.00024686523829586804
vn -0.9987731575965881 0.03711429983377457 0.03278300166130066
vn -0.2159610241651535 -0.4919395446777344 -0.8434194922447205
vn -0.13422365486621857 -0.6950491666793823 -0.7063218951225281
vn -0.13422365486621857 -0.6950491666793823 -0.7063218951225281
vn -0.2159610241651535 -0.4919395446777344 -0.8434194922447205
vn -0.024114279076457024 -0.9126547574996948 -0.4080192446708679
vn -0.024114279076457024 -0.9126547574996948 -0.4080192446708679
vn 0.025119947269558907 -0.9993077516555786 0.027442093938589096
vn 0.025119947269558907 -0.9993077516555786 0.027442093938589096
vn 0.053481873124837875 -0.8301681876182556 0.5549418330192566
vn 0.051784735172986984 -0.6726334691047668 0.7381616234779358
vn 0.051784735172986984 -0.6726334691047668 0.7381616234779358
vn 0.053481873124837875 -0.8301681876182556 0.5549418330192566
vn 0.025119947269558907 -0.9993077516555786 0.027442093938589096
vn 0.025119947269558907 -0.9993077516555786 0.027442093938589096
vn -0.022196518257260323 0.7105621099472046 0.7032842636108398
vn -0.030583549290895462 0.8649147748947144 0.5009860992431641
vn -0.030583549290895462 0.8649147748947144 0.5009860992431641
vn -0.022196518257260323 0.7105621099472046 0.7032842636108398
vn -0.043913066387176514 0.9618671536445618 0.26996877789497375
vn -0.043913066387176514 0.9618671536445618 0.26996877789497375
vn -0.050800394266843796 0.9612084031105042 0.2711045742034912
vn -0.050800394266843796 0.9612084031105042 0.2711045742034912
vn -0.06112395599484444 0.961734414100647 0.2670784890651703
vn -0.06112395599484444 0.961734414100647 0.2670784890651703
vn -0.07148224860429764 0.9614275097846985 0.26560741662979126
vn -0.07148224860429764 0.9614275097846985 0.26560741662979126
vt 0.42383769154548645 0.08932679891586304
vt 0.4206426441669464 0.091433584690094
vt 0.4199329912662506 0.08611077070236206
vt 0.4211178719997406 0.08305388689041138
vt 0.42558756470680237 0.08817845582962036
vt 0.42234352231025696 0.08227986097335815
vt 0.42695364356040955 0.08728146553039551
vt 0.42841461300849915 0.08631694316864014
vt 0.4244230091571808 0.08158504962921143
vt 0.4297814667224884 0.08613443374633789
vt 0.42968037724494934 0.082455575466156
vt 0.41593894362449646 0.08118462562561035
vt 0.41460710763931274 0.08143538236618042
vt 0.4137755036354065 0.07773709297180176
vt 0.41454654932022095 0.0777539610862732
vt 0.410030335187912 0.08254802227020264
vt 0.4153172969818115 0.08158504962921143
vt 0.41135838627815247 0.08606112003326416
vt 0.40996065735816956 0.08593189716339111
vt 0.41276562213897705 0.08715879917144775
vt 0.41739726066589355 0.08225387334823608
vt 0.418621301651001 0.08300375938415527
vt 0.414129376411438 0.08803361654281616
vt 0.41978147625923157 0.0859648585319519
vt 0.4158741235733032 0.08915603160858154
vt 0.41905418038368225 0.09129494428634644
vt 0.4107877314090729 0.07312613725662231
vt 0.41132575273513794 0.07817280292510986
vt 0.4103245735168457 0.07823765277862549
vt 0.4099600315093994 0.07312333583831787
vt 0.4101710021495819 0.08024966716766357
vt 0.4112006425857544 0.08016902208328247
vt 0.4110083281993866 0.08134549856185913
vt 0.4099271595478058 0.08143377304077148
vt 0.412980854511261 0.07623064517974854
vt 0.41196930408477783 0.08143377304077148
vt 0.4114677906036377 0.08129709959030151
vt 0.41222822666168213 0.07604247331619263
vt 0.412880539894104 0.07312333583831787
vt 0.41363126039505005 0.07324248552322388
vt 0.40996065735816956 0.08593189716339111
vt 0.41135838627815247 0.08606112003326416
vt 0.4112893342971802 0.0863601565361023
vt 0.4099329710006714 0.08617919683456421
vt 0.412739098072052 0.08731657266616821
vt 0.41276562213897705 0.08715879917144775
vt 0.414129376411438 0.08803361654281616
vt 0.4140947163105011 0.08820599317550659
vt 0.4158741235733032 0.08915603160858154
vt 0.4158311188220978 0.08934462070465088
vt 0.41900163888931274 0.091433584690094
vt 0.41905418038368225 0.09129494428634644

g RC_Robot_Eye_IrisBlade_6_LOD0
s 1
usemtl RC_Robot_Eye_IrisBlade_6_LOD0
f 1/1/1 2/2/2 3/3/3 
f 4/4/4 1/1/1 3/3/3 
f 4/4/4 5/5/5 1/1/1 
f 5/5/5 4/4/4 6/6/6 
f 5/5/5 6/6/6 7/7/7 
f 6/6/6 8/8/8 7/7/7 
f 6/6/6 9/9/9 8/8/8 
f 10/10/10 8/8/8 9/9/9 
f 10/10/10 9/9/9 11/11/11 
f 12/12/12 13/13/13 14/14/14 
f 12/12/12 14/14/14 15/15/15 
f 16/16/16 17/17/17 18/18/18 
f 16/16/16 18/18/18 19/19/19 
f 20/20/20 18/18/18 17/17/17 
f 20/20/20 17/17/17 21/21/21 
f 22/22/22 20/20/20 21/21/21 
f 22/22/22 23/23/23 20/20/20 
f 23/23/23 22/22/22 24/24/24 
f 23/23/23 24/24/24 25/25/25 
f 24/24/24 26/26/26 25/25/25 
f 27/27/27 28/28/28 29/29/29 
f 27/27/27 29/29/29 30/30/30 
f 31/31/31 29/29/29 28/28/28 
f 31/31/31 28/28/28 32/32/32 
f 33/33/33 31/31/31 32/32/32 
f 33/33/33 34/34/34 31/31/31 
f 35/35/35 36/36/36 37/37/37 
f 35/35/35 37/37/37 38/38/38 
f 39/39/39 35/35/35 38/38/38 
f 39/39/39 40/40/40 35/35/35 
f 41/41/41 42/42/42 43/43/43 
f 41/41/41 43/43/43 44/44/44 
f 45/45/45 43/43/43 42/42/42 
f 45/45/45 42/42/42 46/46/46 
f 47/47/47 45/45/45 46/46/46 
f 47/47/47 48/48/48 45/45/45 
f 48/48/48 47/47/47 49/49/49 
f 48/48/48 49/49/49 50/50/50 
f 51/51/51 50/50/50 49/49/49 
f 51/51/51 49/49/49 52/52/52 

