v 0.0702194944024086 0.24986979365348816 0.1991264820098877
v 0.06739814579486847 0.327815443277359 0.3068124055862427
v 0.06778625398874283 0.13932929933071136 0.33694183826446533
v 0.07240302860736847 0.028908060863614082 0.2995688319206238
v 0.07175559550523758 0.20737724006175995 0.1401444375514984
v 0.07343177497386932 0.00022983551025390625 0.25822216272354126
v 0.07295570522546768 0.17418569326400757 0.09409759193658829
v 0.07424689829349518 0.13849982619285583 0.04485822468996048
v 0.07420600950717926 -0.02627079002559185 0.18737220764160156
v 0.07432624697685242 0.13090264797210693 -0.002019500592723489
v 0.07204261422157288 0.0008328628609888256 0.005293903406709433
v 0.035182952880859375 0.12999433279037476 -0.0023014640901237726
v 0.07432624697685242 0.13090264797210693 -0.002019500592723489
v 0.07204261422157288 0.0008328628609888256 0.005293903406709433
v 0.05051971226930618 0.0057826233096420765 0.00434532156214118
v 0.05051971226930618 0.0057826233096420765 0.00434532156214118
v 0.047370146960020065 -0.02376224473118782 0.18875379860401154
v 0.03544578328728676 0.13570399582386017 0.046081189066171646
v 0.035182952880859375 0.12999433279037476 -0.0023014640901237726
v 0.04970993101596832 0.1732635200023651 0.09429190307855606
v 0.045692138373851776 0.002215423621237278 0.2601594626903534
v 0.043184127658605576 0.03056909516453743 0.30173978209495544
v 0.04736114293336868 0.20617161691188812 0.14059290289878845
v 0.038023680448532104 0.13858148455619812 0.33862441778182983
v 0.04457542300224304 0.24834506213665009 0.1998347043991089
v 0.04748351871967316 0.3269268870353699 0.3080177307128906
v 0.07204261422157288 0.0008328628609888256 0.005293903406709433
v 0.07420600950717926 -0.02627079002559185 0.18737220764160156
v 0.047370146960020065 -0.02376224473118782 0.18875379860401154
v 0.05051971226930618 0.0057826233096420765 0.00434532156214118
v 0.045692138373851776 0.002215423621237278 0.2601594626903534
v 0.07343177497386932 0.00022983551025390625 0.25822216272354126
v 0.07240302860736847 0.028908060863614082 0.2995688319206238
v 0.043184127658605576 0.03056909516453743 0.30173978209495544
v 0.06778625398874283 0.13932929933071136 0.33694183826446533
v 0.06739814579486847 0.327815443277359 0.3068124055862427
v 0.04748351871967316 0.3269268870353699 0.3080177307128906
v 0.038023680448532104 0.13858148455619812 0.33862441778182983
v 0.043184127658605576 0.03056909516453743 0.30173978209495544
v 0.07240302860736847 0.028908060863614082 0.2995688319206238
v 0.035182952880859375 0.12999433279037476 -0.0023014640901237726
v 0.03544578328728676 0.13570399582386017 0.046081189066171646
v 0.07424689829349518 0.13849982619285583 0.04485822468996048
v 0.07432624697685242 0.13090264797210693 -0.002019500592723489
v 0.07295570522546768 0.17418569326400757 0.09409759193658829
v 0.04970993101596832 0.1732635200023651 0.09429190307855606
v 0.04736114293336868 0.20617161691188812 0.14059290289878845
v 0.07175559550523758 0.20737724006175995 0.1401444375514984
v 0.04457542300224304 0.24834506213665009 0.1998347043991089
v 0.0702194944024086 0.24986979365348816 0.1991264820098877
v 0.06739814579486847 0.327815443277359 0.3068124055862427
v 0.04748351871967316 0.3269268870353699 0.3080177307128906
vn 0.9994770884513855 0.01844717375934124 0.026557812467217445
vn 0.9997392296791077 0.005597664043307304 0.022140422835946083
vn 0.9994770884513855 0.01844717375934124 0.026557812467217445
vn 0.9994601607322693 0.023829029873013496 0.022616684436798096
vn 0.9994601607322693 0.023829029873013496 0.022616684436798096
vn 0.9998571872711182 0.013004467822611332 0.010790349915623665
vn 0.9998571872711182 0.013004467822611332 0.010790349915623665
vn 0.9999752044677734 -0.0038269520737230778 0.005908123683184385
vn 0.9999752044677734 -0.0038269520737230778 0.005908123683184385
vn 0.999840259552002 -0.017301352694630623 0.004494628868997097
vn 0.999840259552002 -0.017301352694630623 0.004494628868997097
vn 0.008409049361944199 -0.05239802226424217 -0.998590886592865
vn 0.008409049361944199 -0.05239802226424217 -0.998590886592865
vn 0.008409049361944199 -0.05239802226424217 -0.998590886592865
vn 0.008409049361944199 -0.05239802226424217 -0.998590886592865
vn -0.9915469288825989 -0.12440114468336105 -0.03686568886041641
vn -0.997951090335846 0.024015411734580994 0.0593046098947525
vn -0.997951090335846 0.024015411734580994 0.0593046098947525
vn -0.9915469288825989 -0.12440114468336105 -0.03686568886041641
vn -0.995567262172699 0.07705964148044586 0.05392242968082428
vn -0.995567262172699 0.07705964148044586 0.05392242968082428
vn -0.9989612102508545 -0.015547665767371655 -0.04283544793725014
vn -0.9989612102508545 -0.015547665767371655 -0.04283544793725014
vn -0.9995488524436951 0.018532175570726395 -0.0236342865973711
vn -0.9995488524436951 0.018532175570726395 -0.0236342865973711
vn -0.9987731575965881 0.048770856112241745 -0.008577117696404457
vn -0.21596020460128784 -0.966131329536438 -0.1412496417760849
vn -0.13422223925590515 -0.9855809807777405 0.10302677750587463
vn -0.13422223925590515 -0.9855809807777405 0.10302677750587463
vn -0.21596020460128784 -0.966131329536438 -0.1412496417760849
vn -0.024112645536661148 -0.8880333304405212 0.4591463804244995
vn -0.024112645536661148 -0.8880333304405212 0.4591463804244995
vn 0.02512115240097046 -0.6016029715538025 0.7984001040458679
vn 0.02512115240097046 -0.6016029715538025 0.7984001040458679
vn 0.05348246172070503 -0.08373028039932251 0.99505215883255
vn 0.0517849326133728 0.1577378511428833 0.9861223101615906
vn 0.0517849326133728 0.1577378511428833 0.9861223101615906
vn 0.05348246172070503 -0.08373028039932251 0.99505215883255
vn 0.02512115240097046 -0.6016029715538025 0.7984001040458679
vn 0.02512115240097046 -0.6016029715538025 0.7984001040458679
vn -0.022196553647518158 0.9928780198097229 -0.11704923212528229
vn -0.03058391995728016 0.9309521913528442 -0.36385804414749146
vn -0.03058391995728016 0.9309521913528442 -0.36385804414749146
vn -0.022196553647518158 0.9928780198097229 -0.11704923212528229
vn -0.04391396418213844 0.8107843399047852 -0.5836953520774841
vn -0.04391396418213844 0.8107843399047852 -0.5836953520774841
vn -0.05080149695277214 0.811261773109436 -0.5824719667434692
vn -0.05080149695277214 0.811261773109436 -0.5824719667434692
vn -0.06112475320696831 0.8084418177604675 -0.585393488407135
vn -0.06112475320696831 0.8084418177604675 -0.585393488407135
vn -0.071482814848423 0.8071003556251526 -0.5860710740089417
vn -0.071482814848423 0.8071003556251526 -0.5860710740089417
vt 0.42383769154548645 0.08932679891586304
vt 0.4206426441669464 0.091433584690094
vt 0.4199329912662506 0.08611077070236206
vt 0.4211178719997406 0.08305388689041138
vt 0.42558756470680237 0.08817845582962036
vt 0.42234352231025696 0.08227986097335815
vt 0.42695364356040955 0.08728146553039551
vt 0.42841461300849915 0.08631694316864014
vt 0.4244230091571808 0.08158504962921143
vt 0.4297814667224884 0.08613443374633789
vt 0.42968037724494934 0.082455575466156
vt 0.41593894362449646 0.08118462562561035
vt 0.41460710763931274 0.08143538236618042
vt 0.4137755036354065 0.07773709297180176
vt 0.41454654932022095 0.0777539610862732
vt 0.410030335187912 0.08254802227020264
vt 0.4153172969818115 0.08158504962921143
vt 0.41135838627815247 0.08606112003326416
vt 0.40996065735816956 0.08593189716339111
vt 0.41276562213897705 0.08715879917144775
vt 0.41739726066589355 0.08225387334823608
vt 0.418621301651001 0.08300375938415527
vt 0.414129376411438 0.08803361654281616
vt 0.41978147625923157 0.0859648585319519
vt 0.4158741235733032 0.08915603160858154
vt 0.41905418038368225 0.09129494428634644
vt 0.4107877314090729 0.07312613725662231
vt 0.41132575273513794 0.07817280292510986
vt 0.4103245735168457 0.07823765277862549
vt 0.4099600315093994 0.07312333583831787
vt 0.4101710021495819 0.08024966716766357
vt 0.4112006425857544 0.08016902208328247
vt 0.4110083281993866 0.08134549856185913
vt 0.4099271595478058 0.08143377304077148
vt 0.412980854511261 0.07623064517974854
vt 0.41196930408477783 0.08143377304077148
vt 0.4114677906036377 0.08129709959030151
vt 0.41222822666168213 0.07604247331619263
vt 0.412880539894104 0.07312333583831787
vt 0.41363126039505005 0.07324248552322388
vt 0.40996065735816956 0.08593189716339111
vt 0.41135838627815247 0.08606112003326416
vt 0.4112893342971802 0.0863601565361023
vt 0.4099329710006714 0.08617919683456421
vt 0.412739098072052 0.08731657266616821
vt 0.41276562213897705 0.08715879917144775
vt 0.414129376411438 0.08803361654281616
vt 0.4140947163105011 0.08820599317550659
vt 0.4158741235733032 0.08915603160858154
vt 0.4158311188220978 0.08934462070465088
vt 0.41900163888931274 0.091433584690094
vt 0.41905418038368225 0.09129494428634644

g RC_Robot_Eye_IrisBlade_7_LOD0
s 1
usemtl RC_Robot_Eye_IrisBlade_7_LOD0
f 1/1/1 2/2/2 3/3/3 
f 4/4/4 1/1/1 3/3/3 
f 4/4/4 5/5/5 1/1/1 
f 5/5/5 4/4/4 6/6/6 
f 5/5/5 6/6/6 7/7/7 
f 6/6/6 8/8/8 7/7/7 
f 6/6/6 9/9/9 8/8/8 
f 10/10/10 8/8/8 9/9/9 
f 10/10/10 9/9/9 11/11/11 
f 12/12/12 13/13/13 14/14/14 
f 12/12/12 14/14/14 15/15/15 
f 16/16/16 17/17/17 18/18/18 
f 16/16/16 18/18/18 19/19/19 
f 20/20/20 18/18/18 17/17/17 
f 20/20/20 17/17/17 21/21/21 
f 22/22/22 20/20/20 21/21/21 
f 22/22/22 23/23/23 20/20/20 
f 23/23/23 22/22/22 24/24/24 
f 23/23/23 24/24/24 25/25/25 
f 24/24/24 26/26/26 25/25/25 
f 27/27/27 28/28/28 29/29/29 
f 27/27/27 29/29/29 30/30/30 
f 31/31/31 29/29/29 28/28/28 
f 31/31/31 28/28/28 32/32/32 
f 33/33/33 31/31/31 32/32/32 
f 33/33/33 34/34/34 31/31/31 
f 35/35/35 36/36/36 37/37/37 
f 35/35/35 37/37/37 38/38/38 
f 39/39/39 35/35/35 38/38/38 
f 39/39/39 40/40/40 35/35/35 
f 41/41/41 42/42/42 43/43/43 
f 41/41/41 43/43/43 44/44/44 
f 45/45/45 43/43/43 42/42/42 
f 45/45/45 42/42/42 46/46/46 
f 47/47/47 45/45/45 46/46/46 
f 47/47/47 48/48/48 45/45/45 
f 48/48/48 47/47/47 49/49/49 
f 48/48/48 49/49/49 50/50/50 
f 51/51/51 50/50/50 49/49/49 
f 51/51/51 49/49/49 52/52/52 

