v 0.0 0.13518387079238892 0.0
v -0.18578368425369263 0.13160595297813416 0.448525995016098
v 0.18577881157398224 0.13160595297813416 0.44850677251815796
v 0.4485253691673279 0.13160595297813416 0.1857856661081314
v 0.44792479276657104 0.13160595297813416 -0.18599547445774078
v 0.18578368425369263 0.13160595297813416 -0.44852614402770996
v -0.18578368425369263 0.13160595297813416 -0.4485262930393219
v -0.4485229253768921 0.13160595297813416 -0.18578048050403595
v -0.4485253691673279 0.13160595297813416 0.1857856661081314
v 0.0 0.0 0.0
v 0.18577636778354645 0.003577918978407979 0.4485069215297699
v -0.18578368425369263 0.003577918978407979 0.448525995016098
v 0.4485253691673279 0.003577918978407979 0.18578583002090454
v 0.4477783143520355 0.003577918978407979 -0.18634414672851562
v 0.18578368425369263 0.003577918978407979 -0.44852644205093384
v -0.18578368425369263 0.003577918978407979 -0.4485262930393219
v -0.4485253691673279 0.0035778807941824198 -0.18577803671360016
v -0.4485253691673279 0.0035778807941824198 0.1857856661081314
v -0.2077343761920929 0.0302179716527462 0.5015130639076233
v -0.501513659954071 0.0302179716527462 0.20773360133171082
v -0.4485253691673279 0.0035778807941824198 0.1857856661081314
v -0.18578368425369263 0.003577918978407979 0.448525995016098
v -0.18578368425369263 0.003577918978407979 0.448525995016098
v 0.18577636778354645 0.003577918978407979 0.4485069215297699
v 0.20772460103034973 0.0302179716527462 0.5014929175376892
v -0.2077343761920929 0.0302179716527462 0.5015130639076233
v 0.18577636778354645 0.003577918978407979 0.4485069215297699
v 0.4485253691673279 0.003577918978407979 0.18578583002090454
v 0.501513659954071 0.0302179716527462 0.20773376524448395
v 0.20772460103034973 0.0302179716527462 0.5014929175376892
v 0.4485253691673279 0.003577918978407979 0.18578583002090454
v 0.4477783143520355 0.003577918978407979 -0.18634414672851562
v 0.5007055401802063 0.0302179716527462 -0.2083694338798523
v 0.501513659954071 0.0302179716527462 0.20773376524448395
v 0.4477783143520355 0.003577918978407979 -0.18634414672851562
v 0.18578368425369263 0.003577918978407979 -0.44852644205093384
v 0.2077343761920929 0.0302179716527462 -0.5015134811401367
v 0.5007055401802063 0.0302179716527462 -0.2083694338798523
v 0.18578368425369263 0.003577918978407979 -0.44852644205093384
v -0.18578368425369263 0.003577918978407979 -0.4485262930393219
v -0.2077343761920929 0.0302179716527462 -0.5015133619308472
v 0.2077343761920929 0.0302179716527462 -0.5015134811401367
v -0.18578368425369263 0.003577918978407979 -0.4485262930393219
v -0.4485253691673279 0.0035778807941824198 -0.18577803671360016
v -0.501513659954071 0.0302179716527462 -0.20772521197795868
v -0.2077343761920929 0.0302179716527462 -0.5015133619308472
v -0.4485253691673279 0.0035778807941824198 -0.18577803671360016
v -0.4485253691673279 0.0035778807941824198 0.1857856661081314
v -0.501513659954071 0.0302179716527462 0.20773360133171082
v -0.501513659954071 0.0302179716527462 -0.20772521197795868
v 0.20772460103034973 0.0302179716527462 0.5014929175376892
v 0.501513659954071 0.0302179716527462 0.20773376524448395
v 0.501513659954071 0.10496589541435242 0.20773376524448395
v 0.20772460103034973 0.10496589541435242 0.5014929175376892
v 0.20772460103034973 0.10496589541435242 0.5014929175376892
v -0.2077343761920929 0.10496589541435242 0.5015130639076233
v -0.2077343761920929 0.0302179716527462 0.5015130639076233
v 0.20772460103034973 0.0302179716527462 0.5014929175376892
v -0.2077343761920929 0.10496589541435242 0.5015130639076233
v -0.501513659954071 0.10496589541435242 0.20773360133171082
v -0.501513659954071 0.0302179716527462 0.20773360133171082
v -0.2077343761920929 0.0302179716527462 0.5015130639076233
v -0.501513659954071 0.10496589541435242 0.20773360133171082
v -0.501513659954071 0.10496589541435242 -0.20772521197795868
v -0.501513659954071 0.0302179716527462 -0.20772521197795868
v -0.501513659954071 0.0302179716527462 0.20773360133171082
v -0.501513659954071 0.10496589541435242 -0.20772521197795868
v -0.2077343761920929 0.10496589541435242 -0.5015133619308472
v -0.2077343761920929 0.0302179716527462 -0.5015133619308472
v -0.501513659954071 0.0302179716527462 -0.20772521197795868
v -0.2077343761920929 0.10496589541435242 -0.5015133619308472
v 0.2077343761920929 0.10496589541435242 -0.5015131831169128
v 0.2077343761920929 0.0302179716527462 -0.5015134811401367
v -0.2077343761920929 0.0302179716527462 -0.5015133619308472
v 0.2077343761920929 0.10496589541435242 -0.5015131831169128
v 0.5007055401802063 0.10496589541435242 -0.2083694338798523
v 0.5007055401802063 0.0302179716527462 -0.2083694338798523
v 0.2077343761920929 0.0302179716527462 -0.5015134811401367
v 0.5007055401802063 0.10496589541435242 -0.2083694338798523
v 0.501513659954071 0.10496589541435242 0.20773376524448395
v 0.501513659954071 0.0302179716527462 0.20773376524448395
v 0.5007055401802063 0.0302179716527462 -0.2083694338798523
v -0.18578368425369263 0.13160595297813416 0.448525995016098
v -0.4485253691673279 0.13160595297813416 0.1857856661081314
v -0.501513659954071 0.10496589541435242 0.20773360133171082
v -0.2077343761920929 0.10496589541435242 0.5015130639076233
v 0.20772460103034973 0.10496589541435242 0.5014929175376892
v 0.18577881157398224 0.13160595297813416 0.44850677251815796
v -0.18578368425369263 0.13160595297813416 0.448525995016098
v -0.2077343761920929 0.10496589541435242 0.5015130639076233
v 0.501513659954071 0.10496589541435242 0.20773376524448395
v 0.4485253691673279 0.13160595297813416 0.1857856661081314
v 0.18577881157398224 0.13160595297813416 0.44850677251815796
v 0.20772460103034973 0.10496589541435242 0.5014929175376892
v 0.5007055401802063 0.10496589541435242 -0.2083694338798523
v 0.44792479276657104 0.13160595297813416 -0.18599547445774078
v 0.4485253691673279 0.13160595297813416 0.1857856661081314
v 0.501513659954071 0.10496589541435242 0.20773376524448395
v 0.2077343761920929 0.10496589541435242 -0.5015131831169128
v 0.18578368425369263 0.13160595297813416 -0.44852614402770996
v 0.44792479276657104 0.13160595297813416 -0.18599547445774078
v 0.5007055401802063 0.10496589541435242 -0.2083694338798523
v -0.2077343761920929 0.10496589541435242 -0.5015133619308472
v -0.18578368425369263 0.13160595297813416 -0.4485262930393219
v 0.18578368425369263 0.13160595297813416 -0.44852614402770996
v 0.2077343761920929 0.10496589541435242 -0.5015131831169128
v -0.501513659954071 0.10496589541435242 -0.20772521197795868
v -0.4485229253768921 0.13160595297813416 -0.18578048050403595
v -0.18578368425369263 0.13160595297813416 -0.4485262930393219
v -0.2077343761920929 0.10496589541435242 -0.5015133619308472
v -0.501513659954071 0.10496589541435242 0.20773360133171082
v -0.4485253691673279 0.13160595297813416 0.1857856661081314
v -0.4485229253768921 0.13160595297813416 -0.18578048050403595
v -0.501513659954071 0.10496589541435242 -0.20772521197795868
vn 0.0 1.0 0.0
vn 4.120115590922069e-07 0.9999681711196899 0.007977128960192204
vn 4.120115590922069e-07 0.9999681711196899 0.007977128960192204
vn 0.005640300456434488 0.9999681711196899 0.005640858318656683
vn 0.00798217486590147 0.9999681711196899 -1.2599164620041847e-05
vn 0.00564634520560503 0.9999681711196899 -0.005638090427964926
vn 0.0 0.9999681711196899 -0.007976904511451721
vn -0.0056405095383524895 0.9999681711196899 -0.005640394985675812
vn -0.00797677505761385 0.9999681711196899 0.0
vn 0.0 -1.0 0.0
vn 4.028594844385225e-07 -0.9999681711196899 0.007977057248353958
vn 4.028594844385225e-07 -0.9999681711196899 0.007977057248353958
vn 0.005640283226966858 -0.9999681711196899 0.005640832707285881
vn 0.007983406074345112 -0.9999681711196899 -1.5809830074431375e-05
vn 0.005643291398882866 -0.9999681711196899 -0.0056392112746834755
vn 0.0 -0.9999681711196899 -0.007977050729095936
vn -0.005640454590320587 -0.9999681711196899 -0.00564024830237031
vn -0.007976711727678776 -0.9999681711196899 0.0
vn -0.3176036477088928 -0.8934512138366699 0.3176049590110779
vn -0.3176036477088928 -0.8934512138366699 0.3176049590110779
vn -0.3176036477088928 -0.8934512138366699 0.3176049590110779
vn -0.3176036477088928 -0.8934512138366699 0.3176049590110779
vn 2.223018054792192e-05 -0.8934342861175537 0.4491940438747406
vn 2.223018054792192e-05 -0.8934342861175537 0.4491940438747406
vn 2.223018054792192e-05 -0.8934342861175537 0.4491940438747406
vn 2.223018054792192e-05 -0.8934342861175537 0.4491940438747406
vn 0.31760627031326294 -0.8934381604194641 0.31763896346092224
vn 0.31760627031326294 -0.8934381604194641 0.31763896346092224
vn 0.31760627031326294 -0.8934381604194641 0.31763896346092224
vn 0.31760627031326294 -0.8934381604194641 0.31763896346092224
vn 0.4494081735610962 -0.8933261036872864 -0.0008867087308317423
vn 0.4494081735610962 -0.8933261036872864 -0.0008867087308317423
vn 0.4494081735610962 -0.8933261036872864 -0.0008867087308317423
vn 0.4494081735610962 -0.8933261036872864 -0.0008867087308317423
vn 0.31769824028015137 -0.8934575915336609 -0.3174923360347748
vn 0.31769824028015137 -0.8934575915336609 -0.3174923360347748
vn 0.31769824028015137 -0.8934575915336609 -0.3174923360347748
vn 0.31769824028015137 -0.8934575915336609 -0.3174923360347748
vn -1.3076200389150472e-07 -0.8934359550476074 -0.44919049739837646
vn -1.3076200389150472e-07 -0.8934359550476074 -0.44919049739837646
vn -1.3076200389150472e-07 -0.8934359550476074 -0.44919049739837646
vn -1.3076200389150472e-07 -0.8934359550476074 -0.44919049739837646
vn -0.3176169991493225 -0.8934451341629028 -0.3176087737083435
vn -0.3176169991493225 -0.8934451341629028 -0.3176087737083435
vn -0.3176169991493225 -0.8934451341629028 -0.3176087737083435
vn -0.3176169991493225 -0.8934451341629028 -0.3176087737083435
vn -0.44917988777160645 -0.8934413194656372 0.0
vn -0.44917988777160645 -0.8934413194656372 0.0
vn -0.44917988777160645 -0.8934413194656372 0.0
vn -0.44917988777160645 -0.8934413194656372 0.0
vn 0.7070707678794861 0.0 0.70714271068573
vn 0.7070707678794861 0.0 0.70714271068573
vn 0.7070707678794861 0.0 0.70714271068573
vn 0.7070707678794861 0.0 0.70714271068573
vn 4.834901847061701e-05 0.0 1.0
vn 4.834901847061701e-05 0.0 1.0
vn 4.834901847061701e-05 0.0 1.0
vn 4.834901847061701e-05 0.0 1.0
vn -0.70710688829422 0.0 0.7071065902709961
vn -0.70710688829422 0.0 0.7071065902709961
vn -0.70710688829422 0.0 0.7071065902709961
vn -0.70710688829422 0.0 0.7071065902709961
vn -1.0 0.0 0.0
vn -1.0 0.0 0.0
vn -1.0 0.0 0.0
vn -1.0 0.0 0.0
vn -0.7071175575256348 0.0 -0.7070959806442261
vn -0.7071175575256348 0.0 -0.7070959806442261
vn -0.7071175575256348 0.0 -0.7070959806442261
vn -0.7071175575256348 0.0 -0.7070959806442261
vn 0.0 2.0413654056028463e-06 -1.0
vn 0.0 2.0413654056028463e-06 -1.0
vn 0.0 2.0413654056028463e-06 -1.0
vn 0.0 2.0413654056028463e-06 -1.0
vn 0.7073150277137756 -2.5218705559382215e-05 -0.7068984508514404
vn 0.7073149681091309 -2.5218711016350426e-05 -0.7068984508514404
vn 0.7073149681091309 -2.5218711016350426e-05 -0.7068984508514404
vn 0.7073150277137756 -2.521870737837162e-05 -0.7068983912467957
vn 0.9999980926513672 0.0 -0.0019420753233134747
vn 0.9999980926513672 0.0 -0.0019420753233134747
vn 0.9999980926513672 0.0 -0.0019420753233134747
vn 0.9999980926513672 0.0 -0.0019420753233134747
vn -0.3176082670688629 0.8934481739997864 0.3176088035106659
vn -0.3176082670688629 0.8934481739997864 0.3176088035106659
vn -0.3176082670688629 0.8934481739997864 0.3176088035106659
vn -0.3176082670688629 0.8934481739997864 0.3176088333129883
vn 2.2491556592285633e-05 0.8934352993965149 0.4491919279098511
vn 2.2491556592285633e-05 0.8934352993965149 0.4491919279098511
vn 2.2491556592285633e-05 0.8934352993965149 0.4491919279098511
vn 2.2491543859359808e-05 0.8934352993965149 0.4491918981075287
vn 0.31761085987091064 0.8934351205825806 0.31764277815818787
vn 0.31761085987091064 0.8934351205825806 0.31764277815818787
vn 0.31761085987091064 0.8934351205825806 0.31764277815818787
vn 0.3176167905330658 0.8934308290481567 0.3176490068435669
vn 0.44988101720809937 0.8930881023406982 -0.0008044274873100221
vn 0.44988101720809937 0.8930881023406982 -0.0008044274873100221
vn 0.44988101720809937 0.8930881023406982 -0.0008044274873100221
vn 0.4498852491378784 0.8930859565734863 -0.0008044308051466942
vn 0.31741228699684143 0.8937017321586609 -0.31709083914756775
vn 0.31741228699684143 0.8937017321586609 -0.31709083914756775
vn 0.31741228699684143 0.8937017321586609 -0.31709083914756775
vn 0.3174181878566742 0.8936975598335266 -0.31709688901901245
vn 1.3076181915039342e-07 0.8934358954429626 -0.44919079542160034
vn 1.3076194704808586e-07 0.8934355974197388 -0.4491913318634033
vn 1.3076194704808586e-07 0.8934355974197388 -0.4491913318634033
vn 1.3076181915039342e-07 0.8934358954429626 -0.44919079542160034
vn -0.3176229000091553 0.8934410214424133 -0.3176141679286957
vn -0.31762054562568665 0.8934427499771118 -0.31761178374290466
vn -0.31762054562568665 0.8934427499771118 -0.31761178374290466
vn -0.3176228702068329 0.8934410214424133 -0.3176141381263733
vn -0.4491831362247467 0.8934397101402283 -1.438376102669281e-06
vn -0.44918060302734375 0.8934409022331238 -1.438367917216965e-06
vn -0.44918060302734375 0.8934409022331238 -1.438367917216965e-06
vn -0.4491831362247467 0.8934397101402283 -1.438376102669281e-06
vt 0.39069050550460815 0.3653110861778259
vt 0.40920567512512207 0.4547118544578552
vt 0.3721756935119629 0.45470815896987915
vt 0.34599000215530396 0.4023422598838806
vt 0.3460499048233032 0.32823824882507324
vt 0.3721749782562256 0.27591007947921753
vt 0.40920567512512207 0.27591007947921753
vt 0.4353905916213989 0.328281044960022
vt 0.4353907108306885 0.4023422598838806
vt 0.1727500557899475 0.36581242084503174
vt 0.21760453283786774 0.32865381240844727
vt 0.21760670840740204 0.4029726982116699
vt 0.19133014976978302 0.27609944343566895
vt 0.1541140079498291 0.2761041522026062
vt 0.1278936266899109 0.3286523222923279
vt 0.1278936266899109 0.4029728174209595
vt 0.15417063236236572 0.45552539825439453
vt 0.19133014976978302 0.455525279045105
vt 0.2954981327056885 0.46587932109832764
vt 0.3245578408241272 0.40775972604751587
vt 0.31931668519973755 0.40341782569885254
vt 0.2933269441127777 0.4553968906402588
vt 0.2933269441127777 0.4553968906402588
vt 0.2565734386444092 0.45539307594299316
vt 0.254402220249176 0.46587544679641724
vt 0.2954981327056885 0.46587932109832764
vt 0.2565734386444092 0.45539307594299316
vt 0.2305830717086792 0.40341782569885254
vt 0.22534151375293732 0.40775978565216064
vt 0.254402220249176 0.46587544679641724
vt 0.2305830717086792 0.40341782569885254
vt 0.2306571900844574 0.32979804277420044
vt 0.22542160749435425 0.32544052600860596
vt 0.22534151375293732 0.40775978565216064
vt 0.2306571900844574 0.32979804277420044
vt 0.2565726041793823 0.2779296040534973
vt 0.2544013261795044 0.26744675636291504
vt 0.22542160749435425 0.32544052600860596
vt 0.2565726041793823 0.2779296040534973
vt 0.2933269441127777 0.2779296040534973
vt 0.29549816250801086 0.26744675636291504
vt 0.2544013261795044 0.26744675636291504
vt 0.2933269441127777 0.2779296040534973
vt 0.31931668519973755 0.32991015911102295
vt 0.3245578408241272 0.32556796073913574
vt 0.29549816250801086 0.26744675636291504
vt 0.31931668519973755 0.32991015911102295
vt 0.31931668519973755 0.40341782569885254
vt 0.3245578408241272 0.40775972604751587
vt 0.3245578408241272 0.32556796073913574
vt 0.5820918679237366 0.5378016233444214
vt 0.5806995034217834 0.5360886752605438
vt 0.5807391405105591 0.5360386073589325
vt 0.582122266292572 0.5377423763275146
vt 0.5821213126182556 0.5377370715141296
vt 0.5841060876846313 0.5377376079559326
vt 0.5841078758239746 0.5378181636333466
vt 0.5821197032928467 0.5378178656101227
vt 0.5841161608695984 0.5377328991889954
vt 0.58548504114151 0.5360004007816315
vt 0.5855090618133545 0.5360967516899109
vt 0.5841308832168579 0.5378287732601166
vt 0.5854533910751343 0.5360691249370575
vt 0.5854616165161133 0.5336121022701263
vt 0.5855374932289124 0.5336140394210815
vt 0.5855315923690796 0.5360647141933441
vt 0.5855115652084351 0.5336276292800903
vt 0.584095299243927 0.5319035947322845
vt 0.5841243267059326 0.5318586230278015
vt 0.5855188965797424 0.5335833430290222
vt 0.584105908870697 0.5319361686706543
vt 0.5821207761764526 0.5319362282752991
vt 0.5821202397346497 0.5318554937839508
vt 0.5841087102890015 0.531855434179306
vt 0.5821449756622314 0.5319293439388275
vt 0.5807244181632996 0.5336566865444183
vt 0.5806986689567566 0.5335903167724609
vt 0.5821002721786499 0.5318697988986969
vt 0.5808079242706299 0.5336183309555054
vt 0.58079594373703 0.5360608696937561
vt 0.5806921124458313 0.5360581874847412
vt 0.5807181000709534 0.5336001813411713
vt 0.40920567512512207 0.4547118544578552
vt 0.4353907108306885 0.4023422598838806
vt 0.4411546587944031 0.4072205424308777
vt 0.41171136498451233 0.466147780418396
vt 0.3699279725551605 0.46630632877349854
vt 0.3721756935119629 0.45470815896987915
vt 0.40920567512512207 0.4547118544578552
vt 0.41171136498451233 0.466147780418396
vt 0.3402922451496124 0.4073718786239624
vt 0.34599000215530396 0.4023422598838806
vt 0.3721756935119629 0.45470815896987915
vt 0.3699279725551605 0.46630632877349854
vt 0.3402414321899414 0.3236713409423828
vt 0.3460499048233032 0.32823824882507324
vt 0.34599000215530396 0.4023422598838806
vt 0.3402922451496124 0.4073718786239624
vt 0.3695628046989441 0.2645626664161682
vt 0.3721749782562256 0.27591007947921753
vt 0.3460499048233032 0.32823824882507324
vt 0.3402414321899414 0.3236713409423828
vt 0.41129937767982483 0.264329195022583
vt 0.40920567512512207 0.27591007947921753
vt 0.3721749782562256 0.27591007947921753
vt 0.3695628046989441 0.2645626664161682
vt 0.4409986436367035 0.32359129190444946
vt 0.4353905916213989 0.328281044960022
vt 0.40920567512512207 0.27591007947921753
vt 0.41129937767982483 0.264329195022583
vt 0.4411546587944031 0.4072205424308777
vt 0.4353907108306885 0.4023422598838806
vt 0.4353905916213989 0.328281044960022
vt 0.4409986436367035 0.32359129190444946

g RC_Vaportrail_L1_Base
s 1
usemtl RC_Vaportrail_L1_Base
f 1/1/1 2/2/2 3/3/3 
f 1/1/1 3/3/3 4/4/4 
f 1/1/1 4/4/4 5/5/5 
f 1/1/1 5/5/5 6/6/6 
f 1/1/1 6/6/6 7/7/7 
f 1/1/1 7/7/7 8/8/8 
f 1/1/1 8/8/8 9/9/9 
f 1/1/1 9/9/9 2/2/2 
f 10/10/10 11/11/11 12/12/12 
f 10/10/10 13/13/13 11/11/11 
f 10/10/10 14/14/14 13/13/13 
f 10/10/10 15/15/15 14/14/14 
f 10/10/10 16/16/16 15/15/15 
f 10/10/10 17/17/17 16/16/16 
f 10/10/10 18/18/18 17/17/17 
f 10/10/10 12/12/12 18/18/18 
f 19/19/19 20/20/20 21/21/21 
f 19/19/19 21/21/21 22/22/22 
f 23/23/23 24/24/24 25/25/25 
f 23/23/23 25/25/25 26/26/26 
f 27/27/27 28/28/28 29/29/29 
f 27/27/27 29/29/29 30/30/30 
f 31/31/31 32/32/32 33/33/33 
f 31/31/31 33/33/33 34/34/34 
f 35/35/35 36/36/36 37/37/37 
f 35/35/35 37/37/37 38/38/38 
f 39/39/39 40/40/40 41/41/41 
f 39/39/39 41/41/41 42/42/42 
f 43/43/43 44/44/44 45/45/45 
f 43/43/43 45/45/45 46/46/46 
f 47/47/47 48/48/48 49/49/49 
f 47/47/47 49/49/49 50/50/50 
f 51/51/51 52/52/52 53/53/53 
f 51/51/51 53/53/53 54/54/54 
f 55/55/55 56/56/56 57/57/57 
f 55/55/55 57/57/57 58/58/58 
f 59/59/59 60/60/60 61/61/61 
f 59/59/59 61/61/61 62/62/62 
f 63/63/63 64/64/64 65/65/65 
f 63/63/63 65/65/65 66/66/66 
f 67/67/67 68/68/68 69/69/69 
f 67/67/67 69/69/69 70/70/70 
f 71/71/71 72/72/72 73/73/73 
f 71/71/71 73/73/73 74/74/74 
f 75/75/75 76/76/76 77/77/77 
f 75/75/75 77/77/77 78/78/78 
f 79/79/79 80/80/80 81/81/81 
f 79/79/79 81/81/81 82/82/82 
f 83/83/83 84/84/84 85/85/85 
f 83/83/83 85/85/85 86/86/86 
f 87/87/87 88/88/88 89/89/89 
f 87/87/87 89/89/89 90/90/90 
f 91/91/91 92/92/92 93/93/93 
f 91/91/91 93/93/93 94/94/94 
f 95/95/95 96/96/96 97/97/97 
f 95/95/95 97/97/97 98/98/98 
f 99/99/99 100/100/100 101/101/101 
f 99/99/99 101/101/101 102/102/102 
f 103/103/103 104/104/104 105/105/105 
f 103/103/103 105/105/105 106/106/106 
f 107/107/107 108/108/108 109/109/109 
f 107/107/107 109/109/109 110/110/110 
f 111/111/111 112/112/112 113/113/113 
f 111/111/111 113/113/113 114/114/114 

