v -0.2077343761920929 0.10496589541435242 0.5015130639076233
v -0.2077343761920929 0.0302179716527462 0.5015130639076233
v 0.20772460103034973 0.0302179716527462 0.5014929175376892
v 0.20772460103034973 0.10496589541435242 0.5014929175376892
v 0.20772460103034973 0.10496589541435242 0.5014929175376892
v 0.20772460103034973 0.0302179716527462 0.5014929175376892
v 0.501513659954071 0.0302179716527462 0.20773376524448395
v 0.501513659954071 0.10496589541435242 0.20773376524448395
v 0.501513659954071 0.10496589541435242 0.20773376524448395
v 0.501513659954071 0.0302179716527462 0.20773376524448395
v 0.5007055401802063 0.0302179716527462 -0.2083694338798523
v 0.5007055401802063 0.10496589541435242 -0.2083694338798523
v 0.5007055401802063 0.10496589541435242 -0.2083694338798523
v 0.5007055401802063 0.0302179716527462 -0.2083694338798523
v 0.2077343761920929 0.0302179716527462 -0.5015134811401367
v 0.2077343761920929 0.10496589541435242 -0.5015131831169128
v 0.2077343761920929 0.10496589541435242 -0.5015131831169128
v 0.2077343761920929 0.0302179716527462 -0.5015134811401367
v -0.2077343761920929 0.0302179716527462 -0.5015133619308472
v -0.2077343761920929 0.10496589541435242 -0.5015133619308472
v -0.2077343761920929 0.10496589541435242 -0.5015133619308472
v -0.2077343761920929 0.0302179716527462 -0.5015133619308472
v -0.501513659954071 0.0302179716527462 -0.20772521197795868
v -0.501513659954071 0.10496589541435242 -0.20772521197795868
v -0.501513659954071 0.10496589541435242 -0.20772521197795868
v -0.501513659954071 0.0302179716527462 -0.20772521197795868
v -0.501513659954071 0.0302179716527462 0.20773360133171082
v -0.501513659954071 0.10496589541435242 0.20773360133171082
v -0.501513659954071 0.10496589541435242 0.20773360133171082
v -0.501513659954071 0.0302179716527462 0.20773360133171082
v -0.2077343761920929 0.0302179716527462 0.5015130639076233
v -0.2077343761920929 0.10496589541435242 0.5015130639076233
v 0.0 0.13518387079238892 0.0
v -0.18578368425369263 0.13160595297813416 0.448525995016098
v 0.18577881157398224 0.13160595297813416 0.44850677251815796
v 0.4485253691673279 0.13160595297813416 0.1857856661081314
v 0.44792479276657104 0.13160595297813416 -0.18599547445774078
v 0.18578368425369263 0.13160595297813416 -0.44852614402770996
v -0.18578368425369263 0.13160595297813416 -0.4485262930393219
v -0.4485229253768921 0.13160595297813416 -0.18578048050403595
v -0.4485253691673279 0.13160595297813416 0.1857856661081314
v 0.0 0.0 0.0
v 0.18577636778354645 0.003577918978407979 0.4485069215297699
v -0.18578368425369263 0.003577918978407979 0.448525995016098
v 0.4485253691673279 0.003577918978407979 0.18578583002090454
v 0.4477783143520355 0.003577918978407979 -0.18634414672851562
v 0.18578368425369263 0.003577918978407979 -0.44852644205093384
v -0.18578368425369263 0.003577918978407979 -0.4485262930393219
v -0.4485253691673279 0.0035778807941824198 -0.18577803671360016
v -0.4485253691673279 0.0035778807941824198 0.1857856661081314
v -0.2077343761920929 0.10496589541435242 0.5015130639076233
v 0.20772460103034973 0.10496589541435242 0.5014929175376892
v 0.18577881157398224 0.13160595297813416 0.44850677251815796
v -0.18578368425369263 0.13160595297813416 0.448525995016098
v -0.18578368425369263 0.13160595297813416 0.448525995016098
v -0.4485253691673279 0.13160595297813416 0.1857856661081314
v -0.501513659954071 0.10496589541435242 0.20773360133171082
v -0.2077343761920929 0.10496589541435242 0.5015130639076233
v 0.20772460103034973 0.10496589541435242 0.5014929175376892
v 0.501513659954071 0.10496589541435242 0.20773376524448395
v 0.4485253691673279 0.13160595297813416 0.1857856661081314
v 0.18577881157398224 0.13160595297813416 0.44850677251815796
v -0.2077343761920929 0.0302179716527462 0.5015130639076233
v -0.501513659954071 0.0302179716527462 0.20773360133171082
v -0.4485253691673279 0.0035778807941824198 0.1857856661081314
v -0.18578368425369263 0.003577918978407979 0.448525995016098
v -0.18578368425369263 0.003577918978407979 0.448525995016098
v 0.18577636778354645 0.003577918978407979 0.4485069215297699
v 0.20772460103034973 0.0302179716527462 0.5014929175376892
v -0.2077343761920929 0.0302179716527462 0.5015130639076233
v 0.18577636778354645 0.003577918978407979 0.4485069215297699
v 0.4485253691673279 0.003577918978407979 0.18578583002090454
v 0.501513659954071 0.0302179716527462 0.20773376524448395
v 0.20772460103034973 0.0302179716527462 0.5014929175376892
v 0.501513659954071 0.10496589541435242 0.20773376524448395
v 0.5007055401802063 0.10496589541435242 -0.2083694338798523
v 0.44792479276657104 0.13160595297813416 -0.18599547445774078
v 0.4485253691673279 0.13160595297813416 0.1857856661081314
v 0.4485253691673279 0.003577918978407979 0.18578583002090454
v 0.4477783143520355 0.003577918978407979 -0.18634414672851562
v 0.5007055401802063 0.0302179716527462 -0.2083694338798523
v 0.501513659954071 0.0302179716527462 0.20773376524448395
v 0.5007055401802063 0.10496589541435242 -0.2083694338798523
v 0.2077343761920929 0.10496589541435242 -0.5015131831169128
v 0.18578368425369263 0.13160595297813416 -0.44852614402770996
v 0.44792479276657104 0.13160595297813416 -0.18599547445774078
v 0.4477783143520355 0.003577918978407979 -0.18634414672851562
v 0.18578368425369263 0.003577918978407979 -0.44852644205093384
v 0.2077343761920929 0.0302179716527462 -0.5015134811401367
v 0.5007055401802063 0.0302179716527462 -0.2083694338798523
v 0.2077343761920929 0.10496589541435242 -0.5015131831169128
v -0.2077343761920929 0.10496589541435242 -0.5015133619308472
v -0.18578368425369263 0.13160595297813416 -0.4485262930393219
v 0.18578368425369263 0.13160595297813416 -0.44852614402770996
v 0.18578368425369263 0.003577918978407979 -0.44852644205093384
v -0.18578368425369263 0.003577918978407979 -0.4485262930393219
v -0.2077343761920929 0.0302179716527462 -0.5015133619308472
v 0.2077343761920929 0.0302179716527462 -0.5015134811401367
v -0.2077343761920929 0.10496589541435242 -0.5015133619308472
v -0.501513659954071 0.10496589541435242 -0.20772521197795868
v -0.4485229253768921 0.13160595297813416 -0.18578048050403595
v -0.18578368425369263 0.13160595297813416 -0.4485262930393219
v -0.18578368425369263 0.003577918978407979 -0.4485262930393219
v -0.4485253691673279 0.0035778807941824198 -0.18577803671360016
v -0.501513659954071 0.0302179716527462 -0.20772521197795868
v -0.2077343761920929 0.0302179716527462 -0.5015133619308472
v -0.501513659954071 0.10496589541435242 -0.20772521197795868
v -0.501513659954071 0.10496589541435242 0.20773360133171082
v -0.4485253691673279 0.13160595297813416 0.1857856661081314
v -0.4485229253768921 0.13160595297813416 -0.18578048050403595
v -0.4485253691673279 0.0035778807941824198 -0.18577803671360016
v -0.4485253691673279 0.0035778807941824198 0.1857856661081314
v -0.501513659954071 0.0302179716527462 0.20773360133171082
v -0.501513659954071 0.0302179716527462 -0.20772521197795868
vn 4.834901847061701e-05 0.0 1.0
vn 4.834901847061701e-05 0.0 1.0
vn 4.834901847061701e-05 0.0 1.0
vn 4.834901847061701e-05 0.0 1.0
vn 0.7070707678794861 0.0 0.70714271068573
vn 0.7070707678794861 0.0 0.70714271068573
vn 0.7070707678794861 0.0 0.70714271068573
vn 0.7070707678794861 0.0 0.70714271068573
vn 0.9999980926513672 0.0 -0.0019420753233134747
vn 0.9999980926513672 0.0 -0.0019420753233134747
vn 0.9999980926513672 0.0 -0.0019420753233134747
vn 0.9999980926513672 0.0 -0.0019420753233134747
vn 0.7073150277137756 0.0 -0.7068984508514404
vn 0.7073150277137756 0.0 -0.7068984508514404
vn 0.7073150277137756 0.0 -0.7068984508514404
vn 0.7073150277137756 0.0 -0.7068984508514404
vn 0.0 2.041365178229171e-06 -1.0
vn 0.0 2.041365178229171e-06 -1.0
vn 0.0 2.041365178229171e-06 -1.0
vn 0.0 2.041365178229171e-06 -1.0
vn -0.7071175575256348 0.0 -0.7070959806442261
vn -0.7071175575256348 0.0 -0.7070959806442261
vn -0.7071175575256348 0.0 -0.7070959806442261
vn -0.7071175575256348 0.0 -0.7070959806442261
vn -1.0 0.0 0.0
vn -1.0 0.0 0.0
vn -1.0 0.0 0.0
vn -1.0 0.0 0.0
vn -0.7071069478988647 0.0 0.7071065902709961
vn -0.7071069478988647 0.0 0.7071065902709961
vn -0.7071069478988647 0.0 0.7071065902709961
vn -0.7071069478988647 0.0 0.7071065902709961
vn 0.0 1.0 0.0
vn 4.120076653180149e-07 0.9999681711196899 0.007977054454386234
vn 4.120076653180149e-07 0.9999681711196899 0.007977054454386234
vn 0.005640300456434488 0.9999681711196899 0.005640858318656683
vn 0.007982137612998486 0.9999681711196899 -1.2599106412380934e-05
vn 0.005646292585879564 0.9999681711196899 -0.00563803780823946
vn 0.0 0.9999681711196899 -0.007976904511451721
vn -0.0056405626237392426 0.9999681711196899 -0.0056404476054012775
vn -0.007976812310516834 0.9999681711196899 0.0
vn 0.0 -1.0 0.0
vn 4.028594844385225e-07 -0.9999681711196899 0.007977057248353958
vn 4.028594844385225e-07 -0.9999681711196899 0.007977057248353958
vn 0.005640309303998947 -0.9999681711196899 0.005640858318656683
vn 0.007983479648828506 -0.9999681711196899 -1.5809977412573062e-05
vn 0.005643291398882866 -0.9999681711196899 -0.0056392112746834755
vn 0.0 -0.9999681711196899 -0.007977050729095936
vn -0.005640454590320587 -0.9999681711196899 -0.00564024830237031
vn -0.007976749911904335 -0.9999681711196899 0.0
vn 2.2491545678349212e-05 0.8934354186058044 0.44919177889823914
vn 2.2491545678349212e-05 0.8934354186058044 0.44919177889823914
vn 2.2491545678349212e-05 0.8934354186058044 0.44919177889823914
vn 2.2491545678349212e-05 0.8934354186058044 0.44919177889823914
vn -0.31761300563812256 0.893444836139679 0.31761354207992554
vn -0.31761300563812256 0.893444836139679 0.31761354207992554
vn -0.31761300563812256 0.893444836139679 0.31761354207992554
vn -0.31761300563812256 0.893444836139679 0.31761354207992554
vn 0.3176203668117523 0.893428385257721 0.31765231490135193
vn 0.3176203668117523 0.893428385257721 0.31765231490135193
vn 0.3176203668117523 0.893428385257721 0.31765231490135193
vn 0.3176203668117523 0.893428385257721 0.31765231490135193
vn -0.3176131546497345 -0.8934444189071655 0.31761443614959717
vn -0.3176131546497345 -0.8934444189071655 0.31761443614959717
vn -0.3176131546497345 -0.8934444189071655 0.31761443614959717
vn -0.3176131546497345 -0.8934444189071655 0.31761443614959717
vn 2.223021692770999e-05 -0.8934338688850403 0.4491947293281555
vn 2.223021692770999e-05 -0.8934338688850403 0.4491947293281555
vn 2.223021692770999e-05 -0.8934338688850403 0.4491947293281555
vn 2.223021692770999e-05 -0.8934338688850403 0.4491947293281555
vn 0.3176015019416809 -0.8934414982795715 0.3176341950893402
vn 0.3176015019416809 -0.8934414982795715 0.3176341950893402
vn 0.3176015019416809 -0.8934414982795715 0.3176341950893402
vn 0.3176015019416809 -0.8934414982795715 0.3176341950893402
vn 0.449894517660141 0.8930813074111938 -0.0008044514688663185
vn 0.449894517660141 0.8930813074111938 -0.0008044514688663185
vn 0.449894517660141 0.8930813074111938 -0.0008044514688663185
vn 0.449894517660141 0.8930813074111938 -0.0008044514688663185
vn 0.44939473271369934 -0.893332839012146 -0.0008866821299307048
vn 0.44939473271369934 -0.893332839012146 -0.0008866821299307048
vn 0.44939473271369934 -0.893332839012146 -0.0008866821299307048
vn 0.44939473271369934 -0.893332839012146 -0.0008866821299307048
vn 0.31741228699684143 0.8937017321586609 -0.31709083914756775
vn 0.31741228699684143 0.8937017321586609 -0.31709083914756775
vn 0.31741228699684143 0.8937017321586609 -0.31709083914756775
vn 0.31741228699684143 0.8937017321586609 -0.31709083914756775
vn 0.31770774722099304 -0.8934507966041565 -0.31750181317329407
vn 0.31770774722099304 -0.8934507966041565 -0.31750181317329407
vn 0.31770774722099304 -0.8934507966041565 -0.31750181317329407
vn 0.31770774722099304 -0.8934507966041565 -0.31750181317329407
vn 1.307621744217613e-07 0.8934352397918701 -0.4491921365261078
vn 1.307621744217613e-07 0.8934352397918701 -0.4491921365261078
vn 1.307621744217613e-07 0.8934352397918701 -0.4491921365261078
vn 1.307621744217613e-07 0.8934352397918701 -0.4491921365261078
vn -1.3076224547603488e-07 -0.8934355974197388 -0.44919130206108093
vn -1.3076224547603488e-07 -0.8934355974197388 -0.44919130206108093
vn -1.3076224547603488e-07 -0.8934355974197388 -0.44919130206108093
vn -1.3076224547603488e-07 -0.8934355974197388 -0.44919130206108093
vn -0.31762054562568665 0.8934427499771118 -0.31761178374290466
vn -0.31762054562568665 0.8934427499771118 -0.31761178374290466
vn -0.31762054562568665 0.8934427499771118 -0.31761178374290466
vn -0.31762054562568665 0.8934427499771118 -0.31761178374290466
vn -0.31762176752090454 -0.8934417963027954 -0.31761348247528076
vn -0.31762176752090454 -0.8934417963027954 -0.31761348247528076
vn -0.31762176752090454 -0.8934417963027954 -0.31761348247528076
vn -0.31762176752090454 -0.8934417963027954 -0.31761348247528076
vn -0.44918060302734375 0.8934409022331238 -1.438367917216965e-06
vn -0.44918060302734375 0.8934409022331238 -1.438367917216965e-06
vn -0.44918060302734375 0.8934409022331238 -1.438367917216965e-06
vn -0.44918060302734375 0.8934409022331238 -1.438367917216965e-06
vn -0.44917988777160645 -0.8934413194656372 0.0
vn -0.44917988777160645 -0.8934413194656372 0.0
vn -0.44917988777160645 -0.8934413194656372 0.0
vn -0.44917988777160645 -0.8934413194656372 0.0
vt 0.5836396813392639 0.5723367929458618
vt 0.5838932394981384 0.5731584429740906
vt 0.5802757740020752 0.5731582045555115
vt 0.5805292725563049 0.5723366141319275
vt 0.5805292725563049 0.5723366141319275
vt 0.5802757740020752 0.5731582045555115
vt 0.5777176022529602 0.5697241425514221
vt 0.5783295035362244 0.5693838000297546
vt 0.5783295035362244 0.5693838000297546
vt 0.5777176022529602 0.5697241425514221
vt 0.5777246356010437 0.5648598372936249
vt 0.5783355832099915 0.5652012228965759
vt 0.5783355832099915 0.5652012228965759
vt 0.5777246356010437 0.5648598372936249
vt 0.5802756547927856 0.5614328980445862
vt 0.5805290937423706 0.5622545480728149
vt 0.5805290937423706 0.5622545480728149
vt 0.5802756547927856 0.5614328980445862
vt 0.5838932394981384 0.5614328980445862
vt 0.5836396813392639 0.5622545480728149
vt 0.5836396813392639 0.5622545480728149
vt 0.5838932394981384 0.5614328980445862
vt 0.5864513516426086 0.564867377281189
vt 0.5858393311500549 0.5652076900005341
vt 0.5858393311500549 0.5652076900005341
vt 0.5864513516426086 0.564867377281189
vt 0.5864513516426086 0.5697241425514221
vt 0.5858393311500549 0.5693838000297546
vt 0.5858393311500549 0.5693838000297546
vt 0.5864513516426086 0.5697241425514221
vt 0.5838932394981384 0.5731584429740906
vt 0.5836396813392639 0.5723367929458618
vt 0.7711755037307739 0.5762966573238373
vt 0.7862230539321899 0.6489516794681549
vt 0.7561287879943848 0.6489486396312714
vt 0.734848141670227 0.6063911616802216
vt 0.7348966598510742 0.5461678206920624
vt 0.756128191947937 0.5036412179470062
vt 0.7862230539321899 0.5036412179470062
vt 0.8075029850006104 0.5462023913860321
vt 0.8075031042098999 0.6063911616802216
vt 0.7589315176010132 0.3662438988685608
vt 0.7953842878341675 0.3360457420349121
vt 0.7953859567642212 0.3964439034461975
vt 0.7740315198898315 0.2933351993560791
vt 0.7437862157821655 0.2933387756347656
vt 0.7224770784378052 0.33604443073272705
vt 0.7224770784378052 0.3964439034461975
vt 0.7438323497772217 0.43915295600891113
vt 0.7740315198898315 0.43915295600891113
vt 0.7880004644393921 0.6575349271297455
vt 0.7543513774871826 0.6575317084789276
vt 0.7561287879943848 0.6489486396312714
vt 0.7862230539321899 0.6489516794681549
vt 0.7862230539321899 0.6489516794681549
vt 0.8075031042098999 0.6063911616802216
vt 0.8117948770523071 0.6099466979503632
vt 0.7880004644393921 0.6575349271297455
vt 0.7543513774871826 0.6575317084789276
vt 0.7305563688278198 0.6099466979503632
vt 0.734848141670227 0.6063911616802216
vt 0.7561287879943848 0.6489486396312714
vt 0.6938139200210571 0.6580274999141693
vt 0.7174303531646729 0.6107942759990692
vt 0.7131707668304443 0.6072655618190765
vt 0.6920492649078369 0.6495085656642914
vt 0.6920492649078369 0.6495085656642914
vt 0.6621799468994141 0.6495054066181183
vt 0.660415530204773 0.6580242812633514
vt 0.6938139200210571 0.6580274999141693
vt 0.6621799468994141 0.6495054066181183
vt 0.6410578489303589 0.6072655618190765
vt 0.6367981433868408 0.6107942759990692
vt 0.660415530204773 0.6580242812633514
vt 0.7305563688278198 0.6099466979503632
vt 0.7306216955184937 0.5425432622432709
vt 0.7348966598510742 0.5461678206920624
vt 0.734848141670227 0.6063911616802216
vt 0.6410578489303589 0.6072655618190765
vt 0.6411181688308716 0.5474356114864349
vt 0.636863112449646 0.5438941419124603
vt 0.6367981433868408 0.6107942759990692
vt 0.7306216955184937 0.5425432622432709
vt 0.7543506622314453 0.49505800008773804
vt 0.756128191947937 0.5036412179470062
vt 0.7348966598510742 0.5461678206920624
vt 0.6411181688308716 0.5474356114864349
vt 0.6621794700622559 0.5052824914455414
vt 0.6604148149490356 0.49676311016082764
vt 0.636863112449646 0.5438941419124603
vt 0.7543506622314453 0.49505800008773804
vt 0.7880004644393921 0.49505800008773804
vt 0.7862230539321899 0.5036412179470062
vt 0.756128191947937 0.5036412179470062
vt 0.6621794700622559 0.5052824914455414
vt 0.6920492649078369 0.5052824914455414
vt 0.6938139200210571 0.49676311016082764
vt 0.6604148149490356 0.49676311016082764
vt 0.7880004644393921 0.49505800008773804
vt 0.8117948770523071 0.5426478087902069
vt 0.8075029850006104 0.5462023913860321
vt 0.7862230539321899 0.5036412179470062
vt 0.6920492649078369 0.5052824914455414
vt 0.7131707668304443 0.5475265085697174
vt 0.7174303531646729 0.5439976155757904
vt 0.6938139200210571 0.49676311016082764
vt 0.8117948770523071 0.5426478087902069
vt 0.8117948770523071 0.6099466979503632
vt 0.8075031042098999 0.6063911616802216
vt 0.8075029850006104 0.5462023913860321
vt 0.7131707668304443 0.5475265085697174
vt 0.7131707668304443 0.6072655618190765
vt 0.7174303531646729 0.6107942759990692
vt 0.7174303531646729 0.5439976155757904

g RC_Vaportrail_L2_Base
s 1
usemtl RC_Vaportrail_L2_Base
f 1/1/1 2/2/2 3/3/3 
f 1/1/1 3/3/3 4/4/4 
f 5/5/5 6/6/6 7/7/7 
f 5/5/5 7/7/7 8/8/8 
f 9/9/9 10/10/10 11/11/11 
f 9/9/9 11/11/11 12/12/12 
f 13/13/13 14/14/14 15/15/15 
f 13/13/13 15/15/15 16/16/16 
f 17/17/17 18/18/18 19/19/19 
f 17/17/17 19/19/19 20/20/20 
f 21/21/21 22/22/22 23/23/23 
f 21/21/21 23/23/23 24/24/24 
f 25/25/25 26/26/26 27/27/27 
f 25/25/25 27/27/27 28/28/28 
f 29/29/29 30/30/30 31/31/31 
f 29/29/29 31/31/31 32/32/32 
f 33/33/33 34/34/34 35/35/35 
f 33/33/33 35/35/35 36/36/36 
f 33/33/33 36/36/36 37/37/37 
f 33/33/33 37/37/37 38/38/38 
f 33/33/33 38/38/38 39/39/39 
f 33/33/33 39/39/39 40/40/40 
f 33/33/33 40/40/40 41/41/41 
f 33/33/33 41/41/41 34/34/34 
f 42/42/42 43/43/43 44/44/44 
f 42/42/42 45/45/45 43/43/43 
f 42/42/42 46/46/46 45/45/45 
f 42/42/42 47/47/47 46/46/46 
f 42/42/42 48/48/48 47/47/47 
f 42/42/42 49/49/49 48/48/48 
f 42/42/42 50/50/50 49/49/49 
f 42/42/42 44/44/44 50/50/50 
f 51/51/51 52/52/52 53/53/53 
f 51/51/51 53/53/53 54/54/54 
f 55/55/55 56/56/56 57/57/57 
f 55/55/55 57/57/57 58/58/58 
f 59/59/59 60/60/60 61/61/61 
f 59/59/59 61/61/61 62/62/62 
f 63/63/63 64/64/64 65/65/65 
f 63/63/63 65/65/65 66/66/66 
f 67/67/67 68/68/68 69/69/69 
f 67/67/67 69/69/69 70/70/70 
f 71/71/71 72/72/72 73/73/73 
f 71/71/71 73/73/73 74/74/74 
f 75/75/75 76/76/76 77/77/77 
f 75/75/75 77/77/77 78/78/78 
f 79/79/79 80/80/80 81/81/81 
f 79/79/79 81/81/81 82/82/82 
f 83/83/83 84/84/84 85/85/85 
f 83/83/83 85/85/85 86/86/86 
f 87/87/87 88/88/88 89/89/89 
f 87/87/87 89/89/89 90/90/90 
f 91/91/91 92/92/92 93/93/93 
f 91/91/91 93/93/93 94/94/94 
f 95/95/95 96/96/96 97/97/97 
f 95/95/95 97/97/97 98/98/98 
f 99/99/99 100/100/100 101/101/101 
f 99/99/99 101/101/101 102/102/102 
f 103/103/103 104/104/104 105/105/105 
f 103/103/103 105/105/105 106/106/106 
f 107/107/107 108/108/108 109/109/109 
f 107/107/107 109/109/109 110/110/110 
f 111/111/111 112/112/112 113/113/113 
f 111/111/111 113/113/113 114/114/114 

