v -0.36717283725738525 0.7033891677856445 -1.1248854398727417
v -0.28446289896965027 0.8466427326202393 -1.1248854398727417
v -0.20200194418430328 0.7622736692428589 -0.8858352303504944
v -0.2528735399246216 0.6741616129875183 -0.8858352303504944
v -0.09058593213558197 0.5542019605636597 -0.5603333711624146
v 0.0 0.6190515756607056 -0.617081880569458
v -0.09058593213558197 0.42846646904945374 -0.43683165311813354
v 2.441406195430318e-06 0.42846646904945374 -0.43683165311813354
v -0.09058593213558197 0.27902206778526306 -0.3507501184940338
v 2.441406195430318e-06 0.27902206778526306 -0.3507501184940338
v -0.18479736149311066 0.13160595297813416 -0.4485262930393219
v 0.000988769461400807 0.13160595297813416 -0.4485262930393219
v 0.09058837592601776 0.27902206778526306 -0.3507501184940338
v 0.18677489459514618 0.13160595297813416 -0.44852614402770996
v 0.09058837592601776 0.42846646904945374 -0.4368318021297455
v 0.09058837592601776 0.5542019605636597 -0.5603333711624146
v 0.2528759837150574 0.6741601228713989 -0.8858352303504944
v 0.20200194418430328 0.7622729539871216 -0.8858352303504944
v 0.36717039346694946 0.7033886313438416 -1.1248854398727417
v 0.28446289896965027 0.8466430306434631 -1.1248854398727417
v -0.28446289896965027 0.8466427326202393 -1.1248854398727417
v -0.28297606110572815 0.8599316477775574 -0.17649154365062714
v -0.19243651628494263 0.7602404356002808 -0.17478545010089874
v -0.20200194418430328 0.7622736692428589 -0.8858352303504944
v -0.2813476622104645 0.8627563118934631 0.40142226219177246
v -0.1909228414297104 0.762857973575592 0.3056747317314148
v 0.0 0.6170181035995483 -0.17683684825897217
v 0.0 0.6196354627609253 0.25015899538993835
v 0.0 0.6190515756607056 -0.617081880569458
v 0.20200194418430328 0.7622729539871216 -0.8858352303504944
v 0.19243651628494263 0.7602392435073853 -0.17478545010089874
v 0.28446289896965027 0.8466430306434631 -1.1248854398727417
v 0.28297850489616394 0.8599316477775574 -0.17649154365062714
v 0.2813476622104645 0.8627563118934631 0.40142226219177246
v 0.19092528522014618 0.7628564238548279 0.3056747317314148
v -0.2813476622104645 0.8627563118934631 0.40142226219177246
v -0.37956541776657104 0.6926339864730835 0.4014219641685486
v -0.24784179031848907 0.6642756462097168 0.30567458271980286
v -0.1909228414297104 0.762857973575592 0.3056747317314148
v 0.0 0.6196354627609253 0.25015899538993835
v -0.03646484389901161 0.5542019605636597 0.25015899538993835
v 0.03646484389901161 0.5542019605636597 0.2501583695411682
v 0.19092528522014618 0.7628564238548279 0.3056747317314148
v 0.24784179031848907 0.6642748713493347 0.30567458271980286
v 0.2813476622104645 0.8627563118934631 0.40142226219177246
v 0.37956786155700684 0.6926342844963074 0.4014219641685486
v 0.03646484389901161 0.4122351109981537 0.2509513795375824
v -0.03646484389901161 0.4122351109981537 0.2509516775608063
v 0.03646484389901161 0.25890129804611206 0.3263735771179199
v -0.03646484389901161 0.25890135765075684 0.32637375593185425
v 0.03596191480755806 0.13160595297813416 0.448525995016098
v -0.035957030951976776 0.13160595297813416 0.448525995016098
v -0.3779321312904358 0.6954628825187683 -0.1764913946390152
v -0.36717283725738525 0.7033891677856445 -1.1248854398727417
v -0.2528735399246216 0.6741616129875183 -0.8858352303504944
v -0.24633300304412842 0.6668933033943176 -0.19469207525253296
v -0.37956541776657104 0.6926339864730835 0.4014219641685486
v -0.24784179031848907 0.6642756462097168 0.30567458271980286
v -0.09254150092601776 0.5542019605636597 -0.20628799498081207
v -0.09058593213558197 0.5542019605636597 -0.5603333711624146
v -0.03646484389901161 0.5542019605636597 0.25015899538993835
v -0.03646484389901161 0.4122351109981537 0.2509516775608063
v -0.09254150092601776 0.4190264046192169 -0.18454192578792572
v -0.03646484389901161 0.25890135765075684 0.32637375593185425
v -0.09254150092601776 0.26826149225234985 -0.15859496593475342
v -0.4489111304283142 0.13518387079238892 -0.18577788770198822
v -0.035957030951976776 0.13160595297813416 0.448525995016098
v -0.09058593213558197 0.42846646904945374 -0.43683165311813354
v -0.09058593213558197 0.27902206778526306 -0.3507501184940338
v -0.4489111304283142 0.13518387079238892 -0.18577788770198822
v -0.18479736149311066 0.13160595297813416 -0.4485262930393219
v 0.3779345750808716 0.6954613924026489 -0.1764913946390152
v 0.24633055925369263 0.6668920516967773 -0.19469207525253296
v 0.2528759837150574 0.6741601228713989 -0.8858352303504944
v 0.36717039346694946 0.7033886313438416 -1.1248854398727417
v 0.37956786155700684 0.6926342844963074 0.4014219641685486
v 0.24784179031848907 0.6642748713493347 0.30567458271980286
v 0.09254394471645355 0.5542019605636597 -0.206288143992424
v 0.03646484389901161 0.5542019605636597 0.2501583695411682
v 0.09058837592601776 0.5542019605636597 -0.5603333711624146
v 0.09254394471645355 0.4190264046192169 -0.18454192578792572
v 0.03646484389901161 0.4122351109981537 0.2509513795375824
v 0.09254394471645355 0.26826149225234985 -0.15859496593475342
v 0.09058837592601776 0.27902206778526306 -0.3507501184940338
v 0.4489111304283142 0.13160595297813416 -0.18599547445774078
v 0.18677489459514618 0.13160595297813416 -0.44852614402770996
v 0.09058837592601776 0.42846646904945374 -0.4368318021297455
v 0.03646484389901161 0.25890129804611206 0.3263735771179199
v 0.4489111304283142 0.13160595297813416 -0.18599547445774078
v 0.03596191480755806 0.13160595297813416 0.448525995016098
vn 0.782185435295105 -0.4516274631023407 -0.42920684814453125
vn 0.782185435295105 -0.4516274631023407 -0.42920684814453125
vn 0.6424357295036316 -0.5659164190292358 -0.5167348384857178
vn 0.6424357295036316 -0.5659164190292358 -0.5167348384857178
vn 0.25680214166641235 -0.6949540376663208 -0.6716334223747253
vn 2.807953705996624e-06 -0.7190756797790527 -0.6949317455291748
vn 0.011076142080128193 -0.6002382040023804 -0.7997446656227112
vn -2.4959473421404255e-07 -0.6002785563468933 -0.7997910380363464
vn 0.0 0.03151749446988106 -0.9995032548904419
vn 2.936272949227714e-07 0.031518224626779556 -0.9995031356811523
vn 0.0 0.552734375 -0.8333574533462524
vn 4.993799507246877e-07 0.5527360439300537 -0.8333563804626465
vn 5.872550445928937e-07 0.03151896223425865 -0.9995031356811523
vn 9.98760015136213e-07 0.5527377128601074 -0.8333553075790405
vn -0.011076650582253933 -0.6002453565597534 -0.7997392416000366
vn -0.2567962408065796 -0.6949685215950012 -0.6716206669807434
vn -0.6424328684806824 -0.5659263730049133 -0.5167274475097656
vn -0.6424328684806824 -0.5659263730049133 -0.5167274475097656
vn -0.7821890115737915 -0.4516264498233795 -0.4292013943195343
vn -0.7821890115737915 -0.4516264498233795 -0.4292013943195343
vn 0.7347927093505859 0.6782253384590149 -0.009493994526565075
vn 0.7371423840522766 0.67569500207901 -0.007575376890599728
vn 0.6683424711227417 0.7438316345214844 -0.0057283067144453526
vn 0.66485196352005 0.7469526529312134 -0.005791788920760155
vn 0.7394806742668152 0.6731540560722351 -0.005656640511006117
vn 0.671817421913147 0.740695059299469 -0.005664714612066746
vn 5.053505446994677e-06 0.9999886751174927 -0.004753935616463423
vn 5.800654889753787e-06 0.9999754428863525 -0.00701206736266613
vn 4.31280568591319e-06 0.9999969005584717 -0.0025153430178761482
vn -0.6648509502410889 0.746953547000885 -0.005791034083813429
vn -0.6683424115180969 0.7438316941261292 -0.005727442912757397
vn -0.7347967028617859 0.6782210469245911 -0.00949284341186285
vn -0.7371490597724915 0.6756877303123474 -0.0075747426599264145
vn -0.7394898533821106 0.6731439828872681 -0.005656523164361715
vn -0.671818196773529 0.7406944036483765 -0.005663742311298847
vn 0.5180711150169373 -0.2991098463535309 0.8013336062431335
vn 0.5180711150169373 -0.2991098463535309 0.8013336062431335
vn 0.36566731333732605 -0.21031205356121063 0.9066731333732605
vn 0.36566731333732605 -0.21031205356121063 0.9066731333732605
vn 2.280139597132802e-06 -0.07620897144079208 0.9970918893814087
vn 0.06634022295475006 -0.035898491740226746 0.9971510767936707
vn -0.06633153557777405 -0.03589881584048271 0.9971516728401184
vn -0.36566534638404846 -0.21031136810779572 0.9066741466522217
vn -0.36566534638404846 -0.21031136810779572 0.9066741466522217
vn -0.5180691480636597 -0.29910776019096375 0.8013357520103455
vn -0.5180691480636597 -0.29910776019096375 0.8013357520103455
vn 5.639152277581161e-06 0.2293025553226471 0.9733551144599915
vn 5.639152277581161e-06 0.2293025553226471 0.9733551144599915
vn 3.916006789950188e-06 0.5736560821533203 0.8190962672233582
vn 3.916006789950188e-06 0.5736560821533203 0.8190962672233582
vn 3.821438440354541e-06 0.6923834681510925 0.7215296626091003
vn 3.821438440354541e-06 0.6923834681510925 0.7215296626091003
vn -0.21710990369319916 -0.9761176705360413 -0.007581892888993025
vn -0.22061650454998016 -0.9753132462501526 -0.009606641717255116
vn -0.41438567638397217 -0.9100785255432129 -0.006447437684983015
vn -0.39238595962524414 -0.9197978377342224 0.0022797491401433945
vn -0.21359959244728088 -0.9769054651260376 -0.00555701507255435
vn -0.37029585242271423 -0.9288493990898132 0.010940534062683582
vn -0.8813210725784302 -0.470779150724411 0.04049805551767349
vn -0.8910208940505981 -0.4539310336112976 -0.005335209425538778
vn -0.8690701127052307 -0.48688554763793945 0.08751866221427917
vn -0.9920578598976135 0.025337383151054382 0.12320400774478912
vn -0.9982643723487854 0.010950666852295399 0.05786428228020668
vn -0.8550927639007568 0.4788880944252014 0.19870232045650482
vn -0.8683659434318542 0.4952267110347748 0.026287157088518143
vn -0.5330451130867004 0.8134363293647766 0.23277494311332703
vn -0.5330451130867004 0.8134363293647766 0.23277494311332703
vn -0.9999641180038452 -0.003483816049993038 -0.007729073520749807
vn -0.8542577624320984 0.4963364601135254 -0.15457592904567719
vn -0.459036260843277 0.8510202765464783 -0.255049467086792
vn -0.459036260843277 0.8510202765464783 -0.255049467086792
vn 0.2171078324317932 -0.9761181473731995 -0.007581291254609823
vn 0.3923916816711426 -0.9197954535484314 0.002281038323417306
vn 0.41439375281333923 -0.9100748896598816 -0.006446054205298424
vn 0.22061753273010254 -0.9753130674362183 -0.009606924839317799
vn 0.2135944366455078 -0.9769065976142883 -0.005555529147386551
vn 0.3702993094921112 -0.9288480877876282 0.01094172801822424
vn 0.8813260793685913 -0.4707697331905365 0.04050064831972122
vn 0.8690721988677979 -0.48688122630119324 0.08752197027206421
vn 0.8910283446311951 -0.4539163410663605 -0.005333519075065851
vn 0.9982642531394958 0.010952813550829887 0.05786699801683426
vn 0.9920571446418762 0.025338776409626007 0.1232094019651413
vn 0.8697299361228943 0.49274834990501404 0.027728965505957603
vn 0.8558300137519836 0.49469178915023804 -0.15111267566680908
vn 0.4643598794937134 0.8497467637062073 -0.24960041046142578
vn 0.4643598794937134 0.8497467637062073 -0.24960041046142578
vn 0.9999641180038452 -0.003480929648503661 -0.007729067001491785
vn 0.8568080067634583 0.4760226607322693 0.19819824397563934
vn 0.5387207269668579 0.8097745776176453 0.23247608542442322
vn 0.5387207269668579 0.8097745776176453 0.23247608542442322
vt 0.5985503196716309 0.7863649129867554
vt 0.6134408712387085 0.786367654800415
vt 0.6037017107009888 0.8360613584518433
vt 0.5964781045913696 0.8360613584518433
vt 0.614321231842041 0.903723955154419
vt 0.6237365007400513 0.8919235467910767
vt 0.6143227815628052 0.9293979406356812
vt 0.6237391233444214 0.9293968677520752
vt 0.614321768283844 0.9604659080505371
vt 0.6237388253211975 0.9604644775390625
vt 0.6045297384262085 0.9807950258255005
vt 0.6238406300544739 0.9807913303375244
vt 0.6331554055213928 0.9604650735855103
vt 0.6431527733802795 0.9807946681976318
vt 0.6331548690795898 0.9293972253799438
vt 0.633155107498169 0.9037232398986816
vt 0.6509948968887329 0.8360586166381836
vt 0.6437712907791138 0.8360563516616821
vt 0.6489279270172119 0.7863609790802002
vt 0.6340372562408447 0.7863576412200928
vt 0.5858701467514038 0.6869992017745972
vt 0.5890258550643921 0.867472767829895
vt 0.5747590661048889 0.8679724931716919
vt 0.5741102695465088 0.7326427698135376
vt 0.5901939868927002 0.9774553179740906
vt 0.5757693648338318 0.9594083428382874
vt 0.5542571544647217 0.8678337335586548
vt 0.5545390248298645 0.9490981698036194
vt 0.553966224193573 0.7840433120727539
vt 0.5334658622741699 0.7328927516937256
vt 0.5337570905685425 0.8682246208190918
vt 0.5213894248008728 0.6873946189880371
vt 0.5194875001907349 0.8678992986679077
vt 0.5190830230712891 0.977891743183136
vt 0.53338223695755 0.9596686959266663
vt 0.6470428705215454 0.6450212001800537
vt 0.6558877229690552 0.6756458878517151
vt 0.6489419341087341 0.691394031047821
vt 0.6434208750724792 0.6722734570503235
vt 0.6233776807785034 0.7013615965843201
vt 0.6271679401397705 0.7149640917778015
vt 0.6195869445800781 0.7149640917778015
vt 0.6033334136009216 0.6722733378410339
vt 0.597813606262207 0.6913944482803345
vt 0.5997086763381958 0.6450215578079224
vt 0.5908668637275696 0.6756497025489807
vt 0.6195869445800781 0.7444778084754944
vt 0.6271679401397705 0.7444778084754944
vt 0.6195869445800781 0.7763544321060181
vt 0.6271679401397705 0.776354193687439
vt 0.61963951587677 0.8028174638748169
vt 0.6271153688430786 0.8028174638748169
vt 0.5813726186752319 0.01989424228668213
vt 0.6887603998184204 0.019893765449523926
vt 0.6607545614242554 0.04196667671203613
vt 0.5823799967765808 0.04196667671203613
vt 0.5158952474594116 0.019893765449523926
vt 0.5256892442703247 0.041966795921325684
vt 0.5824068784713745 0.07190883159637451
vt 0.622570276260376 0.07190942764282227
vt 0.5303918123245239 0.07190918922424316
vt 0.5304077863693237 0.10254514217376709
vt 0.5798817873001099 0.10254514217376709
vt 0.5217503309249878 0.13738763332366943
vt 0.5770237445831299 0.13738763332366943
vt 0.5855982303619385 0.21466422080993652
vt 0.5079013109207153 0.14099586009979248
vt 0.6085435152053833 0.10254514217376709
vt 0.598739743232727 0.13738775253295898
vt 0.5855982303619385 0.21466422080993652
vt 0.6111577749252319 0.14719665050506592
vt 0.6821739673614502 0.24556803703308105
vt 0.6830959320068359 0.21684658527374268
vt 0.7548061609268188 0.21684682369232178
vt 0.7804300785064697 0.2455683946609497
vt 0.6222646236419678 0.2455683946609497
vt 0.6312258243560791 0.21684694290161133
vt 0.6831209659576416 0.17581725120544434
vt 0.6355289220809937 0.1758173704147339
vt 0.7198691368103027 0.175817608833313
vt 0.6808102130889893 0.1483621597290039
vt 0.6355431079864502 0.1483621597290039
vt 0.6781750917434692 0.11812186241149902
vt 0.6980694532394409 0.11812186241149902
vt 0.6853723526000977 0.04098224639892578
vt 0.7093081474304199 0.10145306587219238
vt 0.7070344686508179 0.1483621597290039
vt 0.627597451210022 0.11812210083007812
vt 0.6853723526000977 0.04098224639892578
vt 0.6148743629455566 0.11091232299804688

g RC_Vaportrail_L2_Fin
s 1
usemtl RC_Vaportrail_L2_Fin
f 1/1/1 2/2/2 3/3/3 
f 1/1/1 3/3/3 4/4/4 
f 3/3/3 5/5/5 4/4/4 
f 3/3/3 6/6/6 5/5/5 
f 7/7/7 5/5/5 6/6/6 
f 7/7/7 6/6/6 8/8/8 
f 9/9/9 7/7/7 8/8/8 
f 9/9/9 8/8/8 10/10/10 
f 10/10/10 11/11/11 9/9/9 
f 10/10/10 12/12/12 11/11/11 
f 13/13/13 12/12/12 10/10/10 
f 13/13/13 14/14/14 12/12/12 
f 10/10/10 8/8/8 15/15/15 
f 10/10/10 15/15/15 13/13/13 
f 8/8/8 6/6/6 16/16/16 
f 8/8/8 16/16/16 15/15/15 
f 17/17/17 16/16/16 6/6/6 
f 17/17/17 6/6/6 18/18/18 
f 19/19/19 17/17/17 18/18/18 
f 19/19/19 18/18/18 20/20/20 
f 21/21/21 22/22/22 23/23/23 
f 21/21/21 23/23/23 24/24/24 
f 23/23/23 22/22/22 25/25/25 
f 23/23/23 25/25/25 26/26/26 
f 26/26/26 27/27/27 23/23/23 
f 26/26/26 28/28/28 27/27/27 
f 23/23/23 27/27/27 29/29/29 
f 23/23/23 29/29/29 24/24/24 
f 30/30/30 29/29/29 27/27/27 
f 30/30/30 27/27/27 31/31/31 
f 31/31/31 27/27/27 28/28/28 
f 32/32/32 30/30/30 31/31/31 
f 32/32/32 31/31/31 33/33/33 
f 31/31/31 34/34/34 33/33/33 
f 31/31/31 35/35/35 34/34/34 
f 31/31/31 28/28/28 35/35/35 
f 36/36/36 37/37/37 38/38/38 
f 36/36/36 38/38/38 39/39/39 
f 38/38/38 40/40/40 39/39/39 
f 38/38/38 41/41/41 40/40/40 
f 41/41/41 42/42/42 40/40/40 
f 43/43/43 40/40/40 42/42/42 
f 43/43/43 42/42/42 44/44/44 
f 45/45/45 43/43/43 44/44/44 
f 45/45/45 44/44/44 46/46/46 
f 41/41/41 47/47/47 42/42/42 
f 41/41/41 48/48/48 47/47/47 
f 48/48/48 49/49/49 47/47/47 
f 48/48/48 50/50/50 49/49/49 
f 51/51/51 49/49/49 50/50/50 
f 51/51/51 50/50/50 52/52/52 
f 53/53/53 54/54/54 55/55/55 
f 53/53/53 55/55/55 56/56/56 
f 57/57/57 53/53/53 56/56/56 
f 57/57/57 56/56/56 58/58/58 
f 55/55/55 59/59/59 56/56/56 
f 55/55/55 60/60/60 59/59/59 
f 56/56/56 59/59/59 61/61/61 
f 56/56/56 61/61/61 58/58/58 
f 62/62/62 61/61/61 59/59/59 
f 62/62/62 59/59/59 63/63/63 
f 63/63/63 59/59/59 60/60/60 
f 64/64/64 62/62/62 63/63/63 
f 64/64/64 63/63/63 65/65/65 
f 66/66/66 64/64/64 65/65/65 
f 66/66/66 67/67/67 64/64/64 
f 65/65/65 63/63/63 68/68/68 
f 63/63/63 60/60/60 68/68/68 
f 65/65/65 68/68/68 69/69/69 
f 70/70/70 65/65/65 69/69/69 
f 70/70/70 69/69/69 71/71/71 
f 72/72/72 73/73/73 74/74/74 
f 72/72/72 74/74/74 75/75/75 
f 76/76/76 73/73/73 72/72/72 
f 76/76/76 77/77/77 73/73/73 
f 77/77/77 78/78/78 73/73/73 
f 77/77/77 79/79/79 78/78/78 
f 73/73/73 78/78/78 80/80/80 
f 73/73/73 80/80/80 74/74/74 
f 81/81/81 78/78/78 79/79/79 
f 81/81/81 79/79/79 82/82/82 
f 83/83/83 81/81/81 82/82/82 
f 84/84/84 81/81/81 83/83/83 
f 85/85/85 84/84/84 83/83/83 
f 85/85/85 86/86/86 84/84/84 
f 84/84/84 87/87/87 81/81/81 
f 87/87/87 80/80/80 78/78/78 
f 87/87/87 78/78/78 81/81/81 
f 83/83/83 82/82/82 88/88/88 
f 88/88/88 89/89/89 83/83/83 
f 88/88/88 90/90/90 89/89/89 

