v 0.08270751684904099 0.6903483271598816 -1.045590877532959
v 0.0508740209043026 0.5613934397697449 -0.7012583613395691
v -0.05086914077401161 0.5613932609558105 -0.7012583613395691
v -0.0827050730586052 0.6903483271598816 -1.045590877532959
v -0.06323974579572678 0.42846646904945374 -0.44276443123817444
v 0.06324218958616257 0.42846646904945374 -0.44276443123817444
v 0.09058837592601776 0.27902206778526306 -0.3507501184940338
v -0.09058593213558197 0.27902206778526306 -0.3507501184940338
v -0.18479736149311066 0.13160595297813416 -0.4485262930393219
v 0.18677489459514618 0.13160595297813416 -0.44852614402770996
v -0.0827050730586052 0.6903483271598816 -1.045590877532959
v -0.05086914077401161 0.5613932609558105 -0.7012583613395691
v -0.05389159917831421 0.5520918965339661 -0.21126006543636322
v -0.09495605528354645 0.68034827709198 -0.21296614408493042
v -0.06563476473093033 0.4190264046192169 -0.18454192578792572
v -0.06323974579572678 0.42846646904945374 -0.44276443123817444
v -0.09822021424770355 0.6803483963012695 0.364947646856308
v -0.056914061307907104 0.5520918369293213 0.2692001163959503
v -0.044169921427965164 0.41223517060279846 0.2509516775608063
v -0.09254150092601776 0.26826149225234985 -0.15859496593475342
v -0.03646484389901161 0.25890135765075684 0.32637375593185425
v -0.4489111304283142 0.13518387079238892 -0.18577788770198822
v -0.035957030951976776 0.13160595297813416 0.448525995016098
v -0.09058593213558197 0.27902206778526306 -0.3507501184940338
v -0.4489111304283142 0.13518387079238892 -0.18577788770198822
v -0.18479736149311066 0.13160595297813416 -0.4485262930393219
v -0.09822021424770355 0.6803483963012695 0.364947646856308
v -0.056914061307907104 0.5520918369293213 0.2692001163959503
v 0.0569165013730526 0.552091658115387 0.2691999673843384
v 0.09822265058755875 0.6803483366966248 0.3649473488330841
v 0.04417236149311066 0.4122351109981537 0.25095152854919434
v -0.044169921427965164 0.41223517060279846 0.2509516775608063
v -0.03646484389901161 0.25890135765075684 0.32637375593185425
v 0.03646484389901161 0.25890129804611206 0.3263735771179199
v 0.03596191480755806 0.13160595297813416 0.448525995016098
v -0.035957030951976776 0.13160595297813416 0.448525995016098
v 0.09495605528354645 0.68034827709198 -0.21296599507331848
v 0.05389404296875 0.5520918965339661 -0.21126006543636322
v 0.0508740209043026 0.5613934397697449 -0.7012583613395691
v 0.08270751684904099 0.6903483271598816 -1.045590877532959
v 0.06324218958616257 0.42846646904945374 -0.44276443123817444
v 0.06563720852136612 0.4190264046192169 -0.18454192578792572
v 0.0569165013730526 0.552091658115387 0.2691999673843384
v 0.09822265058755875 0.6803483366966248 0.3649473488330841
v 0.09254394471645355 0.26826149225234985 -0.15859496593475342
v 0.03646484389901161 0.25890129804611206 0.3263735771179199
v 0.4489111304283142 0.13160595297813416 -0.18599547445774078
v 0.03596191480755806 0.13160595297813416 0.448525995016098
v 0.04417236149311066 0.4122351109981537 0.25095152854919434
v 0.0569165013730526 0.552091658115387 0.2691999673843384
v 0.09058837592601776 0.27902206778526306 -0.3507501184940338
v 0.4489111304283142 0.13160595297813416 -0.18599547445774078
v 0.18677489459514618 0.13160595297813416 -0.44852614402770996
vn 4.970864324604918e-07 -0.9364790916442871 -0.3507233262062073
vn 6.176194915497035e-07 -0.9144464731216431 -0.40470683574676514
vn 6.176194915497035e-07 -0.9144464731216431 -0.40470683574676514
vn 4.970864324604918e-07 -0.9364790916442871 -0.3507233262062073
vn 3.82069799798046e-07 -0.7337706089019775 -0.6793973445892334
vn 3.82069799798046e-07 -0.7337706089019775 -0.6793973445892334
vn 2.9634330189765024e-07 0.016879040747880936 -0.9998575448989868
vn 2.9634330189765024e-07 0.016879040747880936 -0.9998575448989868
vn 4.993773359274201e-07 0.5527387857437134 -0.8333545923233032
vn 4.993773359274201e-07 0.5527387857437134 -0.8333545923233032
vn -0.9563981294631958 -0.2916651666164398 -0.01530045922845602
vn -0.9943859577178955 -0.10530377179384232 -0.010382340289652348
vn -0.9914585947990417 -0.13041357696056366 -0.0015080147422850132
vn -0.9545806050300598 -0.2977686822414398 -0.010480057448148727
vn -0.9958328604698181 0.08777996897697449 0.02472817152738571
vn -0.9913485646247864 0.13121329247951508 -0.003326358972117305
vn -0.9527020454406738 -0.3038531541824341 -0.0056589869782328606
vn -0.9878451228141785 -0.15526914596557617 0.007310280576348305
vn -0.9976351261138916 0.0440857820212841 0.05273169279098511
vn -0.837892472743988 0.5455607175827026 0.017315661534667015
vn -0.8466271758079529 0.5020691752433777 0.1764908879995346
vn -0.5330451130867004 0.8134363293647766 0.23277494311332703
vn -0.5330451130867004 0.8134363293647766 0.23277494311332703
vn -0.8060134649276733 0.5742848515510559 -0.14331461489200592
vn -0.45904576778411865 0.8510135412216187 -0.2550547420978546
vn -0.45904576778411865 0.8510135412216187 -0.2550547420978546
vn 1.9664678347908193e-06 -0.598223090171814 0.8013295531272888
vn 2.7862447495863307e-06 -0.3760358989238739 0.9266049861907959
vn 2.7862447495863307e-06 -0.3760358989238739 0.9266049861907959
vn 1.9664678347908193e-06 -0.598223090171814 0.8013295531272888
vn 2.682638296391815e-06 0.1629665642976761 0.9866315722465515
vn 2.682638296391815e-06 0.1629665642976761 0.9866315722465515
vn 2.7993648927804315e-06 0.5736573338508606 0.8190954327583313
vn 2.7993648927804315e-06 0.5736573338508606 0.8190954327583313
vn 3.821438440354541e-06 0.6923835277557373 0.7215296626091003
vn 3.821438440354541e-06 0.6923835277557373 0.7215296626091003
vn 0.9545864462852478 -0.2977496087551117 -0.010479343123733997
vn 0.9914597272872925 -0.13040447235107422 -0.0015068597858771682
vn 0.9943882822990417 -0.10528193414211273 -0.010378851555287838
vn 0.956409752368927 -0.2916269302368164 -0.015296809375286102
vn 0.9913513660430908 0.13119269907474518 -0.0033247962128371
vn 0.9958343505859375 0.08776232600212097 0.024729594588279724
vn 0.9878446459770203 -0.15527266263961792 0.007309145759791136
vn 0.9527020454406738 -0.30385321378707886 -0.005661205388605595
vn 0.8394322991371155 0.54314124584198 0.018738161772489548
vn 0.8484057784080505 0.4992161691188812 0.17604170739650726
vn 0.5387212634086609 0.8097741007804871 0.2324763536453247
vn 0.5387212634086609 0.8097741007804871 0.2324763536453247
vn 0.9976357221603394 0.04407119378447533 0.05273300036787987
vn 0.9878446459770203 -0.15527266263961792 0.007309145759791136
vn 0.8077335953712463 0.5726715326309204 -0.1400495171546936
vn 0.4643511176109314 0.8497529625892639 -0.24959567189216614
vn 0.4643511176109314 0.8497529625892639 -0.24959567189216614
vt 0.46750903129577637 0.0190163254737854
vt 0.4635206162929535 0.06011378765106201
vt 0.4507744610309601 0.06011378765106201
vt 0.44678613543510437 0.0190160870552063
vt 0.4492248594760895 0.10604625940322876
vt 0.46507009863853455 0.10604625940322876
vt 0.46849605441093445 0.14674896001815796
vt 0.44579896330833435 0.14674806594848633
vt 0.43399563431739807 0.1938350796699524
vt 0.48054632544517517 0.19383740425109863
vt 0.41480985283851624 0.02321922779083252
vt 0.36674195528030396 0.05753159523010254
vt 0.2932935953140259 0.05753159523010254
vt 0.2932935953140259 0.02321922779083252
vt 0.2932935953140259 0.09468251466751099
vt 0.3306571841239929 0.09468251466751099
vt 0.22570081055164337 0.02321922779083252
vt 0.22570081055164337 0.05753159523010254
vt 0.22570081055164337 0.09468251466751099
vt 0.2932935953140259 0.1373424530029297
vt 0.22570081055164337 0.1373424530029297
vt 0.2932935953140259 0.20100927352905273
vt 0.22570081055164337 0.20100927352905273
vt 0.3179683983325958 0.1373424530029297
vt 0.2932935953140259 0.20100927352905273
vt 0.337680459022522 0.20100927352905273
vt 0.22570081055164337 0.02321922779083252
vt 0.22570081055164337 0.05753159523010254
vt 0.19296999275684357 0.05753159523010254
vt 0.19296999275684357 0.02321922779083252
vt 0.19296999275684357 0.09468251466751099
vt 0.22570081055164337 0.09468251466751099
vt 0.22570081055164337 0.1373424530029297
vt 0.19296999275684357 0.1373424530029297
vt 0.19296999275684357 0.20100927352905273
vt 0.22570081055164337 0.20100927352905273
vt 0.12878210842609406 0.02321922779083252
vt 0.12878210842609406 0.05753159523010254
vt 0.05741925165057182 0.05753159523010254
vt 0.009351294487714767 0.02321922779083252
vt 0.09350419789552689 0.09468251466751099
vt 0.12878210842609406 0.09468251466751099
vt 0.19296999275684357 0.05753159523010254
vt 0.19296999275684357 0.02321922779083252
vt 0.12878210842609406 0.1373424530029297
vt 0.19296999275684357 0.1373424530029297
vt 0.12878210842609406 0.20100927352905273
vt 0.19296999275684357 0.20100927352905273
vt 0.19296999275684357 0.09468251466751099
vt 0.19296999275684357 0.05753159523010254
vt 0.10573410242795944 0.1373424530029297
vt 0.12878210842609406 0.20100927352905273
vt 0.08785053342580795 0.20100927352905273

g RC_Vaportrail_L1_Fin
s 1
usemtl RC_Vaportrail_L1_Fin
f 1/1/1 2/2/2 3/3/3 
f 1/1/1 3/3/3 4/4/4 
f 2/2/2 5/5/5 3/3/3 
f 2/2/2 6/6/6 5/5/5 
f 5/5/5 6/6/6 7/7/7 
f 5/5/5 7/7/7 8/8/8 
f 7/7/7 9/9/9 8/8/8 
f 7/7/7 10/10/10 9/9/9 
f 11/11/11 12/12/12 13/13/13 
f 11/11/11 13/13/13 14/14/14 
f 12/12/12 15/15/15 13/13/13 
f 12/12/12 16/16/16 15/15/15 
f 13/13/13 17/17/17 14/14/14 
f 13/13/13 18/18/18 17/17/17 
f 19/19/19 18/18/18 13/13/13 
f 19/19/19 13/13/13 15/15/15 
f 19/19/19 15/15/15 20/20/20 
f 19/19/19 20/20/20 21/21/21 
f 22/22/22 21/21/21 20/20/20 
f 22/22/22 23/23/23 21/21/21 
f 15/15/15 16/16/16 24/24/24 
f 15/15/15 24/24/24 20/20/20 
f 25/25/25 20/20/20 24/24/24 
f 25/25/25 24/24/24 26/26/26 
f 27/27/27 28/28/28 29/29/29 
f 27/27/27 29/29/29 30/30/30 
f 28/28/28 31/31/31 29/29/29 
f 28/28/28 32/32/32 31/31/31 
f 31/31/31 32/32/32 33/33/33 
f 31/31/31 33/33/33 34/34/34 
f 33/33/33 35/35/35 34/34/34 
f 33/33/33 36/36/36 35/35/35 
f 37/37/37 38/38/38 39/39/39 
f 37/37/37 39/39/39 40/40/40 
f 38/38/38 41/41/41 39/39/39 
f 38/38/38 42/42/42 41/41/41 
f 43/43/43 42/42/42 38/38/38 
f 44/44/44 43/43/43 38/38/38 
f 44/44/44 38/38/38 37/37/37 
f 41/41/41 42/42/42 45/45/45 
f 46/46/46 45/45/45 42/42/42 
f 46/46/46 47/47/47 45/45/45 
f 46/46/46 48/48/48 47/47/47 
f 46/46/46 42/42/42 49/49/49 
f 50/50/50 49/49/49 42/42/42 
f 41/41/41 45/45/45 51/51/51 
f 52/52/52 51/51/51 45/45/45 
f 52/52/52 53/53/53 51/51/51 

