v 0.18654295802116394 1.22492516040802 1.1211761236190796
v -1.465875267982483 1.3844552040100098 -0.6497617959976196
v 0.4856274724006653 1.876901626586914 -0.14391806721687317
v -1.465875267982483 2.0818374156951904 -0.12518706917762756
v -1.4442626237869263 0.9072756767272949 0.8927664160728455
v 0.35075438022613525 1.3844549655914307 -0.6497617959976196
v -1.4442626237869263 1.3872665166854858 1.1908600330352783
v 0.03468018025159836 0.9072759747505188 0.8927664160728455
vn 0.5783348083496094 0.19087044894695282 0.7931565642356873
vn -0.42557239532470703 -0.5971218347549438 -0.6799512505531311
vn 0.276368647813797 0.9228957891464233 0.26811137795448303
vn -0.36368629336357117 0.9141924977302551 -0.17884191870689392
vn -0.3448770046234131 -0.9374899864196777 -0.04660780727863312
vn 0.2960929274559021 -0.6779492497444153 -0.6728399991989136
vn -0.060869570821523666 0.7829998731613159 0.6190363764762878
vn 0.20009306073188782 -0.9773098826408386 -0.06948436051607132
vt 0.0 1.0
vt 0.0 1.0
vt 0.0 1.0
vt 0.0 1.0
vt 0.0 1.0
vt 0.0 1.0
vt 0.0 1.0
vt 0.0 1.0

g Rhino8_Col_Ear_R
s 1
usemtl Rhino8_Col_Ear_R
f 5/5/5 4/4/4 2/2/2 
f 6/6/6 2/2/2 4/4/4 
f 6/6/6 4/4/4 3/3/3 
f 6/6/6 3/3/3 1/1/1 
f 6/6/6 5/5/5 2/2/2 
f 7/7/7 1/1/1 3/3/3 
f 7/7/7 3/3/3 4/4/4 
f 7/7/7 5/5/5 1/1/1 
f 7/7/7 4/4/4 5/5/5 
f 8/8/8 6/6/6 1/1/1 
f 8/8/8 1/1/1 5/5/5 
f 8/8/8 5/5/5 6/6/6 

