v 0.5475854277610779 0.31784164905548096 0.48578616976737976
v 0.3552832007408142 -1.139912486076355 -2.317095994949341
v 1.177899718284607 0.5528540015220642 -1.7463122606277466
v 0.3392297327518463 -0.38170257210731506 -2.5319247245788574
v 0.1495373547077179 -0.06526855379343033 0.6365905404090881
v 0.552050769329071 -0.38170257210731506 -2.5319247245788574
v 0.35075438022613525 1.3844549655914307 -0.6497617959976196
v 0.7115697860717773 -1.2920984029769897 -0.8552153706550598
v 0.13865967094898224 0.7007052302360535 0.31219780445098877
v 1.029218077659607 -0.730621874332428 -1.5697890520095825
v 0.9148632884025574 1.382312297821045 -0.612138032913208
v 0.3392297327518463 0.5528540015220642 -1.7460951805114746
v 0.6360815167427063 -0.6118501424789429 0.11690780520439148
v 0.15574462711811066 0.31400802731513977 0.48664590716362
v 1.167077660560608 0.32008543610572815 -1.8947505950927734
v 0.5305017232894897 -0.09060348570346832 0.5921797156333923
vn 0.3990066945552826 0.47254303097724915 0.7858095169067383
vn -0.9018409252166748 -0.4142802059650421 -0.12269822508096695
vn 0.914958119392395 0.366925448179245 -0.16798005998134613
vn -0.9272665977478027 0.18768008053302765 -0.3239642381668091
vn -0.9084182381629944 -0.37202462553977966 0.19072003662586212
vn 0.7236640453338623 -0.16939997673034668 -0.6690395474433899
vn -0.5174884796142578 0.7942849397659302 -0.3183033764362335
vn -0.15816964209079742 -0.9610252380371094 0.2267436683177948
vn -0.9848872423171997 0.1629449427127838 0.05870384722948074
vn 0.953318178653717 -0.2934471666812897 -0.07122670859098434
vn 0.898624837398529 0.29234662652015686 0.32711902260780334
vn -0.7791740298271179 0.4594557285308838 -0.4263666272163391
vn 0.9380806088447571 -0.1587768793106079 0.3078872561454773
vn -0.026112407445907593 0.389525830745697 0.9206452965736389
vn 0.8580911755561829 -0.1662251353263855 -0.4858485460281372
vn 0.8924041390419006 -0.09045834839344025 0.44207704067230225
vt 0.0 1.0
vt 0.0 1.0
vt 0.0 1.0
vt 0.0 1.0
vt 0.0 1.0
vt 0.0 1.0
vt 0.0 1.0
vt 0.0 1.0
vt 0.0 1.0
vt 0.0 1.0
vt 0.0 1.0
vt 0.0 1.0
vt 0.0 1.0
vt 0.0 1.0
vt 0.0 1.0
vt 0.0 1.0

g Rhino8_Col_Ear_R
s 1
usemtl Rhino8_Col_Ear_R
f 6/6/6 2/2/2 4/4/4 
f 6/6/6 4/4/4 3/3/3 
f 8/8/8 5/5/5 2/2/2 
f 9/9/9 4/4/4 2/2/2 
f 9/9/9 2/2/2 5/5/5 
f 10/10/10 2/2/2 6/6/6 
f 10/10/10 8/8/8 2/2/2 
f 11/11/11 3/3/3 7/7/7 
f 11/11/11 9/9/9 1/1/1 
f 11/11/11 7/7/7 9/9/9 
f 12/12/12 7/7/7 3/3/3 
f 12/12/12 3/3/3 4/4/4 
f 12/12/12 9/9/9 7/7/7 
f 12/12/12 4/4/4 9/9/9 
f 13/13/13 5/5/5 8/8/8 
f 13/13/13 8/8/8 10/10/10 
f 13/13/13 10/10/10 3/3/3 
f 13/13/13 3/3/3 11/11/11 
f 14/14/14 9/9/9 5/5/5 
f 14/14/14 5/5/5 1/1/1 
f 14/14/14 1/1/1 9/9/9 
f 15/15/15 10/10/10 6/6/6 
f 15/15/15 6/6/6 3/3/3 
f 15/15/15 3/3/3 10/10/10 
f 16/16/16 1/1/1 5/5/5 
f 16/16/16 5/5/5 13/13/13 
f 16/16/16 13/13/13 11/11/11 
f 16/16/16 11/11/11 1/1/1 

