v 1.349453091621399 0.634472668170929 -2.26318359375
v 1.1266015768051147 1.2293847799301147 -1.3446093797683716
v 1.0299804210662842 -0.8235204815864563 -1.0761535167694092
v 0.569384753704071 -0.41962888836860657 0.7060351371765137
v 0.5915625095367432 0.10674510896205902 0.7224999666213989
v 0.9706054329872131 1.1029495000839233 -0.7549487352371216
v 0.6942382454872131 -0.9952636361122131 -0.6727660894393921
v 1.349453091621399 0.634472668170929 -2.26318359375
v 1.0299804210662842 -0.8235204815864563 -1.0761535167694092
v 1.1340038776397705 -0.7598779201507568 -1.4048266410827637
v 1.0686718225479126 -0.30229490995407104 -3.1434178352355957
v 0.5311620831489563 -0.30229490995407104 -3.1434178352355957
v 1.0299804210662842 -0.8235204815864563 -1.0761535167694092
v 0.7863867282867432 -1.3648535013198853 -1.1858056783676147
v 0.8330664038658142 -1.5259276628494263 -2.130497932434082
v 0.7863867282867432 -1.3648535013198853 -1.1858056783676147
v 0.531445324420929 -1.3648535013198853 -1.1858056783676147
v 0.531445324420929 -1.5259276628494263 -2.130497932434082
v 0.531445324420929 -0.9952929615974426 -0.6740942001342773
v 0.6942382454872131 -0.9952636361122131 -0.6727660894393921
v 0.9540624618530273 -1.148867130279541 -2.833671808242798
v 0.531445324420929 -1.148867130279541 -2.833671808242798
v 0.9835156202316284 -0.874804675579071 -2.8276171684265137
v 0.531445324420929 -0.874804675579071 -2.8276171684265137
v 1.1340038776397705 -0.7598779201507568 -1.4048266410827637
v 1.0686718225479126 -0.30229490995407104 -3.1434178352355957
v 1.1340038776397705 -0.7598779201507568 -1.4048266410827637
v 0.531445324420929 -0.9952929615974426 -0.6740942001342773
v 0.531445324420929 -0.9952929615974426 -0.6740942001342773
v 1.0686718225479126 -0.30229490995407104 -3.1434178352355957
v 0.531445324420929 -0.874804675579071 -2.8276171684265137
v 0.5311620831489563 -0.30229490995407104 -3.1434178352355957
v 0.5311620831489563 0.6412402391433716 -2.2729198932647705
v 1.349453091621399 0.634472668170929 -2.26318359375
v 0.531445324420929 -0.5543261766433716 -0.6740942001342773
v 0.531445324420929 -0.5543261766433716 -0.6740942001342773
v 0.531445324420929 0.6101318001747131 -0.924121081829071
v 0.531445324420929 -0.874804675579071 -2.8276171684265137
v 0.531445324420929 -0.5543261766433716 -0.6740942001342773
v 0.49785155057907104 -0.5543261766433716 0.26463866233825684
v 0.9706054329872131 1.1029495000839233 -0.7549487352371216
v 1.1266015768051147 1.2293847799301147 -1.3446093797683716
v 0.6526855230331421 1.2352733612060547 -1.3448388576507568
v 0.6078906059265137 1.1120705604553223 -0.755871593952179
v 0.5311620831489563 0.6412402391433716 -2.2729198932647705
v 1.349453091621399 0.634472668170929 -2.26318359375
v 0.531445324420929 0.6101318001747131 -0.924121081829071
v 0.6078906059265137 1.1120705604553223 -0.755871593952179
v 0.6526855230331421 1.2352733612060547 -1.3448388576507568
v 0.5296093821525574 0.3184570372104645 0.31724607944488525
v 0.531445324420929 0.6101318001747131 -0.924121081829071
v 0.5311620831489563 0.6412402391433716 -2.2729198932647705
v 0.531445324420929 -0.5543261766433716 -0.6740942001342773
v 0.49785155057907104 -0.5543261766433716 0.26463866233825684
v 0.9706054329872131 1.1029495000839233 -0.7549487352371216
v 0.6078906059265137 1.1120705604553223 -0.755871593952179
v 0.531445324420929 0.6101318001747131 -0.924121081829071
v 0.49785155057907104 -0.5543261766433716 0.26463866233825684
v 0.5296093821525574 0.3184570372104645 0.31724607944488525
v 0.5915625095367432 0.10674510896205902 0.7224999666213989
v 0.9706054329872131 1.1029495000839233 -0.7549487352371216
v 0.569384753704071 -0.41962888836860657 0.7060351371765137
v 0.49785155057907104 -0.5543261766433716 0.26463866233825684
v 0.531445324420929 -0.9952929615974426 -0.6740942001342773
v 0.6942382454872131 -0.9952636361122131 -0.6727660894393921
v 0.569384753704071 -0.41962888836860657 0.7060351371765137
v 1.0299804210662842 -0.8235204815864563 -1.0761535167694092
vn 0.7522131204605103 0.5038485527038574 -0.4246315062046051
vn 0.736487627029419 0.6733710765838623 0.06447677314281464
vn 0.8986573815345764 -0.3223508894443512 0.2974974513053894
vn 0.25192517042160034 -0.7797312140464783 0.5731953382492065
vn -0.09705479443073273 0.6516237854957581 0.7523075938224792
vn 0.39405858516693115 0.7984939813613892 0.45511025190353394
vn 0.3630717694759369 -0.7886435389518738 0.4962058961391449
vn 0.7522131204605103 0.5038485527038574 -0.4246315062046051
vn 0.8986573815345764 -0.3223508894443512 0.2974974513053894
vn 0.9687185883522034 -0.23926347494125366 0.06585898995399475
vn 0.5012720227241516 -0.002565638395026326 -0.8652860522270203
vn -0.7757260799407959 0.07690199464559555 -0.6263666152954102
vn 0.8986573815345764 -0.3223508894443512 0.2974974513053894
vn 0.48080435395240784 -0.7840432524681091 0.39256006479263306
vn 0.5773345828056335 -0.8137829303741455 -0.066648468375206
vn 0.48080435395240784 -0.7840432524681091 0.39256006479263306
vn -0.4572884440422058 -0.8202160596847534 0.34370455145835876
vn -0.46733802556991577 -0.8725511431694031 -0.14230144023895264
vn -0.854252278804779 -0.4567810595035553 0.24820174276828766
vn 0.3630717694759369 -0.7886435389518738 0.4962058961391449
vn 0.45245102047920227 -0.5326799154281616 -0.7152204513549805
vn -0.5059815645217896 -0.43474236130714417 -0.744970977306366
vn 0.657400906085968 -0.3177938163280487 -0.6832504868507385
vn -0.7193697094917297 -0.16587960720062256 -0.6745303869247437
vn 0.9687185883522034 -0.23926347494125366 0.06585898995399475
vn 0.5012720227241516 -0.002565638395026326 -0.8652860522270203
vn 0.9687185883522034 -0.23926347494125366 0.06585898995399475
vn -0.854252278804779 -0.4567810595035553 0.24820174276828766
vn -0.854252278804779 -0.4567810595035553 0.24820174276828766
vn 0.5012720227241516 -0.002565638395026326 -0.8652860522270203
vn -0.7193697094917297 -0.16587960720062256 -0.6745303869247437
vn -0.7757260799407959 0.07690199464559555 -0.6263666152954102
vn -0.6767009496688843 0.5888915061950684 -0.44190797209739685
vn 0.7522131204605103 0.5038485527038574 -0.4246315062046051
vn -0.9999160766601562 0.0034715086221694946 -0.012483438476920128
vn -0.9999160766601562 0.0034715086221694946 -0.012483438476920128
vn -0.9963614344596863 0.08519580215215683 0.0023711726535111666
vn -0.7193697094917297 -0.16587960720062256 -0.6745303869247437
vn -0.9999160766601562 0.0034715086221694946 -0.012483438476920128
vn -0.955245852470398 -0.25683319568634033 0.1467721313238144
vn 0.39405858516693115 0.7984939813613892 0.45511025190353394
vn 0.736487627029419 0.6733710765838623 0.06447677314281464
vn -0.424556702375412 0.8927435874938965 -0.15086568892002106
vn -0.6724695563316345 0.6935564875602722 0.25838762521743774
vn -0.6767009496688843 0.5888915061950684 -0.44190797209739685
vn 0.7522131204605103 0.5038485527038574 -0.4246315062046051
vn -0.9963614344596863 0.08519580215215683 0.0023711726535111666
vn -0.6724695563316345 0.6935564875602722 0.25838762521743774
vn -0.424556702375412 0.8927435874938965 -0.15086568892002106
vn -0.9270895719528198 0.30297836661338806 0.22070103883743286
vn -0.9963614344596863 0.08519580215215683 0.0023711726535111666
vn -0.6767009496688843 0.5888915061950684 -0.44190797209739685
vn -0.9999160766601562 0.0034715086221694946 -0.012483438476920128
vn -0.955245852470398 -0.25683319568634033 0.1467721313238144
vn 0.39405858516693115 0.7984939813613892 0.45511025190353394
vn -0.6724695563316345 0.6935564875602722 0.25838762521743774
vn -0.9963614344596863 0.08519580215215683 0.0023711726535111666
vn -0.955245852470398 -0.25683319568634033 0.1467721313238144
vn -0.9270895719528198 0.30297836661338806 0.22070103883743286
vn -0.09705479443073273 0.6516237854957581 0.7523075938224792
vn 0.39405858516693115 0.7984939813613892 0.45511025190353394
vn 0.25192517042160034 -0.7797312140464783 0.5731953382492065
vn -0.955245852470398 -0.25683319568634033 0.1467721313238144
vn -0.854252278804779 -0.4567810595035553 0.24820174276828766
vn 0.3630717694759369 -0.7886435389518738 0.4962058961391449
vn 0.25192517042160034 -0.7797312140464783 0.5731953382492065
vn 0.8986573815345764 -0.3223508894443512 0.2974974513053894
vt 0.4983246922492981 0.08902031183242798
vt 0.4811341166496277 0.07977449893951416
vt 0.6289510726928711 0.25229543447494507
vt 0.4369588792324066 0.12179416418075562
vt 0.6186850070953369 0.2971787452697754
vt 0.4691193699836731 0.0803346037864685
vt 0.8664527535438538 0.5212441682815552
vt 0.4983246922492981 0.08902031183242798
vt 0.6289510726928711 0.25229543447494507
vt 0.49175795912742615 0.12145668268203735
vt 0.7886266112327576 0.5815434157848358
vt 0.7819046974182129 0.5764313340187073
vt 0.4862544536590576 0.12820982933044434
vt 0.8400059938430786 0.54588383436203
vt 0.815275251865387 0.5592265129089355
vt 0.8400059938430786 0.54588383436203
vt 0.8303805589675903 0.5331185758113861
vt 0.8110677003860474 0.5493219494819641
vt 0.8486813306808472 0.5076722800731659
vt 0.8664527535438538 0.5212441682815552
vt 0.8012902140617371 0.5667043328285217
vt 0.7969579696655273 0.5587042272090912
vt 0.7982824444770813 0.5716040730476379
vt 0.7895885109901428 0.5609992742538452
vt 0.49175795912742615 0.12145668268203735
vt 0.7886266112327576 0.5815434157848358
vt 0.49175795912742615 0.12145668268203735
vt 0.8486813306808472 0.5076722800731659
vt 0.8486813306808472 0.5076722800731659
vt 0.7886266112327576 0.5815434157848358
vt 0.7895885109901428 0.5609992742538452
vt 0.7819046974182129 0.5764313340187073
vt 0.7604306936264038 0.5998470783233643
vt 0.4983246922492981 0.08902031183242798
vt 0.478514164686203 0.08368968963623047
vt 0.478514164686203 0.08368968963623047
vt 0.4246804118156433 0.15228271484375
vt 0.7895885109901428 0.5609992742538452
vt 0.7498536109924316 0.5435504913330078
vt 0.3496547043323517 0.08376598358154297
vt 0.7311495542526245 0.5095305740833282
vt 0.7433943748474121 0.5087627172470093
vt 0.7425916194915771 0.4963570237159729
vt 0.7250359058380127 0.5002669095993042
vt 0.7693629264831543 0.5051168203353882
vt 0.7606188058853149 0.5182598829269409
vt 0.4246804118156433 0.15228271484375
vt 0.4119296967983246 0.21513444185256958
vt 0.45468175411224365 0.21612000465393066
vt 0.41961973905563354 0.1415482759475708
vt 0.4246804118156433 0.15228271484375
vt 0.5220127105712891 0.16983246803283691
vt 0.478514164686203 0.08368968963623047
vt 0.3496547043323517 0.08376598358154297
vt 0.7309350967407227 0.5090916752815247
vt 0.7250359058380127 0.5002669095993042
vt 0.4246804118156433 0.15228271484375
vt 0.3496547043323517 0.08376598358154297
vt 0.41961973905563354 0.1415482759475708
vt 0.6186850070953369 0.2971787452697754
vt 0.7309350967407227 0.5090916752815247
vt 0.4369588792324066 0.12179416418075562
vt 0.3496547043323517 0.08376598358154297
vt 0.8486813306808472 0.5076722800731659
vt 0.8664527535438538 0.5212441682815552
vt 0.4369588792324066 0.12179416418075562
vt 0.6289510726928711 0.25229543447494507

g Rhino8_Col_Jaw_R
s 1
usemtl Rhino8_Col_Jaw_R
f 1/1/1 2/2/2 3/3/3 
f 4/4/4 3/3/3 2/2/2 
f 2/2/2 5/5/5 4/4/4 
f 2/2/2 6/6/6 5/5/5 
f 4/4/4 7/7/7 3/3/3 
f 8/8/8 9/9/9 10/10/10 
f 10/10/10 11/11/11 8/8/8 
f 12/12/12 8/8/8 11/11/11 
f 10/10/10 13/13/13 14/14/14 
f 15/15/15 16/16/16 17/17/17 
f 15/15/15 17/17/17 18/18/18 
f 16/16/16 19/19/19 17/17/17 
f 16/16/16 20/20/20 19/19/19 
f 21/21/21 15/15/15 18/18/18 
f 21/21/21 18/18/18 22/22/22 
f 22/22/22 18/18/18 17/17/17 
f 23/23/23 21/21/21 22/22/22 
f 23/23/23 22/22/22 24/24/24 
f 25/25/25 16/16/16 15/15/15 
f 21/21/21 25/25/25 15/15/15 
f 25/25/25 23/23/23 26/26/26 
f 21/21/21 23/23/23 27/27/27 
f 17/17/17 28/28/28 22/22/22 
f 29/29/29 24/24/24 22/22/22 
f 30/30/30 23/23/23 31/31/31 
f 30/30/30 31/31/31 32/32/32 
f 32/32/32 33/33/33 34/34/34 
f 33/33/33 32/32/32 35/35/35 
f 33/33/33 36/36/36 37/37/37 
f 38/38/38 29/29/29 39/39/39 
f 38/38/38 39/39/39 32/32/32 
f 39/39/39 29/29/29 40/40/40 
f 41/41/41 42/42/42 43/43/43 
f 41/41/41 43/43/43 44/44/44 
f 42/42/42 45/45/45 43/43/43 
f 42/42/42 46/46/46 45/45/45 
f 47/47/47 48/48/48 49/49/49 
f 50/50/50 48/48/48 47/47/47 
f 51/51/51 49/49/49 52/52/52 
f 47/47/47 53/53/53 54/54/54 
f 50/50/50 55/55/55 56/56/56 
f 57/57/57 58/58/58 59/59/59 
f 59/59/59 60/60/60 61/61/61 
f 62/62/62 60/60/60 59/59/59 
f 62/62/62 59/59/59 63/63/63 
f 64/64/64 62/62/62 58/58/58 
f 64/64/64 65/65/65 66/66/66 
f 67/67/67 65/65/65 16/16/16 

