v 0.531445324420929 -0.5543261766433716 -0.6740942001342773
v 0.531445324420929 -1.148867130279541 -2.833671808242798
v 1.1340038776397705 -0.7598779201507568 -1.4048266410827637
v 0.531445324420929 -0.874804675579071 -2.8276174068450928
v 0.9835156202316284 -0.874804675579071 -2.8276174068450928
v 0.531445324420929 -1.3648535013198853 -1.1858056783676147
v 0.6942382454872131 -0.9952636957168579 -0.6727660894393921
v 0.8330664038658142 -1.5259276628494263 -2.130497932434082
v 1.0299804210662842 -0.8235204815864563 -1.0761535167694092
v 0.531445324420929 -0.9952929615974426 -0.6740942001342773
v 0.9540624618530273 -1.148867130279541 -2.833671808242798
v 0.7863867282867432 -1.3648535013198853 -1.1858056783676147
v 0.531445324420929 -1.5259276628494263 -2.130497932434082
vn -0.6370970010757446 0.7704521417617798 0.02260170504450798
vn -0.9611586332321167 -0.1934567391872406 -0.19684664905071259
vn 0.9893773198127747 0.14494718611240387 0.011085533536970615
vn -0.5023250579833984 0.8336631059646606 -0.22951102256774902
vn 0.2895961403846741 0.9230453968048096 -0.25322189927101135
vn -0.9397562742233276 -0.3246425688266754 0.10707657784223557
vn 0.5603933334350586 -0.383358895778656 0.7341630458831787
vn 0.6504784822463989 -0.7575307488441467 -0.054998334497213364
vn 0.8628133535385132 -0.04641677811741829 0.5033870339393616
vn -0.8237343430519104 -0.3026764392852783 0.47942548990249634
vn 0.8585935831069946 -0.4537791609764099 -0.2385406494140625
vn 0.7171230316162109 -0.6386820673942566 0.27896225452423096
vn -0.6835668087005615 -0.7236980199813843 -0.09485534578561783
vt 0.0 1.0
vt 0.0 1.0
vt 0.0 1.0
vt 0.0 1.0
vt 0.0 1.0
vt 0.0 1.0
vt 0.0 1.0
vt 0.0 1.0
vt 0.0 1.0
vt 0.0 1.0
vt 0.0 1.0
vt 0.0 1.0
vt 0.0 1.0

g Rhino8_Col_Jaw_R
s 1
usemtl Rhino8_Col_Jaw_R
f 2/2/2 1/1/1 4/4/4 
f 5/5/5 2/2/2 4/4/4 
f 5/5/5 1/1/1 3/3/3 
f 5/5/5 4/4/4 1/1/1 
f 6/6/6 1/1/1 2/2/2 
f 9/9/9 3/3/3 1/1/1 
f 9/9/9 1/1/1 7/7/7 
f 10/10/10 7/7/7 1/1/1 
f 10/10/10 1/1/1 6/6/6 
f 10/10/10 6/6/6 7/7/7 
f 11/11/11 5/5/5 3/3/3 
f 11/11/11 3/3/3 8/8/8 
f 11/11/11 8/8/8 2/2/2 
f 11/11/11 2/2/2 5/5/5 
f 12/12/12 7/7/7 6/6/6 
f 12/12/12 6/6/6 8/8/8 
f 12/12/12 9/9/9 7/7/7 
f 12/12/12 8/8/8 3/3/3 
f 12/12/12 3/3/3 9/9/9 
f 13/13/13 8/8/8 6/6/6 
f 13/13/13 6/6/6 2/2/2 
f 13/13/13 2/2/2 8/8/8 

