v 0.4007226526737213 -0.5543261766433716 0.32372069358825684
v 0.4007226526737213 -1.2561620473861694 0.32372069358825684
v 0.9446850419044495 -1.3168749809265137 0.32372069358825684
v 0.9446850419044495 -0.5543261766433716 0.32372069358825684
v -0.49785155057907104 -0.5543261766433716 0.26463866233825684
v 0.9446850419044495 -0.5543261766433716 -0.6727660894393921
v 0.9446850419044495 -0.9952636361122131 -0.6727660894393921
v 0.9446850419044495 -0.5543261766433716 0.32372069358825684
v 0.9446850419044495 -1.3168749809265137 0.32372069358825684
v 0.9446850419044495 -1.385097622871399 -0.33302733302116394
v 0.04009765386581421 -2.250683546066284 1.8833788633346558
v -0.6079491972923279 -1.385097622871399 -0.33302733302116394
v 0.9446850419044495 -1.385097622871399 -0.33302733302116394
v 0.9446850419044495 -1.6675585508346558 0.3543066382408142
v 0.9450548887252808 -2.2500975131988525 1.8833593130111694
v 0.9446850419044495 -1.3168749809265137 0.32372069358825684
v 0.9446850419044495 -1.7433984279632568 1.7165234088897705
v 0.9446850419044495 -2.8698437213897705 2.710507869720459
v 0.9446850419044495 -2.513867139816284 2.7361929416656494
v 0.7517895102500916 -2.513867139816284 2.7361929416656494
v 0.7522338628768921 -2.8661718368530273 2.710507869720459
v 0.14420409500598907 -2.628730297088623 2.0364062786102295
v 0.945296585559845 -2.626406192779541 2.0381834506988525
v 0.9446850419044495 -2.8698437213897705 2.710507869720459
v 0.9446850419044495 -2.513867139816284 2.7361929416656494
v 0.945296585559845 -2.626406192779541 2.0381834506988525
v 0.43458983302116394 -1.4499999284744263 2.514531135559082
v 0.3995312452316284 0.023271789774298668 1.672460913658142
v -0.28714844584465027 -0.02537078782916069 1.672460913658142
v 0.2538720667362213 -1.4919335842132568 2.494999885559082
v 0.4352782964706421 -1.7433984279632568 1.7165234088897705
v 0.40022459626197815 0.1894250512123108 0.8037695288658142
v -0.5915625095367432 0.10674510896205902 0.7224999666213989
v 0.40022459626197815 0.1894250512123108 0.8037695288658142
v -0.02558593638241291 -1.4030468463897705 1.9578319787979126
v -0.3840722441673279 -0.5050634741783142 1.3971874713897705
v -0.5915625095367432 0.10674510896205902 0.7224999666213989
v -0.5296093821525574 0.3184570372104645 0.31724607944488525
v 0.40022459626197815 0.1894250512123108 0.8037695288658142
v 0.4007226526737213 -0.5543261766433716 0.32372069358825684
v 0.4007226526737213 0.32768064737319946 0.3238476514816284
v 0.4007226526737213 -1.2561620473861694 0.32372069358825684
v 0.4352782964706421 -1.7433984279632568 1.7165234088897705
v -0.49785155057907104 -0.5543261766433716 0.26463866233825684
v -0.5915625095367432 0.10674510896205902 0.7224999666213989
v -0.569384753704071 -0.41962888836860657 0.7060351371765137
v -0.5296093821525574 0.3184570372104645 0.31724607944488525
v -0.49785155057907104 -0.5543261766433716 0.26463866233825684
v -0.5915625095367432 0.10674510896205902 0.7224999666213989
v -0.49785155057907104 -0.5543261766433716 0.26463866233825684
v 0.2538720667362213 -1.4919335842132568 2.494999885559082
v 0.7517895102500916 -2.513867139816284 2.7361929416656494
v 0.9446850419044495 -2.513867139816284 2.7361929416656494
v 0.43458983302116394 -1.4499999284744263 2.514531135559082
v 0.9446850419044495 -1.4823436737060547 2.5087890625
v 0.4007226526737213 -1.2561620473861694 0.32372069358825684
v 0.4352782964706421 -1.7433984279632568 1.7165234088897705
v 0.9446850419044495 -1.7433984279632568 1.7165234088897705
v 0.9446850419044495 -1.3168749809265137 0.32372069358825684
v -0.5296093821525574 0.3184570372104645 0.31724607944488525
v 0.40022459626197815 0.1894250512123108 0.8037695288658142
v 0.4007226526737213 0.32768064737319946 0.3238476514816284
v 0.9446850419044495 -1.7433984279632568 1.7165234088897705
v 0.9446850419044495 -1.4823436737060547 2.5087890625
v 0.9446850419044495 -2.513867139816284 2.7361929416656494
v 0.9450548887252808 -2.2500975131988525 1.8833593130111694
v -0.6079491972923279 -1.385097622871399 -0.33302733302116394
v -0.531445324420929 -0.9952929615974426 -0.6740942001342773
v 0.9446850419044495 -0.9952636361122131 -0.6727660894393921
v 0.9446850419044495 -1.385097622871399 -0.33302733302116394
v -0.6079491972923279 -1.385097622871399 -0.33302733302116394
v -0.4931738078594208 -1.4474608898162842 0.8192968368530273
v -0.569384753704071 -0.41962888836860657 0.7060351371765137
v -0.49785155057907104 -0.5543261766433716 0.26463866233825684
v -0.531445324420929 -0.9952929615974426 -0.6740942001342773
v -0.569384753704071 -0.41962888836860657 0.7060351371765137
v -0.531445324420929 -0.9952929615974426 -0.6740942001342773
v -0.6079491972923279 -1.385097622871399 -0.33302733302116394
v 0.04009765386581421 -2.250683546066284 1.8833788633346558
v -0.4931738078594208 -1.4474608898162842 0.8192968368530273
v -0.0885644480586052 -1.6901366710662842 1.724941372871399
v -0.569384753704071 -0.41962888836860657 0.7060351371765137
v -0.3840722441673279 -0.5050634741783142 1.3971874713897705
v -0.0885644480586052 -1.6901366710662842 1.724941372871399
v -0.02558593638241291 -1.4030468463897705 1.9578319787979126
v -0.4931738078594208 -1.4474608898162842 0.8192968368530273
v -0.49785155057907104 -0.5543261766433716 0.26463866233825684
v -0.531445324420929 -0.5543261766433716 -0.6740942001342773
v -0.531445324420929 -0.9952929615974426 -0.6740942001342773
v 0.9446850419044495 -1.7433984279632568 1.7165234088897705
v 0.4352782964706421 -1.7433984279632568 1.7165234088897705
v 0.43458983302116394 -1.4499999284744263 2.514531135559082
v 0.9446850419044495 -1.4823436737060547 2.5087890625
v 0.7517895102500916 -2.513867139816284 2.7361929416656494
v 0.2538720667362213 -1.4919335842132568 2.494999885559082
v 0.14420409500598907 -2.628730297088623 2.0364062786102295
v 0.7522338628768921 -2.8661718368530273 2.710507869720459
v -0.02558593638241291 -1.4030468463897705 1.9578319787979126
v -0.0885644480586052 -1.6901366710662842 1.724941372871399
v 0.2538720667362213 -1.4919335842132568 2.494999885559082
v 0.04009765386581421 -2.250683546066284 1.8833788633346558
v 0.04009765386581421 -2.250683546066284 1.8833788633346558
v 0.14420409500598907 -2.628730297088623 2.0364062786102295
v 0.2538720667362213 -1.4919335842132568 2.494999885559082
v -0.531445324420929 -0.9952929615974426 -0.6740942001342773
v -0.531445324420929 -0.5543261766433716 -0.6740942001342773
v 0.9446850419044495 -0.5543261766433716 -0.6727660894393921
v 0.9446850419044495 -0.9952636361122131 -0.6727660894393921
v 0.9446850419044495 -0.5543261766433716 -0.6727660894393921
v -0.531445324420929 -0.5543261766433716 -0.6740942001342773
v -0.49785155057907104 -0.5543261766433716 0.26463866233825684
v -0.49785155057907104 -0.5543261766433716 0.26463866233825684
v 0.4007226526737213 -0.5543261766433716 0.32372069358825684
v 0.9446850419044495 -0.5543261766433716 0.32372069358825684
v 0.14420409500598907 -2.628730297088623 2.0364062786102295
v 0.04009765386581421 -2.250683546066284 1.8833788633346558
v 0.9450548887252808 -2.2500975131988525 1.8833593130111694
v 0.9450548887252808 -2.2500975131988525 1.8833593130111694
v 0.945296585559845 -2.626406192779541 2.0381834506988525
v 0.9446850419044495 -2.513867139816284 2.7361929416656494
vn 0.708833634853363 0.7053742408752441 0.0014689448289573193
vn 0.7879086136817932 0.3668932616710663 0.494559645652771
vn 0.8836464881896973 0.27463972568511963 0.3791331946849823
vn 0.5773502588272095 0.5773502588272095 0.5773502588272095
vn 0.024879062548279762 0.7178665399551392 -0.6957360506057739
vn 0.5776965022087097 0.5771771669387817 -0.5771769881248474
vn 0.47152063250541687 -0.3097686767578125 -0.8256582617759705
vn 0.5773502588272095 0.5773502588272095 0.5773502588272095
vn 0.8836464881896973 0.27463972568511963 0.3791331946849823
vn 0.7165026664733887 -0.5707353353500366 -0.40110504627227783
vn -0.6888505220413208 -0.6757005453109741 -0.26251423358917236
vn -0.6678879857063293 -0.6701022386550903 -0.3238651752471924
vn 0.7165026664733887 -0.5707353353500366 -0.40110504627227783
vn 0.8940417766571045 -0.4172811806201935 -0.1629895716905594
vn 0.736003041267395 -0.48222142457962036 -0.47514426708221436
vn 0.8836464881896973 0.27463972568511963 0.3791331946849823
vn 0.8520340919494629 0.5234634876251221 -0.004883886780589819
vn 0.6363461017608643 -0.6458134651184082 0.42188698053359985
vn 0.5488921999931335 0.09178970009088516 0.830838143825531
vn -0.29141780734062195 -0.018496006727218628 0.9564170837402344
vn -0.3826926350593567 -0.6136496663093567 0.6906377077102661
vn -0.716452419757843 -0.6933072209358215 -0.07759639620780945
vn 0.48090988397598267 -0.6336442232131958 -0.6059873700141907
vn 0.6363461017608643 -0.6458134651184082 0.42188698053359985
vn 0.5488921999931335 0.09178970009088516 0.830838143825531
vn 0.48090988397598267 -0.6336442232131958 -0.6059873700141907
vn 0.2813321650028229 0.5693577527999878 0.7724531292915344
vn 0.4218488335609436 0.7402434349060059 0.5235296487808228
vn -0.6649396419525146 0.45611271262168884 0.5914527773857117
vn -0.6163231730461121 0.07599002867937088 0.7838184237480164
vn 0.7349686026573181 0.6779446005821228 -0.014575519599020481
vn 0.8180423378944397 0.5557629466056824 0.14810234308242798
vn -0.7256141901016235 0.6483372449874878 0.23052741587162018
vn 0.8180423378944397 0.5557629466056824 0.14810234308242798
vn -0.9029943346977234 -0.09904438257217407 0.4180806577205658
vn -0.9369500875473022 -0.06380115449428558 0.3435896337032318
vn -0.7256141901016235 0.6483372449874878 0.23052741587162018
vn -0.021996628493070602 0.833687424659729 -0.5517982840538025
vn 0.8180423378944397 0.5557629466056824 0.14810234308242798
vn 0.708833634853363 0.7053742408752441 0.0014689448289573193
vn 0.6462011337280273 0.6367132067680359 -0.4207378327846527
vn 0.7879086136817932 0.3668932616710663 0.494559645652771
vn 0.7349686026573181 0.6779446005821228 -0.014575519599020481
vn 0.024879062548279762 0.7178665399551392 -0.6957360506057739
vn -0.7256141901016235 0.6483372449874878 0.23052741587162018
vn -0.9949095845222473 -0.011083204299211502 0.10016073286533356
vn -0.9869199991226196 -0.030227839946746826 -0.1583513766527176
vn -0.9869199991226196 -0.030227839946746826 -0.1583513766527176
vn -0.7256141901016235 0.6483372449874878 0.23052741587162018
vn -0.9869199991226196 -0.030227839946746826 -0.1583513766527176
vn -0.6163231730461121 0.07599002867937088 0.7838184237480164
vn -0.29141780734062195 -0.018496006727218628 0.9564170837402344
vn 0.5488921999931335 0.09178970009088516 0.830838143825531
vn 0.2813321650028229 0.5693577527999878 0.7724531292915344
vn 0.6213401556015015 0.6841269731521606 0.3819775879383087
vn 0.7879086136817932 0.3668932616710663 0.494559645652771
vn 0.7349686026573181 0.6779446005821228 -0.014575519599020481
vn 0.8520340919494629 0.5234634876251221 -0.004883886780589819
vn 0.8836464881896973 0.27463972568511963 0.3791331946849823
vn -0.021996628493070602 0.833687424659729 -0.5517982840538025
vn 0.8180423378944397 0.5557629466056824 0.14810234308242798
vn 0.6462011337280273 0.6367132067680359 -0.4207378327846527
vn 0.8520340919494629 0.5234634876251221 -0.004883886780589819
vn 0.6213401556015015 0.6841269731521606 0.3819775879383087
vn 0.5488921999931335 0.09178970009088516 0.830838143825531
vn 0.736003041267395 -0.48222142457962036 -0.47514426708221436
vn -0.6678879857063293 -0.6701022386550903 -0.3238651752471924
vn 0.0006602676003240049 -0.35126933455467224 -0.9362742304801941
vn 0.47152063250541687 -0.3097686767578125 -0.8256582617759705
vn 0.7165026664733887 -0.5707353353500366 -0.40110504627227783
vn -0.6678879857063293 -0.6701022386550903 -0.3238651752471924
vn -0.9692760109901428 -0.12745997309684753 0.21037551760673523
vn -0.9949095845222473 -0.011083204299211502 0.10016073286533356
vn -0.999036431312561 0.041652824729681015 0.013827631250023842
vn -0.999036431312561 0.041652824729681015 0.013827631250023842
vn -0.9949095845222473 -0.011083204299211502 0.10016073286533356
vn -0.999036431312561 0.041652824729681015 0.013827631250023842
vn -0.6678879857063293 -0.6701022386550903 -0.3238651752471924
vn -0.6888505220413208 -0.6757005453109741 -0.26251423358917236
vn -0.9692760109901428 -0.12745997309684753 0.21037551760673523
vn -0.9220291972160339 -0.20094558596611023 0.3308820426464081
vn -0.9949095845222473 -0.011083204299211502 0.10016073286533356
vn -0.9369500875473022 -0.06380115449428558 0.3435896337032318
vn -0.9220291972160339 -0.20094558596611023 0.3308820426464081
vn -0.9029943346977234 -0.09904438257217407 0.4180806577205658
vn -0.9692760109901428 -0.12745997309684753 0.21037551760673523
vn -0.999036431312561 0.041652824729681015 0.013827631250023842
vn -0.999036431312561 0.041652824729681015 0.013827631250023842
vn -0.999036431312561 0.041652824729681015 0.013827631250023842
vn 0.8520340919494629 0.5234634876251221 -0.004883886780589819
vn 0.7349686026573181 0.6779446005821228 -0.014575519599020481
vn 0.2813321650028229 0.5693577527999878 0.7724531292915344
vn 0.6213401556015015 0.6841269731521606 0.3819775879383087
vn -0.29141780734062195 -0.018496006727218628 0.9564170837402344
vn -0.6163231730461121 0.07599002867937088 0.7838184237480164
vn -0.716452419757843 -0.6933072209358215 -0.07759639620780945
vn -0.3826926350593567 -0.6136496663093567 0.6906377077102661
vn -0.9029943346977234 -0.09904438257217407 0.4180806577205658
vn -0.9220291972160339 -0.20094558596611023 0.3308820426464081
vn -0.6163231730461121 0.07599002867937088 0.7838184237480164
vn -0.6888505220413208 -0.6757005453109741 -0.26251423358917236
vn -0.6888505220413208 -0.6757005453109741 -0.26251423358917236
vn -0.716452419757843 -0.6933072209358215 -0.07759639620780945
vn -0.6163231730461121 0.07599002867937088 0.7838184237480164
vn 0.0006602676003240049 -0.35126933455467224 -0.9362742304801941
vn 0.0006362132844515145 0.7071067094802856 -0.7071064710617065
vn 0.5776965022087097 0.5771771669387817 -0.5771769881248474
vn 0.47152063250541687 -0.3097686767578125 -0.8256582617759705
vn 0.5776965022087097 0.5771771669387817 -0.5771769881248474
vn 0.0006362132844515145 0.7071067094802856 -0.7071064710617065
vn 0.024879062548279762 0.7178665399551392 -0.6957360506057739
vn 0.024879062548279762 0.7178665399551392 -0.6957360506057739
vn 0.708833634853363 0.7053742408752441 0.0014689448289573193
vn 0.5773502588272095 0.5773502588272095 0.5773502588272095
vn -0.716452419757843 -0.6933072209358215 -0.07759639620780945
vn -0.6888505220413208 -0.6757005453109741 -0.26251423358917236
vn 0.736003041267395 -0.48222142457962036 -0.47514426708221436
vn 0.736003041267395 -0.48222142457962036 -0.47514426708221436
vn 0.48090988397598267 -0.6336442232131958 -0.6059873700141907
vn 0.5488921999931335 0.09178970009088516 0.830838143825531
vt 0.7601808309555054 0.49266016483306885
vt 0.7355356216430664 0.508606880903244
vt 0.7220700979232788 0.4877963066101074
vt 0.7467153072357178 0.47184956073760986
vt 0.3496547043323517 0.08376598358154297
vt 0.0 0.0
vt 0.0 1.0
vt 1.0 0.0
vt 0.7555481791496277 0.5101149678230286
vt 0.7430851459503174 0.48676180839538574
vt 0.6501902937889099 0.5005480051040649
vt 0.7004864811897278 0.4528951644897461
vt 0.7355238199234009 0.49391084909439087
vt 0.7185908555984497 0.5085119307041168
vt 0.6797005534172058 0.5422197580337524
vt 0.733956515789032 0.5170086622238159
vt 0.6885901689529419 0.5626987516880035
vt 0.36971840262413025 0.18982893228530884
vt 0.3690562844276428 0.18458425998687744
vt 0.3725544214248657 0.18365949392318726
vt 0.37317824363708496 0.18957000970840454
vt 0.3914841413497925 0.18480217456817627
vt 0.0 0.0
vt 0.36971840262413025 0.18982893228530884
vt 0.3690562844276428 0.18458425998687744
vt 0.0 0.0
vt 0.7281222939491272 0.5527245104312897
vt 0.7689460515975952 0.4926178455352783
vt 0.7911515235900879 0.49966180324554443
vt 0.7348282337188721 0.576675683259964
vt 0.39529070258140564 0.20302033424377441
vt 0.4871245324611664 0.12505316734313965
vt 0.8005180954933167 0.4867420792579651
vt 0.777267575263977 0.44588446617126465
vt 0.7642418742179871 0.5796085298061371
vt 0.7958278656005859 0.5257017910480499
vt 0.8005180954933167 0.4867420792579651
vt 0.4895848333835602 0.11693495512008667
vt 0.4584890902042389 0.16610801219940186
vt 0.41843315958976746 0.1301770806312561
vt 0.4744216799736023 0.1454945206642151
vt 0.38190534710884094 0.13444221019744873
vt 0.3548416197299957 0.2108057737350464
vt 0.4388444721698761 0.0836939811706543
vt 0.8005180954933167 0.4867420792579651
vt 0.8521335124969482 0.49146509170532227
vt 0.4895848333835602 0.11693495512008667
vt 0.4388444721698761 0.0836939811706543
vt 0.8005180954933167 0.4867420792579651
vt 0.4388444721698761 0.0836939811706543
vt 0.6511591672897339 0.5389544665813446
vt 0.6849833726882935 0.5627662241458893
vt 0.6814832091331482 0.5637260377407074
vt 0.7093087434768677 0.5674338042736053
vt 0.6752002835273743 0.5471622049808502
vt 0.7179957628250122 0.5120831429958344
vt 0.6716176271438599 0.5567687451839447
vt 0.6551121473312378 0.5403800904750824
vt 0.7004784345626831 0.49469006061553955
vt 0.4895848333835602 0.11693495512008667
vt 0.4584890902042389 0.16610801219940186
vt 0.4744216799736023 0.1454945206642151
vt 0.3477252721786499 0.17229938507080078
vt 0.4213651120662689 0.10788291692733765
vt 0.3690562844276428 0.18458425998687744
vt 0.0 1.0
vt 0.7994905710220337 0.5006926953792572
vt 0.7830039858818054 0.5071875154972076
vt 0.7205603122711182 0.49422287940979004
vt 0.7213749885559082 0.48530685901641846
vt 0.7259495258331299 0.5030815601348877
vt 0.8652884364128113 0.4827013611793518
vt 0.4369588792324066 0.12179416418075562
vt 0.4388444721698761 0.0836939811706543
vt 0.0 1.0
vt 0.4369588792324066 0.12179416418075562
vt 0.0 1.0
vt 0.7259495258331299 0.5030815601348877
vt 0.6501902937889099 0.5005480051040649
vt 0.8652884364128113 0.4827013611793518
vt 0.40462666749954224 0.1687564253807068
vt 0.4369588792324066 0.12179416418075562
vt 0.40894782543182373 0.1328136920928955
vt 0.5657876133918762 0.39262205362319946
vt 0.39700502157211304 0.16063684225082397
vt 0.9272522926330566 0.5068881213665009
vt 0.4388444721698761 0.0836939811706543
vt 0.0 0.0
vt 0.0 1.0
vt 0.5248345136642456 0.10067850351333618
vt 0.5248391032218933 0.19240611791610718
vt 0.3968469798564911 0.18801599740982056
vt 0.4229283034801483 0.1144365668296814
vt 0.3540084958076477 0.12865668535232544
vt 0.42502307891845703 0.08456838130950928
vt 0.4253702163696289 0.16870427131652832
vt 0.34943974018096924 0.15771901607513428
vt 0.4694473445415497 0.09200066328048706
vt 0.47481149435043335 0.1144024133682251
vt 0.42502307891845703 0.08456838130950928
vt 0.6501902937889099 0.5005480051040649
vt 0.6501902937889099 0.5005480051040649
vt 0.3914841413497925 0.18480217456817627
vt 0.42502307891845703 0.08456838130950928
vt 0.0 1.0
vt 0.0 0.0
vt 1.0 0.0
vt 1.0 1.0
vt 0.0 0.0
vt 0.0 0.0
vt 0.3496547043323517 0.08376598358154297
vt 0.3496547043323517 0.08376598358154297
vt 0.41843315958976746 0.1301770806312561
vt 0.7467153072357178 0.47184956073760986
vt 0.3914841413497925 0.18480217456817627
vt 0.3974337875843048 0.18272745609283447
vt 0.0 1.0
vt 0.0 1.0
vt 0.0 0.0
vt 0.3690562844276428 0.18458425998687744

g Rhino8_Col_Jaw_L1
s 1
usemtl Rhino8_Col_Jaw_L1
f 1/1/1 2/2/2 3/3/3 
f 1/1/1 3/3/3 4/4/4 
f 5/5/5 4/4/4 6/6/6 
f 7/7/7 6/6/6 8/8/8 
f 7/7/7 8/8/8 9/9/9 
f 9/9/9 10/10/10 7/7/7 
f 11/11/11 12/12/12 13/13/13 
f 13/13/13 14/14/14 11/11/11 
f 14/14/14 15/15/15 11/11/11 
f 14/14/14 13/13/13 16/16/16 
f 17/17/17 15/15/15 14/14/14 
f 17/17/17 14/14/14 16/16/16 
f 18/18/18 19/19/19 20/20/20 
f 18/18/18 20/20/20 21/21/21 
f 21/21/21 22/22/22 23/23/23 
f 21/21/21 23/23/23 24/24/24 
f 25/25/25 24/24/24 26/26/26 
f 27/27/27 28/28/28 29/29/29 
f 27/27/27 29/29/29 30/30/30 
f 28/28/28 27/27/27 31/31/31 
f 28/28/28 31/31/31 32/32/32 
f 28/28/28 33/33/33 29/29/29 
f 28/28/28 34/34/34 33/33/33 
f 35/35/35 30/30/30 29/29/29 
f 35/35/35 29/29/29 36/36/36 
f 37/37/37 36/36/36 29/29/29 
f 38/38/38 33/33/33 39/39/39 
f 40/40/40 41/41/41 39/39/39 
f 40/40/40 38/38/38 41/41/41 
f 40/40/40 39/39/39 42/42/42 
f 39/39/39 43/43/43 42/42/42 
f 40/40/40 44/44/44 38/38/38 
f 45/45/45 46/46/46 36/36/36 
f 33/33/33 47/47/47 48/48/48 
f 49/49/49 50/50/50 46/46/46 
f 51/51/51 52/52/52 53/53/53 
f 51/51/51 53/53/53 54/54/54 
f 54/54/54 53/53/53 55/55/55 
f 56/56/56 57/57/57 58/58/58 
f 56/56/56 58/58/58 59/59/59 
f 60/60/60 61/61/61 62/62/62 
f 63/63/63 64/64/64 65/65/65 
f 66/66/66 63/63/63 65/65/65 
f 67/67/67 68/68/68 69/69/69 
f 67/67/67 69/69/69 70/70/70 
f 71/71/71 72/72/72 73/73/73 
f 73/73/73 74/74/74 75/75/75 
f 76/76/76 77/77/77 78/78/78 
f 79/79/79 80/80/80 78/78/78 
f 79/79/79 81/81/81 80/80/80 
f 82/82/82 80/80/80 83/83/83 
f 84/84/84 85/85/85 83/83/83 
f 84/84/84 83/83/83 86/86/86 
f 87/87/87 88/88/88 89/89/89 
f 90/90/90 91/91/91 92/92/92 
f 90/90/90 92/92/92 93/93/93 
f 94/94/94 95/95/95 96/96/96 
f 94/94/94 96/96/96 97/97/97 
f 95/95/95 98/98/98 99/99/99 
f 100/100/100 99/99/99 101/101/101 
f 102/102/102 103/103/103 104/104/104 
f 105/105/105 106/106/106 107/107/107 
f 105/105/105 107/107/107 108/108/108 
f 109/109/109 110/110/110 111/111/111 
f 112/112/112 113/113/113 114/114/114 
f 115/115/115 116/116/116 117/117/117 
f 115/115/115 118/118/118 119/119/119 
f 119/119/119 118/118/118 120/120/120 

