v 0.18654295802116394 1.22492516040802 1.1211761236190796
v 0.3392297327518463 0.5528540015220642 -1.7460951805114746
v 0.9698205590248108 0.8027600049972534 -1.1397840976715088
v 0.35075438022613525 1.3844549655914307 -0.6497617959976196
v 0.03468018025159836 0.9072759747505188 0.8927664160728455
v 0.9148632884025574 1.382312297821045 -0.612138032913208
v 0.4856274724006653 1.876901626586914 -0.14391806721687317
v 0.5475854277610779 0.31784164905548096 0.48578616976737976
v 0.15574462711811066 0.31400802731513977 0.48664590716362
v 0.4561425745487213 0.6679254174232483 0.7429550290107727
vn 0.7048690915107727 0.2957952320575714 0.644720733165741
vn -0.7545691728591919 -0.24286425113677979 -0.6096246242523193
vn 0.8886581063270569 -0.43996748328208923 -0.1292876899242401
vn -0.9476818442344666 0.28314709663391113 -0.14740054309368134
vn -0.9866114854812622 0.14586399495601654 -0.0729481428861618
vn 0.9324917197227478 0.35259151458740234 0.07834833115339279
vn -0.27656978368759155 0.940332293510437 -0.19820253551006317
vn 0.7291469573974609 -0.6774359941482544 0.09708289057016373
vn -0.6957234740257263 -0.7034552097320557 0.14532622694969177
vn 0.8410411477088928 -0.042983122169971466 0.5392606854438782
vt 0.0 1.0
vt 0.0 1.0
vt 0.0 1.0
vt 0.0 1.0
vt 0.0 1.0
vt 0.0 1.0
vt 0.0 1.0
vt 0.0 1.0
vt 0.0 1.0
vt 0.0 1.0

g Rhino8_Col_Ear_R
s 1
usemtl Rhino8_Col_Ear_R
f 5/5/5 4/4/4 2/2/2 
f 6/6/6 3/3/3 2/2/2 
f 7/7/7 5/5/5 1/1/1 
f 7/7/7 4/4/4 5/5/5 
f 7/7/7 1/1/1 6/6/6 
f 7/7/7 6/6/6 2/2/2 
f 7/7/7 2/2/2 4/4/4 
f 8/8/8 2/2/2 3/3/3 
f 8/8/8 3/3/3 6/6/6 
f 9/9/9 5/5/5 2/2/2 
f 9/9/9 2/2/2 8/8/8 
f 9/9/9 1/1/1 5/5/5 
f 10/10/10 8/8/8 6/6/6 
f 10/10/10 6/6/6 1/1/1 
f 10/10/10 9/9/9 8/8/8 
f 10/10/10 1/1/1 9/9/9 

