v 0.10847777873277664 -0.1413961797952652 2.2484240531921387
v 0.5649657845497131 -0.7000234723091125 1.3009905815124512
v 0.9296826124191284 -0.3191169798374176 -0.39545905590057373
v 0.9296826124191284 -0.3191169798374176 -0.39545905590057373
v 0.991595447063446 -0.012156066484749317 -0.7659565806388855
v 0.10847777873277664 -0.1413961797952652 2.2484240531921387
v 0.6689404249191284 1.1506768465042114 -0.24788062274456024
v 1.0085375308990479 0.2967376708984375 -0.8424760103225708
v 0.5790661573410034 0.8330276012420654 -0.4762904942035675
v -0.974105179309845 0.8330273032188416 -0.4762904942035675
v -0.974105179309845 1.3130184412002563 -0.17819686233997345
v 0.5790661573410034 0.8330276012420654 -0.4762904942035675
v 0.638140857219696 0.2866676151752472 -0.8515521287918091
v 0.5095275640487671 0.5010337829589844 0.5007432699203491
v 0.5874914526939392 -0.284197062253952 0.20803946256637573
v 0.6022998094558716 -0.307320237159729 -0.4035685360431671
v 0.638659656047821 -0.019963225349783897 -0.7775561213493347
v 0.5655175447463989 -0.6512740850448608 0.5007430911064148
v -0.97358638048172 0.5010337829589844 0.5007432699203491
v 0.5095275640487671 0.5010337829589844 0.5007432699203491
v -0.97358638048172 -0.6512740850448608 0.5007432699203491
v -0.97358638048172 0.5010337829589844 0.5007432699203491
v 0.5095275640487671 0.5010337829589844 0.5007432699203491
v 0.5655175447463989 -0.6512740850448608 0.5007430911064148
v 0.5655175447463989 -0.6512740850448608 0.5007430911064148
v -0.97358638048172 -0.6512740850448608 1.1876059770584106
v -0.40156492590904236 -0.6884794235229492 1.1876059770584106
v -0.97358638048172 -0.6512740850448608 1.1876059770584106
v -0.97358638048172 0.12916122376918793 2.1041805744171143
v -0.97358638048172 0.5010337829589844 0.5007432699203491
v -0.974105179309845 1.3130184412002563 -0.17819686233997345
v -0.974105179309845 0.8330273032188416 -0.4762904942035675
v -0.97358638048172 0.5010337829589844 0.5007432699203491
v 0.10847777873277664 -0.1413961797952652 2.2484240531921387
v 0.10847777873277664 -0.1413961797952652 2.2484240531921387
v -0.21321532130241394 -0.045976560562849045 2.2670059204101562
v 0.10847777873277664 -0.1413961797952652 2.2484240531921387
v 0.5649657845497131 -0.7000234723091125 1.3009905815124512
v 0.5807909965515137 -1.6889958381652832 0.7332534790039062
v 0.9296826124191284 -0.3191169798374176 -0.39545905590057373
v 0.3102734386920929 -1.843793272972107 1.82223379611969
v 0.25395262241363525 -1.199596643447876 2.183363914489746
v 0.9815148711204529 -0.7331762313842773 -0.40381288528442383
v 0.25395262241363525 -1.199596643447876 2.183363914489746
v 0.5649657845497131 -0.7000234723091125 1.3009905815124512
v 0.10847777873277664 -0.1413961797952652 2.2484240531921387
v 0.5807909965515137 -1.6889958381652832 0.7332534790039062
v 0.3102734386920929 -1.843793272972107 1.82223379611969
v -0.4041162133216858 -1.7069087028503418 1.3612658977508545
v 0.4141809046268463 -1.6405831575393677 0.7282662987709045
v 1.0085375308990479 0.2967376708984375 -0.8424760103225708
v 0.991595447063446 -0.012156066484749317 -0.7659565806388855
v 0.638659656047821 -0.019963225349783897 -0.7775561213493347
v 0.638140857219696 0.2866676151752472 -0.8515521287918091
v 0.4141809046268463 -1.6405831575393677 0.7282662987709045
v -0.4041162133216858 -1.7069087028503418 1.3612658977508545
v -0.40156492590904236 -0.6884794235229492 1.1876059770584106
v 0.5655175447463989 -0.6512740850448608 0.5007430911064148
v 0.5874914526939392 -0.284197062253952 0.20803946256637573
v 0.6022998094558716 -0.307320237159729 -0.4035685360431671
v 0.6091930866241455 -0.7338194251060486 -0.419839471578598
v 0.5655175447463989 -0.6512740850448608 0.5007430911064148
v 0.4141809046268463 -1.6405831575393677 0.7282662987709045
v 0.991595447063446 -0.012156066484749317 -0.7659565806388855
v 0.9296826124191284 -0.3191169798374176 -0.39545905590057373
v 0.6022998094558716 -0.307320237159729 -0.4035685360431671
v 0.638659656047821 -0.019963225349783897 -0.7775561213493347
v -0.97358638048172 0.5010337829589844 0.5007432699203491
v -0.974105179309845 0.8330273032188416 -0.4762904942035675
v 0.5790661573410034 0.8330276012420654 -0.4762904942035675
v 0.6091930866241455 -0.7338194251060486 -0.419839471578598
v 0.9815148711204529 -0.7331762313842773 -0.40381288528442383
v 0.5807909965515137 -1.6889958381652832 0.7332534790039062
v 0.4141809046268463 -1.6405831575393677 0.7282662987709045
v 0.9296826124191284 -0.3191169798374176 -0.39545905590057373
v 0.9815148711204529 -0.7331762313842773 -0.40381288528442383
v 0.6091930866241455 -0.7338194251060486 -0.419839471578598
v 0.6022998094558716 -0.307320237159729 -0.4035685360431671
v -0.97358638048172 -0.6512740850448608 1.1876059770584106
v -0.40156492590904236 -0.6884794235229492 1.1876059770584106
v -0.21321532130241394 -0.045976560562849045 2.2670059204101562
v -0.97358638048172 -0.6512740850448608 1.1876059770584106
v -0.21321532130241394 -0.045976560562849045 2.2670059204101562
v -0.97358638048172 0.12916122376918793 2.1041805744171143
v -0.4041162133216858 -1.7069087028503418 1.3612658977508545
v 0.3102734386920929 -1.843793272972107 1.82223379611969
v 0.25395262241363525 -1.199596643447876 2.183363914489746
v 0.10847777873277664 -0.1413961797952652 2.2484240531921387
v -0.40156492590904236 -0.6884794235229492 1.1876059770584106
v 0.25395262241363525 -1.199596643447876 2.183363914489746
v -0.40156492590904236 -0.6884794235229492 1.1876059770584106
v -0.4041162133216858 -1.7069087028503418 1.3612658977508545
v 0.10847777873277664 -0.1413961797952652 2.2484240531921387
v -0.21321532130241394 -0.045976560562849045 2.2670059204101562
vn 0.46335935592651367 0.7504847049713135 0.4712439179420471
vn 0.9554286599159241 0.10119292885065079 0.27733728289604187
vn 0.9610501527786255 0.1338530331850052 0.24179717898368835
vn 0.9610501527786255 0.1338530331850052 0.24179717898368835
vn 0.9573835134506226 0.14597591757774353 0.2492145299911499
vn 0.46335935592651367 0.7504847049713135 0.4712439179420471
vn 0.6533858776092529 0.6827953457832336 0.3269210755825043
vn 0.9536462426185608 0.1934809386730194 0.23048636317253113
vn -0.46856367588043213 -0.36674800515174866 -0.8037063479423523
vn -0.40125390887260437 -0.6226053833961487 -0.6718316674232483
vn -0.0940982848405838 0.9514173865318298 0.29317304491996765
vn -0.46856367588043213 -0.36674800515174866 -0.8037063479423523
vn -0.9152851700782776 0.07145862281322479 -0.39641740918159485
vn -0.2827419340610504 -0.5321639180183411 -0.7980341911315918
vn -0.9964305758476257 -0.03448310121893883 -0.07705238461494446
vn -0.9201247692108154 -0.1458001732826233 -0.36347314715385437
vn -0.7929913997650146 -0.33023664355278015 -0.5119652152061462
vn -0.4656447768211365 -0.11420132219791412 -0.8775721788406372
vn -0.6926524043083191 -0.3978194296360016 -0.6016412973403931
vn -0.2827419340610504 -0.5321639180183411 -0.7980341911315918
vn -0.5329324007034302 -0.3207540810108185 -0.7830069661140442
vn -0.6926524043083191 -0.3978194296360016 -0.6016412973403931
vn -0.2827419340610504 -0.5321639180183411 -0.7980341911315918
vn -0.4656447768211365 -0.11420132219791412 -0.8775721788406372
vn -0.4656447768211365 -0.11420132219791412 -0.8775721788406372
vn -0.9317076802253723 -0.36292606592178345 -0.01433202438056469
vn -0.4034881591796875 -0.7220916152000427 -0.5619439482688904
vn -0.9317076802253723 -0.36292606592178345 -0.01433202438056469
vn -0.06089409068226814 0.8829609751701355 0.46548011898994446
vn -0.6926524043083191 -0.3978194296360016 -0.6016412973403931
vn -0.0940982848405838 0.9514173865318298 0.29317304491996765
vn -0.40125390887260437 -0.6226053833961487 -0.6718316674232483
vn -0.6926524043083191 -0.3978194296360016 -0.6016412973403931
vn 0.46335935592651367 0.7504847049713135 0.4712439179420471
vn 0.46335935592651367 0.7504847049713135 0.4712439179420471
vn 0.1277535855770111 0.8773583173751831 0.46251630783081055
vn 0.46335935592651367 0.7504847049713135 0.4712439179420471
vn 0.9554286599159241 0.10119292885065079 0.27733728289604187
vn 0.8413269519805908 -0.5404931306838989 -0.006009720731526613
vn 0.9610501527786255 0.1338530331850052 0.24179717898368835
vn 0.8958112001419067 -0.4057430922985077 0.18136927485466003
vn 0.955998420715332 -0.04195045307278633 0.29035696387290955
vn 0.7274171710014343 -0.5031009316444397 -0.46664100885391235
vn 0.955998420715332 -0.04195045307278633 0.29035696387290955
vn 0.9554286599159241 0.10119292885065079 0.27733728289604187
vn 0.46335935592651367 0.7504847049713135 0.4712439179420471
vn 0.8413269519805908 -0.5404931306838989 -0.006009720731526613
vn 0.8958112001419067 -0.4057430922985077 0.18136927485466003
vn -0.5239121317863464 -0.432860791683197 -0.7335854768753052
vn -0.48824483156204224 -0.5489560961723328 -0.6784277558326721
vn 0.9536462426185608 0.1934809386730194 0.23048636317253113
vn 0.9573835134506226 0.14597591757774353 0.2492145299911499
vn -0.7929913997650146 -0.33023664355278015 -0.5119652152061462
vn -0.9152851700782776 0.07145862281322479 -0.39641740918159485
vn -0.48824483156204224 -0.5489560961723328 -0.6784277558326721
vn -0.5239121317863464 -0.432860791683197 -0.7335854768753052
vn -0.4034881591796875 -0.7220916152000427 -0.5619439482688904
vn -0.4656447768211365 -0.11420132219791412 -0.8775721788406372
vn -0.9964305758476257 -0.03448310121893883 -0.07705238461494446
vn -0.9201247692108154 -0.1458001732826233 -0.36347314715385437
vn -0.6999720335006714 -0.39170747995376587 -0.5971635580062866
vn -0.4656447768211365 -0.11420132219791412 -0.8775721788406372
vn -0.48824483156204224 -0.5489560961723328 -0.6784277558326721
vn 0.9573835134506226 0.14597591757774353 0.2492145299911499
vn 0.9610501527786255 0.1338530331850052 0.24179717898368835
vn -0.9201247692108154 -0.1458001732826233 -0.36347314715385437
vn -0.7929913997650146 -0.33023664355278015 -0.5119652152061462
vn -0.6926524043083191 -0.3978194296360016 -0.6016412973403931
vn -0.40125390887260437 -0.6226053833961487 -0.6718316674232483
vn -0.46856367588043213 -0.36674800515174866 -0.8037063479423523
vn -0.6999720335006714 -0.39170747995376587 -0.5971635580062866
vn 0.7274171710014343 -0.5031009316444397 -0.46664100885391235
vn 0.8413269519805908 -0.5404931306838989 -0.006009720731526613
vn -0.48824483156204224 -0.5489560961723328 -0.6784277558326721
vn 0.9610501527786255 0.1338530331850052 0.24179717898368835
vn 0.7274171710014343 -0.5031009316444397 -0.46664100885391235
vn -0.6999720335006714 -0.39170747995376587 -0.5971635580062866
vn -0.9201247692108154 -0.1458001732826233 -0.36347314715385437
vn -0.19686321914196014 -0.7894548773765564 0.5813826322555542
vn -0.19686321914196014 -0.7894548773765564 0.5813826322555542
vn -0.19686326384544373 -0.789454996585846 0.581382691860199
vn -0.19686321914196014 -0.7894548773765564 0.5813826322555542
vn -0.19686326384544373 -0.789454996585846 0.581382691860199
vn -0.19686324894428253 -0.7894548773765564 0.5813826322555542
vn -0.7610225081443787 -0.21926237642765045 0.6105479598045349
vn -0.7610225081443787 -0.21926236152648926 0.6105479001998901
vn -0.7610225081443787 -0.21926237642765045 0.6105479001998901
vn 0.0 1.0 0.0
vn -0.7610225081443787 -0.21926236152648926 0.6105479001998901
vn -0.7610225081443787 -0.21926237642765045 0.6105479001998901
vn -0.7610225081443787 -0.21926236152648926 0.6105479001998901
vn -0.7610225081443787 -0.21926237642765045 0.6105479598045349
vn 0.0 1.0 0.0
vn -0.7610225081443787 -0.21926240622997284 0.6105479598045349
vt 0.1421215832233429 0.1717628836631775
vt 0.17960286140441895 0.16051316261291504
vt 0.21063430607318878 0.19753456115722656
vt 0.21063430607318878 0.19753456115722656
vt 0.20966766774654388 0.1656380295753479
vt 0.1421215832233429 0.1717628836631775
vt 0.20115987956523895 0.15725916624069214
vt 0.20772267878055573 0.16230398416519165
vt 0.2043525129556656 0.1545090675354004
vt 0.19474776089191437 0.14471864700317383
vt 0.1943923979997635 0.14577418565750122
vt 0.2043525129556656 0.1545090675354004
vt 0.21049876511096954 0.15976279973983765
vt 0.21381808817386627 0.13995027542114258
vt 0.24048073589801788 0.1385730504989624
vt 0.22760452330112457 0.16439378261566162
vt 0.21349366009235382 0.16361647844314575
vt 0.24048073589801788 0.11378002166748047
vt 0.18405771255493164 0.13586711883544922
vt 0.21381808817386627 0.13995027542114258
vt 0.1852037012577057 0.12274801731109619
vt 0.18405771255493164 0.13586711883544922
vt 0.21381808817386627 0.13995027542114258
vt 0.24048073589801788 0.11378002166748047
vt 0.24048073589801788 0.11378002166748047
vt 0.1681385338306427 0.11313694715499878
vt 0.20489241182804108 0.09204089641571045
vt 0.1681385338306427 0.11313694715499878
vt 0.16309842467308044 0.12874531745910645
vt 0.18405771255493164 0.13586711883544922
vt 0.1943923979997635 0.14577418565750122
vt 0.19474776089191437 0.14471864700317383
vt 0.18405771255493164 0.13586711883544922
vt 0.15636476874351501 0.17429989576339722
vt 0.15636476874351501 0.17429989576339722
vt 0.15364041924476624 0.16512423753738403
vt 0.15636476874351501 0.17429989576339722
vt 0.4274497926235199 0.10737299919128418
vt 0.42638471722602844 0.15333938598632812
vt 0.453175812959671 0.12224560976028442
vt 0.388532429933548 0.1489996314048767
vt 0.3821919858455658 0.12334626913070679
vt 0.46473053097724915 0.1369326114654541
vt 0.10194443166255951 0.16247987747192383
vt 0.17960286140441895 0.16051316261291504
vt 0.11199058592319489 0.14487719535827637
vt 0.7799874544143677 0.5092160701751709
vt 0.7423543930053711 0.5054859519004822
vt 0.7352946996688843 0.5242456793785095
vt 0.7753633260726929 0.513414204120636
vt 0.7382003664970398 0.469173789024353
vt 0.7401650547981262 0.4724470376968384
vt 0.743562638759613 0.47049856185913086
vt 0.7405677437782288 0.46664488315582275
vt 0.42409348487854004 0.16057759523391724
vt 0.38100749254226685 0.1699584722518921
vt 0.4177895486354828 0.20997941493988037
vt 0.44619879126548767 0.2008616328239441
vt 0.4818078577518463 0.15969115495681763
vt 0.47667115926742554 0.14055609703063965
vt 0.4672083258628845 0.14176487922668457
vt 0.4748550057411194 0.17051881551742554
vt 0.4335905909538269 0.1592777967453003
vt 0.7569040656089783 0.5449827611446381
vt 0.757771372795105 0.5567832887172699
vt 0.7744125127792358 0.5438115894794464
vt 0.7603016495704651 0.5430342853069305
vt 0.18405771255493164 0.13586711883544922
vt 0.19474776089191437 0.14471864700317383
vt 0.2043525129556656 0.1545090675354004
vt 0.8506061434745789 0.5263152122497559
vt 0.8415488600730896 0.5237007737159729
vt 0.43087679147720337 0.15853852033615112
vt 0.4335905909538269 0.1592777967453003
vt 0.7615470886230469 0.5422375798225403
vt 0.755338191986084 0.550264835357666
vt 0.7573750019073486 0.5540264844894409
vt 0.7668142318725586 0.5534519553184509
vt 0.1681385338306427 0.11313694715499878
vt 0.20489241182804108 0.09204089641571045
vt 0.15364041924476624 0.16512423753738403
vt 0.1681385338306427 0.11313694715499878
vt 0.15364041924476624 0.16512423753738403
vt 0.16309842467308044 0.12874531745910645
vt 0.7352946996688843 0.5242456793785095
vt 0.388532429933548 0.1489996314048767
vt 0.10194443166255951 0.16247987747192383
vt 0.15636476874351501 0.17429989576339722
vt 0.4177895486354828 0.20997941493988037
vt 0.10194443166255951 0.16247987747192383
vt 0.4177895486354828 0.20997941493988037
vt 0.7352946996688843 0.5242456793785095
vt 0.15636476874351501 0.17429989576339722
vt 0.15364041924476624 0.16512423753738403

g Rhino8_Col_Nose_R
s 1
usemtl Rhino8_Col_Nose_R
f 1/1/1 2/2/2 3/3/3 
f 4/4/4 5/5/5 6/6/6 
f 5/5/5 7/7/7 6/6/6 
f 5/5/5 8/8/8 7/7/7 
f 9/9/9 7/7/7 8/8/8 
f 7/7/7 9/9/9 10/10/10 
f 7/7/7 10/10/10 11/11/11 
f 12/12/12 8/8/8 13/13/13 
f 14/14/14 9/9/9 13/13/13 
f 14/14/14 13/13/13 15/15/15 
f 16/16/16 15/15/15 13/13/13 
f 16/16/16 13/13/13 17/17/17 
f 18/18/18 14/14/14 15/15/15 
f 19/19/19 9/9/9 20/20/20 
f 20/20/20 21/21/21 22/22/22 
f 23/23/23 24/24/24 21/21/21 
f 25/25/25 26/26/26 21/21/21 
f 25/25/25 27/27/27 26/26/26 
f 21/21/21 28/28/28 29/29/29 
f 21/21/21 29/29/29 30/30/30 
f 29/29/29 31/31/31 32/32/32 
f 29/29/29 32/32/32 33/33/33 
f 31/31/31 29/29/29 34/34/34 
f 35/35/35 7/7/7 31/31/31 
f 29/29/29 36/36/36 37/37/37 
f 38/38/38 39/39/39 40/40/40 
f 41/41/41 39/39/39 38/38/38 
f 41/41/41 38/38/38 42/42/42 
f 40/40/40 39/39/39 43/43/43 
f 44/44/44 45/45/45 46/46/46 
f 47/47/47 48/48/48 49/49/49 
f 47/47/47 49/49/49 50/50/50 
f 51/51/51 52/52/52 53/53/53 
f 51/51/51 53/53/53 54/54/54 
f 55/55/55 56/56/56 57/57/57 
f 55/55/55 57/57/57 58/58/58 
f 59/59/59 60/60/60 61/61/61 
f 59/59/59 61/61/61 62/62/62 
f 61/61/61 63/63/63 62/62/62 
f 64/64/64 65/65/65 66/66/66 
f 64/64/64 66/66/66 67/67/67 
f 68/68/68 69/69/69 70/70/70 
f 71/71/71 72/72/72 73/73/73 
f 71/71/71 73/73/73 74/74/74 
f 75/75/75 76/76/76 77/77/77 
f 75/75/75 77/77/77 78/78/78 
f 79/79/79 80/80/80 81/81/81 
f 82/82/82 83/83/83 84/84/84 
f 85/85/85 86/86/86 87/87/87 
f 87/87/87 88/88/88 89/89/89 
f 90/90/90 91/91/91 92/92/92 
f 93/93/93 94/94/94 91/91/91 

