v -0.97358638048172 -2.127933979034424 3.212798595428467
v -0.9739294052124023 -4.492815971374512 2.9161343574523926
v -0.2424951046705246 -3.3784313201904297 2.6289424896240234
v -0.9751819372177124 -3.400423526763916 2.5742244720458984
v -0.97358638048172 -3.4025304317474365 3.4367573261260986
v -0.43867552280426025 -3.367854595184326 2.5764224529266357
v -0.97358638048172 -3.8366665840148926 3.4026551246643066
v -0.7272680401802063 -3.4027202129364014 3.429145336151123
v -0.7528637647628784 -4.492815971374512 2.9161343574523926
v -0.97358638048172 -3.157381534576416 2.6884429454803467
v -0.732257068157196 -3.8366665840148926 3.4026551246643066
vn -0.021457308903336525 0.9822837114334106 0.18616725504398346
vn -0.9645276069641113 -0.2343374341726303 -0.12154199928045273
vn 0.9547337889671326 0.04330196976661682 0.2942929267883301
vn -0.9149998426437378 -0.0807165652513504 -0.3952975869178772
vn -0.9400302171707153 0.02618190459907055 0.34008464217185974
vn 0.07559241354465485 0.1301882117986679 -0.988603413105011
vn -0.9227802753448486 -0.19081950187683105 0.33476048707962036
vn 0.7271869778633118 0.17641103267669678 0.6633839011192322
vn 0.6507484912872314 -0.6680237054824829 -0.36093029379844666
vn -0.023561082780361176 0.44842109084129333 -0.8935118317604065
vn 0.7414330840110779 -0.276383638381958 0.6114646196365356
vt 0.0 1.0
vt 0.0 1.0
vt 0.0 1.0
vt 0.0 1.0
vt 0.0 1.0
vt 0.0 1.0
vt 0.0 1.0
vt 0.0 1.0
vt 0.0 1.0
vt 0.0 1.0
vt 0.0 1.0

g Rhino8_Col_Nose_R
s 1
usemtl Rhino8_Col_Nose_R
f 5/5/5 1/1/1 4/4/4 
f 6/6/6 1/1/1 3/3/3 
f 7/7/7 5/5/5 4/4/4 
f 7/7/7 4/4/4 2/2/2 
f 8/8/8 3/3/3 1/1/1 
f 8/8/8 1/1/1 5/5/5 
f 9/9/9 6/6/6 3/3/3 
f 9/9/9 2/2/2 4/4/4 
f 9/9/9 4/4/4 6/6/6 
f 9/9/9 7/7/7 2/2/2 
f 10/10/10 6/6/6 4/4/4 
f 10/10/10 4/4/4 1/1/1 
f 10/10/10 1/1/1 6/6/6 
f 11/11/11 8/8/8 5/5/5 
f 11/11/11 5/5/5 7/7/7 
f 11/11/11 7/7/7 9/9/9 
f 11/11/11 9/9/9 3/3/3 
f 11/11/11 3/3/3 8/8/8 

