v 0.4307946562767029 -0.27552032470703125 0.9568488001823425
v 0.1532604992389679 -0.6187360882759094 0.11433921754360199
v 0.4812548756599426 -0.6465678215026855 0.7149926424026489
v 0.6360815167427063 -0.6118501424789429 0.11690780520439148
v 0.1495373547077179 -0.06526855379343033 0.6365905404090881
v 0.5305017232894897 -0.09060348570346832 0.5921797156333923
v 0.11030395328998566 -0.649907648563385 0.7156184911727905
v 0.10341063886880875 -0.27081573009490967 0.9671860337257385
vn 0.5074722170829773 0.39301222562789917 0.7668203115463257
vn -0.7053751349449158 -0.0716065838932991 -0.7052081227302551
vn 0.5485523343086243 -0.74125075340271 0.38683021068573
vn 0.8595008254051208 -0.1816711723804474 -0.47775915265083313
vn -0.5094510912895203 0.8424404859542847 -0.17536747455596924
vn 0.6461318135261536 0.6895434260368347 -0.327175110578537
vn -0.5768341422080994 -0.7675847411155701 0.2794209122657776
vn -0.873759388923645 -0.05845479667186737 0.48283275961875916
vt 0.0 1.0
vt 0.0 1.0
vt 0.0 1.0
vt 0.0 1.0
vt 0.0 1.0
vt 0.0 1.0
vt 0.0 1.0
vt 0.0 1.0

g Rhino8_Col_Ear_R
s 1
usemtl Rhino8_Col_Ear_R
f 3/3/3 2/2/2 4/4/4 
f 6/6/6 1/1/1 3/3/3 
f 6/6/6 3/3/3 4/4/4 
f 6/6/6 5/5/5 1/1/1 
f 6/6/6 4/4/4 2/2/2 
f 6/6/6 2/2/2 5/5/5 
f 7/7/7 2/2/2 3/3/3 
f 8/8/8 5/5/5 2/2/2 
f 8/8/8 2/2/2 7/7/7 
f 8/8/8 1/1/1 5/5/5 
f 8/8/8 7/7/7 3/3/3 
f 8/8/8 3/3/3 1/1/1 

