v -0.04009765386581421 -2.250683546066284 1.8833788633346558
v -0.9446850419044495 -0.9952636957168579 -0.6727660894393921
v 0.531445324420929 -0.9952929615974426 -0.6740942001342773
v -0.9446850419044495 -0.5543261766433716 -0.6727660894393921
v -0.9446850419044495 -1.6675585508346558 0.3543066382408142
v 0.49785155057907104 -0.5543261766433716 0.26463866233825684
v -0.9446850419044495 -0.5543261766433716 0.32372069358825684
v -0.9446850419044495 -1.385097622871399 -0.33302733302116394
v 0.6079491972923279 -1.385097622871399 -0.33302733302116394
v 0.531445324420929 -0.5543261766433716 -0.6740942001342773
v -0.4007226526737213 -0.5543261766433716 0.32372069358825684
vn 0.2557595372200012 -0.26677364110946655 0.9292033910751343
vn -0.4271853268146515 -0.34224072098731995 -0.8368895649909973
vn 0.05460245907306671 -0.3786000609397888 -0.9239484071731567
vn -0.44927316904067993 0.8112938404083252 -0.374106764793396
vn -0.6389161348342896 -0.7611178755760193 -0.11174023151397705
vn 0.56328946352005 0.7336029410362244 0.3801734447479248
vn -0.6769558191299438 0.5683916211128235 0.4676128029823303
vn -0.06495188921689987 -0.7900020480155945 -0.6096540093421936
vn 0.5599443912506104 -0.7846895456314087 -0.2659410834312439
vn 0.500281810760498 0.7904549837112427 -0.3534104824066162
vn 0.029810471460223198 0.685090959072113 0.7278472781181335
vt 0.0 1.0
vt 0.0 1.0
vt 0.0 1.0
vt 0.0 1.0
vt 0.0 1.0
vt 0.0 1.0
vt 0.0 1.0
vt 0.0 1.0
vt 0.0 1.0
vt 0.0 1.0
vt 0.0 1.0

g Rhino8_Col_Jaw_R
s 1
usemtl Rhino8_Col_Jaw_R
f 3/3/3 2/2/2 4/4/4 
f 5/5/5 4/4/4 2/2/2 
f 7/7/7 5/5/5 1/1/1 
f 7/7/7 4/4/4 5/5/5 
f 7/7/7 6/6/6 4/4/4 
f 8/8/8 5/5/5 2/2/2 
f 8/8/8 2/2/2 3/3/3 
f 9/9/9 6/6/6 1/1/1 
f 9/9/9 8/8/8 3/3/3 
f 9/9/9 1/1/1 5/5/5 
f 9/9/9 5/5/5 8/8/8 
f 10/10/10 3/3/3 4/4/4 
f 10/10/10 4/4/4 6/6/6 
f 10/10/10 9/9/9 3/3/3 
f 10/10/10 6/6/6 9/9/9 
f 11/11/11 7/7/7 1/1/1 
f 11/11/11 1/1/1 6/6/6 
f 11/11/11 6/6/6 7/7/7 

