v -0.97358638048172 1.7903319597244263 1.5435752868652344
v -0.7617114186286926 1.8042696714401245 1.5081697702407837
v -0.9357702136039734 4.106232643127441 1.4456778764724731
v -0.7617114186286926 1.8042696714401245 1.5081697702407837
v -0.97358638048172 1.7903319597244263 1.5435752868652344
v -0.97358638048172 0.9930007457733154 1.522310733795166
v -0.728106677532196 1.0033620595932007 1.4915554523468018
v -0.97358638048172 2.110978126525879 0.8908518552780151
v -0.6068456768989563 2.0770840644836426 0.9587623476982117
v -0.4153222441673279 1.4855718612670898 0.49377745389938354
v -0.97358638048172 1.523640751838684 0.4320477247238159
v -0.728106677532196 1.0033620595932007 1.4915554523468018
v -0.97358638048172 0.9930007457733154 1.522310733795166
v -0.97358638048172 0.4779032766819 1.4862874746322632
v -0.7125268578529358 0.4803851246833801 1.473666787147522
v -0.35197019577026367 0.9300851225852966 0.6358016729354858
v -0.97358638048172 0.4779032766819 1.4862874746322632
v -0.97358638048172 0.9930007457733154 1.522310733795166
v -0.97358638048172 1.1464331150054932 0.18824279308319092
v -0.97358638048172 1.523640751838684 0.4320477247238159
v -0.97358638048172 1.1464331150054932 0.18824279308319092
v -0.3010278344154358 1.088985562324524 0.24231399595737457
v -0.35197019577026367 0.9300851225852966 0.6358016729354858
v -0.44203123450279236 1.346246600151062 0.8262055516242981
v -0.35197019577026367 0.9300851225852966 0.6358016729354858
v -0.3010278344154358 1.088985562324524 0.24231399595737457
v -0.4153222441673279 1.4855718612670898 0.49377745389938354
v -0.97358638048172 1.523640751838684 0.4320477247238159
v -0.3010278344154358 1.088985562324524 0.24231399595737457
v -0.4153222441673279 1.4855718612670898 0.49377745389938354
v -0.7125268578529358 0.4803851246833801 1.473666787147522
v -0.44203123450279236 1.346246600151062 0.8262055516242981
v -0.728106677532196 1.0033620595932007 1.4915554523468018
v -0.6068456768989563 2.0770840644836426 0.9587623476982117
v -0.5992102026939392 1.9780782461166382 1.1411045789718628
v -0.44203123450279236 1.346246600151062 0.8262055516242981
v -0.4153222441673279 1.4855718612670898 0.49377745389938354
v -0.97358638048172 1.523640751838684 0.4320477247238159
v -0.97358638048172 0.9930007457733154 1.522310733795166
v -0.97358638048172 1.7903319597244263 1.5435752868652344
v -0.97358638048172 2.110978126525879 0.8908518552780151
v -0.97358638048172 1.7903319597244263 1.5435752868652344
v -0.9357702136039734 4.106232643127441 1.4456778764724731
v -0.97358638048172 2.110978126525879 0.8908518552780151
v -0.6068456768989563 2.0770840644836426 0.9587623476982117
v -0.9357702136039734 4.106232643127441 1.4456778764724731
v -0.7617114186286926 1.8042696714401245 1.5081697702407837
v -0.5992102026939392 1.9780782461166382 1.1411045789718628
v -0.9357702136039734 4.106232643127441 1.4456778764724731
v -0.6068456768989563 2.0770840644836426 0.9587623476982117
v -0.9357702136039734 4.106232643127441 1.4456778764724731
v -0.44203123450279236 1.346246600151062 0.8262055516242981
v -0.5992102026939392 1.9780782461166382 1.1411045789718628
v -0.7617114186286926 1.8042696714401245 1.5081697702407837
v -0.728106677532196 1.0033620595932007 1.4915554523468018
vn -0.9529289603233337 0.009730169549584389 0.3030373752117157
vn 0.7402172088623047 0.040394674986600876 0.6711533069610596
vn -0.9637005925178528 0.2663731575012207 -0.0180718582123518
vn 0.7402172088623047 0.040394674986600876 0.6711533069610596
vn -0.9529289603233337 0.009730169549584389 0.3030373752117157
vn -0.9697660207748413 -0.008173336274921894 0.2438996285200119
vn 0.7822423577308655 0.005702340509742498 0.622948169708252
vn -0.8991772532463074 0.205630362033844 -0.3862593472003937
vn 0.6390613913536072 0.4475129544734955 -0.6255658268928528
vn 0.592193067073822 0.5622389912605286 -0.5772301554679871
vn -0.8843730092048645 0.2786068022251129 -0.37451648712158203
vn 0.7822423577308655 0.005702340509742498 0.622948169708252
vn -0.9697660207748413 -0.008173336274921894 0.2438996285200119
vn -0.5614926218986511 -0.795691192150116 -0.22715987265110016
vn 0.3426595628261566 -0.9243597388267517 -0.1677604615688324
vn 0.4334765672683716 -0.8543766140937805 -0.2865983843803406
vn -0.5614926218986511 -0.795691192150116 -0.22715987265110016
vn -0.9697660207748413 -0.008173336274921894 0.2438996285200119
vn -0.615383505821228 -0.4994351863861084 -0.6098095178604126
vn -0.8843730092048645 0.2786068022251129 -0.37451648712158203
vn -0.615383505821228 -0.4994351863861084 -0.6098095178604126
vn 0.26122134923934937 -0.6810805797576904 -0.6840268969535828
vn 0.4334765672683716 -0.8543766140937805 -0.2865983843803406
vn 0.9424214363098145 0.07043835520744324 0.3269254267215729
vn 0.4334765672683716 -0.8543766140937805 -0.2865983843803406
vn 0.26122134923934937 -0.6810805797576904 -0.6840268969535828
vn 0.592193067073822 0.5622389912605286 -0.5772301554679871
vn -0.8843730092048645 0.2786068022251129 -0.37451648712158203
vn 0.26122134923934937 -0.6810805797576904 -0.6840268969535828
vn 0.592193067073822 0.5622389912605286 -0.5772301554679871
vn 0.3426595628261566 -0.9243597388267517 -0.1677604615688324
vn 0.9424214363098145 0.07043835520744324 0.3269254267215729
vn 0.7822423577308655 0.005702340509742498 0.622948169708252
vn 0.6390613913536072 0.4475129544734955 -0.6255658268928528
vn 0.9374818205833435 0.08893918246030807 0.33647823333740234
vn 0.9424214363098145 0.07043835520744324 0.3269254267215729
vn 0.592193067073822 0.5622389912605286 -0.5772301554679871
vn -0.8843730092048645 0.2786068022251129 -0.37451648712158203
vn -0.9697660207748413 -0.008173336274921894 0.2438996285200119
vn -0.9529289603233337 0.009730169549584389 0.3030373752117157
vn -0.8991772532463074 0.205630362033844 -0.3862593472003937
vn -0.9529289603233337 0.009730169549584389 0.3030373752117157
vn -0.9637005925178528 0.2663731575012207 -0.0180718582123518
vn -0.8991772532463074 0.205630362033844 -0.3862593472003937
vn 0.6390613913536072 0.4475129544734955 -0.6255658268928528
vn -0.9637005925178528 0.2663731575012207 -0.0180718582123518
vn 0.7402172088623047 0.040394674986600876 0.6711533069610596
vn 0.9374818205833435 0.08893918246030807 0.33647823333740234
vn -0.9637005925178528 0.2663731575012207 -0.0180718582123518
vn 0.6390613913536072 0.4475129544734955 -0.6255658268928528
vn -0.9637005925178528 0.2663731575012207 -0.0180718582123518
vn 0.9424214363098145 0.07043835520744324 0.3269254267215729
vn 0.9374818205833435 0.08893918246030807 0.33647823333740234
vn 0.7402172088623047 0.040394674986600876 0.6711533069610596
vn 0.7822423577308655 0.005702340509742498 0.622948169708252
vt 0.06176767125725746 0.35266852378845215
vt 0.06768161058425903 0.3606719374656677
vt 0.14485882222652435 0.2929854989051819
vt 0.0971851721405983 0.35152506828308105
vt 0.09114501625299454 0.34335070848464966
vt 0.06768938899040222 0.36068254709243774
vt 0.0742335319519043 0.36953890323638916
vt 0.433071494102478 0.12813520431518555
vt 0.4490395784378052 0.13088655471801758
vt 0.4745757579803467 0.11128795146942139
vt 0.42551589012145996 0.09048652648925781
vt 0.09655383229255676 0.36701321601867676
vt 0.08988592773675919 0.3579893708229065
vt 0.07424133270978928 0.3695494532585144
vt 0.0812322273850441 0.3790104389190674
vt 0.5039963722229004 0.15313613414764404
vt 0.33398956060409546 0.1610080599784851
vt 0.37181395292282104 0.14790838956832886
vt 0.45042017102241516 0.05933499336242676
vt 0.4330214560031891 0.11062979698181152
vt 0.45628345012664795 0.09211134910583496
vt 0.47665292024612427 0.1425091028213501
vt 0.5039963722229004 0.15313613414764404
vt 0.4375653862953186 0.15615379810333252
vt 0.45590975880622864 0.18391293287277222
vt 0.47665292024612427 0.1425091028213501
vt 0.4511792063713074 0.14591646194458008
vt 0.4394057095050812 0.10913598537445068
vt 0.4776299297809601 0.13517874479293823
vt 0.4560244679450989 0.13430780172348022
vt 0.36170464754104614 0.16642296314239502
vt 0.4971367120742798 0.09634935855865479
vt 0.38482561707496643 0.10394811630249023
vt 0.4538871645927429 0.1383623480796814
vt 0.4521964490413666 0.14505451917648315
vt 0.49178847670555115 0.14967823028564453
vt 0.48330986499786377 0.12379777431488037
vt 0.4115701913833618 0.07663112878799438
vt 0.41157013177871704 0.21036583185195923
vt 0.42390167713165283 0.16538792848587036
vt 0.4313231110572815 0.13175225257873535
vt 0.3940609097480774 0.12872803211212158
vt 0.43810558319091797 0.1066407561302185
vt 0.4215694069862366 0.11281764507293701
vt 0.4210890531539917 0.11041688919067383
vt 0.43739053606987 0.1060836911201477
vt 0.3947625756263733 0.10830390453338623
vt 0.4181375503540039 0.10825806856155396
vt 0.4328492283821106 0.10561072826385498
vt 0.4203169345855713 0.10933887958526611
vt 0.4376342296600342 0.10509765148162842
vt 0.47670626640319824 0.1725427508354187
vt 0.45281440019607544 0.11374187469482422
vt 0.38008996844291687 0.0930103063583374
vt 0.35819295048713684 0.1931341290473938

g Rhino8_Col_Nose_R2
s 1
usemtl Rhino8_Col_Nose_R2
f 1/1/1 2/2/2 3/3/3 
f 4/4/4 5/5/5 6/6/6 
f 4/4/4 6/6/6 7/7/7 
f 8/8/8 9/9/9 10/10/10 
f 8/8/8 10/10/10 11/11/11 
f 12/12/12 13/13/13 14/14/14 
f 12/12/12 14/14/14 15/15/15 
f 16/16/16 15/15/15 17/17/17 
f 18/18/18 19/19/19 17/17/17 
f 18/18/18 20/20/20 19/19/19 
f 17/17/17 21/21/21 22/22/22 
f 22/22/22 23/23/23 17/17/17 
f 22/22/22 24/24/24 25/25/25 
f 26/26/26 27/27/27 24/24/24 
f 28/28/28 29/29/29 21/21/21 
f 28/28/28 30/30/30 29/29/29 
f 31/31/31 23/23/23 32/32/32 
f 31/31/31 32/32/32 33/33/33 
f 34/34/34 35/35/35 36/36/36 
f 34/34/34 36/36/36 37/37/37 
f 38/38/38 39/39/39 40/40/40 
f 38/38/38 40/40/40 41/41/41 
f 42/42/42 43/43/43 44/44/44 
f 45/45/45 44/44/44 46/46/46 
f 47/47/47 48/48/48 49/49/49 
f 48/48/48 50/50/50 51/51/51 
f 52/52/52 53/53/53 54/54/54 
f 52/52/52 54/54/54 55/55/55 

