v 0.6360815167427063 -0.6118501424789429 0.11690780520439148
v 0.3552832007408142 -1.139912486076355 -2.317095994949341
v 0.030601806938648224 -1.2912412881851196 -0.8399906158447266
v 0.5681042075157166 -1.1399121284484863 -2.317095994949341
v 1.029218077659607 -0.730621874332428 -1.5697890520095825
v 0.7115697860717773 -1.2920984029769897 -0.8552153706550598
v 0.1532604992389679 -0.6187360882759094 0.11433921754360199
v 0.3380364775657654 -0.6502709984779358 -1.1007009744644165
vn 0.7462126016616821 0.1284252107143402 0.653202474117279
vn -0.8217652440071106 0.0387151725590229 -0.5685095191001892
vn -0.7508873343467712 -0.6366254687309265 0.17571602761745453
vn 0.6834045052528381 -0.6900203227996826 -0.23839102685451508
vn 0.8152095079421997 0.5547838807106018 -0.16627806425094604
vn 0.5256931781768799 -0.8395223021507263 0.13729138672351837
vn -0.8517397046089172 0.48707765340805054 0.19311852753162384
vn -0.48397883772850037 0.853903591632843 -0.19134551286697388
vt 0.0 1.0
vt 0.0 1.0
vt 0.0 1.0
vt 0.0 1.0
vt 0.0 1.0
vt 0.0 1.0
vt 0.0 1.0
vt 0.0 1.0

g Rhino8_Col_Ear_R
s 1
usemtl Rhino8_Col_Ear_R
f 5/5/5 4/4/4 2/2/2 
f 6/6/6 3/3/3 2/2/2 
f 6/6/6 2/2/2 4/4/4 
f 6/6/6 4/4/4 5/5/5 
f 6/6/6 5/5/5 1/1/1 
f 6/6/6 1/1/1 3/3/3 
f 7/7/7 3/3/3 1/1/1 
f 8/8/8 2/2/2 3/3/3 
f 8/8/8 3/3/3 7/7/7 
f 8/8/8 5/5/5 2/2/2 
f 8/8/8 7/7/7 1/1/1 
f 8/8/8 1/1/1 5/5/5 

