v -0.7617114186286926 1.8042696714401245 1.5081696510314941
v -0.97358638048172 1.1464331150054932 0.18824279308319092
v -0.3010278344154358 1.088985562324524 0.24231398105621338
v -0.97358638048172 1.523640751838684 0.4320477247238159
v -0.97358638048172 0.47790324687957764 1.4862874746322632
v -0.6068456768989563 2.0770840644836426 0.9587623476982117
v -0.97358638048172 1.7903319597244263 1.5435752868652344
v -0.712526798248291 0.4803851544857025 1.473666787147522
v -0.44203123450279236 1.346246600151062 0.8262055516242981
v -0.4153222441673279 1.4855718612670898 0.49377745389938354
v -0.97358638048172 2.110978126525879 0.8908518552780151
v -0.97358638048172 0.9930008053779602 1.522310733795166
v -0.728106677532196 1.0033620595932007 1.4915553331375122
v -0.5992102026939392 1.9780782461166382 1.1411045789718628
v -0.35197019577026367 0.9300851225852966 0.6358016729354858
vn 0.6312533020973206 0.28636524081230164 0.720773458480835
vn -0.549386203289032 -0.5932234525680542 -0.5884391665458679
vn 0.4550660252571106 -0.5829203724861145 -0.6731410026550293
vn -0.9312738180160522 0.2110404372215271 -0.29696959257125854
vn -0.8577727675437927 -0.47814714908599854 -0.18868306279182434
vn 0.33748748898506165 0.9412932991981506 -0.008313174359500408
vn -0.9496365785598755 0.1681169718503952 0.26443710923194885
vn 0.7134770154953003 -0.5926019549369812 0.3738628923892975
vn 0.9428690671920776 0.06487558037042618 0.3267858028411865
vn 0.4037523865699768 0.6127703189849854 -0.679335355758667
vn -0.4657864272594452 0.7522130012512207 -0.46606719493865967
vn 0.06484343111515045 -0.04028904065489769 0.9970818161964417
vn 0.8117890954017639 0.011923376470804214 0.5838289260864258
vn 0.9425588846206665 0.11418552696704865 0.31391775608062744
vn 0.9458965063095093 -0.056590963155031204 0.31949540972709656
vt 0.0 1.0
vt 0.0 1.0
vt 0.0 1.0
vt 0.0 1.0
vt 0.0 1.0
vt 0.0 1.0
vt 0.0 1.0
vt 0.0 1.0
vt 0.0 1.0
vt 0.0 1.0
vt 0.0 1.0
vt 0.0 1.0
vt 0.0 1.0
vt 0.0 1.0
vt 0.0 1.0

g Rhino8_Col_Nose_R
s 1
usemtl Rhino8_Col_Nose_R
f 3/3/3 2/2/2 4/4/4 
f 5/5/5 4/4/4 2/2/2 
f 5/5/5 2/2/2 3/3/3 
f 7/7/7 4/4/4 5/5/5 
f 7/7/7 1/1/1 6/6/6 
f 8/8/8 5/5/5 3/3/3 
f 10/10/10 3/3/3 4/4/4 
f 11/11/11 7/7/7 6/6/6 
f 11/11/11 4/4/4 7/7/7 
f 11/11/11 10/10/10 4/4/4 
f 11/11/11 6/6/6 10/10/10 
f 12/12/12 7/7/7 5/5/5 
f 12/12/12 5/5/5 8/8/8 
f 13/13/13 1/1/1 7/7/7 
f 13/13/13 12/12/12 8/8/8 
f 13/13/13 7/7/7 12/12/12 
f 14/14/14 6/6/6 1/1/1 
f 14/14/14 13/13/13 9/9/9 
f 14/14/14 1/1/1 13/13/13 
f 14/14/14 10/10/10 6/6/6 
f 14/14/14 9/9/9 3/3/3 
f 14/14/14 3/3/3 10/10/10 
f 15/15/15 8/8/8 3/3/3 
f 15/15/15 3/3/3 9/9/9 
f 15/15/15 13/13/13 8/8/8 
f 15/15/15 9/9/9 13/13/13 

