v 1.3540087938308716 0.7717497944831848 -0.5770745873451233
v 1.011661410331726 -0.7845930457115173 -1.0390387773513794
v 1.6570935249328613 0.3510296642780304 -0.7616198658943176
v 1.2953698635101318 0.6198446750640869 -1.4147847890853882
v 1.0054748058319092 0.4600025713443756 -0.5716781616210938
v 1.6716649532318115 0.557891845703125 -1.4147924184799194
v 1.3415722846984863 -0.9157966375350952 -0.46259549260139465
v 0.989837646484375 -0.9324946403503418 -0.571683943271637
v 1.342989444732666 -0.7677122354507446 -1.0436630249023438
vn 0.3000986874103546 0.6024006605148315 0.739631175994873
vn -0.778109073638916 -0.12166471779346466 -0.6162336468696594
vn 0.9363227486610413 0.016892632469534874 0.3507339358329773
vn -0.7582346796989441 0.33314263820648193 -0.5604428648948669
vn -0.9402275085449219 0.20007577538490295 0.27557557821273804
vn 0.8613315224647522 -0.06829679757356644 -0.5034316778182983
vn 0.7394819855690002 -0.22904136776924133 0.6330138444900513
vn -0.837167501449585 -0.3810064196586609 0.392408549785614
vn 0.6445711851119995 -0.5779882669448853 -0.5004571676254272
vt 0.0 1.0
vt 0.0 1.0
vt 0.0 1.0
vt 0.0 1.0
vt 0.0 1.0
vt 0.0 1.0
vt 0.0 1.0
vt 0.0 1.0
vt 0.0 1.0

g Sabre_Jaw_R_Col
s 1
usemtl Sabre_Jaw_R_Col
f 5/5/5 1/1/1 4/4/4 
f 5/5/5 4/4/4 2/2/2 
f 6/6/6 2/2/2 4/4/4 
f 6/6/6 1/1/1 3/3/3 
f 6/6/6 4/4/4 1/1/1 
f 7/7/7 3/3/3 1/1/1 
f 7/7/7 1/1/1 5/5/5 
f 7/7/7 6/6/6 3/3/3 
f 8/8/8 7/7/7 5/5/5 
f 8/8/8 5/5/5 2/2/2 
f 9/9/9 2/2/2 6/6/6 
f 9/9/9 6/6/6 7/7/7 
f 9/9/9 8/8/8 2/2/2 
f 9/9/9 7/7/7 8/8/8 

