v 0.04041503742337227 -1.7084749937057495 3.313035488128662
v -0.5491992235183716 -2.881110191345215 2.6474335193634033
v 0.30088621377944946 -1.813975214958191 2.4945709705352783
v -0.5845361351966858 -1.856801986694336 2.5055530071258545
v -0.30478635430336 -1.7847524881362915 3.400623321533203
v 0.061387937515974045 -2.8625879287719727 3.314727544784546
v 0.3111010491847992 -2.881110191345215 2.6474335193634033
v -0.276679664850235 -2.8625879287719727 3.314727544784546
vn 0.760142982006073 0.5161672234535217 0.39465686678886414
vn -0.709743857383728 -0.4694524109363556 -0.5252408981323242
vn 0.43984323740005493 0.26576751470565796 -0.8578493595123291
vn -0.6602267026901245 0.5933442711830139 -0.4604814946651459
vn -0.7628642320632935 0.12857851386070251 0.6336448192596436
vn 0.5431492924690247 -0.5062018036842346 0.6698870658874512
vn 0.9161513447761536 -0.3549267053604126 -0.18626201152801514
vn -0.7019596099853516 -0.2903069853782654 0.6503649353981018
vt 0.0 1.0
vt 0.0 1.0
vt 0.0 1.0
vt 0.0 1.0
vt 0.0 1.0
vt 0.0 1.0
vt 0.0 1.0
vt 0.0 1.0

g Sabre_Face_R_Col
s 1
usemtl Sabre_Face_R_Col
f 1/1/1 3/3/3 4/4/4 
f 3/3/3 2/2/2 4/4/4 
f 5/5/5 1/1/1 4/4/4 
f 5/5/5 4/4/4 2/2/2 
f 6/6/6 1/1/1 5/5/5 
f 7/7/7 6/6/6 2/2/2 
f 7/7/7 2/2/2 3/3/3 
f 7/7/7 3/3/3 1/1/1 
f 7/7/7 1/1/1 6/6/6 
f 8/8/8 6/6/6 5/5/5 
f 8/8/8 5/5/5 2/2/2 
f 8/8/8 2/2/2 6/6/6 

