v 1.3540087938308716 0.7717497944831848 -0.5770745873451233
v 1.2953698635101318 0.6198446750640869 -1.4147847890853882
v 1.6716649532318115 0.557891845703125 -1.4147924184799194
v 1.0901000499725342 1.1125658750534058 -1.2280962467193604
v 0.8252087235450745 0.7717432379722595 -0.571683943271637
v 1.3540087938308716 1.1125658750534058 -1.2280962467193604
v 1.0054748058319092 0.4600025713443756 -0.5716781616210938
vn 0.7128621339797974 0.2702324390411377 0.6471491456031799
vn -0.6357170939445496 -0.4004639685153961 -0.6599185466766357
vn 0.8902001976966858 -0.45512083172798157 0.02021557278931141
vn -0.8132590055465698 0.2883021831512451 -0.5054620504379272
vn -0.9049481749534607 0.3936825692653656 0.16150178015232086
vn 0.45991575717926025 0.8857737183570862 0.06230875477194786
vn -0.06605161726474762 -0.9809828996658325 0.18250884115695953
vt 0.0 1.0
vt 0.0 1.0
vt 0.0 1.0
vt 0.0 1.0
vt 0.0 1.0
vt 0.0 1.0
vt 0.0 1.0

g Sabre_Jaw_R_Col
s 1
usemtl Sabre_Jaw_R_Col
f 5/5/5 4/4/4 2/2/2 
f 6/6/6 3/3/3 2/2/2 
f 6/6/6 2/2/2 4/4/4 
f 6/6/6 1/1/1 3/3/3 
f 6/6/6 5/5/5 1/1/1 
f 6/6/6 4/4/4 5/5/5 
f 7/7/7 5/5/5 2/2/2 
f 7/7/7 2/2/2 3/3/3 
f 7/7/7 3/3/3 1/1/1 
f 7/7/7 1/1/1 5/5/5 

