v -0.55934077501297 -1.1048415899276733 3.60862135887146
v -0.5553125143051147 -1.3873562812805176 2.8557162284851074
v -0.5553125143051147 -0.4025411903858185 2.8916001319885254
v -0.9409387111663818 -0.4025411903858185 2.891599655151367
v -0.9409387111663818 -1.823992133140564 3.53592586517334
v -0.9409387111663818 -1.1152784824371338 3.6490092277526855
v -0.5553125143051147 -1.387354850769043 3.1989974975585938
v -0.9409387111663818 -1.387354850769043 3.1989972591400146
v -0.5626256465911865 -1.8071650266647339 3.505486488342285
v -0.5553125143051147 -0.999579131603241 3.198993682861328
vn 0.7543795108795166 0.2590027153491974 0.6031824946403503
vn -0.006409005727618933 -0.4059865474700928 -0.9138565063476562
vn 0.7527629137039185 0.6330921053886414 0.18039512634277344
vn -0.9116911888122559 0.1481534093618393 -0.3832359313964844
vn -0.9126505851745605 -0.4047399163246155 -0.057047467678785324
vn -0.4177694618701935 0.3714042901992798 0.8291727900505066
vn 0.9999775886535645 -0.0041926526464521885 0.005221093073487282
vn -0.7515007853507996 -0.27237263321876526 -0.6008824706077576
vn 0.6679365634918213 -0.48892858624458313 0.5610789060592651
vn 0.9999641180038452 0.0025257314555346966 0.008091723546385765
vt 0.0 1.0
vt 0.0 1.0
vt 0.0 1.0
vt 0.0 1.0
vt 0.0 1.0
vt 0.0 1.0
vt 0.0 1.0
vt 0.0 1.0
vt 0.0 1.0
vt 0.0 1.0

g Sabre_Face_R_Col
s 1
usemtl Sabre_Face_R_Col
f 3/3/3 2/2/2 4/4/4 
f 6/6/6 1/1/1 3/3/3 
f 6/6/6 3/3/3 4/4/4 
f 6/6/6 4/4/4 5/5/5 
f 7/7/7 2/2/2 3/3/3 
f 8/8/8 5/5/5 4/4/4 
f 8/8/8 4/4/4 2/2/2 
f 8/8/8 2/2/2 5/5/5 
f 9/9/9 6/6/6 5/5/5 
f 9/9/9 1/1/1 6/6/6 
f 9/9/9 7/7/7 1/1/1 
f 9/9/9 5/5/5 2/2/2 
f 9/9/9 2/2/2 7/7/7 
f 10/10/10 7/7/7 3/3/3 
f 10/10/10 3/3/3 1/1/1 
f 10/10/10 1/1/1 7/7/7 

