v -0.10972045361995697 -1.3648889064788818 2.4136857986450195
v -1.4409387111663818 -2.1106462478637695 1.6078543663024902
v 0.20159058272838593 -1.5405514240264893 1.5663607120513916
v -1.4560766220092773 -1.5405514240264893 1.5663607120513916
v -1.4409375190734863 -1.7295749187469482 2.4937968254089355
v -0.2519274950027466 -1.7466932535171509 2.4916443824768066
vn 0.006038046907633543 0.9776914119720459 0.20995980501174927
vn -0.006038045510649681 -0.9776914119720459 -0.20995980501174927
vn 0.58040452003479 -0.17721779644489288 -0.7948110103607178
vn -0.2946516275405884 0.8931475877761841 -0.3398052752017975
vn -0.58040452003479 0.1772177815437317 0.794810950756073
vn 0.294651597738266 -0.8931475877761841 0.3398052752017975
vt 0.0 1.0
vt 0.0 1.0
vt 0.0 1.0
vt 0.0 1.0
vt 0.0 1.0
vt 0.0 1.0

g Sabre_Jaw_R_Col
s 1
usemtl Sabre_Jaw_R_Col
f 1/1/1 3/3/3 4/4/4 
f 3/3/3 2/2/2 4/4/4 
f 5/5/5 1/1/1 4/4/4 
f 5/5/5 4/4/4 2/2/2 
f 6/6/6 2/2/2 3/3/3 
f 6/6/6 3/3/3 1/1/1 
f 6/6/6 5/5/5 2/2/2 
f 6/6/6 1/1/1 5/5/5 

