v -0.10972045361995697 -1.3648889064788818 2.4136857986450195
v -1.4409375190734863 -1.2733081579208374 2.040390968322754
v 0.20159058272838593 -1.5405514240264893 1.5663607120513916
v -1.4409375190734863 -1.0811148881912231 2.156308889389038
v -1.4409375190734863 -1.7295749187469482 2.4937968254089355
v -0.1972363293170929 -1.0701813697814941 2.1760034561157227
v -1.4409375190734863 -1.3653194904327393 2.4134278297424316
vn 0.400478720664978 -0.3465430736541748 0.8482480049133301
vn -0.408646821975708 -0.4213569760322571 -0.8096086382865906
vn 0.15096808969974518 -0.5109814405441284 -0.8462308645248413
vn -0.19524553418159485 0.9002725481987 -0.38908669352531433
vn -0.12823915481567383 -0.9906220436096191 0.04714610055088997
vn 0.17914550006389618 0.9729123115539551 0.14611145853996277
vn -0.055234163999557495 0.516116738319397 0.8547354936599731
vt 0.0 1.0
vt 0.0 1.0
vt 0.0 1.0
vt 0.0 1.0
vt 0.0 1.0
vt 0.0 1.0
vt 0.0 1.0

g Sabre_Jaw_R_Col
s 1
usemtl Sabre_Jaw_R_Col
f 3/3/3 2/2/2 4/4/4 
f 5/5/5 4/4/4 2/2/2 
f 5/5/5 2/2/2 3/3/3 
f 5/5/5 3/3/3 1/1/1 
f 6/6/6 1/1/1 3/3/3 
f 6/6/6 3/3/3 4/4/4 
f 7/7/7 5/5/5 1/1/1 
f 7/7/7 4/4/4 5/5/5 
f 7/7/7 6/6/6 4/4/4 
f 7/7/7 1/1/1 6/6/6 

