v 0.23848876357078552 1.644411563873291 0.448415607213974
v 0.4501611590385437 1.167860746383667 -1.1688854694366455
v 0.8338891267776489 2.493152618408203 -0.628407895565033
v 0.29783567786216736 2.4878149032592773 -0.655033528804779
v -0.3704308867454529 0.5267156958580017 -0.467399001121521
v 0.9889209270477295 1.1678216457366943 -1.1688848733901978
v 0.29783567786216736 2.625213623046875 -0.3892645239830017
v -0.3704308867454529 1.2407588958740234 -0.4674017131328583
v 0.7733203172683716 1.2599536180496216 0.022121276706457138
v 0.4949938952922821 2.6029345989227295 -0.42197296023368835
v -0.3578161895275116 1.8151905536651611 -0.21445678174495697
v -0.11045531928539276 1.815205693244934 0.4687165915966034
vn 0.4078966975212097 -0.07263869792222977 0.9101340174674988
vn -0.4544951617717743 0.06991191953420639 -0.8880013823509216
vn 0.908666729927063 0.3789059519767761 0.17537133395671844
vn -0.41508379578590393 0.37602174282073975 -0.8284401297569275
vn -0.23026905953884125 -0.9239269495010376 0.3055081367492676
vn 0.8107231259346008 -0.4095155596733093 -0.4183599054813385
vn -0.5924087166786194 0.7910966277122498 0.15237416326999664
vn -0.6927673816680908 0.16898998618125916 -0.7010818719863892
vn 0.7645775675773621 -0.42886078357696533 0.481143981218338
vn 0.40553101897239685 0.5793346762657166 0.7070474624633789
vn -0.9452595114707947 0.32502812147140503 0.029002396389842033
vn -0.6325405240058899 0.2614942789077759 0.7290494441986084
vt 0.0 1.0
vt 0.0 1.0
vt 0.0 1.0
vt 0.0 1.0
vt 0.0 1.0
vt 0.0 1.0
vt 0.0 1.0
vt 0.0 1.0
vt 0.0 1.0
vt 0.0 1.0
vt 0.0 1.0
vt 0.0 1.0

g Sabre_Ear_R_Col
s 1
usemtl Sabre_Ear_R_Col
f 6/6/6 2/2/2 4/4/4 
f 6/6/6 4/4/4 3/3/3 
f 6/6/6 5/5/5 2/2/2 
f 7/7/7 3/3/3 4/4/4 
f 8/8/8 4/4/4 2/2/2 
f 8/8/8 2/2/2 5/5/5 
f 9/9/9 6/6/6 3/3/3 
f 9/9/9 3/3/3 1/1/1 
f 9/9/9 1/1/1 5/5/5 
f 9/9/9 5/5/5 6/6/6 
f 10/10/10 1/1/1 3/3/3 
f 10/10/10 3/3/3 7/7/7 
f 11/11/11 7/7/7 4/4/4 
f 11/11/11 4/4/4 8/8/8 
f 11/11/11 8/8/8 5/5/5 
f 12/12/12 10/10/10 7/7/7 
f 12/12/12 1/1/1 10/10/10 
f 12/12/12 7/7/7 11/11/11 
f 12/12/12 11/11/11 5/5/5 
f 12/12/12 5/5/5 1/1/1 

