v -0.5719567537307739 -2.3812649250030518 2.976109743118286
v -1.4409387111663818 -2.1106462478637695 1.6078543663024902
v -0.2519274950027466 -1.7466932535171509 2.4916443824768066
v -1.4409375190734863 -1.7295749187469482 2.4937968254089355
v -1.4409375190734863 -3.0876383781433105 3.407660961151123
v -0.5821496248245239 -2.9863762855529785 2.497344970703125
v -1.4409375190734863 -2.3871607780456543 2.9787559509277344
v -1.4409375190734863 -2.9990930557250977 2.4917314052581787
v -1.1048266887664795 -3.086350679397583 3.3968210220336914
vn 0.3844550848007202 0.34724491834640503 0.8553451895713806
vn -0.42779287695884705 -0.0015100969467312098 -0.9038755297660828
vn 0.7635542750358582 0.5206677317619324 -0.3819553256034851
vn -0.31662604212760925 0.8719042539596558 0.37353840470314026
vn -0.881906270980835 0.11257899552583694 0.45778536796569824
vn 0.6349605321884155 -0.6173000931739807 -0.46450576186180115
vn -0.7495854496955872 0.36953309178352356 0.5491510629653931
vn -0.3277314603328705 -0.8539533615112305 -0.40417277812957764
vn 0.4295169413089752 -0.8478577136993408 0.31088992953300476
vt 0.0 1.0
vt 0.0 1.0
vt 0.0 1.0
vt 0.0 1.0
vt 0.0 1.0
vt 0.0 1.0
vt 0.0 1.0
vt 0.0 1.0
vt 0.0 1.0

g Sabre_Jaw_R_Col
s 1
usemtl Sabre_Jaw_R_Col
f 1/1/1 3/3/3 4/4/4 
f 3/3/3 2/2/2 4/4/4 
f 6/6/6 2/2/2 3/3/3 
f 6/6/6 3/3/3 1/1/1 
f 7/7/7 5/5/5 1/1/1 
f 7/7/7 1/1/1 4/4/4 
f 7/7/7 4/4/4 2/2/2 
f 7/7/7 2/2/2 5/5/5 
f 8/8/8 5/5/5 2/2/2 
f 8/8/8 2/2/2 6/6/6 
f 9/9/9 6/6/6 1/1/1 
f 9/9/9 1/1/1 5/5/5 
f 9/9/9 8/8/8 6/6/6 
f 9/9/9 5/5/5 8/8/8 

