v -0.5396252274513245 1.865419864654541 1.1817423105239868
v -0.49928218126296997 3.3645994663238525 -0.9340017437934875
v 0.35877805948257446 1.6456860303878784 0.5419279336929321
v -0.49928218126296997 3.3864262104034424 -0.8997530937194824
v -0.9409387111663818 2.7669854164123535 -0.3040756285190582
v -0.04897826910018921 2.7071127891540527 -0.24907220900058746
v -0.9409387111663818 2.66546893119812 0.22780069708824158
v -0.34534788131713867 1.7088263034820557 0.49324363470077515
v -0.4166845381259918 3.330336570739746 -0.9057651162147522
v -0.5372766256332397 2.5872185230255127 0.32590317726135254
v -0.9409387111663818 1.6859368085861206 1.0288103818893433
v -0.9409387111663818 2.086918354034424 0.2720659673213959
v -0.4166845381259918 3.3616714477539062 -0.8760315179824829
v 0.1538439840078354 1.6531124114990234 0.4990367889404297
v -0.9409387111663818 1.8714202642440796 1.1879692077636719
v -0.5553125143051147 1.6859368085861206 1.0288105010986328
vn 0.4771343469619751 0.5782389044761658 0.6618025302886963
vn -0.12433136254549026 -0.6444587707519531 -0.7544631361961365
vn 0.893730878829956 0.1453966498374939 0.42438772320747375
vn -0.2751215398311615 0.8602371215820312 0.4293021559715271
vn -0.9726534485816956 -0.0038744884077459574 -0.23222896456718445
vn 0.584376871585846 0.6472024321556091 0.4895228147506714
vn -0.604174792766571 0.6783429980278015 0.4181189239025116
vn -0.1534666270017624 -0.7336485385894775 -0.6619726419448853
vn 0.39372673630714417 -0.4802931547164917 -0.7837715148925781
vn 0.2226054072380066 0.7767396569252014 0.5891708731651306
vn -0.7406045198440552 -0.6618120670318604 -0.11623147875070572
vn -0.3298914134502411 -0.6794813275337219 -0.6553447842597961
vn 0.42351722717285156 0.7587732672691345 0.49486997723579407
vn -0.022107962518930435 -0.7501938343048096 -0.6608483195304871
vn -0.2935255765914917 0.6002386808395386 0.7440137267112732
vn 0.1436568945646286 -0.808036744594574 0.5713486671447754
vt 0.0 1.0
vt 0.0 1.0
vt 0.0 1.0
vt 0.0 1.0
vt 0.0 1.0
vt 0.0 1.0
vt 0.0 1.0
vt 0.0 1.0
vt 0.0 1.0
vt 0.0 1.0
vt 0.0 1.0
vt 0.0 1.0
vt 0.0 1.0
vt 0.0 1.0
vt 0.0 1.0
vt 0.0 1.0

g Sabre_Face_R_Col
s 1
usemtl Sabre_Face_R_Col
f 5/5/5 4/4/4 2/2/2 
f 6/6/6 1/1/1 3/3/3 
f 7/7/7 4/4/4 5/5/5 
f 9/9/9 6/6/6 3/3/3 
f 10/10/10 1/1/1 6/6/6 
f 10/10/10 4/4/4 7/7/7 
f 11/11/11 7/7/7 5/5/5 
f 12/12/12 5/5/5 2/2/2 
f 12/12/12 2/2/2 8/8/8 
f 12/12/12 11/11/11 5/5/5 
f 12/12/12 8/8/8 11/11/11 
f 13/13/13 9/9/9 2/2/2 
f 13/13/13 2/2/2 4/4/4 
f 13/13/13 6/6/6 9/9/9 
f 13/13/13 10/10/10 6/6/6 
f 13/13/13 4/4/4 10/10/10 
f 14/14/14 8/8/8 2/2/2 
f 14/14/14 2/2/2 9/9/9 
f 14/14/14 9/9/9 3/3/3 
f 14/14/14 11/11/11 8/8/8 
f 14/14/14 3/3/3 11/11/11 
f 15/15/15 10/10/10 7/7/7 
f 15/15/15 1/1/1 10/10/10 
f 15/15/15 7/7/7 11/11/11 
f 16/16/16 11/11/11 3/3/3 
f 16/16/16 3/3/3 1/1/1 
f 16/16/16 15/15/15 11/11/11 
f 16/16/16 1/1/1 15/15/15 

