v 0.21493101119995117 1.4137306213378906 2.4090654850006104
v -0.3048055171966553 2.3145928382873535 4.369735240936279
v -0.09555474668741226 2.5912837982177734 3.810927629470825
v 0.34669601917266846 2.493602752685547 2.814969062805176
v 0.24568043649196625 1.5396593809127808 4.798688888549805
v 0.4032500684261322 1.3753451108932495 3.243126392364502
v 0.5730464458465576 1.3877613544464111 2.3327534198760986
v 0.7471092939376831 1.38847815990448 2.5930135250091553
v -0.17712867259979248 2.2266082763671875 4.842815399169922
v 0.13304243981838226 2.006415367126465 5.047442436218262
v 0.5730464458465576 1.3877613544464111 2.3327534198760986
v 0.21493101119995117 1.4137306213378906 2.4090654850006104
v 0.34669601917266846 2.493602752685547 2.814969062805176
v 0.60596764087677 2.4836487770080566 2.9710774421691895
v 0.46180471777915955 2.820530414581299 3.9477837085723877
v -0.09555474668741226 2.5912837982177734 3.810927629470825
v 0.3165050745010376 2.456920623779297 4.540694236755371
v -0.3048055171966553 2.3145928382873535 4.369735240936279
v -0.17712867259979248 2.2266082763671875 4.842815399169922
v 0.7471092939376831 1.38847815990448 2.5930135250091553
v 0.13304243981838226 2.006415367126465 5.047442436218262
v 0.24568043649196625 1.5396593809127808 4.798688888549805
v 0.3869461715221405 2.1094722747802734 3.3545820713043213
v 0.4032500684261322 1.3753451108932495 3.243126392364502
v 0.35176384449005127 2.2500076293945312 3.8322715759277344
v 0.3869461715221405 2.1094722747802734 3.3545820713043213
v 0.4032500684261322 1.3753451108932495 3.243126392364502
vn -0.6036370992660522 -0.47388118505477905 -0.6411387324333191
vn -0.9525880813598633 0.21320779621601105 0.21706770360469818
vn -0.7424778938293457 0.6624945402145386 -0.09913419187068939
vn -0.24555443227291107 0.671245813369751 -0.6993797421455383
vn 0.2486105114221573 -0.8841184973716736 0.3956353962421417
vn 0.2162894606590271 -0.9048222303390503 0.36676356196403503
vn 0.31467264890670776 -0.4752357602119446 -0.8216642141342163
vn 0.8239331245422363 -0.5525631308555603 -0.12573078274726868
vn -0.736596941947937 0.24645213782787323 0.6298304200172424
vn 0.0978715717792511 -0.2507231533527374 0.9630985856056213
vn 0.31467264890670776 -0.4752357602119446 -0.8216642141342163
vn -0.6036370992660522 -0.47388118505477905 -0.6411387324333191
vn -0.24555443227291107 0.671245813369751 -0.6993797421455383
vn 0.8384567499160767 0.5036892294883728 -0.2080562561750412
vn 0.5536251664161682 0.808293342590332 0.200402170419693
vn -0.7424778938293457 0.6624945402145386 -0.09913419187068939
vn 0.5985912084579468 0.651646077632904 0.46588200330734253
vn -0.9525880813598633 0.21320779621601105 0.21706770360469818
vn -0.736596941947937 0.24645213782787323 0.6298304200172424
vn 0.8239331245422363 -0.5525631308555603 -0.12573078274726868
vn 0.0978715717792511 -0.2507231533527374 0.9630985856056213
vn 0.2486105114221573 -0.8841184973716736 0.3956353962421417
vn 0.9591428637504578 -0.11700528115034103 0.2575942277908325
vn 0.2162894606590271 -0.9048222303390503 0.36676356196403503
vn 0.9824674725532532 -0.1395396739244461 0.12363823503255844
vn 0.9591428637504578 -0.11700528115034103 0.2575942277908325
vn 0.2162894606590271 -0.9048222303390503 0.36676356196403503
vt 0.0 1.0
vt 0.4523814022541046 0.2402631640434265
vt 0.4280325174331665 0.25631165504455566
vt 0.3321245312690735 0.3684071898460388
vt 0.44998157024383545 0.40366625785827637
vt 0.4090527594089508 0.42670369148254395
vt 0.3737545609474182 0.49969029426574707
vt 0.3798244595527649 0.44847172498703003
vt 0.4689769744873047 0.24919241666793823
vt 0.4983484148979187 0.3314797878265381
vt 0.3737545609474182 0.49969029426574707
vt 0.0 1.0
vt 0.3321245312690735 0.3684071898460388
vt 0.37538591027259827 0.36077380180358887
vt 0.4282056987285614 0.33303338289260864
vt 0.4280325174331665 0.25631165504455566
vt 0.4630754590034485 0.33273130655288696
vt 0.4523814022541046 0.2402631640434265
vt 0.4689769744873047 0.24919241666793823
vt 0.3798244595527649 0.44847172498703003
vt 0.4983484148979187 0.3314797878265381
vt 0.44998157024383545 0.40366625785827637
vt 0.4279850423336029 0.39566290378570557
vt 0.4090527594089508 0.42670369148254395
vt 0.43392258882522583 0.3832775354385376
vt 0.4279850423336029 0.39566290378570557
vt 0.4090527594089508 0.42670369148254395

g T_Rex_Nose_R_Col1
s 1
usemtl T_Rex_Nose_R_Col1
f 1/1/1 2/2/2 3/3/3 
f 1/1/1 3/3/3 4/4/4 
f 1/1/1 5/5/5 2/2/2 
f 1/1/1 6/6/6 5/5/5 
f 6/6/6 1/1/1 7/7/7 
f 6/6/6 7/7/7 8/8/8 
f 5/5/5 9/9/9 2/2/2 
f 5/5/5 10/10/10 9/9/9 
f 11/11/11 12/12/12 13/13/13 
f 11/11/11 13/13/13 14/14/14 
f 15/15/15 14/14/14 13/13/13 
f 16/16/16 15/15/15 13/13/13 
f 17/17/17 15/15/15 16/16/16 
f 17/17/17 16/16/16 18/18/18 
f 18/18/18 19/19/19 17/17/17 
f 14/14/14 20/20/20 11/11/11 
f 19/19/19 21/21/21 17/17/17 
f 17/17/17 21/21/21 22/22/22 
f 15/15/15 17/17/17 22/22/22 
f 20/20/20 14/14/14 23/23/23 
f 15/15/15 23/23/23 14/14/14 
f 20/20/20 23/23/23 24/24/24 
f 15/15/15 22/22/22 25/25/25 
f 15/15/15 25/25/25 23/23/23 
f 22/22/22 26/26/26 25/25/25 
f 22/22/22 27/27/27 26/26/26 

