v 0.9780383706092834 -0.3612609803676605 1.9668325185775757
v 0.9775957465171814 0.4858390986919403 1.793007493019104
v 0.8521925210952759 0.5229647159576416 2.233876943588257
v 0.982772946357727 0.4579877257347107 0.5173852443695068
v 0.9824647307395935 -0.415164053440094 0.5168893337249756
v -0.482512891292572 0.4226084351539612 0.5169638395309448
v -0.45377328991889954 -0.4122863709926605 0.5067932605743408
v 0.1519107222557068 -0.27427801489830017 1.974003553390503
v -0.10836614668369293 0.4744779169559479 2.1666882038116455
v -0.10836614668369293 0.4744779169559479 2.1666882038116455
v -0.10836614668369293 0.4744779169559479 2.1666882038116455
v 0.8521925210952759 0.5229647159576416 2.233876943588257
v 0.9775957465171814 0.4858390986919403 1.793007493019104
v 0.9780383706092834 -0.3612609803676605 1.9668325185775757
v 0.1519107222557068 -0.27427801489830017 1.974003553390503
v -0.45377328991889954 -0.4122863709926605 0.5067932605743408
vn 0.5776561498641968 -0.6481950879096985 0.4961417317390442
vn 0.7467697262763977 0.6635379195213318 0.045303959399461746
vn 0.4326293170452118 0.49365347623825073 0.7544124722480774
vn 0.5928409695625305 0.5603973865509033 -0.5783547759056091
vn 0.5623344779014587 -0.6041643023490906 -0.5645931363105774
vn -0.6141551733016968 0.5600386261940002 -0.5560307502746582
vn -0.6339937448501587 -0.5979406237602234 -0.4904273450374603
vn -0.33651164174079895 -0.7256109714508057 0.6002070903778076
vn -0.5744062662124634 0.4928448498249054 0.6535758972167969
vn -0.5744062662124634 0.4928448498249054 0.6535758972167969
vn -0.5744062662124634 0.4928448498249054 0.6535758972167969
vn 0.4326293170452118 0.49365347623825073 0.7544124722480774
vn 0.7467697262763977 0.6635379195213318 0.045303959399461746
vn 0.5776561498641968 -0.6481950879096985 0.4961417317390442
vn -0.33651164174079895 -0.7256109714508057 0.6002070903778076
vn -0.6339937448501587 -0.5979406237602234 -0.4904273450374603
vt 0.3073343336582184 0.33303922414779663
vt 0.0 1.0
vt 1.1433260440826416 0.7022465169429779
vt 0.0 1.0
vt 0.0 1.0
vt 0.0 1.0
vt 0.0 1.0
vt 0.22127144038677216 0.3857250213623047
vt 0.4562120735645294 0.7189135551452637
vt 0.3626019060611725 0.60068479180336
vt 0.4562120735645294 0.7189135551452637
vt 1.1433260440826416 0.7022465169429779
vt 0.0 1.0
vt 0.3073343336582184 0.33303922414779663
vt 0.22127144038677216 0.3857250213623047
vt 0.0 1.0

g T_Rex_Nose_L_Col2
s 1
usemtl T_Rex_Nose_L_Col2
f 1/1/1 2/2/2 3/3/3 
f 1/1/1 4/4/4 2/2/2 
f 1/1/1 5/5/5 4/4/4 
f 6/6/6 4/4/4 5/5/5 
f 6/6/6 5/5/5 7/7/7 
f 7/7/7 5/5/5 1/1/1 
f 7/7/7 1/1/1 8/8/8 
f 4/4/4 6/6/6 9/9/9 
f 9/9/9 2/2/2 4/4/4 
f 10/10/10 6/6/6 7/7/7 
f 11/11/11 12/12/12 13/13/13 
f 14/14/14 12/12/12 11/11/11 
f 14/14/14 11/11/11 15/15/15 
f 11/11/11 16/16/16 15/15/15 

