v 0.5928635001182556 -0.4851801097393036 0.5149167776107788
v 0.582512617111206 -0.9767383933067322 1.3500540256500244
v 0.5523241758346558 -0.3193824291229248 1.7849258184432983
v 0.6154962778091431 -1.1064103841781616 1.0486915111541748
v 0.8187743425369263 -0.800604522228241 1.3084359169006348
v 0.7585398554801941 -0.2198948860168457 1.8040989637374878
v 0.5618088245391846 0.6857826113700867 2.3547794818878174
v 0.5975579023361206 0.5763671398162842 0.5288674831390381
v 0.5937706828117371 1.326202630996704 1.3082013130187988
v 0.582512617111206 -0.9767383933067322 1.3500540256500244
v 0.5891109704971313 -1.1663330793380737 -0.8722798824310303
v 0.5844947099685669 -2.0062294006347656 -0.8894631862640381
v 0.5928635001182556 -0.4851801097393036 0.5149167776107788
v 0.5975579023361206 0.5763671398162842 0.5288674831390381
v 0.568640947341919 0.5676417350769043 -0.859412431716919
v 0.5441199541091919 0.7979376316070557 -0.04323458671569824
v 0.5937706828117371 1.326202630996704 1.3082013130187988
v 0.5605913400650024 1.11836576461792 0.6189717054367065
v 0.7699572443962097 0.09560918807983398 0.4078320264816284
v 0.5618088245391846 0.6857826113700867 2.3547794818878174
v 0.7585398554801941 -0.2198948860168457 1.8040989637374878
v 0.873377799987793 -1.2780221700668335 0.3014754056930542
v 0.8187743425369263 -0.800604522228241 1.3084359169006348
v 0.7406323552131653 -0.04762601852416992 -0.44156980514526367
v 0.5581264495849609 0.7370502948760986 -0.8721351623535156
v 0.9590266942977905 -1.610832929611206 -0.4575819969177246
v 0.8187743425369263 -0.800604522228241 1.3084359169006348
v 0.6154962778091431 -1.1064103841781616 1.0486915111541748
v 0.873377799987793 -1.2780221700668335 0.3014754056930542
v 0.5844947099685669 -2.0062294006347656 -0.8894631862640381
v 0.5891109704971313 -1.1663330793380737 -0.8722798824310303
v 0.9798488616943359 -1.8062211275100708 -0.8635682463645935
v 0.9590266942977905 -1.610832929611206 -0.4575819969177246
v 0.7406323552131653 -0.04762601852416992 -0.44156980514526367
v 0.7246273756027222 -0.06064105033874512 -0.8755629062652588
v 0.5581264495849609 0.7370502948760986 -0.8721351623535156
v 0.7307074069976807 -1.8172577619552612 -0.47604894638061523
v 0.873377799987793 -1.2780221700668335 0.3014754056930542
v 0.6154962778091431 -1.1064103841781616 1.0486915111541748
v 0.568640947341919 0.5676417350769043 -0.859412431716919
v 0.5605913400650024 1.11836576461792 0.6189717054367065
v 0.7699572443962097 0.09560918807983398 0.4078320264816284
v 0.5441199541091919 0.7979376316070557 -0.04323458671569824
v 0.7307074069976807 -1.8172577619552612 -0.47604894638061523
v 0.6154962778091431 -1.1064103841781616 1.0486915111541748
v 0.582512617111206 -0.9767383933067322 1.3500540256500244
v 0.582512617111206 -0.9767383933067322 1.3500540256500244
v 0.5844947099685669 -2.0062294006347656 -0.8894631862640381
v 0.7307074069976807 -1.8172577619552612 -0.47604894638061523
vn -0.9999754428863525 -0.0026072680484503508 -0.006514295004308224
vn -0.05953330174088478 -0.5704535245895386 0.8191693425178528
vn -0.6220588088035583 -0.47238826751708984 0.6244135499000549
vn 0.6457075476646423 -0.6568233966827393 0.3894159495830536
vn 0.7433317303657532 -0.46298453211784363 0.4828076660633087
vn 0.7593450546264648 -0.27291959524154663 0.590686023235321
vn -0.10656166821718216 0.7960827350616455 0.5957322716712952
vn -0.9969456791877747 -0.07764911651611328 0.008361265063285828
vn -0.12082421779632568 0.9715127944946289 0.2038731426000595
vn -0.05953330174088478 -0.5704535245895386 0.8191693425178528
vn -0.7040662169456482 -0.0016553555615246296 -0.7101324796676636
vn -0.3791656196117401 -0.7965232133865356 -0.4709396958351135
vn -0.9999754428863525 -0.0026072680484503508 -0.006514295004308224
vn -0.9969456791877747 -0.07764911651611328 0.008361265063285828
vn -0.8035308122634888 -0.06746979802846909 -0.5914270877838135
vn -0.1934279501438141 0.9556109309196472 -0.22224634885787964
vn -0.12082421779632568 0.9715127944946289 0.2038731426000595
vn -0.27179154753685 0.8339051604270935 -0.48034530878067017
vn 0.9842720031738281 0.17477485537528992 -0.02573438175022602
vn -0.201153963804245 0.888211727142334 0.4130581021308899
vn 0.991436779499054 0.1282883584499359 0.024394316598773003
vn 0.9105618000030518 -0.35495802760124207 0.2118537425994873
vn 0.7433317303657532 -0.46298453211784363 0.4828076660633087
vn 0.9842670559883118 0.17471569776535034 -0.026320945471525192
vn 0.0075201052241027355 0.7185541391372681 -0.6954302787780762
vn 0.9185783267021179 -0.3469458818435669 0.18932071328163147
vn 0.7433317303657532 -0.46298453211784363 0.4828076660633087
vn 0.6457075476646423 -0.6568233966827393 0.3894159495830536
vn 0.9105618000030518 -0.35495802760124207 0.2118537425994873
vn -0.3791656196117401 -0.7965232133865356 -0.4709396958351135
vn -0.7040662169456482 -0.0016553555615246296 -0.7101324796676636
vn 0.7574650645256042 -0.4402150511741638 -0.48213839530944824
vn 0.9185783267021179 -0.3469458818435669 0.18932071328163147
vn 0.9842670559883118 0.17471569776535034 -0.026320945471525192
vn 0.5934902429580688 0.10654115676879883 -0.7977582812309265
vn 0.0075201052241027355 0.7185541391372681 -0.6954302787780762
vn 0.32063916325569153 -0.8637049198150635 0.3888498842716217
vn 0.9105618000030518 -0.35495802760124207 0.2118537425994873
vn 0.6457075476646423 -0.6568233966827393 0.3894159495830536
vn -0.8035308122634888 -0.06746979802846909 -0.5914270877838135
vn -0.27179154753685 0.8339051604270935 -0.48034530878067017
vn 0.9842720031738281 0.17477485537528992 -0.02573438175022602
vn -0.1934279501438141 0.9556109309196472 -0.22224634885787964
vn 0.32063916325569153 -0.8637049198150635 0.3888498842716217
vn 0.6457075476646423 -0.6568233966827393 0.3894159495830536
vn -0.05953330174088478 -0.5704535245895386 0.8191693425178528
vn -0.05953330174088478 -0.5704535245895386 0.8191693425178528
vn -0.3791656196117401 -0.7965232133865356 -0.4709396958351135
vn 0.32063916325569153 -0.8637049198150635 0.3888498842716217
vt 0.0 1.0
vt 1.0 0.04653400182723999
vt 0.0 1.0
vt 0.4986701011657715 0.3380447030067444
vt 0.24100364744663239 0.6508431732654572
vt 0.3038538098335266 0.5589550137519836
vt 0.34103021025657654 0.4572392702102661
vt 0.0 1.0
vt 0.25032827258110046 0.3879085183143616
vt 1.0 0.04653400182723999
vt 0.45922404527664185 0.5086967051029205
vt 0.8968000411987305 0.0
vt 0.0 1.0
vt 0.0 1.0
vt 0.24875202775001526 0.4377203583717346
vt 0.25 0.4290257692337036
vt 0.25032827258110046 0.3879085183143616
vt 0.2487785965204239 0.41249406337738037
vt 0.25 0.5223206877708435
vt 0.34103021025657654 0.4572392702102661
vt 0.3038538098335266 0.5589550137519836
vt 0.2779483497142792 0.6528209745883942
vt 0.24100364744663239 0.6508431732654572
vt 0.2499932199716568 0.49602651596069336
vt 0.24876506626605988 0.416875422000885
vt 0.2674943804740906 0.6570260226726532
vt 0.2800702750682831 0.6518869400024414
vt 1.0 0.3373650908470154
vt 0.2779483497142792 0.6528209745883942
vt 0.7531526684761047 0.42493122816085815
vt 0.45922404527664185 0.5086967051029205
vt 0.27582576870918274 0.6536358594894409
vt 0.2674943804740906 0.6570260226726532
vt 0.2499932199716568 0.49602651596069336
vt 0.25 0.4758700728416443
vt 0.24876506626605988 0.416875422000885
vt 0.9997878074645996 0.33285582065582275
vt 0.2779483497142792 0.6528209745883942
vt 1.0 0.3373650908470154
vt 0.24875202775001526 0.4377203583717346
vt 0.2487785965204239 0.41249406337738037
vt 0.25 0.5223206877708435
vt 0.25 0.4290257692337036
vt 0.0 0.5
vt 0.0 0.3525245189666748
vt 1.0 0.8944498375058174
vt 1.0 0.8944498375058174
vt 0.8968000411987305 0.0
vt 0.0 0.5

g T_Rex_Head_R_Col2
s 1
usemtl T_Rex_Head_R_Col2
f 1/1/1 2/2/2 3/3/3 
f 4/4/4 3/3/3 2/2/2 
f 3/3/3 4/4/4 5/5/5 
f 6/6/6 3/3/3 5/5/5 
f 3/3/3 6/6/6 7/7/7 
f 1/1/1 3/3/3 7/7/7 
f 1/1/1 7/7/7 8/8/8 
f 7/7/7 9/9/9 8/8/8 
f 10/10/10 11/11/11 12/12/12 
f 13/13/13 11/11/11 10/10/10 
f 11/11/11 13/13/13 14/14/14 
f 11/11/11 14/14/14 15/15/15 
f 16/16/16 15/15/15 14/14/14 
f 17/17/17 16/16/16 14/14/14 
f 17/17/17 18/18/18 16/16/16 
f 19/19/19 18/18/18 17/17/17 
f 17/17/17 20/20/20 19/19/19 
f 20/20/20 21/21/21 19/19/19 
f 22/22/22 19/19/19 21/21/21 
f 22/22/22 21/21/21 23/23/23 
f 16/16/16 19/19/19 24/24/24 
f 25/25/25 16/16/16 24/24/24 
f 16/16/16 25/25/25 15/15/15 
f 26/26/26 24/24/24 19/19/19 
f 26/26/26 19/19/19 22/22/22 
f 27/27/27 28/28/28 29/29/29 
f 30/30/30 31/31/31 32/32/32 
f 30/30/30 32/32/32 33/33/33 
f 34/34/34 33/33/33 32/32/32 
f 34/34/34 32/32/32 35/35/35 
f 31/31/31 35/35/35 32/32/32 
f 35/35/35 36/36/36 34/34/34 
f 31/31/31 36/36/36 35/35/35 
f 30/30/30 33/33/33 37/37/37 
f 37/37/37 33/33/33 38/38/38 
f 37/37/37 38/38/38 39/39/39 
f 31/31/31 40/40/40 36/36/36 
f 41/41/41 42/42/42 43/43/43 
f 44/44/44 45/45/45 46/46/46 
f 47/47/47 48/48/48 49/49/49 

