v -0.9652928709983826 -1.0059655904769897 4.93403959274292
v -0.9574446678161621 -1.5314170122146606 3.368921995162964
v -0.9755795001983643 -2.1557037830352783 6.208518981933594
v -0.9624087810516357 0.39425140619277954 2.667306661605835
v -0.9738625884056091 -1.494819164276123 2.069491147994995
v -0.9560482501983643 -1.0440062284469604 1.086883783340454
v -0.9552239775657654 -0.341697633266449 0.5368852615356445
v -0.9651967287063599 0.43491262197494507 0.5343120098114014
v 0.4870477318763733 -0.36198070645332336 0.532407820224762
v 0.4981895089149475 0.43183523416519165 0.5259414911270142
v 0.47412824630737305 0.5796687006950378 2.0107414722442627
v -0.43486639857292175 -1.5395452976226807 2.948664426803589
v -0.34067007899284363 -1.4489023685455322 2.0195462703704834
v -0.43342918157577515 -1.0447256565093994 1.3046412467956543
v -0.4306769371032715 -1.1923363208770752 4.83638334274292
v 0.2168879508972168 -1.1312416791915894 1.8628830909729004
v 0.5850557088851929 -0.5791515111923218 1.3679991960525513
v -0.09134191274642944 -1.40660560131073 3.0748260021209717
v -0.3680570125579834 -1.5276285409927368 3.944561004638672
v -0.9675381183624268 -1.6723809242248535 4.055427551269531
v -0.9776315093040466 -2.00386905670166 4.623812198638916
v -0.5699999928474426 -1.956140398979187 4.696176528930664
v -0.5919358730316162 -2.2918174266815186 5.672885417938232
v -0.9941480159759521 -2.524719476699829 5.498040199279785
v -0.08777141571044922 -1.0165737867355347 4.4398298263549805
v 0.08049380779266357 -0.6450825929641724 3.8709654808044434
v 0.5201739072799683 -0.37067922949790955 2.927560567855835
v 0.6189799308776855 -0.18921977281570435 2.0812184810638428
v 0.5850557088851929 -0.5791515111923218 1.3679991960525513
v 0.06404733657836914 -0.5897330045700073 4.618884563446045
v -0.2560366988182068 -1.3880648612976074 5.008694648742676
v -0.24834954738616943 -1.1146862506866455 5.139010906219482
v -0.5041355490684509 -1.7150046825408936 5.764994144439697
v -0.5251010656356812 -1.8515251874923706 5.733102321624756
v -0.37691614031791687 -1.1234532594680786 5.114316463470459
v -0.02702653408050537 -0.23097896575927734 4.18100643157959
v 0.11264955252408981 -0.13389068841934204 4.031146049499512
v -0.6150763034820557 -1.7309355735778809 5.749594688415527
v 0.1840810775756836 0.32354143261909485 3.206651210784912
v 0.5850557088851929 -0.5791515111923218 1.3679991960525513
v 0.5201739072799683 -0.37067922949790955 2.927560567855835
v -0.09134191274642944 -1.40660560131073 3.0748260021209717
v -0.34067007899284363 -1.4489023685455322 2.0195462703704834
v 0.2168879508972168 -1.1312416791915894 1.8628830909729004
vn -0.6018314361572266 0.600536048412323 0.5264555215835571
vn -0.7289551496505737 -0.6836196184158325 -0.035898398607969284
vn -0.3150891363620758 -0.12005648761987686 0.9414379000663757
vn -0.6582582592964172 0.7188305854797363 0.22355887293815613
vn -0.6453602910041809 -0.7385610342025757 -0.19503247737884521
vn -0.6157050132751465 -0.6317216753959656 -0.47099360823631287
vn -0.6223332285881042 -0.27607908844947815 -0.7324491143226624
vn -0.6002448201179504 0.5649899840354919 -0.566120445728302
vn 0.4803055226802826 -0.4435802400112152 -0.7566657662391663
vn 0.5686371326446533 0.56373530626297 -0.5990444421768188
vn 0.5938172340393066 0.7993168234825134 0.09205209463834763
vn 0.15100695192813873 -0.9868674278259277 -0.0573556087911129
vn 0.312261700630188 -0.9105918407440186 -0.2707676291465759
vn 0.19296014308929443 -0.825831949710846 -0.5298753380775452
vn -0.4420194923877716 0.7652090191841125 0.46805328130722046
vn 0.6486726999282837 -0.7314175367355347 -0.2103620320558548
vn 0.8834958672523499 -0.4523685574531555 -0.12164586782455444
vn 0.6037217974662781 -0.7964221835136414 0.035095542669296265
vn 0.6092312335968018 -0.7877541184425354 -0.09099797904491425
vn -0.6322104930877686 -0.7333551049232483 -0.2500002980232239
vn -0.7016189694404602 -0.625256359577179 -0.3417387306690216
vn 0.6410055160522461 -0.7221200466156006 -0.2601049840450287
vn 0.7158114314079285 -0.6658568978309631 0.21035338938236237
vn -0.49911782145500183 -0.8638195991516113 -0.0685361996293068
vn 0.9222297072410583 -0.37902894616127014 0.07635129243135452
vn 0.9557151198387146 -0.25557079911231995 0.14591814577579498
vn 0.958703875541687 -0.15000739693641663 0.2416292428970337
vn 0.9925698637962341 -0.04511834308505058 0.1130022257566452
vn 0.8834958672523499 -0.4523685574531555 -0.12164586782455444
vn 0.7274892926216125 0.3664814233779907 0.5800436735153198
vn 0.9452365636825562 -0.30758312344551086 0.10918043553829193
vn 0.6318643093109131 0.40844598412513733 0.6587255597114563
vn 0.588254988193512 0.37742915749549866 0.7151946425437927
vn 0.8970512747764587 -0.25521183013916016 0.36078524589538574
vn -0.5995340347290039 0.6818944811820984 0.4190213084220886
vn -0.5612212419509888 0.7136328220367432 0.41923612356185913
vn 0.6243160367012024 0.6405503153800964 0.44712942838668823
vn -0.3436080813407898 0.7944015860557556 0.5008589625358582
vn 0.5284923911094666 0.701406717300415 0.4782513678073883
vn 0.8834958672523499 -0.4523685574531555 -0.12164586782455444
vn 0.958703875541687 -0.15000739693641663 0.2416292428970337
vn 0.6037217974662781 -0.7964221835136414 0.035095542669296265
vn 0.312261700630188 -0.9105918407440186 -0.2707676291465759
vn 0.6486726999282837 -0.7314175367355347 -0.2103620320558548
vt 0.0 1.0
vt 0.0 1.0
vt 0.0 1.0
vt 0.0 1.0
vt 0.0 1.0
vt 0.0 1.0
vt 0.7522182464599609 0.6282117366790771
vt 0.0 1.0
vt 0.0 1.0
vt 0.0 1.0
vt 0.0 1.0
vt 0.0 1.0
vt 0.0 1.0
vt 0.0 1.0
vt 0.0 1.0
vt 0.0 1.0
vt 0.0 1.0
vt 0.0 1.0
vt 0.0 1.0
vt 0.0 1.0
vt 0.0 1.0
vt 0.0 1.0
vt 0.0 1.0
vt 0.0 1.0
vt 0.0 1.0
vt 0.0 1.0
vt 0.0 1.0
vt 0.0 1.0
vt 0.0 1.0
vt 0.0 1.0
vt 0.0 1.0
vt 0.0 1.0
vt 0.0 1.0
vt 0.0 1.0
vt 0.0 1.0
vt 0.0 1.0
vt 0.0 1.0
vt 0.0 1.0
vt 0.0 1.0
vt 0.0 1.0
vt 0.0 1.0
vt 0.0 1.0
vt 0.0 1.0
vt 0.0 1.0

g T_Rex_Jaw_R_Col4
s 1
usemtl T_Rex_Jaw_R_Col4
f 1/1/1 2/2/2 3/3/3 
f 4/4/4 2/2/2 1/1/1 
f 4/4/4 5/5/5 2/2/2 
f 6/6/6 5/5/5 4/4/4 
f 4/4/4 7/7/7 6/6/6 
f 4/4/4 8/8/8 7/7/7 
f 9/9/9 7/7/7 8/8/8 
f 9/9/9 6/6/6 7/7/7 
f 9/9/9 8/8/8 10/10/10 
f 8/8/8 4/4/4 11/11/11 
f 8/8/8 11/11/11 10/10/10 
f 2/2/2 5/5/5 12/12/12 
f 12/12/12 5/5/5 13/13/13 
f 5/5/5 6/6/6 14/14/14 
f 13/13/13 5/5/5 14/14/14 
f 9/9/9 14/14/14 6/6/6 
f 1/1/1 3/3/3 15/15/15 
f 4/4/4 1/1/1 15/15/15 
f 14/14/14 16/16/16 13/13/13 
f 14/14/14 17/17/17 16/16/16 
f 9/9/9 17/17/17 14/14/14 
f 9/9/9 10/10/10 17/17/17 
f 12/12/12 13/13/13 18/18/18 
f 2/2/2 12/12/12 18/18/18 
f 18/18/18 19/19/19 2/2/2 
f 19/19/19 20/20/20 2/2/2 
f 19/19/19 21/21/21 20/20/20 
f 19/19/19 22/22/22 21/21/21 
f 23/23/23 21/21/21 22/22/22 
f 23/23/23 24/24/24 21/21/21 
f 18/18/18 25/25/25 19/19/19 
f 18/18/18 26/26/26 25/25/25 
f 27/27/27 26/26/26 18/18/18 
f 16/16/16 28/28/28 27/27/27 
f 29/29/29 28/28/28 16/16/16 
f 25/25/25 26/26/26 30/30/30 
f 30/30/30 31/31/31 25/25/25 
f 19/19/19 25/25/25 31/31/31 
f 19/19/19 31/31/31 22/22/22 
f 30/30/30 32/32/32 31/31/31 
f 31/31/31 32/32/32 33/33/33 
f 31/31/31 33/33/33 34/34/34 
f 22/22/22 31/31/31 34/34/34 
f 22/22/22 34/34/34 23/23/23 
f 35/35/35 32/32/32 30/30/30 
f 35/35/35 33/33/33 32/32/32 
f 36/36/36 35/35/35 30/30/30 
f 30/30/30 37/37/37 36/36/36 
f 35/35/35 36/36/36 15/15/15 
f 38/38/38 35/35/35 15/15/15 
f 35/35/35 38/38/38 33/33/33 
f 38/38/38 15/15/15 3/3/3 
f 3/3/3 34/34/34 33/33/33 
f 3/3/3 33/33/33 38/38/38 
f 34/34/34 3/3/3 23/23/23 
f 24/24/24 23/23/23 3/3/3 
f 15/15/15 36/36/36 39/39/39 
f 30/30/30 39/39/39 37/37/37 
f 36/36/36 37/37/37 39/39/39 
f 4/4/4 15/15/15 39/39/39 
f 11/11/11 4/4/4 39/39/39 
f 26/26/26 39/39/39 30/30/30 
f 26/26/26 27/27/27 39/39/39 
f 39/39/39 27/27/27 28/28/28 
f 39/39/39 28/28/28 11/11/11 
f 28/28/28 10/10/10 11/11/11 
f 28/28/28 40/40/40 10/10/10 
f 41/41/41 42/42/42 43/43/43 
f 41/41/41 43/43/43 44/44/44 

