v -0.9509902000427246 0.5545009970664978 0.5070013999938965
v -0.9779807925224304 1.4801783561706543 -0.08771038055419922
v -0.9621105194091797 1.3002095222473145 -0.8741292953491211
v -0.9754124879837036 2.2379722595214844 0.942775547504425
v -0.9683225750923157 2.423229217529297 1.8705474138259888
v -0.46997347474098206 2.2650022506713867 1.8483963012695312
v -0.26268070936203003 2.159637451171875 1.1865888833999634
v -0.4364762008190155 2.085932731628418 0.7685694694519043
v -0.4401065707206726 1.540723204612732 0.1715671867132187
v -0.3037233352661133 1.2379050254821777 -0.26382994651794434
v -0.3833596706390381 1.160046100616455 -0.871812105178833
v 0.568640947341919 0.5676417350769043 -0.859412431716919
v -0.9711324572563171 0.5763671398162842 -0.8711325526237488
v 0.5763673782348633 0.5763671398162842 0.5288674831390381
v 0.4731264114379883 0.7370502948760986 -0.8721351623535156
v 0.027407526969909668 1.78322172164917 0.7317674160003662
v 0.30374300479888916 1.8336189985275269 1.275810718536377
v 0.11889111995697021 2.001207113265991 1.7881101369857788
v 0.3201141357421875 1.6526556015014648 2.3235528469085693
v 0.4855653941631317 1.11836576461792 0.6189717054367065
v 0.51020348072052 1.3699674606323242 1.3082013130187988
v 0.46506965160369873 1.1756949424743652 2.2332029342651367
v 0.29092109203338623 1.479088306427002 2.7261667251586914
v 0.15545833110809326 0.8638274073600769 2.4197516441345215
v 0.153212308883667 0.571209192276001 2.4954633712768555
v 0.052689194679260254 1.56535804271698 3.134273052215576
v -0.3182610869407654 1.45529305934906 4.152048110961914
v -0.2262500524520874 0.5898149013519287 2.4889707565307617
v -0.9711334705352783 0.5806734561920166 2.4918100833892822
v -0.4625967741012573 1.4364933967590332 4.292666912078857
v -0.9851184487342834 1.457887053489685 4.311723709106445
v -0.971908688545227 1.9695038795471191 3.380162477493286
v -0.8221237063407898 2.129991054534912 2.8405513763427734
v -0.28356286883354187 2.0719995498657227 2.3737614154815674
v -0.46997347474098206 2.2650022506713867 1.8483963012695312
v -0.9683225750923157 2.423229217529297 1.8705474138259888
v 0.11889111995697021 2.001207113265991 1.7881101369857788
v 0.45911988615989685 0.7979376316070557 -0.04323458671569824
vn -0.6982048153877258 -0.7158645391464233 0.006929001305252314
vn -0.7004408240318298 0.631954550743103 -0.33168694376945496
vn -0.5196388363838196 0.576883852481842 -0.6302225589752197
vn -0.5944983959197998 0.7515411972999573 -0.28593260049819946
vn -0.5525030493736267 0.8318603038787842 0.05242948234081268
vn 0.32891392707824707 0.9420560598373413 0.06592358648777008
vn 0.38271835446357727 0.9033839106559753 -0.19345319271087646
vn 0.28823813796043396 0.8303625583648682 -0.4768823981285095
vn 0.19127623736858368 0.7987684607505798 -0.5704230070114136
vn 0.38895383477211 0.8666548728942871 -0.31244879961013794
vn 0.23946960270404816 0.6135679483413696 -0.7524551153182983
vn 0.7267726063728333 -0.42116159200668335 -0.5426090359687805
vn -0.5823774933815002 -0.578567385673523 -0.5710483193397522
vn 0.7592822313308716 -0.6507583856582642 -0.0020225567277520895
vn 0.5346537828445435 0.5018661022186279 -0.6799085736274719
vn 0.5565822124481201 0.6837324500083923 -0.47193875908851624
vn 0.74885094165802 0.6442009806632996 -0.1556512713432312
vn 0.6010538339614868 0.793803870677948 0.09278865158557892
vn 0.8027740716934204 0.5497704148292542 0.23088113963603973
vn 0.8930789828300476 0.3644048273563385 -0.2638542652130127
vn 0.9697616696357727 0.2434186339378357 -0.017600167542696
vn 0.9609308242797852 -0.08145484328269958 0.2645317614078522
vn 0.8999013900756836 0.24795915186405182 0.35873907804489136
vn 0.8995673656463623 -0.2837750315666199 0.33203962445259094
vn 0.5264373421669006 -0.7895855903625488 0.31530672311782837
vn 0.8281064033508301 0.43789857625961304 0.34997794032096863
vn 0.6392403841018677 0.0900467038154602 0.7637168169021606
vn 0.05079655349254608 -0.9692687392234802 0.240702822804451
vn -0.6168035268783569 -0.7662838101387024 0.17989562451839447
vn 0.34959107637405396 -0.04500164836645126 0.9358209371566772
vn -0.4677776098251343 0.016449572518467903 0.8836930990219116
vn -0.6105151176452637 0.7284630537033081 0.3108261823654175
vn 0.20754264295101166 0.9288435578346252 0.30688056349754333
vn 0.4368540942668915 0.8562776446342468 0.2755848169326782
vn 0.32891392707824707 0.9420560598373413 0.06592358648777008
vn -0.5525030493736267 0.8318603038787842 0.05242948234081268
vn 0.6010538339614868 0.793803870677948 0.09278865158557892
vn 0.7813620567321777 0.6103264093399048 -0.13028807938098907
vt 0.0 1.0
vt 0.0 1.0
vt 0.0 1.0
vt 0.0 1.0
vt 0.0 1.0
vt 0.0 1.0
vt 0.0 1.0
vt 0.0 1.0
vt 0.0 1.0
vt 0.0 1.0
vt 0.0 1.0
vt 0.0 1.0
vt 0.0 1.0
vt 0.0 1.0
vt 0.0 1.0
vt 0.0 1.0
vt 0.0 1.0
vt 0.0 1.0
vt 0.0 1.0
vt 0.0 1.0
vt 0.0 1.0
vt 0.0 1.0
vt 0.0 1.0
vt 0.0 1.0
vt 0.0 1.0
vt 0.0 1.0
vt 0.0 1.0
vt 0.0 1.0
vt 0.0 1.0
vt 0.0 1.0
vt 0.0 1.0
vt 0.0 1.0
vt 0.0 1.0
vt 0.0 1.0
vt 0.0 1.0
vt 0.0 1.0
vt 0.0 1.0
vt 0.0 1.0

g T_Rex_Head_R_Col1
s 1
usemtl T_Rex_Head_R_Col1
f 1/1/1 2/2/2 3/3/3 
f 4/4/4 2/2/2 1/1/1 
f 1/1/1 5/5/5 4/4/4 
f 4/4/4 5/5/5 6/6/6 
f 4/4/4 6/6/6 7/7/7 
f 7/7/7 8/8/8 4/4/4 
f 9/9/9 2/2/2 4/4/4 
f 9/9/9 4/4/4 8/8/8 
f 10/10/10 3/3/3 2/2/2 
f 9/9/9 10/10/10 2/2/2 
f 10/10/10 11/11/11 3/3/3 
f 3/3/3 11/11/11 12/12/12 
f 1/1/1 13/13/13 12/12/12 
f 12/12/12 13/13/13 3/3/3 
f 1/1/1 3/3/3 13/13/13 
f 1/1/1 12/12/12 14/14/14 
f 11/11/11 15/15/15 12/12/12 
f 10/10/10 15/15/15 11/11/11 
f 14/14/14 12/12/12 15/15/15 
f 8/8/8 7/7/7 16/16/16 
f 8/8/8 16/16/16 9/9/9 
f 10/10/10 9/9/9 16/16/16 
f 17/17/17 16/16/16 7/7/7 
f 7/7/7 18/18/18 17/17/17 
f 6/6/6 18/18/18 7/7/7 
f 17/17/17 18/18/18 19/19/19 
f 17/17/17 20/20/20 16/16/16 
f 16/16/16 20/20/20 10/10/10 
f 21/21/21 17/17/17 19/19/19 
f 20/20/20 17/17/17 21/21/21 
f 14/14/14 20/20/20 21/21/21 
f 21/21/21 19/19/19 22/22/22 
f 22/22/22 14/14/14 21/21/21 
f 22/22/22 19/19/19 23/23/23 
f 24/24/24 22/22/22 23/23/23 
f 23/23/23 25/25/25 24/24/24 
f 22/22/22 24/24/24 25/25/25 
f 22/22/22 25/25/25 14/14/14 
f 23/23/23 26/26/26 25/25/25 
f 25/25/25 26/26/26 27/27/27 
f 25/25/25 27/27/27 28/28/28 
f 28/28/28 14/14/14 25/25/25 
f 29/29/29 28/28/28 27/27/27 
f 29/29/29 27/27/27 30/30/30 
f 31/31/31 30/30/30 27/27/27 
f 29/29/29 30/30/30 31/31/31 
f 1/1/1 29/29/29 31/31/31 
f 28/28/28 29/29/29 1/1/1 
f 1/1/1 31/31/31 32/32/32 
f 32/32/32 31/31/31 27/27/27 
f 27/27/27 33/33/33 32/32/32 
f 26/26/26 33/33/33 27/27/27 
f 33/33/33 26/26/26 34/34/34 
f 23/23/23 34/34/34 26/26/26 
f 19/19/19 34/34/34 23/23/23 
f 33/33/33 34/34/34 35/35/35 
f 35/35/35 36/36/36 33/33/33 
f 37/37/37 35/35/35 34/34/34 
f 34/34/34 19/19/19 37/37/37 
f 1/1/1 32/32/32 5/5/5 
f 5/5/5 32/32/32 33/33/33 
f 28/28/28 1/1/1 14/14/14 
f 14/14/14 38/38/38 20/20/20 
f 10/10/10 20/20/20 38/38/38 
f 38/38/38 15/15/15 10/10/10 
f 14/14/14 15/15/15 38/38/38 

