v 0.9652928709983826 -1.0059655904769897 4.93403959274292
v 0.9755795001983643 -2.1557037830352783 6.208518981933594
v 0.9574446678161621 -1.5314170122146606 3.368921995162964
v 0.9624087810516357 0.39425140619277954 2.667306661605835
v 0.9738625884056091 -1.494819164276123 2.069491147994995
v 0.9560482501983643 -1.0440062284469604 1.086883783340454
v 0.9552239775657654 -0.341697633266449 0.5368852615356445
v 0.9651967287063599 0.43491262197494507 0.5343120098114014
v -0.4870477318763733 -0.36198070645332336 0.532407820224762
v -0.4981895089149475 0.43183523416519165 0.5259414911270142
v -0.47412824630737305 0.5796687006950378 2.0107414722442627
v 0.43486639857292175 -1.5395452976226807 2.948664426803589
v 0.34067007899284363 -1.4489023685455322 2.0195462703704834
v 0.43342918157577515 -1.0447256565093994 1.3046412467956543
v 0.4306769371032715 -1.1923363208770752 4.83638334274292
v -0.2168879508972168 -1.1312416791915894 1.8628830909729004
v -0.5850557088851929 -0.5791515111923218 1.3679991960525513
v 0.09134191274642944 -1.40660560131073 3.0748260021209717
v 0.3680570125579834 -1.5276285409927368 3.944561004638672
v 0.08777141571044922 -1.0165737867355347 4.4398298263549805
v -0.08049380779266357 -0.6450825929641724 3.8709654808044434
v -0.5201739072799683 -0.37067922949790955 2.927560567855835
v -0.6189799308776855 -0.18921977281570435 2.0812184810638428
v -0.5850557088851929 -0.5791515111923218 1.3679991960525513
v -0.06404733657836914 -0.5897330045700073 4.618884563446045
v 0.2560366988182068 -1.3880648612976074 5.008694648742676
v 0.24834954738616943 -1.1146862506866455 5.139010906219482
v 0.5041355490684509 -1.7150046825408936 5.764994144439697
v 0.5251010656356812 -1.8515251874923706 5.733102321624756
v 0.5699999928474426 -1.956140398979187 4.696176528930664
v 0.9776315093040466 -2.00386905670166 4.623812198638916
v 0.5919358730316162 -2.2918174266815186 5.672885417938232
v 0.9941480159759521 -2.524719476699829 5.498040199279785
v 0.9675381183624268 -1.6723809242248535 4.055427551269531
v 0.37691614031791687 -1.1234532594680786 5.114316463470459
v 0.02702653408050537 -0.23097896575927734 4.18100643157959
v -0.11264955252408981 -0.13389068841934204 4.031146049499512
v 0.6150763034820557 -1.7309355735778809 5.749594688415527
v -0.1840810775756836 0.32354143261909485 3.206651210784912
v -0.5850557088851929 -0.5791515111923218 1.3679991960525513
v -0.5201739072799683 -0.37067922949790955 2.927560567855835
v -0.2168879508972168 -1.1312416791915894 1.8628830909729004
v 0.34067007899284363 -1.4489023685455322 2.0195462703704834
v 0.09134191274642944 -1.40660560131073 3.0748260021209717
vn 0.6018313765525818 0.600536048412323 0.5264555811882019
vn 0.3150891661643982 -0.12005651742219925 0.9414379000663757
vn 0.7105786800384521 -0.7035661935806274 0.00851492676883936
vn 0.6587263941764832 0.7186216115951538 0.22285087406635284
vn 0.644836962223053 -0.7388027906417847 -0.19584617018699646
vn 0.6145131587982178 -0.6321368217468262 -0.4719921946525574
vn 0.62128084897995 -0.2770818769931793 -0.7329636812210083
vn 0.6001471877098083 0.5637149810791016 -0.5674932599067688
vn -0.4803054928779602 -0.4435802400112152 -0.756665825843811
vn -0.5686371922492981 0.5637353658676147 -0.5990444421768188
vn -0.5938172340393066 0.799316942691803 0.09205208718776703
vn -0.16803988814353943 -0.9854260683059692 -0.02642185054719448
vn -0.312261700630188 -0.9105918407440186 -0.2707676291465759
vn -0.19296014308929443 -0.825831949710846 -0.5298753976821899
vn 0.4420194923877716 0.7652090191841125 0.4680532217025757
vn -0.6486726999282837 -0.7314175367355347 -0.2103620320558548
vn -0.8834958672523499 -0.4523685872554779 -0.12164589017629623
vn -0.6090993285179138 -0.7908898591995239 0.059086188673973083
vn -0.6226541996002197 -0.7803493738174438 -0.057937271893024445
vn -0.9222297072410583 -0.37902894616127014 0.07635129243135452
vn -0.9557151198387146 -0.2555708587169647 0.14591814577579498
vn -0.958703875541687 -0.15000739693641663 0.2416292428970337
vn -0.9925698637962341 -0.04511834681034088 0.1130022257566452
vn -0.8834958672523499 -0.4523685872554779 -0.12164589017629623
vn -0.7198516726493835 0.3770713210105896 0.5827784538269043
vn -0.9452365636825562 -0.3075830638408661 0.10918044298887253
vn -0.6249732375144958 0.4155135750770569 0.6608758568763733
vn -0.5882548689842224 0.37742918729782104 0.7151947021484375
vn -0.8970512747764587 -0.25521183013916016 0.36078524589538574
vn -0.6410055160522461 -0.7221200466156006 -0.2601049840450287
vn 0.7016189098358154 -0.6252562999725342 -0.341738760471344
vn -0.7158114314079285 -0.6658568978309631 0.21035338938236237
vn 0.49911782145500183 -0.8638195991516113 -0.0685361996293068
vn 0.631945013999939 -0.742488443851471 -0.22216281294822693
vn 0.6045310497283936 0.6802926659584045 0.4144202768802643
vn 0.5696448683738708 0.7113288640975952 0.411723256111145
vn -0.6232832074165344 0.642291247844696 0.4460718333721161
vn 0.3436080813407898 0.7944015860557556 0.5008589625358582
vn -0.5284925103187561 0.7014066576957703 0.4782514274120331
vn -0.8834958672523499 -0.4523685872554779 -0.12164589017629623
vn -0.958703875541687 -0.15000739693641663 0.2416292428970337
vn -0.6486726999282837 -0.7314175367355347 -0.2103620320558548
vn -0.312261700630188 -0.9105918407440186 -0.2707676291465759
vn -0.6090993285179138 -0.7908898591995239 0.059086188673973083
vt 0.0 1.0
vt 0.0 1.0
vt 0.0 1.0
vt 0.0 1.0
vt 0.0 1.0
vt 0.0 1.0
vt 0.7522182464599609 0.6282117366790771
vt 0.0 1.0
vt 0.0 1.0
vt 0.0 1.0
vt 0.0 1.0
vt 0.0 1.0
vt 0.0 1.0
vt 0.0 1.0
vt 0.0 1.0
vt 0.0 1.0
vt 0.0 1.0
vt 0.0 1.0
vt 0.0 1.0
vt 0.0 1.0
vt 0.0 1.0
vt 0.0 1.0
vt 0.0 1.0
vt 0.0 1.0
vt 0.0 1.0
vt 0.0 1.0
vt 0.0 1.0
vt 0.0 1.0
vt 0.0 1.0
vt 0.0 1.0
vt 0.0 1.0
vt 0.0 1.0
vt 0.0 1.0
vt 0.0 1.0
vt 0.0 1.0
vt 0.0 1.0
vt 0.0 1.0
vt 0.0 1.0
vt 0.0 1.0
vt 0.0 1.0
vt 0.0 1.0
vt 0.0 1.0
vt 0.0 1.0
vt 0.0 1.0

g T_Rex_Jaw_L_Col4
s 1
usemtl T_Rex_Jaw_L_Col4
f 1/1/1 2/2/2 3/3/3 
f 4/4/4 1/1/1 3/3/3 
f 4/4/4 3/3/3 5/5/5 
f 4/4/4 5/5/5 6/6/6 
f 6/6/6 7/7/7 4/4/4 
f 7/7/7 8/8/8 4/4/4 
f 9/9/9 8/8/8 7/7/7 
f 9/9/9 7/7/7 6/6/6 
f 9/9/9 10/10/10 8/8/8 
f 8/8/8 10/10/10 11/11/11 
f 8/8/8 11/11/11 4/4/4 
f 3/3/3 12/12/12 5/5/5 
f 12/12/12 13/13/13 5/5/5 
f 5/5/5 14/14/14 6/6/6 
f 13/13/13 14/14/14 5/5/5 
f 9/9/9 6/6/6 14/14/14 
f 1/1/1 15/15/15 2/2/2 
f 4/4/4 15/15/15 1/1/1 
f 14/14/14 13/13/13 16/16/16 
f 14/14/14 16/16/16 17/17/17 
f 9/9/9 14/14/14 17/17/17 
f 9/9/9 17/17/17 10/10/10 
f 12/12/12 18/18/18 13/13/13 
f 18/18/18 12/12/12 3/3/3 
f 3/3/3 19/19/19 18/18/18 
f 18/18/18 19/19/19 20/20/20 
f 18/18/18 20/20/20 21/21/21 
f 22/22/22 18/18/18 21/21/21 
f 16/16/16 22/22/22 23/23/23 
f 23/23/23 11/11/11 10/10/10 
f 24/24/24 16/16/16 23/23/23 
f 20/20/20 25/25/25 21/21/21 
f 25/25/25 20/20/20 26/26/26 
f 19/19/19 26/26/26 20/20/20 
f 25/25/25 26/26/26 27/27/27 
f 26/26/26 28/28/28 27/27/27 
f 26/26/26 29/29/29 28/28/28 
f 19/19/19 30/30/30 26/26/26 
f 30/30/30 29/29/29 26/26/26 
f 19/19/19 31/31/31 30/30/30 
f 32/32/32 30/30/30 31/31/31 
f 30/30/30 32/32/32 29/29/29 
f 32/32/32 31/31/31 33/33/33 
f 19/19/19 34/34/34 31/31/31 
f 3/3/3 34/34/34 19/19/19 
f 25/25/25 27/27/27 35/35/35 
f 35/35/35 27/27/27 28/28/28 
f 25/25/25 35/35/35 36/36/36 
f 36/36/36 37/37/37 25/25/25 
f 35/35/35 15/15/15 36/36/36 
f 38/38/38 15/15/15 35/35/35 
f 35/35/35 28/28/28 38/38/38 
f 38/38/38 2/2/2 15/15/15 
f 29/29/29 32/32/32 2/2/2 
f 33/33/33 2/2/2 32/32/32 
f 2/2/2 28/28/28 29/29/29 
f 2/2/2 38/38/38 28/28/28 
f 15/15/15 39/39/39 36/36/36 
f 36/36/36 39/39/39 37/37/37 
f 4/4/4 39/39/39 15/15/15 
f 11/11/11 39/39/39 4/4/4 
f 25/25/25 37/37/37 39/39/39 
f 21/21/21 25/25/25 39/39/39 
f 21/21/21 39/39/39 22/22/22 
f 39/39/39 11/11/11 23/23/23 
f 39/39/39 23/23/23 22/22/22 
f 23/23/23 10/10/10 40/40/40 
f 41/41/41 42/42/42 43/43/43 
f 41/41/41 43/43/43 44/44/44 

