v 0.012890219688415527 -0.4185020625591278 6.298244476318359
v 0.5512735843658447 -0.1325744390487671 6.958555221557617
v 0.4380769729614258 -0.18477106094360352 7.262360572814941
v 0.21768532693386078 0.41052672266960144 7.271251201629639
v -0.17737364768981934 0.17172503471374512 6.419593334197998
v -0.15504418313503265 -0.17537032067775726 5.66055154800415
v 0.2779395580291748 -0.23391543328762054 6.218874931335449
v 0.047479331493377686 0.2039799690246582 5.249209403991699
v 0.12899929285049438 0.3980519771575928 5.602783679962158
v -0.010799765586853027 0.7108898162841797 5.182177543640137
v -0.19892893731594086 -0.005722761154174805 5.36343240737915
v -0.4158850908279419 0.6126289367675781 5.27681827545166
v -0.2335287183523178 0.12114143371582031 5.010284423828125
v -0.6407564282417297 0.7477724552154541 4.301205635070801
v -0.17308638989925385 1.032357096672058 5.445478916168213
v -0.33560988306999207 1.1439948081970215 4.405282974243164
v -0.17737364768981934 0.17172503471374512 6.419593334197998
v -0.19892893731594086 -0.005722761154174805 5.36343240737915
v -0.15504418313503265 -0.17537032067775726 5.66055154800415
v 0.12899929285049438 0.3980519771575928 5.602783679962158
v 0.5512735843658447 -0.1325744390487671 6.958555221557617
v 0.2779395580291748 -0.23391543328762054 6.218874931335449
v 0.21768532693386078 0.41052672266960144 7.271251201629639
v -0.17308638989925385 1.032357096672058 5.445478916168213
v -0.010799765586853027 0.7108898162841797 5.182177543640137
v -0.33560988306999207 1.1439948081970215 4.405282974243164
v 0.047479331493377686 0.2039799690246582 5.249209403991699
vn -0.3287498950958252 -0.944377601146698 0.008631276898086071
vn 0.9698790311813354 -0.23939843475818634 0.04497744143009186
vn 0.2337612807750702 -0.5030479431152344 0.832044780254364
vn -0.034648288041353226 0.5518849492073059 0.8332000970840454
vn -0.9504683017730713 -0.04372548311948776 0.307730495929718
vn -0.40657880902290344 -0.8569516539573669 -0.31674525141716003
vn 0.763890266418457 -0.5598509311676025 -0.32099634408950806
vn 0.8206133842468262 -0.3626990020275116 -0.4416367709636688
vn 0.9638767838478088 0.21262048184871674 -0.1604185253381729
vn 0.9410201907157898 0.27482274174690247 -0.1973661184310913
vn -0.39030492305755615 -0.8709815740585327 -0.2984180450439453
vn -0.9846529364585876 0.034194257110357285 0.17114140093326569
vn -0.10380296409130096 -0.8391554951667786 -0.5338941812515259
vn -0.5493857860565186 -0.1926202028989792 -0.8130637407302856
vn 0.018527531996369362 0.9675355553627014 0.2520548701286316
vn 0.046639055013656616 0.7250515222549438 -0.6871136426925659
vn -0.9504683017730713 -0.04372548311948776 0.307730495929718
vn -0.39030492305755615 -0.8709815740585327 -0.2984180450439453
vn -0.40657880902290344 -0.8569516539573669 -0.31674525141716003
vn 0.9638767838478088 0.21262048184871674 -0.1604185253381729
vn 0.9698790311813354 -0.23939843475818634 0.04497744143009186
vn 0.763890266418457 -0.5598509311676025 -0.32099634408950806
vn -0.034648288041353226 0.5518849492073059 0.8332000970840454
vn 0.018527531996369362 0.9675355553627014 0.2520548701286316
vn 0.9410201907157898 0.27482274174690247 -0.1973661184310913
vn 0.046639055013656616 0.7250515222549438 -0.6871136426925659
vn 0.8206133842468262 -0.3626990020275116 -0.4416367709636688
vt 0.5002402663230896 0.6672588586807251
vt 0.5012515187263489 0.6854777932167053
vt 0.5008604526519775 0.6739082038402557
vt 0.500530481338501 0.4153479337692261
vt 0.5 0.48798954486846924
vt 0.5 0.6666666567325592
vt 0.47627580165863037 0.6668975055217743
vt 0.4995865821838379 0.6666666567325592
vt 0.4976338744163513 0.6666666567325592
vt 0.515265703201294 0.6666666567325592
vt 0.5001727938652039 0.6666666567325592
vt 0.4998321831226349 0.5027311146259308
vt 0.499984472990036 0.6666114330291748
vt 0.47900649905204773 0.5023000538349152
vt 0.4998008906841278 0.4345148801803589
vt 0.45033979415893555 0.4490903615951538
vt 0.5 0.48798954486846924
vt 0.5001727938652039 0.6666666567325592
vt 0.5 0.6666666567325592
vt 0.4976338744163513 0.6666666567325592
vt 0.5012515187263489 0.6854777932167053
vt 0.47627580165863037 0.6668975055217743
vt 0.500530481338501 0.4153479337692261
vt 0.4998008906841278 0.4345148801803589
vt 0.515265703201294 0.6666666567325592
vt 0.45033979415893555 0.4490903615951538
vt 0.4995865821838379 0.6666666567325592

g T_Rex_Nose_L_Col5
s 1
usemtl T_Rex_Nose_L_Col5
f 1/1/1 2/2/2 3/3/3 
f 1/1/1 3/3/3 4/4/4 
f 3/3/3 2/2/2 4/4/4 
f 1/1/1 4/4/4 5/5/5 
f 6/6/6 1/1/1 5/5/5 
f 2/2/2 1/1/1 7/7/7 
f 6/6/6 7/7/7 1/1/1 
f 7/7/7 6/6/6 8/8/8 
f 8/8/8 9/9/9 7/7/7 
f 10/10/10 9/9/9 8/8/8 
f 6/6/6 11/11/11 8/8/8 
f 5/5/5 12/12/12 11/11/11 
f 12/12/12 5/5/5 4/4/4 
f 12/12/12 13/13/13 11/11/11 
f 11/11/11 13/13/13 8/8/8 
f 12/12/12 14/14/14 13/13/13 
f 8/8/8 13/13/13 14/14/14 
f 12/12/12 4/4/4 15/15/15 
f 9/9/9 10/10/10 15/15/15 
f 9/9/9 15/15/15 4/4/4 
f 12/12/12 15/15/15 16/16/16 
f 12/12/12 16/16/16 14/14/14 
f 8/8/8 14/14/14 16/16/16 
f 17/17/17 18/18/18 19/19/19 
f 20/20/20 21/21/21 22/22/22 
f 23/23/23 21/21/21 20/20/20 
f 24/24/24 25/25/25 26/26/26 
f 26/26/26 25/25/25 27/27/27 

