v -0.9711334705352783 0.5806734561920166 2.4918100833892822
v -0.9509902000427246 0.5545009970664978 0.5070013999938965
v -0.9711059331893921 -0.47110602259635925 0.5288145542144775
v -0.9753953218460083 -0.4578828811645508 1.7636398077011108
v 0.20983195304870605 -0.3975706398487091 1.759264588356018
v -0.2262500524520874 0.5898149013519287 2.4889707565307617
v 0.5523241758346558 -0.3193824291229248 1.7849258184432983
v 0.5928635001182556 -0.4851801097393036 0.5149167776107788
v 0.5763673782348633 0.5763671398162842 0.5288674831390381
v 0.19020450115203857 0.4253208339214325 2.267401695251465
v -0.2262500524520874 0.5898149013519287 2.4889707565307617
v 0.5618088245391846 0.6857824325561523 2.3547794818878174
v 0.5763673782348633 0.5763671398162842 0.5288674831390381
v -0.9711334705352783 0.8592567443847656 2.421171188354492
v -0.2262500524520874 0.8683981895446777 2.418332099914551
v 0.15545833110809326 0.8638274073600769 2.4197516441345215
v 0.15545833110809326 0.8638274073600769 2.4197516441345215
v 0.15545833110809326 0.8638274073600769 2.4197516441345215
v 0.5618088245391846 0.6857824325561523 2.3547794818878174
v -0.2262500524520874 0.8683981895446777 2.418332099914551
v -0.9509902000427246 0.5545009970664978 0.5070013999938965
v -0.9711334705352783 0.8592567443847656 2.421171188354492
v -0.9711334705352783 0.5806734561920166 2.4918100833892822
v 0.19020450115203857 0.4253208339214325 2.267401695251465
v 0.5618088245391846 0.6857824325561523 2.3547794818878174
v 0.15545833110809326 0.8638274073600769 2.4197516441345215
vn -0.6000796556472778 -0.13108719885349274 0.7891265153884888
vn -0.5778684616088867 0.5243282914161682 -0.6254181265830994
vn -0.5111346244812012 -0.5851908922195435 -0.6295179724693298
vn -0.5732391476631165 -0.7334741950035095 0.36525672674179077
vn 0.13979272544384003 -0.8979983925819397 0.4172012209892273
vn 0.1317339539527893 -0.20389021933078766 0.9700901508331299
vn 0.6664485335350037 -0.6296215653419495 0.3992781639099121
vn 0.5886229872703552 -0.5531498789787292 -0.589532196521759
vn 0.5926976203918457 0.5307834148406982 -0.6057875752449036
vn 0.12967367470264435 -0.4164113998413086 0.8998811841011047
vn 0.1317339539527893 -0.20389021933078766 0.9700901508331299
vn 0.688521146774292 0.2965379059314728 0.6618185043334961
vn 0.5926976203918457 0.5307834148406982 -0.6057875752449036
vn -0.5885526537895203 0.6743107438087463 0.4459940791130066
vn 0.10895896703004837 0.7786659598350525 0.6179056167602539
vn 0.16635224223136902 0.9796956777572632 -0.11190769821405411
vn 0.16635224223136902 0.9796956777572632 -0.11190769821405411
vn 0.17586885392665863 -0.17009656131267548 0.9696067571640015
vn 0.688521146774292 0.2965379059314728 0.6618185043334961
vn 0.10895896703004837 0.7786659598350525 0.6179056167602539
vn -0.5778684616088867 0.5243282914161682 -0.6254181265830994
vn -0.5885526537895203 0.6743107438087463 0.4459940791130066
vn -0.6000796556472778 -0.13108719885349274 0.7891265153884888
vn 0.12967367470264435 -0.4164113998413086 0.8998811841011047
vn 0.688521146774292 0.2965379059314728 0.6618185043334961
vn 0.17586885392665863 -0.17009656131267548 0.9696067571640015
vt 0.0 0.0
vt 0.0 1.0
vt 0.0 1.0
vt 0.0 1.0
vt 0.0 1.0
vt 0.0 1.0
vt 0.0 1.0
vt 0.0 1.0
vt 0.0 1.0
vt 1.0 0.0
vt 0.0 1.0
vt 0.0 0.7521074265241623
vt 0.0 1.0
vt 1.0 0.0
vt 1.0 1.0
vt 1.0 1.0
vt 1.0 1.0
vt 1.0 1.0
vt 0.36417680978775024 0.47335749864578247
vt 1.0 1.0
vt 0.0 1.0
vt 1.0 0.0
vt 0.0 0.0
vt 1.0 0.0
vt 0.0 0.7521074265241623
vt 1.0 1.0

g T_Rex_Head_R_Col3
s 1
usemtl T_Rex_Head_R_Col3
f 1/1/1 2/2/2 3/3/3 
f 1/1/1 3/3/3 4/4/4 
f 1/1/1 4/4/4 5/5/5 
f 4/4/4 3/3/3 5/5/5 
f 5/5/5 6/6/6 1/1/1 
f 7/7/7 5/5/5 3/3/3 
f 3/3/3 8/8/8 7/7/7 
f 9/9/9 8/8/8 3/3/3 
f 9/9/9 3/3/3 2/2/2 
f 7/7/7 10/10/10 5/5/5 
f 5/5/5 10/10/10 11/11/11 
f 12/12/12 10/10/10 7/7/7 
f 7/7/7 8/8/8 13/13/13 
f 7/7/7 13/13/13 12/12/12 
f 6/6/6 14/14/14 1/1/1 
f 6/6/6 15/15/15 14/14/14 
f 9/9/9 15/15/15 16/16/16 
f 16/16/16 15/15/15 6/6/6 
f 11/11/11 10/10/10 17/17/17 
f 9/9/9 18/18/18 19/19/19 
f 20/20/20 9/9/9 21/21/21 
f 20/20/20 21/21/21 22/22/22 
f 22/22/22 21/21/21 23/23/23 
f 24/24/24 25/25/25 26/26/26 

