v 0.2287859171628952 0.7422065734863281 4.299492835998535
v 0.5294642448425293 0.5610275864601135 3.000655174255371
v 0.48652681708335876 0.14900989830493927 3.4778659343719482
v 0.19478654861450195 0.5687597393989563 2.4734301567077637
v 0.2197459191083908 0.09567475318908691 4.458727836608887
v 0.5196001529693604 0.6999731063842773 2.235640048980713
v 0.1764305830001831 0.7467341423034668 2.251201629638672
v 0.21493101119995117 1.4137306213378906 2.4090654850006104
v 0.2287859171628952 0.7422065734863281 4.299492835998535
v 0.12252068519592285 0.2039799690246582 5.249209403991699
v 0.07579982280731201 0.48088979721069336 5.182177543640137
v 0.2335287183523178 0.12114143371582031 5.010284423828125
v 0.2197459191083908 0.09567475318908691 4.458727836608887
v 0.48652681708335876 0.14900989830493927 3.4778659343719482
v 0.2335287183523178 0.12114143371582031 5.010284423828125
v 0.38786470890045166 0.03402543067932129 4.470584392547607
v 0.5455652475357056 0.15127094089984894 3.515455961227417
v 0.5294642448425293 0.5610275864601135 3.000655174255371
v 0.6407564282417297 0.7477724552154541 4.301205635070801
v 0.8308994770050049 0.58412766456604 3.5046331882476807
v 0.6600778102874756 1.3881195783615112 2.462883472442627
v 0.5196001529693604 0.6999731063842773 2.235640048980713
v 0.4032500684261322 1.3753451108932495 3.243126392364502
v 0.21493101119995117 1.4137306213378906 2.4090654850006104
v 0.12252068519592285 0.2039799690246582 5.249209403991699
v 0.07579982280731201 0.48088979721069336 5.182177543640137
v 0.2287859171628952 0.7422065734863281 4.299492835998535
v 0.21493101119995117 1.4137306213378906 2.4090654850006104
v 0.6600778102874756 1.3881195783615112 2.462883472442627
v 0.5196001529693604 0.6999731063842773 2.235640048980713
v 0.1764305830001831 0.7467341423034668 2.251201629638672
vn -0.8795268535614014 0.45205190777778625 0.1485990285873413
vn 0.1390981525182724 -0.8616645932197571 -0.4880429804325104
vn -0.5283806324005127 -0.7838569283485413 -0.32616275548934937
vn -0.6977062225341797 -0.5799837112426758 -0.4205054044723511
vn -0.8322322368621826 -0.5538084506988525 -0.026183879002928734
vn 0.5108782052993774 -0.28827518224716187 -0.8098769783973694
vn -0.6113634705543518 -0.16960175335407257 -0.7729618549346924
vn -0.5698872804641724 0.7021445631980896 -0.4268740713596344
vn -0.8795268535614014 0.45205190777778625 0.1485990285873413
vn -0.17622007429599762 -0.2958948314189911 0.9388251900672913
vn -0.3249287009239197 0.5029735565185547 0.8008987307548523
vn 0.4532386362552643 -0.753014326095581 0.47701603174209595
vn -0.8322322368621826 -0.5538084506988525 -0.026183879002928734
vn -0.5283806324005127 -0.7838569283485413 -0.32616275548934937
vn 0.4532386362552643 -0.753014326095581 0.47701603174209595
vn 0.6050587296485901 -0.747900664806366 0.2730354964733124
vn 0.5693238377571106 -0.821841299533844 -0.021148497238755226
vn 0.1390981525182724 -0.8616645932197571 -0.4880429804325104
vn 0.628879189491272 0.5531555414199829 0.5463789701461792
vn 0.9970888495445251 0.026029100641608238 0.0716683566570282
vn 0.6407178044319153 0.6103024482727051 -0.4658450484275818
vn 0.5108782052993774 -0.28827518224716187 -0.8098769783973694
vn 0.06175389140844345 0.919762372970581 0.3875870108604431
vn -0.5698872804641724 0.7021445631980896 -0.4268740713596344
vn -0.17622007429599762 -0.2958948314189911 0.9388251900672913
vn -0.3249287009239197 0.5029735565185547 0.8008987307548523
vn -0.8795268535614014 0.45205190777778625 0.1485990285873413
vn -0.5698872804641724 0.7021445631980896 -0.4268740713596344
vn 0.6407178044319153 0.6103024482727051 -0.4658450484275818
vn 0.5108782052993774 -0.28827518224716187 -0.8098769783973694
vn -0.6113634705543518 -0.16960175335407257 -0.7729618549346924
vt 0.5768577456474304 0.0
vt 0.3878302276134491 0.6798162460327148
vt 0.4382737874984741 0.6828709542751312
vt 0.0 1.0
vt 0.49968475103378296 0.6667610704898834
vt 0.3626019060611725 0.60068479180336
vt 1.0 1.0
vt 0.0 1.0
vt 0.49881696701049805 0.6661101579666138
vt 0.4995865821838379 0.6666666567325592
vt 0.515265703201294 0.6666666567325592
vt 0.499984472990036 0.6666114330291748
vt 0.49968475103378296 0.6667610704898834
vt 0.4382737874984741 0.6828709542751312
vt 0.499984472990036 0.6666114330291748
vt 0.4925498068332672 0.6668968498706818
vt 0.44107574224472046 0.6692283451557159
vt 0.3878302276134491 0.6798162460327148
vt 0.47900649905204773 0.5023000538349152
vt 0.4339921772480011 0.5033476054668427
vt 0.37678951025009155 0.47408103942871094
vt 0.3626019060611725 0.60068479180336
vt 0.4090527594089508 0.42670369148254395
vt 0.0 1.0
vt 0.4995865821838379 0.6666666567325592
vt 0.515265703201294 0.6666666567325592
vt 0.5768577456474304 0.0
vt 0.0 1.0
vt 0.3737545609474182 0.49969029426574707
vt 0.3626019060611725 0.60068479180336
vt 1.0 1.0

g T_Rex_Nose_R_Col3
s 1
usemtl T_Rex_Nose_R_Col3
f 1/1/1 2/2/2 3/3/3 
f 1/1/1 4/4/4 2/2/2 
f 1/1/1 3/3/3 5/5/5 
f 4/4/4 6/6/6 2/2/2 
f 4/4/4 7/7/7 6/6/6 
f 1/1/1 7/7/7 4/4/4 
f 1/1/1 8/8/8 7/7/7 
f 9/9/9 5/5/5 10/10/10 
f 9/9/9 10/10/10 11/11/11 
f 10/10/10 5/5/5 12/12/12 
f 13/13/13 14/14/14 15/15/15 
f 14/14/14 16/16/16 15/15/15 
f 16/16/16 14/14/14 17/17/17 
f 14/14/14 18/18/18 17/17/17 
f 17/17/17 19/19/19 16/16/16 
f 15/15/15 16/16/16 19/19/19 
f 17/17/17 20/20/20 19/19/19 
f 17/17/17 18/18/18 20/20/20 
f 18/18/18 21/21/21 20/20/20 
f 18/18/18 22/22/22 21/21/21 
f 20/20/20 21/21/21 23/23/23 
f 20/20/20 23/23/23 19/19/19 
f 21/21/21 24/24/24 23/23/23 
f 19/19/19 25/25/25 15/15/15 
f 19/19/19 26/26/26 25/25/25 
f 23/23/23 24/24/24 27/27/27 
f 23/23/23 27/27/27 19/19/19 
f 19/19/19 27/27/27 26/26/26 
f 28/28/28 29/29/29 30/30/30 
f 28/28/28 30/30/30 31/31/31 

