v 0.9696215391159058 -1.7662023305892944 0.12046142667531967
v -0.9696215391159058 -2.051981210708618 -0.10777099430561066
v 0.4651128947734833 -1.9829332828521729 -0.7595531940460205
v -0.4412856996059418 -2.097996711730957 -0.7595531940460205
v 0.425200492143631 -1.724432349205017 0.7595531940460205
v -0.4412854015827179 -1.8344298601150513 0.7595531940460205
v 0.014059753157198429 2.097996711730957 0.3678247034549713
v -0.3145730495452881 1.8057067394256592 -0.7595531940460205
v -0.2682721018791199 2.0153355598449707 0.7595531940460205
v -0.4412854015827179 1.9349498748779297 0.7595531940460205
v -0.4412856996059418 1.746834635734558 -0.7595531940460205
v 0.014059753157198429 2.097996711730957 0.3678247034549713
v 0.5597646832466125 1.8856042623519897 0.6024389266967773
v 0.9696215391159058 1.4456090927124023 0.12046142667531967
v 0.4651128947734833 1.3594030141830444 -0.7595531940460205
v -0.3145730495452881 1.8057067394256592 -0.7595531940460205
v 0.5597646832466125 1.8856042623519897 0.6024389266967773
v 0.014059753157198429 2.097996711730957 0.3678247034549713
v 0.425200492143631 1.857308268547058 0.7595531940460205
v -0.2682721018791199 2.0153355598449707 0.7595531940460205
v -0.9696215391159058 1.637152075767517 -0.10777099430561066
v -0.4412854015827179 1.9349498748779297 0.7595531940460205
v -0.4412856996059418 1.746834635734558 -0.7595531940460205
v 0.9696215391159058 -1.7662023305892944 0.12046142667531967
v 0.9696215391159058 1.4456090927124023 0.12046142667531967
v 0.425200492143631 -1.724432349205017 0.7595531940460205
v 0.5597646832466125 1.8856042623519897 0.6024389266967773
v 0.425200492143631 1.857308268547058 0.7595531940460205
v -0.2682721018791199 2.0153355598449707 0.7595531940460205
v -0.4412854015827179 -1.8344298601150513 0.7595531940460205
v 0.425200492143631 1.857308268547058 0.7595531940460205
v 0.425200492143631 -1.724432349205017 0.7595531940460205
v -0.4412854015827179 1.9349498748779297 0.7595531940460205
v -0.4412854015827179 1.9349498748779297 0.7595531940460205
v -0.9696215391159058 1.637152075767517 -0.10777099430561066
v -0.4412854015827179 -1.8344298601150513 0.7595531940460205
v -0.9696215391159058 -2.051981210708618 -0.10777099430561066
v -0.4412856996059418 1.746834635734558 -0.7595531940460205
v -0.4412856996059418 -2.097996711730957 -0.7595531940460205
v -0.9696215391159058 1.637152075767517 -0.10777099430561066
v -0.9696215391159058 -2.051981210708618 -0.10777099430561066
v -0.3145730495452881 1.8057067394256592 -0.7595531940460205
v -0.4412856996059418 -2.097996711730957 -0.7595531940460205
v -0.4412856996059418 1.746834635734558 -0.7595531940460205
v 0.4651128947734833 1.3594030141830444 -0.7595531940460205
v 0.4651128947734833 -1.9829332828521729 -0.7595531940460205
v 0.4651128947734833 -1.9829332828521729 -0.7595531940460205
v 0.4651128947734833 1.3594030141830444 -0.7595531940460205
v 0.9696215391159058 -1.7662023305892944 0.12046142667531967
v 0.9696215391159058 1.4456090927124023 0.12046142667531967
vn 0.12411054968833923 -0.9776617884635925 0.16962917149066925
vn 0.12411054968833923 -0.9776617884635925 0.16962914168834686
vn 0.12411054968833923 -0.9776617884635925 0.16962917149066925
vn 0.12411008775234222 -0.9776625037193298 0.1696254312992096
vn 0.12411105632781982 -0.9776625633239746 0.1696239411830902
vn 0.12411105632781982 -0.9776625633239746 0.1696239411830902
vn -0.4187113642692566 0.9012355804443359 -0.11160270869731903
vn -0.4187113344669342 0.9012355804443359 -0.11160271614789963
vn -0.418711394071579 0.9012355804443359 -0.11160270869731903
vn -0.4187295138835907 0.9012272357940674 -0.11160160601139069
vn -0.4187219440937042 0.9012307524681091 -0.1116020455956459
vn 0.46594133973121643 0.813992440700531 -0.3468645215034485
vn 0.46594133973121643 0.8139923810958862 -0.34686458110809326
vn 0.4659413993358612 0.8139923810958862 -0.3468645513057709
vn 0.4659416973590851 0.813992977142334 -0.3468627333641052
vn 0.4659416675567627 0.8139930963516235 -0.3468627333641052
vn 0.20864933729171753 0.9156452417373657 0.34359753131866455
vn 0.20864930748939514 0.9156452417373657 0.34359753131866455
vn 0.20864929258823395 0.9156452417373657 0.3435974717140198
vn 0.2086552083492279 0.9156431555747986 0.34359943866729736
vn -0.33674728870391846 0.9344577193260193 -0.1157158613204956
vn -0.33674728870391846 0.9344577193260193 -0.1157158687710762
vn -0.33674734830856323 0.9344577193260193 -0.115715891122818
vn 0.7612376809120178 0.0 0.6484730243682861
vn 0.761237621307373 0.0 0.6484730243682861
vn 0.761237621307373 0.0 0.6484730839729309
vn 0.7617143392562866 -0.00019475586304906756 0.6479129791259766
vn 0.7595075368881226 0.0 0.6504985690116882
vn 0.0 0.0 1.0
vn 0.0 0.0 1.0
vn 0.0 0.0 1.0
vn 0.0 0.0 1.0
vn -1.1979554983554408e-06 0.0 1.0
vn -0.8540236353874207 0.0 0.5202341675758362
vn -0.8540236353874207 0.0 0.5202341675758362
vn -0.8540236353874207 0.0 0.5202341675758362
vn -0.8540237545967102 0.0 0.5202339887619019
vn -0.7768351435661316 0.0 -0.6297040581703186
vn -0.7768350839614868 0.0 -0.6297040581703186
vn -0.7768351435661316 0.0 -0.6297040581703186
vn -0.7768353223800659 0.0 -0.6297038197517395
vn -4.0089690855893423e-07 0.0 -1.0
vn -4.0089690855893423e-07 0.0 -1.0
vn -4.0089690855893423e-07 0.0 -1.0
vn 0.0 0.0 -1.0
vn 0.0 0.0 -1.0
vn 0.867544412612915 0.0 -0.4973596930503845
vn 0.867544412612915 0.0 -0.4973597526550293
vn 0.867544412612915 0.0 -0.4973598122596741
vn 0.8675445318222046 0.0 -0.49735957384109497
vt 0.799979031085968 0.0826948881149292
vt 0.7612154483795166 0.41206133365631104
vt 0.6505149006843567 0.16838204860687256
vt 0.6505149006843567 0.32232731580734253
vt 0.9085241556167603 0.17516082525253296
vt 0.9085241556167603 0.3223271369934082
vt 0.453453004360199 0.16428720951080322
vt 0.6449297666549683 0.2201029658317566
vt 0.3869204819202423 0.21223914623260498
vt 0.3869204819202423 0.24162405729293823
vt 0.6449297666549683 0.24162405729293823
vt 0.453453004360199 0.16428720951080322
vt 0.4136052429676056 0.07160276174545288
vt 0.4954659342765808 0.0019918084144592285
vt 0.6449297666549683 0.08767914772033691
vt 0.6449297666549683 0.2201029658317566
vt 0.4136052429676056 0.07160276174545288
vt 0.453453004360199 0.16428720951080322
vt 0.3869204819202423 0.09445774555206299
vt 0.3869204819202423 0.21223914623260498
vt 0.5342295169830322 0.33135831356048584
vt 0.3869204819202423 0.24162405729293823
vt 0.6449297666549683 0.24162405729293823
vt 0.001813456299714744 0.9494702033698559
vt 0.001813456299714744 0.40396738052368164
vt 0.09427940845489502 0.9423758238554001
vt 0.07142457365989685 0.3292372226715088
vt 0.09427940845489502 0.33404314517974854
vt 0.21206079423427582 0.30720341205596924
vt 0.24144570529460907 0.9610581919550896
vt 0.09427940845489502 0.33404314517974854
vt 0.09427940845489502 0.9423758238554001
vt 0.24144570529460907 0.32085615396499634
vt 0.24144570529460907 0.32085615396499634
vt 0.3311799168586731 0.37143492698669434
vt 0.24144570529460907 0.9610581919550896
vt 0.3311799168586731 0.9980078206863254
vt 0.49126073718070984 0.9880083659663796
vt 0.49126073718070984 0.33499181270599365
vt 0.5809947848320007 0.9693798404186964
vt 0.5809947848320007 0.34280699491500854
vt 0.46973946690559387 0.9980078206863254
vt 0.49126073718070984 0.33499181270599365
vt 0.49126073718070984 0.9880083659663796
vt 0.33731546998023987 0.9222063571214676
vt 0.33731546998023987 0.3545342683792114
vt 0.5874782204627991 0.9980078206863254
vt 0.5874782204627991 0.4303357005119324
vt 0.7369423508644104 0.9611974880099297
vt 0.7369423508644104 0.4156947135925293

g equalizer_crystal_004_shard_003
s 1
usemtl equalizer_crystal_004_shard_003
f 1/1/1 2/2/2 3/3/3 
f 4/4/4 3/3/3 2/2/2 
f 2/2/2 1/1/1 5/5/5 
f 5/5/5 6/6/6 2/2/2 
f 7/7/7 8/8/8 9/9/9 
f 10/10/10 9/9/9 8/8/8 
f 11/11/11 10/10/10 8/8/8 
f 12/12/12 13/13/13 14/14/14 
f 15/15/15 12/12/12 14/14/14 
f 16/16/16 12/12/12 15/15/15 
f 17/17/17 18/18/18 19/19/19 
f 18/18/18 20/20/20 19/19/19 
f 21/21/21 22/22/22 23/23/23 
f 24/24/24 25/25/25 26/26/26 
f 27/27/27 26/26/26 25/25/25 
f 26/26/26 27/27/27 28/28/28 
f 29/29/29 30/30/30 31/31/31 
f 32/32/32 31/31/31 30/30/30 
f 30/30/30 29/29/29 33/33/33 
f 34/34/34 35/35/35 36/36/36 
f 36/36/36 35/35/35 37/37/37 
f 38/38/38 39/39/39 40/40/40 
f 41/41/41 40/40/40 39/39/39 
f 42/42/42 43/43/43 44/44/44 
f 43/43/43 42/42/42 45/45/45 
f 46/46/46 43/43/43 45/45/45 
f 47/47/47 48/48/48 49/49/49 
f 50/50/50 49/49/49 48/48/48 

