v 0.4628356695175171 -0.7630541920661926 0.7230810523033142
v -0.3646664321422577 -1.55084228515625 0.7277685403823853
v 0.8533099293708801 0.055787961930036545 0.046757809817790985
v -0.8533099293708801 -1.60720694065094 0.11414062231779099
v -0.43243011832237244 -0.6497033834457397 -0.7277685403823853
v 0.5076647996902466 0.1251055896282196 -0.5519189238548279
v -0.43243011832237244 -0.6497033834457397 -0.7277685403823853
v -0.43243011832237244 1.2194139957427979 -0.7277685403823853
v 0.5076647996902466 0.1251055896282196 -0.5519189238548279
v 0.5076647996902466 1.4920116662979126 -0.5519189238548279
v -0.8533099293708801 -1.60720694065094 0.11414062231779099
v -0.8533099293708801 1.123177409172058 0.11414062231779099
v -0.43243011832237244 -0.6497033834457397 -0.7277685403823853
v -0.43243011832237244 1.2194139957427979 -0.7277685403823853
v 0.8533099293708801 1.60720694065094 0.046757809817790985
v 0.8533099293708801 0.055787961930036545 0.046757809817790985
v 0.5076647996902466 1.4920116662979126 -0.5519189238548279
v 0.5076647996902466 0.1251055896282196 -0.5519189238548279
v -0.3646664321422577 -1.55084228515625 0.7277685403823853
v -0.8533099293708801 1.123177409172058 0.11414062231779099
v -0.8533099293708801 -1.60720694065094 0.11414062231779099
v -0.3646664321422577 1.2795056104660034 0.7277685403823853
v 0.4628356695175171 1.5149853229522705 0.7230810523033142
v 0.8533099293708801 0.055787961930036545 0.046757809817790985
v 0.8533099293708801 1.60720694065094 0.046757809817790985
v 0.4628356695175171 -0.7630541920661926 0.7230810523033142
v 0.4628356695175171 -0.7630541920661926 0.7230810523033142
v -0.3646664321422577 1.2795056104660034 0.7277685403823853
v -0.3646664321422577 -1.55084228515625 0.7277685403823853
v 0.4628356695175171 1.5149853229522705 0.7230810523033142
v 0.4628356695175171 1.5149853229522705 0.7230810523033142
v -0.8533099293708801 1.123177409172058 0.11414062231779099
v -0.3646664321422577 1.2795056104660034 0.7277685403823853
v -0.43243011832237244 1.2194139957427979 -0.7277685403823853
v 0.8533099293708801 1.60720694065094 0.046757809817790985
v 0.5076647996902466 1.4920116662979126 -0.5519189238548279
vn 0.6200117468833923 -0.6538480520248413 -0.433668315410614
vn 0.6200118064880371 -0.6538479924201965 -0.4336683750152588
vn 0.6200118064880371 -0.6538479924201965 -0.4336683750152588
vn 0.620011568069458 -0.6538482308387756 -0.43366819620132446
vn 0.6200110912322998 -0.6538476943969727 -0.43366971611976624
vn 0.6200098991394043 -0.6538487672805786 -0.433669775724411
vn 0.18386641144752502 0.0 -0.9829512238502502
vn 0.18386642634868622 0.0 -0.9829512238502502
vn 0.18386639654636383 0.0 -0.9829512238502502
vn 0.18386605381965637 0.0 -0.9829513430595398
vn -0.8944589495658875 0.0 -0.4471500515937805
vn -0.8944589495658875 0.0 -0.44715002179145813
vn -0.8944589495658875 0.0 -0.44715002179145813
vn -0.8944588303565979 0.0 -0.44715023040771484
vn 0.8660262227058411 0.0 -0.4999985992908478
vn 0.8660261631011963 0.0 -0.49999871850013733
vn 0.8660261631011963 0.0 -0.49999868869781494
vn 0.8660258650779724 0.0 -0.4999992251396179
vn -0.7822715044021606 0.0 0.6229375600814819
vn -0.7822715640068054 0.0 0.6229375004768372
vn -0.7822715044021606 0.0 0.6229376196861267
vn -0.7822715044021606 0.0 0.6229376196861267
vn 0.8660262227058411 0.0 0.4999985098838806
vn 0.8660262227058411 0.0 0.499998539686203
vn 0.8660262227058411 0.0 0.499998539686203
vn 0.8660260438919067 0.0 0.4999988079071045
vn 0.005664518103003502 0.0 0.9999840259552002
vn 0.005664518103003502 0.0 0.9999840259552002
vn 0.005664518103003502 0.0 0.9999840259552002
vn 0.005664604250341654 0.0 0.9999840259552002
vn -0.2737426161766052 0.9614253044128418 -0.02694808691740036
vn -0.2737426161766052 0.9614253044128418 -0.02694808878004551
vn -0.2737426161766052 0.9614253044128418 -0.02694809064269066
vn -0.27374184131622314 0.9614255428314209 -0.02694806642830372
vn -0.2737419605255127 0.9614255428314209 -0.026949388906359673
vn -0.2737419307231903 0.9614255428314209 -0.026949388906359673
vt 0.2881726920604706 0.8314327746629715
vt 0.28909769654273987 0.9868856398388743
vt 0.1547149121761322 0.6698518395423889
vt 0.16801148653030396 0.9980078942608088
vt 0.0018791015027090907 0.8090653717517853
vt 0.03657911345362663 0.6561734676361084
vt 0.9414247870445251 0.0019921064376831055
vt 0.9414247870445251 0.370821475982666
vt 0.7559173703193665 0.15488380193710327
vt 0.7559173703193665 0.42461317777633667
vt 0.5864394903182983 0.9980078942608088
vt 0.5864394903182983 0.45922577381134033
vt 0.7525720596313477 0.8090653717517853
vt 0.7525720596313477 0.44023561477661133
vt 0.1547149121761322 0.36371326446533203
vt 0.1547149121761322 0.6698518395423889
vt 0.03657911345362663 0.3864443302154541
vt 0.03657911345362663 0.6561734676361084
vt 0.46535325050354004 0.9868856398388743
vt 0.5864394903182983 0.45922577381134033
vt 0.5864394903182983 0.9980078942608088
vt 0.46535325050354004 0.42837780714035034
vt 0.2881726920604706 0.381911039352417
vt 0.1547149121761322 0.6698518395423889
vt 0.1547149121761322 0.36371326446533203
vt 0.2881726920604706 0.8314327746629715
vt 0.29621562361717224 0.8425550311803818
vt 0.45950523018836975 0.439500093460083
vt 0.45950523018836975 0.9980078942608088
vt 0.29621562361717224 0.3930332660675049
vt 0.4638362228870392 0.12955546379089355
vt 0.5839974284172058 0.3892682194709778
vt 0.4629111886024475 0.2928451895713806
vt 0.7501299977302551 0.306216835975647
vt 0.5972939729690552 0.052503883838653564
vt 0.7154296040534973 0.12070924043655396

g equalizer_crystal_005_shard_001
s 1
usemtl equalizer_crystal_005_shard_001
f 1/1/1 2/2/2 3/3/3 
f 2/2/2 4/4/4 3/3/3 
f 5/5/5 3/3/3 4/4/4 
f 5/5/5 6/6/6 3/3/3 
f 7/7/7 8/8/8 9/9/9 
f 9/9/9 8/8/8 10/10/10 
f 11/11/11 12/12/12 13/13/13 
f 12/12/12 14/14/14 13/13/13 
f 15/15/15 16/16/16 17/17/17 
f 18/18/18 17/17/17 16/16/16 
f 19/19/19 20/20/20 21/21/21 
f 19/19/19 22/22/22 20/20/20 
f 23/23/23 24/24/24 25/25/25 
f 26/26/26 24/24/24 23/23/23 
f 27/27/27 28/28/28 29/29/29 
f 27/27/27 30/30/30 28/28/28 
f 31/31/31 32/32/32 33/33/33 
f 34/34/34 32/32/32 31/31/31 
f 31/31/31 35/35/35 34/34/34 
f 35/35/35 36/36/36 34/34/34 

