v -0.45859649777412415 -0.7722973227500916 0.8312475681304932
v -0.961391270160675 1.155643343925476 -0.039616696536540985
v 0.4748782217502594 -0.5930224657058716 -0.8312475681304932
v -0.5166003108024597 1.2142821550369263 -0.80841064453125
v 0.961391270160675 -2.458531379699707 0.011418457143008709
v 0.48806244134902954 -2.5228917598724365 0.8312475681304932
v 0.4748782217502594 -0.5930224657058716 -0.8312475681304932
v -0.5166003108024597 1.2142821550369263 -0.80841064453125
v 0.47512754797935486 2.238657236099243 -0.8308129906654358
v -0.5166003108024597 2.496960401535034 -0.80841064453125
v -0.961391270160675 1.155643343925476 -0.039616696536540985
v -0.961391270160675 2.5228917598724365 -0.039616696536540985
v -0.5166003108024597 1.2142821550369263 -0.80841064453125
v -0.5166003108024597 2.496960401535034 -0.80841064453125
v 0.961391270160675 -2.458531379699707 0.011418457143008709
v 0.4748782217502594 -0.5930224657058716 -0.8312475681304932
v 0.47512754797935486 2.238657236099243 -0.8308129906654358
v 0.961391270160675 2.0108935832977295 0.011418457143008709
v -0.45859649777412415 -0.7722973227500916 0.8312475681304932
v -0.45859649777412415 2.287384033203125 0.8312475681304932
v -0.961391270160675 1.155643343925476 -0.039616696536540985
v -0.961391270160675 2.5228917598724365 -0.039616696536540985
v 0.961391270160675 2.0108935832977295 0.011418457143008709
v 0.48806244134902954 -2.5228917598724365 0.8312475681304932
v 0.961391270160675 -2.458531379699707 0.011418457143008709
v 0.48806244134902954 2.038285970687866 0.8312475681304932
v 0.48806244134902954 -2.5228917598724365 0.8312475681304932
v 0.48806244134902954 2.038285970687866 0.8312475681304932
v -0.45859649777412415 -0.7722973227500916 0.8312475681304932
v -0.45859649777412415 2.287384033203125 0.8312475681304932
v -0.45859649777412415 2.287384033203125 0.8312475681304932
v -0.5166003108024597 2.496960401535034 -0.80841064453125
v -0.961391270160675 2.5228917598724365 -0.039616696536540985
v 0.48806244134902954 2.038285970687866 0.8312475681304932
v 0.961391270160675 2.0108935832977295 0.011418457143008709
v 0.47512754797935486 2.238657236099243 -0.8308129906654358
vn -0.77230304479599 -0.41763314604759216 -0.478675901889801
vn -0.77230304479599 -0.41763314604759216 -0.4786759316921234
vn -0.7723029851913452 -0.41763317584991455 -0.478675901889801
vn -0.7723029851913452 -0.41763320565223694 -0.478675901889801
vn -0.7723028063774109 -0.417633593082428 -0.4786757528781891
vn -0.7723029851913452 -0.4176338016986847 -0.4786754846572876
vn -0.022743841633200645 0.0001554298505652696 -0.99974125623703
vn -0.022743841633200645 0.00015542983601335436 -0.99974125623703
vn -0.022743841633200645 0.0001554298505652696 -0.99974125623703
vn -0.022583577781915665 0.0 -0.9997449517250061
vn -0.8655726909637451 0.0 -0.5007831454277039
vn -0.8655726909637451 0.0 -0.5007832050323486
vn -0.8655728101730347 0.0 -0.5007831454277039
vn -0.865572988986969 0.0 -0.50078284740448
vn 0.8660260438919067 4.960344313076348e-07 -0.49999895691871643
vn 0.8660260438919067 4.960344313076348e-07 -0.49999895691871643
vn 0.8660260438919067 4.960344313076348e-07 -0.49999886751174927
vn 0.8660247921943665 0.0 -0.5000010132789612
vn -0.8660249710083008 0.0 0.5000007152557373
vn -0.8660249710083008 0.0 0.5000007152557373
vn -0.8660249710083008 0.0 0.5000007152557373
vn -0.8660247921943665 0.0 0.500001072883606
vn 0.8660253286361694 0.0 0.5000001192092896
vn 0.8660253286361694 0.0 0.5000001192092896
vn 0.8660253286361694 0.0 0.5000000596046448
vn 0.8660252690315247 0.0 0.5000002980232239
vn 0.0 0.0 1.0
vn 0.0 0.0 1.0
vn 0.0 0.0 1.0
vn 0.0 0.0 1.0
vn 0.25281763076782227 0.9607906937599182 0.11386116594076157
vn 0.25281763076782227 0.9607906937599182 0.11386116594076157
vn 0.25281766057014465 0.9607906937599182 0.11386118084192276
vn 0.2528171241283417 0.9607909321784973 0.11386124044656754
vn 0.2528175413608551 0.9607908129692078 0.1138606145977974
vn 0.2528175711631775 0.9607908129692078 0.11386062204837799
vt 0.0016905184602364898 0.7380433082580566
vt 0.13101457059383392 0.4517424702644348
vt 0.2485724240541458 0.7114208340644836
vt 0.24518105387687683 0.44303464889526367
vt 0.12343578785657883 0.9884503511711955
vt 0.0016905184602364898 0.998008037218824
vt 0.6551628112792969 0.539143294095993
vt 0.802398145198822 0.8075293451547623
vt 0.6551257967948914 0.959649883210659
vt 0.802398145198822 0.9980081890244037
vt 0.13101457059383392 0.4517424702644348
vt 0.13101457059383392 0.24870502948760986
vt 0.24518105387687683 0.44303464889526367
vt 0.24518105387687683 0.2525559067726135
vt 0.527223527431488 0.9884503511711955
vt 0.40208688378334045 0.7114208340644836
vt 0.4021514356136322 0.29091405868530273
vt 0.527223527431488 0.32473719120025635
vt 0.0016905184602364898 0.7380433082580566
vt 0.0016905184602364898 0.2836780548095703
vt 0.13101457059383392 0.4517424702644348
vt 0.13101457059383392 0.24870502948760986
vt 0.527223527431488 0.32473719120025635
vt 0.6489688158035278 0.998008037218824
vt 0.527223527431488 0.9884503511711955
vt 0.6489688158035278 0.3206692934036255
vt 0.25489455461502075 0.998008037218824
vt 0.25489455461502075 0.3206692934036255
vt 0.39547425508499146 0.7380433082580566
vt 0.39547425508499146 0.2836780548095703
vt 0.6000754833221436 0.21286112070083618
vt 0.8435660600662231 0.22147464752197266
vt 0.729399561882019 0.2875266671180725
vt 0.6000754833221436 0.07228142023086548
vt 0.7218207716941833 0.001991868019104004
vt 0.8468927145004272 0.07420241832733154

g equalizer_crystal_008_shard_001
s 1
usemtl equalizer_crystal_008_shard_001
f 1/1/1 2/2/2 3/3/3 
f 3/3/3 2/2/2 4/4/4 
f 3/3/3 5/5/5 1/1/1 
f 1/1/1 5/5/5 6/6/6 
f 7/7/7 8/8/8 9/9/9 
f 9/9/9 8/8/8 10/10/10 
f 11/11/11 12/12/12 13/13/13 
f 12/12/12 14/14/14 13/13/13 
f 15/15/15 16/16/16 17/17/17 
f 18/18/18 15/15/15 17/17/17 
f 19/19/19 20/20/20 21/21/21 
f 21/21/21 20/20/20 22/22/22 
f 23/23/23 24/24/24 25/25/25 
f 24/24/24 23/23/23 26/26/26 
f 27/27/27 28/28/28 29/29/29 
f 29/29/29 28/28/28 30/30/30 
f 31/31/31 32/32/32 33/33/33 
f 32/32/32 31/31/31 34/34/34 
f 32/32/32 34/34/34 35/35/35 
f 35/35/35 36/36/36 32/32/32 

