v 0.3784164488315582 1.9884346723556519 0.8116235136985779
v 1.0942602157592773 1.2687691450119019 -0.14237548410892487
v -0.3877410888671875 2.4314792156219482 0.06439208984375
v 0.22362273931503296 1.8055171966552734 -0.8116235136985779
v -0.5318368673324585 2.3787131309509277 -0.8116235136985779
v -1.0942602157592773 2.9255545139312744 -0.16252197325229645
v -0.5851287841796875 2.7024331092834473 0.7193188071250916
v -0.5318368673324585 2.3787131309509277 -0.8116235136985779
v 0.22362273931503296 1.8055171966552734 -0.8116235136985779
v -0.5318368673324585 -2.9255545139312744 -0.8116235136985779
v 0.22362273931503296 -2.9255545139312744 -0.8116235136985779
v -1.0942602157592773 2.9255545139312744 -0.16252197325229645
v -0.5318368673324585 2.3787131309509277 -0.8116235136985779
v -1.0942602157592773 -2.9255545139312744 -0.16252197325229645
v -0.5318368673324585 -2.9255545139312744 -0.8116235136985779
v 0.22362273931503296 1.8055171966552734 -0.8116235136985779
v 1.0942602157592773 1.2687691450119019 -0.14237548410892487
v 0.22362273931503296 -2.9255545139312744 -0.8116235136985779
v 1.0942602157592773 -2.9255545139312744 -0.14237548410892487
v -1.0942602157592773 2.9255545139312744 -0.16252197325229645
v -1.0942602157592773 -2.9255545139312744 -0.16252197325229645
v -0.5851287841796875 2.7024331092834473 0.7193188071250916
v -0.5851287841796875 -2.9255545139312744 0.7193188071250916
v 0.3784164488315582 1.9884346723556519 0.8116235136985779
v 0.3784164488315582 -2.9255545139312744 0.8116235136985779
v 1.0942602157592773 1.2687691450119019 -0.14237548410892487
v 1.0942602157592773 -2.9255545139312744 -0.14237548410892487
v -0.5851287841796875 2.7024331092834473 0.7193188071250916
v -0.5851287841796875 -2.9255545139312744 0.7193188071250916
v 0.3784164488315582 1.9884346723556519 0.8116235136985779
v 0.3784164488315582 -2.9255545139312744 0.8116235136985779
v 0.22362273931503296 -2.9255545139312744 -0.8116235136985779
v 1.0942602157592773 -2.9255545139312744 -0.14237548410892487
v -1.0942602157592773 -2.9255545139312744 -0.16252197325229645
v -0.5318368673324585 -2.9255545139312744 -0.8116235136985779
v -0.5851287841796875 -2.9255545139312744 0.7193188071250916
v 0.3784164488315582 -2.9255545139312744 0.8116235136985779
vn 0.5979832410812378 0.7881295084953308 -0.14583542943000793
vn 0.5979832410812378 0.7881295084953308 -0.14583536982536316
vn 0.597983181476593 0.7881295084953308 -0.14583538472652435
vn 0.5979833006858826 0.788129448890686 -0.14583486318588257
vn 0.5979835987091064 0.7881295084953308 -0.145833820104599
vn 0.5979838371276855 0.7881291508674622 -0.14583440124988556
vn 0.5979840755462646 0.7881285548210144 -0.14583720266819
vn 0.0 0.0 -1.0
vn 0.0 0.0 -1.0
vn 0.0 0.0 -1.0
vn 0.0 0.0 -1.0
vn -0.7557647824287415 0.0 -0.6548431515693665
vn -0.7557647824287415 0.0 -0.6548433303833008
vn -0.7557647824287415 0.0 -0.6548433303833008
vn -0.7557647228240967 0.0 -0.654843270778656
vn 0.60944002866745 0.0 -0.7928321957588196
vn 0.60944002866745 0.0 -0.7928321957588196
vn 0.60944002866745 0.0 -0.7928321957588196
vn 0.60944002866745 0.0 -0.7928321957588196
vn -0.8660252690315247 0.0 0.5000003576278687
vn -0.8660252690315247 0.0 0.5000004172325134
vn -0.8660252690315247 0.0 0.5000003576278687
vn -0.8660252690315247 0.0 0.5000002980232239
vn 0.7998613119125366 0.0 0.6001848578453064
vn 0.7998613119125366 0.0 0.6001849174499512
vn 0.7998612523078918 0.0 0.6001849174499512
vn 0.7998612523078918 0.0 0.6001849174499512
vn -0.09536024928092957 0.0 0.9954427480697632
vn -0.09536024928092957 0.0 0.9954427480697632
vn -0.09536026418209076 0.0 0.9954427480697632
vn -0.09536039084196091 0.0 0.9954427480697632
vn 0.0 -1.0 0.0
vn 0.0 -1.0 0.0
vn 0.0 -1.0 0.0
vn 0.0 -1.0 0.0
vn 0.0 -1.0 0.0
vn 0.0 -1.0 0.0
vt 0.9980079531669617 0.5336190164089203
vt 0.8469340801239014 0.6475844085216522
vt 0.879677414894104 0.4634592533111572
vt 0.7409529089927673 0.5625855922698975
vt 0.7409529089927673 0.47181516885757446
vt 0.843743622303009 0.3852183222770691
vt 0.9833906888961792 0.42055147886276245
vt 0.2594984471797943 0.911549873650074
vt 0.1398649364709854 0.8207794427871704
vt 0.2594984471797943 0.07157355546951294
vt 0.1398649364709854 0.07157355546951294
vt 0.34856298565864563 0.9981467358302325
vt 0.2594984471797943 0.911549873650074
vt 0.34856298565864563 0.07157355546951294
vt 0.2594984471797943 0.07157355546951294
vt 0.1398649364709854 0.8207794427871704
vt 0.0019920484628528357 0.7357806265354156
vt 0.1398649364709854 0.07157355546951294
vt 0.0019920484628528357 0.07157355546951294
vt 0.7015182375907898 0.07157367467880249
vt 0.7015182375907898 0.9981468167388812
vt 0.6208930015563965 0.10690683126449585
vt 0.6208930015563965 0.9981468167388812
vt 0.4683072566986084 0.21997439861297607
vt 0.4683072566986084 0.9981468167388812
vt 0.3549472987651825 0.333939790725708
vt 0.3549472987651825 0.9981468167388812
vt 0.6208930015563965 0.10690683126449585
vt 0.6208930015563965 0.9981468167388812
vt 0.4683072566986084 0.21997439861297607
vt 0.4683072566986084 0.9981468167388812
vt 0.7077075839042664 0.7894487679004669
vt 0.8136887550354004 0.651575893163681
vt 0.8104982972145081 0.9981468167388812
vt 0.7077075839042664 0.9090822786092758
vt 0.9501453638076782 0.9175215661525726
vt 0.9647625684738159 0.7649358510971069

g equalizer_crystal_0010_shard_001
s 1
usemtl equalizer_crystal_0010_shard_001
f 1/1/1 2/2/2 3/3/3 
f 2/2/2 4/4/4 3/3/3 
f 4/4/4 5/5/5 3/3/3 
f 5/5/5 6/6/6 3/3/3 
f 6/6/6 7/7/7 3/3/3 
f 1/1/1 3/3/3 7/7/7 
f 8/8/8 9/9/9 10/10/10 
f 10/10/10 9/9/9 11/11/11 
f 12/12/12 13/13/13 14/14/14 
f 13/13/13 15/15/15 14/14/14 
f 16/16/16 17/17/17 18/18/18 
f 17/17/17 19/19/19 18/18/18 
f 20/20/20 21/21/21 22/22/22 
f 22/22/22 21/21/21 23/23/23 
f 24/24/24 25/25/25 26/26/26 
f 26/26/26 25/25/25 27/27/27 
f 28/28/28 29/29/29 30/30/30 
f 29/29/29 31/31/31 30/30/30 
f 32/32/32 33/33/33 34/34/34 
f 32/32/32 34/34/34 35/35/35 
f 33/33/33 36/36/36 34/34/34 
f 33/33/33 37/37/37 36/36/36 

