v 0.6952539086341858 1.4713497161865234 0.10458007454872131
v 0.17684218287467957 0.059488218277692795 0.7963818311691284
v 0.20336395502090454 0.17366668581962585 -0.7943212985992432
v 0.3373400866985321 0.49275726079940796 0.72450190782547
v -0.6952539086341858 -2.2412619590759277 -0.7963818311691284
v -0.1118151843547821 2.1628048419952393 0.2964160144329071
v -0.6952539086341858 0.8160213828086853 -0.7963818311691284
v -0.6952539086341858 -2.2412619590759277 -0.7963818311691284
v 0.17684218287467957 0.059488218277692795 0.7963818311691284
v 0.17684218287467957 1.9339913129806519 0.7963818311691284
v 0.3373400866985321 1.907204270362854 0.72450190782547
v -0.1118151843547821 2.1628048419952393 0.2964160144329071
v 0.17684218287467957 1.9339913129806519 0.7963818311691284
v -0.048228759318590164 2.2412619590759277 -0.042338866740465164
v 0.6952539086341858 1.9794137477874756 0.10458007454872131
v 0.3748721182346344 2.2412619590759277 -0.4778173863887787
v 0.17684218287467957 0.059488218277692795 0.7963818311691284
v 0.3373400866985321 0.49275726079940796 0.72450190782547
v 0.17684218287467957 1.9339913129806519 0.7963818311691284
v 0.3373400866985321 1.907204270362854 0.72450190782547
v 0.6952539086341858 1.9794137477874756 0.10458007454872131
v 0.3373400866985321 1.907204270362854 0.72450190782547
v 0.6952539086341858 1.4713497161865234 0.10458007454872131
v 0.3373400866985321 0.49275726079940796 0.72450190782547
v -0.6952539086341858 0.8160213828086853 -0.7963818311691284
v -0.048228759318590164 2.2412619590759277 -0.042338866740465164
v 0.00047698974958620965 2.2412619590759277 -0.79443359375
v -0.1118151843547821 2.1628048419952393 0.2964160144329071
v 0.3748721182346344 2.2412619590759277 -0.4778173863887787
v 0.20336395502090454 2.2412619590759277 -0.7943212985992432
v 0.00047698974958620965 2.2412619590759277 -0.79443359375
v -0.048228759318590164 2.2412619590759277 -0.042338866740465164
v 0.20336395502090454 0.17366668581962585 -0.7943212985992432
v 0.3748721182346344 2.2412619590759277 -0.4778173863887787
v 0.6952539086341858 1.4713497161865234 0.10458007454872131
v 0.6952539086341858 1.9794137477874756 0.10458007454872131
v 0.20336395502090454 2.2412619590759277 -0.7943212985992432
v 0.00047698974958620965 2.2412619590759277 -0.79443359375
v 0.20336395502090454 0.17366668581962585 -0.7943212985992432
v -0.6952539086341858 0.8160213828086853 -0.7963818311691284
v -0.6952539086341858 -2.2412619590759277 -0.7963818311691284
v 0.20336395502090454 2.2412619590759277 -0.7943212985992432
vn 0.9371780753135681 -0.3487245440483093 -0.009405620396137238
vn 0.9371780753135681 -0.3487245738506317 -0.009405621327459812
vn 0.9371780753135681 -0.3487245738506317 -0.009405621327459812
vn 0.9371788501739502 -0.3487224876880646 -0.009402699768543243
vn 0.9371780157089233 -0.3487248718738556 -0.009405478835105896
vn -0.8821472525596619 0.0 0.4709737002849579
vn -0.8821472525596619 0.0 0.47097375988960266
vn -0.8821472525596619 0.0 0.4709737002849579
vn -0.8742955327033997 -0.004612957593053579 0.48537197709083557
vn -0.8660238981246948 0.0 0.5000025033950806
vn 0.27319204807281494 0.9246154427528381 0.2654287815093994
vn 0.27319204807281494 0.9246154427528381 0.265428751707077
vn 0.27319204807281494 0.9246154427528381 0.2654288113117218
vn 0.2731962502002716 0.9246151447296143 0.2654254138469696
vn 0.27319058775901794 0.9246160984039307 0.2654280364513397
vn 0.2731911242008209 0.9246163964271545 0.26542648673057556
vn 0.40873751044273376 0.0 0.9126520156860352
vn 0.40873751044273376 0.0 0.9126520156860352
vn 0.40873751044273376 0.0 0.9126520156860352
vn 0.40873390436172485 0.0 0.9126535654067993
vn 0.8660240769386292 0.0 0.500002384185791
vn 0.8660240173339844 0.0 0.5000025033950806
vn 0.8660240769386292 0.0 0.500002384185791
vn 0.8660246133804321 0.0 0.5000014901161194
vn -0.897097110748291 0.43799713253974915 -0.058096595108509064
vn -0.897097110748291 0.43799713253974915 -0.05809658393263817
vn -0.897097110748291 0.43799710273742676 -0.05809658393263817
vn -0.8950179815292358 0.44114527106285095 -0.0658297911286354
vn 0.0 1.0 3.042475327674765e-06
vn 0.0 1.0 3.042475327674765e-06
vn 0.0 1.0 3.042475327674765e-06
vn 0.0 1.0 0.0
vn 0.8766874074935913 0.0009180560591630638 -0.4810595214366913
vn 0.8766875267028809 0.0009180561173707247 -0.4810595214366913
vn 0.8766875267028809 0.0009180561173707247 -0.4810595214366913
vn 0.8761757016181946 0.0 -0.4819919168949127
vn 0.8792120814323425 0.0 -0.4764305353164673
vn 0.0024242536164820194 0.00018356594955548644 -0.9999970197677612
vn 0.002424253849312663 0.00018356594955548644 -0.9999970197677612
vn 0.002424253849312663 0.00018356594955548644 -0.9999970197677612
vn 0.0022928460966795683 0.0 -0.9999973773956299
vn 0.0005531295319087803 0.0 -0.9999998807907104
vt 0.17422720789909363 0.2885527014732361
vt 0.3064776360988617 0.5584556460380554
vt 0.0023859068751335144 0.5366283357143402
vt 0.29273656010627747 0.4756283164024353
vt 0.00199198629707098 0.9982859083684161
vt 0.40959712862968445 0.15636861324310303
vt 0.6185051798820496 0.4138306975364685
vt 0.6185051798820496 0.9982859083684161
vt 0.3140193223953247 0.5584556460380554
vt 0.3140193223953247 0.20011037588119507
vt 0.9121437668800354 0.984545024111867
vt 0.9980080127716064 0.9027084857225418
vt 0.9428259134292603 0.9982862994074821
vt 0.9858522415161133 0.8379495292901993
vt 0.8437219858169556 0.8660357594490051
vt 0.9049689173698425 0.7546999603509903
vt 0.8358376622200012 0.9982859083684161
vt 0.8051554560661316 0.9154586121439934
vt 0.8358376622200012 0.6399406790733337
vt 0.8051554560661316 0.6450614333152771
vt 0.17422720789909363 0.19142693281173706
vt 0.29273656010627747 0.2052311897277832
vt 0.17422720789909363 0.2885527014732361
vt 0.29273656010627747 0.4756283164024353
vt 0.6185051798820496 0.4138306975364685
vt 0.474356085062027 0.14136993885040283
vt 0.6181325316429138 0.14136993885040283
vt 0.40959712862968445 0.15636861324310303
vt 0.9049689173698425 0.7546999603509903
vt 0.937755823135376 0.6941941678524017
vt 0.9765412211418152 0.6941730678081512
vt 0.9858522415161133 0.8379495292901993
vt 0.0023859068751335144 0.5366283357143402
vt 0.06289130449295044 0.14136993885040283
vt 0.17422720789909363 0.2885527014732361
vt 0.17422720789909363 0.19142693281173706
vt 0.0023859068751335144 0.14136993885040283
vt 0.6646372675895691 0.9982859083684161
vt 0.6258518099784851 0.6030274927616119
vt 0.7976388931274414 0.7258258759975433
vt 0.7976388931274414 0.1413707137107849
vt 0.6258518099784851 0.9982859083684161

g equalizer_crystal_0023_shard_001
s 1
usemtl equalizer_crystal_0023_shard_001
f 1/1/1 2/2/2 3/3/3 
f 2/2/2 1/1/1 4/4/4 
f 3/3/3 2/2/2 5/5/5 
f 6/6/6 7/7/7 8/8/8 
f 8/8/8 9/9/9 6/6/6 
f 9/9/9 10/10/10 6/6/6 
f 11/11/11 12/12/12 13/13/13 
f 14/14/14 12/12/12 11/11/11 
f 15/15/15 14/14/14 11/11/11 
f 16/16/16 14/14/14 15/15/15 
f 17/17/17 18/18/18 19/19/19 
f 18/18/18 20/20/20 19/19/19 
f 21/21/21 22/22/22 23/23/23 
f 23/23/23 22/22/22 24/24/24 
f 25/25/25 26/26/26 27/27/27 
f 28/28/28 26/26/26 25/25/25 
f 29/29/29 30/30/30 31/31/31 
f 32/32/32 29/29/29 31/31/31 
f 33/33/33 34/34/34 35/35/35 
f 35/35/35 34/34/34 36/36/36 
f 33/33/33 37/37/37 34/34/34 
f 38/38/38 39/39/39 40/40/40 
f 41/41/41 40/40/40 39/39/39 
f 39/39/39 38/38/38 42/42/42 

