v 1.0942602157592773 -2.807788133621216 -0.14237548410892487
v 0.3784164488315582 -2.088122606277466 0.8116235136985779
v 0.22362273931503296 -2.2710399627685547 -0.8116235136985779
v -1.0942602157592773 -1.1510027647018433 -0.16252197325229645
v -0.5282339453697205 -1.7005773782730103 -0.8116235136985779
v -0.5851287841796875 -1.3741241693496704 0.7193188071250916
v -0.5282339453697205 -1.7005773782730103 -0.8116235136985779
v -1.0942602157592773 -1.1510027647018433 -0.16252197325229645
v -0.5318368673324585 -1.69784414768219 -0.8116235136985779
v -0.5318368673324585 -1.69784414768219 -0.8116235136985779
v -1.0942602157592773 -1.1510027647018433 -0.16252197325229645
v -0.5282339453697205 -1.7005773782730103 -0.8116235136985779
v -0.5318368673324585 2.1526854038238525 -0.8116235136985779
v 0.3784164488315582 2.233593702316284 0.8116235136985779
v 0.22362273931503296 1.673122525215149 -0.8116235136985779
v -0.5851287841796875 2.807788133621216 0.7193188071250916
v -1.0942602157592773 2.773120164871216 -0.16252197325229645
v 1.0942602157592773 1.3920360803604126 -0.14237548410892487
v -0.5851287841796875 -1.3741241693496704 0.7193188071250916
v -0.5851287841796875 2.807788133621216 0.7193188071250916
v -1.0942602157592773 -1.1510027647018433 -0.16252197325229645
v -1.0942602157592773 2.773120164871216 -0.16252197325229645
v -1.0942602157592773 -1.1510027647018433 -0.16252197325229645
v -1.0942602157592773 2.773120164871216 -0.16252197325229645
v -0.5318368673324585 2.1526854038238525 -0.8116235136985779
v -0.5282339453697205 -1.7005773782730103 -0.8116235136985779
v -0.5318368673324585 -1.69784414768219 -0.8116235136985779
v -0.5282339453697205 -1.7005773782730103 -0.8116235136985779
v -0.5318368673324585 2.1526854038238525 -0.8116235136985779
v -0.5282339453697205 -1.7005773782730103 -0.8116235136985779
v -0.5318368673324585 -1.69784414768219 -0.8116235136985779
v -0.5318368673324585 2.1526854038238525 -0.8116235136985779
v 0.22362273931503296 -2.2710399627685547 -0.8116235136985779
v -0.5282339453697205 -1.7005773782730103 -0.8116235136985779
v 0.22362273931503296 1.673122525215149 -0.8116235136985779
v -0.5318368673324585 2.1526854038238525 -0.8116235136985779
v 0.22362273931503296 -2.2710399627685547 -0.8116235136985779
v 0.22362273931503296 1.673122525215149 -0.8116235136985779
v 1.0942602157592773 1.3920360803604126 -0.14237548410892487
v 1.0942602157592773 -2.807788133621216 -0.14237548410892487
v 1.0942602157592773 -2.807788133621216 -0.14237548410892487
v 1.0942602157592773 1.3920360803604126 -0.14237548410892487
v 0.3784164488315582 -2.088122606277466 0.8116235136985779
v 0.3784164488315582 2.233593702316284 0.8116235136985779
v 0.3784164488315582 -2.088122606277466 0.8116235136985779
v 0.3784164488315582 2.233593702316284 0.8116235136985779
v -0.5851287841796875 -1.3741241693496704 0.7193188071250916
v -0.5851287841796875 2.807788133621216 0.7193188071250916
vn -0.5979835391044617 -0.7881293296813965 0.14583493769168854
vn -0.5979835391044617 -0.7881293892860413 0.14583492279052734
vn -0.5979835391044617 -0.7881293892860413 0.14583493769168854
vn -0.5979835391044617 -0.7881293296813965 0.14583513140678406
vn -0.5979839563369751 -0.7881295084953308 0.14583192765712738
vn -0.5979833602905273 -0.7881289124488831 0.14583761990070343
vn -0.5979053378105164 -0.7881345748901367 0.14612755179405212
vn -0.5979053974151611 -0.7881345152854919 0.1461275815963745
vn -0.5979053974151611 -0.7881345152854919 0.1461275815963745
vn 0.5979053974151611 0.7881345152854919 -0.1461275815963745
vn 0.5979053974151611 0.7881345152854919 -0.1461275815963745
vn 0.5979053378105164 0.7881345748901367 -0.14612755179405212
vn 0.5070022940635681 0.7986847758293152 -0.3241162896156311
vn 0.5070022344589233 0.7986847758293152 -0.3241162896156311
vn 0.5070022344589233 0.7986847758293152 -0.3241162598133087
vn 0.5070009231567383 0.7986860871315002 -0.3241150975227356
vn 0.5070000290870667 0.7986862659454346 -0.3241160809993744
vn 0.5070009827613831 0.7986858487129211 -0.32411569356918335
vn -0.8660252690315247 0.0 0.5000002980232239
vn -0.8660252690315247 0.0 0.5000003576278687
vn -0.8660252690315247 0.0 0.5000002980232239
vn -0.8660252690315247 0.0 0.5000002980232239
vn -0.7557647824287415 0.0 -0.6548433303833008
vn -0.7557647824287415 0.0 -0.6548433303833008
vn -0.7557647824287415 0.0 -0.6548432111740112
vn -0.7539859414100647 -0.0007049741689115763 -0.6568900942802429
vn -1.1521279702719767e-05 0.0 1.0
vn -1.1521280612214468e-05 0.0 1.0
vn -1.1521280612214468e-05 0.0 1.0
vn 1.1521280612214468e-05 0.0 -1.0
vn 1.1521279702719767e-05 0.0 -1.0
vn 1.1521280612214468e-05 0.0 -1.0
vn 0.0 0.0 -1.0
vn 0.0 0.0 -1.0
vn 0.0 0.0 -1.0
vn 0.0 0.0 -1.0
vn 0.6094399690628052 0.0 -0.7928323149681091
vn 0.6094399690628052 0.0 -0.7928323149681091
vn 0.6094399690628052 0.0 -0.7928323149681091
vn 0.6094401478767395 0.0 -0.79283207654953
vn 0.7998612523078918 0.0 0.6001849174499512
vn 0.7998612523078918 0.0 0.6001849174499512
vn 0.7998613119125366 0.0 0.6001848578453064
vn 0.7998612523078918 0.0 0.600184977054596
vn -0.09536024928092957 0.0 0.9954427480697632
vn -0.09536024928092957 0.0 0.9954427480697632
vn -0.09536024928092957 0.0 0.9954428672790527
vn -0.09536045044660568 0.0 0.9954427480697632
vt 0.7982650995254517 0.6681707799434662
vt 0.9420445561408997 0.776057243347168
vt 0.6974011659622192 0.7993865758180618
vt 0.7952287197113037 0.9980078092776239
vt 0.6974011659622192 0.912700705230236
vt 0.9281331300735474 0.9212754815816879
vt 0.3871401846408844 0.24663537740707397
vt 0.4724472761154175 0.1488078236579895
vt 0.3876831531524658 0.24663537740707397
vt 0.2989332675933838 0.0500759482383728
vt 0.3813488781452179 0.14790350198745728
vt 0.2985213100910187 0.0500759482383728
vt 0.5928778648376465 0.0019919276237487793
vt 0.6050717830657959 0.2466353178024292
vt 0.5206016898155212 0.0019919276237487793
vt 0.6916098594665527 0.2327238917350769
vt 0.6863850951194763 0.09981954097747803
vt 0.47823861241340637 0.10285604000091553
vt 0.2549850046634674 0.7819369435310364
vt 0.2549850046634674 0.15167105197906494
vt 0.3317173421382904 0.7483098208904266
vt 0.3317173421382904 0.15689581632614136
vt 0.6760640144348145 0.40659409761428833
vt 0.6760640144348145 0.9980081175453961
vt 0.5912998914718628 0.9045009166002274
vt 0.5907569527626038 0.32376664876937866
vt 0.6832831501960754 0.9975958389695734
vt 0.6827401518821716 0.9980078092776239
vt 0.6832831501960754 0.4172734022140503
vt 0.690098762512207 0.4172738790512085
vt 0.6906417012214661 0.41768568754196167
vt 0.6906417012214661 0.9980081175453961
vt 0.46993863582611084 0.3312980532646179
vt 0.5832527875900269 0.4172738790512085
vt 0.46993863582611084 0.9257319420576096
vt 0.5837957262992859 0.9980081175453961
vt 0.46993863582611084 0.3312980532646179
vt 0.46993863582611084 0.9257319420576096
vt 0.338722825050354 0.8833688274025917
vt 0.338722825050354 0.2504032850265503
vt 0.0018802976701408625 0.9980078092776239
vt 0.0018802976701408625 0.3650422692298889
vt 0.10976676642894745 0.8895451501011848
vt 0.10976676642894745 0.23820912837982178
vt 0.10976676642894745 0.8895451501011848
vt 0.10976676642894745 0.23820912837982178
vt 0.2549850046634674 0.7819369435310364
vt 0.2549850046634674 0.15167105197906494

g equalizer_crystal_0010_shard_003
s 1
usemtl equalizer_crystal_0010_shard_003
f 1/1/1 2/2/2 3/3/3 
f 3/3/3 2/2/2 4/4/4 
f 3/3/3 4/4/4 5/5/5 
f 2/2/2 6/6/6 4/4/4 
f 7/7/7 8/8/8 9/9/9 
f 10/10/10 11/11/11 12/12/12 
f 13/13/13 14/14/14 15/15/15 
f 14/14/14 13/13/13 16/16/16 
f 13/13/13 17/17/17 16/16/16 
f 18/18/18 15/15/15 14/14/14 
f 19/19/19 20/20/20 21/21/21 
f 21/21/21 20/20/20 22/22/22 
f 23/23/23 24/24/24 25/25/25 
f 23/23/23 25/25/25 26/26/26 
f 27/27/27 28/28/28 29/29/29 
f 30/30/30 31/31/31 32/32/32 
f 33/33/33 34/34/34 35/35/35 
f 34/34/34 36/36/36 35/35/35 
f 37/37/37 38/38/38 39/39/39 
f 37/37/37 39/39/39 40/40/40 
f 41/41/41 42/42/42 43/43/43 
f 42/42/42 44/44/44 43/43/43 
f 45/45/45 46/46/46 47/47/47 
f 46/46/46 48/48/48 47/47/47 

