v -0.3877444267272949 2.2366740703582764 0.8235253691673279
v 0.5950848460197449 1.5083770751953125 0.5841064453125
v -0.944686233997345 2.638306140899658 0.09483886510133743
v 0.944686233997345 1.2426488399505615 -0.021420897915959358
v -0.4139626920223236 2.234907865524292 -0.8243994116783142
v -0.4162493944168091 2.2576117515563965 0.8160009384155273
v 0.4788665771484375 1.5760406255722046 -0.8282421827316284
v -0.4162493944168091 2.2576117515563965 0.8160009384155273
v -0.4072921574115753 2.2064740657806396 0.8282421827316284
v -0.3877444267272949 2.2366740703582764 0.8235253691673279
v 0.5950848460197449 1.5083770751953125 0.5841064453125
v 0.5950848460197449 -2.638306140899658 0.5841064453125
v 0.944686233997345 1.2426488399505615 -0.021420897915959358
v 0.944686233997345 -2.638306140899658 -0.021420897915959358
v 0.5950848460197449 -2.638306140899658 0.5841064453125
v -0.4072921574115753 2.2064740657806396 0.8282421827316284
v -0.4072921574115753 -2.638306140899658 0.8282421827316284
v -0.3877444267272949 2.2366740703582764 0.8235253691673279
v 0.5950848460197449 1.5083770751953125 0.5841064453125
v 0.944686233997345 1.2426488399505615 -0.021420897915959358
v 0.944686233997345 -2.638306140899658 -0.021420897915959358
v 0.4788665771484375 1.5760406255722046 -0.8282421827316284
v 0.4788665771484375 -2.638306140899658 -0.8282421827316284
v -0.4072921574115753 -2.638306140899658 0.8282421827316284
v -0.4072921574115753 2.2064740657806396 0.8282421827316284
v -0.944686233997345 -2.638306140899658 0.09483886510133743
v -0.4162493944168091 2.2576117515563965 0.8160009384155273
v -0.944686233997345 2.638306140899658 0.09483886510133743
v -0.944686233997345 2.638306140899658 0.09483886510133743
v -0.4139626920223236 2.234907865524292 -0.8243994116783142
v -0.4139626920223236 -2.638306140899658 -0.8243994116783142
v -0.944686233997345 -2.638306140899658 0.09483886510133743
v 0.4788665771484375 -2.638306140899658 -0.8282421827316284
v -0.4139626920223236 2.234907865524292 -0.8243994116783142
v 0.4788665771484375 1.5760406255722046 -0.8282421827316284
v -0.4139626920223236 -2.638306140899658 -0.8243994116783142
v 0.5950848460197449 -2.638306140899658 0.5841064453125
v -0.4072921574115753 -2.638306140899658 0.8282421827316284
v -0.944686233997345 -2.638306140899658 0.09483886510133743
v 0.944686233997345 -2.638306140899658 -0.021420897915959358
v 0.4788665771484375 -2.638306140899658 -0.8282421827316284
v -0.4139626920223236 -2.638306140899658 -0.8243994116783142
vn 0.5937193036079407 0.8046061992645264 -0.01030822191387415
vn 0.5937193036079407 0.8046061992645264 -0.010308220982551575
vn 0.5937192440032959 0.8046061992645264 -0.010308220051229
vn 0.5937188267707825 0.8046066164970398 -0.01030667033046484
vn 0.593718945980072 0.804606556892395 -0.010309265926480293
vn 0.5937203764915466 0.8046054244041443 -0.01030140370130539
vn 0.5937187671661377 0.8046066164970398 -0.010307149961590767
vn -0.09828747808933258 0.21535751223564148 0.9715763926506042
vn -0.09828748553991318 0.21535754203796387 0.9715763926506042
vn -0.09828748553991318 0.21535754203796387 0.9715763926506042
vn 0.866025447845459 0.0 0.4999999701976776
vn 0.866025447845459 0.0 0.49999991059303284
vn 0.8660255074501038 0.0 0.49999991059303284
vn 0.8660253286361694 0.0 0.5000001192092896
vn 0.23663924634456635 0.0 0.9715975522994995
vn 0.23663924634456635 0.0 0.9715975522994995
vn 0.23663926124572754 0.0 0.9715975522994995
vn 0.23506923019886017 -0.0003425358736421913 0.9719786047935486
vn 0.23668025434017181 0.0 0.9715876579284668
vn 0.866024911403656 0.0 -0.5000010132789612
vn 0.8660247921943665 0.0 -0.5000009536743164
vn 0.866024911403656 0.0 -0.5000008344650269
vn 0.8660247921943665 0.0 -0.5000009536743164
vn -0.8066331148147583 0.0 0.5910524129867554
vn -0.8066331148147583 0.0 0.5910524129867554
vn -0.8066331148147583 0.0 0.5910524129867554
vn -0.8068739771842957 7.635575457243249e-05 0.5907236337661743
vn -0.8066263794898987 0.0 0.5910616517066956
vn -0.866024911403656 0.0 -0.5000008344650269
vn -0.866024911403656 0.0 -0.5000007748603821
vn -0.866024911403656 0.0 -0.5000008344650269
vn -0.8660249710083008 0.0 -0.5000007152557373
vn -0.004303986206650734 0.0 -0.9999908208847046
vn -0.004303986672312021 0.0 -0.9999908208847046
vn -0.004303986672312021 0.0 -0.9999908208847046
vn -0.004304023459553719 0.0 -0.9999908208847046
vn 0.0 -1.0 0.0
vn 0.0 -1.0 0.0
vn 0.0 -1.0 0.0
vn 0.0 -1.0 0.0
vn 0.0 -1.0 0.0
vn 0.0 -1.0 0.0
vt 0.23049744963645935 0.32274097204208374
vt 0.1973339021205902 0.4236224889755249
vt 0.12956205010414124 0.26710832118988037
vt 0.11345814913511276 0.4604302644729614
vt 0.002232070080935955 0.32298576831817627
vt 0.22945517301559448 0.31984078884124756
vt 0.0016998153878375888 0.4142499566078186
vt 0.37643954157829285 0.31984078884124756
vt 0.3751988112926483 0.326924204826355
vt 0.37249115109443665 0.32274097204208374
vt 0.1973339021205902 0.4236224889755249
vt 0.1973339021205902 0.9980079580564052
vt 0.11345814913511276 0.4604302644729614
vt 0.11345814913511276 0.9980079580564052
vt 0.23635271191596985 0.9980079580564052
vt 0.3751988112926483 0.326924204826355
vt 0.3751988112926483 0.9980079580564052
vt 0.37249115109443665 0.32274097204208374
vt 0.23635271191596985 0.4236224889755249
vt 0.11345814913511276 0.4604302644729614
vt 0.11345814913511276 0.9980079580564052
vt 0.0016998153878375888 0.4142499566078186
vt 0.0016998153878375888 0.9980079580564052
vt 0.3751988112926483 0.9980079580564052
vt 0.3751988112926483 0.326924204826355
vt 0.44963696599006653 0.9980079580564052
vt 0.37643954157829285 0.31984078884124756
vt 0.44963696599006653 0.26710832118988037
vt 0.6530581712722778 0.9980078162625432
vt 0.5795440077781677 0.9421303495764732
vt 0.5795440077781677 0.26710814237594604
vt 0.6530581712722778 0.26710814237594604
vt 0.455872118473053 0.26710814237594604
vt 0.5795440077781677 0.9421303495764732
vt 0.455872118473053 0.8508661240339279
vt 0.5795440077781677 0.26710814237594604
vt 0.8177756071090698 0.05041766166687012
vt 0.851592481136322 0.18926376104354858
vt 0.7500037550926208 0.2637019157409668
vt 0.7338998317718506 0.0019919872283935547
vt 0.6221414804458618 0.06651586294174194
vt 0.622673749923706 0.1901877522468567

g equalizer_crystal_0014_shard_001
s 1
usemtl equalizer_crystal_0014_shard_001
f 1/1/1 2/2/2 3/3/3 
f 3/3/3 2/2/2 4/4/4 
f 3/3/3 4/4/4 5/5/5 
f 6/6/6 1/1/1 3/3/3 
f 5/5/5 4/4/4 7/7/7 
f 8/8/8 9/9/9 10/10/10 
f 11/11/11 12/12/12 13/13/13 
f 13/13/13 12/12/12 14/14/14 
f 15/15/15 16/16/16 17/17/17 
f 16/16/16 15/15/15 18/18/18 
f 18/18/18 15/15/15 19/19/19 
f 20/20/20 21/21/21 22/22/22 
f 23/23/23 22/22/22 21/21/21 
f 24/24/24 25/25/25 26/26/26 
f 25/25/25 27/27/27 26/26/26 
f 27/27/27 28/28/28 26/26/26 
f 29/29/29 30/30/30 31/31/31 
f 29/29/29 31/31/31 32/32/32 
f 33/33/33 34/34/34 35/35/35 
f 34/34/34 33/33/33 36/36/36 
f 37/37/37 38/38/38 39/39/39 
f 37/37/37 39/39/39 40/40/40 
f 39/39/39 41/41/41 40/40/40 
f 39/39/39 42/42/42 41/41/41 

