v -0.433004230260849 14.51893138885498 -0.7024523615837097
v 0.50709068775177 14.123302459716797 -0.5265986323356628
v 0.50709068775177 0.0 -0.5265986323356628
v -0.433004230260849 0.0 -0.7024523615837097
v -0.433004230260849 14.51893138885498 -0.7024523615837097
v -0.5237778425216675 14.821385383605957 -0.5188413262367249
v 0.10055015236139297 14.821386337280273 -0.20260916650295258
v 0.50709068775177 14.123302459716797 -0.5265986323356628
v 0.6030275821685791 14.278191566467285 -0.36043018102645874
v -0.433004230260849 14.51893138885498 -0.7024523615837097
v -0.433004230260849 0.0 -0.7024523615837097
v -0.8538843393325806 0.0 0.1394588053226471
v -0.8538843393325806 14.308588981628418 0.1394588053226471
v -0.7005225419998169 14.821385383605957 -0.16825446486473083
v -0.5237778425216675 14.821385383605957 -0.5188413262367249
v 0.8527358174324036 13.397537231445312 0.07207721471786499
v 0.8527358174324036 0.0 0.07207721471786499
v 0.50709068775177 0.0 -0.5265986323356628
v 0.50709068775177 14.123302459716797 -0.5265986323356628
v 0.6030275821685791 14.278191566467285 -0.36043018102645874
v -0.07597633451223373 13.939820289611816 0.7500327825546265
v 0.4622615575790405 13.157855033874512 0.7483984231948853
v 0.8527358174324036 13.397537231445312 0.07207721471786499
v 0.6030275821685791 14.278191566467285 -0.36043018102645874
v -0.13314567506313324 14.821385383605957 0.0821513757109642
v 0.10055015236139297 14.821386337280273 -0.20260916650295258
v -0.3652406930923462 13.761030197143555 0.7530857920646667
v -0.8538843393325806 14.308588981628418 0.1394588053226471
v -0.8538843393325806 0.0 0.1394588053226471
v -0.3652406930923462 0.0 0.7530857920646667
v 0.8527358174324036 13.397537231445312 0.07207721471786499
v 0.4622615575790405 13.157855033874512 0.7483984231948853
v 0.4622615575790405 0.0 0.7483984231948853
v 0.8527358174324036 0.0 0.07207721471786499
v -0.7005225419998169 14.821385383605957 -0.16825446486473083
v -0.13314567506313324 14.821385383605957 0.0821513757109642
v 0.10055015236139297 14.821386337280273 -0.20260916650295258
v -0.5237778425216675 14.821385383605957 -0.5188413262367249
v -0.07597633451223373 13.939820289611816 0.7500327825546265
v -0.3652406930923462 13.761030197143555 0.7530857920646667
v -0.3652406930923462 0.0 0.7530857920646667
v 0.4622615575790405 0.0 0.7483984231948853
v 0.4622615575790405 13.157855033874512 0.7483984231948853
v -0.7005225419998169 14.821385383605957 -0.16825446486473083
v -0.8538843393325806 14.308588981628418 0.1394588053226471
v -0.3652406930923462 13.761030197143555 0.7530857920646667
v -0.13314567506313324 14.821385383605957 0.0821513757109642
v -0.07597633451223373 13.939820289611816 0.7500327825546265
vn 0.1838703155517578 0.0 -0.9829505085945129
vn 0.1838703453540802 0.0 -0.9829505085945129
vn 0.1838703602552414 0.0 -0.9829505085945129
vn 0.1838703602552414 0.0 -0.9829505085945129
vn 0.374143123626709 0.5607109069824219 -0.738660991191864
vn 0.374143123626709 0.5607109069824219 -0.7386611104011536
vn 0.374143123626709 0.5607109069824219 -0.738660991191864
vn 0.374143123626709 0.5607109665870667 -0.738660991191864
vn 0.3741430938243866 0.5607109069824219 -0.7386610507965088
vn -0.894451379776001 8.486614206049126e-06 -0.44716525077819824
vn -0.894451379776001 8.486614206049126e-06 -0.44716522097587585
vn -0.894451379776001 8.486614206049126e-06 -0.44716522097587585
vn -0.894451379776001 8.486614206049126e-06 -0.44716522097587585
vn -0.894451379776001 8.486614206049126e-06 -0.44716519117355347
vn -0.894451379776001 8.486614206049126e-06 -0.44716525077819824
vn 0.8660258054733276 0.0 -0.49999943375587463
vn 0.8660258054733276 0.0 -0.49999940395355225
vn 0.8660258054733276 0.0 -0.49999940395355225
vn 0.8660258054733276 0.0 -0.49999940395355225
vn 0.8660258054733276 0.0 -0.49999940395355225
vn 0.6828002333641052 0.46881040930747986 0.5603575110435486
vn 0.6828002333641052 0.46881040930747986 0.5603575110435486
vn 0.6828002333641052 0.46881040930747986 0.5603575110435486
vn 0.6828001737594604 0.46881046891212463 0.5603575110435486
vn 0.6828002333641052 0.46881046891212463 0.5603575110435486
vn 0.68280029296875 0.46881040930747986 0.5603575110435486
vn -0.7822709083557129 0.0 0.622938334941864
vn -0.7822709083557129 0.0 0.6229383945465088
vn -0.7822709083557129 0.0 0.622938334941864
vn -0.7822709083557129 0.0 0.622938334941864
vn 0.866025447845459 0.0 0.5000000596046448
vn 0.866025447845459 0.0 0.5
vn 0.866025447845459 0.0 0.5
vn 0.866025447845459 0.0 0.5
vn -1.4825105836280272e-06 1.0 0.0
vn -1.482510697314865e-06 1.0 0.0
vn -1.4825105836280272e-06 1.0 0.0
vn -1.4825110383753781e-06 1.0 0.0
vn 0.005702109541743994 5.17916378157679e-05 0.9999837875366211
vn 0.005702109541743994 5.17916378157679e-05 0.9999837875366211
vn 0.005702109541743994 5.1791630539810285e-05 0.9999837875366211
vn 0.005702109541743994 5.1791630539810285e-05 0.9999837875366211
vn 0.005702109541743994 5.179162690183148e-05 0.9999837875366211
vn -0.3347975015640259 0.5554230213165283 0.7611936926841736
vn -0.3347974717617035 0.5554230213165283 0.7611936926841736
vn -0.3347974717617035 0.5554230213165283 0.7611936926841736
vn -0.3347974717617035 0.5554230213165283 0.7611936926841736
vn -0.3347974717617035 0.5554230213165283 0.7611937522888184
vt 0.21588246524333954 0.2070813775062561
vt 0.2601759433746338 0.2367095947265625
vt 0.25910288095474243 0.9999655485153198
vt 0.21475841104984283 0.9999655485153198
vt 0.43576985597610474 0.14804601669311523
vt 0.43621283769607544 0.16623365879058838
vt 0.4030613899230957 0.16517066955566406
vt 0.40205612778663635 0.11716002225875854
vt 0.3862210512161255 0.13461583852767944
vt 0.4815947413444519 0.20787549018859863
vt 0.4807261824607849 0.9999655485153198
vt 0.43641549348831177 0.9999655485153198
vt 0.43729034066200256 0.20651781558990479
vt 0.44816815853118896 0.19034326076507568
vt 0.4696933627128601 0.1903376579284668
vt 0.30448076128959656 0.25945061445236206
vt 0.3034384548664093 0.9999655485153198
vt 0.25910288095474243 0.9999655485153198
vt 0.2601759433746338 0.2367095947265625
vt 0.2818743586540222 0.219213604927063
vt 0.3667472004890442 0.2297229766845703
vt 0.34886837005615234 0.27339786291122437
vt 0.30448076128959656 0.25945061445236206
vt 0.2953663170337677 0.21088910102844238
vt 0.3422870635986328 0.17586874961853027
vt 0.32106247544288635 0.17533445358276367
vt 0.39325183629989624 0.2458040714263916
vt 0.43729034066200256 0.20651781558990479
vt 0.43641549348831177 0.9999655485153198
vt 0.3920910656452179 0.9999655485153198
vt 0.30448076128959656 0.25945061445236206
vt 0.34886837005615234 0.27339786291122437
vt 0.3477657437324524 0.9999655485153198
vt 0.3034384548664093 0.9999655485153198
vt 0.4376671314239502 0.18648457527160645
vt 0.40497568249702454 0.18220090866088867
vt 0.4030613899230957 0.16517066955566406
vt 0.43621283769607544 0.16623365879058838
vt 0.3781004548072815 0.23250019550323486
vt 0.39325183629989624 0.2458040714263916
vt 0.3920910656452179 0.9999655485153198
vt 0.3477657437324524 0.9999655485153198
vt 0.34886837005615234 0.27339786291122437
vt 0.4376671314239502 0.18648457527160645
vt 0.43729034066200256 0.20651781558990479
vt 0.39325183629989624 0.2458040714263916
vt 0.40497568249702454 0.18220090866088867
vt 0.3781004548072815 0.23250019550323486

g equalizer_crystal_005
s 1
usemtl equalizer_crystal_005
f 1/1/1 2/2/2 3/3/3 
f 1/1/1 3/3/3 4/4/4 
f 5/5/5 6/6/6 7/7/7 
f 7/7/7 8/8/8 5/5/5 
f 7/7/7 9/9/9 8/8/8 
f 10/10/10 11/11/11 12/12/12 
f 12/12/12 13/13/13 10/10/10 
f 13/13/13 14/14/14 10/10/10 
f 14/14/14 15/15/15 10/10/10 
f 16/16/16 17/17/17 18/18/18 
f 18/18/18 19/19/19 16/16/16 
f 19/19/19 20/20/20 16/16/16 
f 21/21/21 22/22/22 23/23/23 
f 23/23/23 24/24/24 21/21/21 
f 24/24/24 25/25/25 21/21/21 
f 24/24/24 26/26/26 25/25/25 
f 27/27/27 28/28/28 29/29/29 
f 27/27/27 29/29/29 30/30/30 
f 31/31/31 32/32/32 33/33/33 
f 31/31/31 33/33/33 34/34/34 
f 35/35/35 36/36/36 37/37/37 
f 35/35/35 37/37/37 38/38/38 
f 39/39/39 40/40/40 41/41/41 
f 41/41/41 42/42/42 39/39/39 
f 42/42/42 43/43/43 39/39/39 
f 44/44/44 45/45/45 46/46/46 
f 46/46/46 47/47/47 44/44/44 
f 46/46/46 48/48/48 47/47/47 

