v 0.44530436396598816 0.0 -0.8068227171897888
v -0.447524756193161 0.0 -0.8029782772064209
v -0.447524756193161 5.813459396362305 -0.8029782772064209
v -0.23527029156684875 5.897688865661621 -0.80313640832901
v 0.44530436396598816 5.291813850402832 -0.8068227171897888
v -0.447524756193161 5.813459396362305 -0.8029782772064209
v -0.447524756193161 0.0 -0.8029782772064209
v -0.9782483577728271 0.0 0.11626230925321579
v -0.9782483577728271 5.620505332946777 0.11626230925321579
v -0.7445908188819885 5.963671684265137 -0.2884445786476135
v -0.9782483577728271 5.620505332946777 0.11626230925321579
v -0.9782483577728271 0.0 0.11626230925321579
v -0.4408542215824127 0.0 0.8496617674827576
v -0.4408542215824127 4.844779968261719 0.8496617674827576
v -0.623568594455719 5.887919902801514 0.6000431180000305
v -0.15982365608215332 6.182344913482666 -0.314553439617157
v -0.23527029156684875 5.897688865661621 -0.80313640832901
v -0.447524756193161 5.813459396362305 -0.8029782772064209
v -0.7445908188819885 5.963671684265137 -0.2884445786476135
v -0.49111559987068176 6.182344913482666 -0.06210240349173546
v 0.9111243486404419 4.611064910888672 -2.0244117138190632e-07
v 0.9111243486404419 0.0 -2.0244117138190632e-07
v 0.44530436396598816 0.0 -0.8068227171897888
v 0.44530436396598816 5.291813850402832 -0.8068227171897888
v 0.6486966609954834 5.365001678466797 -0.4545379877090454
v 0.6486966609954834 5.365001678466797 -0.4545379877090454
v 0.44530436396598816 5.291813850402832 -0.8068227171897888
v -0.23527029156684875 5.897688865661621 -0.80313640832901
v -0.15982365608215332 6.182344913482666 -0.314553439617157
v 0.21006204187870026 6.182344913482666 0.14111414551734924
v 0.2502744495868683 5.912554740905762 0.6829289793968201
v -0.4408542215824127 4.844779968261719 0.8496617674827576
v -0.4408542215824127 0.0 0.8496617674827576
v 0.5615226030349731 0.0 0.6055286526679993
v 0.5615226030349731 5.219779014587402 0.6055286526679993
v 0.9111243486404419 4.611064910888672 -2.0244117138190632e-07
v 0.5615226030349731 5.219779014587402 0.6055286526679993
v 0.5615226030349731 0.0 0.6055286526679993
v 0.9111243486404419 0.0 -2.0244117138190632e-07
v 0.5615226030349731 5.219779014587402 0.6055286526679993
v 0.9111243486404419 4.611064910888672 -2.0244117138190632e-07
v 0.6486966609954834 5.365001678466797 -0.4545379877090454
v 0.2502744495868683 5.912554740905762 0.6829289793968201
v 0.21006204187870026 6.182344913482666 0.14111414551734924
v 0.14332985877990723 6.182344913482666 0.6123350262641907
v -0.35636141896247864 6.182344913482666 0.5618165135383606
v -0.623568594455719 5.887919902801514 0.6000431180000305
v -0.4408542215824127 4.844779968261719 0.8496617674827576
v 0.2502744495868683 5.912554740905762 0.6829289793968201
v 0.14332985877990723 6.182344913482666 0.6123350262641907
v 0.21006204187870026 6.182344913482666 0.14111414551734924
v -0.15982365608215332 6.182344913482666 -0.314553439617157
v -0.49111559987068176 6.182344913482666 -0.06210240349173546
v -0.35636141896247864 6.182344913482666 0.5618165135383606
v 0.14332985877990723 6.182344913482666 0.6123350262641907
v -0.7445908188819885 5.963671684265137 -0.2884445786476135
v -0.9782483577728271 5.620505332946777 0.11626230925321579
v -0.623568594455719 5.887919902801514 0.6000431180000305
v -0.35636141896247864 6.182344913482666 0.5618165135383606
v -0.49111559987068176 6.182344913482666 -0.06210240349173546
vn -0.004266852978616953 6.68039865558967e-05 -0.9999909400939941
vn -0.004266852978616953 6.68039865558967e-05 -0.9999909400939941
vn -0.004266852978616953 6.68039865558967e-05 -0.9999909400939941
vn -0.004266852978616953 6.680397927993909e-05 -0.9999909400939941
vn -0.004266852978616953 6.68039865558967e-05 -0.9999909400939941
vn -0.8660255074501038 0.0 -0.49999985098838806
vn -0.8660255074501038 0.0 -0.4999997913837433
vn -0.8660255074501038 0.0 -0.4999997913837433
vn -0.8660255074501038 0.0 -0.49999985098838806
vn -0.8660255074501038 0.0 -0.49999985098838806
vn -0.8066245913505554 1.3793098332826048e-05 0.5910640358924866
vn -0.806624710559845 1.3793097423331346e-05 0.5910640358924866
vn -0.806624710559845 1.3793097423331346e-05 0.5910640358924866
vn -0.8066245913505554 1.3793096513836645e-05 0.5910640358924866
vn -0.8066245913505554 1.3793096513836645e-05 0.5910640358924866
vn -0.3322308659553528 0.8363839983940125 -0.4359866976737976
vn -0.33223089575767517 0.8363839983940125 -0.4359867572784424
vn -0.3322308659553528 0.8363839983940125 -0.4359866976737976
vn -0.33223089575767517 0.8363839983940125 -0.4359866976737976
vn -0.33223089575767517 0.8363839983940125 -0.4359866976737976
vn 0.8660249710083008 0.0 -0.5000006556510925
vn 0.8660249710083008 0.0 -0.5000007152557373
vn 0.8660249710083008 0.0 -0.5000007152557373
vn 0.8660249710083008 0.0 -0.5000007152557373
vn 0.8660249710083008 0.0 -0.5000007152557373
vn 0.584023654460907 0.6589134931564331 -0.474077433347702
vn 0.5840235948562622 0.6589134931564331 -0.474077433347702
vn 0.5840235948562622 0.6589134931564331 -0.474077433347702
vn 0.584023654460907 0.6589134335517883 -0.4740774631500244
vn 0.584023654460907 0.6589134335517883 -0.474077433347702
vn 0.23668718338012695 -0.00014247943181544542 0.9715858101844788
vn 0.23668715357780457 -0.00014247943181544542 0.9715858101844788
vn 0.23668716847896576 -0.0001424794172635302 0.9715858101844788
vn 0.23668716847896576 -0.0001424794172635302 0.9715858101844788
vn 0.23668715357780457 -0.00014247940271161497 0.9715858101844788
vn 0.8660258054733276 0.0 0.4999994933605194
vn 0.8660258054733276 0.0 0.49999940395355225
vn 0.8660258054733276 0.0 0.49999940395355225
vn 0.8660258054733276 0.0 0.49999940395355225
vn 0.9098666310310364 0.3943858742713928 0.12885087728500366
vn 0.9098666310310364 0.3943859040737152 0.12885087728500366
vn 0.9098666310310364 0.3943859338760376 0.12885087728500366
vn 0.9098666310310364 0.3943858742713928 0.12885087728500366
vn 0.9098666310310364 0.3943858742713928 0.12885087728500366
vn 0.9098666310310364 0.3943859040737152 0.12885087728500366
vn -0.09822729974985123 0.2152934968471527 0.9715966582298279
vn -0.09822730720043182 0.2152935266494751 0.9715966582298279
vn -0.09822729974985123 0.2152934968471527 0.9715966582298279
vn -0.09822730720043182 0.2152934968471527 0.9715966582298279
vn -0.09822730720043182 0.2152934968471527 0.9715966582298279
vn 0.0 1.0 0.0
vn 0.0 1.0 0.0
vn 0.0 1.0 0.0
vn 0.0 1.0 0.0
vn 0.0 1.0 0.0
vn -0.7213140726089478 0.6748596429824829 0.15578962862491608
vn -0.7213141322135925 0.6748595833778381 0.15578964352607727
vn -0.7213140726089478 0.6748596429824829 0.15578962862491608
vn -0.7213141322135925 0.6748595833778381 0.15578964352607727
vn -0.7213140726089478 0.6748596429824829 0.15578961372375488
vt 0.5654016137123108 0.9999549388885498
vt 0.5151197910308838 0.9999549388885498
vt 0.5145184993743896 0.6797776818275452
vt 0.5267907977104187 0.6748827993869781
vt 0.5648629665374756 0.7083938419818878
vt 0.5145184993743896 0.6797776818275452
vt 0.5151197910308838 0.9999549388885498
vt 0.46484631299972534 0.9999549388885498
vt 0.4642433524131775 0.6853609085083008
vt 0.4825960397720337 0.6718360185623169
vt 0.4642433524131775 0.6853609085083008
vt 0.46484631299972534 0.9999549388885498
vt 0.4146106243133545 0.9999549388885498
vt 0.4140612781047821 0.7189711928367615
vt 0.42649877071380615 0.672942191362381
vt 0.27060598134994507 0.6540709435939789
vt 0.2502802908420563 0.6690607070922852
vt 0.24125300347805023 0.6618233919143677
vt 0.2500746250152588 0.6345103979110718
vt 0.2685709595680237 0.6363084018230438
vt 0.31551897525787354 0.7478089034557343
vt 0.31407463550567627 0.9999549388885498
vt 0.2641493082046509 0.9999549388885498
vt 0.2676492929458618 0.7094155550003052
vt 0.2882571220397949 0.7058211863040924
vt 0.2882571220397949 0.7058211863040924
vt 0.2676492929458618 0.7094155550003052
vt 0.2502802908420563 0.6690607070922852
vt 0.27060598134994507 0.6540709435939789
vt 0.297261506319046 0.6536388397216797
vt 0.36515873670578003 0.6970519423484802
vt 0.4140612781047821 0.7189711928367615
vt 0.4146106243133545 0.9999549388885498
vt 0.3644225299358368 0.9999549388885498
vt 0.3639638423919678 0.7033480405807495
vt 0.31551897525787354 0.7478089034557343
vt 0.3639638423919678 0.7033480405807495
vt 0.3644225299358368 0.9999549388885498
vt 0.31407463550567627 0.9999549388885498
vt 0.3639638423919678 0.7033480405807495
vt 0.31551897525787354 0.7478089034557343
vt 0.2882571220397949 0.7058211863040924
vt 0.36515873670578003 0.6970519423484802
vt 0.32839179039001465 0.6522910594940186
vt 0.3570280969142914 0.6525066494941711
vt 0.40860694646835327 0.6578863859176636
vt 0.4203469157218933 0.6710392832756042
vt 0.4140612781047821 0.7189711928367615
vt 0.36515873670578003 0.6970519423484802
vt 0.3807492256164551 0.6582463085651398
vt 0.297261506319046 0.6536388397216797
vt 0.27060598134994507 0.6540709435939789
vt 0.2685709595680237 0.6363084018230438
vt 0.2931438982486725 0.6200312376022339
vt 0.31166529655456543 0.6357276439666748
vt 0.2500746250152588 0.6345103979110718
vt 0.24986398220062256 0.614476352930069
vt 0.2834702432155609 0.6078834533691406
vt 0.2931438982486725 0.6200312376022339
vt 0.2685709595680237 0.6363084018230438

g equalizer_crystal_0014
s 1
usemtl equalizer_crystal_0014
f 1/1/1 2/2/2 3/3/3 
f 3/3/3 4/4/4 1/1/1 
f 4/4/4 5/5/5 1/1/1 
f 6/6/6 7/7/7 8/8/8 
f 8/8/8 9/9/9 6/6/6 
f 9/9/9 10/10/10 6/6/6 
f 11/11/11 12/12/12 13/13/13 
f 13/13/13 14/14/14 11/11/11 
f 14/14/14 15/15/15 11/11/11 
f 16/16/16 17/17/17 18/18/18 
f 18/18/18 19/19/19 16/16/16 
f 19/19/19 20/20/20 16/16/16 
f 21/21/21 22/22/22 23/23/23 
f 23/23/23 24/24/24 21/21/21 
f 24/24/24 25/25/25 21/21/21 
f 26/26/26 27/27/27 28/28/28 
f 28/28/28 29/29/29 26/26/26 
f 29/29/29 30/30/30 26/26/26 
f 31/31/31 32/32/32 33/33/33 
f 33/33/33 34/34/34 31/31/31 
f 34/34/34 35/35/35 31/31/31 
f 36/36/36 37/37/37 38/38/38 
f 36/36/36 38/38/38 39/39/39 
f 40/40/40 41/41/41 42/42/42 
f 42/42/42 43/43/43 40/40/40 
f 42/42/42 44/44/44 43/43/43 
f 44/44/44 45/45/45 43/43/43 
f 46/46/46 47/47/47 48/48/48 
f 48/48/48 49/49/49 46/46/46 
f 49/49/49 50/50/50 46/46/46 
f 51/51/51 52/52/52 53/53/53 
f 53/53/53 54/54/54 51/51/51 
f 54/54/54 55/55/55 51/51/51 
f 56/56/56 57/57/57 58/58/58 
f 58/58/58 59/59/59 56/56/56 
f 59/59/59 60/60/60 56/56/56 

