v -1.011993646621704 -1.6827459335327148 0.11301757395267487
v 0.47510984539985657 -2.208014488220215 0.7626757621765137
v -0.14201225340366364 -2.0156047344207764 0.7647168040275574
v -0.26247480511665344 -1.8340483903884888 -0.7647168040275574
v 0.5472378134727478 -2.0867559909820557 -0.7647168040275574
v 1.011993646621704 -2.288043737411499 -0.16723144054412842
v -0.26247480511665344 -1.8340483903884888 -0.7647168040275574
v -0.26247480511665344 1.6863787174224854 -0.7647168040275574
v 0.5472378134727478 -2.0867559909820557 -0.7647168040275574
v 0.5472378134727478 2.0844695568084717 -0.7647168040275574
v -1.011993646621704 -1.6827459335327148 0.11301757395267487
v -1.011993646621704 1.2812737226486206 0.11301757395267487
v -0.26247480511665344 -1.8340483903884888 -0.7647168040275574
v -0.26247480511665344 1.6863787174224854 -0.7647168040275574
v 0.5472378134727478 2.0844695568084717 -0.7647168040275574
v 1.011993646621704 2.288043737411499 -0.16723144054412842
v 0.5472378134727478 -2.0867559909820557 -0.7647168040275574
v 1.011993646621704 -2.288043737411499 -0.16723144054412842
v -1.011993646621704 -1.6827459335327148 0.11301757395267487
v -0.14201225340366364 -2.0156047344207764 0.7647168040275574
v -1.011993646621704 1.2812737226486206 0.11301757395267487
v -0.14201225340366364 1.6818145513534546 0.7647168040275574
v 0.47510984539985657 -2.208014488220215 0.7626757621765137
v 1.011993646621704 2.288043737411499 -0.16723144054412842
v 0.47510984539985657 1.985303282737732 0.7626757621765137
v 1.011993646621704 -2.288043737411499 -0.16723144054412842
v 0.47510984539985657 -2.208014488220215 0.7626757621765137
v -0.14201225340366364 1.6818145513534546 0.7647168040275574
v -0.14201225340366364 -2.0156047344207764 0.7647168040275574
v 0.47510984539985657 1.985303282737732 0.7626757621765137
v -1.011993646621704 1.2812737226486206 0.11301757395267487
v 1.011993646621704 2.288043737411499 -0.16723144054412842
v -0.26247480511665344 1.6863787174224854 -0.7647168040275574
v 0.5472378134727478 2.0844695568084717 -0.7647168040275574
v -0.14201225340366364 1.6818145513534546 0.7647168040275574
v 0.47510984539985657 1.985303282737732 0.7626757621765137
vn -0.2967287302017212 -0.9507594704627991 -0.08948957175016403
vn -0.2967287003993988 -0.9507594704627991 -0.08948957920074463
vn -0.2967286705970764 -0.9507594704627991 -0.08948957920074463
vn -0.29672759771347046 -0.9507595896720886 -0.08949241042137146
vn -0.2967275381088257 -0.9507595896720886 -0.08949258923530579
vn -0.29672759771347046 -0.9507595896720886 -0.0894925445318222
vn 0.0 0.0 -1.0
vn 0.0 0.0 -1.0
vn 0.0 0.0 -1.0
vn 0.0 0.0 -1.0
vn -0.760464608669281 0.0 -0.6493794322013855
vn -0.7604646682739258 0.0 -0.6493793725967407
vn -0.7604646682739258 0.0 -0.6493793725967407
vn -0.7604646682739258 0.0 -0.6493793725967407
vn 0.7893233895301819 0.0 -0.6139776110649109
vn 0.7893233895301819 0.0 -0.6139776110649109
vn 0.7893233895301819 0.0 -0.6139775514602661
vn 0.7893235087394714 0.0 -0.6139776110649109
vn -0.599536657333374 0.0 0.8003473877906799
vn -0.599536657333374 0.0 0.8003473877906799
vn -0.599536657333374 0.0 0.8003472685813904
vn -0.5995365381240845 0.0 0.8003473877906799
vn 0.8660247921943665 0.0 0.500001072883606
vn 0.8660247921943665 0.0 0.500001072883606
vn 0.8660247921943665 0.0 0.500001072883606
vn 0.8660247325897217 0.0 0.5000012516975403
vn 0.0033071190118789673 0.0 0.9999945163726807
vn 0.0033071197103708982 0.0 0.9999945163726807
vn 0.0033071190118789673 0.0 0.9999945163726807
vn 0.0033072817604988813 0.0 0.9999945163726807
vn -0.4408959150314331 0.8967786431312561 0.037401046603918076
vn -0.4408959150314331 0.8967786431312561 0.037401046603918076
vn -0.4408959150314331 0.8967786431312561 0.037401050329208374
vn -0.440896213054657 0.8967783451080322 0.03740600869059563
vn -0.44089487195014954 0.8967791199684143 0.037402767688035965
vn -0.4408949613571167 0.8967791199684143 0.03740277513861656
vt 0.8718472123146057 0.9984102040762082
vt 0.9846802949905396 0.7401288449764252
vt 0.9850347638130188 0.8473110347986221
vt 0.7194014191627502 0.8682330697774887
vt 0.7194014191627502 0.7276015877723694
vt 0.8231732845306396 0.6468823552131653
vt 0.5821449160575867 0.2824817895889282
vt 0.5821449160575867 0.8939126133918762
vt 0.44151341915130615 0.23859131336212158
vt 0.44151341915130615 0.9630533643066883
vt 0.7123220562934875 0.308760404586792
vt 0.7123220562934875 0.8235537856817245
vt 0.5821449160575867 0.2824817895889282
vt 0.5821449160575867 0.8939126133918762
vt 0.44151341915130615 0.9630533643066883
vt 0.36079421639442444 0.9984103817259893
vt 0.44151341915130615 0.23859131336212158
vt 0.36079421639442444 0.20363175868988037
vt 0.35351982712745667 0.8932815492153168
vt 0.2024206668138504 0.9510926827788353
vt 0.35351982712745667 0.3784880042076111
vt 0.2024206668138504 0.30892205238342285
vt 0.09523847699165344 0.9845105456188321
vt 0.0019919960759580135 0.20363140106201172
vt 0.09523847699165344 0.25621169805526733
vt 0.0019919960759580135 0.9984102040762082
vt 0.09523847699165344 0.9845105456188321
vt 0.2024206668138504 0.30892205238342285
vt 0.2024206668138504 0.9510926827788353
vt 0.09523847699165344 0.25621169805526733
vt 0.8455623984336853 0.6428910791873932
vt 0.8942363262176514 0.2913634181022644
vt 0.9980080127716064 0.5127143263816833
vt 0.9980080127716064 0.3720826506614685
vt 0.7323748469352722 0.49179208278656006
vt 0.7327290177345276 0.3846098780632019

g equalizer_crystal_006_shard_001
s 1
usemtl equalizer_crystal_006_shard_001
f 1/1/1 2/2/2 3/3/3 
f 1/1/1 4/4/4 2/2/2 
f 5/5/5 2/2/2 4/4/4 
f 6/6/6 2/2/2 5/5/5 
f 7/7/7 8/8/8 9/9/9 
f 8/8/8 10/10/10 9/9/9 
f 11/11/11 12/12/12 13/13/13 
f 12/12/12 14/14/14 13/13/13 
f 15/15/15 16/16/16 17/17/17 
f 18/18/18 17/17/17 16/16/16 
f 19/19/19 20/20/20 21/21/21 
f 20/20/20 22/22/22 21/21/21 
f 23/23/23 24/24/24 25/25/25 
f 23/23/23 26/26/26 24/24/24 
f 27/27/27 28/28/28 29/29/29 
f 27/27/27 30/30/30 28/28/28 
f 31/31/31 32/32/32 33/33/33 
f 33/33/33 32/32/32 34/34/34 
f 31/31/31 35/35/35 32/32/32 
f 32/32/32 35/35/35 36/36/36 

