v -0.2965875267982483 -0.023372191935777664 0.6551733016967773
v 0.6003363132476807 -0.4971539080142975 0.5017406940460205
v 0.5953875780105591 -0.49177366495132446 0.5199975371360779
v 0.3457229435443878 -0.5021209716796875 -0.3321508765220642
v -0.6003363132476807 0.04217468202114105 0.11004149913787842
v -0.1642809957265854 -0.2979290783405304 -0.6551733016967773
v -0.13356994092464447 0.5021209716796875 0.21040283143520355
v 0.3457229435443878 -0.10128356516361237 -0.3321508765220642
v 0.1587792932987213 0.15628235042095184 -0.4514428675174713
v 0.018398437649011612 0.27264586091041565 0.6067651510238647
v 0.6003363132476807 -0.4971539080142975 0.5017406940460205
v 0.5953875780105591 -0.49177366495132446 0.5199975371360779
v 0.1587792932987213 0.15628235042095184 -0.4514428675174713
v -0.49142637848854065 0.45963194966316223 0.30360105633735657
v -0.13356994092464447 0.5021209716796875 0.21040283143520355
v -0.6003363132476807 0.3025091588497162 0.11004149913787842
v -0.1642809957265854 -0.06911193579435349 -0.6551733016967773
v 0.1587792932987213 0.15628235042095184 -0.4514428675174713
v 0.3457229435443878 -0.10128356516361237 -0.3321508765220642
v -0.1642809957265854 -0.06911193579435349 -0.6551733016967773
v 0.3457229435443878 -0.5021209716796875 -0.3321508765220642
v -0.1642809957265854 -0.2979290783405304 -0.6551733016967773
v 0.018398437649011612 0.27264586091041565 0.6067651510238647
v -0.13356994092464447 0.5021209716796875 0.21040283143520355
v -0.2965875267982483 0.33318784832954407 0.6551733016967773
v -0.13356994092464447 0.5021209716796875 0.21040283143520355
v -0.49142637848854065 0.45963194966316223 0.30360105633735657
v -0.2965875267982483 0.33318784832954407 0.6551733016967773
v 0.6003363132476807 -0.4971539080142975 0.5017406940460205
v 0.3457229435443878 -0.5021209716796875 -0.3321508765220642
v 0.3457229435443878 -0.10128356516361237 -0.3321508765220642
v 0.5953875780105591 -0.49177366495132446 0.5199975371360779
v 0.018398437649011612 0.27264586091041565 0.6067651510238647
v -0.2965875267982483 -0.023372191935777664 0.6551733016967773
v -0.2965875267982483 0.33318784832954407 0.6551733016967773
v -0.49142637848854065 0.45963194966316223 0.30360105633735657
v -0.2965875267982483 -0.023372191935777664 0.6551733016967773
v -0.2965875267982483 0.33318784832954407 0.6551733016967773
v -0.6003363132476807 0.3025091588497162 0.11004149913787842
v -0.6003363132476807 0.04217468202114105 0.11004149913787842
v -0.6003363132476807 0.3025091588497162 0.11004149913787842
v -0.1642809957265854 -0.06911193579435349 -0.6551733016967773
v -0.6003363132476807 0.04217468202114105 0.11004149913787842
v -0.1642809957265854 -0.2979290783405304 -0.6551733016967773
vn -0.44351446628570557 -0.8851661682128906 0.14062663912773132
vn -0.44351446628570557 -0.8851661682128906 0.14062662422657013
vn -0.44351446628570557 -0.8851661682128906 0.14062663912773132
vn -0.44350215792655945 -0.8851625919342041 0.14068786799907684
vn -0.4435020089149475 -0.8851625919342041 0.14068810641765594
vn -0.4435024857521057 -0.8851625919342041 0.14068658649921417
vn 0.7996978163719177 0.5990543961524963 0.04021394997835159
vn 0.7996978163719177 0.5990545153617859 0.04021394997835159
vn 0.7996978163719177 0.5990543961524963 0.040213946253061295
vn 0.799699604511261 0.5990521907806396 0.040213316679000854
vn 0.7997012138366699 0.5990499258041382 0.040215395390987396
vn 0.7997012138366699 0.5990498661994934 0.040215395390987396
vn -0.23470942676067352 0.8151246905326843 -0.5296066403388977
vn -0.23470942676067352 0.8151246905326843 -0.5296065807342529
vn -0.23470942676067352 0.8151246905326843 -0.5296066403388977
vn -0.23471471667289734 0.8151203393936157 -0.5296110510826111
vn -0.23471321165561676 0.8151220679283142 -0.5296090245246887
vn 0.5349363684654236 -0.0030496716499328613 -0.8448867797851562
vn 0.5349363684654236 -0.0030496721155941486 -0.8448868989944458
vn 0.5349363684654236 -0.0030496714171022177 -0.8448868989944458
vn 0.5350756645202637 0.0 -0.8448041677474976
vn 0.5350753664970398 0.0 -0.8448043465614319
vn 0.23305310308933258 0.8776742815971375 0.4187770187854767
vn 0.23305310308933258 0.8776742815971375 0.4187770187854767
vn 0.23305310308933258 0.8776742815971375 0.4187770187854767
vn -0.02052694372832775 0.9371164441108704 0.34841278195381165
vn -0.0205269455909729 0.9371164441108704 0.34841278195381165
vn -0.0205269455909729 0.9371164441108704 0.34841281175613403
vn 0.9564115405082703 0.0 -0.2920222878456116
vn 0.9564115405082703 0.0 -0.2920222878456116
vn 0.9564115405082703 0.0 -0.2920222878456116
vn 0.15057587623596191 0.001442226581275463 0.9885974526405334
vn 0.1505758911371231 0.001442226697690785 0.9885974526405334
vn 0.15057587623596191 0.001442226697690785 0.9885974526405334
vn 0.15190011262893677 0.0 0.9883959293365479
vn -0.8746627569198608 0.0 0.4847319424152374
vn -0.8746627569198608 0.0 0.4847320020198822
vn -0.8746626377105713 0.0 0.4847319722175598
vn -0.8726794123649597 0.0033841480035334826 0.4882819652557373
vn -0.8735461831092834 0.0 0.48674139380455017
vn -0.8688347339630127 0.0 -0.4951022267341614
vn -0.8688347339630127 0.0 -0.4951022267341614
vn -0.8688347339630127 0.0 -0.4951022267341614
vn -0.8688344359397888 0.0 -0.49510273337364197
vt 0.8911337852478027 0.07206428050994873
vt 0.5755511522293091 0.12604939937591553
vt 0.577292263507843 0.11962568759918213
vt 0.6651367545127869 0.41945451498031616
vt 0.9980080127716064 0.26386892795562744
vt 0.844581663608551 0.5331097543239594
vt 0.26021701097488403 0.8416546583175659
vt 0.09157764166593552 0.6507571339607239
vt 0.15735378861427307 0.6087843477725983
vt 0.20674680173397064 0.9811149071902037
vt 0.001992009114474058 0.9441622160375118
vt 0.0037331392522901297 0.9505855813622475
vt 0.15735378861427307 0.6087843477725983
vt 0.38612890243530273 0.8744464814662933
vt 0.26021701097488403 0.8416546583175659
vt 0.4244488775730133 0.8063427060842514
vt 0.2710225284099579 0.5371018648147583
vt 0.569415807723999 0.1977318525314331
vt 0.4787910282611847 0.2397046685218811
vt 0.49011069536209106 0.12604939937591553
vt 0.33775660395622253 0.2397046685218811
vt 0.4096013307571411 0.12604939937591553
vt 0.20674680173397064 0.9811149071902037
vt 0.26021701097488403 0.8416546583175659
vt 0.3175746500492096 0.9981476878747344
vt 0.26021701097488403 0.8416546583175659
vt 0.38612890243530273 0.8744464814662933
vt 0.3175746500492096 0.9981476878747344
vt 0.339504212141037 0.5331097543239594
vt 0.33775660395622253 0.2397046685218811
vt 0.4787910282611847 0.2397046685218811
vt 0.04135822877287865 0.21926915645599365
vt 0.3103194832801819 0.4222826361656189
vt 0.20616543292999268 0.5331104695796967
vt 0.33162108063697815 0.5331104695796967
vt 0.6975034475326538 0.6608027219772339
vt 0.5275585055351257 0.5371015071868896
vt 0.6530148386955261 0.5371015071868896
vt 0.6422204971313477 0.7289064824581146
vt 0.5506210327148438 0.7289064824581146
vt 0.6422204971313477 0.7289064824581146
vt 0.5114648342132568 0.9981473280349746
vt 0.5506210327148438 0.7289064824581146
vt 0.4309561848640442 0.9981473280349746

g equalizer_crystal_0024_shard_002
s 1
usemtl equalizer_crystal_0024_shard_002
f 1/1/1 2/2/2 3/3/3 
f 4/4/4 2/2/2 1/1/1 
f 5/5/5 4/4/4 1/1/1 
f 6/6/6 4/4/4 5/5/5 
f 7/7/7 8/8/8 9/9/9 
f 10/10/10 8/8/8 7/7/7 
f 11/11/11 8/8/8 10/10/10 
f 12/12/12 11/11/11 10/10/10 
f 13/13/13 14/14/14 15/15/15 
f 16/16/16 14/14/14 13/13/13 
f 17/17/17 16/16/16 13/13/13 
f 18/18/18 19/19/19 20/20/20 
f 19/19/19 21/21/21 20/20/20 
f 21/21/21 22/22/22 20/20/20 
f 23/23/23 24/24/24 25/25/25 
f 26/26/26 27/27/27 28/28/28 
f 29/29/29 30/30/30 31/31/31 
f 32/32/32 33/33/33 34/34/34 
f 35/35/35 34/34/34 33/33/33 
f 36/36/36 37/37/37 38/38/38 
f 36/36/36 39/39/39 37/37/37 
f 37/37/37 39/39/39 40/40/40 
f 41/41/41 42/42/42 43/43/43 
f 43/43/43 42/42/42 44/44/44 

