v 0.40486541390419006 -0.37321746349334717 0.7611669898033142
v -0.1518179327249527 0.74029141664505 -0.8160498142242432
v -0.5272781252861023 0.8112564086914062 0.8160498142242432
v -0.8556625247001648 1.4426193237304688 -0.013295898213982582
v 0.8556631207466125 -1.2312997579574585 -0.013662109151482582
v -0.1518179327249527 0.74029141664505 -0.8160498142242432
v 0.40486541390419006 -0.37321746349334717 0.7611669898033142
v -0.1518179327249527 0.74029141664505 -0.8160498142242432
v 0.8556631207466125 -1.2312997579574585 -0.013662109151482582
v 0.4629046618938446 -0.0499655157327652 -0.8160498142242432
v -0.5272784233093262 -1.4426193237304688 0.8160498142242432
v 0.4058697521686554 -1.4426193237304688 0.7620556354522705
v 0.40486541390419006 -0.37321746349334717 0.7611669898033142
v -0.5272781252861023 0.8112564086914062 0.8160498142242432
v 0.4058697521686554 -1.4426193237304688 0.7620556354522705
v 0.8556631207466125 -1.4426193237304688 -0.013662109151482582
v 0.8556631207466125 -1.2312997579574585 -0.013662109151482582
v 0.40486541390419006 -0.37321746349334717 0.7611669898033142
v 0.8556631207466125 -1.4426193237304688 -0.013662109151482582
v 0.4629046618938446 -1.4426193237304688 -0.8160498142242432
v 0.4629046618938446 -0.0499655157327652 -0.8160498142242432
v 0.8556631207466125 -1.2312997579574585 -0.013662109151482582
v -0.8556631207466125 -1.4426193237304688 -0.013295898213982582
v -0.5272784233093262 -1.4426193237304688 0.8160498142242432
v -0.5272781252861023 0.8112564086914062 0.8160498142242432
v -0.8556625247001648 1.4426193237304688 -0.013295898213982582
v -0.8556625247001648 1.4426193237304688 -0.013295898213982582
v -0.1518179327249527 0.74029141664505 -0.8160498142242432
v -0.15181823074817657 -1.4426193237304688 -0.8160498142242432
v -0.8556631207466125 -1.4426193237304688 -0.013295898213982582
v -0.1518179327249527 0.74029141664505 -0.8160498142242432
v 0.4629046618938446 -0.0499655157327652 -0.8160498142242432
v 0.4629046618938446 -1.4426193237304688 -0.8160498142242432
v -0.15181823074817657 -1.4426193237304688 -0.8160498142242432
v -0.5272784233093262 -1.4426193237304688 0.8160498142242432
v -0.8556631207466125 -1.4426193237304688 -0.013295898213982582
v -0.15181823074817657 -1.4426193237304688 -0.8160498142242432
v 0.4058697521686554 -1.4426193237304688 0.7620556354522705
v 0.8556631207466125 -1.4426193237304688 -0.013662109151482582
v 0.4629046618938446 -1.4426193237304688 -0.8160498142242432
vn 0.7800140976905823 0.6067546606063843 0.15305793285369873
vn 0.7800140976905823 0.6067546606063843 0.15305791795253754
vn 0.7800140976905823 0.6067546606063843 0.15305793285369873
vn 0.7800140976905823 0.6067546606063843 0.15305788815021515
vn 0.8888210654258728 0.4581509232521057 0.009740750305354595
vn 0.8888210654258728 0.4581509232521057 0.00974075123667717
vn 0.8888210654258728 0.45815086364746094 0.009740750305354595
vn 0.7009803056716919 0.5452758073806763 0.45967474579811096
vn 0.7009803652763367 0.5452757477760315 0.45967474579811096
vn 0.7009803652763367 0.5452757477760315 0.45967480540275574
vn 0.05845090001821518 0.00028460947214625776 0.9982902407646179
vn 0.05845090374350548 0.00028460947214625776 0.9982902407646179
vn 0.058450907468795776 0.0002846094430424273 0.9982902407646179
vn 0.05845090001821518 0.00028460947214625776 0.9982902407646179
vn 0.8649688363075256 0.0010266051394864917 0.5018245577812195
vn 0.8649688363075256 0.0010266051394864917 0.5018245577812195
vn 0.8649688363075256 0.0010266051394864917 0.5018245577812195
vn 0.8649688363075256 0.0010266051394864917 0.5018245577812195
vn 0.8981722593307495 0.0 -0.439643919467926
vn 0.8981722593307495 0.0 -0.439643919467926
vn 0.8981722593307495 0.0 -0.439643919467926
vn 0.89817214012146 0.0 -0.43964388966560364
vn -0.9297674894332886 1.7042782474163687e-07 0.36814719438552856
vn -0.9297674894332886 1.7042782474163687e-07 0.36814719438552856
vn -0.9297674894332886 1.7042782474163687e-07 0.36814722418785095
vn -0.9297674894332886 1.7042782474163687e-07 0.36814722418785095
vn -0.7519102096557617 0.0 -0.6592656373977661
vn -0.7519101500511169 0.0 -0.6592656373977661
vn -0.7519102096557617 0.0 -0.6592656373977661
vn -0.7519102096557617 0.0 -0.6592656373977661
vn 0.0 0.0 -1.0
vn 0.0 0.0 -1.0
vn 0.0 0.0 -1.0
vn 0.0 0.0 -1.0
vn 0.0 -1.0 0.0
vn 0.0 -1.0 0.0
vn 0.0 -1.0 0.0
vn 0.0 -1.0 0.0
vn 0.0 -1.0 0.0
vn 0.0 -1.0 0.0
vt 0.34237140417099 0.7671910375356674
vt 0.0019489716505631804 0.5268539190292358
vt 0.3542173206806183 0.5115371644496918
vt 0.17521342635154724 0.3752654194831848
vt 0.17513419687747955 0.9523974172770977
vt 0.0019489716505631804 0.5268539190292358
vt 0.34237140417099 0.7671910375356674
vt 0.0019489716505631804 0.5268539190292358
vt 0.17513419687747955 0.9523974172770977
vt 0.0019489716505631804 0.6974211633205414
vt 0.920505940914154 0.9980079876258969
vt 0.7190974950790405 0.9980079876258969
vt 0.7193142175674438 0.7671910375356674
vt 0.920505940914154 0.5115371644496918
vt 0.3425632119178772 0.9980079876258969
vt 0.17513419687747955 0.9980079876258969
vt 0.17513419687747955 0.9523974172770977
vt 0.34237140417099 0.7671910375356674
vt 0.17513419687747955 0.9980079876258969
vt 0.0019489716505631804 0.9980079876258969
vt 0.0019489716505631804 0.6974211633205414
vt 0.17513419687747955 0.9523974172770977
vt 0.5396223664283752 0.9980079876258969
vt 0.3606184720993042 0.9980079876258969
vt 0.3606184720993042 0.5115371644496918
vt 0.5396223664283752 0.3752654194831848
vt 0.5396223664283752 0.3752654194831848
vt 0.7128865718841553 0.5268539190292358
vt 0.7128865718841553 0.9980079876258969
vt 0.5396223664283752 0.9980079876258969
vt 0.976424515247345 0.5076310634613037
vt 0.8437443375587463 0.33706361055374146
vt 0.8437443375587463 0.036476969718933105
vt 0.976424515247345 0.036476969718933105
vt 0.8377419710159302 0.30048251152038574
vt 0.6587380766868591 0.371360182762146
vt 0.4854736030101776 0.2194441556930542
vt 0.8260878324508667 0.09907406568527222
vt 0.6586588025093079 0.001991868019104004
vt 0.4854736030101776 0.08676397800445557

g equalizer_crystal_0013_shard_001
s 1
usemtl equalizer_crystal_0013_shard_001
f 1/1/1 2/2/2 3/3/3 
f 3/3/3 2/2/2 4/4/4 
f 5/5/5 6/6/6 7/7/7 
f 8/8/8 9/9/9 10/10/10 
f 11/11/11 12/12/12 13/13/13 
f 11/11/11 13/13/13 14/14/14 
f 15/15/15 16/16/16 17/17/17 
f 15/15/15 17/17/17 18/18/18 
f 19/19/19 20/20/20 21/21/21 
f 19/19/19 21/21/21 22/22/22 
f 23/23/23 24/24/24 25/25/25 
f 23/23/23 25/25/25 26/26/26 
f 27/27/27 28/28/28 29/29/29 
f 27/27/27 29/29/29 30/30/30 
f 31/31/31 32/32/32 33/33/33 
f 31/31/31 33/33/33 34/34/34 
f 35/35/35 36/36/36 37/37/37 
f 35/35/35 37/37/37 38/38/38 
f 37/37/37 39/39/39 38/38/38 
f 37/37/37 40/40/40 39/39/39 

