v 0.8657278418540955 3.9264793395996094 -0.07341308146715164
v 0.4335668981075287 2.7678661346435547 -0.7647558450698853
v -0.8657278418540955 3.1200811862945557 -0.11471191048622131
v -0.40373167395591736 2.405982494354248 -0.7647509574890137
v -0.35796689987182617 4.575816631317139 0.7647558450698853
v 0.43794769048690796 4.917707443237305 0.763256847858429
v -0.35796689987182617 4.575816631317139 0.7647558450698853
v -0.35796689987182617 -4.917707443237305 0.7647558450698853
v 0.43794769048690796 4.917707443237305 0.763256847858429
v 0.43794769048690796 -4.917707443237305 0.763256847858429
v 0.43794769048690796 4.917707443237305 0.763256847858429
v 0.43794769048690796 -4.917707443237305 0.763256847858429
v 0.8657278418540955 3.9264793395996094 -0.07341308146715164
v 0.8657278418540955 -4.917707443237305 -0.07341308146715164
v 0.8657278418540955 3.9264793395996094 -0.07341308146715164
v 0.8657278418540955 -4.917707443237305 -0.07341308146715164
v 0.4335668981075287 2.7678661346435547 -0.7647558450698853
v 0.4335668981075287 -4.917707443237305 -0.7647558450698853
v 0.4335668981075287 2.7678661346435547 -0.7647558450698853
v 0.4335668981075287 -4.917707443237305 -0.7647558450698853
v -0.40373167395591736 2.405982494354248 -0.7647509574890137
v -0.40373167395591736 -4.917707443237305 -0.7647509574890137
v -0.8657278418540955 3.1200811862945557 -0.11471191048622131
v -0.40373167395591736 2.405982494354248 -0.7647509574890137
v -0.8657278418540955 -4.917707443237305 -0.11471191048622131
v -0.40373167395591736 -4.917707443237305 -0.7647509574890137
v -0.35796689987182617 4.575816631317139 0.7647558450698853
v -0.8657278418540955 3.1200811862945557 -0.11471191048622131
v -0.35796689987182617 -4.917707443237305 0.7647558450698853
v -0.8657278418540955 -4.917707443237305 -0.11471191048622131
v -0.35796689987182617 -4.917707443237305 0.7647558450698853
v -0.8657278418540955 -4.917707443237305 -0.11471191048622131
v -0.40373167395591736 -4.917707443237305 -0.7647509574890137
v 0.4335668981075287 -4.917707443237305 -0.7647558450698853
v 0.8657278418540955 -4.917707443237305 -0.07341308146715164
v 0.43794769048690796 -4.917707443237305 0.763256847858429
vn -0.24302546679973602 0.5622918605804443 -0.7904216051101685
vn -0.24302548170089722 0.5622919201850891 -0.7904216051101685
vn -0.24302546679973602 0.5622918605804443 -0.7904216051101685
vn -0.24302750825881958 0.5622881054878235 -0.7904238104820251
vn -0.24302546679973602 0.5622919201850891 -0.7904216051101685
vn -0.24302566051483154 0.5622929930686951 -0.7904208898544312
vn 0.001883373479358852 0.0 0.9999982118606567
vn 0.001883373479358852 0.0 0.9999982118606567
vn 0.00188337336294353 0.0 0.9999982118606567
vn 0.0018833735957741737 0.0 0.9999982118606567
vn 0.8903704285621643 0.0 0.4552367031574249
vn 0.8903704285621643 0.0 0.4552367627620697
vn 0.8903704881668091 0.0 0.4552367031574249
vn 0.8903704881668091 0.0 0.45523664355278015
vn 0.8479588031768799 0.0 -0.5300622582435608
vn 0.8479587435722351 0.0 -0.5300622582435608
vn 0.8479587435722351 0.0 -0.5300622582435608
vn 0.8479588031768799 0.0 -0.5300621390342712
vn -5.827397671964718e-06 0.0 -1.0
vn -5.827397217217367e-06 0.0 -1.0
vn -5.827397217217367e-06 0.0 -1.0
vn -5.605733804259216e-06 0.0 -1.0
vn -0.8151056170463562 0.0 -0.5793123245239258
vn -0.8151057362556458 0.0 -0.579312264919281
vn -0.815105676651001 0.0 -0.5793123245239258
vn -0.8151056170463562 0.0 -0.5793123841285706
vn -0.866025447845459 0.0 0.4999999701976776
vn -0.866025447845459 0.0 0.5
vn -0.866025447845459 0.0 0.5
vn -0.866025447845459 0.0 0.4999999701976776
vn 0.0 -1.0 0.0
vn 0.0 -1.0 0.0
vn 0.0 -1.0 0.0
vn 0.0 -1.0 0.0
vn 0.0 -1.0 0.0
vn 0.0 -1.0 0.0
vt 0.0013610873138532043 0.8976277634501457
vt 0.04512527957558632 0.7802969217300415
vt 0.17670263350009918 0.815965011715889
vt 0.12991708517074585 0.7436495721340179
vt 0.12528258562088013 0.963384959846735
vt 0.04468162730336189 0.9980079224333167
vt 0.26390114426612854 0.03661489486694336
vt 0.26390114426612854 0.9980079224333167
vt 0.18330018222332 0.0019919276237487793
vt 0.18330018222332 0.9980079224333167
vt 0.42441999912261963 0.0019919276237487793
vt 0.42441999912261963 0.9980079224333167
vt 0.3396918773651123 0.10237210988998413
vt 0.3396918773651123 0.9980079224333167
vt 0.3396918773651123 0.10237210988998413
vt 0.3396918773651123 0.9980079224333167
vt 0.26968076825141907 0.21970295906066895
vt 0.26968076825141907 0.9980079224333167
vt 0.04512527957558632 0.7802969217300415
vt 0.04512527957558632 0.0019919276237487793
vt 0.12991708517074585 0.7436495721340179
vt 0.12991708517074585 0.0019919276237487793
vt 0.17670263350009918 0.815965011715889
vt 0.12991708517074585 0.7436495721340179
vt 0.17670263350009918 0.0019919276237487793
vt 0.12991708517074585 0.0019919276237487793
vt 0.43164414167404175 0.03661489486694336
vt 0.5207064747810364 0.18403464555740356
vt 0.43164414167404175 0.9980079224333167
vt 0.5207064747810364 0.9980079224333167
vt 0.6819139122962952 0.946587860584259
vt 0.5928516983985901 0.9980079224333167
vt 0.5270233154296875 0.9512223713099957
vt 0.5270228385925293 0.8664305657148361
vt 0.5970339775085449 0.8226663619279861
vt 0.6817620992660522 0.8659869134426117

g equalizer_crystal_003_shard_003
s 1
usemtl equalizer_crystal_003_shard_003
f 1/1/1 2/2/2 3/3/3 
f 4/4/4 3/3/3 2/2/2 
f 3/3/3 5/5/5 1/1/1 
f 1/1/1 5/5/5 6/6/6 
f 7/7/7 8/8/8 9/9/9 
f 9/9/9 8/8/8 10/10/10 
f 11/11/11 12/12/12 13/13/13 
f 12/12/12 14/14/14 13/13/13 
f 15/15/15 16/16/16 17/17/17 
f 16/16/16 18/18/18 17/17/17 
f 19/19/19 20/20/20 21/21/21 
f 20/20/20 22/22/22 21/21/21 
f 23/23/23 24/24/24 25/25/25 
f 24/24/24 26/26/26 25/25/25 
f 27/27/27 28/28/28 29/29/29 
f 28/28/28 30/30/30 29/29/29 
f 31/31/31 32/32/32 33/33/33 
f 31/31/31 33/33/33 34/34/34 
f 31/31/31 34/34/34 35/35/35 
f 31/31/31 35/35/35 36/36/36 

