v 0.4596865773200989 0.0 -0.8434603810310364
v -0.531333327293396 0.0 -0.8198304772377014
v -0.531333327293396 11.677248001098633 -0.8198304772377014
v 0.43862539529800415 12.438957214355469 -0.8405819535255432
v 0.46078047156333923 12.426047325134277 -0.8415656685829163
v -0.976124107837677 0.0 -0.05103546008467674
v -0.976124107837677 11.954395294189453 -0.05103546008467674
v -0.531333327293396 11.677248001098633 -0.8198304772377014
v -0.531333327293396 0.0 -0.8198304772377014
v 0.46078047156333923 12.426047325134277 -0.8415656685829163
v 0.9466587901115417 12.449926376342773 -1.5258788721439487e-07
v 0.9466587901115417 0.0 -1.5258788721439487e-07
v 0.4596865773200989 0.0 -0.8434603810310364
v 0.13236373662948608 12.930590629577637 0.053364258259534836
v 0.43862539529800415 12.438957214355469 -0.8405819535255432
v -0.531333327293396 11.677248001098633 -0.8198304772377014
v -0.976124107837677 11.954395294189453 -0.05103546008467674
v -0.5387542843818665 12.930591583251953 0.7065113186836243
v -0.976124107837677 11.954395294189453 -0.05103546008467674
v -0.976124107837677 0.0 -0.05103546008467674
v -0.4733293056488037 0.0 0.819830596446991
v -0.4733293056488037 12.930591583251953 0.819830596446991
v -0.5387542843818665 12.930591583251953 0.7065113186836243
v 0.47332945466041565 12.930590629577637 0.8198305368423462
v 0.47332945466041565 0.0 0.8198305368423462
v 0.9466587901115417 0.0 -1.5258788721439487e-07
v 0.9466587901115417 12.449926376342773 -1.5258788721439487e-07
v 0.5403801798820496 12.930590629577637 0.7036952972412109
v 0.47332945466041565 0.0 0.8198305368423462
v 0.47332945466041565 12.930590629577637 0.8198305368423462
v -0.4733293056488037 12.930591583251953 0.819830596446991
v -0.4733293056488037 0.0 0.819830596446991
v 0.5403801798820496 12.930590629577637 0.7036952972412109
v 0.13236373662948608 12.930590629577637 0.053364258259534836
v -0.5387542843818665 12.930591583251953 0.7065113186836243
v 0.47332945466041565 12.930590629577637 0.8198305368423462
v -0.4733293056488037 12.930591583251953 0.819830596446991
v 0.9466587901115417 12.449926376342773 -1.5258788721439487e-07
v 0.46078047156333923 12.426047325134277 -0.8415656685829163
v 0.43862539529800415 12.438957214355469 -0.8405819535255432
v 0.13236373662948608 12.930590629577637 0.053364258259534836
v 0.5403801798820496 12.930590629577637 0.7036952972412109
vn -0.022913996130228043 0.00010018471220973879 -0.9997374415397644
vn -0.022913994267582893 0.00010018468310590833 -0.9997374415397644
vn -0.022913996130228043 0.00010018470493378118 -0.9997374415397644
vn -0.022913996130228043 0.00010018469765782356 -0.9997374415397644
vn -0.022913996130228043 0.00010018470493378118 -0.9997374415397644
vn -0.8655732274055481 0.0 -0.5007824301719666
vn -0.8655732274055481 0.0 -0.5007824301719666
vn -0.8655732274055481 0.0 -0.5007824301719666
vn -0.8655732274055481 0.0 -0.5007824301719666
vn 0.8660253286361694 0.0 -0.5000001192092896
vn 0.8660253286361694 0.0 -0.5000001192092896
vn 0.8660253286361694 0.0 -0.5000001192092896
vn 0.8660253286361694 0.0 -0.5000001788139343
vn -0.5265471935272217 0.655765175819397 -0.5410361289978027
vn -0.5265471339225769 0.655765175819397 -0.5410361886024475
vn -0.5265471339225769 0.655765175819397 -0.5410361886024475
vn -0.5265470743179321 0.655765175819397 -0.5410361289978027
vn -0.5265470743179321 0.6557652354240417 -0.5410361289978027
vn -0.866025447845459 0.0 0.4999999701976776
vn -0.866025447845459 0.0 0.4999999701976776
vn -0.866025447845459 0.0 0.4999999701976776
vn -0.866025447845459 0.0 0.4999999701976776
vn -0.866025447845459 0.0 0.4999999701976776
vn 0.866025447845459 0.0 0.49999991059303284
vn 0.866025447845459 0.0 0.49999991059303284
vn 0.866025447845459 0.0 0.49999991059303284
vn 0.8660255074501038 0.0 0.49999991059303284
vn 0.8660255074501038 0.0 0.49999991059303284
vn 0.0 0.0 1.0
vn 0.0 0.0 1.0
vn 0.0 0.0 1.0
vn 0.0 0.0 1.0
vn 1.1481813544378383e-06 1.0 0.0
vn 1.1481813544378383e-06 1.0 0.0
vn 1.1481812407510006e-06 1.0 0.0
vn 1.1481812407510006e-06 1.0 0.0
vn 1.1481812407510006e-06 1.0 0.0
vn 0.4711697995662689 0.8310312628746033 -0.2956112027168274
vn 0.4711697995662689 0.8310312628746033 -0.2956112325191498
vn 0.4711698293685913 0.8310312628746033 -0.2956112325191498
vn 0.4711697995662689 0.8310312628746033 -0.2956112027168274
vn 0.4711698293685913 0.8310312628746033 -0.2956112325191498
vt 0.87762850522995 0.9999332427978516
vt 0.8257161378860474 0.9999332427978516
vt 0.8270126581192017 0.35707008838653564
vt 0.8766875267028809 0.3172439932823181
vt 0.8789849877357483 0.3185460567474365
vt 0.7737993001937866 0.9999332427978516
vt 0.7758528590202332 0.340692937374115
vt 0.8270126581192017 0.35707008838653564
vt 0.8257161378860474 0.9999332427978516
vt 0.5683237910270691 0.31762856245040894
vt 0.6057238578796387 0.31684237718582153
vt 0.6180157661437988 0.9999332427978516
vt 0.5660802721977234 0.9999332427978516
vt 0.8100965619087219 0.28039228916168213
vt 0.8534479737281799 0.3071408271789551
vt 0.8270126581192017 0.35707008838653564
vt 0.7758528590202332 0.340692937374115
vt 0.7647168636322021 0.2812456488609314
vt 0.7758528590202332 0.340692937374115
vt 0.7737993001937866 0.9999332427978516
vt 0.7218790650367737 0.9999332427978516
vt 0.7240850329399109 0.29057174921035767
vt 0.7312653064727783 0.2906010150909424
vt 0.6721455454826355 0.2903737425804138
vt 0.6699484586715698 0.9999332427978516
vt 0.6180157661437988 0.9999332427978516
vt 0.6057238578796387 0.31684237718582153
vt 0.6647884249687195 0.29034435749053955
vt 0.6699484586715698 0.9999332427978516
vt 0.6721455454826355 0.2903737425804138
vt 0.7240850329399109 0.29057174921035767
vt 0.7218790650367737 0.9999332427978516
vt 0.8042439222335815 0.2437974214553833
vt 0.8100965619087219 0.28039228916168213
vt 0.7647168636322021 0.2812456488609314
vt 0.7976430654525757 0.2421478033065796
vt 0.7631517648696899 0.2752373218536377
vt 0.852134108543396 0.271512508392334
vt 0.855475902557373 0.30594903230667114
vt 0.8534479737281799 0.3071408271789551
vt 0.8100965619087219 0.28039228916168213
vt 0.8042439222335815 0.2437974214553833

g equalizer_crystal_008
s 1
usemtl equalizer_crystal_008
f 1/1/1 2/2/2 3/3/3 
f 3/3/3 4/4/4 1/1/1 
f 4/4/4 5/5/5 1/1/1 
f 6/6/6 7/7/7 8/8/8 
f 6/6/6 8/8/8 9/9/9 
f 10/10/10 11/11/11 12/12/12 
f 10/10/10 12/12/12 13/13/13 
f 14/14/14 15/15/15 16/16/16 
f 16/16/16 17/17/17 14/14/14 
f 17/17/17 18/18/18 14/14/14 
f 19/19/19 20/20/20 21/21/21 
f 21/21/21 22/22/22 19/19/19 
f 22/22/22 23/23/23 19/19/19 
f 24/24/24 25/25/25 26/26/26 
f 26/26/26 27/27/27 24/24/24 
f 27/27/27 28/28/28 24/24/24 
f 29/29/29 30/30/30 31/31/31 
f 29/29/29 31/31/31 32/32/32 
f 33/33/33 34/34/34 35/35/35 
f 35/35/35 36/36/36 33/33/33 
f 35/35/35 37/37/37 36/36/36 
f 38/38/38 39/39/39 40/40/40 
f 40/40/40 41/41/41 38/38/38 
f 41/41/41 42/42/42 38/38/38 

