v -0.5405731201171875 -1.524291753768921 0.8480737209320068
v -0.9279415607452393 -1.7291910648345947 0.04790282994508743
v -0.3741384744644165 -2.1047286987304688 -0.6239184141159058
v 0.44557279348373413 -2.3770182132720947 -0.8480737209320068
v 0.9279415607452393 -2.1811094284057617 -0.012590331956744194
v 0.4647689759731293 -1.7570340633392334 0.8480737209320068
v -0.9279415607452393 -0.6442790031433105 0.04790282994508743
v -0.3741384744644165 0.30413103103637695 -0.6239184141159058
v -0.3741384744644165 -2.1047286987304688 -0.6239184141159058
v -0.9279415607452393 -1.7291910648345947 0.04790282994508743
v 0.44557279348373413 1.6639405488967896 -0.8480737209320068
v 0.44557279348373413 -2.3770182132720947 -0.8480737209320068
v -0.3741384744644165 -2.1047286987304688 -0.6239184141159058
v -0.3741384744644165 0.30413103103637695 -0.6239184141159058
v 0.44557279348373413 1.6639405488967896 -0.8480737209320068
v 0.9279415607452393 2.4088966846466064 -0.012590331956744194
v 0.9279415607452393 -2.1811094284057617 -0.012590331956744194
v 0.44557279348373413 -2.3770182132720947 -0.8480737209320068
v 0.9279415607452393 2.4088966846466064 -0.012590331956744194
v 0.4647689759731293 1.5986329317092896 0.8480737209320068
v 0.4647689759731293 -1.7570340633392334 0.8480737209320068
v 0.9279415607452393 -2.1811094284057617 -0.012590331956744194
v 0.4647689759731293 1.5986329317092896 0.8480737209320068
v -0.5405731201171875 -0.05341777577996254 0.8480737209320068
v -0.5405731201171875 -1.524291753768921 0.8480737209320068
v 0.4647689759731293 -1.7570340633392334 0.8480737209320068
v -0.9279415607452393 -0.6442790031433105 0.04790282994508743
v -0.9279415607452393 -1.7291910648345947 0.04790282994508743
v -0.5405731201171875 -1.524291753768921 0.8480737209320068
v -0.5405731201171875 -0.05341777577996254 0.8480737209320068
v -0.9279415607452393 -0.6442790031433105 0.04790282994508743
v -0.5405731201171875 -0.05341777577996254 0.8480737209320068
v 0.44557279348373413 1.6639405488967896 -0.8480737209320068
v -0.3741384744644165 0.30413103103637695 -0.6239184141159058
v 0.4647689759731293 1.5986329317092896 0.8480737209320068
v 0.9279415607452393 2.4088966846466064 -0.012590331956744194
vn -0.2122998982667923 -0.9170352816581726 0.33760198950767517
vn -0.21229985356330872 -0.9170352816581726 0.33760198950767517
vn -0.21229985356330872 -0.9170352816581726 0.33760198950767517
vn -0.2122998684644699 -0.9170352220535278 0.33760198950767517
vn -0.2122984230518341 -0.917035698890686 0.33760154247283936
vn -0.2122984230518341 -0.917035698890686 0.33760157227516174
vn -0.7716265320777893 0.0 -0.6360759139060974
vn -0.7716264128684998 0.0 -0.6360758543014526
vn -0.7716265320777893 0.0 -0.6360759139060974
vn -0.7716265320777893 0.0 -0.6360759139060974
vn -0.2637716233730316 0.0 -0.9645851254463196
vn -0.263771653175354 0.0 -0.9645851254463196
vn -0.263771653175354 0.0 -0.9645851254463196
vn -0.26377159357070923 0.0 -0.9645851254463196
vn 0.8660242557525635 0.0 -0.5000019073486328
vn 0.866024374961853 0.0 -0.5000019073486328
vn 0.8660242557525635 0.0 -0.5000019073486328
vn 0.866024374961853 0.0 -0.5000019073486328
vn 0.8805829882621765 0.0 0.4738920032978058
vn 0.8805829882621765 0.0 0.4738920032978058
vn 0.8805829882621765 0.0 0.473891943693161
vn 0.8805829882621765 0.0 0.4738920331001282
vn -1.6100528910101275e-07 0.0 1.0
vn -1.6100526067930332e-07 0.0 1.0
vn -1.6100526067930332e-07 0.0 1.0
vn -1.6100526067930332e-07 0.0 1.0
vn -0.9000757336616516 0.0 0.43573328852653503
vn -0.9000757336616516 0.0 0.4357333183288574
vn -0.9000757336616516 0.0 0.43573328852653503
vn -0.9000757336616516 0.0 0.43573328852653503
vn -0.8538810014724731 0.5196218490600586 0.029670732095837593
vn -0.8538810014724731 0.5196219086647034 0.02967073582112789
vn -0.8538810014724731 0.5196219682693481 0.02967073954641819
vn -0.8538810014724731 0.5196218490600586 0.02967073582112789
vn -0.8538807034492493 0.519622266292572 0.02967134304344654
vn -0.8538808226585388 0.5196222066879272 0.02967134118080139
vt 0.9980079531669617 0.26812636852264404
vt 0.8696485161781311 0.3302661180496216
vt 0.7618781924247742 0.2414277195930481
vt 0.7259203791618347 0.10993385314941406
vt 0.8599444627761841 0.032554686069488525
vt 0.9980079531669617 0.10685443878173828
vt 0.2997034192085266 0.5082939267158508
vt 0.21086503565311432 0.6604325175285339
vt 0.21086503565311432 0.2740154266357422
vt 0.2997034192085266 0.3342573046684265
vt 0.07937118411064148 0.8785666972398758
vt 0.07937118411064148 0.23033612966537476
vt 0.21086503565311432 0.2740154266357422
vt 0.21086503565311432 0.6604325175285339
vt 0.07937118411064148 0.8785666972398758
vt 0.0019919979386031628 0.9980688627110794
vt 0.0019919979386031628 0.26176321506500244
vt 0.07937118411064148 0.23033612966537476
vt 0.3062235414981842 0.2617630362510681
vt 0.4442870616912842 0.39174145460128784
vt 0.4442870616912842 0.9300408959388733
vt 0.3062235414981842 0.9980690267402679
vt 0.7291462421417236 0.459769606590271
vt 0.8904181718826294 0.7247834205627441
vt 0.8904181718826294 0.9607337042689323
vt 0.7291462421417236 0.9980690267402679
vt 0.5788054466247559 0.8240329027175903
vt 0.5788054466247559 0.9980690267402679
vt 0.45044612884521484 0.9652001559734344
vt 0.45044612884521484 0.7292498648166656
vt 0.5788054466247559 0.8240329027175903
vt 0.45044612884521484 0.7292498648166656
vt 0.7225334048271179 0.4537597894668579
vt 0.6865757703781128 0.6718936562538147
vt 0.45044612884521484 0.4642360210418701
vt 0.5885093212127686 0.33425766229629517

g equalizer_crystal_0016_shard_002
s 1
usemtl equalizer_crystal_0016_shard_002
f 1/1/1 2/2/2 3/3/3 
f 1/1/1 3/3/3 4/4/4 
f 5/5/5 1/1/1 4/4/4 
f 5/5/5 6/6/6 1/1/1 
f 7/7/7 8/8/8 9/9/9 
f 7/7/7 9/9/9 10/10/10 
f 11/11/11 12/12/12 13/13/13 
f 11/11/11 13/13/13 14/14/14 
f 15/15/15 16/16/16 17/17/17 
f 15/15/15 17/17/17 18/18/18 
f 19/19/19 20/20/20 21/21/21 
f 19/19/19 21/21/21 22/22/22 
f 23/23/23 24/24/24 25/25/25 
f 23/23/23 25/25/25 26/26/26 
f 27/27/27 28/28/28 29/29/29 
f 27/27/27 29/29/29 30/30/30 
f 31/31/31 32/32/32 33/33/33 
f 31/31/31 33/33/33 34/34/34 
f 33/33/33 32/32/32 35/35/35 
f 33/33/33 35/35/35 36/36/36 

