v 0.8657278418540955 -1.9566887617111206 -0.07341308146715164
v -0.8657278418540955 -2.763087034225464 -0.11471191048622131
v 0.4335668981075287 -3.115302085876465 -0.7647558450698853
v 0.43794769048690796 -0.9654607772827148 0.763256847858429
v -0.35796689987182617 -1.3073517084121704 0.7647558450698853
v -0.40373167395591736 -3.4771854877471924 -0.7647509574890137
v -0.40373167395591736 2.3659160137176514 -0.7647509574890137
v 0.4335668981075287 2.2618439197540283 -0.7647558450698853
v 0.4335668981075287 -3.115302085876465 -0.7647558450698853
v -0.40373167395591736 -3.4771854877471924 -0.7647509574890137
v 0.4335668981075287 -3.115302085876465 -0.7647558450698853
v 0.4335668981075287 2.2618439197540283 -0.7647558450698853
v 0.8657278418540955 -1.9566887617111206 -0.07341308146715164
v 0.8657278418540955 2.713001012802124 -0.07341308146715164
v 0.8657278418540955 -1.9566887617111206 -0.07341308146715164
v 0.8657278418540955 2.713001012802124 -0.07341308146715164
v 0.43794769048690796 -0.9654607772827148 0.763256847858429
v 0.43794769048690796 3.3771660327911377 0.763256847858429
v -0.35796689987182617 -1.3073517084121704 0.7647558450698853
v 0.43794769048690796 -0.9654607772827148 0.763256847858429
v -0.35796689987182617 3.4771854877471924 0.7647558450698853
v 0.43794769048690796 3.3771660327911377 0.763256847858429
v -0.8657278418540955 -2.763087034225464 -0.11471191048622131
v -0.35796689987182617 -1.3073517084121704 0.7647558450698853
v -0.35796689987182617 3.4771854877471924 0.7647558450698853
v -0.8657278418540955 2.898045063018799 -0.11471191048622131
v -0.40373167395591736 -3.4771854877471924 -0.7647509574890137
v -0.8657278418540955 -2.763087034225464 -0.11471191048622131
v -0.40373167395591736 2.3659160137176514 -0.7647509574890137
v -0.8657278418540955 2.898045063018799 -0.11471191048622131
v 0.8657278418540955 2.713001012802124 -0.07341308146715164
v 0.4335668981075287 2.2618439197540283 -0.7647558450698853
v 0.43794769048690796 3.3771660327911377 0.763256847858429
v -0.40373167395591736 2.3659160137176514 -0.7647509574890137
v -0.8657278418540955 2.898045063018799 -0.11471191048622131
v -0.35796689987182617 3.4771854877471924 0.7647558450698853
vn 0.24302569031715393 -0.5622922778129578 0.7904214262962341
vn 0.24302566051483154 -0.5622922778129578 0.7904214262962341
vn 0.24302569031715393 -0.562292218208313 0.7904214262962341
vn 0.24302563071250916 -0.5622923374176025 0.7904213070869446
vn 0.24302536249160767 -0.5622923970222473 0.7904213070869446
vn 0.24302750825881958 -0.5622881054878235 0.7904238104820251
vn -5.9485969359229784e-06 0.0 -1.0
vn -5.9485969359229784e-06 0.0 -1.0
vn -5.94859784541768e-06 0.0 -1.0
vn -5.748687726736534e-06 0.0 -1.0
vn 0.8479588031768799 0.0 -0.5300621390342712
vn 0.8479588031768799 0.0 -0.5300620198249817
vn 0.8479588031768799 0.0 -0.5300620198249817
vn 0.8479588031768799 0.0 -0.5300622582435608
vn 0.8903704881668091 0.0 0.4552365243434906
vn 0.8903704881668091 0.0 0.4552365243434906
vn 0.8903704881668091 0.0 0.4552365243434906
vn 0.8903704881668091 0.0 0.4552367031574249
vn 0.0018833576468750834 0.0 0.9999982118606567
vn 0.0018833575304597616 0.0 0.9999982118606567
vn 0.0018833576468750834 0.0 0.9999982118606567
vn 0.0018834132933989167 0.0 0.9999982118606567
vn -0.866025447845459 0.0 0.49999991059303284
vn -0.866025447845459 0.0 0.49999991059303284
vn -0.866025447845459 0.0 0.49999991059303284
vn -0.866025447845459 0.0 0.4999999701976776
vn -0.815105676651001 0.0 -0.5793123245239258
vn -0.8151057362556458 0.0 -0.579312264919281
vn -0.8151057362556458 0.0 -0.579312264919281
vn -0.8151054978370667 0.0 -0.5793125033378601
vn 0.09986992925405502 0.8035446405410767 -0.5868066549301147
vn 0.09986992925405502 0.8035447001457214 -0.58680659532547
vn 0.09986992925405502 0.8035447001457214 -0.58680659532547
vn 0.0998733639717102 0.8035439848899841 -0.5868068933486938
vn 0.09987396001815796 0.8035430908203125 -0.5868080854415894
vn 0.09987321496009827 0.8035452961921692 -0.5868050456047058
vt 0.2551303803920746 0.7802401632070541
vt 0.5031120777130127 0.8957336917519569
vt 0.3170250952243805 0.9461785741150379
vt 0.31639766693115234 0.6382747292518616
vt 0.43038979172706604 0.6872411966323853
vt 0.43694427609443665 0.9980079645756632
vt 0.18333536386489868 0.8388503193855286
vt 0.06341618299484253 0.8239448368549347
vt 0.06341618299484253 0.053821682929992676
vt 0.18333536386489868 0.001992166042327881
vt 0.06341618299484253 0.053821682929992676
vt 0.06341618299484253 0.8239448368549347
vt 0.0015214516315609217 0.21976011991500854
vt 0.0015214516315609217 0.8885602578520775
vt 0.6424148082733154 0.9980081110261381
vt 0.6424148082733154 0.3292079567909241
vt 0.762243926525116 0.856042668223381
vt 0.762243926525116 0.23408526182174683
vt 0.43038979172706604 0.6872411966323853
vt 0.31639766693115234 0.6382747292518616
vt 0.43038979172706604 0.001992166042327881
vt 0.31639766693115234 0.016317307949066162
vt 0.6363042593002319 0.9980079645756632
vt 0.5103453993797302 0.7895154803991318
vt 0.5103453993797302 0.10426640510559082
vt 0.6363042593002319 0.18721216917037964
vt 0.18333536386489868 0.001992166042327881
vt 0.24950313568115234 0.10426628589630127
vt 0.18333536386489868 0.8388503193855286
vt 0.24950313568115234 0.9150623381137848
vt 0.0015214516315609217 0.8885602578520775
vt 0.06341618299484253 0.8239448368549347
vt 0.06278873234987259 0.9836829137057066
vt 0.18333536386489868 0.8388503193855286
vt 0.24950313568115234 0.9150623381137848
vt 0.17678087949752808 0.9980081110261381

g equalizer_crystal_003_shard_002
s 1
usemtl equalizer_crystal_003_shard_002
f 1/1/1 2/2/2 3/3/3 
f 4/4/4 2/2/2 1/1/1 
f 4/4/4 5/5/5 2/2/2 
f 3/3/3 2/2/2 6/6/6 
f 7/7/7 8/8/8 9/9/9 
f 10/10/10 7/7/7 9/9/9 
f 11/11/11 12/12/12 13/13/13 
f 13/13/13 12/12/12 14/14/14 
f 15/15/15 16/16/16 17/17/17 
f 17/17/17 16/16/16 18/18/18 
f 19/19/19 20/20/20 21/21/21 
f 20/20/20 22/22/22 21/21/21 
f 23/23/23 24/24/24 25/25/25 
f 23/23/23 25/25/25 26/26/26 
f 27/27/27 28/28/28 29/29/29 
f 29/29/29 28/28/28 30/30/30 
f 31/31/31 32/32/32 33/33/33 
f 32/32/32 34/34/34 33/33/33 
f 35/35/35 33/33/33 34/34/34 
f 36/36/36 33/33/33 35/35/35 

