v -0.3741384744644165 -1.4831664562225342 -0.6239184141159058
v 0.44557279348373413 -0.12335696816444397 -0.8480737209320068
v 0.9279415607452393 0.6215990781784058 -0.012590331956744194
v -0.5405731201171875 -1.8407152891159058 0.8480737209320068
v 0.4647689759731293 -0.18866458535194397 0.8480737209320068
v -0.9279415607452393 -2.431577205657959 0.04790282994508743
v 0.9279415607452393 2.051147937774658 -0.012590331956744194
v 0.8032882213592529 2.087583541870117 -0.22849364578723907
v 0.3138754069805145 2.431577682495117 0.06919189542531967
v 0.577048659324646 2.330435037612915 0.6382641196250916
v -0.22784727811813354 1.8983306884765625 0.8480737209320068
v -0.5405731201171875 1.3961578607559204 0.8480737209320068
v -0.5405731201171875 -1.8407152891159058 0.8480737209320068
v 0.4647689759731293 -0.18866458535194397 0.8480737209320068
v 0.4647689759731293 2.194619655609131 0.8480737209320068
v 0.06678100675344467 2.2904889583587646 0.10065185278654099
v 0.4647689759731293 2.194619655609131 0.8480737209320068
v 0.577048659324646 2.330435037612915 0.6382641196250916
v 0.3138754069805145 2.431577682495117 0.06919189542531967
v -0.22784727811813354 1.8983306884765625 0.8480737209320068
v 0.4647689759731293 2.194619655609131 0.8480737209320068
v 0.06678100675344467 2.2904889583587646 0.10065185278654099
v 0.577048659324646 2.330435037612915 0.6382641196250916
v 0.4647689759731293 2.194619655609131 0.8480737209320068
v 0.4647689759731293 -0.18866458535194397 0.8480737209320068
v 0.9279415607452393 0.6215990781784058 -0.012590331956744194
v 0.9279415607452393 2.051147937774658 -0.012590331956744194
v -0.5405731201171875 -1.8407152891159058 0.8480737209320068
v -0.5405731201171875 1.3961578607559204 0.8480737209320068
v -0.9279415607452393 0.9109423756599426 0.04790282994508743
v -0.9279415607452393 -2.431577205657959 0.04790282994508743
v -0.8119112849235535 1.11981201171875 -0.09383056312799454
v -0.9279415607452393 0.9109423756599426 0.04790282994508743
v -0.5405731201171875 1.3961578607559204 0.8480737209320068
v -0.22784727811813354 1.8983306884765625 0.8480737209320068
v 0.06678100675344467 2.2904889583587646 0.10065185278654099
v -0.8119112849235535 1.11981201171875 -0.09383056312799454
v -0.5405731201171875 1.3961578607559204 0.8480737209320068
v -0.9279415607452393 0.9109423756599426 0.04790282994508743
v -0.3741384744644165 0.24467524886131287 -0.6239184141159058
v -0.3741384744644165 -1.4831664562225342 -0.6239184141159058
v -0.9279415607452393 -2.431577205657959 0.04790282994508743
v -0.8119112849235535 1.11981201171875 -0.09383056312799454
v 0.44557279348373413 -0.12335696816444397 -0.8480737209320068
v 0.44557279348373413 0.17228266596794128 -0.8480737209320068
v 0.9279415607452393 0.6215990781784058 -0.012590331956744194
v 0.8032882213592529 2.087583541870117 -0.22849364578723907
v 0.9279415607452393 2.051147937774658 -0.012590331956744194
v 0.8032882213592529 2.087583541870117 -0.22849364578723907
v -0.3741384744644165 0.24467524886131287 -0.6239184141159058
v -0.8119112849235535 1.11981201171875 -0.09383056312799454
v 0.06678100675344467 2.2904889583587646 0.10065185278654099
v 0.3138754069805145 2.431577682495117 0.06919189542531967
v 0.44557279348373413 0.17228266596794128 -0.8480737209320068
v -0.3741384744644165 0.24467524886131287 -0.6239184141159058
v 0.8032882213592529 2.087583541870117 -0.22849364578723907
v -0.3741384744644165 0.24467524886131287 -0.6239184141159058
v 0.44557279348373413 0.17228266596794128 -0.8480737209320068
v 0.44557279348373413 -0.12335696816444397 -0.8480737209320068
v -0.3741384744644165 -1.4831664562225342 -0.6239184141159058
vn 0.8538808822631836 -0.5196219086647034 -0.02967277355492115
vn 0.8538808822631836 -0.5196218490600586 -0.02967277728021145
vn 0.8538808822631836 -0.5196219086647034 -0.029672769829630852
vn 0.8538808226585388 -0.5196222066879272 -0.02967124432325363
vn 0.8538808226585388 -0.5196220874786377 -0.029671242460608482
vn 0.8538807034492493 -0.519622266292572 -0.029670951887965202
vn 0.5136660933494568 0.8515990972518921 -0.10452796518802643
vn 0.5136660933494568 0.8515990972518921 -0.10452796518802643
vn 0.5136660933494568 0.8515990972518921 -0.10452796518802643
vn 0.5136660933494568 0.8515990972518921 -0.10452795773744583
vn -9.64741047937423e-07 0.0 1.0
vn -9.647409342505853e-07 0.0 1.0
vn -9.64741047937423e-07 0.0 1.0
vn 1.5966415389812028e-07 0.0 1.0
vn 1.5966415389812028e-07 0.0 1.0
vn -0.42167890071868896 0.8415119647979736 0.33770468831062317
vn -0.42167893052101135 0.8415119647979736 0.33770468831062317
vn -0.42167890071868896 0.8415119647979736 0.3377046585083008
vn -0.42167890071868896 0.8415119647979736 0.33770471811294556
vn -0.3737882673740387 0.8737809062004089 0.3111096918582916
vn -0.37378832697868347 0.8737809062004089 0.3111096918582916
vn -0.3737882673740387 0.8737809062004089 0.3111096918582916
vn 0.8807287216186523 0.00019142625387758017 0.47362107038497925
vn 0.8807287216186523 0.0001914262684294954 0.47362107038497925
vn 0.8807287216186523 0.0001914262684294954 0.47362110018730164
vn 0.8807287216186523 0.0001914262684294954 0.47362110018730164
vn 0.8802269697189331 0.0 0.47455281019210815
vn -0.9000757336616516 0.0 0.4357333481311798
vn -0.9000757336616516 0.0 0.4357333183288574
vn -0.9000757336616516 0.0 0.4357333481311798
vn -0.9000757336616516 0.0 0.43573328852653503
vn -0.8442081809043884 0.528731107711792 0.08806854486465454
vn -0.8442081809043884 0.5287309885025024 0.08806852996349335
vn -0.8442081809043884 0.5287310481071472 0.08806855231523514
vn -0.8157601952552795 0.5776947736740112 0.028357552364468575
vn -0.8157601952552795 0.5776947736740112 0.028357552364468575
vn -0.81576007604599 0.577694833278656 0.028357548639178276
vn -0.8157601952552795 0.5776947736740112 0.028357552364468575
vn -0.7716266512870789 0.0 -0.6360756754875183
vn -0.7716266512870789 0.0 -0.6360756754875183
vn -0.7716267108917236 0.0 -0.6360756158828735
vn -0.7716266512870789 0.0 -0.6360756754875183
vn -0.7724907398223877 -0.0017789941048249602 -0.6350235939025879
vn 0.8660249710083008 0.0 -0.5000007152557373
vn 0.8660249710083008 0.0 -0.5000007152557373
vn 0.8660249710083008 0.0 -0.5000007152557373
vn 0.8660238981246948 3.7606088199027e-07 -0.5000026226043701
vn 0.8660238981246948 3.7606085356856056e-07 -0.5000025629997253
vn -0.2979336082935333 0.375103622674942 -0.8777999877929688
vn -0.2979336082935333 0.375103622674942 -0.8777999877929688
vn -0.2979336380958557 0.375103622674942 -0.8777999877929688
vn -0.2979336082935333 0.37510359287261963 -0.8777999877929688
vn -0.3054569363594055 0.3363220989704132 -0.8908329606056213
vn -0.22049149870872498 0.33724817633628845 -0.9152306914329529
vn -0.22049148380756378 0.33724814653396606 -0.9152306914329529
vn -0.22049149870872498 0.33724814653396606 -0.9152306914329529
vn -0.2637719511985779 0.0 -0.96458500623703
vn -0.2637719511985779 0.0 -0.96458500623703
vn -0.2637719511985779 0.0 -0.96458500623703
vn -0.2637719213962555 0.0 -0.96458500623703
vt 0.03746693208813667 0.8480974435806274
vt 0.0019921057391911745 0.6328937113285065
vt 0.13421587646007538 0.5149967670440674
vt 0.27042484283447266 0.9046831876039505
vt 0.27042484283447266 0.643229216337204
vt 0.143789604306221 0.9981930407229811
vt 0.9638389945030212 0.0947113037109375
vt 0.9980079531669617 0.11443912982940674
vt 0.9508962035179138 0.19189387559890747
vt 0.8608347177505493 0.1502436399459839
vt 0.3866027593612671 0.40645086765289307
vt 0.43609485030174255 0.48592501878738403
vt 0.43609485030174255 0.9981930407229811
vt 0.276989221572876 0.7367390692234039
vt 0.276989221572876 0.35955989360809326
vt 0.9459173083305359 0.2309989333152771
vt 0.8276304006576538 0.16801315546035767
vt 0.8608347177505493 0.1502436399459839
vt 0.9508962035179138 0.19189387559890747
vt 0.8276304006576538 0.27762675285339355
vt 0.8276304006576538 0.16801315546035767
vt 0.9459173083305359 0.2309989333152771
vt 0.23722033202648163 0.2445562481880188
vt 0.27042484283447266 0.2660500407218933
vt 0.27042484283447266 0.643229216337204
vt 0.13421587646007538 0.5149967670440674
vt 0.13421587646007538 0.2887560725212097
vt 0.7057589292526245 0.9046831876039505
vt 0.7057589292526245 0.3924151659011841
vt 0.832394003868103 0.46920502185821533
vt 0.832394003868103 0.9981930407229811
vt 0.9766963124275208 0.37006086111068726
vt 0.9542654156684875 0.3884236812591553
vt 0.8276304006576538 0.32711881399154663
vt 0.8276304006576538 0.27762675285339355
vt 0.9459173083305359 0.2309989333152771
vt 0.9766963124275208 0.37006086111068726
vt 0.8276304006576538 0.32711881399154663
vt 0.832394003868103 0.46920502185821533
vt 0.9387167096138 0.574648916721344
vt 0.9387167096138 0.8480974435806274
vt 0.832394003868103 0.9981930407229811
vt 0.8548249006271362 0.43614959716796875
vt 0.0019921057391911745 0.6328937113285065
vt 0.0019921057391911745 0.5861056745052338
vt 0.13421587646007538 0.5149967670440674
vt 0.10004711896181107 0.2829896807670593
vt 0.13421587646007538 0.2887560725212097
vt 0.44265004992485046 0.9437523446977139
vt 0.6289896965026855 0.6520931124687195
vt 0.6982717514038086 0.7905924469232559
vt 0.5592098832130432 0.9758642688393593
vt 0.5201045870780945 0.9981928789056838
vt 0.4992621839046478 0.6406363546848297
vt 0.6289896965026855 0.6520931124687195
vt 0.44265004992485046 0.9437523446977139
vt 0.6289896965026855 0.6520931124687195
vt 0.4992621839046478 0.6406363546848297
vt 0.4992621839046478 0.593848317861557
vt 0.6289896965026855 0.37864428758621216

g equalizer_crystal_0016_shard_001
s 1
usemtl equalizer_crystal_0016_shard_001
f 1/1/1 2/2/2 3/3/3 
f 4/4/4 1/1/1 3/3/3 
f 5/5/5 4/4/4 3/3/3 
f 4/4/4 6/6/6 1/1/1 
f 7/7/7 8/8/8 9/9/9 
f 7/7/7 9/9/9 10/10/10 
f 11/11/11 12/12/12 13/13/13 
f 14/14/14 11/11/11 13/13/13 
f 14/14/14 15/15/15 11/11/11 
f 16/16/16 17/17/17 18/18/18 
f 16/16/16 18/18/18 19/19/19 
f 20/20/20 21/21/21 22/22/22 
f 23/23/23 24/24/24 25/25/25 
f 23/23/23 25/25/25 26/26/26 
f 26/26/26 27/27/27 23/23/23 
f 28/28/28 29/29/29 30/30/30 
f 28/28/28 30/30/30 31/31/31 
f 32/32/32 33/33/33 34/34/34 
f 35/35/35 36/36/36 37/37/37 
f 35/35/35 37/37/37 38/38/38 
f 39/39/39 40/40/40 41/41/41 
f 39/39/39 41/41/41 42/42/42 
f 43/43/43 40/40/40 39/39/39 
f 44/44/44 45/45/45 46/46/46 
f 47/47/47 46/46/46 45/45/45 
f 47/47/47 48/48/48 46/46/46 
f 49/49/49 50/50/50 51/51/51 
f 49/49/49 51/51/51 52/52/52 
f 53/53/53 49/49/49 52/52/52 
f 54/54/54 55/55/55 56/56/56 
f 57/57/57 58/58/58 59/59/59 
f 57/57/57 59/59/59 60/60/60 

