v 0.4795922636985779 -1.9703985452651978 0.7682446241378784
v -0.6165789365768433 -0.8464990258216858 0.911730945110321
v -1.0266979932785034 -0.4114099144935608 0.19133056700229645
v -0.5561486482620239 -0.8742235898971558 -0.911730945110321
v 0.6008453369140625 -2.0644242763519287 -0.8542456030845642
v 1.0267974138259888 -2.515568733215332 -0.14536376297473907
v -0.21546508371829987 2.4869651794433594 -0.4781860113143921
v 0.46572965383529663 2.515568733215332 -0.14155517518520355
v 0.6028576493263245 2.106694221496582 -0.8546508550643921
v -0.42596039175987244 2.366816282272339 -0.870349109172821
v -0.4215991199016571 2.3487181663513184 -0.9022876024246216
v 0.9179034233093262 2.3357739448547363 -0.29246336221694946
v 0.46572965383529663 2.515568733215332 -0.14155517518520355
v -0.21546508371829987 2.4869651794433594 -0.4781860113143921
v 0.06554321199655533 2.5079638957977295 0.23554931581020355
v 0.46572965383529663 2.515568733215332 -0.14155517518520355
v 0.06554321199655533 2.5079638957977295 0.23554931581020355
v 1.0258660316467285 2.175893545150757 -0.14458739757537842
v 0.9179034233093262 2.3357739448547363 -0.29246336221694946
v 0.47991514205932617 1.9185521602630615 0.7670678496360779
v -0.06229949742555618 2.193855047225952 0.83978271484375
v 0.47991514205932617 1.9185521602630615 0.7670678496360779
v -0.6165789365768433 1.6834325790405273 0.911730945110321
v -0.6165789365768433 -0.8464990258216858 0.911730945110321
v 0.4795922636985779 -1.9703985452651978 0.7682446241378784
v -0.06229949742555618 2.193855047225952 0.83978271484375
v 1.0267974138259888 -2.515568733215332 -0.14536376297473907
v 1.0258660316467285 2.175893545150757 -0.14458739757537842
v 0.47991514205932617 1.9185521602630615 0.7670678496360779
v 0.4795922636985779 -1.9703985452651978 0.7682446241378784
v -0.9293841123580933 1.5905810594558716 0.36932373046875
v -0.6165789365768433 1.6834325790405273 0.911730945110321
v -0.06229949742555618 2.193855047225952 0.83978271484375
v 0.06554321199655533 2.5079638957977295 0.23554931581020355
v -0.21546508371829987 2.4869651794433594 -0.4781860113143921
v -0.42596039175987244 2.366816282272339 -0.870349109172821
v -0.9293841123580933 1.5905810594558716 0.36932373046875
v -0.21546508371829987 2.4869651794433594 -0.4781860113143921
v 0.6008453369140625 -2.0644242763519287 -0.8542456030845642
v 0.6028576493263245 2.106694221496582 -0.8546508550643921
v 1.0258660316467285 2.175893545150757 -0.14458739757537842
v 1.0267974138259888 -2.515568733215332 -0.14536376297473907
v 0.9179034233093262 2.3357739448547363 -0.29246336221694946
v 1.0258660316467285 2.175893545150757 -0.14458739757537842
v 0.6028576493263245 2.106694221496582 -0.8546508550643921
v -0.6165789365768433 -0.8464990258216858 0.911730945110321
v -0.6165789365768433 1.6834325790405273 0.911730945110321
v -0.9293841123580933 1.5905810594558716 0.36932373046875
v -1.0267974138259888 0.8097729086875916 0.19130127131938934
v -1.0266979932785034 -0.4114099144935608 0.19133056700229645
v -0.5560336112976074 1.4402685165405273 -0.9115405082702637
v -1.0267974138259888 0.8097729086875916 0.19130127131938934
v -0.9293841123580933 1.5905810594558716 0.36932373046875
v -0.42596039175987244 2.366816282272339 -0.870349109172821
v -0.4215991199016571 2.3487181663513184 -0.9022876024246216
v -0.5560336112976074 1.4402685165405273 -0.9115405082702637
v -0.42596039175987244 2.366816282272339 -0.870349109172821
v -0.5561486482620239 -0.8742235898971558 -0.911730945110321
v -1.0266979932785034 -0.4114099144935608 0.19133056700229645
v -1.0267974138259888 0.8097729086875916 0.19130127131938934
v -0.5560336112976074 1.4402685165405273 -0.9115405082702637
v -0.5561486482620239 -0.8742235898971558 -0.911730945110321
v -0.5560336112976074 1.4402685165405273 -0.9115405082702637
v 0.6028576493263245 2.106694221496582 -0.8546508550643921
v 0.6008453369140625 -2.0644242763519287 -0.8542456030845642
v -0.4215991199016571 2.3487181663513184 -0.9022876024246216
vn -0.7166591286659241 -0.6972997188568115 -0.013148474507033825
vn -0.7166591882705688 -0.6972996592521667 -0.013148474507033825
vn -0.7166591882705688 -0.6972996592521667 -0.013148474507033825
vn -0.7166591882705688 -0.6972996592521667 -0.01314847357571125
vn -0.7166593074798584 -0.6972995400428772 -0.013148220255970955
vn -0.7166593074798584 -0.6972995400428772 -0.01314821932464838
vn 0.20802827179431915 0.8768176436424255 -0.43349188566207886
vn 0.20802824199199677 0.8768176436424255 -0.43349194526672363
vn 0.20802824199199677 0.8768176436424255 -0.43349194526672363
vn 0.20802824199199677 0.876817524433136 -0.43349188566207886
vn 0.22457680106163025 0.8606499433517456 -0.45699775218963623
vn 0.1910809874534607 0.8669358491897583 -0.46033722162246704
vn -0.034058332443237305 0.9992918968200684 -0.015990858897566795
vn -0.0340583361685276 0.9992918968200684 -0.015990858897566795
vn -0.0340583361685276 0.9992918968200684 -0.015990855172276497
vn 0.4539237320423126 0.7441607117652893 0.49007973074913025
vn 0.4539237320423126 0.7441607117652893 0.49007973074913025
vn 0.4539237320423126 0.7441607117652893 0.49007970094680786
vn 0.4539237320423126 0.7441607117652893 0.49007973074913025
vn 0.44936197996139526 0.751501202583313 0.4830319285392761
vn 0.4493619203567505 0.751501202583313 0.4830319881439209
vn 0.13036450743675232 0.0001751992094796151 0.9914660453796387
vn 0.13036449253559113 0.00017519919492769986 0.9914660453796387
vn 0.13036449253559113 0.00017519919492769986 0.9914660453796387
vn 0.13036449253559113 0.00017519919492769986 0.9914660453796387
vn 0.13142754137516022 -0.0029852990992367268 0.9913212656974792
vn 0.8579136729240417 8.48285635584034e-05 0.5137937068939209
vn 0.8579136729240417 8.482857083436102e-05 0.5137937664985657
vn 0.8579136729240417 8.48285635584034e-05 0.5137937664985657
vn 0.8579136729240417 8.482855628244579e-05 0.5137937664985657
vn -0.6395867466926575 0.7289454340934753 0.24406413733959198
vn -0.6395867466926575 0.7289454340934753 0.24406413733959198
vn -0.6395867466926575 0.7289454340934753 0.24406413733959198
vn -0.6411858201026917 0.7299211025238037 0.23684586584568024
vn -0.6411858201026917 0.7299211025238037 0.23684586584568024
vn -0.694417417049408 0.7020955681800842 0.15762659907341003
vn -0.694417417049408 0.7020955681800842 0.15762659907341003
vn -0.6944174766540527 0.7020955085754395 0.15762659907341003
vn 0.8581244945526123 -8.31453362479806e-05 -0.5134416818618774
vn 0.8581244945526123 -8.314532897202298e-05 -0.5134416222572327
vn 0.8581244945526123 -8.314534352393821e-05 -0.5134416818618774
vn 0.8581244945526123 -8.314534352393821e-05 -0.5134417414665222
vn 0.8508715033531189 0.09699378162622452 -0.5163427591323853
vn 0.8508715033531189 0.09699378162622452 -0.5163427591323853
vn 0.8508715033531189 0.09699378162622452 -0.5163427591323853
vn -0.8684186339378357 -0.0011095930822193623 0.4958304166793823
vn -0.8684186339378357 -0.0011095928493887186 0.49583032727241516
vn -0.8684187531471252 -0.001109593198634684 0.49583032727241516
vn -0.8684187531471252 -0.0011095930822193623 0.49583032727241516
vn -0.8690567016601562 -5.8654786698753014e-05 0.4947126507759094
vn -0.9418659806251526 0.16320118308067322 -0.2936900854110718
vn -0.9418659806251526 0.16320118308067322 -0.293690025806427
vn -0.9418659806251526 0.16320118308067322 -0.2936900854110718
vn -0.9418659806251526 0.1632012128829956 -0.2936900854110718
vn -0.965962290763855 0.14512622356414795 -0.21413831412792206
vn -0.965962290763855 0.14512623846530914 -0.21413837373256683
vn -0.965962290763855 0.14512622356414795 -0.21413832902908325
vn -0.9197595119476318 2.192708598158788e-05 -0.3924823999404907
vn -0.9197595119476318 2.1927084162598476e-05 -0.39248237013816833
vn -0.9197595119476318 2.1927087800577283e-05 -0.3924823999404907
vn -0.9197595119476318 2.192708598158788e-05 -0.3924823999404907
vn 0.04931596294045448 -4.926083056489006e-05 -0.9987832903862
vn 0.04931596294045448 -4.926082328893244e-05 -0.9987832903862
vn 0.04931596294045448 -4.926082328893244e-05 -0.9987832903862
vn 0.04931595176458359 -4.926083056489006e-05 -0.9987832903862
vn 0.04720079526305199 0.0031890703830868006 -0.9988803267478943
vt 0.023251622915267944 0.9168436527252197
vt 0.0018893979722633958 0.7495185136795044
vt 0.10914204269647598 0.6847427785396576
vt 0.27336496114730835 0.7536459565162659
vt 0.26480650901794434 0.9308421015739441
vt 0.15926878154277802 0.998007986927405
vt 0.8833978176116943 0.18680036067962646
vt 0.8332805037498474 0.08538460731506348
vt 0.9394454956054688 0.06496906280517578
vt 0.9417828321456909 0.21813851594924927
vt 0.9465377926826477 0.2174893021583557
vt 0.8557474613189697 0.018065154552459717
vt 0.8332805037498474 0.08538460731506348
vt 0.8833978176116943 0.18680036067962646
vt 0.7771375179290771 0.14496386051177979
vt 0.8332805037498474 0.08538460731506348
vt 0.7771375179290771 0.14496386051177979
vt 0.8337320685386658 0.0019919872283935547
vt 0.8557474613189697 0.018065154552459717
vt 0.6980054378509521 0.08327263593673706
vt 0.6871799826622009 0.16399699449539185
vt 0.6029047966003418 0.337860107421875
vt 0.7661498785018921 0.3728645443916321
vt 0.7661498785018921 0.7495185136795044
vt 0.6029529571533203 0.9168436527252197
vt 0.6836291551589966 0.2968732714653015
vt 0.521485447883606 0.998007986927405
vt 0.5216241478919983 0.29954737424850464
vt 0.6029047966003418 0.337860107421875
vt 0.6029529571533203 0.9168436527252197
vt 0.7572213411331177 0.29308778047561646
vt 0.6764680743217468 0.24651753902435303
vt 0.6871799826622009 0.16399699449539185
vt 0.7771375179290771 0.14496386051177979
vt 0.8833978176116943 0.18680036067962646
vt 0.9417828321456909 0.21813851594924927
vt 0.7572213411331177 0.29308778047561646
vt 0.8833978176116943 0.18680036067962646
vt 0.34275534749031067 0.3409828543663025
vt 0.34245574474334717 0.961975447833538
vt 0.27947863936424255 0.9722777660936117
vt 0.2793399393558502 0.27381712198257446
vt 0.29555192589759827 0.9960805270820856
vt 0.27947863936424255 0.9722777660936117
vt 0.34245574474334717 0.961975447833538
vt 0.0018893979722633958 0.7495185136795044
vt 0.0018893979722633958 0.3728645443916321
vt 0.08264265954494476 0.3866880536079407
vt 0.10914629697799683 0.5029341280460358
vt 0.10914204269647598 0.6847427785396576
vt 0.27333664894104004 0.40906649827957153
vt 0.10914629697799683 0.5029341280460358
vt 0.08264265954494476 0.3866880536079407
vt 0.2672041058540344 0.27112293243408203
vt 0.271959125995636 0.27381712198257446
vt 0.27333664894104004 0.40906649827957153
vt 0.2672041058540344 0.27112293243408203
vt 0.27336496114730835 0.7536459565162659
vt 0.10914204269647598 0.6847427785396576
vt 0.10914629697799683 0.5029341280460358
vt 0.27333664894104004 0.40906649827957153
vt 0.5150075554847717 0.5181788504123688
vt 0.514990508556366 0.8627587556838989
vt 0.34245574474334717 0.961975447833538
vt 0.34275534749031067 0.3409828543663025
vt 0.4949759840965271 0.998007986927405

g equalizer_crystal_0011_shard_001
s 1
usemtl equalizer_crystal_0011_shard_001
f 1/1/1 2/2/2 3/3/3 
f 1/1/1 3/3/3 4/4/4 
f 5/5/5 1/1/1 4/4/4 
f 5/5/5 6/6/6 1/1/1 
f 7/7/7 8/8/8 9/9/9 
f 7/7/7 9/9/9 10/10/10 
f 11/11/11 10/10/10 9/9/9 
f 12/12/12 9/9/9 8/8/8 
f 13/13/13 14/14/14 15/15/15 
f 16/16/16 17/17/17 18/18/18 
f 16/16/16 18/18/18 19/19/19 
f 17/17/17 20/20/20 18/18/18 
f 17/17/17 21/21/21 20/20/20 
f 22/22/22 23/23/23 24/24/24 
f 22/22/22 24/24/24 25/25/25 
f 26/26/26 23/23/23 22/22/22 
f 27/27/27 28/28/28 29/29/29 
f 27/27/27 29/29/29 30/30/30 
f 31/31/31 32/32/32 33/33/33 
f 34/34/34 31/31/31 33/33/33 
f 34/34/34 35/35/35 31/31/31 
f 36/36/36 37/37/37 38/38/38 
f 39/39/39 40/40/40 41/41/41 
f 39/39/39 41/41/41 42/42/42 
f 43/43/43 44/44/44 45/45/45 
f 46/46/46 47/47/47 48/48/48 
f 46/46/46 48/48/48 49/49/49 
f 46/46/46 49/49/49 50/50/50 
f 51/51/51 52/52/52 53/53/53 
f 51/51/51 53/53/53 54/54/54 
f 55/55/55 56/56/56 57/57/57 
f 58/58/58 59/59/59 60/60/60 
f 58/58/58 60/60/60 61/61/61 
f 62/62/62 63/63/63 64/64/64 
f 62/62/62 64/64/64 65/65/65 
f 66/66/66 64/64/64 63/63/63 

