v -0.5851287841796875 -1.0173351764678955 0.7193188071250916
v -1.0942602157592773 -1.0520031452178955 -0.16252197325229645
v -0.5318368673324585 -1.6724376678466797 -0.8116235136985779
v 0.3784164488315582 -1.5915294885635376 0.8116235136985779
v 0.22362273931503296 -2.152000665664673 -0.8116235136985779
v 1.0942602157592773 -2.433087110519409 -0.14237548410892487
v -0.3014724552631378 1.321749210357666 0.7441039681434631
v 0.0774303451180458 2.433087110519409 -0.46671628952026367
v -0.7952257990837097 1.5458215475082397 0.3554174602031708
v -0.8392500877380371 2.226900577545166 -0.4571762681007385
v 0.3784164488315582 1.4109094142913818 0.8116235136985779
v 0.8481432795524597 2.041163206100464 0.18956786394119263
v -1.0942602157592773 1.9217981100082397 -0.16252197325229645
v 0.0774303451180458 2.433087110519409 -0.46671628952026367
v 0.8481432795524597 2.041163206100464 0.18956786394119263
v 0.22362273931503296 2.33988881111145 -0.8116235136985779
v 0.0907062515616417 2.412022590637207 -0.8116235136985779
v 1.0942602157592773 1.8942540884017944 -0.14237548410892487
v -0.5851287841796875 0.49692502617836 0.7193188071250916
v -0.3014724552631378 1.321749210357666 0.7441039681434631
v -0.7952257990837097 1.5458215475082397 0.3554174602031708
v -0.5318368673324585 2.256754159927368 -0.8116235136985779
v -0.8392500877380371 2.226900577545166 -0.4571762681007385
v 0.0774303451180458 2.433087110519409 -0.46671628952026367
v 0.0907062515616417 2.412022590637207 -0.8116235136985779
v 1.0942602157592773 -2.433087110519409 -0.14237548410892487
v 1.0942602157592773 1.8942540884017944 -0.14237548410892487
v 0.3784164488315582 -1.5915294885635376 0.8116235136985779
v 0.8481432795524597 2.041163206100464 0.18956786394119263
v 0.3784164488315582 1.4109094142913818 0.8116235136985779
v 0.3784164488315582 -1.5915294885635376 0.8116235136985779
v 0.3784164488315582 1.4109094142913818 0.8116235136985779
v -0.5851287841796875 -1.0173351764678955 0.7193188071250916
v -0.3014724552631378 1.321749210357666 0.7441039681434631
v -0.5851287841796875 0.49692502617836 0.7193188071250916
v -0.5851287841796875 -1.0173351764678955 0.7193188071250916
v -0.5851287841796875 0.49692502617836 0.7193188071250916
v -1.0942602157592773 -1.0520031452178955 -0.16252197325229645
v -0.5851287841796875 0.49692502617836 0.7193188071250916
v -0.7952257990837097 1.5458215475082397 0.3554174602031708
v -1.0942602157592773 -1.0520031452178955 -0.16252197325229645
v -1.0942602157592773 1.9217981100082397 -0.16252197325229645
v -0.5318368673324585 -1.6724376678466797 -0.8116235136985779
v -1.0942602157592773 -1.0520031452178955 -0.16252197325229645
v -1.0942602157592773 1.9217981100082397 -0.16252197325229645
v -0.8392500877380371 2.226900577545166 -0.4571762681007385
v -0.5318368673324585 2.256754159927368 -0.8116235136985779
v -0.5318368673324585 2.256754159927368 -0.8116235136985779
v 0.22362273931503296 -2.152000665664673 -0.8116235136985779
v -0.5318368673324585 -1.6724376678466797 -0.8116235136985779
v 0.0907062515616417 2.412022590637207 -0.8116235136985779
v 0.22362273931503296 2.33988881111145 -0.8116235136985779
v 0.22362273931503296 2.33988881111145 -0.8116235136985779
v 1.0942602157592773 1.8942540884017944 -0.14237548410892487
v 0.22362273931503296 -2.152000665664673 -0.8116235136985779
v 1.0942602157592773 -2.433087110519409 -0.14237548410892487
vn -0.5070000290870667 -0.7986863255500793 0.3241161108016968
vn -0.5070000290870667 -0.7986862659454346 0.3241160809993744
vn -0.5069999694824219 -0.7986863255500793 0.3241161108016968
vn -0.5070009231567383 -0.7986860871315002 0.3241150975227356
vn -0.5070021748542786 -0.7986847758293152 0.3241162598133087
vn -0.5070009231567383 -0.798685610294342 0.3241161108016968
vn -0.1620752215385437 0.751727819442749 0.6392471790313721
vn -0.1620752364397049 0.7517278790473938 0.6392471194267273
vn -0.1620752364397049 0.7517278790473938 0.6392471194267273
vn -0.16246552765369415 0.7518677711486816 0.6389835476875305
vn -0.1620713174343109 0.7517268061637878 0.639249324798584
vn -0.1620713174343109 0.7517268061637878 0.6392493844032288
vn -0.16134817898273468 0.7520387768745422 0.6390652656555176
vn 0.476707398891449 0.8783535957336426 -0.03528487682342529
vn 0.476707398891449 0.8783535957336426 -0.03528487682342529
vn 0.476707398891449 0.8783535957336426 -0.03528487682342529
vn 0.4766879975795746 0.8783635497093201 -0.03530032932758331
vn 0.47670724987983704 0.8783537745475769 -0.03528200089931488
vn -0.561286449432373 0.16867853701114655 0.8102499842643738
vn -0.5612865090370178 0.16867853701114655 0.8102499842643738
vn -0.5612863898277283 0.16867855191230774 0.8102499842643738
vn -0.21922437846660614 0.9696264863014221 -0.10846792161464691
vn -0.21922437846660614 0.9696264863014221 -0.10846790671348572
vn -0.21922436356544495 0.9696264863014221 -0.10846790671348572
vn -0.24142996966838837 0.9680038094520569 -0.06841226667165756
vn 0.7998613119125366 0.0 0.6001849174499512
vn 0.7998612523078918 0.0 0.6001849174499512
vn 0.7998613119125366 0.0 0.6001849174499512
vn 0.8029156923294067 -0.0017480953829362988 0.5960900187492371
vn 0.7980343699455261 0.0 0.602611780166626
vn -0.09536058455705643 0.0 0.9954427480697632
vn -0.09536058455705643 0.0 0.9954427480697632
vn -0.09536059200763702 0.0 0.9954427480697632
vn -0.09901344776153564 0.0014631544472649693 0.9950849413871765
vn -0.08704598248004913 0.0 0.9962043166160583
vn -0.8660251498222351 0.0 0.500000536441803
vn -0.8660251498222351 0.0 0.500000536441803
vn -0.8660251498222351 0.0 0.500000536441803
vn -0.8660258650779724 8.521957965967886e-07 0.4999992251396179
vn -0.8660258650779724 8.521957965967886e-07 0.4999992251396179
vn -0.8660258650779724 8.521956829099508e-07 0.49999913573265076
vn -0.8660240769386292 0.0 0.5000022649765015
vn -0.7557648420333862 0.0 -0.6548430919647217
vn -0.755764901638031 0.0 -0.6548430919647217
vn -0.7557648420333862 0.0 -0.6548430919647217
vn -0.7560825943946838 -0.00011611986701609567 -0.6544761657714844
vn -0.7554510235786438 0.0 -0.6552050709724426
vn 0.0 0.0 -1.0
vn 0.0 0.0 -1.0
vn 0.0 0.0 -1.0
vn -1.3648963204104803e-07 0.0 -1.0
vn 6.542627488670405e-07 0.0 -1.0
vn 0.6094400882720947 0.0 -0.7928321361541748
vn 0.6094400882720947 0.0 -0.7928321361541748
vn 0.60944002866745 0.0 -0.7928321957588196
vn 0.6094400882720947 0.0 -0.7928321361541748
vt 0.25305837392807007 0.7971848547458649
vt 0.37820467352867126 0.8021046221256256
vt 0.4703216850757599 0.8901534900069237
vt 0.2399590015411377 0.878671407699585
vt 0.4703216850757599 0.9582106545567513
vt 0.375345379114151 0.9981008800677955
vt 0.7772272229194641 0.24663889408111572
vt 0.9490605592727661 0.19286710023880005
vt 0.8323876261711121 0.31670981645584106
vt 0.9477068185806274 0.32295751571655273
vt 0.7676454186439514 0.15015268325805664
vt 0.8559241890907288 0.08349138498306274
vt 0.9058910608291626 0.359147310256958
vt 0.9490605592727661 0.19286710023880005
vt 0.8559241890907288 0.08349138498306274
vt 0.998008131980896 0.17212015390396118
vt 0.998008131980896 0.19098305702209473
vt 0.9030317664146423 0.04856389760971069
vt 0.7160614132881165 0.5822891294956207
vt 0.6758063435554504 0.4652342200279236
vt 0.7458773255348206 0.43343502283096313
vt 0.998008131980896 0.27933090925216675
vt 0.9477068185806274 0.32295751571655273
vt 0.9490605592727661 0.19286710023880005
vt 0.998008131980896 0.19098305702209473
vt 0.477731317281723 0.9981008800677955
vt 0.477731317281723 0.3839873671531677
vt 0.5793200731277466 0.878671407699585
vt 0.512658953666687 0.3631388545036316
vt 0.5793200731277466 0.4525812268257141
vt 0.5793200731277466 0.878671407699585
vt 0.5793200731277466 0.4525812268257141
vt 0.7160614132881165 0.7971848547458649
vt 0.6758063435554504 0.4652342200279236
vt 0.7160614132881165 0.5822891294956207
vt 0.7160614132881165 0.7971848547458649
vt 0.7160614132881165 0.5822891294956207
vt 0.7883146405220032 0.8021046221256256
vt 0.25305837392807007 0.5822891294956207
vt 0.30470120906829834 0.43343502283096313
vt 0.37820467352867126 0.8021046221256256
vt 0.37820467352867126 0.3800785541534424
vt 0.4703216850757599 0.8901534900069237
vt 0.37820467352867126 0.8021046221256256
vt 0.37820467352867126 0.3800785541534424
vt 0.4200204312801361 0.3367798924446106
vt 0.4703216850757599 0.33254337310791016
vt 0.23275916278362274 0.9760658070445061
vt 0.12554828822612762 0.35039854049682617
vt 0.23275916278362274 0.41845571994781494
vt 0.1444111168384552 0.9981008800677955
vt 0.12554828822612762 0.9878639774397016
vt 0.12554828822612762 0.9878639774397016
vt 0.001992000499740243 0.9246218055486679
vt 0.12554828822612762 0.35039854049682617
vt 0.001992000499740243 0.3105083107948303

g equalizer_crystal_0010_shard_002
s 1
usemtl equalizer_crystal_0010_shard_002
f 1/1/1 2/2/2 3/3/3 
f 3/3/3 4/4/4 1/1/1 
f 3/3/3 5/5/5 4/4/4 
f 4/4/4 5/5/5 6/6/6 
f 7/7/7 8/8/8 9/9/9 
f 8/8/8 10/10/10 9/9/9 
f 11/11/11 8/8/8 7/7/7 
f 12/12/12 8/8/8 11/11/11 
f 9/9/9 10/10/10 13/13/13 
f 14/14/14 15/15/15 16/16/16 
f 17/17/17 14/14/14 16/16/16 
f 18/18/18 16/16/16 15/15/15 
f 19/19/19 20/20/20 21/21/21 
f 22/22/22 23/23/23 24/24/24 
f 25/25/25 22/22/22 24/24/24 
f 26/26/26 27/27/27 28/28/28 
f 28/28/28 27/27/27 29/29/29 
f 29/29/29 30/30/30 28/28/28 
f 31/31/31 32/32/32 33/33/33 
f 33/33/33 32/32/32 34/34/34 
f 33/33/33 34/34/34 35/35/35 
f 36/36/36 37/37/37 38/38/38 
f 39/39/39 40/40/40 41/41/41 
f 42/42/42 41/41/41 40/40/40 
f 43/43/43 44/44/44 45/45/45 
f 46/46/46 43/43/43 45/45/45 
f 43/43/43 46/46/46 47/47/47 
f 48/48/48 49/49/49 50/50/50 
f 49/49/49 48/48/48 51/51/51 
f 49/49/49 51/51/51 52/52/52 
f 53/53/53 54/54/54 55/55/55 
f 55/55/55 54/54/54 56/56/56 

