v 0.41864916682243347 0.0 -0.7251217365264893
v -0.4186494052410126 0.0 -0.7251216173171997
v -0.4186494052410126 15.46999740600586 -0.7251216173171997
v -0.41340723633766174 15.474876403808594 -0.7251216173171997
v 0.41864916682243347 15.081610679626465 -0.7251217365264893
v -0.8806454539299011 15.19914722442627 -0.07507915049791336
v -0.4186494052410126 15.46999740600586 -0.7251216173171997
v -0.4186494052410126 0.0 -0.7251216173171997
v -0.8806454539299011 0.0 -0.07507915049791336
v -0.04005153477191925 16.18075180053711 0.7384151816368103
v -0.41340723633766174 15.474876403808594 -0.7251216173171997
v -0.4186494052410126 15.46999740600586 -0.7251216173171997
v -0.8806454539299011 15.19914722442627 -0.07507915049791336
v -0.3728847801685333 15.88710880279541 0.8043878078460693
v -0.16795611381530762 16.1843204498291 0.8007786273956299
v -0.3728847801685333 15.88710880279541 0.8043878078460693
v -0.8806454539299011 15.19914722442627 -0.07507915049791336
v -0.8806454539299011 0.0 -0.07507915049791336
v -0.3728847801685333 0.0 0.8043878078460693
v 0.8508100509643555 15.217757225036621 -0.033779408782720566
v 0.8508100509643555 0.0 -0.033779408782720566
v 0.41864916682243347 0.0 -0.7251217365264893
v 0.41864916682243347 15.081610679626465 -0.7251217365264893
v 0.8001803159713745 15.292868614196777 -0.11477344483137131
v -0.16795611381530762 16.1843204498291 0.8007786273956299
v -0.3728847801685333 15.88710880279541 0.8043878078460693
v -0.3728847801685333 0.0 0.8043878078460693
v 0.4230298101902008 0.0 0.8028898239135742
v 0.08015811443328857 16.16153335571289 0.8007786273956299
v 0.11869830638170242 16.14331817626953 0.8007786273956299
v 0.4230298101902008 15.7839994430542 0.8028898239135742
v 0.8508100509643555 15.217757225036621 -0.033779408782720566
v 0.4230298101902008 15.7839994430542 0.8028898239135742
v 0.4230298101902008 0.0 0.8028898239135742
v 0.8508100509643555 0.0 -0.033779408782720566
v -0.04005153477191925 16.18075180053711 0.7384151816368103
v -0.16795611381530762 16.1843204498291 0.8007786273956299
v 0.08015811443328857 16.16153335571289 0.8007786273956299
v 0.8001803159713745 15.292868614196777 -0.11477344483137131
v 0.41864916682243347 15.081610679626465 -0.7251217365264893
v -0.41340723633766174 15.474876403808594 -0.7251216173171997
v -0.04005153477191925 16.18075180053711 0.7384151816368103
v 0.11869830638170242 16.14331817626953 0.8007786273956299
v 0.08015811443328857 16.16153335571289 0.8007786273956299
v 0.11869830638170242 16.14331817626953 0.8007786273956299
v 0.4230298101902008 15.7839994430542 0.8028898239135742
v 0.8508100509643555 15.217757225036621 -0.033779408782720566
v 0.8001803159713745 15.292868614196777 -0.11477344483137131
vn -1.4771606515751046e-07 0.0 -1.0
vn -1.4771606515751046e-07 0.0 -1.0
vn -1.4771605094665574e-07 0.0 -1.0
vn -1.4771606515751046e-07 0.0 -1.0
vn -1.4771606515751046e-07 0.0 -1.0
vn -0.8151071667671204 0.0 -0.5793102383613586
vn -0.8151071071624756 0.0 -0.5793102979660034
vn -0.8151071071624756 0.0 -0.5793103575706482
vn -0.8151071071624756 0.0 -0.5793103575706482
vn -0.6703187227249146 0.7158709764480591 -0.1954522281885147
vn -0.6703187227249146 0.7158709764480591 -0.19545221328735352
vn -0.6703187227249146 0.7158709764480591 -0.1954522281885147
vn -0.6703187227249146 0.7158709764480591 -0.19545219838619232
vn -0.6703187227249146 0.7158709764480591 -0.19545221328735352
vn -0.6703187227249146 0.7158709764480591 -0.1954522281885147
vn -0.8660253286361694 0.0 0.5000001788139343
vn -0.8660253286361694 0.0 0.5000001788139343
vn -0.8660253286361694 0.0 0.5000001192092896
vn -0.8660253286361694 0.0 0.5000001192092896
vn 0.8479586243629456 0.0 -0.5300624370574951
vn 0.8479586243629456 0.0 -0.5300624370574951
vn 0.8479586243629456 0.0 -0.5300624370574951
vn 0.8479586243629456 0.0 -0.5300624370574951
vn 0.8479586243629456 0.0 -0.5300624370574951
vn 0.0018915002001449466 0.00012405929737724364 0.9999982118606567
vn 0.0018915004329755902 0.00012405931192915887 0.9999982118606567
vn 0.0018915003165602684 0.00012405931192915887 0.9999982118606567
vn 0.0018915003165602684 0.00012405931192915887 0.9999982118606567
vn 0.001891499967314303 0.00012405929737724364 0.9999982118606567
vn 0.001891499850898981 0.0001240592828253284 0.9999982118606567
vn 0.0018915003165602684 0.0001240592828253284 0.9999982118606567
vn 0.8903703093528748 0.0 0.4552370309829712
vn 0.8903703093528748 0.0 0.4552369713783264
vn 0.8903703093528748 0.0 0.4552370309829712
vn 0.8903703093528748 0.0 0.4552370309829712
vn 0.09069008380174637 0.9874234795570374 0.1294993758201599
vn 0.09069008380174637 0.9874234795570374 0.1294993907213211
vn 0.09069007635116577 0.9874234795570374 0.1294993907213211
vn 0.3637393116950989 0.7966266870498657 -0.4827832579612732
vn 0.36373934149742126 0.796626627445221 -0.4827832877635956
vn 0.36373934149742126 0.796626627445221 -0.4827832877635956
vn 0.36373937129974365 0.7966266870498657 -0.4827832579612732
vn 0.36373934149742126 0.796626627445221 -0.4827832877635956
vn 0.36373934149742126 0.796626627445221 -0.4827832877635956
vn 0.7759767770767212 0.6304896473884583 -0.01851491816341877
vn 0.7759767770767212 0.6304896473884583 -0.01851491816341877
vn 0.7759767770767212 0.6304896473884583 -0.01851492002606392
vn 0.7759767770767212 0.630489706993103 -0.01851492002606392
vt 0.5215927362442017 0.9999736547470093
vt 0.47582951188087463 0.9999736547470093
vt 0.47662830352783203 0.1543445587158203
vt 0.47695621848106384 0.15404987335205078
vt 0.5221167802810669 0.17584621906280518
vt 0.4307951331138611 0.16589033603668213
vt 0.47662830352783203 0.1543445587158203
vt 0.47582951188087463 0.9999736547470093
vt 0.4300576150417328 0.9999736547470093
vt 0.520038366317749 0.08569371700286865
vt 0.47695621848106384 0.15404987335205078
vt 0.47662830352783203 0.1543445587158203
vt 0.45675039291381836 0.11179769039154053
vt 0.4981335401535034 0.0762331485748291
vt 0.5203169584274292 0.07888197898864746
vt 0.38500165939331055 0.1348404884338379
vt 0.4307951331138611 0.16589033603668213
vt 0.4300576150417328 0.9999736547470093
vt 0.38428860902786255 0.9999736547470093
vt 0.29337239265441895 0.1679619550704956
vt 0.29272785782814026 0.9999736547470093
vt 0.24693912267684937 0.9999736547470093
vt 0.247580423951149 0.1753690242767334
vt 0.2880019545555115 0.1638510823249817
vt 0.36815059185028076 0.11914348602294922
vt 0.38500165939331055 0.1348404884338379
vt 0.38428860902786255 0.9999736547470093
vt 0.3385125994682312 0.9999736547470093
vt 0.3572216331958771 0.11913830041885376
vt 0.35247287154197693 0.121379554271698
vt 0.3391919434070587 0.1397336721420288
vt 0.29337239265441895 0.1679619550704956
vt 0.3391919434070587 0.1397336721420288
vt 0.3385125994682312 0.9999736547470093
vt 0.29272785782814026 0.9999736547470093
vt 0.520038366317749 0.08569371700286865
vt 0.5203169584274292 0.07888197898864746
vt 0.5302014350891113 0.08285915851593018
vt 0.5504860877990723 0.14909017086029053
vt 0.5221167802810669 0.17584621906280518
vt 0.47695621848106384 0.15404987335205078
vt 0.520038366317749 0.08569371700286865
vt 0.5344184637069702 0.08536636829376221
vt 0.5302014350891113 0.08285915851593018
vt 0.5344184637069702 0.08536636829376221
vt 0.5512794256210327 0.09804558753967285
vt 0.5567032098770142 0.14828741550445557
vt 0.5504860877990723 0.14909017086029053

g equalizer_crystal_003
s 1
usemtl equalizer_crystal_003
f 1/1/1 2/2/2 3/3/3 
f 3/3/3 4/4/4 1/1/1 
f 4/4/4 5/5/5 1/1/1 
f 6/6/6 7/7/7 8/8/8 
f 6/6/6 8/8/8 9/9/9 
f 10/10/10 11/11/11 12/12/12 
f 12/12/12 13/13/13 10/10/10 
f 13/13/13 14/14/14 10/10/10 
f 14/14/14 15/15/15 10/10/10 
f 16/16/16 17/17/17 18/18/18 
f 16/16/16 18/18/18 19/19/19 
f 20/20/20 21/21/21 22/22/22 
f 22/22/22 23/23/23 20/20/20 
f 23/23/23 24/24/24 20/20/20 
f 25/25/25 26/26/26 27/27/27 
f 27/27/27 28/28/28 25/25/25 
f 28/28/28 29/29/29 25/25/25 
f 28/28/28 30/30/30 29/29/29 
f 28/28/28 31/31/31 30/30/30 
f 32/32/32 33/33/33 34/34/34 
f 32/32/32 34/34/34 35/35/35 
f 36/36/36 37/37/37 38/38/38 
f 39/39/39 40/40/40 41/41/41 
f 41/41/41 42/42/42 39/39/39 
f 42/42/42 43/43/43 39/39/39 
f 42/42/42 44/44/44 43/43/43 
f 45/45/45 46/46/46 47/47/47 
f 45/45/45 47/47/47 48/48/48 

