v -0.18135161697864532 0.7438552975654602 -0.55828857421875
v -0.026054076850414276 0.3575076162815094 0.5656909346580505
v -0.07007629424333572 0.6007168292999268 0.5656909346580505
v -0.1750653088092804 0.7060195803642273 -0.5656909346580505
v -0.2260424792766571 1.2103432416915894 -0.034968260675668716
v -0.2110491842031479 1.1989761590957642 0.1353491246700287
v 0.2260424792766571 -1.2184622287750244 0.12904541194438934
v 0.18600647151470184 1.114768385887146 0.059699706733226776
v 0.2260424792766571 1.0310940742492676 0.12904541194438934
v -0.1750653088092804 0.7348342537879944 -0.5656909346580505
v -0.1750653088092804 0.7060195803642273 -0.5656909346580505
v 0.2260424792766571 -1.2184622287750244 0.12904541194438934
v 0.07665832340717316 0.9449929594993591 0.3877856433391571
v 0.2260424792766571 1.0310940742492676 0.12904541194438934
v -0.055980224162340164 1.2072890996932983 0.17742919921875
v 0.013523559086024761 1.2184622287750244 0.09457763284444809
v 0.18600647151470184 1.114768385887146 0.059699706733226776
v -0.1750653088092804 0.7348342537879944 -0.5656909346580505
v -0.18135161697864532 0.7438552975654602 -0.55828857421875
v 0.18600647151470184 1.114768385887146 0.059699706733226776
v -0.2260424792766571 1.2103432416915894 -0.034968260675668716
v 0.013523559086024761 1.2184622287750244 0.09457763284444809
v -0.18135161697864532 0.7438552975654602 -0.55828857421875
v -0.1750653088092804 0.7348342537879944 -0.5656909346580505
v -0.1750653088092804 0.7060195803642273 -0.5656909346580505
v 0.2260424792766571 -1.2184622287750244 0.12904541194438934
v 0.2260424792766571 1.0310940742492676 0.12904541194438934
v 0.07665832340717316 0.9449929594993591 0.3877856433391571
v -0.026054076850414276 0.6215359568595886 0.5656909346580505
v -0.026054076850414276 0.3575076162815094 0.5656909346580505
v -0.026054076850414276 0.3575076162815094 0.5656909346580505
v -0.026054076850414276 0.6215359568595886 0.5656909346580505
v -0.07007629424333572 0.6007168292999268 0.5656909346580505
v -0.07007629424333572 0.6007168292999268 0.5656909346580505
v -0.026054076850414276 0.6215359568595886 0.5656909346580505
v -0.2110491842031479 1.1989761590957642 0.1353491246700287
v 0.07665832340717316 0.9449929594993591 0.3877856433391571
v -0.055980224162340164 1.2072890996932983 0.17742919921875
v -0.2110491842031479 1.1989761590957642 0.1353491246700287
v -0.055980224162340164 1.2072890996932983 0.17742919921875
v -0.2260424792766571 1.2103432416915894 -0.034968260675668716
v 0.013523559086024761 1.2184622287750244 0.09457763284444809
vn -0.9812739491462708 -0.17761468887329102 0.07452797889709473
vn -0.9812739491462708 -0.17761468887329102 0.07452797889709473
vn -0.9812739491462708 -0.17761468887329102 0.07452798634767532
vn -0.9812721610069275 -0.17762501537799835 0.07452700287103653
vn -0.9812737703323364 -0.17761608958244324 0.0745280310511589
vn -0.981273889541626 -0.17761483788490295 0.07452845573425293
vn -0.9812736511230469 -0.1776166409254074 0.07452777028083801
vn 0.8660258650779724 -4.29980627814075e-06 -0.4999992251396179
vn 0.8660258650779724 -4.29980627814075e-06 -0.4999992251396179
vn 0.8660258650779724 -4.29980627814075e-06 -0.4999992251396179
vn 0.8660246133804321 0.0 -0.5000014305114746
vn 0.8660246133804321 0.0 -0.5000014901161194
vn 0.5143215656280518 0.6795930862426758 0.5230932831764221
vn 0.5143215656280518 0.6795930862426758 0.5230933427810669
vn 0.5143215656280518 0.6795931458473206 0.5230933427810669
vn 0.5143182873725891 0.6795861721038818 0.5231053829193115
vn 0.5143337845802307 0.6795990467071533 0.5230735540390015
vn 0.3096366822719574 0.722756564617157 -0.6178576946258545
vn 0.3096366822719574 0.722756564617157 -0.6178576946258545
vn 0.3096367120742798 0.7227566242218018 -0.6178576946258545
vn 0.3095991909503937 0.7227807641029358 -0.6178481578826904
vn 0.30959954857826233 0.7227951884269714 -0.6178310513496399
vn -0.7622392773628235 0.0 -0.6472954154014587
vn -0.7622392773628235 0.0 -0.647295355796814
vn -0.7622392773628235 0.0 -0.647295355796814
vn 0.8660251498222351 0.0 0.5000004768371582
vn 0.8660251498222351 0.0 0.5000004768371582
vn 0.8660251498222351 0.0 0.5000004768371582
vn 0.8660274147987366 1.0829239727172535e-06 0.4999966025352478
vn 0.8660263419151306 0.0 0.4999985098838806
vn -8.401896593568381e-06 0.0 1.0
vn -8.401895684073679e-06 0.0 1.0
vn -8.401896593568381e-06 0.0 1.0
vn -0.24886810779571533 0.5262390375137329 0.8131033778190613
vn -0.24886810779571533 0.5262390971183777 0.8131033778190613
vn -0.24886812269687653 0.5262390375137329 0.8131033778190613
vn -0.24886544048786163 0.5262410640716553 0.8131028413772583
vn -0.24885883927345276 0.5262507200241089 0.813098669052124
vn -0.07308267056941986 0.9946640729904175 0.07281751185655594
vn -0.07308267802000046 0.9946640729904175 0.07281752675771713
vn -0.07308266311883926 0.9946640729904175 0.07281751185655594
vn -0.0730886161327362 0.9946631193161011 0.07282349467277527
vt 0.7993011474609375 0.3109781742095947
vt 0.4056200385093689 0.4462987780570984
vt 0.4056200385093689 0.3611133098602295
vt 0.8018937110900879 0.3242301940917969
vt 0.6160049438476562 0.14758753776550293
vt 0.5563496351242065 0.15156912803649902
vt 0.5585574507713318 0.9982929028337821
vt 0.22103917598724365 0.18106329441070557
vt 0.245327889919281 0.21037083864212036
vt 0.0019920312333852053 0.31413769721984863
vt 0.0019920312333852053 0.3242301940917969
vt 0.245327889919281 0.9982929028337821
vt 0.33595338463783264 0.24052834510803223
vt 0.245327889919281 0.21037083864212036
vt 0.2622745633125305 0.1486574411392212
vt 0.23325534164905548 0.1447439193725586
vt 0.22103917598724365 0.18106329441070557
vt 0.9801532030105591 0.4363778233528137
vt 0.9823549389839172 0.43897032737731934
vt 0.8536854386329651 0.6554249823093414
vt 0.9980081915855408 0.6222665905952454
vt 0.9140986204147339 0.6676411330699921
vt 0.7993011474609375 0.3109781742095947
vt 0.8018937110900879 0.31413769721984863
vt 0.8018937110900879 0.3242301940917969
vt 0.245327889919281 0.9982929028337821
vt 0.245327889919281 0.21037083864212036
vt 0.33595338463783264 0.24052834510803223
vt 0.3982658386230469 0.3538210988044739
vt 0.3982658386230469 0.4462987780570984
vt 0.8450292348861694 0.9982929028337821
vt 0.8450292348861694 0.9058152288198471
vt 0.8604482412338257 0.9131074622273445
vt 0.8604482412338257 0.9131074622273445
vt 0.8450292348861694 0.9058152288198471
vt 0.909824788570404 0.7035632431507111
vt 0.8090534210205078 0.7925225049257278
vt 0.8555110692977905 0.7006515860557556
vt 0.9927565455436707 0.6819218695163727
vt 0.9384428262710571 0.6966603696346283
vt 0.9980081915855408 0.6222665905952454
vt 0.9140986204147339 0.6676411330699921

g equalizer_crystal_0018_shard_002
s 1
usemtl equalizer_crystal_0018_shard_002
f 1/1/1 2/2/2 3/3/3 
f 4/4/4 2/2/2 1/1/1 
f 1/1/1 3/3/3 5/5/5 
f 3/3/3 6/6/6 5/5/5 
f 4/4/4 7/7/7 2/2/2 
f 8/8/8 9/9/9 10/10/10 
f 10/10/10 9/9/9 11/11/11 
f 12/12/12 11/11/11 9/9/9 
f 13/13/13 14/14/14 15/15/15 
f 15/15/15 14/14/14 16/16/16 
f 16/16/16 14/14/14 17/17/17 
f 18/18/18 19/19/19 20/20/20 
f 20/20/20 19/19/19 21/21/21 
f 20/20/20 21/21/21 22/22/22 
f 23/23/23 24/24/24 25/25/25 
f 26/26/26 27/27/27 28/28/28 
f 26/26/26 28/28/28 29/29/29 
f 26/26/26 29/29/29 30/30/30 
f 31/31/31 32/32/32 33/33/33 
f 34/34/34 35/35/35 36/36/36 
f 35/35/35 37/37/37 36/36/36 
f 37/37/37 38/38/38 36/36/36 
f 39/39/39 40/40/40 41/41/41 
f 41/41/41 40/40/40 42/42/42 

