v -0.5297208428382874 11.67674732208252 -0.6364474296569824
v 0.2648116946220398 10.761526107788086 -0.7146624326705933
v 0.2648116946220398 0.0 -0.7146624326705933
v -0.5297208428382874 0.0 -0.6364474296569824
v 0.6709949970245361 11.517448425292969 0.4230667054653168
v 0.9708607196807861 10.651220321655273 -0.1076519787311554
v 0.2648116946220398 10.761526107788086 -0.7146624326705933
v -0.5297208428382874 11.67674732208252 -0.6364474296569824
v 0.11614394932985306 11.86603832244873 0.19808684289455414
v -0.5594390630722046 11.744709968566895 -0.6010617017745972
v -0.3662562370300293 11.86603832244873 -0.28917327523231506
v -0.5297208428382874 11.67674732208252 -0.6364474296569824
v -0.5297208428382874 0.0 -0.6364474296569824
v -0.9286679625511169 0.0 -0.1483224481344223
v -0.9286679625511169 11.597513198852539 -0.1483224481344223
v -0.5594390630722046 11.744709968566895 -0.6010617017745972
v 0.2648116946220398 10.761526107788086 -0.7146624326705933
v 0.9708607196807861 10.651220321655273 -0.1076519787311554
v 0.9708607196807861 0.0 -0.1076519787311554
v 0.2648116946220398 0.0 -0.7146624326705933
v 0.4572798013687134 11.507576942443848 0.8030227422714233
v 0.4572798013687134 0.0 0.8030227422714233
v 0.9708607196807861 0.0 -0.1076519787311554
v 0.9708607196807861 10.651220321655273 -0.1076519787311554
v 0.6709949970245361 11.517448425292969 0.4230667054653168
v -0.9286679625511169 11.597513198852539 -0.1483224481344223
v -0.5074814558029175 11.86603832244873 0.5811938643455505
v -0.3662562370300293 11.86603832244873 -0.28917327523231506
v -0.5594390630722046 11.744709968566895 -0.6010617017745972
v 0.11614394932985306 11.86603832244873 0.19808684289455414
v -0.3662562370300293 11.86603832244873 -0.28917327523231506
v -0.5074814558029175 11.86603832244873 0.5811938643455505
v -0.26309654116630554 11.86603832244873 0.815603494644165
v -0.3716718256473541 11.86603832244873 0.8164229989051819
v -0.9286679625511169 11.597513198852539 -0.1483224481344223
v -0.9286679625511169 0.0 -0.1483224481344223
v -0.3716718256473541 0.0 0.8164229989051819
v -0.3716718256473541 11.86603832244873 0.8164229989051819
v -0.5074814558029175 11.86603832244873 0.5811938643455505
v -0.26309654116630554 11.86603832244873 0.815603494644165
v -0.3716718256473541 11.86603832244873 0.8164229989051819
v -0.3716718256473541 0.0 0.8164229989051819
v 0.4572798013687134 0.0 0.8030227422714233
v 0.4572798013687134 11.507576942443848 0.8030227422714233
v 0.11614394932985306 11.86603832244873 0.19808684289455414
v -0.26309654116630554 11.86603832244873 0.815603494644165
v 0.4572798013687134 11.507576942443848 0.8030227422714233
v 0.6709949970245361 11.517448425292969 0.4230667054653168
vn -0.09796813875436783 0.0 -0.9951895475387573
vn -0.09796813875436783 0.0 -0.9951895475387573
vn -0.09796814620494843 0.0 -0.9951895475387573
vn -0.09796814620494843 0.0 -0.9951895475387573
vn 0.5884527564048767 0.5606423020362854 -0.5825835466384888
vn 0.5884527564048767 0.5606422424316406 -0.5825835466384888
vn 0.5884527564048767 0.5606422424316406 -0.5825835466384888
vn 0.5884527564048767 0.5606422424316406 -0.5825835466384888
vn 0.5884528160095215 0.5606422424316406 -0.582583487033844
vn 0.5884526968002319 0.5606422424316406 -0.5825835466384888
vn 0.5884526968002319 0.5606422424316406 -0.5825835466384888
vn -0.7742877006530762 -2.6442658054293133e-05 -0.6328337788581848
vn -0.774287760257721 -2.6442658054293133e-05 -0.6328337788581848
vn -0.774287760257721 -2.6442658054293133e-05 -0.6328337788581848
vn -0.7742877006530762 -2.6442658054293133e-05 -0.6328338384628296
vn -0.7742877006530762 -2.644266169227194e-05 -0.6328337788581848
vn 0.6519209742546082 0.0 -0.7582868933677673
vn 0.6519209742546082 0.0 -0.7582868933677673
vn 0.6519209742546082 0.0 -0.7582868933677673
vn 0.6519209742546082 0.0 -0.7582868933677673
vn 0.8710417151451111 2.1786247089039534e-05 0.49120911955833435
vn 0.8710417151451111 2.1786241632071324e-05 0.49120908975601196
vn 0.8710417151451111 2.1786241632071324e-05 0.49120908975601196
vn 0.8710417151451111 2.178624527005013e-05 0.49120908975601196
vn 0.8710417151451111 2.178624527005013e-05 0.49120911955833435
vn -0.4443894326686859 0.8929271697998047 -0.07210495322942734
vn -0.4443894326686859 0.8929271697998047 -0.07210494577884674
vn -0.4443894326686859 0.8929271697998047 -0.07210494577884674
vn -0.4443894028663635 0.8929271697998047 -0.07210493832826614
vn 0.0 1.0 5.179744562155975e-07
vn 0.0 1.0 5.179744562155975e-07
vn 0.0 1.0 5.179743993721786e-07
vn 0.0 1.0 5.179744562155975e-07
vn 0.0 1.0 5.179743993721786e-07
vn -0.866025447845459 0.0 0.5
vn -0.866025447845459 0.0 0.5
vn -0.866025447845459 0.0 0.5
vn -0.866025447845459 0.0 0.5
vn -0.866025447845459 0.0 0.5
vn 0.01614593155682087 -3.994293001596816e-05 0.999869704246521
vn 0.01614593155682087 -3.994292637798935e-05 0.999869704246521
vn 0.01614593155682087 -3.994292637798935e-05 0.999869704246521
vn 0.01614593155682087 -3.994292637798935e-05 0.999869704246521
vn 0.01614593155682087 -3.9942933653946966e-05 0.999869704246521
vn 0.4331650733947754 0.8611624240875244 0.26602110266685486
vn 0.4331650137901306 0.8611624836921692 0.26602113246917725
vn 0.433165043592453 0.8611624836921692 0.26602110266685486
vn 0.433165043592453 0.8611624836921692 0.26602110266685486
vt 0.737034797668457 0.38519805669784546
vt 0.7831166982650757 0.4335588812828064
vt 0.7831887006759644 1.0
vt 0.7371135950088501 1.0
vt 0.5633325576782227 0.3744858503341675
vt 0.5527903437614441 0.4164103865623474
vt 0.5070245265960693 0.4332243800163269
vt 0.4808642864227295 0.3729935884475708
vt 0.5380915999412537 0.3532317280769348
vt 0.48567360639572144 0.35318928956985474
vt 0.5023759603500366 0.34956252574920654
vt 0.737034797668457 0.38519805669784546
vt 0.7371135950088501 1.0
vt 0.6910369396209717 1.0
vt 0.6909594535827637 0.375019371509552
vt 0.7255450487136841 0.3688312768936157
vt 0.5070245265960693 0.4332243800163269
vt 0.5527903437614441 0.4164103865623474
vt 0.5528135895729065 1.0
vt 0.506738007068634 1.0
vt 0.5988103747367859 0.38070404529571533
vt 0.5988871455192566 1.0
vt 0.5528135895729065 1.0
vt 0.5527903437614441 0.4164103865623474
vt 0.5779376029968262 0.3803696632385254
vt 0.4954726994037628 0.31808334589004517
vt 0.5346869230270386 0.3143956661224365
vt 0.5023759603500366 0.34956252574920654
vt 0.48567360639572144 0.35318928956985474
vt 0.5380915999412537 0.3532317280769348
vt 0.5023759603500366 0.34956252574920654
vt 0.5346869230270386 0.3143956661224365
vt 0.5513256788253784 0.3225463628768921
vt 0.5440404415130615 0.31316614151000977
vt 0.6909594535827637 0.375019371509552
vt 0.6910369396209717 1.0
vt 0.6449609994888306 1.0
vt 0.6448824405670166 0.3633272051811218
vt 0.6542792320251465 0.3633272051811218
vt 0.6333540678024292 0.3633272051811218
vt 0.6448824405670166 0.3633272051811218
vt 0.6449609994888306 1.0
vt 0.5988871455192566 1.0
vt 0.5988103747367859 0.38070404529571533
vt 0.5380915999412537 0.3532317280769348
vt 0.5513256788253784 0.3225463628768921
vt 0.5751974582672119 0.35572826862335205
vt 0.5633325576782227 0.3744858503341675

g equalizer_crystal_001
s 1
usemtl equalizer_crystal_001
f 1/1/1 2/2/2 3/3/3 
f 1/1/1 3/3/3 4/4/4 
f 5/5/5 6/6/6 7/7/7 
f 7/7/7 8/8/8 5/5/5 
f 8/8/8 9/9/9 5/5/5 
f 8/8/8 10/10/10 9/9/9 
f 10/10/10 11/11/11 9/9/9 
f 12/12/12 13/13/13 14/14/14 
f 14/14/14 15/15/15 12/12/12 
f 15/15/15 16/16/16 12/12/12 
f 17/17/17 18/18/18 19/19/19 
f 17/17/17 19/19/19 20/20/20 
f 21/21/21 22/22/22 23/23/23 
f 23/23/23 24/24/24 21/21/21 
f 24/24/24 25/25/25 21/21/21 
f 26/26/26 27/27/27 28/28/28 
f 26/26/26 28/28/28 29/29/29 
f 30/30/30 31/31/31 32/32/32 
f 32/32/32 33/33/33 30/30/30 
f 32/32/32 34/34/34 33/33/33 
f 35/35/35 36/36/36 37/37/37 
f 37/37/37 38/38/38 35/35/35 
f 38/38/38 39/39/39 35/35/35 
f 40/40/40 41/41/41 42/42/42 
f 42/42/42 43/43/43 40/40/40 
f 43/43/43 44/44/44 40/40/40 
f 45/45/45 46/46/46 47/47/47 
f 45/45/45 47/47/47 48/48/48 

