v 0.4506726861000061 0.0 -0.45520108938217163
v -0.3505159616470337 0.0 -0.6054391264915466
v -0.35051581263542175 4.307056427001953 -0.6054391264915466
v -0.020666267722845078 4.816431045532227 -0.5468456745147705
v 0.4506726861000061 4.816431045532227 -0.45520108938217163
v -0.3505159616470337 0.0 -0.6054391264915466
v -0.6184020042419434 0.0 -0.1382257044315338
v -0.6184020042419434 3.8538033962249756 -0.1382257044315338
v -0.35051581263542175 4.307056427001953 -0.6054391264915466
v 0.6003307104110718 4.711678981781006 0.1697433441877365
v 0.6003307104110718 0.0 0.1697433441877365
v 0.4506726861000061 0.0 -0.45520108938217163
v 0.4506726861000061 4.816431045532227 -0.45520108938217163
v 0.5289987325668335 4.816431045532227 -0.12635527551174164
v 0.005200888961553574 4.816431045532227 -0.022522887215018272
v 0.5289987325668335 4.816431045532227 -0.12635527551174164
v 0.4506726861000061 4.816431045532227 -0.45520108938217163
v -0.020666267722845078 4.816431045532227 -0.5468456745147705
v 0.6003307104110718 0.0 0.1697433441877365
v 0.6003307104110718 4.711678981781006 0.1697433441877365
v 0.15316322445869446 4.594720840454102 0.6047735214233398
v 0.15316322445869446 0.0 0.6047735214233398
v -0.6184020042419434 0.0 -0.1382257044315338
v -0.4471675753593445 0.0 0.4350301921367645
v -0.44716742634773254 4.076512813568115 0.4350301921367645
v -0.6184020042419434 3.8538033962249756 -0.1382257044315338
v -0.35051581263542175 4.307056427001953 -0.6054391264915466
v -0.6184020042419434 3.8538033962249756 -0.1382257044315338
v -0.44716742634773254 4.076512813568115 0.4350301921367645
v -0.08468787372112274 4.63334846496582 0.5375213623046875
v -0.020666267722845078 4.816431045532227 -0.5468456745147705
v 0.005200888961553574 4.816431045532227 -0.022522887215018272
v -0.44716742634773254 4.076512813568115 0.4350301921367645
v -0.4471675753593445 0.0 0.4350301921367645
v 0.15316322445869446 0.0 0.6047735214233398
v -0.08468787372112274 4.63334846496582 0.5375213623046875
v 0.15316322445869446 4.594720840454102 0.6047735214233398
v 0.6003307104110718 4.711678981781006 0.1697433441877365
v 0.5289987325668335 4.816431045532227 -0.12635527551174164
v 0.005200888961553574 4.816431045532227 -0.022522887215018272
v -0.08468787372112274 4.63334846496582 0.5375213623046875
v 0.15316322445869446 4.594720840454102 0.6047735214233398
vn 0.18451516330242157 -0.00033997686114162207 -0.9828296303749084
vn 0.18451514840126038 -0.0003399768320377916 -0.9828296303749084
vn 0.18451516330242157 -0.0003399768320377916 -0.9828296303749084
vn 0.18451516330242157 -0.0003399768320377916 -0.9828296303749084
vn 0.18451516330242157 -0.00033997686114162207 -0.9828296303749084
vn -0.867516815662384 0.0 -0.4974079430103302
vn -0.867516815662384 0.0 -0.4974079430103302
vn -0.867516815662384 0.0 -0.497408002614975
vn -0.867516815662384 0.0 -0.4974079430103302
vn 0.9725048542022705 4.302968591218814e-05 -0.2328825294971466
vn 0.9725048542022705 4.302968955016695e-05 -0.2328825294971466
vn 0.9725048542022705 4.302968955016695e-05 -0.2328825294971466
vn 0.9725048542022705 4.302968955016695e-05 -0.2328825294971466
vn 0.9725048542022705 4.302968955016695e-05 -0.232882559299469
vn 0.0 1.0 0.0
vn 0.0 1.0 0.0
vn 0.0 1.0 0.0
vn 0.0 1.0 0.0
vn 0.6973124742507935 0.0 0.7167672514915466
vn 0.6973124146461487 0.0 0.7167673707008362
vn 0.6973124742507935 0.0 0.7167672514915466
vn 0.6973124742507935 0.0 0.7167672514915466
vn -0.9581670761108398 0.0 0.28620946407318115
vn -0.9581670761108398 0.0 0.28620946407318115
vn -0.9581670761108398 0.0 0.28620949387550354
vn -0.9581670761108398 0.0 0.2862095236778259
vn -0.8408268094062805 0.5397125482559204 0.04148148372769356
vn -0.8408267498016357 0.5397125482559204 0.04148148372769356
vn -0.8408267498016357 0.5397125482559204 0.04148148372769356
vn -0.8408267498016357 0.5397125482559204 0.04148148372769356
vn -0.8408267498016357 0.5397125482559204 0.04148148000240326
vn -0.8408268094062805 0.5397124886512756 0.04148148372769356
vn -0.2720830738544464 0.0 0.9622737765312195
vn -0.2720830738544464 0.0 0.9622737765312195
vn -0.2720830738544464 0.0 0.9622737765312195
vn -0.272083044052124 0.0 0.9622737765312195
vn -0.272083044052124 0.0 0.9622737765312195
vn 0.0632876306772232 0.9455498456954956 0.3192651867866516
vn 0.0632876306772232 0.9455498456954956 0.319265216588974
vn 0.06328762322664261 0.9455498456954956 0.319265216588974
vn 0.0632876306772232 0.9455498456954956 0.319265216588974
vn 0.0632876306772232 0.9455498456954956 0.319265216588974
vt 0.7268886566162109 0.9999018311500549
vt 0.6929064989089966 0.9999018311500549
vt 0.694166362285614 0.7484637796878815
vt 0.7016582489013672 0.7374942600727081
vt 0.7281936407089233 0.7375885844230652
vt 0.6929064989089966 0.9999018311500549
vt 0.6589004993438721 0.9999018311500549
vt 0.6600116491317749 0.7880634665489197
vt 0.694166362285614 0.7484637796878815
vt 0.5581293106079102 0.7418821454048157
vt 0.556778073310852 0.9999018311500549
vt 0.5227007865905762 0.9999018311500549
vt 0.5240691900253296 0.7360357642173767
vt 0.541505753993988 0.7360978126525879
vt 0.6500049829483032 0.7288098931312561
vt 0.6521862149238586 0.7004002034664154
vt 0.6697775721549988 0.70315021276474
vt 0.6794090270996094 0.7283244431018829
vt 0.556778073310852 0.9999018311500549
vt 0.5581293106079102 0.7418821454048157
vt 0.5922006964683533 0.7484001517295837
vt 0.5908412933349609 0.9999018311500549
vt 0.6589004993438721 0.9999018311500549
vt 0.6248820424079895 0.9999018311500549
vt 0.6261582374572754 0.7768594026565552
vt 0.6600116491317749 0.7880634665489197
vt 0.6819388270378113 0.7415738999843597
vt 0.6600116491317749 0.7880634665489197
vt 0.6261582374572754 0.7768594026565552
vt 0.6194514632225037 0.7398087382316589
vt 0.6794090270996094 0.7283244431018829
vt 0.6500049829483032 0.7288098931312561
vt 0.6261582374572754 0.7768594026565552
vt 0.6248820424079895 0.9999018311500549
vt 0.5908412933349609 0.9999018311500549
vt 0.6057273149490356 0.7463477551937103
vt 0.5922006964683533 0.7484001517295837
vt 0.6341660022735596 0.6982974410057068
vt 0.6521862149238586 0.7004002034664154
vt 0.6500049829483032 0.7288098931312561
vt 0.6194514632225037 0.7398087382316589
vt 0.6129880547523499 0.7268398404121399

g equalizer_crystal_0012
s 1
usemtl equalizer_crystal_0012
f 1/1/1 2/2/2 3/3/3 
f 3/3/3 4/4/4 1/1/1 
f 4/4/4 5/5/5 1/1/1 
f 6/6/6 7/7/7 8/8/8 
f 6/6/6 8/8/8 9/9/9 
f 10/10/10 11/11/11 12/12/12 
f 12/12/12 13/13/13 10/10/10 
f 13/13/13 14/14/14 10/10/10 
f 15/15/15 16/16/16 17/17/17 
f 15/15/15 17/17/17 18/18/18 
f 19/19/19 20/20/20 21/21/21 
f 19/19/19 21/21/21 22/22/22 
f 23/23/23 24/24/24 25/25/25 
f 23/23/23 25/25/25 26/26/26 
f 27/27/27 28/28/28 29/29/29 
f 29/29/29 30/30/30 27/27/27 
f 30/30/30 31/31/31 27/27/27 
f 30/30/30 32/32/32 31/31/31 
f 33/33/33 34/34/34 35/35/35 
f 35/35/35 36/36/36 33/33/33 
f 35/35/35 37/37/37 36/36/36 
f 38/38/38 39/39/39 40/40/40 
f 40/40/40 41/41/41 38/38/38 
f 41/41/41 42/42/42 38/38/38 

