v 0.39173826575279236 -1.4586718082427979 -0.9265087842941284
v 0.9358929395675659 -1.382485270500183 -0.18747557699680328
v -0.9358929395675659 -0.3697851598262787 0.03364257887005806
v -0.21915587782859802 -1.1614501476287842 -0.9265087842941284
v 0.589463472366333 -0.8928027153015137 0.5086230635643005
v -0.1884254366159439 -0.32154783606529236 0.9265087842941284
v -0.8731316924095154 0.8658056259155273 0.09040527045726776
v -0.1884254366159439 0.43062254786491394 0.9265087842941284
v -0.1129317432641983 0.4692333936691284 0.8843994140625
v -0.23364119231700897 1.2118651866912842 -0.26643064618110657
v -0.1884254366159439 -0.32154783606529236 0.9265087842941284
v 0.589463472366333 -0.8928027153015137 0.5086230635643005
v 0.589463472366333 -0.0012060547014698386 0.5086230635643005
v -0.1129317432641983 0.4692333936691284 0.8843994140625
v -0.1884254366159439 0.43062254786491394 0.9265087842941284
v 0.9358929395675659 0.21048827469348907 -0.18747557699680328
v 0.589463472366333 -0.0012060547014698386 0.5086230635643005
v 0.589463472366333 -0.8928027153015137 0.5086230635643005
v 0.9358929395675659 -1.382485270500183 -0.18747557699680328
v -0.23364119231700897 1.2118651866912842 -0.26643064618110657
v 0.9358929395675659 0.21048827469348907 -0.18747557699680328
v 0.46500763297080994 1.0502489805221558 -0.8372167944908142
v 0.589463472366333 -0.0012060547014698386 0.5086230635643005
v -0.06116393953561783 1.4586718082427979 -0.8131493926048279
v -0.1129317432641983 0.4692333936691284 0.8843994140625
v 0.589463472366333 -0.0012060547014698386 0.5086230635643005
v -0.23364119231700897 1.2118651866912842 -0.26643064618110657
v -0.06116393953561783 1.4586718082427979 -0.8131493926048279
v 0.46500763297080994 1.0502489805221558 -0.8372167944908142
v 0.39173826575279236 1.026391625404358 -0.9265087842941284
v -0.1875160187482834 1.4529345035552979 -0.9265087842941284
v 0.46500763297080994 1.0502489805221558 -0.8372167944908142
v 0.9358929395675659 0.21048827469348907 -0.18747557699680328
v 0.9358929395675659 -1.382485270500183 -0.18747557699680328
v 0.39173826575279236 1.026391625404358 -0.9265087842941284
v 0.39173826575279236 -1.4586718082427979 -0.9265087842941284
v -0.9358929395675659 -0.3697851598262787 0.03364257887005806
v -0.1884254366159439 -0.32154783606529236 0.9265087842941284
v -0.1884254366159439 0.43062254786491394 0.9265087842941284
v -0.8731316924095154 0.8658056259155273 0.09040527045726776
v -0.9275143146514893 0.8698803782463074 0.022418517619371414
v -0.23364119231700897 1.2118651866912842 -0.26643064618110657
v -0.21915587782859802 1.4418309926986694 -0.9265087842941284
v -0.8731316924095154 0.8658056259155273 0.09040527045726776
v -0.1875160187482834 1.4529345035552979 -0.9265087842941284
v -0.06116393953561783 1.4586718082427979 -0.8131493926048279
v -0.9275143146514893 0.8698803782463074 0.022418517619371414
v -0.21915587782859802 -1.1614501476287842 -0.9265087842941284
v -0.9358929395675659 -0.3697851598262787 0.03364257887005806
v -0.9275143146514893 0.8698803782463074 0.022418517619371414
v -0.21915587782859802 1.4418309926986694 -0.9265087842941284
v 0.39173826575279236 -1.4586718082427979 -0.9265087842941284
v -0.1875160187482834 1.4529345035552979 -0.9265087842941284
v 0.39173826575279236 1.026391625404358 -0.9265087842941284
v -0.21915587782859802 1.4418309926986694 -0.9265087842941284
v -0.21915587782859802 -1.1614501476287842 -0.9265087842941284
vn -0.4041098654270172 -0.8305855989456177 0.3831745386123657
vn -0.4041098654270172 -0.8305855989456177 0.3831745386123657
vn -0.4041098952293396 -0.8305855989456177 0.3831745684146881
vn -0.4041098952293396 -0.8305855989456177 0.3831745386123657
vn -0.4041098654270172 -0.8305855393409729 0.38317492604255676
vn -0.4041098654270172 -0.8305855393409729 0.3831748366355896
vn -0.13960476219654083 0.8259444236755371 0.5461925268173218
vn -0.13960474729537964 0.8259444236755371 0.5461925268173218
vn -0.13960476219654083 0.8259444236755371 0.5461925268173218
vn -0.13960474729537964 0.8259444236755371 0.5461925268173218
vn 0.4729759693145752 0.0008291295380331576 0.881074845790863
vn 0.47297602891921997 0.0008291295380331576 0.881074845790863
vn 0.4729759693145752 0.0008291295962408185 0.8810749650001526
vn 0.4729759693145752 0.0008291294798254967 0.881074845790863
vn 0.48713210225105286 0.0 0.8733283877372742
vn 0.8952590823173523 0.0 0.44554606080055237
vn 0.8952590823173523 0.0 0.44554606080055237
vn 0.8952589631080627 0.0 0.44554606080055237
vn 0.8952590823173523 0.0 0.44554606080055237
vn 0.5510433912277222 0.6815429329872131 0.4815085232257843
vn 0.5510433912277222 0.6815429329872131 0.4815085232257843
vn 0.5510434508323669 0.6815429925918579 0.4815084636211395
vn 0.551043689250946 0.6815436482429504 0.4815070927143097
vn 0.5510456562042236 0.6815386414527893 0.48151183128356934
vn 0.6450077295303345 0.6711376309394836 0.3654303252696991
vn 0.6450077295303345 0.6711376309394836 0.3654303550720215
vn 0.6450077295303345 0.6711376309394836 0.36543038487434387
vn 0.4853750169277191 0.6591581702232361 -0.5743879079818726
vn 0.48537498712539673 0.6591582894325256 -0.5743878483772278
vn 0.4853750169277191 0.6591581702232361 -0.5743879079818726
vn 0.4853835999965668 0.6591601967811584 -0.5743784308433533
vn 0.8097152709960938 0.0 -0.5868229269981384
vn 0.8097152709960938 0.0 -0.5868229269981384
vn 0.8097152709960938 0.0 -0.5868229866027832
vn 0.8018941283226013 -0.002154558664187789 -0.5974622368812561
vn 0.8018941283226013 -0.0021545588970184326 -0.5974623560905457
vn -0.7694293260574341 0.006054931320250034 0.6387032866477966
vn -0.7694293260574341 0.006054930854588747 0.6387031674385071
vn -0.7694293260574341 0.006054931320250034 0.6387032866477966
vn -0.7694292664527893 0.006054930854588747 0.6387033462524414
vn -0.7805405259132385 0.010934418067336082 0.6250095963478088
vn -0.3153366446495056 0.8982805013656616 0.3060307800769806
vn -0.3153366148471832 0.8982805013656616 0.3060307502746582
vn -0.3153366446495056 0.8982805013656616 0.30603083968162537
vn -0.31524747610092163 0.8983078598976135 0.30604255199432373
vn -0.31534695625305176 0.8982776403427124 0.30602866411209106
vn -0.3153076469898224 0.8982794880867004 0.3060639798641205
vn -0.801350474357605 0.0 -0.5981950759887695
vn -0.801350474357605 0.0 -0.5981950759887695
vn -0.801350474357605 0.0 -0.5981950759887695
vn -0.801350474357605 0.0 -0.5981950759887695
vn -5.427294240689662e-07 0.0 -1.0
vn -5.427294240689662e-07 0.0 -1.0
vn -5.427293672255473e-07 0.0 -1.0
vn 4.336722554398875e-07 0.0 -1.0
vn 4.3367228386159695e-07 0.0 -1.0
vt 0.25609907507896423 0.15456634759902954
vt 0.4022912383079529 0.0469241738319397
vt 0.44603174924850464 0.41719233989715576
vt 0.25609907507896423 0.27541065216064453
vt 0.5399903059005737 0.11545324325561523
vt 0.6226544380187988 0.269331693649292
vt 0.9176962971687317 0.07044798135757446
vt 0.7822507619857788 0.15653401613235474
vt 0.767316997051239 0.14889591932296753
vt 0.7911952137947083 0.00199204683303833
vt 0.7822507619857788 0.30532485246658325
vt 0.628372311592102 0.41832780838012695
vt 0.628372311592102 0.24195653200149536
vt 0.767316997051239 0.14889591932296753
vt 0.7822507619857788 0.15653401613235474
vt 0.14804869890213013 0.6678220629692078
vt 0.2857477366924286 0.7096988558769226
vt 0.2857477366924286 0.886070117354393
vt 0.14804869890213013 0.9829366952180862
vt 0.13243016600608826 0.4697343707084656
vt 0.14804869890213013 0.6678220629692078
vt 0.019519833847880363 0.5017045736312866
vt 0.2857477366924286 0.7096988558769226
vt 0.024280769750475883 0.42091208696365356
vt 0.36008214950561523 0.6166382133960724
vt 0.2857477366924286 0.7096988558769226
vt 0.13243016600608826 0.4697343707084656
vt 0.22795705497264862 0.24581485986709595
vt 0.23271778225898743 0.14173012971878052
vt 0.25038108229637146 0.15622389316558838
vt 0.25038108229637146 0.27080923318862915
vt 0.019519833847880363 0.5017045736312866
vt 0.14804869890213013 0.6678220629692078
vt 0.14804869890213013 0.9829366952180862
vt 0.0018565320642665029 0.5064240396022797
vt 0.0018565320642665029 0.998007831396535
vt 0.9301114678382874 0.31486696004867554
vt 0.7822507619857788 0.30532485246658325
vt 0.7822507619857788 0.15653401613235474
vt 0.9176962971687317 0.07044798135757446
vt 0.9284539818763733 0.0696420669555664
vt 0.11980745941400528 0.2799333930015564
vt 0.25038108229637146 0.2770681381225586
vt 0.04921979457139969 0.40643447637557983
vt 0.25038108229637146 0.27080923318862915
vt 0.22795705497264862 0.24581485986709595
vt 0.06266855448484421 0.41719233989715576
vt 0.48797106742858887 0.480842649936676
vt 0.6297527551651001 0.6374459266662598
vt 0.6280953288078308 0.8826708123087883
vt 0.48797106742858887 0.9958117525093257
vt 0.3671267628669739 0.42204737663269043
vt 0.481712281703949 0.998007831396535
vt 0.3671267628669739 0.9136311560869217
vt 0.48797106742858887 0.9958117525093257
vt 0.48797106742858887 0.480842649936676

g equalizer_crystal_007_shard_001
s 1
usemtl equalizer_crystal_007_shard_001
f 1/1/1 2/2/2 3/3/3 
f 1/1/1 3/3/3 4/4/4 
f 5/5/5 3/3/3 2/2/2 
f 5/5/5 6/6/6 3/3/3 
f 7/7/7 8/8/8 9/9/9 
f 7/7/7 9/9/9 10/10/10 
f 11/11/11 12/12/12 13/13/13 
f 11/11/11 13/13/13 14/14/14 
f 14/14/14 15/15/15 11/11/11 
f 16/16/16 17/17/17 18/18/18 
f 16/16/16 18/18/18 19/19/19 
f 20/20/20 21/21/21 22/22/22 
f 23/23/23 21/21/21 20/20/20 
f 24/24/24 20/20/20 22/22/22 
f 25/25/25 26/26/26 27/27/27 
f 28/28/28 29/29/29 30/30/30 
f 31/31/31 28/28/28 30/30/30 
f 32/32/32 33/33/33 34/34/34 
f 35/35/35 32/32/32 34/34/34 
f 35/35/35 34/34/34 36/36/36 
f 37/37/37 38/38/38 39/39/39 
f 37/37/37 39/39/39 40/40/40 
f 40/40/40 41/41/41 37/37/37 
f 42/42/42 43/43/43 44/44/44 
f 45/45/45 43/43/43 42/42/42 
f 46/46/46 45/45/45 42/42/42 
f 47/47/47 44/44/44 43/43/43 
f 48/48/48 49/49/49 50/50/50 
f 48/48/48 50/50/50 51/51/51 
f 52/52/52 53/53/53 54/54/54 
f 52/52/52 55/55/55 53/53/53 
f 52/52/52 56/56/56 55/55/55 

