v 0.2437150478363037 1.1983983516693115 -0.7655419707298279
v 0.4361831545829773 -0.6513634324073792 0.7521435618400574
v 0.9497643709182739 0.6739038228988647 -0.15853026509284973
v -0.392768532037735 0.08344726264476776 0.7655419707298279
v 0.4361831545829773 -0.6513634324073792 0.7521435618400574
v 0.2437150478363037 1.1983983516693115 -0.7655419707298279
v -0.5508175492286682 1.207006812095642 -0.6873242259025574
v -0.9497643709182739 0.8684155344963074 -0.19919921457767487
v -0.392768532037735 0.08344726264476776 0.7655419707298279
v -0.5508175492286682 1.207006812095642 -0.6873242259025574
v 0.2437150478363037 -0.9517138600349426 -0.7655419707298279
v -0.5508175492286682 -0.9517138600349426 -0.6873242259025574
v -0.5508175492286682 1.207006812095642 -0.6873242259025574
v 0.2437150478363037 1.1983983516693115 -0.7655419707298279
v -0.5508175492286682 -0.9517138600349426 -0.6873242259025574
v -0.9497643709182739 -0.9517138600349426 -0.19919921457767487
v -0.9497643709182739 0.8684155344963074 -0.19919921457767487
v -0.5508175492286682 1.207006812095642 -0.6873242259025574
v -0.9497643709182739 -0.9517138600349426 -0.19919921457767487
v -0.392768532037735 -0.9517138600349426 0.7655419707298279
v -0.392768532037735 0.08344726264476776 0.7655419707298279
v -0.9497643709182739 0.8684155344963074 -0.19919921457767487
v 0.4361831545829773 -0.9517138600349426 0.7521435618400574
v 0.4361831545829773 -0.6513634324073792 0.7521435618400574
v -0.392768532037735 0.08344726264476776 0.7655419707298279
v -0.392768532037735 -0.9517138600349426 0.7655419707298279
v 0.4361831545829773 -0.6513634324073792 0.7521435618400574
v 0.4361831545829773 -0.9517138600349426 0.7521435618400574
v 0.9497643709182739 -0.9517138600349426 -0.15853026509284973
v 0.9497643709182739 0.6739038228988647 -0.15853026509284973
v 0.2437150478363037 -0.9517138600349426 -0.7655419707298279
v 0.2437150478363037 1.1983983516693115 -0.7655419707298279
v 0.9497643709182739 0.6739038228988647 -0.15853026509284973
v 0.9497643709182739 -0.9517138600349426 -0.15853026509284973
v 0.2437150478363037 -0.9517138600349426 -0.7655419707298279
v 0.9497643709182739 -0.9517138600349426 -0.15853026509284973
v 0.4361831545829773 -0.9517138600349426 0.7521435618400574
v -0.5508175492286682 -0.9517138600349426 -0.6873242259025574
v -0.9497643709182739 -0.9517138600349426 -0.19919921457767487
v -0.392768532037735 -0.9517138600349426 0.7655419707298279
vn -0.20792192220687866 0.6074164509773254 0.7666900157928467
vn -0.20792192220687866 0.6074164509773254 0.7666900157928467
vn -0.20792192220687866 0.6074164509773254 0.7666900157928467
vn 0.3488291800022125 0.6826431751251221 0.6421187520027161
vn 0.3488291800022125 0.6826431751251221 0.6421187520027161
vn 0.3488291800022125 0.6826431751251221 0.6421187520027161
vn 0.3488291800022125 0.6826431751251221 0.6421187520027161
vn 0.06821339577436447 0.7927851676940918 0.6056719422340393
vn 0.06821339577436447 0.7927852272987366 0.6056719422340393
vn 0.06821340322494507 0.7927852272987366 0.6056719422340393
vn -0.09797119349241257 0.0 -0.9951893091201782
vn -0.09797119349241257 0.0 -0.9951893091201782
vn -0.09797120839357376 0.0 -0.9951893091201782
vn -0.09797119349241257 0.0 -0.9951893091201782
vn -0.7742899656295776 0.0 -0.6328309178352356
vn -0.7742899656295776 0.0 -0.6328309178352356
vn -0.7742900252342224 0.0 -0.6328309178352356
vn -0.7742899656295776 0.0 -0.6328309774398804
vn -0.8660245537757874 0.0 0.5000015497207642
vn -0.8660245537757874 0.0 0.5000015497207642
vn -0.8660245537757874 0.0 0.5000016093254089
vn -0.8660245537757874 0.0 0.5000016093254089
vn 0.016161158680915833 0.0 0.9998693466186523
vn 0.016161158680915833 0.0 0.9998693466186523
vn 0.016161158680915833 0.0 0.9998693466186523
vn 0.016161158680915833 0.0 0.9998693466186523
vn 0.8710325360298157 0.0 0.49122530221939087
vn 0.8710324764251709 0.0 0.49122530221939087
vn 0.8710324764251709 0.0 0.49122530221939087
vn 0.8710325360298157 0.0 0.49122530221939087
vn 0.6519213914871216 0.0 -0.7582865357398987
vn 0.6519214510917664 0.0 -0.7582866549491882
vn 0.6519213914871216 0.0 -0.7582865357398987
vn 0.6519213914871216 0.0 -0.7582865357398987
vn 0.0 -1.0 0.0
vn 0.0 -1.0 0.0
vn 0.0 -1.0 0.0
vn 0.0 -1.0 0.0
vn 0.0 -1.0 0.0
vn 0.0 -1.0 0.0
vt 0.15829183161258698 0.5222199261188507
vt 0.11568476259708405 0.9317060858011246
vt 0.001992045436054468 0.6383285820484161
vt 0.2991916537284851 0.7690393179655075
vt 0.11568476259708405 0.9317060858011246
vt 0.15829183161258698 0.5222199261188507
vt 0.3341794013977051 0.5203142464160919
vt 0.42249518632888794 0.5952689945697784
vt 0.2991916537284851 0.7690393179655075
vt 0.3341794013977051 0.5203142464160919
vt 0.5853074193000793 0.520314484834671
vt 0.7611949443817139 0.520314484834671
vt 0.7611949443817139 0.9981952854432166
vt 0.5853074193000793 0.9962900574319065
vt 0.7611949443817139 0.520314484834671
vt 0.8495107293128967 0.520314484834671
vt 0.8495107293128967 0.9232403188943863
vt 0.7611949443817139 0.9981952854432166
vt 0.42249518632888794 0.9981952854432166
vt 0.2991916537284851 0.9981952854432166
vt 0.2991916537284851 0.7690393179655075
vt 0.42249518632888794 0.5952689945697784
vt 0.11568476259708405 0.9981952854432166
vt 0.11568476259708405 0.9317060858011246
vt 0.2991916537284851 0.7690393179655075
vt 0.2991916537284851 0.9981952854432166
vt 0.6529329419136047 0.4498336911201477
vt 0.6529329419136047 0.516322910785675
vt 0.451335072517395 0.516322910785675
vt 0.451335072517395 0.15645623207092285
vt 0.5853074193000793 0.520314484834671
vt 0.5853074193000793 0.9962900574319065
vt 0.4290076196193695 0.8801816180348396
vt 0.4290076196193695 0.520314484834671
vt 0.6590685248374939 0.25211966037750244
vt 0.7934441566467285 0.09581989049911499
vt 0.9950420260429382 0.2095125913619995
vt 0.6763837933540344 0.4280073642730713
vt 0.7844411730766296 0.516322910785675
vt 0.9980080723762512 0.3930196166038513

g equalizer_crystal_001_shard_002
s 1
usemtl equalizer_crystal_001_shard_002
f 1/1/1 2/2/2 3/3/3 
f 4/4/4 5/5/5 6/6/6 
f 4/4/4 6/6/6 7/7/7 
f 8/8/8 9/9/9 10/10/10 
f 11/11/11 12/12/12 13/13/13 
f 11/11/11 13/13/13 14/14/14 
f 15/15/15 16/16/16 17/17/17 
f 15/15/15 17/17/17 18/18/18 
f 19/19/19 20/20/20 21/21/21 
f 19/19/19 21/21/21 22/22/22 
f 23/23/23 24/24/24 25/25/25 
f 23/23/23 25/25/25 26/26/26 
f 27/27/27 28/28/28 29/29/29 
f 27/27/27 29/29/29 30/30/30 
f 31/31/31 32/32/32 33/33/33 
f 31/31/31 33/33/33 34/34/34 
f 35/35/35 36/36/36 37/37/37 
f 35/35/35 37/37/37 38/38/38 
f 37/37/37 39/39/39 38/38/38 
f 37/37/37 40/40/40 39/39/39 

