v -0.5565945506095886 2.5834832191467285 -0.9115063548088074
v -0.617024838924408 2.6112077236175537 0.9119555354118347
v 0.47914642095565796 1.4873082637786865 0.7684692144393921
v 0.6003994345664978 1.393282413482666 -0.8540209531784058
v 1.0263515710830688 0.9421380162239075 -0.1451391577720642
v -1.0271438360214233 3.0462968349456787 0.1915551722049713
v -1.0271438360214233 3.0462968349456787 0.1915551722049713
v -0.5565945506095886 2.5834832191467285 -0.9115063548088074
v -0.5568740963935852 -3.0462968349456787 -0.9119555354118347
v -1.026646375656128 -3.0462968349456787 0.19170165061950684
v -1.026646375656128 -3.0462968349456787 0.19170165061950684
v -0.617024838924408 -3.0462968349456787 0.9119555354118347
v -0.617024838924408 2.6112077236175537 0.9119555354118347
v -1.0271438360214233 3.0462968349456787 0.1915551722049713
v -0.617024838924408 -3.0462968349456787 0.9119555354118347
v 0.4787704348564148 -3.0462968349456787 0.7698462009429932
v 0.47914642095565796 1.4873082637786865 0.7684692144393921
v -0.617024838924408 2.6112077236175537 0.9119555354118347
v 0.4787704348564148 -3.0462968349456787 0.7698462009429932
v 1.0271438360214233 -3.0462968349456787 -0.14580321311950684
v 1.0263515710830688 0.9421380162239075 -0.1451391577720642
v 0.47914642095565796 1.4873082637786865 0.7684692144393921
v 1.0271438360214233 -3.0462968349456787 -0.14580321311950684
v 0.5982577204704285 -3.0462968349456787 -0.8535864353179932
v 0.6003994345664978 1.393282413482666 -0.8540209531784058
v 1.0263515710830688 0.9421380162239075 -0.1451391577720642
v -0.5565945506095886 2.5834832191467285 -0.9115063548088074
v 0.6003994345664978 1.393282413482666 -0.8540209531784058
v 0.5982577204704285 -3.0462968349456787 -0.8535864353179932
v -0.5568740963935852 -3.0462968349456787 -0.9119555354118347
v -0.5568740963935852 -3.0462968349456787 -0.9119555354118347
v 0.5982577204704285 -3.0462968349456787 -0.8535864353179932
v 1.0271438360214233 -3.0462968349456787 -0.14580321311950684
v 0.4787704348564148 -3.0462968349456787 0.7698462009429932
v -0.617024838924408 -3.0462968349456787 0.9119555354118347
v -1.026646375656128 -3.0462968349456787 0.19170165061950684
vn 0.716659426689148 0.6972994208335876 0.013148359954357147
vn 0.716659426689148 0.6972994208335876 0.013148357160389423
vn 0.716659426689148 0.6972994208335876 0.013148359954357147
vn 0.716659426689148 0.6972994208335876 0.013148357160389423
vn 0.7166588306427002 0.6972999572753906 0.013148419559001923
vn 0.7166588306427002 0.6972999572753906 0.013148103840649128
vn -0.9199609756469727 -7.00163809597143e-06 -0.39201003313064575
vn -0.9199609756469727 -7.00163809597143e-06 -0.392009973526001
vn -0.9199609756469727 -7.001638550718781e-06 -0.39201006293296814
vn -0.9199609756469727 -7.00163809597143e-06 -0.39201000332832336
vn -0.8691526651382446 -3.0606312066083774e-05 0.49454379081726074
vn -0.8691526651382446 -3.060631934204139e-05 0.49454379081726074
vn -0.8691526651382446 -3.060631570406258e-05 0.49454373121261597
vn -0.8691526651382446 -3.060631934204139e-05 0.49454379081726074
vn 0.12926509976387024 0.00012921418237965554 0.9916101098060608
vn 0.12926508486270905 0.00012921418237965554 0.9916101098060608
vn 0.12926508486270905 0.00012921418237965554 0.9916101098060608
vn 0.12926509976387024 0.00012921418237965554 0.9916101098060608
vn 0.8579126596450806 8.491234621033072e-05 0.5137954950332642
vn 0.8579126596450806 8.491234621033072e-05 0.5137954950332642
vn 0.8579126596450806 8.491236076224595e-05 0.5137954950332642
vn 0.8579126596450806 8.491234621033072e-05 0.5137954950332642
vn 0.8561825752258301 -0.00012302475806791335 -0.5166732668876648
vn 0.8561825752258301 -0.00012302475806791335 -0.5166732668876648
vn 0.8561826348304749 -0.00012302474351599813 -0.5166732668876648
vn 0.8561826348304749 -0.00012302474351599813 -0.51667320728302
vn 0.05003912374377251 -1.0578786714177113e-05 -0.9987472295761108
vn 0.050039127469062805 -1.0578789442661218e-05 -0.9987472295761108
vn 0.05003912374377251 -1.0578789442661218e-05 -0.9987472295761108
vn 0.05003912374377251 -1.0578789442661218e-05 -0.9987472295761108
vn 0.0 -1.0 0.0
vn 0.0 -1.0 0.0
vn 0.0 -1.0 0.0
vn 0.0 -1.0 0.0
vn 0.0 -1.0 0.0
vn 0.0 -1.0 0.0
vt 0.6485642790794373 0.06138420104980469
vt 0.8825668096542358 0.057826459407806396
vt 0.8641534447669983 0.20205503702163696
vt 0.655941367149353 0.21412122249603271
vt 0.7469112873077393 0.27201592922210693
vt 0.7901188135147095 0.0019919872283935547
vt 0.09420980513095856 0.21615302562713623
vt 0.23576439917087555 0.27554523944854736
vt 0.23582187294960022 0.9980078886728734
vt 0.09419116377830505 0.9980078886728734
vt 0.09419116377830505 0.9980078886728734
vt 0.0017616667319089174 0.9980078886728734
vt 0.0017616667319089174 0.27198755741119385
vt 0.09420980513095856 0.21615302562713623
vt 0.4524965286254883 0.9980078886728734
vt 0.3118744492530823 0.9980078886728734
vt 0.31182628870010376 0.4162161350250244
vt 0.4524965286254883 0.27198755741119385
vt 0.3118744492530823 0.9980078886728734
vt 0.24150241911411285 0.9980078886728734
vt 0.24160411953926086 0.4861770272254944
vt 0.31182628870010376 0.4162161350250244
vt 0.45866504311561584 0.27554553747177124
vt 0.513703465461731 0.27554553747177124
vt 0.5134286880493164 0.845270961523056
vt 0.45876675844192505 0.7873763740062714
vt 0.6619042158126831 0.9980078886728734
vt 0.5134286880493164 0.845270961523056
vt 0.513703465461731 0.27554553747177124
vt 0.6619400382041931 0.27554553747177124
vt 0.40907859802246094 0.20817267894744873
vt 0.41656896471977234 0.05993610620498657
vt 0.5073978304862976 0.004897654056549072
vt 0.6249019503593445 0.07526969909667969
vt 0.6431387066841125 0.2158917784690857
vt 0.5507094264030457 0.26845788955688477

g equalizer_crystal_0011_shard_002
s 1
usemtl equalizer_crystal_0011_shard_002
f 1/1/1 2/2/2 3/3/3 
f 1/1/1 3/3/3 4/4/4 
f 3/3/3 5/5/5 4/4/4 
f 6/6/6 2/2/2 1/1/1 
f 7/7/7 8/8/8 9/9/9 
f 7/7/7 9/9/9 10/10/10 
f 11/11/11 12/12/12 13/13/13 
f 11/11/11 13/13/13 14/14/14 
f 15/15/15 16/16/16 17/17/17 
f 15/15/15 17/17/17 18/18/18 
f 19/19/19 20/20/20 21/21/21 
f 19/19/19 21/21/21 22/22/22 
f 23/23/23 24/24/24 25/25/25 
f 23/23/23 25/25/25 26/26/26 
f 27/27/27 28/28/28 29/29/29 
f 27/27/27 29/29/29 30/30/30 
f 31/31/31 32/32/32 33/33/33 
f 31/31/31 33/33/33 34/34/34 
f 31/31/31 34/34/34 35/35/35 
f 31/31/31 35/35/35 36/36/36 

