v -0.44151169061660767 1.788582682609558 -0.7592748999595642
v 0.425200492143631 0.8070763945579529 0.7595531940460205
v 0.4651128947734833 1.8852721452713013 -0.7595531940460205
v 0.9696215391159058 1.3168346881866455 0.12046142667531967
v -0.9696215391159058 1.2717883586883545 -0.10777099430561066
v -0.4412854015827179 0.7148596048355103 0.7595531940460205
v -0.4412854015827179 0.7148596048355103 0.7595531940460205
v -0.4412854015827179 -1.8852721452713013 0.7595531940460205
v 0.425200492143631 0.8070763945579529 0.7595531940460205
v 0.425200492143631 -1.8852721452713013 0.7595531940460205
v 0.9696215391159058 1.3168346881866455 0.12046142667531967
v 0.425200492143631 0.8070763945579529 0.7595531940460205
v 0.9696215391159058 -1.8852721452713013 0.12046142667531967
v 0.425200492143631 -1.8852721452713013 0.7595531940460205
v 0.4651128947734833 1.8852721452713013 -0.7595531940460205
v 0.9696215391159058 1.3168346881866455 0.12046142667531967
v 0.4651128947734833 -1.8852721452713013 -0.7595531940460205
v 0.9696215391159058 -1.8852721452713013 0.12046142667531967
v 0.4651128947734833 -1.8852721452713013 -0.7595531940460205
v -0.4412856996059418 -1.8852721452713013 -0.7595531940460205
v 0.4651128947734833 1.8852721452713013 -0.7595531940460205
v -0.44151169061660767 1.788582682609558 -0.7592748999595642
v -0.44151169061660767 1.788582682609558 -0.7592748999595642
v -0.4412856996059418 -1.8852721452713013 -0.7595531940460205
v -0.9696215391159058 1.2717883586883545 -0.10777099430561066
v -0.9696215391159058 -1.8852721452713013 -0.10777099430561066
v -0.9696215391159058 1.2717883586883545 -0.10777099430561066
v -0.9696215391159058 -1.8852721452713013 -0.10777099430561066
v -0.4412854015827179 0.7148596048355103 0.7595531940460205
v -0.4412854015827179 -1.8852721452713013 0.7595531940460205
v -0.4412854015827179 -1.8852721452713013 0.7595531940460205
v -0.9696215391159058 -1.8852721452713013 -0.10777099430561066
v -0.4412856996059418 -1.8852721452713013 -0.7595531940460205
v 0.425200492143631 -1.8852721452713013 0.7595531940460205
v 0.9696215391159058 -1.8852721452713013 0.12046142667531967
v 0.4651128947734833 -1.8852721452713013 -0.7595531940460205
vn -0.08657999336719513 0.8134866952896118 0.5751028656959534
vn -0.08658000081777573 0.8134866952896118 0.5751028060913086
vn -0.08657999336719513 0.8134867548942566 0.5751027464866638
vn -0.08658406883478165 0.8134864568710327 0.5751025080680847
vn -0.08657657355070114 0.8134896755218506 0.5750990509986877
vn -0.08657657355070114 0.8134896755218506 0.5750990509986877
vn -1.7338169300273876e-07 0.0 1.0
vn -1.7338166458102933e-07 0.0 1.0
vn -1.7338166458102933e-07 0.0 1.0
vn 0.0 0.0 1.0
vn 0.7612376809120178 0.0 0.6484730243682861
vn 0.7612376809120178 0.0 0.6484729647636414
vn 0.7612376809120178 0.0 0.6484729647636414
vn 0.7612376809120178 0.0 0.6484730243682861
vn 0.8675445318222046 0.0 -0.49735957384109497
vn 0.8675445318222046 0.0 -0.49735957384109497
vn 0.8675445318222046 0.0 -0.4973595142364502
vn 0.867544412612915 0.0 -0.49735960364341736
vn 0.0 0.0 -1.0
vn 0.0 0.0 -1.0
vn 0.0 0.0 -1.0
vn -0.00031506092636846006 7.573763286927715e-05 -1.0
vn -0.7768353819847107 0.0 -0.6297037601470947
vn -0.7768353223800659 0.0 -0.6297038793563843
vn -0.7768353223800659 0.0 -0.6297038197517395
vn -0.7768351435661316 0.0 -0.6297040581703186
vn -0.8540236353874207 0.0 0.5202341079711914
vn -0.8540237545967102 0.0 0.5202340483665466
vn -0.8540237545967102 0.0 0.5202340483665466
vn -0.8540236353874207 0.0 0.5202341675758362
vn 0.0 -1.0 0.0
vn 0.0 -1.0 0.0
vn 0.0 -1.0 0.0
vn 0.0 -1.0 0.0
vn 0.0 -1.0 0.0
vn 0.0 -1.0 0.0
vt 0.5039718747138977 0.359539270401001
vt 0.3533484637737274 0.530112236738205
vt 0.3464122414588928 0.3427358865737915
vt 0.25873515009880066 0.44152289628982544
vt 0.5957505702972412 0.44935131072998047
vt 0.5039324164390564 0.5461384654045105
vt 0.5039324164390564 0.5461384654045105
vt 0.5039324164390564 0.9980076740030199
vt 0.3533484637737274 0.530112236738205
vt 0.3533484637737274 0.9980076740030199
vt 0.25873515009880066 0.44152289628982544
vt 0.3533484637737274 0.530112236738205
vt 0.25873515009880066 0.9980076740030199
vt 0.3533484637737274 0.9980076740030199
vt 0.6028121709823608 0.3427358865737915
vt 0.755747377872467 0.44152289628982544
vt 0.6028121709823608 0.9980076740030199
vt 0.755747377872467 0.9980076740030199
vt 0.0018607245292514563 0.3427359461784363
vt 0.15938109159469604 0.3427359461784363
vt 0.0018607245292514563 0.9980081184767187
vt 0.15942037105560303 0.9812043718993664
vt 0.15942037105560303 0.9812043718993664
vt 0.15938109159469604 0.3427359461784363
vt 0.25119903683662415 0.8913919776678085
vt 0.25119903683662415 0.3427359461784363
vt 0.5957505702972412 0.44935131072998047
vt 0.5957505702972412 0.9980076740030199
vt 0.5039324164390564 0.5461384654045105
vt 0.5039324164390564 0.9980076740030199
vt 0.9322375655174255 0.24718928337097168
vt 0.7815078496932983 0.3390073776245117
vt 0.6682364344596863 0.247189462184906
vt 0.9322375655174255 0.09660530090332031
vt 0.8211716413497925 0.0019919872283935547
vt 0.6682364344596863 0.08966904878616333

g equalizer_crystal_004_shard_002
s 1
usemtl equalizer_crystal_004_shard_002
f 1/1/1 2/2/2 3/3/3 
f 3/3/3 2/2/2 4/4/4 
f 2/2/2 1/1/1 5/5/5 
f 5/5/5 6/6/6 2/2/2 
f 7/7/7 8/8/8 9/9/9 
f 8/8/8 10/10/10 9/9/9 
f 11/11/11 12/12/12 13/13/13 
f 13/13/13 12/12/12 14/14/14 
f 15/15/15 16/16/16 17/17/17 
f 17/17/17 16/16/16 18/18/18 
f 19/19/19 20/20/20 21/21/21 
f 21/21/21 20/20/20 22/22/22 
f 23/23/23 24/24/24 25/25/25 
f 25/25/25 24/24/24 26/26/26 
f 27/27/27 28/28/28 29/29/29 
f 29/29/29 28/28/28 30/30/30 
f 31/31/31 32/32/32 33/33/33 
f 31/31/31 33/33/33 34/34/34 
f 33/33/33 35/35/35 34/34/34 
f 33/33/33 36/36/36 35/35/35 

