v -0.5508175492286682 3.2363340854644775 -0.6873242259025574
v 0.9497643709182739 3.7282214164733887 -0.15853026509284973
v 0.2437150478363037 3.3979454040527344 -0.7655419707298279
v 0.4361831545829773 3.8610754013061523 0.7521435618400574
v -0.9497643709182739 3.279031991958618 -0.19919921457767487
v -0.392768532037735 3.6736438274383545 0.7655419707298279
v 0.2437150478363037 3.3979454040527344 -0.7655419707298279
v 0.2437150478363037 -2.685035228729248 -0.7655419707298279
v -0.5508175492286682 -2.676426887512207 -0.6873242259025574
v -0.5508175492286682 3.2363340854644775 -0.6873242259025574
v -0.9497643709182739 3.279031991958618 -0.19919921457767487
v -0.5508175492286682 3.2363340854644775 -0.6873242259025574
v -0.5508175492286682 -2.676426887512207 -0.6873242259025574
v -0.9497643709182739 -3.0150182247161865 -0.19919921457767487
v 0.2437150478363037 -2.685035228729248 -0.7655419707298279
v 0.2437150478363037 3.3979454040527344 -0.7655419707298279
v 0.9497643709182739 3.7282214164733887 -0.15853026509284973
v 0.9497643709182739 -3.2095298767089844 -0.15853026509284973
v 0.4361831545829773 -4.534797191619873 0.7521435618400574
v 0.9497643709182739 -3.2095298767089844 -0.15853026509284973
v 0.9497643709182739 3.7282214164733887 -0.15853026509284973
v 0.4361831545829773 3.8610754013061523 0.7521435618400574
v -0.9497643709182739 -3.0150182247161865 -0.19919921457767487
v -0.392768532037735 -3.7999866008758545 0.7655419707298279
v -0.392768532037735 3.6736438274383545 0.7655419707298279
v -0.9497643709182739 3.279031991958618 -0.19919921457767487
v 0.4361831545829773 3.8610754013061523 0.7521435618400574
v -0.392768532037735 3.6736438274383545 0.7655419707298279
v -0.392768532037735 -3.7999866008758545 0.7655419707298279
v 0.4361831545829773 -4.534797191619873 0.7521435618400574
v 0.2437150478363037 -2.685035228729248 -0.7655419707298279
v 0.9497643709182739 -3.2095298767089844 -0.15853026509284973
v -0.5508175492286682 -2.676426887512207 -0.6873242259025574
v -0.9497643709182739 -3.0150182247161865 -0.19919921457767487
v -0.392768532037735 -3.7999866008758545 0.7655419707298279
v 0.9497643709182739 -3.2095298767089844 -0.15853026509284973
v 0.4361831545829773 -4.534797191619873 0.7521435618400574
v -0.392768532037735 -3.7999866008758545 0.7655419707298279
vn -0.21696706116199493 0.9410161972045898 -0.25964149832725525
vn -0.21696706116199493 0.9410161972045898 -0.25964149832725525
vn -0.21696709096431732 0.9410161972045898 -0.25964146852493286
vn -0.2169671505689621 0.9410163164138794 -0.25964125990867615
vn -0.21696718037128448 0.9410161972045898 -0.25964128971099854
vn -0.21696679294109344 0.9410166144371033 -0.2596404552459717
vn -0.09797119349241257 0.0 -0.9951893091201782
vn -0.09797119349241257 0.0 -0.9951893091201782
vn -0.09797118604183197 0.0 -0.9951893091201782
vn -0.09797119349241257 0.0 -0.9951893091201782
vn -0.7742899656295776 0.0 -0.6328309178352356
vn -0.7742899060249329 0.0 -0.6328310370445251
vn -0.7742899656295776 0.0 -0.6328309774398804
vn -0.7742899656295776 0.0 -0.6328309178352356
vn 0.6519213914871216 0.0 -0.7582866549491882
vn 0.6519213914871216 0.0 -0.7582866549491882
vn 0.6519214510917664 0.0 -0.7582866549491882
vn 0.6519213914871216 0.0 -0.7582866549491882
vn 0.8710325360298157 0.0 0.49122530221939087
vn 0.8710325360298157 0.0 0.49122530221939087
vn 0.8710325360298157 0.0 0.49122530221939087
vn 0.8710325360298157 0.0 0.49122530221939087
vn -0.8660246133804321 0.0 0.5000014305114746
vn -0.8660245537757874 0.0 0.5000014901161194
vn -0.8660245537757874 0.0 0.5000014901161194
vn -0.8660245537757874 0.0 0.5000014901161194
vn 0.016161072999238968 0.0 0.9998693466186523
vn 0.01616106927394867 0.0 0.9998693466186523
vn 0.01616107113659382 0.0 0.9998693466186523
vn 0.01616107113659382 0.0 0.9998693466186523
vn -0.06821469217538834 -0.7927863001823425 -0.6056705117225647
vn -0.06821469217538834 -0.7927863001823425 -0.6056705117225647
vn -0.06821469217538834 -0.7927863001823425 -0.6056705117225647
vn -0.06821372359991074 -0.7927851676940918 -0.6056719422340393
vn -0.06821372359991074 -0.7927851676940918 -0.6056720018386841
vn -0.383413165807724 -0.41751304268836975 -0.8238186240196228
vn -0.38341325521469116 -0.41751304268836975 -0.8238186240196228
vn -0.38341325521469116 -0.41751304268836975 -0.8238186240196228
vt 0.6918208003044128 0.950679924339056
vt 0.6290892362594604 0.7726636528968811
vt 0.7011000514030457 0.8564231693744659
vt 0.5210546255111694 0.8335905075073242
vt 0.6339139938354492 0.9980077475775033
vt 0.5194651484489441 0.9319302886724472
vt 0.37044721841812134 0.9588265419006348
vt 0.37044721841812134 0.23719298839569092
vt 0.46470391750335693 0.23821395635604858
vt 0.46470391750335693 0.9396542347967625
vt 0.512031614780426 0.9447199106216431
vt 0.46470391750335693 0.9396542347967625
vt 0.46470391750335693 0.23821395635604858
vt 0.512031614780426 0.19804620742797852
vt 0.37044721841812134 0.23719298839569092
vt 0.37044721841812134 0.9588265419006348
vt 0.286687433719635 0.9980077475775033
vt 0.286687433719635 0.17497140169143677
vt 0.10943400114774704 0.998007990187034
vt 0.0013993807369843125 0.840789407491684
vt 0.0013993807369843125 0.01775282621383667
vt 0.10943400114774704 0.0019919276237487793
vt 0.27967914938926697 0.817714124917984
vt 0.21360179781913757 0.9108362123370171
vt 0.21360179781913757 0.024227499961853027
vt 0.27967914938926697 0.07104092836380005
vt 0.11526195704936981 0.0019919276237487793
vt 0.21360179781913757 0.024227499961853027
vt 0.21360179781913757 0.9108362123370171
vt 0.11526195704936981 0.998007990187034
vt 0.37044721841812134 0.23719298839569092
vt 0.286687433719635 0.17497140169143677
vt 0.46470391750335693 0.23821395635604858
vt 0.512031614780426 0.19804620742797852
vt 0.44595426321029663 0.10492449998855591
vt 0.286687433719635 0.17497140169143677
vt 0.34761443734169006 0.01775258779525757
vt 0.44595426321029663 0.10492449998855591

g equalizer_crystal_001_shard_001
s 1
usemtl equalizer_crystal_001_shard_001
f 1/1/1 2/2/2 3/3/3 
f 4/4/4 2/2/2 1/1/1 
f 4/4/4 1/1/1 5/5/5 
f 5/5/5 6/6/6 4/4/4 
f 7/7/7 8/8/8 9/9/9 
f 7/7/7 9/9/9 10/10/10 
f 11/11/11 12/12/12 13/13/13 
f 11/11/11 13/13/13 14/14/14 
f 15/15/15 16/16/16 17/17/17 
f 15/15/15 17/17/17 18/18/18 
f 19/19/19 20/20/20 21/21/21 
f 19/19/19 21/21/21 22/22/22 
f 23/23/23 24/24/24 25/25/25 
f 23/23/23 25/25/25 26/26/26 
f 27/27/27 28/28/28 29/29/29 
f 27/27/27 29/29/29 30/30/30 
f 31/31/31 32/32/32 33/33/33 
f 34/34/34 33/33/33 32/32/32 
f 34/34/34 32/32/32 35/35/35 
f 36/36/36 37/37/37 38/38/38 

