v -0.9681023955345154 2.040776252746582 0.3000512719154358
v 0.4480169713497162 3.0495457649230957 -0.8625805377960205
v -0.7642144560813904 0.27028319239616394 0.39134031534194946
v -0.7889410257339478 2.578554630279541 0.09758056700229645
v 0.8949822783470154 -3.309587240219116 -0.3278833031654358
v -0.20791587233543396 3.4285032749176025 -0.4383227527141571
v 0.05890609696507454 3.4692234992980957 -0.6372143626213074
v -0.7889410257339478 2.578554630279541 0.09758056700229645
v -0.20791587233543396 3.4285032749176025 -0.15224364399909973
v -0.20791587233543396 3.4285032749176025 -0.4383227527141571
v 0.8949822783470154 -3.309587240219116 -0.3278833031654358
v 0.4480169713497162 3.0495457649230957 -0.8625805377960205
v 0.8673169016838074 2.1864404678344727 -0.36126708984375
v 0.9065642952919006 0.5927495956420898 -0.3139965832233429
v 0.9681023955345154 0.5063018798828125 -0.24042724072933197
v 0.9681023955345154 -3.4692234992980957 -0.24042724072933197
v 0.05890609696507454 3.4692234992980957 -0.6372143626213074
v -0.20791587233543396 3.4285032749176025 -0.15224364399909973
v -0.1242096945643425 3.442932605743408 -0.12582702934741974
v -0.20791587233543396 3.4285032749176025 -0.4383227527141571
v -0.9681023955345154 2.040776252746582 0.3000512719154358
v -0.040674515068531036 1.90225088596344 0.71528559923172
v -0.7889410257339478 2.578554630279541 0.09758056700229645
v 0.2500157356262207 2.822377920150757 0.32451874017715454
v -0.20791587233543396 3.4285032749176025 -0.15224364399909973
v -0.20791587233543396 3.4285032749176025 -0.15224364399909973
v 0.2500157356262207 2.822377920150757 0.32451874017715454
v -0.1242096945643425 3.442932605743408 -0.12582702934741974
v 0.9681023955345154 0.5063018798828125 -0.24042724072933197
v 0.29376891255378723 -2.027026414871216 0.8625805377960205
v 0.9681023955345154 -3.4692234992980957 -0.24042724072933197
v 0.29376891255378723 0.8059167265892029 0.8625805377960205
v 0.2500157356262207 2.822377920150757 0.32451874017715454
v 0.8673169016838074 2.1864404678344727 -0.36126708984375
v -0.1242096945643425 3.442932605743408 -0.12582702934741974
v -0.1242096945643425 3.442932605743408 -0.12582702934741974
v 0.8673169016838074 2.1864404678344727 -0.36126708984375
v 0.05890609696507454 3.4692234992980957 -0.6372143626213074
v 0.4480169713497162 3.0495457649230957 -0.8625805377960205
v 0.9681023955345154 0.5063018798828125 -0.24042724072933197
v 0.9065642952919006 0.5927495956420898 -0.3139965832233429
v 0.29376891255378723 0.8059167265892029 0.8625805377960205
v 0.9065642952919006 0.5927495956420898 -0.3139965832233429
v -0.013008956797420979 1.052829623222351 0.72822505235672
v 0.29376891255378723 0.8059167265892029 0.8625805377960205
v 0.9065642952919006 0.5927495956420898 -0.3139965832233429
v 0.8673169016838074 2.1864404678344727 -0.36126708984375
v -0.013008956797420979 1.052829623222351 0.72822505235672
v -0.040674515068531036 1.90225088596344 0.71528559923172
v 0.2500157356262207 2.822377920150757 0.32451874017715454
v -0.7642144560813904 0.27028319239616394 0.39134031534194946
v -0.040674515068531036 1.90225088596344 0.71528559923172
v -0.9681023955345154 2.040776252746582 0.3000512719154358
v -0.013008956797420979 1.052829623222351 0.72822505235672
v 0.29376891255378723 0.8059167265892029 0.8625805377960205
v 0.29376891255378723 -2.027026414871216 0.8625805377960205
v 0.9681023955345154 -3.4692234992980957 -0.24042724072933197
v 0.29376891255378723 -2.027026414871216 0.8625805377960205
v 0.8949822783470154 -3.309587240219116 -0.3278833031654358
v -0.7642144560813904 0.27028319239616394 0.39134031534194946
vn -0.5833901762962341 -0.10868369042873383 -0.8048874735832214
vn -0.5833901762962341 -0.10868368297815323 -0.8048874735832214
vn -0.5833901762962341 -0.10868366807699203 -0.8048874735832214
vn -0.5833958387374878 -0.10867707431316376 -0.8048843145370483
vn -0.5833922624588013 -0.10868248343467712 -0.804885983467102
vn -0.5833914279937744 -0.10868397355079651 -0.8048864603042603
vn -0.5833886861801147 -0.10867274552583694 -0.8048899173736572
vn -0.825542151927948 0.5643404722213745 0.0
vn -0.825542151927948 0.5643404126167297 0.0
vn -0.825542151927948 0.5643404126167297 0.0
vn 0.7670314311981201 -3.623809607233852e-05 -0.6416095495223999
vn 0.7670313715934753 -3.623809607233852e-05 -0.6416095495223999
vn 0.7670313715934753 -3.623809607233852e-05 -0.6416095495223999
vn 0.7692272663116455 -9.203739864460658e-06 -0.6389753222465515
vn 0.7670421600341797 6.6256197897018865e-06 -0.6415966749191284
vn 0.7671851515769958 0.0 -0.6414257287979126
vn -0.16706766188144684 0.9859031438827515 -0.009142239578068256
vn -0.16706766188144684 0.9859031438827515 -0.009142240509390831
vn -0.16706767678260803 0.9859031438827515 -0.009142240509390831
vn -0.15086504817008972 0.9885542988777161 0.0
vn -0.3163393437862396 0.42474836111068726 0.8482441902160645
vn -0.316339373588562 0.42474836111068726 0.8482441902160645
vn -0.3163393437862396 0.42474839091300964 0.8482442498207092
vn -0.2901219129562378 0.4502798914909363 0.8444389700889587
vn -0.28974226117134094 0.4468459188938141 0.8463913202285767
vn -0.3380250632762909 0.4106833040714264 0.8468047380447388
vn -0.3380250930786133 0.41068336367607117 0.8468047380447388
vn -0.3380250632762909 0.4106833040714264 0.8468047380447388
vn 0.8531877994537354 0.0 0.5216038823127747
vn 0.8531876802444458 0.0 0.5216038823127747
vn 0.8531877994537354 0.0 0.5216038227081299
vn 0.8531877994537354 0.0 0.5216037631034851
vn 0.7892299294471741 0.5926631093025208 0.1608307957649231
vn 0.7892299294471741 0.5926631093025208 0.1608307957649231
vn 0.7892299294471741 0.592663049697876 0.1608307957649231
vn 0.7744441628456116 0.5538338422775269 0.3057849109172821
vn 0.7744441628456116 0.5538338422775269 0.3057849109172821
vn 0.7744441032409668 0.5538338422775269 0.30578485131263733
vn 0.7744448184967041 0.5538345575332642 0.30578193068504333
vn 0.6873151063919067 0.6878558993339539 0.23335011303424835
vn 0.6873151063919067 0.6878558993339539 0.23335011303424835
vn 0.6873151063919067 0.6878558993339539 0.23335008323192596
vn 0.5771974921226501 0.8016871213912964 0.155372753739357
vn 0.5771974921226501 0.8016871213912964 0.155372753739357
vn 0.5771974921226501 0.8016871213912964 0.155372753739357
vn 0.7575682997703552 0.037985026836395264 0.6516498327255249
vn 0.7575682997703552 0.037985026836395264 0.6516498327255249
vn 0.7575681805610657 0.03798501938581467 0.6516498327255249
vn 0.7594311833381653 0.03463117033243179 0.6496651768684387
vn 0.759192168712616 0.036141689866781235 0.6498623490333557
vn -0.40863850712776184 1.5533861414951389e-06 0.9126963019371033
vn -0.40863853693008423 1.553386482555652e-06 0.9126963019371033
vn -0.40863844752311707 1.5533863688688143e-06 0.912696361541748
vn -0.40967443585395813 0.0005532016512006521 0.9122315645217896
vn -0.4046749174594879 -0.0052007162012159824 0.9144458770751953
vn -0.4068779945373535 0.0 0.9134824275970459
vn -0.9077730178833008 -0.41940978169441223 -0.006591924466192722
vn -0.9077731370925903 -0.41940975189208984 -0.00659192493185401
vn -0.9077730178833008 -0.41940978169441223 -0.006591924466192722
vn -0.907772958278656 -0.41941025853157043 -0.0065909516997635365
vt 0.08250581473112106 0.20704585313796997
vt 0.2494020313024521 0.062236785888671875
vt 0.06940139085054398 0.46120065450668335
vt 0.11157047003507614 0.1298477053642273
vt 0.17264603078365326 0.9750920925289392
vt 0.18849968910217285 0.007837355136871338
vt 0.21705055236816406 0.0019919872283935547
vt 0.6556493043899536 0.9980079429224133
vt 0.691511869430542 0.914601668715477
vt 0.7325785160064697 0.914601668715477
vt 0.5522299408912659 0.08515220880508423
vt 0.6163919568061829 0.9980076493229717
vt 0.5562012791633606 0.8741084486246109
vt 0.5505673289299011 0.6453339755535126
vt 0.5417335033416748 0.6329241991043091
vt 0.5417335033416748 0.06223636865615845
vt 0.7611293792724609 0.8762992694973946
vt 0.691511869430542 0.914601668715477
vt 0.6877195239067078 0.9025856181979179
vt 0.7325785160064697 0.914601668715477
vt 0.5349901914596558 0.20704585313796997
vt 0.4018576741218567 0.22693133354187012
vt 0.5092715620994568 0.1298477053642273
vt 0.3601289987564087 0.09484678506851196
vt 0.4258652627468109 0.007837355136871338
vt 0.4258652627468109 0.007837355136871338
vt 0.3601289987564087 0.09484678506851196
vt 0.41384920477867126 0.005766034126281738
vt 0.2570474445819855 0.42732012271881104
vt 0.3538482189178467 0.7909802049398422
vt 0.2570474445819855 0.9980079429224133
vt 0.3538482189178467 0.3843104839324951
vt 0.6230723261833191 0.8488655388355255
vt 0.7215172052383423 0.7602517306804657
vt 0.6877195239067078 0.9025856181979179
vt 0.6877195239067078 0.9025856181979179
vt 0.7215172052383423 0.7602517306804657
vt 0.7611293792724609 0.8762992694973946
vt 0.7934808731079102 0.8204423934221268
vt 0.800538957118988 0.8396708071231842
vt 0.8129484057426453 0.8291099667549133
vt 0.843548595905304 0.9980079429224133
vt 0.8129484057426453 0.8291099667549133
vt 0.8789930939674377 0.9787211008369923
vt 0.843548595905304 0.9980079429224133
vt 0.2658812701702118 0.41491061449050903
vt 0.27151525020599365 0.1861358880996704
vt 0.39788633584976196 0.34886592626571655
vt 0.4018576741218567 0.22693133354187012
vt 0.3601289987564087 0.09484678506851196
vt 0.5057221055030823 0.46120065450668335
vt 0.4018576741218567 0.22693133354187012
vt 0.5349901914596558 0.20704585313796997
vt 0.39788633584976196 0.34886592626571655
vt 0.3538482189178467 0.3843104839324951
vt 0.3538482189178467 0.7909802049398422
vt 0.1600918173789978 0.9980079429224133
vt 0.0017545369919389486 0.7909802049398422
vt 0.17264603078365326 0.9750920925289392
vt 0.06940139085054398 0.46120065450668335

g equalizer_crystal_0025_shard_001
s 1
usemtl equalizer_crystal_0025_shard_001
f 1/1/1 2/2/2 3/3/3 
f 4/4/4 2/2/2 1/1/1 
f 3/3/3 2/2/2 5/5/5 
f 6/6/6 2/2/2 4/4/4 
f 6/6/6 7/7/7 2/2/2 
f 8/8/8 9/9/9 10/10/10 
f 11/11/11 12/12/12 13/13/13 
f 13/13/13 14/14/14 11/11/11 
f 15/15/15 11/11/11 14/14/14 
f 16/16/16 11/11/11 15/15/15 
f 17/17/17 18/18/18 19/19/19 
f 20/20/20 18/18/18 17/17/17 
f 21/21/21 22/22/22 23/23/23 
f 23/23/23 22/22/22 24/24/24 
f 23/23/23 24/24/24 25/25/25 
f 26/26/26 27/27/27 28/28/28 
f 29/29/29 30/30/30 31/31/31 
f 30/30/30 29/29/29 32/32/32 
f 33/33/33 34/34/34 35/35/35 
f 36/36/36 37/37/37 38/38/38 
f 38/38/38 37/37/37 39/39/39 
f 40/40/40 41/41/41 42/42/42 
f 43/43/43 44/44/44 45/45/45 
f 46/46/46 47/47/47 48/48/48 
f 48/48/48 47/47/47 49/49/49 
f 49/49/49 47/47/47 50/50/50 
f 51/51/51 52/52/52 53/53/53 
f 54/54/54 52/52/52 51/51/51 
f 51/51/51 55/55/55 54/54/54 
f 56/56/56 55/55/55 51/51/51 
f 57/57/57 58/58/58 59/59/59 
f 59/59/59 58/58/58 60/60/60 

