v 0.40888702869415283 -0.18067504465579987 -0.8204394578933716
v -0.5272555351257324 -1.0237609148025513 0.7985253930091858
v -0.5272558331489563 -1.5431774854660034 -0.8216796517372131
v -0.9874627590179443 -1.948909878730774 0.0014257811708375812
v 0.9874627590179443 0.9824303984642029 0.18168456852436066
v 0.5289254784584045 0.5204235911369324 0.8216796517372131
v 0.15795333683490753 1.948909878730774 0.6907128691673279
v 0.787097156047821 1.7477233409881592 0.46140623092651367
v -0.8312481641769409 1.5799304246902466 0.2719970643520355
v 0.9874627590179443 1.5001647472381592 0.18168456852436066
v -0.9874627590179443 1.3409557342529297 0.0014257811708375812
v 0.40817075967788696 0.6139733791351318 -0.8216796517372131
v -0.5272558331489563 0.6139733791351318 -0.8216796517372131
v 0.787097156047821 1.7477233409881592 0.46140623092651367
v 0.15795333683490753 1.948909878730774 0.6907128691673279
v 0.5289822220802307 1.8241149187088013 0.8215771317481995
v 0.1846899390220642 1.9333873987197876 0.8133251667022705
v 0.1846899390220642 1.9333873987197876 0.8133251667022705
v 0.15795333683490753 1.948909878730774 0.6907128691673279
v -0.5272555351257324 1.6022008657455444 0.7985253930091858
v -0.8312481641769409 1.5799304246902466 0.2719970643520355
v 0.9874627590179443 1.5001647472381592 0.18168456852436066
v 0.787097156047821 1.7477233409881592 0.46140623092651367
v 0.5289254784584045 0.5204235911369324 0.8216796517372131
v 0.9874627590179443 0.9824303984642029 0.18168456852436066
v 0.5289822220802307 1.8241149187088013 0.8215771317481995
v 0.5289254784584045 0.5204235911369324 0.8216796517372131
v 0.5289822220802307 1.8241149187088013 0.8215771317481995
v 0.1846899390220642 1.9333873987197876 0.8133251667022705
v -0.5272555351257324 1.6022008657455444 0.7985253930091858
v -0.5272555351257324 -1.0237609148025513 0.7985253930091858
v -0.8312481641769409 1.5799304246902466 0.2719970643520355
v -0.5272555351257324 -1.0237609148025513 0.7985253930091858
v -0.5272555351257324 1.6022008657455444 0.7985253930091858
v -0.9874627590179443 1.3409557342529297 0.0014257811708375812
v -0.9874627590179443 -1.948909878730774 0.0014257811708375812
v -0.9874627590179443 -1.948909878730774 0.0014257811708375812
v -0.9874627590179443 1.3409557342529297 0.0014257811708375812
v -0.5272558331489563 0.6139733791351318 -0.8216796517372131
v -0.5272558331489563 -1.5431774854660034 -0.8216796517372131
v -0.5272558331489563 0.6139733791351318 -0.8216796517372131
v 0.40817075967788696 0.6139733791351318 -0.8216796517372131
v 0.40888702869415283 -0.18067504465579987 -0.8204394578933716
v -0.5272558331489563 -1.5431774854660034 -0.8216796517372131
v 0.9874627590179443 0.9824303984642029 0.18168456852436066
v 0.40888702869415283 -0.18067504465579987 -0.8204394578933716
v 0.40817075967788696 0.6139733791351318 -0.8216796517372131
v 0.9874627590179443 1.5001647472381592 0.18168456852436066
vn 0.8108683824539185 -0.55729079246521 0.17866024374961853
vn 0.8108683228492737 -0.55729079246521 0.17866024374961853
vn 0.8108683228492737 -0.55729079246521 0.17866025865077972
vn 0.8108680248260498 -0.5572912693023682 0.17866019904613495
vn 0.810867965221405 -0.5572910308837891 0.17866151034832
vn 0.810867965221405 -0.5572910308837891 0.17866148054599762
vn -0.0005660008755512536 0.7509223818778992 -0.6603902578353882
vn -0.0005660009337589145 0.7509223818778992 -0.6603902578353882
vn -0.0005660009337589145 0.7509223818778992 -0.660390317440033
vn -6.934325938345864e-05 0.7488216757774353 -0.6627715826034546
vn -1.445968678126519e-07 0.7495148181915283 -0.6619875431060791
vn 0.0 0.7495155334472656 -0.661986768245697
vn 0.0 0.7495155334472656 -0.661986768245697
vn 0.31175893545150757 0.949907660484314 0.0219515860080719
vn 0.31175893545150757 0.949907660484314 0.02195158414542675
vn 0.31175893545150757 0.949907660484314 0.0219515860080719
vn 0.30085936188697815 0.9520852565765381 0.05492983013391495
vn -0.41646650433540344 0.8861982226371765 0.2029983103275299
vn -0.41646653413772583 0.8861982226371765 0.2029983103275299
vn -0.4164665639400482 0.8861982226371765 0.2029983103275299
vn -0.4164736270904541 0.8862014412879944 0.2029697448015213
vn 0.812916100025177 -3.175084202666767e-05 0.5823808908462524
vn 0.812916100025177 -3.175083838868886e-05 0.5823808312416077
vn 0.812916100025177 -3.175083838868886e-05 0.5823808312416077
vn 0.8129160404205322 -3.175083838868886e-05 0.5823809504508972
vn 0.8128259181976318 1.0396377547294833e-05 0.5825067758560181
vn -0.023935463279485703 7.967197598190978e-05 0.9997134804725647
vn -0.023935463279485703 7.967196870595217e-05 0.9997134804725647
vn -0.023935459554195404 7.967197598190978e-05 0.9997134804725647
vn -0.021693091839551926 0.00021911766089033335 0.999764621257782
vn -0.021693093702197075 0.00021911770454607904 0.999764621257782
vn -0.866024374961853 0.0 0.500001847743988
vn -0.866024374961853 0.0 0.500001847743988
vn -0.866024374961853 0.0 0.500001847743988
vn -0.8660247921943665 0.0 0.500001072883606
vn -0.8660247921943665 0.0 0.5000010132789612
vn -0.8728367686271667 0.0 -0.48801228404045105
vn -0.8728367686271667 0.0 -0.4880122244358063
vn -0.8728367686271667 0.0 -0.4880122244358063
vn -0.8728367686271667 0.0 -0.48801228404045105
vn 0.000968383508734405 -0.00041992688784375787 -0.9999995231628418
vn 0.000968383508734405 -0.0004199268587399274 -0.9999995231628418
vn 0.0009683834505267441 -0.0004199268587399274 -0.9999995231628418
vn 0.0009683834505267441 -0.00041992688784375787 -0.9999995231628418
vn 0.8660260438919067 1.2840766316912777e-07 -0.49999895691871643
vn 0.8660260438919067 1.2840764895827306e-07 -0.49999895691871643
vn 0.866025984287262 1.2840766316912777e-07 -0.4999989867210388
vn 0.8660260438919067 1.2840766316912777e-07 -0.49999892711639404
vt 0.3678940236568451 0.6759110689163208
vt 0.6628006100654602 0.8294854015111923
vt 0.367668092250824 0.9241011962294579
vt 0.5176029205322266 0.9980079277884215
vt 0.5504383444786072 0.46404242515563965
vt 0.6670183539390564 0.5482004880905151
vt 0.4984285831451416 0.1572864055633545
vt 0.5401983857154846 0.04268360137939453
vt 0.5747007131576538 0.33747708797454834
vt 0.591151773929596 0.006185472011566162
vt 0.6239872574806213 0.36593276262283325
vt 0.7739220857620239 0.11170756816864014
vt 0.7739220857620239 0.2821025848388672
vt 0.5401983857154846 0.04268360137939453
vt 0.4984285831451416 0.1572864055633545
vt 0.4745907783508301 0.08970087766647339
vt 0.47609367966651917 0.15241634845733643
vt 0.47609367966651917 0.15241634845733643
vt 0.4984285831451416 0.1572864055633545
vt 0.47878989577293396 0.2821025848388672
vt 0.5747007131576538 0.33747708797454834
vt 0.0018967902287840843 0.36973363161087036
vt 0.03839489072561264 0.3246387243270874
vt 0.0854228064417839 0.5482004880905151
vt 0.0018967902287840843 0.46404242515563965
vt 0.08541246503591537 0.31072330474853516
vt 0.0854228064417839 0.5482004880905151
vt 0.08541246503591537 0.31072330474853516
vt 0.14812780916690826 0.290818989276886
vt 0.2778140604496002 0.3511466979980469
vt 0.2778140604496002 0.8294854015111923
vt 0.33318859338760376 0.35520344972610474
vt 0.2778140604496002 0.8294854015111923
vt 0.2778140604496002 0.3511466979980469
vt 0.36164426803588867 0.39873433113098145
vt 0.36164426803588867 0.9980079277884215
vt 0.6738691329956055 0.9980079277884215
vt 0.6738691329956055 0.39873433113098145
vt 0.8238039612770081 0.5311596691608429
vt 0.8238039612770081 0.9241011962294579
vt 0.9502893686294556 0.3949335217475891
vt 0.7798944711685181 0.3949335217475891
vt 0.7797639966011047 0.2501820921897888
vt 0.9502893686294556 0.0019919872283935547
vt 0.5504383444786072 0.46404242515563965
vt 0.3678940236568451 0.6759110689163208
vt 0.367668092250824 0.5311596691608429
vt 0.5504383444786072 0.36973363161087036

g equalizer_crystal_009_shard_003
s 1
usemtl equalizer_crystal_009_shard_003
f 1/1/1 2/2/2 3/3/3 
f 2/2/2 4/4/4 3/3/3 
f 2/2/2 1/1/1 5/5/5 
f 2/2/2 5/5/5 6/6/6 
f 7/7/7 8/8/8 9/9/9 
f 10/10/10 9/9/9 8/8/8 
f 11/11/11 9/9/9 10/10/10 
f 12/12/12 11/11/11 10/10/10 
f 13/13/13 11/11/11 12/12/12 
f 14/14/14 15/15/15 16/16/16 
f 15/15/15 17/17/17 16/16/16 
f 18/18/18 19/19/19 20/20/20 
f 19/19/19 21/21/21 20/20/20 
f 22/22/22 23/23/23 24/24/24 
f 22/22/22 24/24/24 25/25/25 
f 24/24/24 23/23/23 26/26/26 
f 27/27/27 28/28/28 29/29/29 
f 27/27/27 29/29/29 30/30/30 
f 27/27/27 30/30/30 31/31/31 
f 32/32/32 33/33/33 34/34/34 
f 33/33/33 32/32/32 35/35/35 
f 33/33/33 35/35/35 36/36/36 
f 37/37/37 38/38/38 39/39/39 
f 37/37/37 39/39/39 40/40/40 
f 41/41/41 42/42/42 43/43/43 
f 41/41/41 43/43/43 44/44/44 
f 45/45/45 46/46/46 47/47/47 
f 45/45/45 47/47/47 48/48/48 

