v 0.4788665771484375 -0.8173025250434875 -0.8258837461471558
v 0.5950848460197449 -0.8849661350250244 0.5864648222923279
v -0.4139626920223236 -0.15843535959720612 -0.8220409750938416
v -0.944686233997345 0.24496306478977203 0.0971972644329071
v -0.3877444267272949 -0.1566690057516098 0.8258837461471558
v -0.4162493944168091 -0.135731503367424 0.818359375
v 0.944686233997345 -1.1506942510604858 -0.019062500447034836
v -0.12626174092292786 1.1506942510604858 -0.3336181640625
v -0.4575533866882324 1.1506942510604858 -0.08116699010133743
v 0.24362395703792572 1.1506942510604858 0.12205077707767487
v -0.3227993845939636 1.1506942510604858 0.5427538752555847
v 0.1768917739391327 1.1506942510604858 0.5932714939117432
v 0.24362395703792572 1.1506942510604858 0.12205077707767487
v 0.6822589039802551 0.3333529531955719 -0.4736035168170929
v -0.12626174092292786 1.1506942510604858 -0.3336181640625
v -0.20170821249485016 0.8660409450531006 -0.8221972584724426
v 0.4788665771484375 0.2601644694805145 -0.8258837461471558
v -0.4575533866882324 1.1506942510604858 -0.08116699010133743
v -0.12626174092292786 1.1506942510604858 -0.3336181640625
v -0.711029052734375 0.9320223927497864 -0.30750975012779236
v -0.4139626920223236 0.7818099856376648 -0.8220409750938416
v -0.20170821249485016 0.8660409450531006 -0.8221972584724426
v 0.6822589039802551 0.3333529531955719 -0.4736035168170929
v 0.24362395703792572 1.1506942510604858 0.12205077707767487
v 0.5950848460197449 0.18812957406044006 0.5864648222923279
v 0.944686233997345 -0.4205850064754486 -0.019062500447034836
v 0.28383636474609375 0.8809041976928711 0.663867175579071
v 0.1768917739391327 1.1506942510604858 0.5932714939117432
v 0.1768917739391327 1.1506942510604858 0.5932714939117432
v -0.3227993845939636 1.1506942510604858 0.5427538752555847
v 0.28383636474609375 0.8809041976928711 0.663867175579071
v -0.5900067090988159 0.856270432472229 0.580981433391571
v -0.4162493944168091 -0.135731503367424 0.818359375
v -0.3877444267272949 -0.1566690057516098 0.8258837461471558
v -0.3227993845939636 1.1506942510604858 0.5427538752555847
v -0.4575533866882324 1.1506942510604858 -0.08116699010133743
v -0.5900067090988159 0.856270432472229 0.580981433391571
v -0.944686233997345 0.5888558626174927 0.0971972644329071
v -0.711029052734375 0.9320223927497864 -0.30750975012779236
v -0.711029052734375 0.9320223927497864 -0.30750975012779236
v -0.4139626920223236 -0.15843535959720612 -0.8220409750938416
v -0.944686233997345 0.5888558626174927 0.0971972644329071
v -0.944686233997345 0.24496306478977203 0.0971972644329071
v -0.4139626920223236 0.7818099856376648 -0.8220409750938416
v 0.4788665771484375 -0.8173025250434875 -0.8258837461471558
v -0.4139626920223236 -0.15843535959720612 -0.8220409750938416
v -0.20170821249485016 0.8660409450531006 -0.8221972584724426
v -0.4139626920223236 0.7818099856376648 -0.8220409750938416
v 0.4788665771484375 0.2601644694805145 -0.8258837461471558
v 0.944686233997345 -1.1506942510604858 -0.019062500447034836
v 0.4788665771484375 -0.8173025250434875 -0.8258837461471558
v 0.6822589039802551 0.3333529531955719 -0.4736035168170929
v 0.4788665771484375 0.2601644694805145 -0.8258837461471558
v 0.944686233997345 -0.4205850064754486 -0.019062500447034836
v 0.944686233997345 -1.1506942510604858 -0.019062500447034836
v 0.944686233997345 -0.4205850064754486 -0.019062500447034836
v 0.5950848460197449 -0.8849661350250244 0.5864648222923279
v 0.5950848460197449 0.18812957406044006 0.5864648222923279
v 0.5950848460197449 0.18812957406044006 0.5864648222923279
v -0.3877444267272949 -0.1566690057516098 0.8258837461471558
v 0.5950848460197449 -0.8849661350250244 0.5864648222923279
v 0.28383636474609375 0.8809041976928711 0.663867175579071
v -0.4162493944168091 -0.135731503367424 0.818359375
v -0.5900067090988159 0.856270432472229 0.580981433391571
v -0.944686233997345 0.5888558626174927 0.0971972644329071
v -0.944686233997345 0.24496306478977203 0.0971972644329071
vn -0.5937182903289795 -0.8046069145202637 0.010307963006198406
vn -0.5937182903289795 -0.8046069145202637 0.010307961143553257
vn -0.5937182903289795 -0.8046069145202637 0.010307961143553257
vn -0.5937193632125854 -0.8046061396598816 0.01030851062387228
vn -0.5937203168869019 -0.8046056032180786 0.010293098166584969
vn -0.5937203168869019 -0.8046056032180786 0.010293098166584969
vn -0.5937185883522034 -0.8046066761016846 0.010308162309229374
vn 0.0 1.0 0.0
vn 0.0 1.0 0.0
vn 0.0 1.0 0.0
vn 0.0 1.0 0.0
vn 0.0 1.0 0.0
vn 0.584023118019104 0.6589152216911316 -0.4740758240222931
vn 0.584023118019104 0.6589152216911316 -0.4740758240222931
vn 0.584023118019104 0.6589151620864868 -0.4740757644176483
vn 0.5840218663215637 0.6589142680168152 -0.47407853603363037
vn 0.5840221643447876 0.658910870552063 -0.47408294677734375
vn -0.332229346036911 0.8363857865333557 -0.4359845519065857
vn -0.3322293758392334 0.8363857865333557 -0.4359845519065857
vn -0.3322293758392334 0.8363857865333557 -0.4359845519065857
vn -0.3322290778160095 0.8363843560218811 -0.4359875023365021
vn -0.3322315812110901 0.8363850116729736 -0.435984343290329
vn 0.909866213798523 0.3943866491317749 0.12885083258152008
vn 0.909866213798523 0.3943866491317749 0.1288508176803589
vn 0.909866213798523 0.3943866193294525 0.1288508027791977
vn 0.9098669290542603 0.39438503980636597 0.128851056098938
vn 0.9098663330078125 0.3943861126899719 0.12885215878486633
vn 0.9098663330078125 0.3943861126899719 0.12885215878486633
vn -0.09822637587785721 0.21529965102672577 0.9715954065322876
vn -0.0982263833284378 0.21529968082904816 0.9715954065322876
vn -0.09822637587785721 0.21529968082904816 0.9715954065322876
vn -0.09822709858417511 0.2152976393699646 0.9715957641601562
vn -0.09829563647508621 0.215335875749588 0.9715803265571594
vn -0.09829562902450562 0.2153358906507492 0.971580445766449
vn -0.7213122844696045 0.6748618483543396 0.15578822791576385
vn -0.721312403678894 0.6748617887496948 0.15578824281692505
vn -0.721312403678894 0.6748617887496948 0.15578824281692505
vn -0.7213128209114075 0.6748607754707336 0.15579068660736084
vn -0.7213127613067627 0.6748608350753784 0.15579070150852203
vn -0.8660255074501038 -1.0949958095807233e-06 -0.4999997317790985
vn -0.8660255074501038 -1.0949958095807233e-06 -0.4999997317790985
vn -0.8660256266593933 -1.0949960369543987e-06 -0.4999997615814209
vn -0.866024911403656 0.0 -0.5000010132789612
vn -0.8660240769386292 0.0 -0.5000022053718567
vn -0.0038308228831738234 0.0006411747308447957 -0.9999924898147583
vn -0.003830822417512536 0.0006411747308447957 -0.9999924898147583
vn -0.0038308221846818924 0.0006411746726371348 -0.9999924898147583
vn -0.0007361970492638648 0.0 -0.9999997615814209
vn -0.0054167150519788265 0.0 -0.9999853372573853
vn 0.8660244345664978 -1.6173462427104823e-06 -0.5000016093254089
vn 0.8660244345664978 -1.6173462427104823e-06 -0.5000016093254089
vn 0.8660245537757874 -1.6173461290236446e-06 -0.5000016093254089
vn 0.8660218715667725 0.0 -0.5000061392784119
vn 0.8660271167755127 0.0 -0.4999971091747284
vn 0.8660253286361694 0.0 0.5000000596046448
vn 0.8660253286361694 0.0 0.5000000596046448
vn 0.8660253286361694 0.0 0.5000001192092896
vn 0.866025447845459 0.0 0.5
vn 0.2366805225610733 0.0 0.9715875387191772
vn 0.23668049275875092 0.0 0.9715875387191772
vn 0.2366805225610733 0.0 0.9715875387191772
vn 0.2373146414756775 -0.0019158690702170134 0.9714310169219971
vn -0.8065325617790222 0.00019611262541729957 0.5911896228790283
vn -0.8065325617790222 0.00019611262541729957 0.5911895632743835
vn -0.8065325617790222 0.00019611261086538434 0.5911896228790283
vn -0.8066260814666748 0.0 0.5910620093345642
vt 0.6929831504821777 0.925643689930439
vt 0.38561373949050903 0.940369226038456
vt 0.6921467781066895 0.7822545766830444
vt 0.4920930862426758 0.6944631040096283
vt 0.33350929617881775 0.7818700075149536
vt 0.33514687418937683 0.7773134261369705
vt 0.5173944234848022 0.9981995350681245
vt 0.34919917583465576 0.31524378061294556
vt 0.2942585051059723 0.38734298944473267
vt 0.25003206729888916 0.23474544286727905
vt 0.15847451984882355 0.3580165505409241
vt 0.1474803388118744 0.24926847219467163
vt 0.25003206729888916 0.23474544286727905
vt 0.37966418266296387 0.1392856240272522
vt 0.34919917583465576 0.31524378061294556
vt 0.45552852749824524 0.33166342973709106
vt 0.4563310444355011 0.1835499405860901
vt 0.2942585051059723 0.38734298944473267
vt 0.34919917583465576 0.31524378061294556
vt 0.34351736307144165 0.4425066113471985
vt 0.4554947018623352 0.37785589694976807
vt 0.45552852749824524 0.33166342973709106
vt 0.07865872979164124 0.6752268373966217
vt 0.20829086005687714 0.4973489046096802
vt 0.30936115980148315 0.7068317830562592
vt 0.17758037149906158 0.8393059521913528
vt 0.32620617747306824 0.5560632050037384
vt 0.31084248423576355 0.4973489046096802
vt 0.753919243812561 0.0979270339012146
vt 0.8626669049263 0.0979270339012146
vt 0.730644941329956 0.15664130449295044
vt 0.920819103717804 0.16200244426727295
vt 0.883004367351532 0.37789154052734375
vt 0.8768008947372437 0.38244807720184326
vt 0.15847451984882355 0.3580165505409241
vt 0.2942585051059723 0.38734298944473267
vt 0.1501549929380417 0.4161686301231384
vt 0.25544100999832153 0.49335718154907227
vt 0.34351736307144165 0.4425066113471985
vt 0.5801694393157959 0.5449386239051819
vt 0.6921467781066895 0.7822545766830444
vt 0.4920930862426758 0.6196216344833374
vt 0.4920930862426758 0.6944631040096283
vt 0.6921467781066895 0.5776291787624359
vt 0.46246638894081116 0.1746010184288025
vt 0.6567726135253906 0.31799012422561646
vt 0.6105796694755554 0.5409468710422516
vt 0.6567726135253906 0.522615522146225
vt 0.46246638894081116 0.4090896248817444
vt 0.17758037149906158 0.9981995350681245
vt 0.0019920843187719584 0.925643689930439
vt 0.07865872979164124 0.6752268373966217
vt 0.0019920843187719584 0.6911546289920807
vt 0.17758037149906158 0.8393059521913528
vt 0.17758037149906158 0.9981995350681245
vt 0.17758037149906158 0.8393059521913528
vt 0.30936115980148315 0.940369226038456
vt 0.30936115980148315 0.7068317830562592
vt 0.6629079580307007 0.3074098825454712
vt 0.8768008947372437 0.38244807720184326
vt 0.6629079580307007 0.5409473180770874
vt 0.730644941329956 0.15664130449295044
vt 0.883004367351532 0.37789154052734375
vt 0.920819103717804 0.16200244426727295
vt 0.9980079531669617 0.22019970417022705
vt 0.9980079531669617 0.29504120349884033

g equalizer_crystal_0014_shard_002
s 1
usemtl equalizer_crystal_0014_shard_002
f 1/1/1 2/2/2 3/3/3 
f 3/3/3 2/2/2 4/4/4 
f 5/5/5 4/4/4 2/2/2 
f 4/4/4 5/5/5 6/6/6 
f 1/1/1 7/7/7 2/2/2 
f 8/8/8 9/9/9 10/10/10 
f 9/9/9 11/11/11 10/10/10 
f 10/10/10 11/11/11 12/12/12 
f 13/13/13 14/14/14 15/15/15 
f 15/15/15 14/14/14 16/16/16 
f 16/16/16 14/14/14 17/17/17 
f 18/18/18 19/19/19 20/20/20 
f 20/20/20 19/19/19 21/21/21 
f 21/21/21 19/19/19 22/22/22 
f 23/23/23 24/24/24 25/25/25 
f 26/26/26 23/23/23 25/25/25 
f 25/25/25 24/24/24 27/27/27 
f 28/28/28 27/27/27 24/24/24 
f 29/29/29 30/30/30 31/31/31 
f 32/32/32 31/31/31 30/30/30 
f 33/33/33 31/31/31 32/32/32 
f 34/34/34 31/31/31 33/33/33 
f 35/35/35 36/36/36 37/37/37 
f 37/37/37 36/36/36 38/38/38 
f 39/39/39 38/38/38 36/36/36 
f 40/40/40 41/41/41 42/42/42 
f 41/41/41 43/43/43 42/42/42 
f 40/40/40 44/44/44 41/41/41 
f 45/45/45 46/46/46 47/47/47 
f 46/46/46 48/48/48 47/47/47 
f 47/47/47 49/49/49 45/45/45 
f 50/50/50 51/51/51 52/52/52 
f 51/51/51 53/53/53 52/52/52 
f 52/52/52 54/54/54 50/50/50 
f 55/55/55 56/56/56 57/57/57 
f 58/58/58 57/57/57 56/56/56 
f 59/59/59 60/60/60 61/61/61 
f 60/60/60 59/59/59 62/62/62 
f 63/63/63 64/64/64 65/65/65 
f 63/63/63 65/65/65 66/66/66 

