v -1.0085195302963257 -3.88321590423584 0.0
v 0.2535838186740875 -4.035686016082764 0.8734033107757568
v -0.5042599439620972 -4.18839693069458 0.8734033107757568
v -0.5042599439620972 -3.3748083114624023 -0.8734033107757568
v 0.5042593479156494 -3.1715855598449707 -0.8734033107757568
v 1.0085195302963257 -3.4767675399780273 0.0
v -1.0085195302963257 3.658655881881714 0.0
v -0.7694143652915955 4.013646125793457 0.41414549946784973
v -0.5747091770172119 4.18839693069458 0.07862304151058197
v -0.46244016289711 4.18839693069458 -0.7078320384025574
v -0.5372500419616699 4.080926418304443 -0.8162597417831421
v -0.5747091770172119 4.18839693069458 0.07862304151058197
v 0.3714587390422821 4.074334621429443 -0.4992431402206421
v -0.46244016289711 4.18839693069458 -0.7078320384025574
v 0.09870460629463196 4.135740756988525 -0.8734033107757568
v 0.3714587390422821 4.074334621429443 -0.8734033107757568
v -0.5747091770172119 4.18839693069458 0.07862304151058197
v -0.7694143652915955 4.013646125793457 0.41414549946784973
v 0.2535838186740875 2.8982653617858887 0.8734033107757568
v 0.3714587390422821 4.074334621429443 -0.4992431402206421
v 1.0046298503875732 3.181072950363159 0.00673828087747097
v -0.5042599439620972 3.4131970405578613 0.8734033107757568
v 0.09870460629463196 4.135740756988525 -0.8734033107757568
v -0.5042599439620972 4.036239147186279 -0.8734033107757568
v -0.5372500419616699 4.080926418304443 -0.8162597417831421
v -0.46244016289711 4.18839693069458 -0.7078320384025574
v 0.5042593479156494 3.8869810104370117 -0.8734033107757568
v 0.3714587390422821 4.074334621429443 -0.4992431402206421
v 1.0046298503875732 3.181072950363159 0.00673828087747097
v 0.3714587390422821 4.074334621429443 -0.8734033107757568
v 1.0085195302963257 3.175584554672241 0.0
v -0.7694143652915955 4.013646125793457 0.41414549946784973
v -1.0085195302963257 3.658655881881714 0.0
v -0.5042599439620972 3.4131970405578613 0.8734033107757568
v -1.0085195302963257 -3.88321590423584 0.0
v -0.5042599439620972 -4.18839693069458 0.8734033107757568
v -0.5042599439620972 4.036239147186279 -0.8734033107757568
v -1.0085195302963257 3.658655881881714 0.0
v -0.5372500419616699 4.080926418304443 -0.8162597417831421
v -0.5042599439620972 -3.3748083114624023 -0.8734033107757568
v -1.0085195302963257 -3.88321590423584 0.0
v 1.0085195302963257 3.175584554672241 0.0
v 1.0046298503875732 3.181072950363159 0.00673828087747097
v 1.0085195302963257 -3.4767675399780273 0.0
v 1.0085195302963257 -3.4767675399780273 0.0
v 1.0046298503875732 3.181072950363159 0.00673828087747097
v 0.2535838186740875 2.8982653617858887 0.8734033107757568
v 0.2535838186740875 -4.035686016082764 0.8734033107757568
v 0.2535838186740875 2.8982653617858887 0.8734033107757568
v -0.5042599439620972 3.4131970405578613 0.8734033107757568
v -0.5042599439620972 -4.18839693069458 0.8734033107757568
v 0.2535838186740875 -4.035686016082764 0.8734033107757568
v -0.5042599439620972 4.036239147186279 -0.8734033107757568
v 0.09870460629463196 4.135740756988525 -0.8734033107757568
v -0.5042599439620972 -3.3748083114624023 -0.8734033107757568
v 0.3714587390422821 4.074334621429443 -0.8734033107757568
v 0.5042593479156494 -3.1715855598449707 -0.8734033107757568
v 0.5042593479156494 3.8869810104370117 -0.8734033107757568
v 1.0085195302963257 3.175584554672241 0.0
v 1.0085195302963257 -3.4767675399780273 0.0
v 0.5042593479156494 -3.1715855598449707 -0.8734033107757568
v 0.5042593479156494 3.8869810104370117 -0.8734033107757568
vn 0.1796928346157074 -0.8917428255081177 -0.41533735394477844
vn 0.1796928346157074 -0.8917428255081177 -0.41533735394477844
vn 0.1796928346157074 -0.8917428255081177 -0.41533738374710083
vn 0.1796916425228119 -0.8917436003684998 -0.4153364598751068
vn 0.1796916425228119 -0.8917436003684998 -0.4153364598751068
vn 0.17969243228435516 -0.8917436003684998 -0.4153359830379486
vn -0.7611350417137146 0.6394274830818176 -0.10865543782711029
vn -0.7611349821090698 0.6394274234771729 -0.1086554303765297
vn -0.7611349821090698 0.6394274830818176 -0.10865545272827148
vn -0.7611350417137146 0.6394274234771729 -0.10865543782711029
vn -0.7611310482025146 0.6394335627555847 -0.10864729434251785
vn 0.1309066116809845 0.9912185072898865 0.018688172101974487
vn 0.1309065967798233 0.9912185072898865 0.018688170239329338
vn 0.1309065967798233 0.9912185072898865 0.018688170239329338
vn 0.14613384008407593 0.9877029061317444 0.05556826665997505
vn 0.14613382518291473 0.9877029061317444 0.055568255484104156
vn 0.4481107294559479 0.659501850605011 0.6035345792770386
vn 0.4481107294559479 0.659501850605011 0.6035345792770386
vn 0.4481107294559479 0.659501850605011 0.6035345196723938
vn 0.4481107294559479 0.659501850605011 0.6035346388816833
vn 0.44810980558395386 0.6595021486282349 0.603534996509552
vn 0.4481097161769867 0.6594994068145752 0.6035380363464355
vn -0.12310747057199478 0.7460035085678101 -0.6544641852378845
vn -0.12310744822025299 0.7460035085678101 -0.6544641256332397
vn -0.12310747057199478 0.7460035085678101 -0.6544641852378845
vn -0.12310747057199478 0.7460035085678101 -0.6544641852378845
vn 0.8158337473869324 0.5782866477966309 -2.9712816740357084e-06
vn 0.8158337473869324 0.5782866477966309 -2.9712821287830593e-06
vn 0.8158337473869324 0.5782865881919861 -2.9712816740357084e-06
vn 0.81583571434021 0.5782836675643921 0.0
vn 0.8158539533615112 0.5782580375671387 0.0
vn -0.8660258650779724 -3.2867321806406835e-06 0.49999913573265076
vn -0.8660258650779724 -3.2867326353880344e-06 0.49999916553497314
vn -0.866025984287262 -3.2867326353880344e-06 0.49999913573265076
vn -0.866025447845459 0.0 0.4999999701976776
vn -0.866025447845459 0.0 0.49999991059303284
vn -0.8660292625427246 2.2327103579300456e-05 -0.4999931752681732
vn -0.8660292625427246 2.2327103579300456e-05 -0.4999931752681732
vn -0.8660293817520142 2.2327109036268666e-05 -0.4999932050704956
vn -0.866025447845459 0.0 -0.4999999701976776
vn -0.866025447845459 0.0 -0.4999999701976776
vn 0.8660576343536377 0.0 0.499944269657135
vn 0.8660576343536377 0.0 0.499944269657135
vn 0.8660576343536377 0.0 0.4999443292617798
vn 0.7561615109443665 -0.00010801896860357374 0.6543849110603333
vn 0.7561615109443665 -0.00010801897587953135 0.6543849110603333
vn 0.7561614513397217 -0.00010801898315548897 0.6543850302696228
vn 0.7561615109443665 -0.00010801896860357374 0.6543850302696228
vn 0.0 0.0 1.0
vn 0.0 0.0 1.0
vn 0.0 0.0 1.0
vn 0.0 0.0 1.0
vn 0.0 0.0 -1.0
vn 0.0 0.0 -1.0
vn 0.0 0.0 -1.0
vn 1.6586703566190408e-07 0.0 -1.0
vn 1.6586706408361351e-07 0.0 -1.0
vn -2.083595660451465e-07 0.0 -1.0
vn 0.8660250902175903 0.0 -0.500000536441803
vn 0.8660251498222351 0.0 -0.5000004768371582
vn 0.8660251498222351 0.0 -0.5000004172325134
vn 0.8660251498222351 0.0 -0.5000004768371582
vt 0.8936378955841064 0.7529995143413544
vt 0.9980079531669617 0.6021804809570312
vt 0.9980079531669617 0.6927414834499359
vt 0.7892677783966064 0.6927414834499359
vt 0.7892677783966064 0.5722252428531647
vt 0.8936378955841064 0.5119670927524567
vt 0.7633537650108337 0.9980237458366901
vt 0.7138643264770508 0.9694509133696556
vt 0.7539585828781128 0.9461841024458408
vt 0.8479384779930115 0.9327682554721832
vt 0.8608953356742859 0.9417078346014023
vt 0.7539585828781128 0.9461841024458408
vt 0.8230124115943909 0.8331187069416046
vt 0.8479384779930115 0.9327682554721832
vt 0.8677240014076233 0.8657124787569046
vt 0.8677240014076233 0.8331187069416046
vt 0.7539585828781128 0.9461841024458408
vt 0.7138643264770508 0.9694509133696556
vt 0.6589837670326233 0.847204715013504
vt 0.8230124115943909 0.8331187069416046
vt 0.7625486850738525 0.7574559897184372
vt 0.6589837670326233 0.9377655908465385
vt 0.8677240014076233 0.8657124787569046
vt 0.8677240014076233 0.9377655908465385
vt 0.8608953356742859 0.9417078346014023
vt 0.8479384779930115 0.9327682554721832
vt 0.8677240014076233 0.8172492831945419
vt 0.8230124115943909 0.8331187069416046
vt 0.7625486850738525 0.7574559897184372
vt 0.8677240014076233 0.8331187069416046
vt 0.7633537650108337 0.7569911330938339
vt 0.0568726621568203 0.01789456605911255
vt 0.10636211186647415 0.06031537055969238
vt 0.001992140430957079 0.08964729309082031
vt 0.10636211186647415 0.9615551866590977
vt 0.001992140430957079 0.9980237458366901
vt 0.2107323259115219 0.015194892883300781
vt 0.10636211186647415 0.06031537055969238
vt 0.2039036750793457 0.009854614734649658
vt 0.2107323259115219 0.9008011370897293
vt 0.10636211186647415 0.9615551866590977
vt 0.32289060950279236 0.13629019260406494
vt 0.3236958086490631 0.1356344223022461
vt 0.32289060950279236 0.9312338829040527
vt 0.32289060950279236 0.9312338829040527
vt 0.3236958086490631 0.1356344223022461
vt 0.42726072669029236 0.1694292426109314
vt 0.42726072669029236 0.9980237458366901
vt 0.4348542392253876 0.15118050575256348
vt 0.5254152417182922 0.08964729309082031
vt 0.5254152417182922 0.9980237458366901
vt 0.4348542392253876 0.9797750450670719
vt 0.6528181433677673 0.9861334711313248
vt 0.5807649493217468 0.9980237458366901
vt 0.6528181433677673 0.10052722692489624
vt 0.5481712818145752 0.990685747936368
vt 0.5323019027709961 0.12481170892715454
vt 0.5323019027709961 0.9682973250746727
vt 0.32289060950279236 0.13629019260406494
vt 0.32289060950279236 0.9312338829040527
vt 0.21852052211761475 0.894765317440033
vt 0.21852052211761475 0.05127972364425659

g equalizer_crystal_002_shard_002
s 1
usemtl equalizer_crystal_002_shard_002
f 1/1/1 2/2/2 3/3/3 
f 2/2/2 1/1/1 4/4/4 
f 5/5/5 2/2/2 4/4/4 
f 2/2/2 5/5/5 6/6/6 
f 7/7/7 8/8/8 9/9/9 
f 7/7/7 9/9/9 10/10/10 
f 11/11/11 7/7/7 10/10/10 
f 12/12/12 13/13/13 14/14/14 
f 13/13/13 15/15/15 14/14/14 
f 13/13/13 16/16/16 15/15/15 
f 17/17/17 18/18/18 19/19/19 
f 17/17/17 19/19/19 20/20/20 
f 21/21/21 20/20/20 19/19/19 
f 19/19/19 18/18/18 22/22/22 
f 23/23/23 24/24/24 25/25/25 
f 23/23/23 25/25/25 26/26/26 
f 27/27/27 28/28/28 29/29/29 
f 30/30/30 28/28/28 27/27/27 
f 31/31/31 27/27/27 29/29/29 
f 32/32/32 33/33/33 34/34/34 
f 34/34/34 33/33/33 35/35/35 
f 34/34/34 35/35/35 36/36/36 
f 37/37/37 38/38/38 39/39/39 
f 38/38/38 37/37/37 40/40/40 
f 38/38/38 40/40/40 41/41/41 
f 42/42/42 43/43/43 44/44/44 
f 45/45/45 46/46/46 47/47/47 
f 45/45/45 47/47/47 48/48/48 
f 49/49/49 50/50/50 51/51/51 
f 49/49/49 51/51/51 52/52/52 
f 53/53/53 54/54/54 55/55/55 
f 56/56/56 55/55/55 54/54/54 
f 56/56/56 57/57/57 55/55/55 
f 56/56/56 58/58/58 57/57/57 
f 59/59/59 60/60/60 61/61/61 
f 59/59/59 61/61/61 62/62/62 

