v 0.20630308985710144 0.0 -0.8033565282821655
v -0.6923143863677979 0.0 -0.8054180145263672
v -0.6923143863677979 5.57609748840332 -0.8054180145263672
v 0.003416213905438781 7.001336574554443 -0.8034706711769104
v 0.20630308985710144 7.001336574554443 -0.8033565282821655
v 0.6981931328773499 6.739489555358887 0.09554305672645569
v 0.6981931328773499 0.0 0.09554305672645569
v 0.20630308985710144 0.0 -0.8033565282821655
v 0.20630308985710144 7.001336574554443 -0.8033565282821655
v 0.3778114318847656 7.001336574554443 -0.486855149269104
v -0.0452895350754261 7.001336574554443 -0.05137496814131737
v 0.3778114318847656 7.001336574554443 -0.486855149269104
v 0.20630308985710144 7.001336574554443 -0.8033565282821655
v 0.003416213905438781 7.001336574554443 -0.8034706711769104
v -0.10887596011161804 6.922879695892334 0.2873786985874176
v -0.0452895350754261 7.001336574554443 -0.05137496814131737
v 0.003416213905438781 7.001336574554443 -0.8034706711769104
v -0.6923143863677979 5.57609748840332 -0.8054180145263672
v 0.3402794599533081 0.0 0.7154673337936401
v 0.6981931328773499 0.0 0.09554305672645569
v 0.6981931328773499 6.739489555358887 0.09554305672645569
v 0.3402794599533081 6.667281150817871 0.7154673337936401
v 0.3402794599533081 6.667281150817871 0.7154673337936401
v 0.17978133261203766 6.694068431854248 0.7873478531837463
v 0.17978133261203766 0.0 0.7873478531837463
v 0.3402794599533081 0.0 0.7154673337936401
v 0.6981931328773499 6.739489555358887 0.09554305672645569
v 0.3778114318847656 7.001336574554443 -0.486855149269104
v -0.0452895350754261 7.001336574554443 -0.05137496814131737
v -0.10887596011161804 6.922879695892334 0.2873786985874176
v 0.3402794599533081 6.667281150817871 0.7154673337936401
v 0.17978133261203766 6.694068431854248 0.7873478531837463
v -0.6923143863677979 5.57609748840332 -0.8054180145263672
v -0.6923143863677979 0.0 -0.8054180145263672
v 0.17978133261203766 0.0 0.7873478531837463
v 0.17978133261203766 6.694068431854248 0.7873478531837463
v -0.10887596011161804 6.922879695892334 0.2873786985874176
vn 0.002250842284411192 2.7233696528128348e-05 -0.9999974966049194
vn 0.002250842284411192 2.7233696528128348e-05 -0.9999974966049194
vn 0.002250842284411192 2.7233694709138945e-05 -0.9999974966049194
vn 0.002250842284411192 2.7233694709138945e-05 -0.9999974966049194
vn 0.002250842284411192 2.7233696528128348e-05 -0.9999974966049194
vn 0.8772592544555664 0.00010690043563954532 -0.48001694679260254
vn 0.8772592544555664 0.00010690042108763009 -0.48001694679260254
vn 0.8772592544555664 0.00010690042108763009 -0.48001694679260254
vn 0.8772592544555664 0.00010690042108763009 -0.48001694679260254
vn 0.8772592544555664 0.00010690042108763009 -0.48001694679260254
vn 0.0 1.0 0.0
vn 0.0 1.0 0.0
vn 0.0 1.0 0.0
vn 0.0 1.0 0.0
vn -0.8964052796363831 0.4390597343444824 -0.06069783493876457
vn -0.8964051604270935 0.43905970454216003 -0.06069783493876457
vn -0.8964052796363831 0.4390597343444824 -0.06069783493876457
vn -0.8964051604270935 0.43905970454216003 -0.060697827488183975
vn 0.8660252690315247 0.0 0.5000002980232239
vn 0.8660252690315247 0.0 0.5000002980232239
vn 0.8660252690315247 0.0 0.5000003576278687
vn 0.8660252690315247 0.0 0.5000002980232239
vn 0.4087385833263397 0.0 0.9126514792442322
vn 0.4087385833263397 0.0 0.9126514792442322
vn 0.4087386131286621 0.0 0.9126514792442322
vn 0.4087386131286621 0.0 0.9126514792442322
vn 0.27319031953811646 0.9246171116828918 0.26542481780052185
vn 0.27319028973579407 0.9246171116828918 0.26542481780052185
vn 0.27319028973579407 0.9246171116828918 0.26542481780052185
vn 0.27319028973579407 0.9246171116828918 0.26542481780052185
vn 0.27319028973579407 0.9246171116828918 0.26542481780052185
vn 0.27319031953811646 0.9246171116828918 0.26542484760284424
vn -0.876825749874115 -0.0010171642061322927 0.48080721497535706
vn -0.876825749874115 -0.0010171642061322927 0.48080721497535706
vn -0.876825749874115 -0.0010171642061322927 0.48080721497535706
vn -0.876825749874115 -0.001017164089716971 0.48080721497535706
vn -0.876825749874115 -0.001017164089716971 0.48080721497535706
vt 0.46394792199134827 0.9999418556690216
vt 0.4137241542339325 0.9999418556690216
vt 0.4139459431171417 0.6892819106578827
vt 0.4521094262599945 0.6175702810287476
vt 0.46418723464012146 0.6175756454467773
vt 0.2719830572605133 0.6314090490341187
vt 0.2710787355899811 0.9999418556690216
vt 0.21873566508293152 0.9999418556690216
vt 0.21961984038352966 0.6169756352901459
vt 0.23584017157554626 0.6170129776000977
vt 0.28829923272132874 0.5915347933769226
vt 0.25697627663612366 0.5964232981204987
vt 0.25012072920799255 0.581970751285553
vt 0.2572842538356781 0.5723039209842682
vt 0.35037145018577576 0.6215669810771942
vt 0.3692931830883026 0.6141783595085144
vt 0.40572187304496765 0.6093645095825195
vt 0.4139459431171417 0.6892819106578827
vt 0.31133100390434265 0.9999418556690216
vt 0.2710787355899811 0.9999418556690216
vt 0.2719830572605133 0.6314090490341187
vt 0.3120889365673065 0.6355523467063904
vt 0.3120889365673065 0.6355523467063904
vt 0.3220321834087372 0.632644921541214
vt 0.32124045491218567 0.9999418556690216
vt 0.31133100390434265 0.9999418556690216
vt 0.2719830572605133 0.6314090490341187
vt 0.25697627663612366 0.5964232981204987
vt 0.28829923272132874 0.5915347933769226
vt 0.30505135655403137 0.5999218225479126
vt 0.3120889365673065 0.6355523467063904
vt 0.31724485754966736 0.6269252300262451
vt 0.4139459431171417 0.6892819106578827
vt 0.4137241542339325 0.9999418556690216
vt 0.32124045491218567 0.9999418556690216
vt 0.3220321834087372 0.632644921541214
vt 0.35037145018577576 0.6215669810771942

g equalizer_crystal_0023
s 1
usemtl equalizer_crystal_0023
f 1/1/1 2/2/2 3/3/3 
f 3/3/3 4/4/4 1/1/1 
f 4/4/4 5/5/5 1/1/1 
f 6/6/6 7/7/7 8/8/8 
f 8/8/8 9/9/9 6/6/6 
f 9/9/9 10/10/10 6/6/6 
f 11/11/11 12/12/12 13/13/13 
f 11/11/11 13/13/13 14/14/14 
f 15/15/15 16/16/16 17/17/17 
f 15/15/15 17/17/17 18/18/18 
f 19/19/19 20/20/20 21/21/21 
f 19/19/19 21/21/21 22/22/22 
f 23/23/23 24/24/24 25/25/25 
f 23/23/23 25/25/25 26/26/26 
f 27/27/27 28/28/28 29/29/29 
f 29/29/29 30/30/30 27/27/27 
f 30/30/30 31/31/31 27/27/27 
f 30/30/30 32/32/32 31/31/31 
f 33/33/33 34/34/34 35/35/35 
f 35/35/35 36/36/36 33/33/33 
f 36/36/36 37/37/37 33/33/33 

