v -0.25582489371299744 -1.016295313835144 0.2629491984844208
v -0.14071379601955414 0.879090428352356 -0.5252745151519775
v 0.1786309778690338 0.8083766102790833 0.06151366978883743
v 0.25582489371299744 0.3080061376094818 0.46553710103034973
v 0.22133514285087585 0.08113601803779602 0.5252734422683716
v -0.07966003566980362 1.0049961805343628 -0.4839707911014557
v -0.25582489371299744 0.29757949709892273 0.2629491984844208
v -0.06750121712684631 0.3769373893737793 0.3645263612270355
v -0.14719237387180328 0.9491487145423889 -0.48397597670555115
v -0.07966003566980362 1.0049961805343628 -0.4839707911014557
v 0.1786309778690338 0.8083766102790833 0.06151366978883743
v 0.1786309778690338 0.8083766102790833 0.06151366978883743
v -0.06750121712684631 0.3769373893737793 0.3645263612270355
v 0.25582489371299744 0.3080061376094818 0.46553710103034973
v 0.22133514285087585 0.22554275393486023 0.5252734422683716
v 0.25582489371299744 0.3080061376094818 0.46553710103034973
v 0.22133514285087585 0.22554275393486023 0.5252734422683716
v 0.22133514285087585 0.08113601803779602 0.5252734422683716
v -0.25582489371299744 -1.016295313835144 0.2629491984844208
v 0.22133514285087585 0.08113601803779602 0.5252734422683716
v -0.06750121712684631 0.3769373893737793 0.3645263612270355
v 0.22133514285087585 0.22554275393486023 0.5252734422683716
v -0.25582489371299744 0.29757949709892273 0.2629491984844208
v -0.14071379601955414 0.879090428352356 -0.5252745151519775
v -0.25582489371299744 -1.016295313835144 0.2629491984844208
v -0.25582489371299744 0.29757949709892273 0.2629491984844208
v -0.14719237387180328 0.9491487145423889 -0.48397597670555115
v -0.07966003566980362 1.0049961805343628 -0.4839707911014557
v -0.14071379601955414 0.879090428352356 -0.5252745151519775
v -0.14719237387180328 0.9491487145423889 -0.48397597670555115
vn 0.8366891741752625 -0.2528478503227234 -0.48581796884536743
vn 0.8366892337799072 -0.2528478503227234 -0.48581790924072266
vn 0.8366892337799072 -0.2528478801250458 -0.48581793904304504
vn 0.8430469632148743 -0.2531190812587738 -0.474555104970932
vn 0.8430451154708862 -0.2531181871891022 -0.47455888986587524
vn 0.8383052349090576 -0.24707435071468353 -0.48600271344184875
vn -0.5514075756072998 0.6667307019233704 0.501417875289917
vn -0.5514075756072998 0.6667307019233704 0.501417875289917
vn -0.551407516002655 0.6667307019233704 0.5014178156852722
vn -0.551408052444458 0.6667302250862122 0.5014180541038513
vn -0.5514052510261536 0.6667325496673584 0.5014181137084961
vn -0.11334659159183502 0.6135308146476746 0.7814937829971313
vn -0.11334658414125443 0.6135308146476746 0.7814936637878418
vn -0.11334658414125443 0.6135308146476746 0.7814936637878418
vn -0.11334895342588425 0.6135239601135254 0.7814987897872925
vn 0.8660191893577576 0.0 0.5000107884407043
vn 0.8660191893577576 0.0 0.5000107288360596
vn 0.8660191893577576 0.0 0.5000107884407043
vn -0.48490098118782043 0.0017818796914070845 0.8745672702789307
vn -0.4849010109901428 0.00178188004065305 0.8745672106742859
vn -0.4849010109901428 0.00178188004065305 0.8745672106742859
vn -0.4862961769104004 0.0 0.8737940192222595
vn -0.4747235178947449 0.0 0.8801349997520447
vn -0.9895039796829224 0.0 -0.14450585842132568
vn -0.9895039796829224 0.0 -0.1445058286190033
vn -0.9895039796829224 0.0 -0.1445058435201645
vn -0.9890249371528625 -0.004400943405926228 -0.14768271148204803
vn -0.36909788846969604 0.4463944435119629 -0.8151679635047913
vn -0.36909788846969604 0.4463944137096405 -0.8151679635047913
vn -0.36909785866737366 0.44639450311660767 -0.8151679635047913
vt 0.32322999835014343 0.9982874973211437
vt 0.001992154633626342 0.2258296012878418
vt 0.24113571643829346 0.25464874505996704
vt 0.4057939648628235 0.45857322216033936
vt 0.43013909459114075 0.5510329604148865
vt 0.01882544346153736 0.1745174527168274
vt 0.64532470703125 0.46282219886779785
vt 0.5685738325119019 0.4304805397987366
vt 0.6010517477989197 0.19727760553359985
vt 0.5735291838645935 0.1745174527168274
vt 0.4682638347148895 0.25464874505996704
vt 0.4682638347148895 0.25464874505996704
vt 0.5685738325119019 0.4304805397987366
vt 0.4368036389350891 0.45857322216033936
vt 0.45085999369621277 0.49218064546585083
vt 0.4057939648628235 0.45857322216033936
vt 0.43013909459114075 0.49218064546585083
vt 0.43013909459114075 0.5510329604148865
vt 0.64532470703125 0.9982874973211437
vt 0.45085999369621277 0.5510329604148865
vt 0.5685738325119019 0.4304805397987366
vt 0.45085999369621277 0.49218064546585083
vt 0.64532470703125 0.46282219886779785
vt 0.9743744730949402 0.2258296012878418
vt 0.6531366109848022 0.9982874973211437
vt 0.6531366109848022 0.46282219886779785
vt 0.957543671131134 0.19727760553359985
vt 0.9704855680465698 0.1932857632637024
vt 0.9953679442405701 0.14197319746017456
vt 0.998008131980896 0.1705251932144165

g equalizer_crystal_0017_shard_002
s 1
usemtl equalizer_crystal_0017_shard_002
f 1/1/1 2/2/2 3/3/3 
f 1/1/1 3/3/3 4/4/4 
f 5/5/5 1/1/1 4/4/4 
f 3/3/3 2/2/2 6/6/6 
f 7/7/7 8/8/8 9/9/9 
f 9/9/9 8/8/8 10/10/10 
f 8/8/8 11/11/11 10/10/10 
f 12/12/12 13/13/13 14/14/14 
f 15/15/15 14/14/14 13/13/13 
f 16/16/16 17/17/17 18/18/18 
f 19/19/19 20/20/20 21/21/21 
f 21/21/21 20/20/20 22/22/22 
f 19/19/19 21/21/21 23/23/23 
f 24/24/24 25/25/25 26/26/26 
f 27/27/27 24/24/24 26/26/26 
f 28/28/28 29/29/29 30/30/30 

