v 0.6952539086341858 3.115712881088257 0.10458007454872131
v -0.6952539086341858 -0.5968987941741943 -0.7963818311691284
v 0.17684218287467957 1.7038512229919434 0.7963818311691284
v 0.20336395502090454 1.818029761314392 -0.7943212985992432
v 0.3373400866985321 2.137120246887207 0.72450190782547
v 0.6952539086341858 3.115712881088257 0.10458007454872131
v 0.20336395502090454 -3.115712881088257 -0.7943212985992432
v 0.20336395502090454 1.818029761314392 -0.7943212985992432
v 0.6952539086341858 -3.115712881088257 0.10458007454872131
v 0.20336395502090454 1.818029761314392 -0.7943212985992432
v 0.20336395502090454 -3.115712881088257 -0.7943212985992432
v -0.6952539086341858 -0.5968987941741943 -0.7963818311691284
v -0.6952539086341858 -3.115712881088257 -0.7963818311691284
v 0.17684218287467957 1.7038512229919434 0.7963818311691284
v -0.6952539086341858 -0.5968987941741943 -0.7963818311691284
v 0.17684218287467957 -3.115712881088257 0.7963818311691284
v -0.6952539086341858 -3.115712881088257 -0.7963818311691284
v 0.17684218287467957 -3.115712881088257 0.7963818311691284
v 0.3373400866985321 2.137120246887207 0.72450190782547
v 0.17684218287467957 1.7038512229919434 0.7963818311691284
v 0.3373400866985321 -3.115712881088257 0.72450190782547
v 0.3373400866985321 2.137120246887207 0.72450190782547
v 0.3373400866985321 -3.115712881088257 0.72450190782547
v 0.6952539086341858 -3.115712881088257 0.10458007454872131
v 0.6952539086341858 3.115712881088257 0.10458007454872131
v 0.20336395502090454 -3.115712881088257 -0.7943212985992432
v 0.6952539086341858 -3.115712881088257 0.10458007454872131
v 0.3373400866985321 -3.115712881088257 0.72450190782547
v 0.17684218287467957 -3.115712881088257 0.7963818311691284
v -0.6952539086341858 -3.115712881088257 -0.7963818311691284
vn -0.9371780157089233 0.34872469305992126 0.009405632503330708
vn -0.9371780157089233 0.3487247824668884 0.009405632503330708
vn -0.9371780157089233 0.34872475266456604 0.009405632503330708
vn -0.9371780157089233 0.3487248420715332 0.009405284188687801
vn -0.9371788501739502 0.3487224876880646 0.009402699768543243
vn 0.8772465586662292 0.0 -0.48004016280174255
vn 0.8772465586662292 0.0 -0.4800401031970978
vn 0.8772464990615845 0.0 -0.48004019260406494
vn 0.8772465586662292 0.0 -0.480040043592453
vn 0.0022928800899535418 0.0 -0.9999973773956299
vn 0.002292880555614829 0.0 -0.9999973773956299
vn 0.002292880555614829 0.0 -0.9999973773956299
vn 0.0022930563427507877 0.0 -0.9999973773956299
vn -0.8771267533302307 0.0 0.480258971452713
vn -0.8771267533302307 0.0 0.480258971452713
vn -0.8771267533302307 0.0 0.48025891184806824
vn -0.8771267533302307 0.0 0.4802587926387787
vn 0.4087349772453308 0.0 0.9126530885696411
vn 0.4087349772453308 0.0 0.9126532077789307
vn 0.4087349772453308 0.0 0.9126532077789307
vn 0.40873828530311584 0.0 0.9126517176628113
vn 0.866024374961853 0.0 0.500001847743988
vn 0.8660242557525635 0.0 0.5000019669532776
vn 0.866024374961853 0.0 0.5000019073486328
vn 0.8660242557525635 0.0 0.5000020861625671
vn 0.0 -1.0 0.0
vn 0.0 -1.0 0.0
vn 0.0 -1.0 0.0
vn 0.0 -1.0 0.0
vn 0.0 -1.0 0.0
vt 0.11240532994270325 0.00199204683303833
vt 0.25641295313835144 0.5954068601131439
vt 0.0018293821485713124 0.22766047716140747
vt 0.25608375668525696 0.20941048860549927
vt 0.013318594545125961 0.1584078073501587
vt 0.4061985909938812 0.00199204683303833
vt 0.262520432472229 0.9980078989174217
vt 0.262520432472229 0.20941048860549927
vt 0.4061985909938812 0.9980078989174217
vt 0.5448901057243347 0.9980078171938658
vt 0.5448901057243347 0.20941072702407837
vt 0.6885229349136353 0.61201211810112
vt 0.6885229349136353 0.20941072702407837
vt 0.0018293821485713124 0.22766047716140747
vt 0.25641295313835144 0.5954068601131439
vt 0.0018293821485713124 0.9980078989174217
vt 0.25641295313835144 0.9980078989174217
vt 0.5377525091171265 0.9980078989174217
vt 0.5120988488197327 0.1584078073501587
vt 0.5377525091171265 0.22766047716140747
vt 0.5120988488197327 0.9980078989174217
vt 0.5052854418754578 0.1584078073501587
vt 0.5052854418754578 0.9980078989174217
vt 0.4061985909938812 0.9980078989174217
vt 0.4061985909938812 0.00199204683303833
vt 0.7728953957557678 0.9976785383187234
vt 0.6942728161811829 0.8540003597736359
vt 0.7514809370040894 0.7549135386943817
vt 0.7771345973014832 0.7434245049953461
vt 0.9165282249450684 0.9980078989174217

g equalizer_crystal_0023_shard_002
s 1
usemtl equalizer_crystal_0023_shard_002
f 1/1/1 2/2/2 3/3/3 
f 4/4/4 2/2/2 1/1/1 
f 1/1/1 3/3/3 5/5/5 
f 6/6/6 7/7/7 8/8/8 
f 6/6/6 9/9/9 7/7/7 
f 10/10/10 11/11/11 12/12/12 
f 12/12/12 11/11/11 13/13/13 
f 14/14/14 15/15/15 16/16/16 
f 16/16/16 15/15/15 17/17/17 
f 18/18/18 19/19/19 20/20/20 
f 19/19/19 18/18/18 21/21/21 
f 22/22/22 23/23/23 24/24/24 
f 25/25/25 22/22/22 24/24/24 
f 26/26/26 27/27/27 28/28/28 
f 26/26/26 28/28/28 29/29/29 
f 26/26/26 29/29/29 30/30/30 

