v 0.4290984869003296 -1.8325676918029785 -0.8305590748786926
v 0.942045271396637 -1.1635626554489136 0.07979736477136612
v 0.3611688017845154 -0.38736021518707275 0.8305590748786926
v -0.6161169409751892 -0.213947132229805 0.7781420946121216
v -0.4985842704772949 -1.5695574283599854 -0.7660131454467773
v -0.942045271396637 -0.8091570734977722 0.0020825194660574198
v 0.4290984869003296 1.5855278968811035 -0.8305590748786926
v -0.49858397245407104 1.1899713277816772 -0.7660131454467773
v -0.6161169409751892 1.1858397722244263 0.7781420946121216
v 0.3611688017845154 1.6061517000198364 0.8305590748786926
v -0.942045271396637 1.0229547023773193 0.0020825194660574198
v 0.942045271396637 1.8325676918029785 0.07979736477136612
v 0.3611688017845154 1.6061517000198364 0.8305590748786926
v -0.6161169409751892 1.1858397722244263 0.7781420946121216
v 0.3611688017845154 -0.38736021518707275 0.8305590748786926
v -0.6161169409751892 -0.213947132229805 0.7781420946121216
v -0.942045271396637 -0.8091570734977722 0.0020825194660574198
v -0.6161169409751892 -0.213947132229805 0.7781420946121216
v -0.942045271396637 1.0229547023773193 0.0020825194660574198
v -0.6161169409751892 1.1858397722244263 0.7781420946121216
v -0.4985842704772949 -1.5695574283599854 -0.7660131454467773
v -0.942045271396637 -0.8091570734977722 0.0020825194660574198
v -0.49858397245407104 1.1899713277816772 -0.7660131454467773
v -0.942045271396637 1.0229547023773193 0.0020825194660574198
v -0.4985842704772949 -1.5695574283599854 -0.7660131454467773
v -0.49858397245407104 1.1899713277816772 -0.7660131454467773
v 0.4290984869003296 -1.8325676918029785 -0.8305590748786926
v 0.4290984869003296 1.5855278968811035 -0.8305590748786926
v 0.4290984869003296 -1.8325676918029785 -0.8305590748786926
v 0.4290984869003296 1.5855278968811035 -0.8305590748786926
v 0.942045271396637 -1.1635626554489136 0.07979736477136612
v 0.942045271396637 1.8325676918029785 0.07979736477136612
v 0.942045271396637 -1.1635626554489136 0.07979736477136612
v 0.942045271396637 1.8325676918029785 0.07979736477136612
v 0.3611688017845154 -0.38736021518707275 0.8305590748786926
v 0.3611688017845154 1.6061517000198364 0.8305590748786926
vn -0.16708138585090637 -0.7472036480903625 0.6432499885559082
vn -0.16708140075206757 -0.747203528881073 0.643250048160553
vn -0.16708138585090637 -0.7472036480903625 0.6432499885559082
vn -0.16708596050739288 -0.7472026348114014 0.6432498693466187
vn -0.16708597540855408 -0.7472026348114014 0.6432498693466187
vn -0.16708514094352722 -0.7472031712532043 0.64324951171875
vn -0.39369550347328186 0.9188292622566223 -0.02750837616622448
vn -0.39369550347328186 0.9188292622566223 -0.02750837616622448
vn -0.39369550347328186 0.9188292622566223 -0.02750837616622448
vn -0.3936956524848938 0.9188291430473328 -0.02750624343752861
vn -0.39369454979896545 0.9188296794891357 -0.02750794030725956
vn -0.3936968147754669 0.9188286662101746 -0.027507545426487923
vn -0.053558349609375 0.0 0.9985647797584534
vn -0.0535583421587944 0.0 0.9985647797584534
vn -0.0535583458840847 0.0 0.9985647797584534
vn -0.05355820804834366 0.0 0.9985647797584534
vn -0.9219890832901001 0.0 0.387215793132782
vn -0.9219890832901001 0.0 0.38721585273742676
vn -0.9219890832901001 0.0 0.387215793132782
vn -0.9219890832901001 0.0 0.38721588253974915
vn -0.8660249710083008 1.596026777406223e-07 -0.5000006556510925
vn -0.8660249710083008 1.596026635297676e-07 -0.5000006556510925
vn -0.8660250902175903 1.596026635297676e-07 -0.5000007152557373
vn -0.866024911403656 0.0 -0.5000008344650269
vn -0.0694098025560379 0.0 -0.9975882768630981
vn -0.0694098025560379 0.0 -0.9975882768630981
vn -0.0694098100066185 0.0 -0.9975882768630981
vn -0.06940983980894089 0.0 -0.9975882768630981
vn 0.8712189793586731 0.0 -0.4908944368362427
vn 0.8712189793586731 0.0 -0.4908944368362427
vn 0.8712189793586731 0.0 -0.4908944368362427
vn 0.8712189793586731 0.0 -0.4908945560455322
vn 0.7909064888954163 0.0 0.6119371056556702
vn 0.7909064888954163 0.0 0.6119371056556702
vn 0.7909064888954163 0.0 0.6119371056556702
vn 0.7909064888954163 0.0 0.6119371056556702
vt 0.08412573486566544 0.9980078861117363
vt 0.0017076904186978936 0.8905149102210999
vt 0.0950404554605484 0.7657981365919113
vt 0.25206664204597473 0.7379348278045654
vt 0.23318198323249817 0.9557485841214657
vt 0.3044353723526001 0.833570584654808
vt 0.6021686792373657 0.18537825345993042
vt 0.5917976498603821 0.33443450927734375
vt 0.3436894118785858 0.3533191680908203
vt 0.3352671265602112 0.19629311561584473
vt 0.4683835208415985 0.4056878685951233
vt 0.4558964967727661 0.10296022891998291
vt 0.0950404554605484 0.4454891085624695
vt 0.25206664204597473 0.5130229592323303
vt 0.0950404554605484 0.7657981365919113
vt 0.25206664204597473 0.7379348278045654
vt 0.7321222424507141 0.32320332527160645
vt 0.6074281334877014 0.22756755352020264
vt 0.7321222424507141 0.028827428817749023
vt 0.6074281334877014 0.0026556849479675293
vt 0.8555363416671753 0.4453812837600708
vt 0.7321222424507141 0.32320332527160645
vt 0.8555363416671753 0.001991868019104004
vt 0.7321222424507141 0.028827428817749023
vt 0.6120518445968628 0.49106258153915405
vt 0.6120516657829285 0.9344514980912209
vt 0.46299558877944946 0.4488029479980469
vt 0.46299558877944946 0.9980078861117363
vt 0.3109593689441681 0.9980078861117363
vt 0.3109593689441681 0.4488029479980469
vt 0.4572315216064453 0.8905149102210999
vt 0.4572315216064453 0.40910953283309937
vt 0.0017076904186978936 0.8905149102210999
vt 0.0017076904186978936 0.40910953283309937
vt 0.0950404554605484 0.7657981365919113
vt 0.0950404554605484 0.4454891085624695

g equalizer_crystal_0019_shard_003
s 1
usemtl equalizer_crystal_0019_shard_003
f 1/1/1 2/2/2 3/3/3 
f 3/3/3 4/4/4 1/1/1 
f 4/4/4 5/5/5 1/1/1 
f 4/4/4 6/6/6 5/5/5 
f 7/7/7 8/8/8 9/9/9 
f 10/10/10 7/7/7 9/9/9 
f 8/8/8 11/11/11 9/9/9 
f 10/10/10 12/12/12 7/7/7 
f 13/13/13 14/14/14 15/15/15 
f 15/15/15 14/14/14 16/16/16 
f 17/17/17 18/18/18 19/19/19 
f 18/18/18 20/20/20 19/19/19 
f 21/21/21 22/22/22 23/23/23 
f 22/22/22 24/24/24 23/23/23 
f 25/25/25 26/26/26 27/27/27 
f 28/28/28 27/27/27 26/26/26 
f 29/29/29 30/30/30 31/31/31 
f 30/30/30 32/32/32 31/31/31 
f 33/33/33 34/34/34 35/35/35 
f 35/35/35 34/34/34 36/36/36 

