v 0.35653156042099 0.0 -0.7940298914909363
v -0.6316859722137451 0.0 -0.7940292954444885
v -0.6316859722137451 4.623462677001953 -0.7940292954444885
v -0.37143856287002563 4.84544038772583 -0.7940292954444885
v 0.35653156042099 4.612077236175537 -0.7940298914909363
v -1.0167522430419922 4.956287860870361 -0.06413215398788452
v -0.6316859722137451 4.623462677001953 -0.7940292954444885
v -0.6316859722137451 0.0 -0.7940292954444885
v -1.0167522430419922 0.0 -0.06413215398788452
v 0.5504259467124939 6.219547748565674 -0.14522041380405426
v -0.37143856287002563 4.84544038772583 -0.7940292954444885
v -0.6316859722137451 4.623462677001953 -0.7940292954444885
v -1.0167522430419922 4.956287860870361 -0.06413215398788452
v 0.36956846714019775 6.668648719787598 0.5207628607749939
v -0.5139102935791016 6.162657737731934 0.7940300703048706
v -0.13349555432796478 6.487133026123047 0.7940300703048706
v -0.5139102935791016 0.0 0.7940300703048706
v -0.5139102935791016 6.162657737731934 0.7940300703048706
v -1.0167522430419922 4.956287860870361 -0.06413215398788452
v -1.0167522430419922 0.0 -0.06413215398788452
v 0.35653156042099 4.612077236175537 -0.7940298914909363
v -0.37143856287002563 4.84544038772583 -0.7940292954444885
v 0.5504259467124939 6.219547748565674 -0.14522041380405426
v 0.517944872379303 4.825589656829834 -0.6909521818161011
v 0.6609869003295898 5.98008394241333 -0.2245023250579834
v 0.6254051923751831 6.150232315063477 -0.1628156304359436
v -0.13349555432796478 6.487133026123047 0.7940300703048706
v -0.5139102935791016 6.162657737731934 0.7940300703048706
v -0.5139102935791016 0.0 0.7940300703048706
v 0.4584334194660187 0.0 0.7940300703048706
v 0.4584334194660187 6.614858150482178 0.7940300703048706
v 0.8309507369995117 6.164658069610596 0.33285820484161377
v 0.8309507369995117 0.0 0.33285820484161377
v 0.517944872379303 0.0 -0.6909521818161011
v 0.517944872379303 4.825589656829834 -0.6909521818161011
v 0.6609869003295898 5.98008394241333 -0.2245023250579834
v 0.8060795664787292 6.240476131439209 0.3638323247432709
v 0.6254051923751831 6.150232315063477 -0.1628156304359436
v 0.5504259467124939 6.219547748565674 -0.14522041380405426
v 0.36956846714019775 6.668648719787598 0.5207628607749939
v 0.5108867883682251 6.644878387451172 0.7239885330200195
v 0.5108867883682251 6.644878387451172 0.7239885330200195
v 0.36956846714019775 6.668648719787598 0.5207628607749939
v -0.13349555432796478 6.487133026123047 0.7940300703048706
v 0.4584334194660187 6.614858150482178 0.7940300703048706
v 0.4584334194660187 6.614858150482178 0.7940300703048706
v 0.4584334194660187 0.0 0.7940300703048706
v 0.8309507369995117 0.0 0.33285820484161377
v 0.8309507369995117 6.164658069610596 0.33285820484161377
v 0.8060795664787292 6.240476131439209 0.3638323247432709
v 0.5108867883682251 6.644878387451172 0.7239885330200195
v 0.6254051923751831 6.150232315063477 -0.1628156304359436
v 0.8060795664787292 6.240476131439209 0.3638323247432709
v 0.8309507369995117 6.164658069610596 0.33285820484161377
v 0.6609869003295898 5.98008394241333 -0.2245023250579834
v 0.35653156042099 0.0 -0.7940298914909363
v 0.35653156042099 4.612077236175537 -0.7940298914909363
v 0.517944872379303 4.825589656829834 -0.6909521818161011
v 0.517944872379303 0.0 -0.6909521818161011
vn -8.356466310033284e-07 0.0 -1.0
vn -8.356466310033284e-07 0.0 -1.0
vn -8.356465741599095e-07 0.0 -1.0
vn -8.356465741599095e-07 0.0 -1.0
vn -8.356465741599095e-07 0.0 -1.0
vn -0.8844633102416992 0.0 -0.4666096866130829
vn -0.8844633102416992 0.0 -0.4666097164154053
vn -0.8844633102416992 0.0 -0.4666097164154053
vn -0.8844633102416992 0.0 -0.4666097164154053
vn -0.5343148112297058 0.6264318823814392 -0.5675304532051086
vn -0.534314751625061 0.626431941986084 -0.5675304532051086
vn -0.534314751625061 0.626431941986084 -0.5675304532051086
vn -0.534314751625061 0.626431941986084 -0.5675304532051086
vn -0.534314751625061 0.626431941986084 -0.5675305128097534
vn -0.534314751625061 0.626431941986084 -0.5675304532051086
vn -0.534314751625061 0.626431941986084 -0.5675304532051086
vn -0.8627937436103821 0.0 0.5055561065673828
vn -0.8627937436103821 0.0 0.5055559873580933
vn -0.8627937436103821 0.0 0.5055559873580933
vn -0.8627937436103821 0.0 0.5055561065673828
vn 0.11533728986978531 0.3597916066646576 -0.9258764982223511
vn 0.11533728986978531 0.35979163646698 -0.9258764982223511
vn 0.11533728241920471 0.3597915470600128 -0.9258764982223511
vn 0.11533728986978531 0.35979166626930237 -0.9258764982223511
vn 0.11533728241920471 0.3597916066646576 -0.9258764982223511
vn 0.1153373047709465 0.35979163646698 -0.9258764982223511
vn 0.0 0.0 1.0
vn 0.0 0.0 1.0
vn 0.0 0.0 1.0
vn 0.0 0.0 1.0
vn 0.0 0.0 1.0
vn 0.9563191533088684 -3.614450179156847e-05 -0.2923247814178467
vn 0.9563191533088684 -3.6144498153589666e-05 -0.2923247814178467
vn 0.9563191533088684 -3.6144498153589666e-05 -0.2923247814178467
vn 0.9563191533088684 -3.614449451561086e-05 -0.2923247516155243
vn 0.9563191533088684 -3.614449451561086e-05 -0.2923247516155243
vn 0.5977876782417297 0.7304694056510925 -0.33024874329566956
vn 0.597787618637085 0.7304694056510925 -0.33024874329566956
vn 0.597787618637085 0.7304695248603821 -0.33024880290031433
vn 0.5977876782417297 0.7304695248603821 -0.33024877309799194
vn 0.597787618637085 0.7304694056510925 -0.33024874329566956
vn -0.2040867954492569 0.9458180665969849 0.2525406777858734
vn -0.2040868103504181 0.9458180665969849 0.2525406777858734
vn -0.2040867656469345 0.9458180665969849 0.25254061818122864
vn -0.2040868103504181 0.9458180665969849 0.2525406777858734
vn 0.7780084013938904 0.0002242233167635277 0.6282538175582886
vn 0.7780084013938904 0.00022422334586735815 0.6282538175582886
vn 0.7780084013938904 0.00022422334586735815 0.6282538175582886
vn 0.7780084609985352 0.00022422333131544292 0.6282537579536438
vn 0.7780084013938904 0.00022422334586735815 0.6282538175582886
vn 0.7780084013938904 0.0002242233167635277 0.6282538175582886
vn 0.8615851998329163 0.3501936197280884 -0.36747151613235474
vn 0.8615851998329163 0.3501936197280884 -0.36747148633003235
vn 0.8615851998329163 0.3501936197280884 -0.36747148633003235
vn 0.861585259437561 0.3501936197280884 -0.36747151613235474
vn 0.5382140874862671 0.0 -0.8428080677986145
vn 0.5382141470909119 0.0 -0.8428080677986145
vn 0.5382140874862671 0.0 -0.8428080677986145
vn 0.5382140874862671 0.0 -0.8428080677986145
vt 0.765453577041626 0.9999951422214508
vt 0.7209199666976929 0.9999951422214508
vt 0.7209917902946472 0.7509678602218628
vt 0.7260366678237915 0.74733105301857
vt 0.7654762864112854 0.7597963809967041
vt 0.6708215475082397 0.7330623865127563
vt 0.7209917902946472 0.7509678602218628
vt 0.7209199666976929 0.9999951422214508
vt 0.6708172559738159 0.9999951422214508
vt 0.7778069376945496 0.6665763258934021
vt 0.7260366678237915 0.74733105301857
vt 0.7209917902946472 0.7509678602218628
vt 0.6874843835830688 0.7096909284591675
vt 0.7624735236167908 0.6249048113822937
vt 0.7102829217910767 0.6352479755878448
vt 0.7300808429718018 0.6234175562858582
vt 0.6207096576690674 0.9999951422214508
vt 0.6206727027893066 0.6724106669425964
vt 0.6708215475082397 0.7330623865127563
vt 0.6708172559738159 0.9999951422214508
vt 0.7654762864112854 0.7597963809967041
vt 0.7260366678237915 0.74733105301857
vt 0.7778069376945496 0.6665763258934021
vt 0.7744380235671997 0.7472293376922607
vt 0.7866061925888062 0.6976508796215057
vt 0.7818009853363037 0.6704889535903931
vt 0.6029044985771179 0.6572706699371338
vt 0.6206727027893066 0.6724106669425964
vt 0.6207096576690674 0.9999951422214508
vt 0.5705971121788025 0.9999951422214508
vt 0.5705409049987793 0.6503036320209503
vt 0.520437479019165 0.701766312122345
vt 0.5204867124557495 0.9999951422214508
vt 0.4768837094306946 0.9999951422214508
vt 0.4768190383911133 0.7481215000152588
vt 0.49933964014053345 0.7015084624290466
vt 0.5543909072875977 0.6204099655151367
vt 0.5597240328788757 0.5903741717338562
vt 0.5648906230926514 0.5927546620368958
vt 0.5778252482414246 0.6360694766044617
vt 0.5687310695648193 0.6453301310539246
vt 0.5687310695648193 0.6453301310539246
vt 0.5778252482414246 0.6360694766044617
vt 0.6029044985771179 0.6572706699371338
vt 0.5705409049987793 0.6503036320209503
vt 0.5705409049987793 0.6503036320209503
vt 0.5705971121788025 0.9999951422214508
vt 0.5204867124557495 0.9999951422214508
vt 0.520437479019165 0.701766312122345
vt 0.5431591272354126 0.6665198504924774
vt 0.5655248761177063 0.6486039161682129
vt 0.5046315789222717 0.6737650334835052
vt 0.5326273441314697 0.6610560119152069
vt 0.520437479019165 0.701766312122345
vt 0.49933964014053345 0.7015084624290466
vt 0.4664170742034912 0.9999951422214508
vt 0.4663540720939636 0.7597961723804474
vt 0.4768190383911133 0.7481215000152588
vt 0.4768837094306946 0.9999951422214508

g equalizer_crystal_0015
s 1
usemtl equalizer_crystal_0015
f 1/1/1 2/2/2 3/3/3 
f 3/3/3 4/4/4 1/1/1 
f 4/4/4 5/5/5 1/1/1 
f 6/6/6 7/7/7 8/8/8 
f 6/6/6 8/8/8 9/9/9 
f 10/10/10 11/11/11 12/12/12 
f 12/12/12 13/13/13 10/10/10 
f 13/13/13 14/14/14 10/10/10 
f 13/13/13 15/15/15 14/14/14 
f 15/15/15 16/16/16 14/14/14 
f 17/17/17 18/18/18 19/19/19 
f 17/17/17 19/19/19 20/20/20 
f 21/21/21 22/22/22 23/23/23 
f 23/23/23 24/24/24 21/21/21 
f 23/23/23 25/25/25 24/24/24 
f 23/23/23 26/26/26 25/25/25 
f 27/27/27 28/28/28 29/29/29 
f 29/29/29 30/30/30 27/27/27 
f 30/30/30 31/31/31 27/27/27 
f 32/32/32 33/33/33 34/34/34 
f 34/34/34 35/35/35 32/32/32 
f 35/35/35 36/36/36 32/32/32 
f 37/37/37 38/38/38 39/39/39 
f 39/39/39 40/40/40 37/37/37 
f 40/40/40 41/41/41 37/37/37 
f 42/42/42 43/43/43 44/44/44 
f 42/42/42 44/44/44 45/45/45 
f 46/46/46 47/47/47 48/48/48 
f 48/48/48 49/49/49 46/46/46 
f 49/49/49 50/50/50 46/46/46 
f 50/50/50 51/51/51 46/46/46 
f 52/52/52 53/53/53 54/54/54 
f 52/52/52 54/54/54 55/55/55 
f 56/56/56 57/57/57 58/58/58 
f 56/56/56 58/58/58 59/59/59 

