v -0.9279415607452393 2.6374099254608154 0.04790282994508743
v 0.9279415607452393 2.1854915618896484 -0.012590331956744194
v 0.44557279348373413 1.9895827770233154 -0.8480737209320068
v -0.3741384744644165 2.2618722915649414 -0.6239184141159058
v 0.4647689759731293 2.6095669269561768 0.8480737209320068
v -0.5405731201171875 2.8423092365264893 0.8480737209320068
v -0.5405731201171875 -2.8423092365264893 0.8480737209320068
v 0.4647689759731293 -2.8423092365264893 0.8480737209320068
v 0.4647689759731293 2.6095669269561768 0.8480737209320068
v -0.5405731201171875 2.8423092365264893 0.8480737209320068
v 0.4647689759731293 -2.8423092365264893 0.8480737209320068
v 0.9279415607452393 -2.8423092365264893 -0.012590331956744194
v 0.9279415607452393 2.1854915618896484 -0.012590331956744194
v 0.4647689759731293 2.6095669269561768 0.8480737209320068
v 0.9279415607452393 -2.8423092365264893 -0.012590331956744194
v 0.44557279348373413 -2.8423092365264893 -0.8480737209320068
v 0.44557279348373413 1.9895827770233154 -0.8480737209320068
v 0.9279415607452393 2.1854915618896484 -0.012590331956744194
v 0.44557279348373413 1.9895827770233154 -0.8480737209320068
v 0.44557279348373413 -2.8423092365264893 -0.8480737209320068
v -0.3741384744644165 -2.8423092365264893 -0.6239184141159058
v -0.3741384744644165 2.2618722915649414 -0.6239184141159058
v -0.3741384744644165 2.2618722915649414 -0.6239184141159058
v -0.3741384744644165 -2.8423092365264893 -0.6239184141159058
v -0.9279415607452393 -2.8423092365264893 0.04790282994508743
v -0.9279415607452393 2.6374099254608154 0.04790282994508743
v -0.9279415607452393 -2.8423092365264893 0.04790282994508743
v -0.5405731201171875 -2.8423092365264893 0.8480737209320068
v -0.5405731201171875 2.8423092365264893 0.8480737209320068
v -0.9279415607452393 2.6374099254608154 0.04790282994508743
v -0.5405731201171875 -2.8423092365264893 0.8480737209320068
v -0.9279415607452393 -2.8423092365264893 0.04790282994508743
v -0.3741384744644165 -2.8423092365264893 -0.6239184141159058
v 0.4647689759731293 -2.8423092365264893 0.8480737209320068
v 0.9279415607452393 -2.8423092365264893 -0.012590331956744194
v 0.44557279348373413 -2.8423092365264893 -0.8480737209320068
vn 0.21229906380176544 0.9170352816581726 -0.3376024663448334
vn 0.21229901909828186 0.9170352816581726 -0.3376024067401886
vn 0.21229903399944305 0.9170352816581726 -0.33760249614715576
vn 0.21229903399944305 0.9170352816581726 -0.3376024663448334
vn 0.2122991383075714 0.9170356392860413 -0.33760151267051697
vn 0.2122991383075714 0.9170356392860413 -0.3376014828681946
vn 0.0 0.0 1.0
vn 0.0 0.0 1.0
vn 0.0 0.0 1.0
vn 0.0 0.0 1.0
vn 0.8805829286575317 0.0 0.47389212250709534
vn 0.8805829286575317 0.0 0.47389212250709534
vn 0.8805829286575317 0.0 0.4738921821117401
vn 0.8805829286575317 0.0 0.47389212250709534
vn 0.8660244345664978 0.0 -0.5000017285346985
vn 0.8660244345664978 0.0 -0.5000017285346985
vn 0.8660244345664978 0.0 -0.5000017285346985
vn 0.866024374961853 0.0 -0.5000017881393433
vn -0.2637721002101898 0.0 -0.96458500623703
vn -0.2637721598148346 0.0 -0.96458500623703
vn -0.2637721598148346 0.0 -0.96458500623703
vn -0.2637721002101898 0.0 -0.96458500623703
vn -0.7716264128684998 0.0 -0.6360758543014526
vn -0.7716265320777893 0.0 -0.6360758543014526
vn -0.7716265320777893 0.0 -0.6360758543014526
vn -0.7716265320777893 0.0 -0.6360759139060974
vn -0.9000758528709412 0.0 0.4357331395149231
vn -0.9000758528709412 0.0 0.4357331395149231
vn -0.9000758528709412 0.0 0.43573319911956787
vn -0.9000758528709412 0.0 0.43573319911956787
vn 0.0 -1.0 0.0
vn 0.0 -1.0 0.0
vn 0.0 -1.0 0.0
vn 0.0 -1.0 0.0
vn 0.0 -1.0 0.0
vn 0.0 -1.0 0.0
vt 0.8004299402236938 0.9980078605003655
vt 0.8086442351341248 0.7459957003593445
vt 0.9220954179763794 0.8114971816539764
vt 0.891657292842865 0.9228064715862274
vt 0.6917740106582642 0.8088904172182083
vt 0.6917740106582642 0.9454068243503571
vt 0.13835689425468445 0.998007930116728
vt 0.0018405001610517502 0.998007930116728
vt 0.0018405001610517502 0.25769221782684326
vt 0.13835689425468445 0.22608792781829834
vt 0.6825189590454102 0.998007930116728
vt 0.5656484365463257 0.998007930116728
vt 0.5656484365463257 0.3152778744697571
vt 0.6825189590454102 0.25769221782684326
vt 0.5656484365463257 0.998007930116728
vt 0.4521973133087158 0.998007930116728
vt 0.4521973133087158 0.3418804407119751
vt 0.5656484365463257 0.3152778744697571
vt 0.2595216929912567 0.9100385084748268
vt 0.2595216929912567 0.2539111375808716
vt 0.3708310127258301 0.2539111375808716
vt 0.3708310127258301 0.9470129236578941
vt 0.3708310127258301 0.9470129236578941
vt 0.3708310127258301 0.2539111375808716
vt 0.4460325241088867 0.2539111375808716
vt 0.4460325241088867 0.9980075829662383
vt 0.25293228030204773 0.998007930116728
vt 0.14427638053894043 0.998007930116728
vt 0.14427638053894043 0.22608792781829834
vt 0.25293228030204773 0.2539113759994507
vt 0.6861053109169006 0.20140290260314941
vt 0.5774493217468262 0.2540040612220764
vt 0.48622190952301025 0.17880254983901978
vt 0.6861053109169006 0.06488645076751709
vt 0.5692347884178162 0.001991868019104004
vt 0.4557836949825287 0.06749320030212402

g equalizer_crystal_0016_shard_003
s 1
usemtl equalizer_crystal_0016_shard_003
f 1/1/1 2/2/2 3/3/3 
f 1/1/1 3/3/3 4/4/4 
f 1/1/1 5/5/5 2/2/2 
f 1/1/1 6/6/6 5/5/5 
f 7/7/7 8/8/8 9/9/9 
f 7/7/7 9/9/9 10/10/10 
f 11/11/11 12/12/12 13/13/13 
f 11/11/11 13/13/13 14/14/14 
f 15/15/15 16/16/16 17/17/17 
f 15/15/15 17/17/17 18/18/18 
f 19/19/19 20/20/20 21/21/21 
f 19/19/19 21/21/21 22/22/22 
f 23/23/23 24/24/24 25/25/25 
f 23/23/23 25/25/25 26/26/26 
f 27/27/27 28/28/28 29/29/29 
f 27/27/27 29/29/29 30/30/30 
f 31/31/31 32/32/32 33/33/33 
f 31/31/31 33/33/33 34/34/34 
f 33/33/33 35/35/35 34/34/34 
f 33/33/33 36/36/36 35/35/35 

