v -0.6093662977218628 -0.7385786175727844 -0.13789550960063934
v 0.45970839262008667 -1.3048863410949707 -0.4548681676387787
v 0.6093662977218628 -1.4788343906402588 0.1700732409954071
v 0.16219878196716309 -1.2847416400909424 0.6051074266433716
v -0.4381318688392639 -0.9175498485565186 0.4353613257408142
v -0.3414802551269531 -0.8256327509880066 -0.6051074266433716
v -0.07565230876207352 1.2957520484924316 0.5378515720367432
v 0.16219878196716309 1.2571241855621338 0.6051074266433716
v 0.0142364501953125 1.4788343906402588 -0.02219238318502903
v 0.6093662977218628 1.374083399772644 0.1700732409954071
v 0.538034200668335 1.4788343906402588 -0.12602539360523224
v -0.07565230876207352 1.2957520484924316 0.5378515720367432
v -0.4381318688392639 0.7389161586761475 0.4353613257408142
v -0.4381318688392639 -0.9175498485565186 0.4353613257408142
v 0.16219878196716309 1.2571241855621338 0.6051074266433716
v 0.16219878196716309 -1.2847416400909424 0.6051074266433716
v 0.0142364501953125 1.4788343906402588 -0.02219238318502903
v -0.4381318688392639 0.7389161586761475 0.4353613257408142
v -0.07565230876207352 1.2957520484924316 0.5378515720367432
v -0.6093662977218628 0.5162073969841003 -0.13789550960063934
v -0.3414802551269531 0.9694606065750122 -0.6051074266433716
v -0.011630706489086151 1.4788343906402588 -0.5465136766433716
v -0.4381318688392639 0.7389161586761475 0.4353613257408142
v -0.6093662977218628 0.5162073969841003 -0.13789550960063934
v -0.4381318688392639 -0.9175498485565186 0.4353613257408142
v -0.6093662977218628 -0.7385786175727844 -0.13789550960063934
v 0.6093662977218628 -1.4788343906402588 0.1700732409954071
v 0.6093662977218628 1.374083399772644 0.1700732409954071
v 0.16219878196716309 1.2571241855621338 0.6051074266433716
v 0.16219878196716309 -1.2847416400909424 0.6051074266433716
v 0.0142364501953125 1.4788343906402588 -0.02219238318502903
v 0.538034200668335 1.4788343906402588 -0.12602539360523224
v 0.45970839262008667 1.4788343906402588 -0.4548681676387787
v -0.011630706489086151 1.4788343906402588 -0.5465136766433716
v 0.6093662977218628 -1.4788343906402588 0.1700732409954071
v 0.45970839262008667 -1.3048863410949707 -0.4548681676387787
v 0.6093662977218628 1.374083399772644 0.1700732409954071
v 0.538034200668335 1.4788343906402588 -0.12602539360523224
v 0.45970839262008667 1.4788343906402588 -0.4548681676387787
v -0.3414802551269531 0.9694606065750122 -0.6051074266433716
v -0.3414802551269531 -0.8256327509880066 -0.6051074266433716
v -0.6093662977218628 0.5162073969841003 -0.13789550960063934
v -0.6093662977218628 -0.7385786175727844 -0.13789550960063934
v -0.011630706489086151 1.4788343906402588 -0.5465136766433716
v 0.45970839262008667 -1.3048863410949707 -0.4548681676387787
v -0.3414802551269531 0.9694606065750122 -0.6051074266433716
v 0.45970839262008667 1.4788343906402588 -0.4548681676387787
v -0.3414802551269531 -0.8256327509880066 -0.6051074266433716
vn -0.4925873875617981 -0.8616858124732971 -0.12188170105218887
vn -0.4925873875617981 -0.8616858124732971 -0.12188170105218887
vn -0.4925873875617981 -0.8616858124732971 -0.12188170105218887
vn -0.492587149143219 -0.8616861701011658 -0.12188064306974411
vn -0.4925876557826996 -0.8616858124732971 -0.12188099324703217
vn -0.49258682131767273 -0.8616863489151001 -0.12188030779361725
vn 0.06328395754098892 0.945550262928009 0.3192644417285919
vn 0.06328394263982773 0.945550262928009 0.3192644417285919
vn 0.06328394263982773 0.945550262928009 0.3192644417285919
vn 0.06328722834587097 0.9455505013465881 0.31926313042640686
vn 0.0632876306772232 0.9455509185791016 0.31926190853118896
vn -0.2720800042152405 0.0 0.9622746109962463
vn -0.2720800042152405 0.0 0.9622746109962463
vn -0.2720800042152405 0.0 0.9622746109962463
vn -0.2720867991447449 0.0 0.9622727632522583
vn -0.2720867991447449 0.0 0.9622727632522583
vn -0.8408268094062805 0.5397125482559204 0.04148009046912193
vn -0.8408268094062805 0.53971266746521 0.04148009419441223
vn -0.8408268094062805 0.5397126078605652 0.041480086743831635
vn -0.8408265113830566 0.5397130250930786 0.04148193448781967
vn -0.8408263921737671 0.5397129654884338 0.04148194566369057
vn -0.840826153755188 0.539713442325592 0.04148218035697937
vn -0.958167314529419 0.0 0.2862088978290558
vn -0.958167314529419 0.0 0.2862089276313782
vn -0.958167314529419 0.0 0.2862088978290558
vn -0.9581671953201294 0.0 0.2862091660499573
vn 0.6973153352737427 0.0 0.716764509677887
vn 0.6973153352737427 0.0 0.716764509677887
vn 0.6973153352737427 0.0 0.7167645692825317
vn 0.6973155736923218 0.0 0.7167641520500183
vn 0.0 1.0 0.0
vn 0.0 1.0 0.0
vn 0.0 1.0 0.0
vn 0.0 1.0 -4.987298893865955e-07
vn 0.9725030660629272 0.0 -0.23289024829864502
vn 0.9725030660629272 0.0 -0.23289024829864502
vn 0.9725030660629272 0.0 -0.23289021849632263
vn 0.9722111225128174 0.0002999075222760439 -0.23410575091838837
vn 0.9727862477302551 0.0 -0.23170426487922668
vn -0.8675161600112915 0.0 -0.49740907549858093
vn -0.867516040802002 0.0 -0.49740904569625854
vn -0.8675161600112915 0.0 -0.49740907549858093
vn -0.867516040802002 0.0 -0.4974091649055481
vn 0.17821985483169556 -0.0022186681162565947 -0.9839882254600525
vn 0.17821989953517914 -0.0022186683490872383 -0.9839882254600525
vn 0.17821985483169556 -0.0022186683490872383 -0.9839882254600525
vn 0.19086220860481262 0.0 -0.9816168546676636
vn 0.1843075007200241 0.0 -0.9828686714172363
vt 0.5381791591644287 0.34753912687301636
vt 0.464552640914917 0.09921413660049438
vt 0.6097142100334167 0.06445163488388062
vt 0.7107640504837036 0.16831964254379272
vt 0.6713353991508484 0.3077646493911743
vt 0.429654985666275 0.2853143811225891
vt 0.7325217723846436 0.4318534731864929
vt 0.7168994545936584 0.37660539150238037
vt 0.8626085519790649 0.41097450256347656
vt 0.8179493546485901 0.27273738384246826
vt 0.8867270350456238 0.28930652141571045
vt 0.3133213520050049 0.3536510467529297
vt 0.39751821756362915 0.482992947101593
vt 0.39751821756362915 0.867757111787796
vt 0.25807324051856995 0.36262327432632446
vt 0.25807324051856995 0.9530485682189465
vt 0.8626085519790649 0.41097450256347656
vt 0.7563281059265137 0.5160506069660187
vt 0.7325217723846436 0.4318534731864929
vt 0.8894843459129333 0.5558251142501831
vt 0.9980080723762512 0.49360060691833496
vt 0.9843981862068176 0.4169827699661255
vt 0.5966176390647888 0.6133680641651154
vt 0.7297738194465637 0.6650987267494202
vt 0.5966176390647888 0.9981322519015521
vt 0.7297738194465637 0.9565607830882072
vt 0.15420526266098022 0.9981322519015521
vt 0.15420526266098022 0.3354562520980835
vt 0.25807324051856995 0.36262327432632446
vt 0.25807324051856995 0.9530485682189465
vt 0.8626085519790649 0.41097450256347656
vt 0.8867270350456238 0.28930652141571045
vt 0.963110625743866 0.30750036239624023
vt 0.9843981862068176 0.4169827699661255
vt 0.14715351164340973 0.9981322519015521
vt 0.001991979544982314 0.9577277973294258
vt 0.14715351164340973 0.3354562520980835
vt 0.07837558537721634 0.31112444400787354
vt 0.001991979544982314 0.31112444400787354
vt 0.8382975459098816 0.5598171651363373
vt 0.8382975459098816 0.9767817743122578
vt 0.7297738194465637 0.6650987267494202
vt 0.7297738194465637 0.9565607830882072
vt 0.5131537914276123 0.998132964479737
vt 0.40367114543914795 0.3515305519104004
vt 0.5897713303565979 0.8798161223530769
vt 0.40367114543914795 0.998132964479737
vt 0.5897713303565979 0.46285152435302734

g equalizer_crystal_0012_shard_001
s 1
usemtl equalizer_crystal_0012_shard_001
f 1/1/1 2/2/2 3/3/3 
f 3/3/3 4/4/4 1/1/1 
f 4/4/4 5/5/5 1/1/1 
f 1/1/1 6/6/6 2/2/2 
f 7/7/7 8/8/8 9/9/9 
f 10/10/10 9/9/9 8/8/8 
f 11/11/11 9/9/9 10/10/10 
f 12/12/12 13/13/13 14/14/14 
f 14/14/14 15/15/15 12/12/12 
f 16/16/16 15/15/15 14/14/14 
f 17/17/17 18/18/18 19/19/19 
f 20/20/20 18/18/18 17/17/17 
f 21/21/21 20/20/20 17/17/17 
f 22/22/22 21/21/21 17/17/17 
f 23/23/23 24/24/24 25/25/25 
f 25/25/25 24/24/24 26/26/26 
f 27/27/27 28/28/28 29/29/29 
f 27/27/27 29/29/29 30/30/30 
f 31/31/31 32/32/32 33/33/33 
f 34/34/34 31/31/31 33/33/33 
f 35/35/35 36/36/36 37/37/37 
f 36/36/36 38/38/38 37/37/37 
f 36/36/36 39/39/39 38/38/38 
f 40/40/40 41/41/41 42/42/42 
f 41/41/41 43/43/43 42/42/42 
f 44/44/44 45/45/45 46/46/46 
f 47/47/47 45/45/45 44/44/44 
f 45/45/45 48/48/48 46/46/46 

