v -0.6982972621917725 5.1161346435546875 -0.01692504808306694
v -0.6982972621917725 0.0 -0.01692504808306694
v -0.043128203600645065 0.0 0.6526244878768921
v -0.043128203600645065 5.358349323272705 0.6526244878768921
v -0.3230587840080261 5.575546741485596 0.3677743375301361
v 0.7339553833007812 5.031118392944336 0.8029171824455261
v -0.043128203600645065 5.358349323272705 0.6526244878768921
v -0.043128203600645065 0.0 0.6526244878768921
v 0.7339553833007812 0.0 0.8029171824455261
v 0.02464950457215309 5.881328105926514 0.2877642810344696
v -0.3230587840080261 5.575546741485596 0.3677743375301361
v -0.043128203600645065 5.358349323272705 0.6526244878768921
v 0.7339553833007812 5.031118392944336 0.8029171824455261
v 0.4947699010372162 5.881328105926514 0.35983505845069885
v 0.7339553833007812 5.031118392944336 0.8029171824455261
v 0.7339553833007812 0.0 0.8029171824455261
v -0.18832260370254517 0.0 -0.9002271890640259
v -0.18832260370254517 5.354169845581055 -0.9002271890640259
v 0.4947699010372162 5.881328105926514 0.35983505845069885
v 0.1736260950565338 5.881328105926514 -0.22335723042488098
v -0.6982972621917725 5.1161346435546875 -0.01692504808306694
v -0.18832260370254517 5.354169845581055 -0.9002271890640259
v -0.18832260370254517 0.0 -0.9002271890640259
v -0.6982972621917725 0.0 -0.01692504808306694
v 0.1736260950565338 5.881328105926514 -0.22335723042488098
v 0.02464950457215309 5.881328105926514 0.2877642810344696
v 0.4947699010372162 5.881328105926514 0.35983505845069885
v 0.1736260950565338 5.881328105926514 -0.22335723042488098
v -0.18832260370254517 5.354169845581055 -0.9002271890640259
v -0.6982972621917725 5.1161346435546875 -0.01692504808306694
v 0.02464950457215309 5.881328105926514 0.2877642810344696
v -0.3230587840080261 5.575546741485596 0.3677743375301361
vn -0.7147262692451477 -7.934248424135149e-05 0.699404239654541
vn -0.7147262692451477 -7.934247696539387e-05 0.699404239654541
vn -0.7147262692451477 -7.934247696539387e-05 0.699404239654541
vn -0.7147263288497925 -7.934246968943626e-05 0.6994041800498962
vn -0.7147263288497925 -7.934248424135149e-05 0.699404239654541
vn -0.18988734483718872 0.0 0.9818058609962463
vn -0.18988732993602753 0.0 0.9818058609962463
vn -0.18988734483718872 0.0 0.9818058609962463
vn -0.18988734483718872 0.0 0.9818058609962463
vn -0.07750581949949265 0.5208742022514343 0.8501076102256775
vn -0.07750582695007324 0.5208742022514343 0.8501075506210327
vn -0.07750581949949265 0.5208742022514343 0.8501075506210327
vn -0.07750581949949265 0.5208742022514343 0.8501075506210327
vn -0.07750582695007324 0.5208741426467896 0.8501076102256775
vn 0.8792895674705505 0.00022819598962087184 -0.47628751397132874
vn 0.8792895674705505 0.00022819598962087184 -0.47628751397132874
vn 0.8792895674705505 0.00022819598962087184 -0.47628751397132874
vn 0.8792895674705505 0.00022819598962087184 -0.4762875735759735
vn 0.8792895674705505 0.00022819598962087184 -0.4762875735759735
vn 0.8792895674705505 0.00022819598962087184 -0.47628751397132874
vn -0.866025447845459 0.0 -0.49999991059303284
vn -0.866025447845459 0.0 -0.4999999701976776
vn -0.866025447845459 0.0 -0.4999999701976776
vn -0.866025447845459 0.0 -0.4999999701976776
vn 0.0 1.0 1.5561170130240498e-06
vn 0.0 1.0 1.556116899337212e-06
vn 0.0 1.0 1.556116899337212e-06
vn -0.6726187467575073 0.7135469317436218 -0.19604794681072235
vn -0.6726188063621521 0.7135469317436218 -0.19604794681072235
vn -0.6726187467575073 0.7135469317436218 -0.19604794681072235
vn -0.6726188063621521 0.7135469317436218 -0.19604793190956116
vn -0.6726187467575073 0.7135469317436218 -0.19604794681072235
vt 0.3803741931915283 0.720442533493042
vt 0.3807607591152191 0.9999784231185913
vt 0.3285183012485504 0.9999784231185913
vt 0.32803875207901 0.6989603638648987
vt 0.3331039249897003 0.6880442798137665
vt 0.2782173156738281 0.7219559252262115
vt 0.32803875207901 0.6989603638648987
vt 0.3285183012485504 0.9999784231185913
vt 0.2784137725830078 0.9999784231185913
vt 0.31756553053855896 0.6731852293014526
vt 0.3331039249897003 0.6880442798137665
vt 0.32803875207901 0.6989603638648987
vt 0.2782173156738281 0.7219559252262115
vt 0.28903037309646606 0.6702795028686523
vt 0.5330954790115356 0.7216188907623291
vt 0.5333033800125122 0.9999784231185913
vt 0.4308847188949585 0.9999784231185913
vt 0.4306453466415405 0.7089089751243591
vt 0.5039335489273071 0.6787471771240234
vt 0.4730716943740845 0.6787785291671753
vt 0.3803741931915283 0.720442533493042
vt 0.4306453466415405 0.7089089751243591
vt 0.4308847188949585 0.9999784231185913
vt 0.3807607591152191 0.9999784231185913
vt 0.2990621328353882 0.6390166878700256
vt 0.31756553053855896 0.6731852293014526
vt 0.28903037309646606 0.6702795028686523
vt 0.40647372603416443 0.664304256439209
vt 0.4306453466415405 0.7089089751243591
vt 0.3803741931915283 0.720442533493042
vt 0.3719896674156189 0.6600683927536011
vt 0.3563723564147949 0.6714794635772705

g equalizer_crystal_0022
s 1
usemtl equalizer_crystal_0022
f 1/1/1 2/2/2 3/3/3 
f 3/3/3 4/4/4 1/1/1 
f 4/4/4 5/5/5 1/1/1 
f 6/6/6 7/7/7 8/8/8 
f 6/6/6 8/8/8 9/9/9 
f 10/10/10 11/11/11 12/12/12 
f 12/12/12 13/13/13 10/10/10 
f 13/13/13 14/14/14 10/10/10 
f 15/15/15 16/16/16 17/17/17 
f 17/17/17 18/18/18 15/15/15 
f 18/18/18 19/19/19 15/15/15 
f 18/18/18 20/20/20 19/19/19 
f 21/21/21 22/22/22 23/23/23 
f 21/21/21 23/23/23 24/24/24 
f 25/25/25 26/26/26 27/27/27 
f 28/28/28 29/29/29 30/30/30 
f 30/30/30 31/31/31 28/28/28 
f 30/30/30 32/32/32 31/31/31 

