v 0.4105561673641205 0.0 -0.7204666137695312
v -0.48980575799942017 0.0 -0.5909423828125
v -0.48980575799942017 3.198643922805786 -0.5909423828125
v 0.12474502623081207 3.300590991973877 -0.6808412075042725
v 0.4105561673641205 2.5612411499023438 -0.7204666137695312
v 0.15958267450332642 3.323819398880005 -0.6556919813156128
v 0.12474502623081207 3.300590991973877 -0.6808412075042725
v -0.48980575799942017 3.198643922805786 -0.5909423828125
v -0.820563793182373 3.5322649478912354 0.13081973791122437
v -0.8613908290863037 3.4818432331085205 0.06113429740071297
v -0.8613908290863037 0.0 0.06113429740071297
v -0.8613908290863037 3.4818432331085205 0.06113429740071297
v -0.48980575799942017 3.198643922805786 -0.5909423828125
v -0.48980575799942017 0.0 -0.5909423828125
v 0.3717988431453705 3.2779617309570312 -0.5520459413528442
v 0.15958267450332642 3.323819398880005 -0.6556919813156128
v -0.820563793182373 3.5322649478912354 0.13081973791122437
v 0.3048194944858551 3.2924351692199707 0.47134965658187866
v -0.48338058590888977 3.3978025913238525 0.7067574858665466
v -0.8613908290863037 3.4818432331085205 0.06113429740071297
v -0.8613908290863037 0.0 0.06113429740071297
v -0.38241010904312134 0.0 0.8880130052566528
v -0.38241010904312134 3.1627769470214844 0.8880130052566528
v -0.48338058590888977 3.3978025913238525 0.7067574858665466
v -0.820563793182373 3.5322649478912354 0.13081973791122437
v 0.7429914474487305 2.116903066635132 -0.15210536122322083
v 0.7429914474487305 0.0 -0.15210536122322083
v 0.4105561673641205 0.0 -0.7204666137695312
v 0.4105561673641205 2.5612411499023438 -0.7204666137695312
v 0.49337661266326904 2.925771713256836 -0.5788694024085999
v 0.4186640977859497 2.914660692214966 0.715785801410675
v 0.7429914474487305 2.116903066635132 -0.15210536122322083
v 0.49337661266326904 2.925771713256836 -0.5788694024085999
v 0.3780567944049835 3.032562494277954 0.7232293486595154
v 0.3717988431453705 3.2779617309570312 -0.5520459413528442
v 0.3048194944858551 3.2924351692199707 0.47134965658187866
v 0.7429914474487305 2.116903066635132 -0.15210536122322083
v 0.4186640977859497 2.914660692214966 0.715785801410675
v 0.4186640977859497 0.0 0.715785801410675
v 0.7429914474487305 0.0 -0.15210536122322083
v -0.38241010904312134 3.1627769470214844 0.8880130052566528
v 0.3780567944049835 3.032562494277954 0.7232293486595154
v 0.3048194944858551 3.2924351692199707 0.47134965658187866
v -0.48338058590888977 3.3978025913238525 0.7067574858665466
v 0.3780567944049835 3.032562494277954 0.7232293486595154
v -0.38241010904312134 3.1627769470214844 0.8880130052566528
v -0.38241010904312134 0.0 0.8880130052566528
v 0.4186640977859497 0.0 0.715785801410675
v 0.4186640977859497 2.914660692214966 0.715785801410675
v 0.4105561673641205 2.5612411499023438 -0.7204666137695312
v 0.12474502623081207 3.300590991973877 -0.6808412075042725
v 0.15958267450332642 3.323819398880005 -0.6556919813156128
v 0.3717988431453705 3.2779617309570312 -0.5520459413528442
v 0.49337661266326904 2.925771713256836 -0.5788694024085999
vn -0.14255458116531372 -0.0002343252272112295 -0.9897869825363159
vn -0.14255458116531372 -0.0002343252272112295 -0.9897869825363159
vn -0.14255456626415253 -0.00023432521265931427 -0.9897869825363159
vn -0.14255458116531372 -0.0002343252272112295 -0.9897869825363159
vn -0.14255458116531372 -0.0002343252272112295 -0.9897869825363159
vn -0.21186994016170502 0.8465198874473572 -0.48838022351264954
vn -0.2118699699640274 0.8465198874473572 -0.4883802831172943
vn -0.21186994016170502 0.8465198874473572 -0.48838022351264954
vn -0.21186994016170502 0.8465198874473572 -0.48838022351264954
vn -0.21186994016170502 0.8465198874473572 -0.4883802831172943
vn -0.8688338398933411 0.0 -0.4951038360595703
vn -0.8688338398933411 0.0 -0.4951038062572479
vn -0.8688338398933411 0.0 -0.4951038360595703
vn -0.8688338398933411 0.0 -0.4951038360595703
vn 0.19842955470085144 0.9794843792915344 0.03515905514359474
vn 0.19842956960201263 0.9794843792915344 0.03515905886888504
vn 0.19842956960201263 0.9794843792915344 0.03515905514359474
vn 0.19842956960201263 0.9794843792915344 0.03515905514359474
vn 0.19842959940433502 0.9794843792915344 0.03515905514359474
vn -0.8652065396308899 0.0005104255396872759 0.501415491104126
vn -0.8652065396308899 0.0005104255978949368 0.5014154314994812
vn -0.8652065396308899 0.0005104255978949368 0.5014154314994812
vn -0.8652065396308899 0.0005104255978949368 0.5014154314994812
vn -0.8652065396308899 0.0005104255978949368 0.5014154314994812
vn -0.8652065396308899 0.0005104255396872759 0.501415491104126
vn 0.863189160823822 0.0 -0.5048806071281433
vn 0.863189160823822 0.0 -0.5048805475234985
vn 0.863189160823822 0.0 -0.5048805475234985
vn 0.8631892800331116 0.0 -0.5048805475234985
vn 0.863189160823822 0.0 -0.5048805475234985
vn 0.9450479745864868 0.3218711316585541 0.05729968845844269
vn 0.9450479745864868 0.3218711316585541 0.05729967728257179
vn 0.9450479745864868 0.32187119126319885 0.05729968473315239
vn 0.9450479745864868 0.3218711316585541 0.05729968845844269
vn 0.9450479745864868 0.3218711316585541 0.05729968473315239
vn 0.9450479745864868 0.3218711316585541 0.05729968473315239
vn 0.9367302060127258 0.0 0.35005220770835876
vn 0.9367302060127258 0.0 0.35005220770835876
vn 0.9367302060127258 0.0 0.3500521779060364
vn 0.9367302060127258 0.0 0.3500521779060364
vn 0.27807992696762085 0.6861797571182251 0.6721820831298828
vn 0.2780798673629761 0.6861797571182251 0.6721822023391724
vn 0.2780798673629761 0.6861797571182251 0.6721822023391724
vn 0.27807992696762085 0.6861796975135803 0.6721822023391724
vn 0.21025244891643524 0.00020350623526610434 0.977647066116333
vn 0.21025244891643524 0.00020350620616227388 0.977647066116333
vn 0.21025243401527405 0.00020350623526610434 0.977647066116333
vn 0.21025243401527405 0.00020350623526610434 0.977647066116333
vn 0.21025244891643524 0.00020350617705844343 0.977647066116333
vn 0.46650823950767517 0.22616837918758392 -0.8551127910614014
vn 0.46650823950767517 0.22616837918758392 -0.8551127910614014
vn 0.46650832891464233 0.22616836428642273 -0.8551127314567566
vn 0.46650823950767517 0.22616837918758392 -0.8551127910614014
vn 0.46650826930999756 0.22616836428642273 -0.8551127314567566
vt 0.4590318202972412 0.9998361170291901
vt 0.4136904776096344 0.9998361170291901
vt 0.41239798069000244 0.8269841372966766
vt 0.4392516016960144 0.8202162981033325
vt 0.45802682638168335 0.8586504459381104
vt 0.4313827455043793 0.8004946410655975
vt 0.4307151436805725 0.8070653676986694
vt 0.41239798069000244 0.8269841372966766
vt 0.36547526717185974 0.8029935359954834
vt 0.3670557737350464 0.8097160458564758
vt 0.3684256672859192 0.9998361170291901
vt 0.3670557737350464 0.8097160458564758
vt 0.41239798069000244 0.8269841372966766
vt 0.4136904776096344 0.9998361170291901
vt 0.4365735650062561 0.7886178195476532
vt 0.4313827455043793 0.8004946410655975
vt 0.36547526717185974 0.8029935359954834
vt 0.3975719213485718 0.7491823732852936
vt 0.3601346015930176 0.7700526416301727
vt 0.3670557737350464 0.8097160458564758
vt 0.3684256672859192 0.9998361170291901
vt 0.32323122024536133 0.9998361170291901
vt 0.3214547634124756 0.815759152173996
vt 0.32709386944770813 0.8100719451904297
vt 0.36124086380004883 0.806178867816925
vt 0.23349429666996002 0.900744765996933
vt 0.2324153184890747 0.9998361170291901
vt 0.18670965731143951 0.9998361170291901
vt 0.19154492020606995 0.8590424656867981
vt 0.20308661460876465 0.8391372859477997
vt 0.27630630135536194 0.8407219648361206
vt 0.23349429666996002 0.900744765996933
vt 0.20308661460876465 0.8391372859477997
vt 0.2778087258338928 0.8335714340209961
vt 0.20535098016262054 0.8180739283561707
vt 0.2636665999889374 0.818035900592804
vt 0.23349429666996002 0.900744765996933
vt 0.27630630135536194 0.8407219648361206
vt 0.2781014144420624 0.9998361170291901
vt 0.2324153184890747 0.9998361170291901
vt 0.359185129404068 0.7627735137939453
vt 0.39154350757598877 0.7314480245113373
vt 0.3975719213485718 0.7491823732852936
vt 0.3601346015930176 0.7700526416301727
vt 0.2778087258338928 0.8335714340209961
vt 0.3214547634124756 0.815759152173996
vt 0.32323122024536133 0.9998361170291901
vt 0.2781014144420624 0.9998361170291901
vt 0.27630630135536194 0.8407219648361206
vt 0.45802682638168335 0.8586504459381104
vt 0.4392516016960144 0.8202162981033325
vt 0.44487738609313965 0.8166385293006897
vt 0.4579094648361206 0.818437248468399
vt 0.4643075466156006 0.8377412259578705

g equalizer_crystal_0020
s 1
usemtl equalizer_crystal_0020
f 1/1/1 2/2/2 3/3/3 
f 3/3/3 4/4/4 1/1/1 
f 4/4/4 5/5/5 1/1/1 
f 6/6/6 7/7/7 8/8/8 
f 8/8/8 9/9/9 6/6/6 
f 8/8/8 10/10/10 9/9/9 
f 11/11/11 12/12/12 13/13/13 
f 11/11/11 13/13/13 14/14/14 
f 15/15/15 16/16/16 17/17/17 
f 17/17/17 18/18/18 15/15/15 
f 17/17/17 19/19/19 18/18/18 
f 20/20/20 21/21/21 22/22/22 
f 22/22/22 23/23/23 20/20/20 
f 23/23/23 24/24/24 20/20/20 
f 24/24/24 25/25/25 20/20/20 
f 26/26/26 27/27/27 28/28/28 
f 28/28/28 29/29/29 26/26/26 
f 29/29/29 30/30/30 26/26/26 
f 31/31/31 32/32/32 33/33/33 
f 33/33/33 34/34/34 31/31/31 
f 33/33/33 35/35/35 34/34/34 
f 35/35/35 36/36/36 34/34/34 
f 37/37/37 38/38/38 39/39/39 
f 37/37/37 39/39/39 40/40/40 
f 41/41/41 42/42/42 43/43/43 
f 41/41/41 43/43/43 44/44/44 
f 45/45/45 46/46/46 47/47/47 
f 47/47/47 48/48/48 45/45/45 
f 48/48/48 49/49/49 45/45/45 
f 50/50/50 51/51/51 52/52/52 
f 52/52/52 53/53/53 50/50/50 
f 53/53/53 54/54/54 50/50/50 

