v -0.5434696078300476 4.638076305389404 -0.7514103651046753
v 0.6087830066680908 4.51121187210083 -0.6382835507392883
v 0.6087830066680908 0.0 -0.6382835507392883
v -0.5434696078300476 0.0 -0.7514103651046753
v 0.6087830066680908 4.51121187210083 -0.6382835507392883
v -0.5434696078300476 4.638076305389404 -0.7514103651046753
v -0.7830974459648132 4.9516143798828125 -0.33636245131492615
v 0.7930499911308289 4.688047409057617 -0.3191238343715668
v -0.603218138217926 5.023351192474365 -0.17889052629470825
v -0.5434696078300476 4.638076305389404 -0.7514103651046753
v -0.5434696078300476 0.0 -0.7514103651046753
v -1.0696781873703003 0.0 0.1600102186203003
v -1.0696781873703003 4.772130012512207 0.1600102186203003
v -0.7830974459648132 4.9516143798828125 -0.33636245131492615
v 0.9772961735725403 4.570846080780029 -1.5258788721439487e-07
v 0.9772961735725403 0.0 -1.5258788721439487e-07
v 0.6087830066680908 0.0 -0.6382835507392883
v 0.6087830066680908 4.51121187210083 -0.6382835507392883
v 0.7930499911308289 4.688047409057617 -0.3191238343715668
v 0.9772961735725403 4.570846080780029 -1.5258788721439487e-07
v 0.7930499911308289 4.688047409057617 -0.3191238343715668
v -0.603218138217926 5.023351192474365 -0.17889052629470825
v -0.7515851259231567 4.878798007965088 0.6698634028434753
v 0.3664844334125519 4.502176761627197 1.0579572916030884
v -0.619121789932251 4.7995734214782715 0.8759891390800476
v 0.9772961735725403 0.0 -1.5258788721439487e-07
v 0.9772961735725403 4.570846080780029 -1.5258788721439487e-07
v 0.3664844334125519 4.502176761627197 1.0579572916030884
v 0.3664844334125519 0.0 1.0579572916030884
v -1.0696781873703003 4.772130012512207 0.1600102186203003
v -1.0696781873703003 0.0 0.1600102186203003
v -0.619121789932251 0.0 0.8759891390800476
v -0.619121789932251 4.7995734214782715 0.8759891390800476
v -0.7515851259231567 4.878798007965088 0.6698634028434753
v 0.3664844334125519 0.0 1.0579572916030884
v 0.3664844334125519 4.502176761627197 1.0579572916030884
v -0.619121789932251 4.7995734214782715 0.8759891390800476
v -0.619121789932251 0.0 0.8759891390800476
v -0.603218138217926 5.023351192474365 -0.17889052629470825
v -0.7830974459648132 4.9516143798828125 -0.33636245131492615
v -1.0696781873703003 4.772130012512207 0.1600102186203003
v -0.7515851259231567 4.878798007965088 0.6698634028434753
vn 0.09770908206701279 0.0 -0.9952149391174316
vn 0.09770908951759338 0.0 -0.9952149391174316
vn 0.09770908206701279 0.0 -0.9952149391174316
vn 0.09770908206701279 0.0 -0.9952149391174316
vn 0.14436517655849457 0.8278599381446838 -0.5420392155647278
vn 0.14436516165733337 0.8278600573539734 -0.5420392155647278
vn 0.14436517655849457 0.8278600573539734 -0.5420392155647278
vn 0.14436517655849457 0.8278600573539734 -0.5420392155647278
vn 0.14436520636081696 0.8278600573539734 -0.5420392155647278
vn -0.8660255074501038 0.0 -0.49999985098838806
vn -0.8660255074501038 0.0 -0.49999991059303284
vn -0.8660255074501038 0.0 -0.49999991059303284
vn -0.8660255074501038 0.0 -0.49999985098838806
vn -0.8660255074501038 0.0 -0.49999985098838806
vn 0.8660252690315247 0.0 -0.5000002384185791
vn 0.8660252690315247 0.0 -0.5000002384185791
vn 0.8660252690315247 0.0 -0.5000002384185791
vn 0.8660252690315247 0.0 -0.5000002384185791
vn 0.8660252690315247 0.0 -0.5000002384185791
vn 0.24794594943523407 0.9469192624092102 0.20461386442184448
vn 0.2479459047317505 0.9469192624092102 0.20461386442184448
vn 0.24794594943523407 0.9469192624092102 0.20461386442184448
vn 0.24794591963291168 0.9469192624092102 0.20461387932300568
vn 0.24794591963291168 0.9469192624092102 0.20461387932300568
vn 0.24794594943523407 0.9469192624092102 0.20461387932300568
vn 0.8660255074501038 0.0 0.49999985098838806
vn 0.8660255074501038 0.0 0.49999991059303284
vn 0.8660255074501038 0.0 0.49999991059303284
vn 0.8660255074501038 0.0 0.49999985098838806
vn -0.8463593125343323 -0.000241077970713377 0.5326123237609863
vn -0.8463593125343323 -0.00024107799981720746 0.5326124429702759
vn -0.8463593125343323 -0.00024107799981720746 0.5326124429702759
vn -0.8463593125343323 -0.00024107799981720746 0.5326123833656311
vn -0.8463593125343323 -0.000241077970713377 0.5326124429702759
vn -0.18155713379383087 0.0 0.9833804368972778
vn -0.18155713379383087 0.0 0.9833804368972778
vn -0.18155714869499207 0.0 0.9833804368972778
vn -0.18155713379383087 0.0 0.9833804368972778
vn -0.42786335945129395 0.9004228711128235 0.07855924963951111
vn -0.4278634190559387 0.9004228711128235 0.07855924963951111
vn -0.4278634190559387 0.9004228711128235 0.07855924963951111
vn -0.4278634190559387 0.9004228711128235 0.07855924963951111
vt 0.9227714538574219 0.7622507810592651
vt 0.9761813879013062 0.7715660929679871
vt 0.9761682748794556 0.9999982416629791
vt 0.9227574467658997 0.9999982416629791
vt 0.6556167602539062 0.7714376747608185
vt 0.6159059405326843 0.7347140312194824
vt 0.6251739859580994 0.697012335062027
vt 0.6890496611595154 0.7554782330989838
vt 0.6382086277008057 0.696843147277832
vt 0.9227714538574219 0.7622507810592651
vt 0.9227574467658997 0.9999982416629791
vt 0.8693454265594482 0.9999982416629791
vt 0.869365930557251 0.747831404209137
vt 0.890583872795105 0.741184651851654
vt 0.7091888785362244 0.7619077861309052
vt 0.7090886235237122 0.9999982416629791
vt 0.6556645035743713 0.9999982416629791
vt 0.6556167602539062 0.7714376747608185
vt 0.6890496611595154 0.7554782330989838
vt 0.7095717191696167 0.750117838382721
vt 0.6890496611595154 0.7554782330989838
vt 0.6382086277008057 0.696843147277832
vt 0.658031165599823 0.6684620976448059
vt 0.7227563261985779 0.698826014995575
vt 0.6825335621833801 0.6619207859039307
vt 0.7090886235237122 0.9999982416629791
vt 0.7091888785362244 0.7619077861309052
vt 0.7625769376754761 0.7649587988853455
vt 0.7625159025192261 0.9999982416629791
vt 0.869365930557251 0.747831404209137
vt 0.8693454265594482 0.9999982416629791
vt 0.815934419631958 0.9999982416629791
vt 0.8159734606742859 0.750992476940155
vt 0.84061598777771 0.7431572377681732
vt 0.7625159025192261 0.9999982416629791
vt 0.7625769376754761 0.7649587988853455
vt 0.8159734606742859 0.750992476940155
vt 0.815934419631958 0.9999982416629791
vt 0.6382086277008057 0.696843147277832
vt 0.6251739859580994 0.697012335062027
vt 0.6297184228897095 0.6744125485420227
vt 0.658031165599823 0.6684620976448059

g equalizer_crystal_0021
s 1
usemtl equalizer_crystal_0021
f 1/1/1 2/2/2 3/3/3 
f 1/1/1 3/3/3 4/4/4 
f 5/5/5 6/6/6 7/7/7 
f 7/7/7 8/8/8 5/5/5 
f 7/7/7 9/9/9 8/8/8 
f 10/10/10 11/11/11 12/12/12 
f 12/12/12 13/13/13 10/10/10 
f 13/13/13 14/14/14 10/10/10 
f 15/15/15 16/16/16 17/17/17 
f 17/17/17 18/18/18 15/15/15 
f 18/18/18 19/19/19 15/15/15 
f 20/20/20 21/21/21 22/22/22 
f 22/22/22 23/23/23 20/20/20 
f 23/23/23 24/24/24 20/20/20 
f 23/23/23 25/25/25 24/24/24 
f 26/26/26 27/27/27 28/28/28 
f 26/26/26 28/28/28 29/29/29 
f 30/30/30 31/31/31 32/32/32 
f 32/32/32 33/33/33 30/30/30 
f 33/33/33 34/34/34 30/30/30 
f 35/35/35 36/36/36 37/37/37 
f 35/35/35 37/37/37 38/38/38 
f 39/39/39 40/40/40 41/41/41 
f 39/39/39 41/41/41 42/42/42 

