v 0.589463472366333 -1.9684630632400513 0.5086230635643005
v -0.1884254366159439 -2.1659021377563477 0.9265087842941284
v -0.9358929395675659 -2.1729114055633545 0.03364257887005806
v 0.39173826575279236 -1.80108642578125 -0.9265087842941284
v 0.9358929395675659 -1.8085485696792603 -0.18747557699680328
v -0.21915587782859802 -1.909816861152649 -0.9265087842941284
v -0.9358929395675659 2.124676465988159 0.03364257887005806
v 0.9358929395675659 1.1119738817214966 -0.18747557699680328
v 0.39173826575279236 1.0357848405838013 -0.9265087842941284
v -0.21915587782859802 1.3330090045928955 -0.9265087842941284
v 0.589463472366333 1.601656436920166 0.5086230635643005
v -0.1884254366159439 2.1729114055633545 0.9265087842941284
v -0.9358929395675659 -2.1729114055633545 0.03364257887005806
v -0.1884254366159439 -2.1659021377563477 0.9265087842941284
v -0.1884254366159439 2.1729114055633545 0.9265087842941284
v -0.9358929395675659 2.124676465988159 0.03364257887005806
v -0.21915587782859802 -1.909816861152649 -0.9265087842941284
v -0.9358929395675659 -2.1729114055633545 0.03364257887005806
v -0.9358929395675659 2.124676465988159 0.03364257887005806
v -0.21915587782859802 1.3330090045928955 -0.9265087842941284
v 0.39173826575279236 1.0357848405838013 -0.9265087842941284
v 0.39173826575279236 -1.80108642578125 -0.9265087842941284
v -0.21915587782859802 -1.909816861152649 -0.9265087842941284
v -0.21915587782859802 1.3330090045928955 -0.9265087842941284
v 0.9358929395675659 1.1119738817214966 -0.18747557699680328
v 0.9358929395675659 -1.8085485696792603 -0.18747557699680328
v 0.39173826575279236 -1.80108642578125 -0.9265087842941284
v 0.39173826575279236 1.0357848405838013 -0.9265087842941284
v 0.589463472366333 1.601656436920166 0.5086230635643005
v 0.589463472366333 -1.9684630632400513 0.5086230635643005
v 0.9358929395675659 -1.8085485696792603 -0.18747557699680328
v 0.9358929395675659 1.1119738817214966 -0.18747557699680328
v 0.589463472366333 1.601656436920166 0.5086230635643005
v -0.1884254366159439 2.1729114055633545 0.9265087842941284
v -0.1884254366159439 -2.1659021377563477 0.9265087842941284
v 0.589463472366333 -1.9684630632400513 0.5086230635643005
vn 0.1735640913248062 -0.9751561284065247 -0.13764406740665436
vn 0.17356407642364502 -0.9751561284065247 -0.13764406740665436
vn 0.17356407642364502 -0.9751561284065247 -0.13764406740665436
vn 0.17356407642364502 -0.9751562476158142 -0.13764408230781555
vn 0.1735653281211853 -0.9751561284065247 -0.13764290511608124
vn 0.17356401681900024 -0.9751562476158142 -0.13764417171478271
vn 0.404110848903656 0.8305848240852356 -0.3831751048564911
vn 0.40411078929901123 0.8305848240852356 -0.3831751048564911
vn 0.404110848903656 0.8305849432945251 -0.3831751048564911
vn 0.40411078929901123 0.8305848240852356 -0.3831751048564911
vn 0.40411078929901123 0.830585241317749 -0.38317427039146423
vn 0.40411078929901123 0.830585241317749 -0.38317427039146423
vn -0.7667781114578247 0.0 0.6419122815132141
vn -0.7667781114578247 0.0 0.6419122815132141
vn -0.7667781114578247 0.0 0.6419122815132141
vn -0.7667781114578247 0.0 0.6419122815132141
vn -0.8013505339622498 0.0 -0.5981950163841248
vn -0.8013505339622498 0.0 -0.5981950163841248
vn -0.8013505339622498 0.0 -0.5981950163841248
vn -0.8013505339622498 0.0 -0.59819495677948
vn 0.0 0.0 -1.0
vn 0.0 0.0 -1.0
vn 0.0 0.0 -1.0
vn 0.0 0.0 -1.0
vn 0.8052617907524109 0.0 -0.5929194092750549
vn 0.8052619099617004 0.0 -0.5929193496704102
vn 0.8052619099617004 0.0 -0.5929193496704102
vn 0.8052617907524109 0.0 -0.5929192900657654
vn 0.8952589631080627 0.0 0.44554606080055237
vn 0.8952589631080627 0.0 0.44554609060287476
vn 0.8952590823173523 0.0 0.44554606080055237
vn 0.8952589631080627 0.0 0.44554606080055237
vn 0.47324123978614807 0.0 0.8809329271316528
vn 0.47324123978614807 0.0 0.8809328079223633
vn 0.47324123978614807 0.0 0.8809328079223633
vn 0.47324123978614807 0.0 0.8809328079223633
vt 0.8767317533493042 0.17470991611480713
vt 0.9439417123794556 0.2998204231262207
vt 0.8003389835357666 0.4200381636619568
vt 0.6459146738052368 0.2065107226371765
vt 0.7647758722305298 0.11899250745773315
vt 0.6459146738052368 0.30476289987564087
vt 0.48568734526634216 0.3030373454093933
vt 0.5212506055831909 0.0019919276237487793
vt 0.6401118040084839 0.08951020240783691
vt 0.6401118040084839 0.18776226043701172
vt 0.40929466485977173 0.05770903825759888
vt 0.3420848250389099 0.18281954526901245
vt 0.24721239507198334 0.9980077410582453
vt 0.12699462473392487 0.9968804444652051
vt 0.12699462473392487 0.29905444383621216
vt 0.24721239507198334 0.3068122863769531
vt 0.44038042426109314 0.34912651777267456
vt 0.5556557178497314 0.3068122863769531
vt 0.5556557178497314 0.9980079054366797
vt 0.44038042426109314 0.8706816136837006
vt 0.3421282470226288 0.8228779286146164
vt 0.3421282470226288 0.3666146397590637
vt 0.44038042426109314 0.34912651777267456
vt 0.44038042426109314 0.8706816136837006
vt 0.2546100616455078 0.8351318091154099
vt 0.2546100616455078 0.36541396379470825
vt 0.3421282470226288 0.3666146397590637
vt 0.3421282470226288 0.8228779286146164
vt 0.6744086146354675 0.4238133430480957
vt 0.6744086146354675 0.9980077410582453
vt 0.5624527335166931 0.9722881428897381
vt 0.5624527335166931 0.5025704503059387
vt 0.001884118071757257 0.39093124866485596
vt 0.12699462473392487 0.29905444383621216
vt 0.12699462473392487 0.9968804444652051
vt 0.001884118071757257 0.9651256836950779

g equalizer_crystal_007_shard_003
s 1
usemtl equalizer_crystal_007_shard_003
f 1/1/1 2/2/2 3/3/3 
f 1/1/1 3/3/3 4/4/4 
f 1/1/1 4/4/4 5/5/5 
f 3/3/3 6/6/6 4/4/4 
f 7/7/7 8/8/8 9/9/9 
f 7/7/7 9/9/9 10/10/10 
f 7/7/7 11/11/11 8/8/8 
f 7/7/7 12/12/12 11/11/11 
f 13/13/13 14/14/14 15/15/15 
f 13/13/13 15/15/15 16/16/16 
f 17/17/17 18/18/18 19/19/19 
f 17/17/17 19/19/19 20/20/20 
f 21/21/21 22/22/22 23/23/23 
f 21/21/21 23/23/23 24/24/24 
f 25/25/25 26/26/26 27/27/27 
f 25/25/25 27/27/27 28/28/28 
f 29/29/29 30/30/30 31/31/31 
f 29/29/29 31/31/31 32/32/32 
f 33/33/33 34/34/34 35/35/35 
f 33/33/33 35/35/35 36/36/36 

