v -1.011993646621704 2.664055109024048 0.11301757395267487
v -0.14201225340366364 2.3311963081359863 0.7647168040275574
v -0.11381042003631592 2.3928821086883545 0.015864256769418716
v -0.26247480511665344 2.5127525329589844 -0.7647168040275574
v 0.5472378134727478 2.260045051574707 -0.7647168040275574
v 1.011993646621704 2.0587573051452637 -0.16723144054412842
v 0.47510984539985657 2.138786554336548 0.7626757621765137
v 0.5472378134727478 2.260045051574707 -0.7647168040275574
v 1.011993646621704 2.0587573051452637 -0.16723144054412842
v 0.5472378134727478 -2.664055109024048 -0.7647168040275574
v 1.011993646621704 -2.664055109024048 -0.16723144054412842
v 0.5472378134727478 2.260045051574707 -0.7647168040275574
v 0.5472378134727478 -2.664055109024048 -0.7647168040275574
v -0.26247480511665344 2.5127525329589844 -0.7647168040275574
v -0.26247480511665344 -2.664055109024048 -0.7647168040275574
v -0.26247480511665344 2.5127525329589844 -0.7647168040275574
v -0.26247480511665344 -2.664055109024048 -0.7647168040275574
v -1.011993646621704 2.664055109024048 0.11301757395267487
v -1.011993646621704 -2.664055109024048 0.11301757395267487
v -1.011993646621704 2.664055109024048 0.11301757395267487
v -1.011993646621704 -2.664055109024048 0.11301757395267487
v -0.14201225340366364 2.3311963081359863 0.7647168040275574
v -0.14201225340366364 -2.664055109024048 0.7647168040275574
v -0.14201225340366364 2.3311963081359863 0.7647168040275574
v -0.14201225340366364 -2.664055109024048 0.7647168040275574
v 0.47510984539985657 2.138786554336548 0.7626757621765137
v 0.47510984539985657 -2.664055109024048 0.7626757621765137
v 0.47510984539985657 2.138786554336548 0.7626757621765137
v 0.47510984539985657 -2.664055109024048 0.7626757621765137
v 1.011993646621704 2.0587573051452637 -0.16723144054412842
v 1.011993646621704 -2.664055109024048 -0.16723144054412842
v 1.011993646621704 -2.664055109024048 -0.16723144054412842
v 0.47510984539985657 -2.664055109024048 0.7626757621765137
v -0.14201225340366364 -2.664055109024048 0.7647168040275574
v 0.5472378134727478 -2.664055109024048 -0.7647168040275574
v -0.26247480511665344 -2.664055109024048 -0.7647168040275574
v -1.011993646621704 -2.664055109024048 0.11301757395267487
vn 0.29672667384147644 0.9507598280906677 0.08949296176433563
vn 0.29672670364379883 0.9507598280906677 0.08949296921491623
vn 0.29672667384147644 0.9507598280906677 0.08949296921491623
vn 0.29672667384147644 0.950760006904602 0.0894910916686058
vn 0.29672759771347046 0.9507597088813782 0.08949147909879684
vn 0.2967282235622406 0.9507594704627991 0.08949192613363266
vn 0.29672831296920776 0.9507592916488647 0.0894930437207222
vn 0.7893233299255371 0.0 -0.6139776706695557
vn 0.7893233895301819 0.0 -0.6139776110649109
vn 0.7893233299255371 0.0 -0.6139776706695557
vn 0.7893233299255371 0.0 -0.6139776706695557
vn 0.0 0.0 -1.0
vn 0.0 0.0 -1.0
vn 0.0 0.0 -1.0
vn 0.0 0.0 -1.0
vn -0.760464608669281 0.0 -0.6493794322013855
vn -0.760464608669281 0.0 -0.6493794322013855
vn -0.7604646682739258 0.0 -0.6493793725967407
vn -0.760464608669281 0.0 -0.6493794322013855
vn -0.599536657333374 0.0 0.8003472685813904
vn -0.599536657333374 0.0 0.8003473877906799
vn -0.599536657333374 0.0 0.8003472685813904
vn -0.599536657333374 0.0 0.8003473877906799
vn 0.0033072703517973423 0.0 0.9999945163726807
vn 0.0033072703517973423 0.0 0.9999945163726807
vn 0.0033072701189666986 0.0 0.9999945163726807
vn 0.003307181876152754 0.0 0.9999945163726807
vn 0.8660247921943665 0.0 0.5000011324882507
vn 0.8660247921943665 0.0 0.500001072883606
vn 0.8660247921943665 0.0 0.5000011324882507
vn 0.8660247325897217 0.0 0.5000011324882507
vn 0.0 -1.0 0.0
vn 0.0 -1.0 0.0
vn 0.0 -1.0 0.0
vn 0.0 -1.0 0.0
vn 0.0 -1.0 0.0
vn 0.0 -1.0 0.0
vt 0.8464834690093994 0.6447648406028748
vt 0.7339797616004944 0.4945787787437439
vt 0.8632552623748779 0.4897102117538452
vt 0.9980080127716064 0.5153746008872986
vt 0.9980080127716064 0.3755926489830017
vt 0.8948633074760437 0.29536110162734985
vt 0.7343317866325378 0.38804417848587036
vt 0.0822235718369484 0.9284153059124947
vt 0.0019920533522963524 0.8936670124530792
vt 0.0822235718369484 0.07836073637008667
vt 0.0019920533522963524 0.07836073637008667
vt 0.0822235718369484 0.9284153059124947
vt 0.0822235718369484 0.07836073637008667
vt 0.22200536727905273 0.9720406383275986
vt 0.22200536727905273 0.07836073637008667
vt 0.22200536727905273 0.9720406383275986
vt 0.22200536727905273 0.07836073637008667
vt 0.35139596462249756 0.9981604753993452
vt 0.35139596462249756 0.07836073637008667
vt 0.7082491517066956 0.0783606767654419
vt 0.7082491517066956 0.9981602106709033
vt 0.5580629706382751 0.13582253456115723
vt 0.5580629706382751 0.9981602106709033
vt 0.5580629706382751 0.13582253456115723
vt 0.5580629706382751 0.9981602106709033
vt 0.4515283405780792 0.16903847455978394
vt 0.4515283405780792 0.9981602106709033
vt 0.4515283405780792 0.16903847455978394
vt 0.4515283405780792 0.9981602106709033
vt 0.3588452637195587 0.18285411596298218
vt 0.3588452637195587 0.9981602106709033
vt 0.8186482787132263 0.6487563848495483
vt 0.9791796207427979 0.7414394617080688
vt 0.97953200340271 0.8479740619659424
vt 0.7155035138130188 0.7289879024028778
vt 0.7155035138130188 0.8687696903944016
vt 0.8670281171798706 0.9981602989137173

g equalizer_crystal_006_shard_003
s 1
usemtl equalizer_crystal_006_shard_003
f 1/1/1 2/2/2 3/3/3 
f 4/4/4 1/1/1 3/3/3 
f 5/5/5 4/4/4 3/3/3 
f 6/6/6 5/5/5 3/3/3 
f 6/6/6 3/3/3 7/7/7 
f 7/7/7 3/3/3 2/2/2 
f 8/8/8 9/9/9 10/10/10 
f 9/9/9 11/11/11 10/10/10 
f 12/12/12 13/13/13 14/14/14 
f 14/14/14 13/13/13 15/15/15 
f 16/16/16 17/17/17 18/18/18 
f 18/18/18 17/17/17 19/19/19 
f 20/20/20 21/21/21 22/22/22 
f 22/22/22 21/21/21 23/23/23 
f 24/24/24 25/25/25 26/26/26 
f 26/26/26 25/25/25 27/27/27 
f 28/28/28 29/29/29 30/30/30 
f 29/29/29 31/31/31 30/30/30 
f 32/32/32 33/33/33 34/34/34 
f 32/32/32 34/34/34 35/35/35 
f 34/34/34 36/36/36 35/35/35 
f 34/34/34 37/37/37 36/36/36 

