v -0.3414802551269531 1.2408860921859741 -0.6051074266433716
v -0.6093662977218628 1.3279402256011963 -0.13789550960063934
v -0.4381318688392639 1.1489689350128174 0.4353613257408142
v 0.45970839262008667 0.76163250207901 -0.4548681676387787
v 0.16219878196716309 0.7817772030830383 0.6051074266433716
v 0.6093662977218628 0.5876844525337219 0.1700732409954071
v 0.6093662977218628 0.5876844525337219 0.1700732409954071
v 0.45970839262008667 -1.2710773944854736 -0.4548681676387787
v 0.45970839262008667 0.76163250207901 -0.4548681676387787
v 0.6093662977218628 -1.2710773944854736 0.1700732409954071
v -0.3414802551269531 1.2408860921859741 -0.6051074266433716
v 0.45970839262008667 0.76163250207901 -0.4548681676387787
v -0.3414802551269531 -1.288610816001892 -0.6051074266433716
v 0.45970839262008667 -1.2710773944854736 -0.4548681676387787
v -0.6093662977218628 1.3279402256011963 -0.13789550960063934
v -0.3414802551269531 1.2408860921859741 -0.6051074266433716
v -0.6093662977218628 -1.2805052995681763 -0.13789550960063934
v -0.3414802551269531 -1.288610816001892 -0.6051074266433716
v -0.6093662977218628 -1.2805052995681763 -0.13789550960063934
v -0.4381318688392639 -1.2710773944854736 0.4353613257408142
v -0.6093662977218628 1.3279402256011963 -0.13789550960063934
v -0.4381318688392639 1.1489689350128174 0.4353613257408142
v -0.4381318688392639 1.1489689350128174 0.4353613257408142
v -0.4381318688392639 -1.2710773944854736 0.4353613257408142
v 0.16219878196716309 0.7817772030830383 0.6051074266433716
v 0.16219878196716309 -1.2710773944854736 0.6051074266433716
v 0.16219878196716309 0.7817772030830383 0.6051074266433716
v 0.16219878196716309 -1.2710773944854736 0.6051074266433716
v 0.6093662977218628 -1.2710773944854736 0.1700732409954071
v 0.6093662977218628 0.5876844525337219 0.1700732409954071
v 0.45970839262008667 -1.2710773944854736 -0.4548681676387787
v 0.6093662977218628 -1.2710773944854736 0.1700732409954071
v -0.6093662977218628 -1.2805052995681763 -0.13789550960063934
v -0.3414802551269531 -1.288610816001892 -0.6051074266433716
v -0.4381318688392639 -1.2710773944854736 0.4353613257408142
v 0.16219878196716309 -1.2710773944854736 0.6051074266433716
vn 0.4925878643989563 0.8616857528686523 0.12188061326742172
vn 0.4925878345966339 0.8616857528686523 0.12188059836626053
vn 0.4925878643989563 0.8616857528686523 0.12188061326742172
vn 0.49258676171302795 0.8616863489151001 0.12188076972961426
vn 0.49258726835250854 0.8616859316825867 0.1218816414475441
vn 0.49258801341056824 0.861685574054718 0.12188121676445007
vn 0.9725030660629272 0.0 -0.23289020359516144
vn 0.9725030660629272 0.0 -0.23289021849632263
vn 0.9725030660629272 0.0 -0.23289018869400024
vn 0.9725030660629272 0.0 -0.23289024829864502
vn 0.1843080073595047 0.0 -0.9828685522079468
vn 0.1843080073595047 0.0 -0.9828685522079468
vn 0.1843080073595047 0.0 -0.9828685522079468
vn 0.18430760502815247 0.0 -0.9828686714172363
vn -0.8675163388252258 0.0 -0.4974087178707123
vn -0.8675163388252258 0.0 -0.4974086582660675
vn -0.8675163388252258 0.0 -0.4974086582660675
vn -0.867516040802002 0.0 -0.49740904569625854
vn -0.9581671953201294 0.0 0.28620901703834534
vn -0.9581671953201294 0.0 0.28620898723602295
vn -0.9581671953201294 0.0 0.28620901703834534
vn -0.9581671953201294 0.0 0.2862090468406677
vn -0.2720860540866852 0.0 0.9622730016708374
vn -0.2720860540866852 0.0 0.9622730016708374
vn -0.2720860540866852 0.0 0.9622728824615479
vn -0.2720867991447449 0.0 0.9622727632522583
vn 0.6973152756690979 0.0 0.7167645692825317
vn 0.6973152756690979 0.0 0.7167646288871765
vn 0.6973152756690979 0.0 0.7167645692825317
vn 0.6973156332969666 0.0 0.7167640924453735
vn 0.01138349249958992 -0.999897837638855 0.008652973920106888
vn 0.011383491568267345 -0.999897837638855 0.008652973920106888
vn 0.01138349249958992 -0.999897837638855 0.008652973920106888
vn 0.01138349249958992 -0.999897837638855 0.008652973920106888
vn 0.002544308314099908 -0.9999463558197021 0.010046271607279778
vn 0.0025443078484386206 -0.9999463558197021 0.010046270675957203
vt 0.9980080723762512 0.4300767183303833
vt 0.8844432830810547 0.49519169330596924
vt 0.7451017498970032 0.45356959104537964
vt 0.9614896178245544 0.23533189296722412
vt 0.7038416266441345 0.3076469302177429
vt 0.8095853924751282 0.19895416498184204
vt 0.7699605226516724 0.5463604629039764
vt 0.618056058883667 0.998169653234072
vt 0.618056058883667 0.5040791630744934
vt 0.7699605226516724 0.998169653234072
vt 0.45614275336265564 0.9981695289025083
vt 0.26139792799949646 0.8816775903105736
vt 0.45614275336265564 0.38332515954971313
vt 0.26139792799949646 0.3875865936279297
vt 0.14133355021476746 0.36216485500335693
vt 0.2548983097076416 0.38332515954971313
vt 0.14133355021476746 0.9961994856130332
vt 0.2548983097076416 0.998169653234072
vt 0.14133355021476746 0.9961994856130332
vt 0.0019920417107641697 0.993907792493701
vt 0.14133355021476746 0.36216485500335693
vt 0.0019920417107641697 0.40566736459732056
vt 0.6100112199783325 0.40992921590805054
vt 0.6100112199783325 0.998169653234072
vt 0.4640887975692749 0.4991825819015503
vt 0.4640887975692749 0.998169653234072
vt 0.875704288482666 0.4991825819015503
vt 0.875704288482666 0.998169653234072
vt 0.7699605226516724 0.998169653234072
vt 0.7699605226516724 0.5463604629039764
vt 0.44005802273750305 0.11947417259216309
vt 0.5919625163078308 0.08309692144393921
vt 0.5171046257019043 0.3793342113494873
vt 0.4035393297672272 0.31421899795532227
vt 0.656446099281311 0.3377121090888977
vt 0.6977062821388245 0.19178974628448486

g equalizer_crystal_0012_shard_002
s 1
usemtl equalizer_crystal_0012_shard_002
f 1/1/1 2/2/2 3/3/3 
f 4/4/4 1/1/1 3/3/3 
f 4/4/4 3/3/3 5/5/5 
f 4/4/4 5/5/5 6/6/6 
f 7/7/7 8/8/8 9/9/9 
f 8/8/8 7/7/7 10/10/10 
f 11/11/11 12/12/12 13/13/13 
f 13/13/13 12/12/12 14/14/14 
f 15/15/15 16/16/16 17/17/17 
f 16/16/16 18/18/18 17/17/17 
f 19/19/19 20/20/20 21/21/21 
f 21/21/21 20/20/20 22/22/22 
f 23/23/23 24/24/24 25/25/25 
f 25/25/25 24/24/24 26/26/26 
f 27/27/27 28/28/28 29/29/29 
f 27/27/27 29/29/29 30/30/30 
f 31/31/31 32/32/32 33/33/33 
f 31/31/31 33/33/33 34/34/34 
f 32/32/32 35/35/35 33/33/33 
f 32/32/32 36/36/36 35/35/35 

