v -0.5042599439620972 3.2087888717651367 -0.8734033107757568
v 0.6345205307006836 4.768225193023682 -0.6477831602096558
v 0.32726532220840454 4.811394691467285 -0.8734033107757568
v 1.0085195302963257 3.664870023727417 0.0
v 0.2535838186740875 -0.2496350109577179 0.8734033107757568
v -1.0085195302963257 -0.22258666157722473 0.0
v -0.5042599439620972 -1.7102330923080444 0.8734033107757568
v 0.6345205307006836 4.768225193023682 -0.6477831602096558
v 1.0085195302963257 3.664870023727417 0.0
v 0.5042593479156494 -4.84705924987793 -0.8734033107757568
v 0.5042593479156494 4.84705924987793 -0.8734033107757568
v 1.0085195302963257 -4.84705924987793 0.0
v 0.2535838186740875 -0.2496350109577179 0.8734033107757568
v 0.2535838186740875 -4.84705924987793 0.8734033107757568
v 1.0085195302963257 -4.84705924987793 0.0
v 1.0085195302963257 3.664870023727417 0.0
v 0.6345205307006836 4.768225193023682 -0.6477831602096558
v 0.5042593479156494 4.84705924987793 -0.8734033107757568
v 0.32726532220840454 4.811394691467285 -0.8734033107757568
v 0.5042593479156494 -4.84705924987793 -0.8734033107757568
v -0.5042599439620972 3.2087888717651367 -0.8734033107757568
v 0.32726532220840454 4.811394691467285 -0.8734033107757568
v 0.5042593479156494 4.84705924987793 -0.8734033107757568
v -0.5042599439620972 -4.84705924987793 -0.8734033107757568
v -0.5042599439620972 -4.84705924987793 -0.8734033107757568
v -1.0085195302963257 -4.84705924987793 0.0
v -1.0085195302963257 -0.22258666157722473 0.0
v -0.5042599439620972 3.2087888717651367 -0.8734033107757568
v -1.0085195302963257 -4.84705924987793 0.0
v -0.5042599439620972 -4.84705924987793 0.8734033107757568
v -0.5042599439620972 -1.7102330923080444 0.8734033107757568
v -1.0085195302963257 -0.22258666157722473 0.0
v -0.5042599439620972 -1.7102330923080444 0.8734033107757568
v -0.5042599439620972 -4.84705924987793 0.8734033107757568
v 0.2535838186740875 -4.84705924987793 0.8734033107757568
v 0.2535838186740875 -0.2496350109577179 0.8734033107757568
v -1.0085195302963257 -4.84705924987793 0.0
v -0.5042599439620972 -4.84705924987793 -0.8734033107757568
v 0.5042593479156494 -4.84705924987793 -0.8734033107757568
v 1.0085195302963257 -4.84705924987793 0.0
v -0.5042599439620972 -4.84705924987793 0.8734033107757568
v 0.2535838186740875 -4.84705924987793 0.8734033107757568
vn -0.5420056581497192 0.2812238335609436 0.7919236421585083
vn -0.5420055985450745 0.281223863363266 0.7919236421585083
vn -0.5420056581497192 0.281223863363266 0.7919236421585083
vn -0.5420027375221252 0.28122207522392273 0.7919262647628784
vn -0.5420031547546387 0.28122279047966003 0.7919257283210754
vn -0.5420032143592834 0.28122273087501526 0.7919257283210754
vn -0.5420029759407043 0.2812229096889496 0.7919257283210754
vn 0.8660252690315247 0.0 -0.5000003576278687
vn 0.8660252690315247 0.0 -0.5000004172325134
vn 0.8660252690315247 0.0 -0.5000004172325134
vn 0.8660252690315247 0.0 -0.5000004172325134
vn 0.8660250902175903 0.0 -0.500000536441803
vn 0.7565518021583557 0.0 0.6539337635040283
vn 0.7565518021583557 0.0 0.6539337038993835
vn 0.7565518021583557 0.0 0.6539337038993835
vn 0.7565518021583557 0.0 0.6539337635040283
vn -0.17968812584877014 0.8917431235313416 0.4153389632701874
vn -0.17968814074993134 0.8917431235313416 0.4153388738632202
vn -0.17968815565109253 0.8917431235313416 0.4153389036655426
vn 0.0 0.0 -1.0
vn 0.0 0.0 -1.0
vn 0.0 0.0 -1.0
vn 0.0 0.0 -1.0
vn 0.0 0.0 -1.0
vn -0.866025447845459 0.0 -0.4999999701976776
vn -0.866025447845459 0.0 -0.4999999701976776
vn -0.866025447845459 0.0 -0.4999999701976776
vn -0.866025447845459 0.0 -0.4999999701976776
vn -0.866025447845459 0.0 0.49999991059303284
vn -0.866025447845459 0.0 0.49999991059303284
vn -0.866025447845459 0.0 0.4999999701976776
vn -0.866025447845459 0.0 0.49999991059303284
vn 0.0 0.0 1.0
vn 0.0 0.0 1.0
vn 0.0 0.0 1.0
vn 0.0 0.0 1.0
vn 0.0 -1.0 0.0
vn 0.0 -1.0 0.0
vn 0.0 -1.0 0.0
vn 0.0 -1.0 0.0
vn 0.0 -1.0 0.0
vn 0.0 -1.0 0.0
vt 0.3424600064754486 0.17031490802764893
vt 0.319278746843338 0.010091543197631836
vt 0.3424600064754486 0.005656301975250244
vt 0.2527225911617279 0.12345516681671143
vt 0.1629854142665863 0.525648444890976
vt 0.2527225911617279 0.5228694677352905
vt 0.1629854142665863 0.6757167279720306
vt 0.03986440226435661 0.9899083022028208
vt 0.001438083709217608 0.8765448108315468
vt 0.05324797332286835 0.0019919276237487793
vt 0.05324797332286835 0.998007885646075
vt 0.001438083709217608 0.0019919276237487793
vt 0.42702072858810425 0.525648444890976
vt 0.42702072858810425 0.9980079382658005
vt 0.3494553565979004 0.9980079382658005
vt 0.3494553565979004 0.12345516681671143
vt 0.6972933411598206 0.9664391800761223
vt 0.7204745411872864 0.9798226989805698
vt 0.7204745411872864 0.998007885646075
vt 0.05324797332286835 0.0019919276237487793
vt 0.15686769783496857 0.8296851515769958
vt 0.07143311202526093 0.9943434880115092
vt 0.05324797332286835 0.998007885646075
vt 0.15686769783496857 0.0019919276237487793
vt 0.3424600064754486 0.9980079382658005
vt 0.2527225911617279 0.9980079382658005
vt 0.2527225911617279 0.5228694677352905
vt 0.3424600064754486 0.17031490802764893
vt 0.2527225911617279 0.9980079382658005
vt 0.1629854142665863 0.9980079382658005
vt 0.1629854142665863 0.6757167279720306
vt 0.2527225911617279 0.5228694677352905
vt 0.5048849582672119 0.6757167279720306
vt 0.5048849582672119 0.9980079382658005
vt 0.42702072858810425 0.9980079382658005
vt 0.42702072858810425 0.525648444890976
vt 0.6005607843399048 0.9980079908855259
vt 0.5108234882354736 0.9461982063949108
vt 0.5108234882354736 0.8425784707069397
vt 0.6005607843399048 0.7907685786485672
vt 0.6902980804443359 0.9461982063949108
vt 0.6902980804443359 0.8683339655399323

g equalizer_crystal_002_shard_003
s 1
usemtl equalizer_crystal_002_shard_003
f 1/1/1 2/2/2 3/3/3 
f 2/2/2 1/1/1 4/4/4 
f 5/5/5 4/4/4 1/1/1 
f 6/6/6 5/5/5 1/1/1 
f 6/6/6 7/7/7 5/5/5 
f 8/8/8 9/9/9 10/10/10 
f 8/8/8 10/10/10 11/11/11 
f 9/9/9 12/12/12 10/10/10 
f 13/13/13 14/14/14 15/15/15 
f 13/13/13 15/15/15 16/16/16 
f 17/17/17 18/18/18 19/19/19 
f 20/20/20 21/21/21 22/22/22 
f 20/20/20 22/22/22 23/23/23 
f 20/20/20 24/24/24 21/21/21 
f 25/25/25 26/26/26 27/27/27 
f 25/25/25 27/27/27 28/28/28 
f 29/29/29 30/30/30 31/31/31 
f 29/29/29 31/31/31 32/32/32 
f 33/33/33 34/34/34 35/35/35 
f 33/33/33 35/35/35 36/36/36 
f 37/37/37 38/38/38 39/39/39 
f 39/39/39 40/40/40 37/37/37 
f 40/40/40 41/41/41 37/37/37 
f 40/40/40 42/42/42 41/41/41 

