v 0.7068378925323486 0.0 -0.8848881125450134
v -0.44829389452934265 0.0 -0.9432594180107117
v -0.44789931178092957 7.944273471832275 -0.9426190853118896
v -0.31346482038497925 8.852724075317383 -0.9333633184432983
v 0.7109920978546143 8.610698699951172 -0.8857300877571106
v -0.9186634421348572 7.313777446746826 0.1602238416671753
v -0.44789931178092957 7.944273471832275 -0.9426190853118896
v -0.44829389452934265 0.0 -0.9432594180107117
v -0.9180665612220764 0.0 0.16040191054344177
v -0.44789931178092957 7.944273471832275 -0.9426190853118896
v -0.9186634421348572 7.313777446746826 0.1602238416671753
v -0.8212501406669617 8.094584465026855 0.3382473587989807
v -0.31346482038497925 8.852724075317383 -0.9333633184432983
v -0.3178260624408722 8.870820045471191 -0.9014258980751038
v -0.9186634421348572 7.313777446746826 0.1602238416671753
v -0.9180665612220764 0.0 0.16040191054344177
v -0.5084446668624878 0.0 0.880652129650116
v -0.5084446668624878 8.187438011169434 0.880652129650116
v -0.8212501406669617 8.094584465026855 0.3382473587989807
v 1.1340004205703735 8.679898262023926 -0.1756628304719925
v 1.1357239484786987 0.0 -0.17710624635219574
v 0.7068378925323486 0.0 -0.8848881125450134
v 0.7109920978546143 8.610698699951172 -0.8857300877571106
v 1.0260376930236816 8.839777946472168 -0.32353857159614563
v -0.10733077675104141 8.99096965789795 -0.5092632174491882
v -0.3178260624408722 8.870820045471191 -0.9014258980751038
v -0.8212501406669617 8.094584465026855 0.3382473587989807
v 0.17367751896381378 9.011967658996582 0.2044706642627716
v 0.04583480581641197 8.697857856750488 0.8087060451507568
v -0.5084446668624878 8.187438011169434 0.880652129650116
v 0.5880494713783264 8.422555923461914 0.7359904050827026
v 0.587350606918335 0.0 0.738542914390564
v 1.1357239484786987 0.0 -0.17710624635219574
v 1.1340004205703735 8.679898262023926 -0.1756628304719925
v 0.04583480581641197 8.697857856750488 0.8087060451507568
v -0.5084446668624878 8.187438011169434 0.880652129650116
v -0.5084446668624878 0.0 0.880652129650116
v 0.587350606918335 0.0 0.738542914390564
v 0.5880494713783264 8.422555923461914 0.7359904050827026
v 1.1340004205703735 8.679898262023926 -0.1756628304719925
v 1.0260376930236816 8.839777946472168 -0.32353857159614563
v 0.5738639831542969 9.019574165344238 -0.17263182997703552
v 0.5880494713783264 8.422555923461914 0.7359904050827026
v 0.17367751896381378 9.011967658996582 0.2044706642627716
v 0.04583480581641197 8.697857856750488 0.8087060451507568
v 0.5738639831542969 9.019574165344238 -0.17263182997703552
v -0.10733077675104141 8.99096965789795 -0.5092632174491882
v 0.17367751896381378 9.011967658996582 0.2044706642627716
v 0.7109920978546143 8.610698699951172 -0.8857300877571106
v -0.31346482038497925 8.852724075317383 -0.9333633184432983
v -0.3178260624408722 8.870820045471191 -0.9014258980751038
v -0.10733077675104141 8.99096965789795 -0.5092632174491882
v 1.0260376930236816 8.839777946472168 -0.32353857159614563
v 0.5738639831542969 9.019574165344238 -0.17263182997703552
vn 0.04963280260562897 0.00012825716112274677 -0.9987674951553345
vn 0.04963279515504837 0.00012825719022657722 -0.9987674951553345
vn 0.04963280260562897 0.00012825716112274677 -0.9987674951553345
vn 0.04963279515504837 0.000128257175674662 -0.9987674951553345
vn 0.04963279888033867 0.000128257175674662 -0.9987674951553345
vn -0.9199142456054688 -3.4154646755268914e-07 -0.39211952686309814
vn -0.9199142456054688 -3.4154649597439857e-07 -0.39211955666542053
vn -0.9199142456054688 -3.4154646755268914e-07 -0.39211955666542053
vn -0.9199142456054688 -3.415464391309797e-07 -0.39211955666542053
vn -0.9422197937965393 0.16297683119773865 -0.2926778793334961
vn -0.9422197937965393 0.16297684609889984 -0.2926779091358185
vn -0.9422197937965393 0.16297687590122223 -0.2926779091358185
vn -0.9422197937965393 0.16297684609889984 -0.2926779091358185
vn -0.9422197937965393 0.16297687590122223 -0.2926779091358185
vn -0.869003415107727 -0.000240749548538588 0.49480611085891724
vn -0.869003415107727 -0.000240749548538588 0.49480611085891724
vn -0.869003415107727 -0.00024074951943475753 0.49480611085891724
vn -0.869003415107727 -0.00024074951943475753 0.49480611085891724
vn -0.869003415107727 -0.000240749548538588 0.49480611085891724
vn 0.8571559190750122 0.0008751340210437775 -0.515056312084198
vn 0.8571559190750122 0.0008751341374590993 -0.515056312084198
vn 0.8571559190750122 0.0008751341374590993 -0.5150562524795532
vn 0.8571559190750122 0.0008751341374590993 -0.515056312084198
vn 0.8571559190750122 0.0008751340210437775 -0.5150563716888428
vn -0.6534186005592346 0.7241929173469543 0.22042864561080933
vn -0.6534186005592346 0.7241928577423096 0.22042863070964813
vn -0.6534186005592346 0.7241929173469543 0.22042864561080933
vn -0.6534186005592346 0.7241929769515991 0.2204286754131317
vn -0.6534186005592346 0.7241929173469543 0.22042864561080933
vn -0.6534186005592346 0.7241929173469543 0.22042864561080933
vn 0.8579134941101074 8.472166518913582e-05 0.5137941241264343
vn 0.8579134941101074 8.47216579131782e-05 0.5137941837310791
vn 0.8579134941101074 8.472166518913582e-05 0.5137940645217896
vn 0.8579134941101074 8.47216579131782e-05 0.5137941241264343
vn 0.1297284960746765 7.46513542253524e-05 0.9915494918823242
vn 0.1297284960746765 7.46513542253524e-05 0.9915494918823242
vn 0.1297284960746765 7.46513542253524e-05 0.9915494918823242
vn 0.12972848117351532 7.465134694939479e-05 0.9915494918823242
vn 0.12972848117351532 7.465134694939479e-05 0.9915494918823242
vn 0.450418621301651 0.7498146891593933 0.4846659004688263
vn 0.450418621301651 0.7498146891593933 0.4846658408641815
vn 0.4504185616970062 0.7498146891593933 0.4846659004688263
vn 0.450418621301651 0.7498147487640381 0.4846658408641815
vn 0.450418621301651 0.7498146891593933 0.4846659004688263
vn 0.450418621301651 0.7498147487640381 0.4846658408641815
vn -0.034059926867485046 0.9992918968200684 -0.015986906364560127
vn -0.034059926867485046 0.9992918968200684 -0.015986906364560127
vn -0.034059926867485046 0.9992918968200684 -0.015986908227205276
vn 0.2044178545475006 0.8741151690483093 -0.4406087100505829
vn 0.20441782474517822 0.8741151690483093 -0.4406087100505829
vn 0.2044178545475006 0.8741151690483093 -0.4406087100505829
vn 0.20441782474517822 0.8741151690483093 -0.4406087100505829
vn 0.20441782474517822 0.8741151690483093 -0.4406087100505829
vn 0.2044178545475006 0.8741151690483093 -0.4406087100505829
vt 0.3671743869781494 0.999927282333374
vt 0.3111872673034668 0.999927282333374
vt 0.3079083561897278 0.5640483200550079
vt 0.3153628706932068 0.5128351747989655
vt 0.3632999658584595 0.5278948843479156
vt 0.25429970026016235 0.64945387840271
vt 0.3079083561897278 0.5640483200550079
vt 0.3111872673034668 0.999927282333374
vt 0.25481656193733215 0.999927282333374
vt 0.3079083561897278 0.5640483200550079
vt 0.25429970026016235 0.64945387840271
vt 0.2359834909439087 0.5559595227241516
vt 0.3153628706932068 0.5128351747989655
vt 0.31389784812927246 0.5117411911487579
vt 0.25429970026016235 0.64945387840271
vt 0.25481656193733215 0.999927282333374
vt 0.1984260380268097 0.999927282333374
vt 0.20018994808197021 0.5502023696899414
vt 0.2359834909439087 0.5559595227241516
vt 0.08836501091718674 0.5231226682662964
vt 0.08655703812837601 0.999927282333374
vt 0.030598334968090057 0.999927282333374
vt 0.032382719218730927 0.5272537469863892
vt 0.07516834884881973 0.5122065246105194
vt 0.2576107978820801 0.4904109835624695
vt 0.2773714065551758 0.4969877600669861
vt 0.2359834909439087 0.5559595227241516
vt 0.22201573848724365 0.4912354350090027
vt 0.1915643811225891 0.5142884850502014
vt 0.20018994808197021 0.5502023696899414
vt 0.14427316188812256 0.5386180877685547
vt 0.14250001311302185 0.999927282333374
vt 0.08655703812837601 0.999927282333374
vt 0.08836501091718674 0.5231226682662964
vt 0.17074429988861084 0.5242926776409149
vt 0.20018994808197021 0.5502023696899414
vt 0.1984260380268097 0.999927282333374
vt 0.14250001311302185 0.999927282333374
vt 0.14427316188812256 0.5386180877685547
vt 0.20799630880355835 0.44796961545944214
vt 0.22550064325332642 0.45021122694015503
vt 0.22947236895561218 0.46719932556152344
vt 0.17411279678344727 0.4909818172454834
vt 0.22201573848724365 0.4912354350090027
vt 0.1915643811225891 0.5142884850502014
vt 0.22947236895561218 0.46719932556152344
vt 0.2576107978820801 0.4904109835624695
vt 0.22201573848724365 0.4912354350090027
vt 0.26822274923324585 0.45185965299606323
vt 0.27863818407058716 0.49619150161743164
vt 0.2773714065551758 0.4969877600669861
vt 0.2576107978820801 0.4904109835624695
vt 0.22550064325332642 0.45021122694015503
vt 0.22947236895561218 0.46719932556152344

g equalizer_crystal_0011
s 1
usemtl equalizer_crystal_0011
f 1/1/1 2/2/2 3/3/3 
f 3/3/3 4/4/4 1/1/1 
f 4/4/4 5/5/5 1/1/1 
f 6/6/6 7/7/7 8/8/8 
f 6/6/6 8/8/8 9/9/9 
f 10/10/10 11/11/11 12/12/12 
f 12/12/12 13/13/13 10/10/10 
f 12/12/12 14/14/14 13/13/13 
f 15/15/15 16/16/16 17/17/17 
f 17/17/17 18/18/18 15/15/15 
f 18/18/18 19/19/19 15/15/15 
f 20/20/20 21/21/21 22/22/22 
f 22/22/22 23/23/23 20/20/20 
f 23/23/23 24/24/24 20/20/20 
f 25/25/25 26/26/26 27/27/27 
f 27/27/27 28/28/28 25/25/25 
f 27/27/27 29/29/29 28/28/28 
f 27/27/27 30/30/30 29/29/29 
f 31/31/31 32/32/32 33/33/33 
f 31/31/31 33/33/33 34/34/34 
f 35/35/35 36/36/36 37/37/37 
f 37/37/37 38/38/38 35/35/35 
f 38/38/38 39/39/39 35/35/35 
f 40/40/40 41/41/41 42/42/42 
f 42/42/42 43/43/43 40/40/40 
f 42/42/42 44/44/44 43/43/43 
f 44/44/44 45/45/45 43/43/43 
f 46/46/46 47/47/47 48/48/48 
f 49/49/49 50/50/50 51/51/51 
f 51/51/51 52/52/52 49/49/49 
f 52/52/52 53/53/53 49/49/49 
f 52/52/52 54/54/54 53/53/53 

