v 0.30920714139938354 0.0 -0.7390331625938416
v -0.3016868531703949 0.0 -0.739033043384552
v -0.3016868531703949 12.45770263671875 -0.739033043384552
v -0.2700469195842743 12.468809127807617 -0.739033043384552
v 0.30920714139938354 12.042267799377441 -0.7390331625938416
v -1.0184237957000732 11.878987312316895 0.22111983597278595
v -0.3016868531703949 12.45770263671875 -0.739033043384552
v -0.3016868531703949 0.0 -0.739033043384552
v -1.0184237957000732 0.0 0.22111983597278595
v -0.1436949074268341 12.4745454788208 -0.6256739497184753
v -0.2700469195842743 12.468809127807617 -0.739033043384552
v -0.3016868531703949 12.45770263671875 -0.739033043384552
v -1.0184237957000732 11.878987312316895 0.22111983597278595
v -0.31617218255996704 12.227740287780762 -0.07895446568727493
v -0.9556626677513123 11.881681442260742 0.27788496017456055
v -1.0184237957000732 11.878987312316895 0.22111983597278595
v -1.0184237957000732 0.0 0.22111983597278595
v -0.27095648646354675 0.0 1.113985300064087
v -0.27095648646354675 11.466933250427246 1.113985300064087
v -0.9556626677513123 11.881681442260742 0.27788496017456055
v 0.8533617854118347 11.226362228393555 0.0
v 0.8533617854118347 0.0 0.0
v 0.30920714139938354 0.0 -0.7390331625938416
v 0.30920714139938354 12.042267799377441 -0.7390331625938416
v 0.38247647881507874 12.066123962402344 -0.6497372388839722
v -0.1436949074268341 12.4745454788208 -0.6256739497184753
v 0.38247647881507874 12.066123962402344 -0.6497372388839722
v 0.30920714139938354 12.042267799377441 -0.7390331625938416
v -0.2700469195842743 12.468809127807617 -0.739033043384552
v 0.8533617854118347 11.226362228393555 0.0
v 0.38247647881507874 12.066123962402344 -0.6497372388839722
v -0.1436949074268341 12.4745454788208 -0.6256739497184753
v -0.31617218255996704 12.227740287780762 -0.07895446568727493
v -0.19546279311180115 11.485105514526367 1.0718765258789062
v 0.5069321990013123 11.014665603637695 0.6960992217063904
v 0.8533617854118347 11.226362228393555 0.0
v 0.5069321990013123 11.014665603637695 0.6960992217063904
v 0.5069321990013123 0.0 0.6960992217063904
v 0.8533617854118347 0.0 0.0
v -0.19546279311180115 11.485105514526367 1.0718765258789062
v -0.27095648646354675 11.466933250427246 1.113985300064087
v -0.27095648646354675 0.0 1.113985300064087
v 0.5069321990013123 0.0 0.6960992217063904
v 0.5069321990013123 11.014665603637695 0.6960992217063904
v -0.31617218255996704 12.227740287780762 -0.07895446568727493
v -0.9556626677513123 11.881681442260742 0.27788496017456055
v -0.27095648646354675 11.466933250427246 1.113985300064087
v -0.19546279311180115 11.485105514526367 1.0718765258789062
vn 0.0 0.0 -1.0
vn 0.0 0.0 -1.0
vn 0.0 0.0 -1.0
vn 0.0 0.0 -1.0
vn 0.0 0.0 -1.0
vn -0.8013512492179871 0.0 -0.5981942415237427
vn -0.8013512492179871 0.0 -0.5981942415237427
vn -0.8013512492179871 0.0 -0.5981942415237427
vn -0.8013512492179871 0.0 -0.5981942415237427
vn -0.31533893942832947 0.8982829451560974 0.30602163076400757
vn -0.3153389096260071 0.8982829451560974 0.30602163076400757
vn -0.3153389096260071 0.8982829451560974 0.3060216009616852
vn -0.3153389096260071 0.8982829451560974 0.3060216009616852
vn -0.31533893942832947 0.8982829451560974 0.3060216009616852
vn -0.3153389096260071 0.8982829451560974 0.30602163076400757
vn -0.7666643857955933 0.0004998474614694715 0.6420478224754333
vn -0.7666643261909485 0.0004998474614694715 0.6420478820800781
vn -0.7666643261909485 0.0004998474614694715 0.6420478820800781
vn -0.7666643857955933 0.0004998475196771324 0.6420478820800781
vn -0.7666643857955933 0.0004998475778847933 0.6420478224754333
vn 0.8051254153251648 -0.00025884402566589415 -0.5931045413017273
vn 0.8051254153251648 -0.0002588439965620637 -0.5931044816970825
vn 0.8051254153251648 -0.0002588439965620637 -0.5931044816970825
vn 0.8051254153251648 -0.0002588439965620637 -0.5931044816970825
vn 0.8051254153251648 -0.0002588439965620637 -0.5931044816970825
vn 0.48538681864738464 0.6591676473617554 -0.5743671655654907
vn 0.48538678884506226 0.6591676473617554 -0.5743671655654907
vn 0.48538678884506226 0.6591677069664001 -0.5743671655654907
vn 0.48538684844970703 0.6591676473617554 -0.5743671655654907
vn 0.5824725031852722 0.6798771023750305 0.4455253481864929
vn 0.5824724435806274 0.6798771023750305 0.4455254375934601
vn 0.5824725031852722 0.6798771619796753 0.4455253779888153
vn 0.5824725031852722 0.6798771023750305 0.4455254375934601
vn 0.5824725031852722 0.6798771619796753 0.4455254375934601
vn 0.582472562789917 0.6798770427703857 0.4455254375934601
vn 0.8952590823173523 0.0 0.4455459713935852
vn 0.8952590823173523 0.0 0.44554603099823
vn 0.8952590823173523 0.0 0.44554603099823
vn 0.8952590823173523 0.0 0.44554603099823
vn 0.4732692241668701 6.06922731094528e-05 0.8809178471565247
vn 0.4732692539691925 6.0692265833495185e-05 0.8809178471565247
vn 0.4732692539691925 6.06922731094528e-05 0.8809178471565247
vn 0.4732692539691925 6.06922731094528e-05 0.8809178471565247
vn 0.4732692241668701 6.0692265833495185e-05 0.8809178471565247
vn -0.1254686415195465 0.8343027830123901 0.5368394255638123
vn -0.12546862661838531 0.8343027830123901 0.5368394255638123
vn -0.1254686415195465 0.8343027830123901 0.5368393063545227
vn -0.12546862661838531 0.8343027830123901 0.5368394255638123
vt 0.6314220428466797 0.9999622404575348
vt 0.5846107006072998 0.9999622404575348
vt 0.5850410461425781 0.3189901113510132
vt 0.5936349630355835 0.3159773349761963
vt 0.6318360567092896 0.3441406488418579
vt 0.5382201671600342 0.3410053253173828
vt 0.5850410461425781 0.3189901113510132
vt 0.5846107006072998 0.9999622404575348
vt 0.537799596786499 0.9999622404575348
vt 0.4048537611961365 0.30151963233947754
vt 0.40332210063934326 0.2940736413002014
vt 0.41036567091941833 0.2885797619819641
vt 0.45451900362968445 0.30229365825653076
vt 0.4298337399959564 0.3151399493217468
vt 0.4564724266529083 0.3118506669998169
vt 0.5382201671600342 0.3410053253173828
vt 0.537799596786499 0.9999622404575348
vt 0.490984171628952 0.9999622404575348
vt 0.4914005994796753 0.36569714546203613
vt 0.5276424884796143 0.3422672748565674
vt 0.3982982337474823 0.38416361808776855
vt 0.39737123250961304 0.9999622404575348
vt 0.35058170557022095 0.9999622404575348
vt 0.35156992077827454 0.344088077545166
vt 0.3569563627243042 0.34201711416244507
vt 0.4048537611961365 0.30151963233947754
vt 0.38435715436935425 0.3324105739593506
vt 0.38045039772987366 0.329018235206604
vt 0.40332210063934326 0.2940736413002014
vt 0.3982982337474823 0.38416361808776855
vt 0.38435715436935425 0.3324105739593506
vt 0.4048537611961365 0.30151963233947754
vt 0.4298337399959564 0.3151399493217468
vt 0.46172893047332764 0.35493385791778564
vt 0.4445817768573761 0.39382821321487427
vt 0.3982982337474823 0.38416361808776855
vt 0.4445817768573761 0.39382821321487427
vt 0.44417518377304077 0.9999622404575348
vt 0.39737123250961304 0.9999622404575348
vt 0.4806350767612457 0.3646845817565918
vt 0.4914005994796753 0.36569714546203613
vt 0.490984171628952 0.9999622404575348
vt 0.44417518377304077 0.9999622404575348
vt 0.4445817768573761 0.39382821321487427
vt 0.4298337399959564 0.3151399493217468
vt 0.4564724266529083 0.3118506669998169
vt 0.46912676095962524 0.3486054539680481
vt 0.46172893047332764 0.35493385791778564

g equalizer_crystal_007
s 1
usemtl equalizer_crystal_007
f 1/1/1 2/2/2 3/3/3 
f 3/3/3 4/4/4 1/1/1 
f 4/4/4 5/5/5 1/1/1 
f 6/6/6 7/7/7 8/8/8 
f 6/6/6 8/8/8 9/9/9 
f 10/10/10 11/11/11 12/12/12 
f 12/12/12 13/13/13 10/10/10 
f 13/13/13 14/14/14 10/10/10 
f 13/13/13 15/15/15 14/14/14 
f 16/16/16 17/17/17 18/18/18 
f 18/18/18 19/19/19 16/16/16 
f 19/19/19 20/20/20 16/16/16 
f 21/21/21 22/22/22 23/23/23 
f 23/23/23 24/24/24 21/21/21 
f 24/24/24 25/25/25 21/21/21 
f 26/26/26 27/27/27 28/28/28 
f 26/26/26 28/28/28 29/29/29 
f 30/30/30 31/31/31 32/32/32 
f 32/32/32 33/33/33 30/30/30 
f 33/33/33 34/34/34 30/30/30 
f 34/34/34 35/35/35 30/30/30 
f 36/36/36 37/37/37 38/38/38 
f 36/36/36 38/38/38 39/39/39 
f 40/40/40 41/41/41 42/42/42 
f 42/42/42 43/43/43 40/40/40 
f 43/43/43 44/44/44 40/40/40 
f 45/45/45 46/46/46 47/47/47 
f 45/45/45 47/47/47 48/48/48 

