v 0.5042595267295837 0.0 -0.8734035491943359
v -0.5042599439620972 0.0 -0.8734033703804016
v -0.5042599439620972 16.901941299438477 -0.8734033703804016
v 0.09870479255914688 17.001447677612305 -0.8734034299850464
v 0.371459037065506 16.94003677368164 -0.8734035491943359
v 0.5042595267295837 16.752685546875 -0.8734035491943359
v -0.5042599439620972 16.901941299438477 -0.8734033703804016
v -0.5042599439620972 0.0 -0.8734033703804016
v -1.0085194110870361 0.0 0.0
v -1.0085194110870361 16.52436065673828 0.0
v -0.5372499227523804 16.94662857055664 -0.8162630200386047
v -0.5372499227523804 16.94662857055664 -0.8162630200386047
v -0.46243995428085327 17.054101943969727 -0.7078362107276917
v 0.09870479255914688 17.001447677612305 -0.8734034299850464
v -0.5042599439620972 16.901941299438477 -0.8734033703804016
v 0.5042595267295837 16.752685546875 -0.8734035491943359
v 1.0085194110870361 16.041288375854492 -1.5258788721439487e-07
v 1.0085194110870361 0.0 -1.5258788721439487e-07
v 0.5042595267295837 0.0 -0.8734035491943359
v 0.37145885825157166 16.94003677368164 -0.499247282743454
v 0.371459037065506 16.94003677368164 -0.8734035491943359
v 0.09870479255914688 17.001447677612305 -0.8734034299850464
v -0.46243995428085327 17.054101943969727 -0.7078362107276917
v -0.5747092366218567 17.054101943969727 0.07862014323472977
v -1.0085194110870361 16.52436065673828 0.0
v -1.0085194110870361 0.0 0.0
v -0.5042596459388733 0.0 0.8734035491943359
v -0.5042596459388733 16.278900146484375 0.8734035491943359
v -0.7694144248962402 16.879348754882812 0.414141982793808
v -0.5372499227523804 16.94662857055664 -0.8162630200386047
v -1.0085194110870361 16.52436065673828 0.0
v -0.7694144248962402 16.879348754882812 0.414141982793808
v -0.5747092366218567 17.054101943969727 0.07862014323472977
v -0.46243995428085327 17.054101943969727 -0.7078362107276917
v 0.25358402729034424 15.763969421386719 0.8734035491943359
v 0.25358402729034424 0.0 0.8734035491943359
v 1.0085194110870361 0.0 -1.5258788721439487e-07
v 1.0085194110870361 16.041288375854492 -1.5258788721439487e-07
v 1.0046296119689941 16.04677391052246 0.006737060379236937
v 0.25358402729034424 15.763969421386719 0.8734035491943359
v -0.5042596459388733 16.278900146484375 0.8734035491943359
v -0.5042596459388733 0.0 0.8734035491943359
v 0.25358402729034424 0.0 0.8734035491943359
v 1.0046296119689941 16.04677391052246 0.006737060379236937
v 0.37145885825157166 16.94003677368164 -0.499247282743454
v -0.5747092366218567 17.054101943969727 0.07862014323472977
v 0.25358402729034424 15.763969421386719 0.8734035491943359
v -0.7694144248962402 16.879348754882812 0.414141982793808
v -0.5042596459388733 16.278900146484375 0.8734035491943359
v 1.0046296119689941 16.04677391052246 0.006737060379236937
v 1.0085194110870361 16.041288375854492 -1.5258788721439487e-07
v 0.5042595267295837 16.752685546875 -0.8734035491943359
v 0.37145885825157166 16.94003677368164 -0.499247282743454
v 0.371459037065506 16.94003677368164 -0.8734035491943359
vn 0.0 0.0 -1.0
vn 0.0 0.0 -1.0
vn 0.0 0.0 -1.0
vn 0.0 0.0 -1.0
vn 0.0 0.0 -1.0
vn 0.0 0.0 -1.0
vn -0.866025447845459 0.0 -0.49999991059303284
vn -0.8660255074501038 0.0 -0.49999985098838806
vn -0.8660255074501038 0.0 -0.49999985098838806
vn -0.8660255074501038 0.0 -0.49999991059303284
vn -0.8660255074501038 0.0 -0.49999991059303284
vn -0.123109832406044 0.7459876537322998 -0.6544817686080933
vn -0.1231098398566246 0.7459877133369446 -0.6544817686080933
vn -0.1231098398566246 0.7459877133369446 -0.6544817686080933
vn -0.1231098398566246 0.7459877133369446 -0.6544817686080933
vn 0.8660252690315247 0.0 -0.5000002384185791
vn 0.8660252690315247 0.0 -0.5000001788139343
vn 0.8660252690315247 0.0 -0.5000002384185791
vn 0.8660252690315247 0.0 -0.5000002384185791
vn 0.13619300723075867 0.990183413028717 0.03143702447414398
vn 0.13619297742843628 0.990183413028717 0.03143702819943428
vn 0.13619300723075867 0.990183413028717 0.03143703192472458
vn 0.13619299232959747 0.990183413028717 0.03143702447414398
vn 0.13619299232959747 0.990183413028717 0.03143702447414398
vn -0.866025447845459 0.0 0.4999999701976776
vn -0.866025447845459 0.0 0.5
vn -0.866025447845459 0.0 0.5
vn -0.866025447845459 0.0 0.5
vn -0.866025447845459 0.0 0.5000000596046448
vn -0.7611353993415833 0.6394271850585938 -0.1086546927690506
vn -0.7611353993415833 0.6394271850585938 -0.1086546927690506
vn -0.7611353993415833 0.6394271850585938 -0.1086546927690506
vn -0.7611353993415833 0.6394271850585938 -0.1086546927690506
vn -0.7611353993415833 0.6394271850585938 -0.1086546927690506
vn 0.7565592527389526 -4.598424493451603e-05 0.6539251804351807
vn 0.7565593123435974 -4.598423765855841e-05 0.6539250016212463
vn 0.7565593123435974 -4.598423765855841e-05 0.6539250016212463
vn 0.7565592527389526 -4.598424129653722e-05 0.6539251804351807
vn 0.7565591931343079 -4.598424129653722e-05 0.6539252400398254
vn 0.0 0.0 1.0
vn 0.0 0.0 1.0
vn 0.0 0.0 1.0
vn 0.0 0.0 1.0
vn 0.44811081886291504 0.6595031023025513 0.603533148765564
vn 0.44811081886291504 0.6595031023025513 0.603533148765564
vn 0.44811081886291504 0.659503161907196 0.6035332083702087
vn 0.44811081886291504 0.659503161907196 0.6035330891609192
vn 0.44811081886291504 0.6595031023025513 0.603533148765564
vn 0.44811081886291504 0.659503161907196 0.6035332083702087
vn 0.8158335089683533 0.5782868266105652 3.7588047234748956e-06
vn 0.8158335089683533 0.5782868266105652 3.7588047234748956e-06
vn 0.8158335089683533 0.5782868266105652 3.7588047234748956e-06
vn 0.8158335089683533 0.5782868266105652 3.7588042687275447e-06
vn 0.815833568572998 0.5782868266105652 3.75880449610122e-06
vt 0.947905421257019 0.999975323677063
vt 0.8928403258323669 0.999975323677063
vt 0.8931268453598022 0.07706761360168457
vt 0.9260482788085938 0.07160687446594238
vt 0.9409448504447937 0.07495623826980591
vt 0.9481930732727051 0.0851815938949585
vt 0.8931268453598022 0.07706761360168457
vt 0.8928403258323669 0.999975323677063
vt 0.8377575874328613 0.999975323677063
vt 0.8380449414253235 0.09772688150405884
vt 0.8895192742347717 0.07462424039840698
vt 0.7331827282905579 0.00949394702911377
vt 0.7315561771392822 0.01884007453918457
vt 0.6980092525482178 0.02708733081817627
vt 0.7293424606323242 0.006540060043334961
vt 0.6204664707183838 0.08429968357086182
vt 0.6754428148269653 0.12333232164382935
vt 0.6724432110786438 0.999975323677063
vt 0.6173340082168579 0.999975323677063
vt 0.6966748237609863 0.05405604839324951
vt 0.6828317046165466 0.03730142116546631
vt 0.6980092525482178 0.02708733081817627
vt 0.7315561771392822 0.01884007453918457
vt 0.7602126598358154 0.051725804805755615
vt 0.8380449414253235 0.09772688150405884
vt 0.8377575874328613 0.999975323677063
vt 0.7826679944992065 0.999975323677063
vt 0.7829731702804565 0.11118495464324951
vt 0.8118962049484253 0.07832962274551392
vt 0.7331827282905579 0.00949394702911377
vt 0.7904912233352661 0.029458284378051758
vt 0.7807428240776062 0.06395697593688965
vt 0.7602126598358154 0.051725804805755615
vt 0.7315561771392822 0.01884007453918457
vt 0.7292286157608032 0.14930391311645508
vt 0.7275390028953552 0.999975323677063
vt 0.6724432110786438 0.999975323677063
vt 0.6754428148269653 0.12333232164382935
vt 0.6758788824081421 0.12305110692977905
vt 0.7292286157608032 0.14930391311645508
vt 0.7829731702804565 0.11118495464324951
vt 0.7826679944992065 0.999975323677063
vt 0.7275390028953552 0.999975323677063
vt 0.6758788824081421 0.12305110692977905
vt 0.6966748237609863 0.05405604839324951
vt 0.7602126598358154 0.051725804805755615
vt 0.7292286157608032 0.14930391311645508
vt 0.7807428240776062 0.06395697593688965
vt 0.7829731702804565 0.11118495464324951
vt 0.6758788824081421 0.12305110692977905
vt 0.6754428148269653 0.12333232164382935
vt 0.6713879108428955 0.04753929376602173
vt 0.6966748237609863 0.05405604839324951
vt 0.6828317046165466 0.03730142116546631

g equalizer_crystal_002
s 1
usemtl equalizer_crystal_002
f 1/1/1 2/2/2 3/3/3 
f 3/3/3 4/4/4 1/1/1 
f 4/4/4 5/5/5 1/1/1 
f 5/5/5 6/6/6 1/1/1 
f 7/7/7 8/8/8 9/9/9 
f 9/9/9 10/10/10 7/7/7 
f 10/10/10 11/11/11 7/7/7 
f 12/12/12 13/13/13 14/14/14 
f 12/12/12 14/14/14 15/15/15 
f 16/16/16 17/17/17 18/18/18 
f 16/16/16 18/18/18 19/19/19 
f 20/20/20 21/21/21 22/22/22 
f 22/22/22 23/23/23 20/20/20 
f 23/23/23 24/24/24 20/20/20 
f 25/25/25 26/26/26 27/27/27 
f 27/27/27 28/28/28 25/25/25 
f 28/28/28 29/29/29 25/25/25 
f 30/30/30 31/31/31 32/32/32 
f 32/32/32 33/33/33 30/30/30 
f 33/33/33 34/34/34 30/30/30 
f 35/35/35 36/36/36 37/37/37 
f 37/37/37 38/38/38 35/35/35 
f 38/38/38 39/39/39 35/35/35 
f 40/40/40 41/41/41 42/42/42 
f 40/40/40 42/42/42 43/43/43 
f 44/44/44 45/45/45 46/46/46 
f 46/46/46 47/47/47 44/44/44 
f 46/46/46 48/48/48 47/47/47 
f 48/48/48 49/49/49 47/47/47 
f 50/50/50 51/51/51 52/52/52 
f 52/52/52 53/53/53 50/50/50 
f 52/52/52 54/54/54 53/53/53 

