v -0.5508175492286682 -1.8972790241241455 -0.6873242259025574
v 0.2437150478363037 -1.7356677055358887 -0.7655419707298279
v 0.9497643709182739 -1.405391812324524 -0.15853026509284973
v -0.9497643709182739 -1.8545812368392944 -0.19919921457767487
v -0.392768532037735 -1.459969401359558 0.7655419707298279
v 0.4361831545829773 -1.2725378274917603 0.7521435618400574
v -0.5285781621932983 1.8972790241241455 0.5303173661231995
v -0.392768532037735 1.8972790241241455 0.7655419707298279
v 0.09504730254411697 1.8972790241241455 0.14720702171325684
v -0.3873528838157654 1.8972790241241455 -0.3400537073612213
v -0.2841932475566864 1.8972790241241455 0.7647265195846558
v -0.9497643709182739 1.628753662109375 -0.19919921457767487
v -0.5285781621932983 1.8972790241241455 0.5303173661231995
v -0.3873528838157654 1.8972790241241455 -0.3400537073612213
v -0.580535888671875 1.7759509086608887 -0.6519384384155273
v 0.9497643709182739 0.6824597120285034 -0.15853026509284973
v 0.2437150478363037 0.7927624583244324 -0.7655419707298279
v 0.6498986482620239 1.5486901998519897 0.3721874952316284
v -0.5508175492286682 1.7079870700836182 -0.6873242259025574
v 0.09504730254411697 1.8972790241241455 0.14720702171325684
v -0.3873528838157654 1.8972790241241455 -0.3400537073612213
v -0.580535888671875 1.7759509086608887 -0.6519384384155273
v 0.09504730254411697 1.8972790241241455 0.14720702171325684
v -0.2841932475566864 1.8972790241241455 0.7647265195846558
v 0.4361831545829773 1.538817048072815 0.7521435618400574
v 0.6498986482620239 1.5486901998519897 0.3721874952316284
v -0.9497643709182739 1.628753662109375 -0.19919921457767487
v -0.580535888671875 1.7759509086608887 -0.6519384384155273
v -0.5508175492286682 -1.8972790241241455 -0.6873242259025574
v -0.9497643709182739 -1.8545812368392944 -0.19919921457767487
v -0.5508175492286682 1.7079870700836182 -0.6873242259025574
v 0.2437150478363037 0.7927624583244324 -0.7655419707298279
v 0.2437150478363037 -1.7356677055358887 -0.7655419707298279
v -0.5508175492286682 -1.8972790241241455 -0.6873242259025574
v -0.5508175492286682 1.7079870700836182 -0.6873242259025574
v 0.9497643709182739 0.6824597120285034 -0.15853026509284973
v 0.9497643709182739 -1.405391812324524 -0.15853026509284973
v 0.2437150478363037 -1.7356677055358887 -0.7655419707298279
v 0.2437150478363037 0.7927624583244324 -0.7655419707298279
v 0.9497643709182739 0.6824597120285034 -0.15853026509284973
v 0.6498986482620239 1.5486901998519897 0.3721874952316284
v 0.4361831545829773 -1.2725378274917603 0.7521435618400574
v 0.9497643709182739 -1.405391812324524 -0.15853026509284973
v 0.4361831545829773 1.538817048072815 0.7521435618400574
v -0.392768532037735 -1.459969401359558 0.7655419707298279
v 0.4361831545829773 -1.2725378274917603 0.7521435618400574
v 0.4361831545829773 1.538817048072815 0.7521435618400574
v -0.2841932475566864 1.8972790241241455 0.7647265195846558
v -0.392768532037735 1.8972790241241455 0.7655419707298279
v -0.392768532037735 -1.459969401359558 0.7655419707298279
v -0.392768532037735 1.8972790241241455 0.7655419707298279
v -0.5285781621932983 1.8972790241241455 0.5303173661231995
v -0.9497643709182739 1.628753662109375 -0.19919921457767487
v -0.9497643709182739 -1.8545812368392944 -0.19919921457767487
vn 0.2169671654701233 -0.9410163164138794 0.2596413195133209
vn 0.21696719527244568 -0.9410163164138794 0.25964128971099854
vn 0.21696719527244568 -0.9410163164138794 0.2596413195133209
vn 0.21696719527244568 -0.9410163164138794 0.25964128971099854
vn 0.21696701645851135 -0.941016435623169 0.25964078307151794
vn 0.21696703135967255 -0.941016435623169 0.25964075326919556
vn 0.0 1.0 -8.523931569470733e-07
vn 0.0 1.0 -8.523932137904922e-07
vn 0.0 1.0 -8.523932137904922e-07
vn 0.0 1.0 -8.52393270633911e-07
vn 0.0 1.0 1.170620907942066e-05
vn -0.4443897306919098 0.8929268717765808 -0.07210592180490494
vn -0.4443897306919098 0.8929268717765808 -0.07210592180490494
vn -0.4443897008895874 0.8929268717765808 -0.07210592180490494
vn -0.4443897306919098 0.8929268717765808 -0.07210592925548553
vn 0.5884522199630737 0.5606415867805481 -0.582584798336029
vn 0.588452160358429 0.5606416463851929 -0.582584798336029
vn 0.5884522199630737 0.5606416463851929 -0.582584798336029
vn 0.5884527564048767 0.5606412887573242 -0.5825843811035156
vn 0.5884528160095215 0.5606412887573242 -0.5825844407081604
vn 0.5884528160095215 0.5606412887573242 -0.5825844407081604
vn 0.5884517431259155 0.5606375932693481 -0.5825890302658081
vn 0.4331643283367157 0.8611626625061035 0.2660215497016907
vn 0.4331643283367157 0.8611626625061035 0.2660214900970459
vn 0.4331643283367157 0.8611626625061035 0.2660215198993683
vn 0.4331643283367157 0.8611626625061035 0.2660215198993683
vn -0.7746068239212036 -8.950020128395408e-05 -0.6324431300163269
vn -0.7746067643165588 -8.950020128395408e-05 -0.6324431300163269
vn -0.7746068239212036 -8.950020128395408e-05 -0.6324430704116821
vn -0.7746068239212036 -8.950020128395408e-05 -0.6324431300163269
vn -0.7657657265663147 0.0 -0.6431196928024292
vn -0.09797172993421555 0.0 -0.9951891899108887
vn -0.09797171503305435 0.0 -0.9951891899108887
vn -0.09797172993421555 0.0 -0.9951891899108887
vn -0.09797172993421555 0.0 -0.9951891899108887
vn 0.6519215106964111 0.0 -0.7582864165306091
vn 0.6519215106964111 0.0 -0.7582864761352539
vn 0.6519215106964111 0.0 -0.7582864761352539
vn 0.6519213914871216 0.0 -0.7582864761352539
vn 0.8709225058555603 0.00011987315519945696 0.4914204180240631
vn 0.8709225058555603 0.00011987315519945696 0.4914204180240631
vn 0.8709223866462708 0.00011987315519945696 0.4914203882217407
vn 0.8709225058555603 0.00011987316975137219 0.4914204180240631
vn 0.8715851902961731 0.0 0.49024417996406555
vn 0.016749227419495583 -0.00016263524594251066 0.9998596906661987
vn 0.016749227419495583 -0.00016263524594251066 0.9998596906661987
vn 0.016749227419495583 -0.00016263524594251066 0.9998596906661987
vn 0.016749227419495583 -0.00016263523139059544 0.9998596906661987
vn 0.007509783376008272 0.0 0.999971866607666
vn -0.8660211563110352 0.0 0.5000075697898865
vn -0.8660211563110352 0.0 0.5000075697898865
vn -0.8660211563110352 0.0 0.5000075697898865
vn -0.8660249710083008 -3.0241326953728276e-07 0.5000007748603821
vn -0.8660249710083008 -3.024132126938639e-07 0.5000007152557373
vt 0.6894867420196533 0.3972126841545105
vt 0.6755601167678833 0.2557469606399536
vt 0.7836379408836365 0.1300356388092041
vt 0.7763969302177429 0.4682445526123047
vt 0.9481678605079651 0.36907219886779785
vt 0.9457823038101196 0.22147822380065918
vt 0.4390051066875458 0.26520878076553345
vt 0.3971235454082489 0.24102813005447388
vt 0.507217288017273 0.1541733741760254
vt 0.5939733982086182 0.2400638461112976
vt 0.39726847410202026 0.22169655561447144
vt 0.5688946843147278 0.34020084142684937
vt 0.4390051066875458 0.26520878076553345
vt 0.5939733982086182 0.2400638461112976
vt 0.6495041847229004 0.2744597792625427
vt 0.5616534948348999 0.0019919276237487793
vt 0.6697312593460083 0.12770289182662964
vt 0.46715977787971497 0.055382609367370605
vt 0.655804455280304 0.2691686153411865
vt 0.507217288017273 0.1541733741760254
vt 0.5939733982086182 0.2400638461112976
vt 0.6495041847229004 0.2744597792625427
vt 0.507217288017273 0.1541733741760254
vt 0.39726847410202026 0.22169655561447144
vt 0.39950913190841675 0.09343433380126953
vt 0.46715977787971497 0.055382609367370605
vt 0.5939589142799377 0.9717994183301926
vt 0.528218150138855 0.998007704038173
vt 0.5229268670082092 0.34399276971817017
vt 0.5939589142799377 0.3515956401824951
vt 0.5229268670082092 0.9859068095684052
vt 0.3814612030982971 0.8229518681764603
vt 0.3814612030982971 0.3727676272392273
vt 0.5229268670082092 0.34399276971817017
vt 0.5229268670082092 0.9859068095684052
vt 0.25574991106987 0.8033125847578049
vt 0.25574991106987 0.43157297372817993
vt 0.3814612030982971 0.3727676272392273
vt 0.3814612030982971 0.8229518681764603
vt 0.6001517176628113 0.6262682676315308
vt 0.6946454048156738 0.4720366597175598
vt 0.7622960805892944 0.9743530601263046
vt 0.6001517176628113 0.9980078861117363
vt 0.7622960805892944 0.4737948179244995
vt 0.14948637783527374 0.9277476817369461
vt 0.0018925172043964267 0.8943753615021706
vt 0.0018925172043964267 0.39381712675094604
vt 0.13015471398830414 0.3299933671951294
vt 0.14948637783527374 0.3299933671951294
vt 0.14948637783527374 0.9277476817369461
vt 0.14948637783527374 0.3299933671951294
vt 0.17366713285446167 0.3299933671951294
vt 0.2486588954925537 0.3778037428855896
vt 0.2486588954925537 0.9980078861117363

g equalizer_crystal_001_shard_003
s 1
usemtl equalizer_crystal_001_shard_003
f 1/1/1 2/2/2 3/3/3 
f 1/1/1 3/3/3 4/4/4 
f 3/3/3 5/5/5 4/4/4 
f 3/3/3 6/6/6 5/5/5 
f 7/7/7 8/8/8 9/9/9 
f 7/7/7 9/9/9 10/10/10 
f 9/9/9 8/8/8 11/11/11 
f 12/12/12 13/13/13 14/14/14 
f 12/12/12 14/14/14 15/15/15 
f 16/16/16 17/17/17 18/18/18 
f 18/18/18 17/17/17 19/19/19 
f 19/19/19 20/20/20 18/18/18 
f 19/19/19 21/21/21 20/20/20 
f 22/22/22 21/21/21 19/19/19 
f 23/23/23 24/24/24 25/25/25 
f 23/23/23 25/25/25 26/26/26 
f 27/27/27 28/28/28 29/29/29 
f 27/27/27 29/29/29 30/30/30 
f 29/29/29 28/28/28 31/31/31 
f 32/32/32 33/33/33 34/34/34 
f 32/32/32 34/34/34 35/35/35 
f 36/36/36 37/37/37 38/38/38 
f 36/36/36 38/38/38 39/39/39 
f 40/40/40 41/41/41 42/42/42 
f 40/40/40 42/42/42 43/43/43 
f 42/42/42 41/41/41 44/44/44 
f 45/45/45 46/46/46 47/47/47 
f 45/45/45 47/47/47 48/48/48 
f 45/45/45 48/48/48 49/49/49 
f 50/50/50 51/51/51 52/52/52 
f 53/53/53 50/50/50 52/52/52 
f 53/53/53 54/54/54 50/50/50 

