v 0.6293352842330933 0.7759497165679932 0.22667723894119263
v -0.5951690673828125 1.6998571157455444 0.33092039823532104
v 0.47786375880241394 -1.5894994735717773 0.6320141553878784
v -0.3232104480266571 -1.5734351873397827 0.8042407035827637
v 0.3800491392612457 1.5228381156921387 0.14264892041683197
v 0.5525763034820557 1.1596386432647705 -0.6626440286636353
v 0.21878235042095184 1.557686686515808 -0.7394652962684631
v 0.4309985339641571 1.5118285417556763 -0.6358178853988647
v 0.1839447021484375 1.5344579219818115 -0.7646166682243347
v 0.4697558581829071 0.7951086163520813 -0.8042407035827637
v -0.3232104480266571 -1.7661328315734863 0.8042407035827637
v 0.47786375880241394 -1.7661328315734863 0.6320141553878784
v -0.3232104480266571 -1.5734351873397827 0.8042407035827637
v 0.47786375880241394 -1.5894994735717773 0.6320141553878784
v 0.47786375880241394 -1.7661328315734863 0.6320141553878784
v 0.8021911382675171 0.3507705628871918 -0.23587645590305328
v 0.47786375880241394 -1.5894994735717773 0.6320141553878784
v 0.6293352842330933 0.7759497165679932 0.22667723894119263
v 0.8021911382675171 -1.7661328315734863 -0.23587645590305328
v 0.6293352842330933 0.7759497165679932 0.22667723894119263
v 0.4309985339641571 1.5118285417556763 -0.6358178853988647
v 0.3800491392612457 1.5228381156921387 0.14264892041683197
v 0.5525763034820557 1.1596386432647705 -0.6626440286636353
v 0.8021911382675171 0.3507705628871918 -0.23587645590305328
v 0.4697558581829071 -1.7661328315734863 -0.8042407035827637
v 0.8021911382675171 0.3507705628871918 -0.23587645590305328
v 0.8021911382675171 -1.7661328315734863 -0.23587645590305328
v 0.4697558581829071 0.7951086163520813 -0.8042407035827637
v 0.5525763034820557 1.1596386432647705 -0.6626440286636353
v -0.3232104480266571 -1.7661328315734863 0.8042407035827637
v -0.3232104480266571 -1.5734351873397827 0.8042407035827637
v -0.7613641023635864 1.7661328315734863 0.04704833775758743
v -0.5951690673828125 1.6998571157455444 0.33092039823532104
v -0.8021911382675171 1.7157104015350342 -0.022639159113168716
v -0.8021911382675171 -1.7661328315734863 -0.022639159113168716
v 0.3800491392612457 1.5228381156921387 0.14264892041683197
v 0.4309985339641571 1.5118285417556763 -0.6358178853988647
v 0.21878235042095184 1.557686686515808 -0.7394652962684631
v -0.5951690673828125 1.6998571157455444 0.33092039823532104
v -0.7613641023635864 1.7661328315734863 0.04704833775758743
v -0.5951690673828125 1.6998571157455444 0.33092039823532104
v 0.21878235042095184 1.557686686515808 -0.7394652962684631
v -0.8021911382675171 -1.7661328315734863 -0.022639159113168716
v -0.8021911382675171 1.7157104015350342 -0.022639159113168716
v -0.43060606718063354 1.4325109720230103 -0.6747143268585205
v -0.43060606718063354 -1.7661328315734863 -0.6747143268585205
v -0.43060606718063354 1.4325109720230103 -0.6747143268585205
v -0.8021911382675171 1.7157104015350342 -0.022639159113168716
v 0.1839447021484375 1.5344579219818115 -0.7646166682243347
v 0.21878235042095184 1.557686686515808 -0.7394652962684631
v -0.7613641023635864 1.7661328315734863 0.04704833775758743
v 0.1839447021484375 1.5344579219818115 -0.7646166682243347
v 0.4697558581829071 0.7951086163520813 -0.8042407035827637
v 0.4697558581829071 -1.7661328315734863 -0.8042407035827637
v -0.43060606718063354 1.4325109720230103 -0.6747143268585205
v -0.43060606718063354 -1.7661328315734863 -0.6747143268585205
v -0.3232104480266571 -1.7661328315734863 0.8042407035827637
v -0.8021911382675171 -1.7661328315734863 -0.022639159113168716
v -0.43060606718063354 -1.7661328315734863 -0.6747143268585205
v 0.47786375880241394 -1.7661328315734863 0.6320141553878784
v 0.8021911382675171 -1.7661328315734863 -0.23587645590305328
v 0.4697558581829071 -1.7661328315734863 -0.8042407035827637
vn 0.1980251520872116 0.1532185971736908 0.9681477546691895
vn 0.1980251520872116 0.153218612074852 0.9681477546691895
vn 0.19802512228488922 0.1532185971736908 0.9681477546691895
vn 0.21059268712997437 0.15701937675476074 0.9648811221122742
vn 0.21794940531253815 0.18064671754837036 0.95909583568573
vn 0.46651387214660645 0.2261764109134674 -0.8551076054573059
vn 0.46651387214660645 0.2261764109134674 -0.8551076054573059
vn 0.46651387214660645 0.2261764109134674 -0.8551076054573059
vn 0.4665280878543854 0.22619085013866425 -0.8550961017608643
vn 0.4665094017982483 0.22616688907146454 -0.8551125526428223
vn 0.21019139885902405 0.0 0.9776601791381836
vn 0.21019144356250763 0.0 0.9776601791381836
vn 0.21019144356250763 0.0 0.9776601791381836
vn 0.2101915329694748 0.0 0.9776601791381836
vn 0.9367302060127258 0.0 0.3500523567199707
vn 0.9367302060127258 0.0 0.3500523567199707
vn 0.9367302060127258 0.0 0.3500522971153259
vn 0.9367294311523438 1.1556679737623199e-06 0.3500540256500244
vn 0.9367300868034363 0.0 0.35005247592926025
vn 0.9450477957725525 0.3218715488910675 0.057299595326185226
vn 0.9450477957725525 0.3218715488910675 0.057299599051475525
vn 0.9450477957725525 0.3218715786933899 0.057299599051475525
vn 0.945048451423645 0.32186996936798096 0.05729936808347702
vn 0.9450479745864868 0.32187098264694214 0.057299524545669556
vn 0.8631904125213623 0.0 -0.5048785209655762
vn 0.8631904125213623 0.0 -0.5048785209655762
vn 0.8631904125213623 0.0 -0.504878580570221
vn 0.8631904125213623 0.0 -0.504878580570221
vn 0.8631898164749146 -1.2483532145779463e-06 -0.5048795938491821
vn -0.865534782409668 0.0 0.5008488297462463
vn -0.865534782409668 0.0 0.5008487701416016
vn -0.865534782409668 0.0 0.5008487701416016
vn -0.8628360033035278 0.0014055027859285474 0.5054819583892822
vn -0.8631924986839294 0.001152668846771121 0.5048736929893494
vn -0.8653079271316528 0.0 0.501240611076355
vn 0.21121692657470703 0.9774392247200012 4.1992183241745806e-07
vn 0.21121692657470703 0.9774392247200012 4.1992183241745806e-07
vn 0.21121691167354584 0.9774392247200012 4.1992183241745806e-07
vn 0.17971812188625336 0.9836997985839844 0.006005809176713228
vn 0.2619355618953705 0.9624442458152771 0.0713503360748291
vn 0.2619355022907257 0.9624442458152771 0.0713503360748291
vn 0.2619355320930481 0.9624442458152771 0.0713503435254097
vn -0.8688333034515381 0.0 -0.49510473012924194
vn -0.8688333034515381 0.0 -0.49510473012924194
vn -0.8688333034515381 0.0 -0.49510467052459717
vn -0.8688333034515381 0.0 -0.49510473012924194
vn -0.21187296509742737 0.8465177416801453 -0.48838263750076294
vn -0.21187296509742737 0.8465177416801453 -0.4883826673030853
vn -0.21187299489974976 0.8465177416801453 -0.4883826673030853
vn -0.21186000108718872 0.8465290665626526 -0.48836857080459595
vn -0.21186694502830505 0.8465241193771362 -0.48837414383888245
vn -0.1373237520456314 0.0 -0.9905261993408203
vn -0.13732373714447021 0.0 -0.9905261993408203
vn -0.1373237669467926 0.0 -0.9905261993408203
vn -0.14464381337165833 -0.0006464356556534767 -0.9894835352897644
vn -0.14239443838596344 0.0 -0.9898099899291992
vn 0.0 -1.0 0.0
vn 0.0 -1.0 0.0
vn 0.0 -1.0 0.0
vn 0.0 -1.0 0.0
vn 0.0 -1.0 0.0
vn 0.0 -1.0 0.0
vt 0.0019920109771192074 0.5307085514068604
vt 0.22717510163784027 0.36080455780029297
vt 0.02984725311398506 0.9657082632184029
vt 0.17716260254383087 0.9627540484070778
vt 0.047835156321525574 0.39335787296295166
vt 0.4456767439842224 0.9249909371137619
vt 0.5070604681968689 0.998190876096487
vt 0.468034565448761 0.9897575750946999
vt 0.513467013835907 0.9939189362339675
vt 0.46090713143348694 0.857954815030098
vt 0.17716260254383087 0.998190687969327
vt 0.02984725311398506 0.998190687969327
vt 0.17716260254383087 0.9627540484070778
vt 0.02984725311398506 0.9657082632184029
vt 0.8717314600944519 0.998190687969327
vt 0.7121286988258362 0.608897864818573
vt 0.8717314600944519 0.9657082632184029
vt 0.7971911430358887 0.5307085514068604
vt 0.7121286988258362 0.998190687969327
vt 0.7971911430358887 0.5307085514068604
vt 0.6385805010795593 0.39538252353668213
vt 0.7817385196685791 0.39335787296295166
vt 0.6336473226547241 0.460149347782135
vt 0.7121286988258362 0.608897864818573
vt 0.46090713143348694 0.38694918155670166
vt 0.3997732400894165 0.7762418389320374
vt 0.3997732400894165 0.38694918155670166
vt 0.46090713143348694 0.857954815030098
vt 0.4456767439842224 0.9249909371137619
vt 0.17716260254383087 0.998190687969327
vt 0.17716260254383087 0.9627540484070778
vt 0.2577379047870636 0.34861665964126587
vt 0.22717510163784027 0.36080455780029297
vt 0.26524588465690613 0.3578890562057495
vt 0.26524588465690613 0.998190687969327
vt 0.5299874544143677 0.16554701328277588
vt 0.673145592212677 0.1561775803565979
vt 0.692206084728241 0.1952034831047058
vt 0.49536511301994324 0.3448868989944458
vt 0.5475683212280273 0.3754497766494751
vt 0.49536511301994324 0.3448868989944458
vt 0.692206084728241 0.1952034831047058
vt 0.273091197013855 0.998190687969327
vt 0.273091197013855 0.3578890562057495
vt 0.39300602674484253 0.4099687337875366
vt 0.39300602674484253 0.998190687969327
vt 0.6802985668182373 0.3146241307258606
vt 0.5603837370872498 0.3829578757286072
vt 0.6968311667442322 0.20160990953445435
vt 0.692206084728241 0.1952034831047058
vt 0.5475683212280273 0.3754497766494751
vt 0.513467013835907 0.9939189362339675
vt 0.46090713143348694 0.857954815030098
vt 0.46090713143348694 0.38694918155670166
vt 0.626481294631958 0.9751709960401058
vt 0.626481294631958 0.38694918155670166
vt 0.9099248647689819 0.09357088804244995
vt 0.998008131980896 0.24563181400299072
vt 0.9296746850013733 0.36554664373397827
vt 0.7626094222068787 0.12524288892745972
vt 0.702966570854187 0.28484559059143066
vt 0.7641004920005798 0.3893663287162781

g equalizer_crystal_0020_shard_001
s 1
usemtl equalizer_crystal_0020_shard_001
f 1/1/1 2/2/2 3/3/3 
f 3/3/3 2/2/2 4/4/4 
f 1/1/1 5/5/5 2/2/2 
f 6/6/6 7/7/7 8/8/8 
f 9/9/9 7/7/7 6/6/6 
f 10/10/10 9/9/9 6/6/6 
f 11/11/11 12/12/12 13/13/13 
f 13/13/13 12/12/12 14/14/14 
f 15/15/15 16/16/16 17/17/17 
f 17/17/17 16/16/16 18/18/18 
f 19/19/19 16/16/16 15/15/15 
f 20/20/20 21/21/21 22/22/22 
f 21/21/21 20/20/20 23/23/23 
f 24/24/24 23/23/23 20/20/20 
f 25/25/25 26/26/26 27/27/27 
f 28/28/28 26/26/26 25/25/25 
f 29/29/29 26/26/26 28/28/28 
f 30/30/30 31/31/31 32/32/32 
f 31/31/31 33/33/33 32/32/32 
f 34/34/34 30/30/30 32/32/32 
f 35/35/35 30/30/30 34/34/34 
f 36/36/36 37/37/37 38/38/38 
f 39/39/39 36/36/36 38/38/38 
f 40/40/40 41/41/41 42/42/42 
f 43/43/43 44/44/44 45/45/45 
f 46/46/46 43/43/43 45/45/45 
f 47/47/47 48/48/48 49/49/49 
f 50/50/50 49/49/49 48/48/48 
f 51/51/51 50/50/50 48/48/48 
f 52/52/52 53/53/53 54/54/54 
f 55/55/55 52/52/52 54/54/54 
f 56/56/56 55/55/55 54/54/54 
f 57/57/57 58/58/58 59/59/59 
f 57/57/57 59/59/59 60/60/60 
f 59/59/59 61/61/61 60/60/60 
f 59/59/59 62/62/62 61/61/61 

