v -0.06095733493566513 0.7537855505943298 0.701281726360321
v 0.7161263823509216 1.5273289680480957 0.8515698313713074
v -0.20615172386169434 0.961807370185852 -0.8515698313713074
v -0.7161263823509216 0.22711440920829773 0.031730957329273224
v -0.20615172386169434 -1.5273289680480957 -0.8515698313713074
v -0.7161263823509216 -1.5273289680480957 0.031730957329273224
v -0.7161263823509216 0.22711440920829773 0.031730957329273224
v -0.20615172386169434 0.961807370185852 -0.8515698313713074
v 0.7161263823509216 -1.5273289680480957 0.8515698313713074
v -0.20615172386169434 -1.5273289680480957 -0.8515698313713074
v -0.20615172386169434 0.961807370185852 -0.8515698313713074
v 0.7161263823509216 1.5273289680480957 0.8515698313713074
v 0.7161263823509216 1.5273289680480957 0.8515698313713074
v -0.06095733493566513 0.7537855505943298 0.701281726360321
v -0.06095733493566513 -1.5273289680480957 0.701281726360321
v 0.7161263823509216 -1.5273289680480957 0.8515698313713074
v -0.06095733493566513 0.7537855505943298 0.701281726360321
v -0.7161263823509216 0.22711440920829773 0.031730957329273224
v -0.7161263823509216 -1.5273289680480957 0.031730957329273224
v -0.06095733493566513 -1.5273289680480957 0.701281726360321
v -0.20615172386169434 -1.5273289680480957 -0.8515698313713074
v 0.7161263823509216 -1.5273289680480957 0.8515698313713074
v -0.06095733493566513 -1.5273289680480957 0.701281726360321
v -0.7161263823509216 -1.5273289680480957 0.031730957329273224
vn -0.7118059992790222 0.6843217015266418 0.15822754800319672
vn -0.7118059992790222 0.6843217015266418 0.1582275778055191
vn -0.7118059992790222 0.6843217015266418 0.1582275778055191
vn -0.7118059992790222 0.6843217015266418 0.15822754800319672
vn -0.8660250902175903 0.0 -0.5000005960464478
vn -0.8660250902175903 0.0 -0.5000005960464478
vn -0.8660250902175903 0.0 -0.5000005960464478
vn -0.8660250902175903 0.0 -0.5000005960464478
vn 0.8793473839759827 0.0 -0.4761810004711151
vn 0.8793473839759827 0.0 -0.4761810004711151
vn 0.8793473839759827 0.0 -0.4761810004711151
vn 0.8793473839759827 0.0 -0.47618088126182556
vn -0.18988169729709625 0.0 0.9818069934844971
vn -0.18988169729709625 0.0 0.9818069934844971
vn -0.18988169729709625 0.0 0.9818069934844971
vn -0.18988169729709625 0.0 0.9818069934844971
vn -0.7147413492202759 0.0 0.699388861656189
vn -0.7147414088249207 0.0 0.699388861656189
vn -0.7147413492202759 0.0 0.699388861656189
vn -0.7147413492202759 0.0 0.699388861656189
vn 0.0 -1.0 0.0
vn 0.0 -1.0 0.0
vn 0.0 -1.0 0.0
vn 0.0 -1.0 0.0
vt 0.7724897861480713 0.32588499784469604
vt 0.6104058623313904 0.35723233222961426
vt 0.8027742505073547 0.001991868019104004
vt 0.9091445803642273 0.1862305998802185
vt 0.669548511505127 0.4788249731063843
vt 0.7759187817573547 0.4788249731063843
vt 0.7759187817573547 0.844765767455101
vt 0.669548511505127 0.9980077829677612
vt 0.35705485939979553 0.9980079964734614
vt 0.0018146451329812407 0.9980079964734614
vt 0.0018146451329812407 0.4788249731063843
vt 0.35705485939979553 0.3608686327934265
vt 0.3641769289970398 0.3608686327934265
vt 0.5262608528137207 0.5222141146659851
vt 0.5262608528137207 0.9980079964734614
vt 0.3641769289970398 0.9980079964734614
vt 0.5262608528137207 0.5222141146659851
vt 0.6629156470298767 0.6320669651031494
vt 0.6629156470298767 0.9980079964734614
vt 0.5262608528137207 0.9980079964734614
vt 0.4984467029571533 0.3572325110435486
vt 0.30607831478118896 0.0019922852516174316
vt 0.4681622385978699 0.03333932161331177
vt 0.6048170328140259 0.1729939579963684

g equalizer_crystal_0022_shard_001
s 1
usemtl equalizer_crystal_0022_shard_001
f 1/1/1 2/2/2 3/3/3 
f 1/1/1 3/3/3 4/4/4 
f 5/5/5 6/6/6 7/7/7 
f 5/5/5 7/7/7 8/8/8 
f 9/9/9 10/10/10 11/11/11 
f 9/9/9 11/11/11 12/12/12 
f 13/13/13 14/14/14 15/15/15 
f 13/13/13 15/15/15 16/16/16 
f 17/17/17 18/18/18 19/19/19 
f 17/17/17 19/19/19 20/20/20 
f 21/21/21 22/22/22 23/23/23 
f 21/21/21 23/23/23 24/24/24 

