v 0.8533099293708801 3.5098695755004883 0.046757809817790985
v -0.8533099293708801 1.8468745946884155 0.11414062231779099
v 0.4628356695175171 2.6910274028778076 0.7230810523033142
v -0.3646664321422577 1.903239369392395 0.7277685403823853
v -0.43243011832237244 2.8043782711029053 -0.7277685403823853
v 0.5076647996902466 3.5791871547698975 -0.5519189238548279
v 0.4628356695175171 2.6910274028778076 0.7230810523033142
v 0.8533099293708801 -3.5791871547698975 0.046757809817790985
v 0.8533099293708801 3.5098695755004883 0.046757809817790985
v 0.4628356695175171 -3.5791871547698975 0.7230810523033142
v 0.8533099293708801 -3.5791871547698975 0.046757809817790985
v 0.5076647996902466 -3.5791871547698975 -0.5519189238548279
v 0.8533099293708801 3.5098695755004883 0.046757809817790985
v 0.5076647996902466 3.5791871547698975 -0.5519189238548279
v 0.5076647996902466 -3.5791871547698975 -0.5519189238548279
v -0.43243011832237244 -3.5791871547698975 -0.7277685403823853
v 0.5076647996902466 3.5791871547698975 -0.5519189238548279
v -0.43243011832237244 2.8043782711029053 -0.7277685403823853
v -0.43243011832237244 2.8043782711029053 -0.7277685403823853
v -0.43243011832237244 -3.5791871547698975 -0.7277685403823853
v -0.8533099293708801 1.8468745946884155 0.11414062231779099
v -0.8533099293708801 -3.5791871547698975 0.11414062231779099
v -0.8533099293708801 -3.5791871547698975 0.11414062231779099
v -0.3646664321422577 -3.5791871547698975 0.7277685403823853
v -0.8533099293708801 1.8468745946884155 0.11414062231779099
v -0.3646664321422577 1.903239369392395 0.7277685403823853
v -0.3646664321422577 1.903239369392395 0.7277685403823853
v -0.3646664321422577 -3.5791871547698975 0.7277685403823853
v 0.4628356695175171 -3.5791871547698975 0.7230810523033142
v 0.4628356695175171 2.6910274028778076 0.7230810523033142
v 0.8533099293708801 -3.5791871547698975 0.046757809817790985
v 0.4628356695175171 -3.5791871547698975 0.7230810523033142
v -0.3646664321422577 -3.5791871547698975 0.7277685403823853
v -0.8533099293708801 -3.5791871547698975 0.11414062231779099
v -0.43243011832237244 -3.5791871547698975 -0.7277685403823853
v 0.5076647996902466 -3.5791871547698975 -0.5519189238548279
vn -0.620011568069458 0.6538479924201965 0.43366867303848267
vn -0.620011568069458 0.6538480520248413 0.43366867303848267
vn -0.6200115084648132 0.6538480520248413 0.43366867303848267
vn -0.6200121641159058 0.65384840965271 0.43366700410842896
vn -0.6200110912322998 0.6538476943969727 0.43366971611976624
vn -0.6200096011161804 0.6538484692573547 0.43367066979408264
vn 0.8660260438919067 0.0 0.49999895691871643
vn 0.8660260438919067 0.0 0.49999895691871643
vn 0.8660260438919067 0.0 0.49999895691871643
vn 0.8660260438919067 0.0 0.4999988079071045
vn 0.8660260438919067 0.0 -0.49999892711639404
vn 0.8660260438919067 0.0 -0.49999886751174927
vn 0.8660260438919067 0.0 -0.49999892711639404
vn 0.8660260438919067 0.0 -0.4999988079071045
vn 0.18386627733707428 0.0 -0.9829512238502502
vn 0.1838662475347519 0.0 -0.9829512238502502
vn 0.18386627733707428 0.0 -0.9829512238502502
vn 0.1838659793138504 0.0 -0.9829513430595398
vn -0.8944589495658875 0.0 -0.44715002179145813
vn -0.8944589495658875 0.0 -0.44715002179145813
vn -0.8944589495658875 0.0 -0.44715002179145813
vn -0.8944589495658875 0.0 -0.4471500515937805
vn -0.7822715044021606 0.0 0.6229376196861267
vn -0.7822715044021606 0.0 0.6229375600814819
vn -0.7822715044021606 0.0 0.6229376196861267
vn -0.7822715640068054 0.0 0.6229375004768372
vn 0.005664536729454994 0.0 0.9999840259552002
vn 0.00566453579813242 0.0 0.9999840259552002
vn 0.005664536263793707 0.0 0.9999840259552002
vn 0.00566450459882617 0.0 0.9999840259552002
vn 0.0 -1.0 0.0
vn 0.0 -1.0 0.0
vn 0.0 -1.0 0.0
vn 0.0 -1.0 0.0
vn 0.0 -1.0 0.0
vn 0.0 -1.0 0.0
vt 0.09646931290626526 0.011636853218078613
vt 0.08709364384412766 0.24302595853805542
vt 0.0023656883276998997 0.1255706548690796
vt 0.0017134379595518112 0.2351834774017334
vt 0.20423690974712372 0.10979896783828735
vt 0.17976897954940796 0.0019919872283935547
vt 0.38926729559898376 0.1255706548690796
vt 0.29516366124153137 0.9980079613160342
vt 0.29516366124153137 0.011636853218078613
vt 0.38926729559898376 0.9980079613160342
vt 0.29516366124153137 0.9980079613160342
vt 0.21186386048793793 0.9980079613160342
vt 0.29516366124153137 0.011636853218078613
vt 0.21186386048793793 0.0019919872283935547
vt 0.39581498503685 0.0019919872283935547
vt 0.5266197919845581 0.0019919872283935547
vt 0.39581498503685 0.9980079613160342
vt 0.5266197919845581 0.890201099216938
vt 0.20423690974712372 0.10979896783828735
vt 0.20423690974712372 0.9980079613160342
vt 0.08709364384412766 0.24302595853805542
vt 0.08709364384412766 0.9980079613160342
vt 0.08709364384412766 0.9980079613160342
vt 0.0017134379595518112 0.9980079613160342
vt 0.08709364384412766 0.24302595853805542
vt 0.0017134379595518112 0.2351834774017334
vt 0.6484524607658386 0.2351834774017334
vt 0.6484524607658386 0.9980079613160342
vt 0.5333138108253479 0.9980079613160342
vt 0.5333138108253479 0.1255706548690796
vt 0.763715386390686 0.7605489641427994
vt 0.8578190207481384 0.8148795515298843
vt 0.8584712743759155 0.9300182536244392
vt 0.7730910181999207 0.9980079613160342
vt 0.6559479236602783 0.939446859061718
vt 0.6804155707359314 0.8086419850587845

g equalizer_crystal_005_shard_003
s 1
usemtl equalizer_crystal_005_shard_003
f 1/1/1 2/2/2 3/3/3 
f 3/3/3 2/2/2 4/4/4 
f 2/2/2 1/1/1 5/5/5 
f 5/5/5 1/1/1 6/6/6 
f 7/7/7 8/8/8 9/9/9 
f 7/7/7 10/10/10 8/8/8 
f 11/11/11 12/12/12 13/13/13 
f 13/13/13 12/12/12 14/14/14 
f 15/15/15 16/16/16 17/17/17 
f 17/17/17 16/16/16 18/18/18 
f 19/19/19 20/20/20 21/21/21 
f 20/20/20 22/22/22 21/21/21 
f 23/23/23 24/24/24 25/25/25 
f 25/25/25 24/24/24 26/26/26 
f 27/27/27 28/28/28 29/29/29 
f 27/27/27 29/29/29 30/30/30 
f 31/31/31 32/32/32 33/33/33 
f 31/31/31 33/33/33 34/34/34 
f 31/31/31 34/34/34 35/35/35 
f 31/31/31 35/35/35 36/36/36 

