v 14.124357223510742 9.999999747378752e-05 -16.249631881713867
v -0.7749632000923157 9.999999747378752e-05 -16.2496337890625
v -4.167588710784912 9.999999747378752e-05 -16.2496337890625
v -15.875641822814941 9.999999747378752e-05 -16.249631881713867
v 14.124357223510742 9.999999747378752e-05 13.750367164611816
v -15.875642776489258 9.999999747378752e-05 -11.45373249053955
v -15.875642776489258 9.999999747378752e-05 -9.26694393157959
v -15.875642776489258 9.999999747378752e-05 -1.9799691438674927
v -15.875642776489258 9.999999747378752e-05 -1.6982100009918213
v -15.875641822814941 9.999999747378752e-05 13.750367164611816
v 4.593596935272217 9.999999747378752e-05 13.750367164611816
v -1.4891645908355713 9.999999747378752e-05 13.750367164611816
v -3.3819503784179688 9.999999747378752e-05 13.750367164611816
vn 0.0 1.0 0.0
vn 0.0 1.0 0.0
vn 0.0 1.0 0.0
vn 0.0 1.0 0.0
vn 0.0 1.0 0.0
vn 0.0 1.0 0.0
vn 0.0 1.0 0.0
vn 0.0 1.0 0.0
vn 0.0 1.0 0.0
vn 0.0 1.0 0.0
vn 0.0 1.0 0.0
vn 0.0 1.0 0.0
vn 0.0 1.0 0.0
vt -2.9802322387695312e-08 0.0
vt 0.4966440200805664 0.0
vt 0.6097315549850464 0.0
vt 1.0 0.0
vt -2.9802322387695312e-08 1.0000000298023224
vt 1.0 0.15986335277557373
vt 1.0 0.2327563762664795
vt 1.0 0.47565555572509766
vt 1.0 0.48504745960235596
vt 1.0 1.0000000298023224
vt 0.3176920413970947 1.0000000298023224
vt 0.5204507112503052 1.0000000298023224
vt 0.5835435390472412 1.0000000298023224

g floor_cracks
s 1
usemtl floor_cracks
f 1/1/1 2/2/2 3/3/3 
f 3/3/3 4/4/4 1/1/1 
f 4/4/4 5/5/5 1/1/1 
f 4/4/4 6/6/6 5/5/5 
f 6/6/6 7/7/7 5/5/5 
f 7/7/7 8/8/8 5/5/5 
f 8/8/8 9/9/9 5/5/5 
f 9/9/9 10/10/10 5/5/5 
f 10/10/10 11/11/11 5/5/5 
f 10/10/10 12/12/12 11/11/11 
f 10/10/10 13/13/13 12/12/12 

