v -0.01874999888241291 0.0 0.04374999925494194
v -0.017221640795469284 0.010225574485957623 0.04018383100628853
v -0.03157300502061844 0.010225574485957623 0.03157300874590874
v -0.03437500074505806 0.0 0.03437500074505806
v -0.0154535798355937 0.01956351287662983 0.03597879409790039
v -0.028311673551797867 0.019439244642853737 0.028311673551797867
v 0.0 0.010225574485957623 0.04305410385131836
v 0.0 0.01968778297305107 0.03851461410522461
v 0.0 0.0 0.046875
v 0.0 0.0276232548058033 0.03253794461488724
v -0.013206119649112225 0.02712617814540863 0.03049604408442974
v -0.011707812547683716 0.032700538635253906 0.02285802736878395
v -0.024131659418344498 0.026629101485013962 0.024131659418344498
v -0.019877847284078598 0.030866090208292007 0.019877847284078598
v 0.0 0.03360592946410179 0.024286162108182907
v 0.0154535798355937 0.01956351287662983 0.03597879409790039
v 0.013206119649112225 0.02712617814540863 0.03049604408442974
v 0.024131659418344498 0.026629101485013962 0.024131659418344498
v 0.011707812547683716 0.032700538635253906 0.02285802736878395
v 0.019877847284078598 0.030866090208292007 0.019877847284078598
v 0.028311673551797867 0.019439244642853737 0.028311673551797867
v 0.01874999888241291 0.0 0.04374999925494194
v 0.017221640795469284 0.010225574485957623 0.04018383100628853
v 0.03157300874590874 0.010225574485957623 0.03157300502061844
v 0.03437500074505806 0.0 0.03437500074505806
v -0.02285802736878395 0.032700538635253906 0.011707812547683716
v -0.012187213636934757 0.036073558032512665 0.012187213636934757
v -0.012921341694891453 0.037209730595350266 0.0
v -0.024286162108182907 0.03360592573881149 0.0
v 0.0 0.037209730595350266 0.012921341694891453
v 0.0 0.03841691464185715 0.0
v 0.0 0.037209730595350266 -0.012921341694891453
v -0.012187213636934757 0.036073554307222366 -0.012187213636934757
v -0.011707812547683716 0.032700538635253906 -0.02285802736878395
v -0.02285802736878395 0.032700538635253906 -0.011707812547683716
v -0.019877847284078598 0.030866088345646858 -0.019877847284078598
v 0.0 0.033605922013521194 -0.024286162108182907
v 0.012921341694891453 0.037209730595350266 0.0
v 0.012187213636934757 0.036073554307222366 -0.012187213636934757
v 0.02285802736878395 0.032700538635253906 -0.011707812547683716
v 0.011707812547683716 0.032700538635253906 -0.02285802736878395
v 0.019877847284078598 0.030866088345646858 -0.019877847284078598
v 0.024286162108182907 0.033605922013521194 0.0
v 0.012187213636934757 0.036073558032512665 0.012187213636934757
v 0.02285802736878395 0.032700538635253906 0.011707812547683716
v -0.024131659418344498 0.026629101485013962 -0.024131659418344498
v -0.013206119649112225 0.02712617814540863 -0.03049604408442974
v -0.0154535798355937 0.01956351287662983 -0.03597879409790039
v -0.028311673551797867 0.019439244642853737 -0.028311673551797867
v 0.0 0.0276232548058033 -0.03253794461488724
v 0.0 0.01968778297305107 -0.03851461037993431
v 0.0 0.010225574485957623 -0.04305410385131836
v -0.017221640795469284 0.010225574485957623 -0.04018383100628853
v -0.01874999888241291 0.0 -0.04374999925494194
v -0.03157300502061844 0.010225574485957623 -0.03157300874590874
v -0.03437500074505806 0.0 -0.03437500074505806
v 0.0 0.0 -0.046875
v 0.0154535798355937 0.01956351287662983 -0.03597879409790039
v 0.017221640795469284 0.010225574485957623 -0.04018383100628853
v 0.03157300874590874 0.010225574485957623 -0.03157300502061844
v 0.01874999888241291 0.0 -0.04374999925494194
v 0.03437500074505806 0.0 -0.03437500074505806
v 0.028311673551797867 0.019439244642853737 -0.028311673551797867
v 0.013206119649112225 0.02712617814540863 -0.03049604408442974
v 0.024131659418344498 0.026629101485013962 -0.024131659418344498
v -0.04374999925494194 0.0 -0.01874999888241291
v -0.04018383100628853 0.010225574485957623 -0.017221640795469284
v -0.03597879409790039 0.01956351287662983 -0.0154535798355937
v -0.04305410385131836 0.010225574485957623 0.0
v -0.03851461410522461 0.01968778297305107 0.0
v -0.046875 0.0 0.0
v -0.03253794461488724 0.0276232548058033 0.0
v -0.03049604408442974 0.02712617814540863 -0.013206119649112225
v -0.03597879409790039 0.01956351287662983 0.0154535798355937
v -0.03049604408442974 0.02712617814540863 0.013206119649112225
v -0.04374999925494194 0.0 0.01874999888241291
v -0.04018383100628853 0.010225574485957623 0.017221640795469284
v 0.04374999925494194 0.0 0.01874999888241291
v 0.04018383100628853 0.010225574485957623 0.017221640795469284
v 0.03597879409790039 0.01956351287662983 0.0154535798355937
v 0.04305410385131836 0.010225574485957623 0.0
v 0.03851461410522461 0.01968778297305107 0.0
v 0.046875 0.0 0.0
v 0.03253794461488724 0.0276232548058033 0.0
v 0.03049604408442974 0.02712617814540863 0.013206119649112225
v 0.03597879409790039 0.01956351287662983 -0.0154535798355937
v 0.03049604408442974 0.02712617814540863 -0.013206119649112225
v 0.04374999925494194 0.0 -0.01874999888241291
v 0.04018383100628853 0.010225574485957623 -0.017221640795469284
vn -0.3228948414325714 0.3543262779712677 0.877605676651001
vn -0.31712618470191956 0.3968867063522339 0.8613430857658386
vn -0.6466554403305054 0.40456560254096985 0.6466554999351501
vn -0.6593312621116638 0.36133724451065063 0.6593312621116638
vn -0.29602116346359253 0.5307213664054871 0.7941702008247375
vn -0.5945916175842285 0.541222333908081 0.5945916771888733
vn 0.0 0.39211225509643555 0.9199174046516418
vn 0.0 0.5232810378074646 0.8521600961685181
vn 0.0 0.3500233292579651 0.9367409348487854
vn 0.0 0.7190628051757812 0.6949450969696045
vn -0.25871479511260986 0.7201336026191711 0.6437968015670776
vn -0.2230590432882309 0.8768753409385681 0.4258336126804352
vn -0.4886239469051361 0.7228370308876038 0.4886239469051361
vn -0.3832409083843231 0.8403885364532471 0.38324087858200073
vn 0.0 0.8943286538124084 0.4474106431007385
vn 0.29602113366127014 0.5307213068008423 0.7941703200340271
vn 0.2587147653102875 0.7201335430145264 0.6437968015670776
vn 0.4886239469051361 0.7228370308876038 0.4886239171028137
vn 0.2230590432882309 0.8768753409385681 0.42583364248275757
vn 0.3832409083843231 0.8403885364532471 0.38324084877967834
vn 0.5945916175842285 0.5412222743034363 0.5945916175842285
vn 0.3228948414325714 0.3543263375759125 0.877605676651001
vn 0.31712618470191956 0.3968866765499115 0.8613430857658386
vn 0.6466554999351501 0.40456563234329224 0.6466554999351501
vn 0.6593312621116638 0.36133721470832825 0.6593312621116638
vn -0.4258335828781128 0.8768753409385681 0.22305898368358612
vn -0.2049851268529892 0.9570591449737549 0.20498505234718323
vn -0.20091858506202698 0.9796079397201538 0.0
vn -0.4474104344844818 0.894328773021698 0.0
vn 0.0 0.9796080589294434 0.2009185254573822
vn 0.0 1.0 -1.503826183579804e-07
vn 0.0 0.9796079397201538 -0.20091864466667175
vn -0.20498508214950562 0.9570592641830444 -0.20498508214950562
vn -0.22305896878242493 0.8768754601478577 -0.4258335530757904
vn -0.4258335530757904 0.8768754601478577 -0.22305893898010254
vn -0.38324087858200073 0.8403885364532471 -0.3832407593727112
vn 0.0 0.894328773021698 -0.4474104344844818
vn 0.20091864466667175 0.9796079397201538 -1.562956128964288e-07
vn 0.2049850970506668 0.9570591449737549 -0.20498517155647278
vn 0.42583349347114563 0.8768753409385681 -0.2230590432882309
vn 0.22305893898010254 0.8768754601478577 -0.4258335530757904
vn 0.3832409083843231 0.8403885364532471 -0.38324078917503357
vn 0.4474104344844818 0.894328773021698 0.0
vn 0.20498517155647278 0.9570591449737549 0.20498506724834442
vn 0.42583349347114563 0.8768753409385681 0.22305898368358612
vn -0.4886239171028137 0.7228370308876038 -0.4886239171028137
vn -0.2587147355079651 0.7201336026191711 -0.6437968015670776
vn -0.29602107405662537 0.5307213068008423 -0.7941702008247375
vn -0.5945916175842285 0.5412222743034363 -0.5945916175842285
vn 0.0 0.7190629243850708 -0.6949450373649597
vn 0.0 0.5232810378074646 -0.8521602153778076
vn 0.0 0.39211228489875793 -0.9199174046516418
vn -0.31712618470191956 0.3968867063522339 -0.8613430857658386
vn -0.3228948414325714 0.3543263375759125 -0.877605676651001
vn -0.6466554999351501 0.40456563234329224 -0.6466554999351501
vn -0.6593312621116638 0.36133721470832825 -0.6593312621116638
vn 0.0 0.3500233292579651 -0.9367409348487854
vn 0.29602107405662537 0.5307213068008423 -0.7941702008247375
vn 0.31712615489959717 0.3968867063522339 -0.8613430857658386
vn 0.6466554403305054 0.4045656621456146 -0.6466554403305054
vn 0.3228948414325714 0.3543262779712677 -0.877605676651001
vn 0.6593312621116638 0.36133721470832825 -0.659331202507019
vn 0.5945916175842285 0.541222333908081 -0.5945916771888733
vn 0.2587146759033203 0.7201336026191711 -0.6437968015670776
vn 0.48862385749816895 0.7228370904922485 -0.4886239171028137
vn -0.8776057958602905 0.3543263077735901 -0.3228948414325714
vn -0.8613430857658386 0.3968867063522339 -0.31712618470191956
vn -0.7941703200340271 0.5307213068008423 -0.29602113366127014
vn -0.9199174046516418 0.39211225509643555 0.0
vn -0.8521602153778076 0.523280918598175 0.0
vn -0.936741054058075 0.3500232398509979 0.0
vn -0.6949450969696045 0.7190628051757812 0.0
vn -0.6437968015670776 0.7201336026191711 -0.25871479511260986
vn -0.7941702008247375 0.5307213068008423 0.29602107405662537
vn -0.6437968015670776 0.7201336026191711 0.25871479511260986
vn -0.877605676651001 0.3543262779712677 0.32289475202560425
vn -0.8613430857658386 0.39688676595687866 0.3171261250972748
vn 0.8776057958602905 0.3543263077735901 0.322894811630249
vn 0.8613431453704834 0.3968867361545563 0.3171261250972748
vn 0.7941703200340271 0.5307213068008423 0.29602107405662537
vn 0.9199174046516418 0.39211225509643555 0.0
vn 0.8521602153778076 0.523280918598175 0.0
vn 0.936741054058075 0.3500232398509979 0.0
vn 0.6949450969696045 0.7190628051757812 0.0
vn 0.6437968015670776 0.7201336026191711 0.25871479511260986
vn 0.7941702008247375 0.5307213068008423 -0.29602107405662537
vn 0.6437968015670776 0.7201336026191711 -0.25871479511260986
vn 0.877605676651001 0.3543262779712677 -0.32289475202560425
vn 0.8613430857658386 0.39688676595687866 -0.3171260952949524
vt 0.7739350199699402 0.0860549807548523
vt 0.7122470140457153 0.17759299278259277
vt 0.5756120085716248 0.1141819953918457
vt 0.5971109867095947 0.009905993938446045
vt 0.6640499830245972 0.249472975730896
vt 0.5575399994850159 0.20183998346328735
vt 0.8229159712791443 0.2891700267791748
vt 0.7467589974403381 0.3392919898033142
vt 0.9110590219497681 0.2311599850654602
vt 0.6858519911766052 0.3793780207633972
vt 0.6229770183563232 0.30980002880096436
vt 0.5789939761161804 0.3571590185165405
vt 0.5436369776725769 0.2692750096321106
vt 0.5332880020141602 0.31947100162506104
vt 0.6275529861450195 0.41774600744247437
vt 0.7965390086174011 0.45078301429748535
vt 0.7248870134353638 0.46464502811431885
vt 0.7307249903678894 0.5535440146923065
vt 0.6639930009841919 0.4863089919090271
vt 0.6805300116539001 0.5431950092315674
vt 0.798160970211029 0.5674479901790619
vt 0.9900950193405151 0.41449499130249023
vt 0.8816210031509399 0.4349460005760193
vt 0.8858190178871155 0.5855199992656708
vt 0.9900950193405151 0.6070190072059631
vt 0.47640201449394226 0.3360080122947693
vt 0.5173249840736389 0.3968989849090576
vt 0.44993099570274353 0.43640297651290894
vt 0.4078400135040283 0.37244802713394165
vt 0.5635970234870911 0.45983797311782837
vt 0.495047003030777 0.5049540102481842
vt 0.4264970123767853 0.5500690042972565
vt 0.3869920074939728 0.48267602920532227
vt 0.32610100507736206 0.5235979855060577
vt 0.3472529947757721 0.421006977558136
vt 0.3095639944076538 0.466713011264801
vt 0.36254099011421204 0.5921609997749329
vt 0.540162980556488 0.5735040009021759
vt 0.47276899218559265 0.6130090057849884
vt 0.5136910080909729 0.6738989949226379
vt 0.41110000014305115 0.6527479887008667
vt 0.4568049907684326 0.690436989068985
vt 0.5822539925575256 0.6374599933624268
vt 0.6031020283699036 0.5272319912910461
vt 0.6428409814834595 0.58890101313591
vt 0.25936898589134216 0.4563639760017395
vt 0.2652069926261902 0.5452620089054108
vt 0.19355499744415283 0.5591250061988831
vt 0.19193300604820251 0.4424610137939453
vt 0.30424201488494873 0.6305299997329712
vt 0.24333499372005463 0.6706149876117706
vt 0.16717900335788727 0.7207359969615936
vt 0.108474001288414 0.5749619901180267
vt 9.999999974752427e-07 0.5954129993915558
vt 0.10427600145339966 0.42438799142837524
vt 0.0 0.40289002656936646
vt 0.07903599739074707 0.7787470072507858
vt 0.3260439932346344 0.7604330033063889
vt 0.2778469920158386 0.8323130011558533
vt 0.4144810140132904 0.8957239985466003
vt 0.21615900099277496 0.9238509982824326
vt 0.39298200607299805 1.0
vt 0.4325529932975769 0.8080669939517975
vt 0.3671169877052307 0.7001070082187653
vt 0.44645699858665466 0.7406319975852966
vt 0.07614900171756744 0.226065993309021
vt 0.16768699884414673 0.28775399923324585
vt 0.23956699669361115 0.3359519839286804
vt 0.2792629897594452 0.1770859956741333
vt 0.32938501238822937 0.25324201583862305
vt 0.22125299274921417 0.0889430046081543
vt 0.36947101354599 0.31414902210235596
vt 0.29989299178123474 0.37702399492263794
vt 0.4408760070800781 0.20346200466156006
vt 0.45473799109458923 0.2751139998435974
vt 0.4045870006084442 0.009907007217407227
vt 0.42503899335861206 0.11838001012802124
vt 0.9139440059661865 0.783842995762825
vt 0.822405993938446 0.7221550047397614
vt 0.750527024269104 0.6739569902420044
vt 0.7108290195465088 0.8328229933977127
vt 0.6607080101966858 0.7566660046577454
vt 0.7688390016555786 0.9209659993648529
vt 0.620622992515564 0.6957579851150513
vt 0.6902009844779968 0.6328839957714081
vt 0.5492169857025146 0.8064460009336472
vt 0.5353549718856812 0.7347930073738098
vt 0.5855050086975098 1.0
vt 0.5650539994239807 0.891526997089386

g pCube1
s 1
usemtl pCube1
f 1/1/1 2/2/2 3/3/3 
f 1/1/1 3/3/3 4/4/4 
f 3/3/3 2/2/2 5/5/5 
f 3/3/3 5/5/5 6/6/6 
f 5/5/5 2/2/2 7/7/7 
f 7/7/7 2/2/2 1/1/1 
f 5/5/5 7/7/7 8/8/8 
f 7/7/7 1/1/1 9/9/9 
f 10/10/10 5/5/5 8/8/8 
f 10/10/10 11/11/11 5/5/5 
f 12/12/12 11/11/11 10/10/10 
f 13/13/13 11/11/11 12/12/12 
f 5/5/5 11/11/11 13/13/13 
f 5/5/5 13/13/13 6/6/6 
f 13/13/13 12/12/12 14/14/14 
f 12/12/12 10/10/10 15/15/15 
f 16/16/16 10/10/10 8/8/8 
f 7/7/7 16/16/16 8/8/8 
f 16/16/16 17/17/17 10/10/10 
f 18/18/18 17/17/17 16/16/16 
f 19/19/19 17/17/17 18/18/18 
f 10/10/10 17/17/17 19/19/19 
f 10/10/10 19/19/19 15/15/15 
f 19/19/19 18/18/18 20/20/20 
f 18/18/18 16/16/16 21/21/21 
f 22/22/22 7/7/7 9/9/9 
f 22/22/22 23/23/23 7/7/7 
f 7/7/7 23/23/23 16/16/16 
f 24/24/24 23/23/23 22/22/22 
f 16/16/16 23/23/23 24/24/24 
f 16/16/16 24/24/24 21/21/21 
f 24/24/24 22/22/22 25/25/25 
f 12/12/12 26/26/26 14/14/14 
f 26/26/26 13/13/13 14/14/14 
f 12/12/12 27/27/27 26/26/26 
f 26/26/26 27/27/27 28/28/28 
f 26/26/26 28/28/28 29/29/29 
f 28/28/28 27/27/27 30/30/30 
f 28/28/28 30/30/30 31/31/31 
f 30/30/30 27/27/27 12/12/12 
f 30/30/30 12/12/12 15/15/15 
f 19/19/19 30/30/30 15/15/15 
f 32/32/32 28/28/28 31/31/31 
f 32/32/32 33/33/33 28/28/28 
f 34/34/34 33/33/33 32/32/32 
f 35/35/35 33/33/33 34/34/34 
f 28/28/28 33/33/33 35/35/35 
f 28/28/28 35/35/35 29/29/29 
f 35/35/35 34/34/34 36/36/36 
f 34/34/34 32/32/32 37/37/37 
f 38/38/38 32/32/32 31/31/31 
f 30/30/30 38/38/38 31/31/31 
f 38/38/38 39/39/39 32/32/32 
f 40/40/40 39/39/39 38/38/38 
f 41/41/41 39/39/39 40/40/40 
f 32/32/32 39/39/39 41/41/41 
f 32/32/32 41/41/41 37/37/37 
f 41/41/41 40/40/40 42/42/42 
f 40/40/40 38/38/38 43/43/43 
f 30/30/30 44/44/44 38/38/38 
f 38/38/38 44/44/44 45/45/45 
f 38/38/38 45/45/45 43/43/43 
f 45/45/45 44/44/44 19/19/19 
f 45/45/45 19/19/19 20/20/20 
f 19/19/19 44/44/44 30/30/30 
f 34/34/34 46/46/46 36/36/36 
f 46/46/46 35/35/35 36/36/36 
f 34/34/34 47/47/47 46/46/46 
f 46/46/46 47/47/47 48/48/48 
f 46/46/46 48/48/48 49/49/49 
f 48/48/48 47/47/47 50/50/50 
f 48/48/48 50/50/50 51/51/51 
f 50/50/50 47/47/47 34/34/34 
f 50/50/50 34/34/34 37/37/37 
f 41/41/41 50/50/50 37/37/37 
f 52/52/52 48/48/48 51/51/51 
f 52/52/52 53/53/53 48/48/48 
f 54/54/54 53/53/53 52/52/52 
f 55/55/55 53/53/53 54/54/54 
f 48/48/48 53/53/53 55/55/55 
f 48/48/48 55/55/55 49/49/49 
f 55/55/55 54/54/54 56/56/56 
f 54/54/54 52/52/52 57/57/57 
f 58/58/58 52/52/52 51/51/51 
f 50/50/50 58/58/58 51/51/51 
f 58/58/58 59/59/59 52/52/52 
f 60/60/60 59/59/59 58/58/58 
f 61/61/61 59/59/59 60/60/60 
f 52/52/52 59/59/59 61/61/61 
f 52/52/52 61/61/61 57/57/57 
f 61/61/61 60/60/60 62/62/62 
f 60/60/60 58/58/58 63/63/63 
f 50/50/50 64/64/64 58/58/58 
f 58/58/58 64/64/64 65/65/65 
f 58/58/58 65/65/65 63/63/63 
f 65/65/65 64/64/64 41/41/41 
f 65/65/65 41/41/41 42/42/42 
f 41/41/41 64/64/64 50/50/50 
f 66/66/66 55/55/55 56/56/56 
f 66/66/66 67/67/67 55/55/55 
f 55/55/55 67/67/67 68/68/68 
f 68/68/68 67/67/67 69/69/69 
f 69/69/69 67/67/67 66/66/66 
f 68/68/68 69/69/69 70/70/70 
f 69/69/69 66/66/66 71/71/71 
f 72/72/72 68/68/68 70/70/70 
f 72/72/72 73/73/73 68/68/68 
f 35/35/35 73/73/73 72/72/72 
f 46/46/46 73/73/73 35/35/35 
f 68/68/68 73/73/73 46/46/46 
f 35/35/35 72/72/72 29/29/29 
f 68/68/68 46/46/46 49/49/49 
f 55/55/55 68/68/68 49/49/49 
f 74/74/74 72/72/72 70/70/70 
f 69/69/69 74/74/74 70/70/70 
f 74/74/74 75/75/75 72/72/72 
f 13/13/13 75/75/75 74/74/74 
f 26/26/26 75/75/75 13/13/13 
f 72/72/72 75/75/75 26/26/26 
f 72/72/72 26/26/26 29/29/29 
f 13/13/13 74/74/74 6/6/6 
f 76/76/76 69/69/69 71/71/71 
f 76/76/76 77/77/77 69/69/69 
f 69/69/69 77/77/77 74/74/74 
f 3/3/3 77/77/77 76/76/76 
f 74/74/74 77/77/77 3/3/3 
f 74/74/74 3/3/3 6/6/6 
f 3/3/3 76/76/76 4/4/4 
f 78/78/78 79/79/79 24/24/24 
f 78/78/78 24/24/24 25/25/25 
f 24/24/24 79/79/79 80/80/80 
f 24/24/24 80/80/80 21/21/21 
f 80/80/80 79/79/79 81/81/81 
f 81/81/81 79/79/79 78/78/78 
f 80/80/80 81/81/81 82/82/82 
f 81/81/81 78/78/78 83/83/83 
f 84/84/84 80/80/80 82/82/82 
f 84/84/84 85/85/85 80/80/80 
f 45/45/45 85/85/85 84/84/84 
f 18/18/18 85/85/85 45/45/45 
f 80/80/80 85/85/85 18/18/18 
f 80/80/80 18/18/18 21/21/21 
f 18/18/18 45/45/45 20/20/20 
f 45/45/45 84/84/84 43/43/43 
f 86/86/86 84/84/84 82/82/82 
f 81/81/81 86/86/86 82/82/82 
f 86/86/86 87/87/87 84/84/84 
f 65/65/65 87/87/87 86/86/86 
f 40/40/40 87/87/87 65/65/65 
f 84/84/84 87/87/87 40/40/40 
f 84/84/84 40/40/40 43/43/43 
f 40/40/40 65/65/65 42/42/42 
f 65/65/65 86/86/86 63/63/63 
f 88/88/88 81/81/81 83/83/83 
f 88/88/88 89/89/89 81/81/81 
f 81/81/81 89/89/89 86/86/86 
f 60/60/60 89/89/89 88/88/88 
f 86/86/86 89/89/89 60/60/60 
f 86/86/86 60/60/60 63/63/63 
f 60/60/60 88/88/88 62/62/62 

