v -2.9853625297546387 1.2699965238571167 -1.7279260158538818
v -4.271651744842529 1.4170708656311035 -2.9494640827178955
v -4.021047115325928 0.6500601172447205 -1.008703589439392
v -2.972703218460083 1.4097387790679932 -4.304218769073486
v -1.7207146883010864 1.2699964046478271 -2.99261212348938
v -1.004571557044983 0.6500601172447205 -4.017221450805664
v 0.5720190405845642 0.6500601172447205 -4.123237133026123
v 0.6098254323005676 1.2699960470199585 -3.458500862121582
v 2.8848423957824707 0.09983883053064346 -4.387221813201904
v 1.8869173526763916 1.2699960470199585 -2.961890697479248
v 4.107694149017334 0.4553341865539551 -2.224879026412964
v 2.999051332473755 1.2699960470199585 -1.7278478145599365
v 3.461951732635498 1.2873475551605225 0.0
v 4.107694149017334 0.4553341865539551 2.224879026412964
v -3.458500862121582 1.2699960470199585 0.0
v -3.9995243549346924 -2.8421708795129297e-16 -1.969420075416565
v -1.972105622291565 -2.8421708795129297e-16 -4.050756931304932
v 2.999051332473755 1.2699960470199585 1.7278478145599365
v 1.8869173526763916 1.2699960470199585 2.961890697479248
v 2.8848423957824707 0.09983883053064346 4.387222766876221
v 0.6098254323005676 1.2699960470199585 3.4585020542144775
v 0.5720190405845642 0.6500601172447205 4.123238563537598
v -1.7207146883010864 1.2699964046478271 2.9926135540008545
v -1.004571557044983 0.6500601172447205 4.017222881317139
v -2.972703218460083 1.4097387790679932 4.304219722747803
v -2.9853625297546387 1.2699965238571167 1.7279260158538818
v -4.271651744842529 1.4170708656311035 2.9494640827178955
v -4.021047115325928 0.6500601172447205 1.008703589439392
v -4.180319786071777 0.6500601172447205 0.0
v -3.9995243549346924 -2.8421708795129297e-16 1.969420075416565
v -1.972105622291565 -2.8421708795129297e-16 4.050756931304932
v -4.021047115325928 0.6500601172447205 1.008703589439392
v -4.271651744842529 1.4170708656311035 2.9494640827178955
v -1.972105622291565 -2.8421708795129297e-16 -4.050756931304932
v -2.972703218460083 1.4097387790679932 -4.304218769073486
v -1.004571557044983 0.6500601172447205 -4.017221450805664
v -4.021047115325928 0.6500601172447205 -1.008703589439392
v -4.271651744842529 1.4170708656311035 -2.9494640827178955
v 4.107694149017334 -0.4553341865539551 -2.224879026412964
v 4.107694149017334 0.4553341865539551 -2.224879026412964
v 4.107694149017334 0.4553341865539551 2.224879026412964
v 4.107694149017334 -0.4553341865539551 2.224879026412964
v 2.8848423957824707 0.09983883053064346 4.387222766876221
v 2.8848423957824707 -0.09983883053064346 4.387222766876221
v 0.5720190405845642 0.6500601172447205 4.123238563537598
v 0.5720190405845642 -0.6500601172447205 4.123238563537598
v -1.004571557044983 0.6500601172447205 4.017222881317139
v -1.004571557044983 -0.6500601172447205 4.017222881317139
v 2.8848423957824707 0.09983883053064346 -4.387221813201904
v 2.8848423957824707 -0.09983883053064346 -4.387221813201904
v 0.5720190405845642 0.6500601172447205 -4.123237133026123
v 0.5720190405845642 -0.6500601172447205 -4.123237133026123
v -1.004571557044983 0.6500601172447205 -4.017221450805664
v -1.004571557044983 -0.6500601172447205 -4.017221450805664
v -1.972105622291565 -2.8421708795129297e-16 -4.050756931304932
v -1.972105622291565 -2.8421708795129297e-16 4.050756931304932
v -1.972105622291565 -2.8421708795129297e-16 4.050756931304932
v -1.004571557044983 0.6500601172447205 4.017222881317139
v -2.972703218460083 1.4097387790679932 4.304219722747803
v -2.9853625297546387 -1.2699965238571167 -1.7279260158538818
v -4.021047115325928 -0.6500601172447205 -1.008703589439392
v -4.271651744842529 -1.4170708656311035 -2.9494640827178955
v -2.972703218460083 -1.4097387790679932 -4.304218769073486
v -1.7207146883010864 -1.2699964046478271 -2.99261212348938
v -1.004571557044983 -0.6500601172447205 -4.017221450805664
v 0.5720190405845642 -0.6500601172447205 -4.123237133026123
v 0.6098254323005676 -1.2699960470199585 -3.458500862121582
v 2.8848423957824707 -0.09983883053064346 -4.387221813201904
v 1.8869173526763916 -1.2699960470199585 -2.961890697479248
v 4.107694149017334 -0.4553341865539551 -2.224879026412964
v 2.999051332473755 -1.2699960470199585 -1.7278478145599365
v 3.461951732635498 -1.2873475551605225 0.0
v -3.458500862121582 -1.2699960470199585 0.0
v -4.180319786071777 -0.6500601172447205 0.0
v -3.9995243549346924 -2.8421708795129297e-16 -1.969420075416565
v -1.972105622291565 -2.8421708795129297e-16 -4.050756931304932
v 4.107694149017334 -0.4553341865539551 2.224879026412964
v 2.999051332473755 -1.2699960470199585 1.7278478145599365
v 1.8869173526763916 -1.2699960470199585 2.961890697479248
v 2.8848423957824707 -0.09983883053064346 4.387222766876221
v 0.6098254323005676 -1.2699960470199585 3.4585020542144775
v 0.5720190405845642 -0.6500601172447205 4.123238563537598
v -1.7207146883010864 -1.2699964046478271 2.9926135540008545
v -1.004571557044983 -0.6500601172447205 4.017222881317139
v -2.972703218460083 -1.4097387790679932 4.304219722747803
v -2.9853625297546387 -1.2699965238571167 1.7279260158538818
v -4.271651744842529 -1.4170708656311035 2.9494640827178955
v -4.021047115325928 -0.6500601172447205 1.008703589439392
v -3.9995243549346924 -2.8421708795129297e-16 1.969420075416565
v -1.972105622291565 -2.8421708795129297e-16 4.050756931304932
v -4.021047115325928 -0.6500601172447205 1.008703589439392
v -4.271651744842529 -1.4170708656311035 2.9494640827178955
v -4.021047115325928 0.6500601172447205 -1.008703589439392
v -3.9995243549346924 -2.8421708795129297e-16 -1.969420075416565
v -4.021047115325928 -0.6500601172447205 -1.008703589439392
v -4.180319786071777 -0.6500601172447205 0.0
v -4.180319786071777 0.6500601172447205 0.0
v -4.021047115325928 0.6500601172447205 1.008703589439392
v -4.021047115325928 -0.6500601172447205 1.008703589439392
v -3.9995243549346924 -2.8421708795129297e-16 1.969420075416565
v -1.972105622291565 -2.8421708795129297e-16 4.050756931304932
v -2.972703218460083 -1.4097387790679932 4.304219722747803
v -1.004571557044983 -0.6500601172447205 4.017222881317139
v -4.271651744842529 -1.4170708656311035 -2.9494640827178955
v -4.021047115325928 -0.6500601172447205 -1.008703589439392
v -1.972105622291565 -2.8421708795129297e-16 -4.050756931304932
v -1.004571557044983 -0.6500601172447205 -4.017221450805664
v -2.972703218460083 -1.4097387790679932 -4.304218769073486
vn -0.5905472040176392 0.7139329314231873 -0.376236230134964
vn -0.7713521122932434 0.288186252117157 -0.5674190521240234
vn -0.8655924797058105 0.49955296516418457 -0.03459114953875542
vn -0.5915873050689697 0.2729431688785553 -0.7586345672607422
vn -0.15158237516880035 0.7139350771903992 -0.6836076974868774
vn 0.000498326204251498 0.49133604764938354 -0.8709698915481567
vn 0.12158001959323883 0.7139338254928589 -0.6895772814750671
vn 0.12158069014549255 0.7139338254928589 -0.6895772218704224
vn 0.3762376010417938 0.7139265537261963 -0.5905540585517883
vn 0.3762352466583252 0.7139265537261963 -0.5905556082725525
vn 0.573581874370575 0.7139312624931335 -0.40162909030914307
vn 0.5735828876495361 0.7139312624931335 -0.4016278386116028
vn 0.6836246252059937 0.7139254212379456 0.15155194699764252
vn 0.573581874370575 0.7139312624931335 0.40162909030914307
vn -0.6895769834518433 0.7139326930046082 -0.12158812582492828
vn -0.8681812882423401 0.0 -0.49624720215797424
vn -0.504895806312561 0.0 -0.8631802797317505
vn 0.5735828876495361 0.7139312624931335 0.4016278386116028
vn 0.3762352466583252 0.7139265537261963 0.5905556082725525
vn 0.3762376010417938 0.7139265537261963 0.5905540585517883
vn 0.12158069014549255 0.7139338254928589 0.6895772218704224
vn 0.12158001959323883 0.7139338254928589 0.6895772814750671
vn -0.15158237516880035 0.7139350771903992 0.6836076974868774
vn 0.0004982518730685115 0.491335928440094 0.8709699511528015
vn -0.5915873050689697 0.2729431390762329 0.7586345672607422
vn -0.5905472040176392 0.7139329314231873 0.376236230134964
vn -0.771352231502533 0.2881864011287689 0.5674191117286682
vn -0.8655924797058105 0.49955305457115173 0.034591194242239
vn -0.9014249444007874 0.4329354465007782 0.0
vn -0.8681812882423401 0.0 0.49624717235565186
vn -0.5048961639404297 -1.9301540987726185e-07 0.8631800413131714
vn -0.8655924797058105 0.49955305457115173 0.034591194242239
vn -0.771352231502533 0.2881864011287689 0.5674191117286682
vn -0.504895806312561 0.0 -0.8631802797317505
vn -0.5915873050689697 0.2729431688785553 -0.7586345672607422
vn 0.000498326204251498 0.49133604764938354 -0.8709698915481567
vn -0.8655924797058105 0.49955296516418457 -0.03459114953875542
vn -0.7713521122932434 0.288186252117157 -0.5674190521240234
vn 0.573581874370575 -0.7139312624931335 -0.40162909030914307
vn 0.573581874370575 0.7139312624931335 -0.40162909030914307
vn 0.573581874370575 0.7139312624931335 0.40162909030914307
vn 0.573581874370575 -0.7139312624931335 0.40162909030914307
vn 0.3762376010417938 0.7139265537261963 0.5905540585517883
vn 0.3762376010417938 -0.7139265537261963 0.5905540585517883
vn 0.12158001959323883 0.7139338254928589 0.6895772814750671
vn 0.12158001959323883 -0.7139338254928589 0.6895772814750671
vn 0.0004982518730685115 0.491335928440094 0.8709699511528015
vn -0.1515815407037735 -0.7139350771903992 0.683607816696167
vn 0.3762376010417938 0.7139265537261963 -0.5905540585517883
vn 0.3762376010417938 -0.7139265537261963 -0.5905540585517883
vn 0.12158001959323883 0.7139338254928589 -0.6895772814750671
vn 0.12158001959323883 -0.7139338254928589 -0.6895772814750671
vn 0.000498326204251498 0.49133604764938354 -0.8709698915481567
vn -0.1515815407037735 -0.7139350771903992 -0.683607816696167
vn -0.504895806312561 0.0 -0.8631802797317505
vn -0.5048961639404297 -1.9301540987726185e-07 0.8631800413131714
vn -0.5048961639404297 -1.9301540987726185e-07 0.8631800413131714
vn 0.0004982518730685115 0.491335928440094 0.8709699511528015
vn -0.5915873050689697 0.2729431390762329 0.7586345672607422
vn -0.5905472040176392 -0.7139329314231873 -0.376236230134964
vn -0.6895758509635925 -0.7139326333999634 -0.12159454077482224
vn -0.7713521122932434 -0.28818637132644653 -0.5674191117286682
vn -0.591587245464325 -0.2729431688785553 -0.7586345672607422
vn -0.15158237516880035 -0.7139350771903992 -0.6836076974868774
vn -0.1515815407037735 -0.7139350771903992 -0.683607816696167
vn 0.12158001959323883 -0.7139338254928589 -0.6895772814750671
vn 0.12158069014549255 -0.7139338254928589 -0.6895772218704224
vn 0.3762376010417938 -0.7139265537261963 -0.5905540585517883
vn 0.3762352466583252 -0.7139265537261963 -0.5905556082725525
vn 0.573581874370575 -0.7139312624931335 -0.40162909030914307
vn 0.5735828876495361 -0.7139312624931335 -0.4016278386116028
vn 0.6836246252059937 -0.7139254212379456 0.15155194699764252
vn -0.6895769834518433 -0.7139326930046082 0.12158812582492828
vn -0.6895758509635925 -0.7139326333999634 0.12159454077482224
vn -0.8681812882423401 0.0 -0.49624720215797424
vn -0.504895806312561 0.0 -0.8631802797317505
vn 0.573581874370575 -0.7139312624931335 0.40162909030914307
vn 0.5735828876495361 -0.7139312624931335 0.4016278386116028
vn 0.3762352466583252 -0.7139265537261963 0.5905556082725525
vn 0.3762376010417938 -0.7139265537261963 0.5905540585517883
vn 0.12158069014549255 -0.7139338254928589 0.6895772218704224
vn 0.12158001959323883 -0.7139338254928589 0.6895772814750671
vn -0.15158237516880035 -0.7139350771903992 0.6836076974868774
vn -0.1515815407037735 -0.7139350771903992 0.683607816696167
vn -0.5915873646736145 -0.2729434370994568 0.7586344480514526
vn -0.5905472040176392 -0.7139329314231873 0.376236230134964
vn -0.771352231502533 -0.288186639547348 0.5674189329147339
vn -0.6895758509635925 -0.7139326333999634 0.12159454077482224
vn -0.8681812882423401 0.0 0.49624717235565186
vn -0.5048961639404297 -1.9301540987726185e-07 0.8631800413131714
vn -0.6895758509635925 -0.7139326333999634 0.12159454077482224
vn -0.771352231502533 -0.288186639547348 0.5674189329147339
vn -0.8655924797058105 0.49955296516418457 -0.03459114953875542
vn -0.8681812882423401 0.0 -0.49624720215797424
vn -0.6895758509635925 -0.7139326333999634 -0.12159454077482224
vn -0.6895758509635925 -0.7139326333999634 0.12159454077482224
vn -0.9014249444007874 0.4329354465007782 0.0
vn -0.8655924797058105 0.49955305457115173 0.034591194242239
vn -0.6895758509635925 -0.7139326333999634 0.12159454077482224
vn -0.8681812882423401 0.0 0.49624717235565186
vn -0.5048961639404297 -1.9301540987726185e-07 0.8631800413131714
vn -0.5915873646736145 -0.2729434370994568 0.7586344480514526
vn -0.1515815407037735 -0.7139350771903992 0.683607816696167
vn -0.7713521122932434 -0.28818637132644653 -0.5674191117286682
vn -0.6895758509635925 -0.7139326333999634 -0.12159454077482224
vn -0.504895806312561 0.0 -0.8631802797317505
vn -0.1515815407037735 -0.7139350771903992 -0.683607816696167
vn -0.591587245464325 -0.2729431688785553 -0.7586345672607422
vt 0.8464928865432739 0.30307281017303467
vt 1.0 0.1638573408126831
vt 0.9700925350189209 0.38504064083099365
vt 0.8449821472167969 0.009459495544433594
vt 0.6955685615539551 0.15893983840942383
vt 0.6101031303405762 0.04216790199279785
vt 0.42195117473602295 0.03008556365966797
vt 0.417439341545105 0.10584378242492676
vt 0.14593642950057983 0.0
vt 0.2650298476219177 0.16244113445281982
vt 0.0 0.24643635749816895
vt 0.13230657577514648 0.3030816316604614
vt 0.07706356048583984 0.49999988079071045
vt 0.0 0.753563404083252
vt 0.9029576778411865 0.49999988079071045
vt 0.9675240516662598 0.27555036544799805
vt 0.7255697250366211 0.038345932960510254
vt 0.13230657577514648 0.6969180703163147
vt 0.2650298476219177 0.8375586271286011
vt 0.14593642950057983 0.9999999403953552
vt 0.417439341545105 0.8941560983657837
vt 0.42195117473602295 0.9699143171310425
vt 0.6955685615539551 0.8410600423812866
vt 0.6101031303405762 0.9578320384025574
vt 0.8449821472167969 0.9905403256416321
vt 0.8464928865432739 0.696927011013031
vt 1.0 0.8361424207687378
vt 0.9700925350189209 0.6149591207504272
vt 0.989100456237793 0.49999988079071045
vt 0.9675240516662598 0.7244494557380676
vt 0.7255697250366211 0.9616538286209106
vt 0.9700925350189209 0.6149591207504272
vt 1.0 0.8361424207687378
vt 0.7255697250366211 0.038345932960510254
vt 0.8449821472167969 0.009459495544433594
vt 0.6101031303405762 0.04216790199279785
vt 0.9700925350189209 0.38504064083099365
vt 1.0 0.1638573408126831
vt 0.0 0.24643635749816895
vt 0.0 0.24643635749816895
vt 0.0 0.753563404083252
vt 0.0 0.753563404083252
vt 0.14593642950057983 0.9999999403953552
vt 0.14593642950057983 0.9999999403953552
vt 0.42195117473602295 0.9699143171310425
vt 0.42195117473602295 0.9699143171310425
vt 0.6101031303405762 0.9578320384025574
vt 0.6101031303405762 0.9578320384025574
vt 0.14593642950057983 0.0
vt 0.14593642950057983 0.0
vt 0.42195117473602295 0.03008556365966797
vt 0.42195117473602295 0.03008556365966797
vt 0.6101031303405762 0.04216790199279785
vt 0.6101031303405762 0.04216790199279785
vt 0.7255697250366211 0.038345932960510254
vt 0.7255697250366211 0.9616538286209106
vt 0.7255697250366211 0.9616538286209106
vt 0.6101031303405762 0.9578320384025574
vt 0.8449821472167969 0.9905403256416321
vt 0.8464928865432739 0.30307281017303467
vt 0.9700925350189209 0.38504064083099365
vt 1.0 0.1638573408126831
vt 0.8449821472167969 0.009459495544433594
vt 0.6955685615539551 0.15893983840942383
vt 0.6101031303405762 0.04216790199279785
vt 0.42195117473602295 0.03008556365966797
vt 0.417439341545105 0.10584378242492676
vt 0.14593642950057983 0.0
vt 0.2650298476219177 0.16244113445281982
vt 0.0 0.24643635749816895
vt 0.13230657577514648 0.3030816316604614
vt 0.07706356048583984 0.49999988079071045
vt 0.9029576778411865 0.49999988079071045
vt 0.989100456237793 0.49999988079071045
vt 0.9675240516662598 0.27555036544799805
vt 0.7255697250366211 0.038345932960510254
vt 0.0 0.753563404083252
vt 0.13230657577514648 0.6969180703163147
vt 0.2650298476219177 0.8375586271286011
vt 0.14593642950057983 0.9999999403953552
vt 0.417439341545105 0.8941560983657837
vt 0.42195117473602295 0.9699143171310425
vt 0.6955685615539551 0.8410600423812866
vt 0.6101031303405762 0.9578320384025574
vt 0.8449821472167969 0.9905403256416321
vt 0.8464928865432739 0.696927011013031
vt 1.0 0.8361424207687378
vt 0.9700925350189209 0.6149591207504272
vt 0.9675240516662598 0.7244494557380676
vt 0.7255697250366211 0.9616538286209106
vt 0.9700925350189209 0.6149591207504272
vt 1.0 0.8361424207687378
vt 0.9700925350189209 0.38504064083099365
vt 0.9675240516662598 0.27555036544799805
vt 0.9700925350189209 0.38504064083099365
vt 0.989100456237793 0.49999988079071045
vt 0.989100456237793 0.49999988079071045
vt 0.9700925350189209 0.6149591207504272
vt 0.9700925350189209 0.6149591207504272
vt 0.9675240516662598 0.7244494557380676
vt 0.7255697250366211 0.9616538286209106
vt 0.8449821472167969 0.9905403256416321
vt 0.6101031303405762 0.9578320384025574
vt 1.0 0.1638573408126831
vt 0.9700925350189209 0.38504064083099365
vt 0.7255697250366211 0.038345932960510254
vt 0.6101031303405762 0.04216790199279785
vt 0.8449821472167969 0.009459495544433594

g collision_Mega_Hover
s 1
usemtl collision_Mega_Hover
f 1/1/1 2/2/2 3/3/3 
f 1/1/1 4/4/4 2/2/2 
f 1/1/1 5/5/5 4/4/4 
f 5/5/5 6/6/6 4/4/4 
f 5/5/5 7/7/7 6/6/6 
f 5/5/5 8/8/8 7/7/7 
f 8/8/8 9/9/9 7/7/7 
f 8/8/8 10/10/10 9/9/9 
f 10/10/10 11/11/11 9/9/9 
f 10/10/10 12/12/12 11/11/11 
f 12/12/12 13/13/13 11/11/11 
f 13/13/13 14/14/14 11/11/11 
f 1/1/1 15/15/15 5/5/5 
f 5/5/5 15/15/15 8/8/8 
f 8/8/8 15/15/15 10/10/10 
f 10/10/10 15/15/15 12/12/12 
f 12/12/12 15/15/15 13/13/13 
f 16/16/16 2/2/2 4/4/4 
f 16/16/16 4/4/4 17/17/17 
f 18/18/18 14/14/14 13/13/13 
f 18/18/18 13/13/13 15/15/15 
f 19/19/19 14/14/14 18/18/18 
f 19/19/19 18/18/18 15/15/15 
f 19/19/19 20/20/20 14/14/14 
f 21/21/21 20/20/20 19/19/19 
f 21/21/21 19/19/19 15/15/15 
f 21/21/21 22/22/22 20/20/20 
f 23/23/23 22/22/22 21/21/21 
f 23/23/23 21/21/21 15/15/15 
f 23/23/23 24/24/24 22/22/22 
f 23/23/23 25/25/25 24/24/24 
f 26/26/26 25/25/25 23/23/23 
f 26/26/26 23/23/23 15/15/15 
f 26/26/26 27/27/27 25/25/25 
f 26/26/26 28/28/28 27/27/27 
f 26/26/26 15/15/15 29/29/29 
f 26/26/26 29/29/29 28/28/28 
f 1/1/1 29/29/29 15/15/15 
f 1/1/1 3/3/3 29/29/29 
f 30/30/30 25/25/25 27/27/27 
f 30/30/30 31/31/31 25/25/25 
f 32/32/32 30/30/30 33/33/33 
f 34/34/34 35/35/35 36/36/36 
f 37/37/37 38/38/38 16/16/16 
f 39/39/39 40/40/40 41/41/41 
f 39/39/39 41/41/41 42/42/42 
f 43/43/43 42/42/42 41/41/41 
f 43/43/43 44/44/44 42/42/42 
f 45/45/45 44/44/44 43/43/43 
f 45/45/45 46/46/46 44/44/44 
f 47/47/47 46/46/46 45/45/45 
f 47/47/47 48/48/48 46/46/46 
f 49/49/49 40/40/40 39/39/39 
f 49/49/49 39/39/39 50/50/50 
f 51/51/51 49/49/49 50/50/50 
f 51/51/51 50/50/50 52/52/52 
f 53/53/53 51/51/51 52/52/52 
f 53/53/53 52/52/52 54/54/54 
f 55/55/55 53/53/53 54/54/54 
f 56/56/56 48/48/48 47/47/47 
f 57/57/57 58/58/58 59/59/59 
f 60/60/60 61/61/61 62/62/62 
f 60/60/60 62/62/62 63/63/63 
f 60/60/60 63/63/63 64/64/64 
f 64/64/64 63/63/63 65/65/65 
f 64/64/64 65/65/65 66/66/66 
f 64/64/64 66/66/66 67/67/67 
f 67/67/67 66/66/66 68/68/68 
f 67/67/67 68/68/68 69/69/69 
f 69/69/69 68/68/68 70/70/70 
f 69/69/69 70/70/70 71/71/71 
f 71/71/71 70/70/70 72/72/72 
f 60/60/60 64/64/64 73/73/73 
f 64/64/64 67/67/67 73/73/73 
f 67/67/67 69/69/69 73/73/73 
f 69/69/69 71/71/71 73/73/73 
f 71/71/71 72/72/72 73/73/73 
f 60/60/60 73/73/73 74/74/74 
f 60/60/60 74/74/74 61/61/61 
f 75/75/75 63/63/63 62/62/62 
f 75/75/75 76/76/76 63/63/63 
f 72/72/72 70/70/70 77/77/77 
f 78/78/78 72/72/72 77/77/77 
f 78/78/78 73/73/73 72/72/72 
f 79/79/79 78/78/78 77/77/77 
f 79/79/79 73/73/73 78/78/78 
f 79/79/79 77/77/77 80/80/80 
f 81/81/81 79/79/79 80/80/80 
f 81/81/81 73/73/73 79/79/79 
f 81/81/81 80/80/80 82/82/82 
f 83/83/83 81/81/81 82/82/82 
f 83/83/83 73/73/73 81/81/81 
f 83/83/83 82/82/82 84/84/84 
f 83/83/83 84/84/84 85/85/85 
f 86/86/86 83/83/83 85/85/85 
f 86/86/86 73/73/73 83/83/83 
f 86/86/86 74/74/74 73/73/73 
f 86/86/86 85/85/85 87/87/87 
f 86/86/86 87/87/87 88/88/88 
f 86/86/86 88/88/88 74/74/74 
f 89/89/89 87/87/87 85/85/85 
f 89/89/89 85/85/85 90/90/90 
f 91/91/91 92/92/92 89/89/89 
f 93/93/93 94/94/94 95/95/95 
f 96/96/96 93/93/93 95/95/95 
f 96/96/96 97/97/97 93/93/93 
f 96/96/96 98/98/98 97/97/97 
f 96/96/96 99/99/99 98/98/98 
f 98/98/98 99/99/99 100/100/100 
f 101/101/101 102/102/102 103/103/103 
f 75/75/75 104/104/104 105/105/105 
f 106/106/106 107/107/107 108/108/108 

