v -4.301839351654053 -2.8967883586883545 1.2102067470550537
v -6.072819709777832 -5.239833831787109 1.639467716217041
v 5.075491428375244 -5.40615701675415 1.6657520532608032
v 5.075491428375244 -5.40615701675415 1.6657520532608032
v -1.0622355937957764 -1.396533727645874 0.8612887263298035
v -4.301839351654053 -2.8967883586883545 1.2102067470550537
v 1.0622355937957764 -1.396533727645874 0.8612887263298035
v -1.0622355937957764 -1.396533727645874 0.8612887263298035
v -1.0622355937957764 -1.396533727645874 -0.8613017797470093
v -1.0622355937957764 -1.396533727645874 0.8612887263298035
v 1.0622355937957764 -1.396533727645874 0.8612887263298035
v 1.0622355937957764 -1.396533727645874 -0.8613017797470093
v 5.075491428375244 -5.40615701675415 -1.6657652854919434
v -6.072819709777832 -5.239833831787109 -1.6394811868667603
v -4.301839351654053 -2.8967883586883545 -1.2102199792861938
v -4.301839351654053 -2.8967883586883545 -1.2102199792861938
v -1.0622355937957764 -1.396533727645874 -0.8613017797470093
v 5.075491428375244 -5.40615701675415 -1.6657652854919434
v 1.0622355937957764 -1.396533727645874 -0.8613017797470093
v -6.072819709777832 -5.239833831787109 1.639467716217041
v -4.301839351654053 -2.8967883586883545 1.2102067470550537
v -4.301839351654053 -2.8967883586883545 -1.2102199792861938
v -6.072819709777832 -5.239833831787109 -1.6394811868667603
v -4.301839351654053 -2.8967883586883545 1.2102067470550537
v -1.0622355937957764 -1.396533727645874 0.8612887263298035
v -1.0622355937957764 -1.396533727645874 -0.8613017797470093
v -4.301839351654053 -2.8967883586883545 -1.2102199792861938
v 5.075491428375244 -5.40615701675415 -1.6657652854919434
v 1.0622355937957764 -1.396533727645874 -0.8613017797470093
v 1.0622355937957764 -1.396533727645874 0.8612887263298035
v 5.075491428375244 -5.40615701675415 1.6657520532608032
v 5.075491428375244 -8.874960899353027 -1.9633113145828247
v 5.075491428375244 -8.874960899353027 1.963297963142395
v -6.072819709777832 -8.99318790435791 1.963297963142395
v -6.072819709777832 -8.99318790435791 -1.9633113145828247
v 5.075491428375244 -5.40615701675415 -1.6657652854919434
v 5.075491428375244 -8.874960899353027 -1.9633113145828247
v -6.072819709777832 -8.99318790435791 -1.9633113145828247
v -6.072819709777832 -5.239833831787109 -1.6394811868667603
v -6.072819709777832 -5.239833831787109 -1.6394811868667603
v -6.072819709777832 -8.99318790435791 -1.9633113145828247
v -6.072819709777832 -8.99318790435791 1.963297963142395
v -6.072819709777832 -5.239833831787109 1.639467716217041
v -6.072819709777832 -5.239833831787109 1.639467716217041
v -6.072819709777832 -8.99318790435791 1.963297963142395
v 5.075491428375244 -8.874960899353027 1.963297963142395
v 5.075491428375244 -5.40615701675415 1.6657520532608032
v 5.075491428375244 -5.40615701675415 1.6657520532608032
v 5.075491428375244 -8.874960899353027 1.963297963142395
v 5.075491428375244 -8.874960899353027 -1.9633113145828247
v 5.075491428375244 -5.40615701675415 -1.6657652854919434
vn 0.0034676031209528446 0.19384461641311646 0.9810261130332947
vn 0.0034676038194447756 0.19384461641311646 0.9810261130332947
vn 0.003467603586614132 0.19384463131427765 0.9810261130332947
vn 0.003467603586614132 0.19384463131427765 0.9810261130332947
vn 0.003467603586614132 0.19384461641311646 0.9810261130332947
vn 0.0034676031209528446 0.19384461641311646 0.9810261130332947
vn 0.003467603586614132 0.19384463131427765 0.9810261130332947
vn 0.003467603586614132 0.19384461641311646 0.9810261130332947
vn 0.0 1.0 0.0
vn 0.0 1.0 0.0
vn 0.0 1.0 0.0
vn 0.0 1.0 0.0
vn 0.003467603586614132 0.19384470582008362 -0.9810261130332947
vn 0.0034676031209528446 0.19384469091892242 -0.9810261130332947
vn 0.0034676031209528446 0.19384470582008362 -0.9810261130332947
vn 0.0034676031209528446 0.19384470582008362 -0.9810261130332947
vn 0.0034676031209528446 0.19384467601776123 -0.9810261130332947
vn 0.003467603586614132 0.19384470582008362 -0.9810261130332947
vn 0.003467603586614132 0.19384469091892242 -0.9810261130332947
vn -0.7977560758590698 0.6029802560806274 0.0
vn -0.7977560758590698 0.6029802560806274 0.0
vn -0.7977560758590698 0.6029802560806274 0.0
vn -0.7977560758590698 0.6029802560806274 0.0
vn -0.42022454738616943 0.9074200987815857 0.0
vn -0.42022454738616943 0.9074200987815857 0.0
vn -0.42022451758384705 0.9074200987815857 0.0
vn -0.42022454738616943 0.9074200987815857 0.0
vn 0.706786572933197 0.7074268460273743 0.0
vn 0.706786572933197 0.7074268460273743 0.0
vn 0.706786572933197 0.7074268460273743 0.0
vn 0.706786572933197 0.7074268460273743 0.0
vn 0.010604377835988998 -0.9999438524246216 0.0
vn 0.010604377835988998 -0.9999438524246216 0.0
vn 0.010604377835988998 -0.9999438524246216 0.0
vn 0.010604377835988998 -0.9999438524246216 0.0
vn -0.000989599502645433 0.0857207179069519 -0.9963186979293823
vn -0.0009895996190607548 0.0857207328081131 -0.9963186979293823
vn -0.000989599502645433 0.0857207253575325 -0.9963186979293823
vn -0.0009895996190607548 0.0857207328081131 -0.9963186979293823
vn -1.0 1.5887864890373748e-07 0.0
vn -1.0 1.588786631145922e-07 0.0
vn -1.0 1.588786631145922e-07 0.0
vn -1.0 1.5887864890373748e-07 0.0
vn -0.0009895996190607548 0.0857207402586937 0.9963186979293823
vn -0.000989599502645433 0.0857207328081131 0.9963186979293823
vn -0.0009895996190607548 0.0857207402586937 0.9963186979293823
vn -0.000989599502645433 0.0857207328081131 0.9963186979293823
vn 1.0 0.0 0.0
vn 1.0 0.0 0.0
vn 1.0 0.0 0.0
vn 1.0 0.0 0.0
vt 0.625 1.0
vt 0.5 1.0
vt 0.375 1.0
vt 0.375 1.0
vt 0.625 0.75
vt 0.625 1.0
vt 0.375 0.75
vt 0.625 0.75
vt 0.625 0.5
vt 0.625 0.75
vt 0.375 0.75
vt 0.375 0.5
vt 0.375 0.25
vt 0.5 0.25
vt 0.625 0.25
vt 0.625 0.25
vt 0.625 0.5
vt 0.375 0.25
vt 0.375 0.5
vt 0.5 0.0
vt 0.625 0.0
vt 0.625 0.25
vt 0.5 0.25
vt 0.625 1.0
vt 0.625 0.75
vt 0.875 0.75
vt 0.875 1.0
vt 0.125 1.0
vt 0.125 0.75
vt 0.375 0.75
vt 0.375 1.0
vt 0.375 0.25
vt 0.375 0.0
vt 0.5 0.0
vt 0.5 0.25
vt 0.375 0.25
vt 0.375 0.25
vt 0.5 0.25
vt 0.5 0.25
vt 0.5 0.25
vt 0.5 0.25
vt 0.5 0.0
vt 0.5 0.0
vt 0.5 0.0
vt 0.5 0.0
vt 0.375 0.0
vt 0.375 0.0
vt 0.375 0.0
vt 0.375 0.0
vt 0.375 0.25
vt 0.375 0.25

g ExtendCollisionMechleg_M1
s 1
usemtl ExtendCollisionMechleg_M1
f 1/1/1 2/2/2 3/3/3 
f 4/4/4 5/5/5 6/6/6 
f 4/4/4 7/7/7 8/8/8 
f 9/9/9 10/10/10 11/11/11 
f 9/9/9 11/11/11 12/12/12 
f 13/13/13 14/14/14 15/15/15 
f 16/16/16 17/17/17 18/18/18 
f 17/17/17 19/19/19 18/18/18 
f 20/20/20 21/21/21 22/22/22 
f 20/20/20 22/22/22 23/23/23 
f 24/24/24 25/25/25 26/26/26 
f 24/24/24 26/26/26 27/27/27 
f 28/28/28 29/29/29 30/30/30 
f 28/28/28 30/30/30 31/31/31 
f 32/32/32 33/33/33 34/34/34 
f 32/32/32 34/34/34 35/35/35 
f 36/36/36 37/37/37 38/38/38 
f 36/36/36 38/38/38 39/39/39 
f 40/40/40 41/41/41 42/42/42 
f 40/40/40 42/42/42 43/43/43 
f 44/44/44 45/45/45 46/46/46 
f 44/44/44 46/46/46 47/47/47 
f 48/48/48 49/49/49 50/50/50 
f 48/48/48 50/50/50 51/51/51 

