v 0.15349707007408142 0.5953980684280396 -0.11939270049333572
v 5.78510706006341e-09 0.5795111060142517 -0.3453926742076874
v 2.6979661171822045e-08 0.6147892475128174 -0.11939270049333572
v 0.14472374320030212 0.5612282156944275 -0.3453926742076874
v 0.29734936356544495 0.5384429097175598 -0.11939270049333572
v 0.28035399317741394 0.5075283646583557 -0.3453926742076874
v 0.4225181043148041 0.4475024342536926 -0.11939270049333572
v 0.3983685076236725 0.42178580164909363 -0.3453926742076874
v 0.5211384892463684 0.3282908499240875 -0.11939270049333572
v 0.4913521409034729 0.30938786268234253 -0.3453926742076874
v 0.5870137810707092 0.18829859793186188 -0.11939270049333572
v 0.5534622073173523 0.17739705741405487 -0.3453926742076874
v 0.6160047650337219 0.03632194921374321 -0.11939270049333572
v 0.5807962417602539 0.03410683199763298 -0.3453926742076874
v 0.6062899231910706 -0.11808984726667404 -0.11939270049333572
v 0.5716366171836853 -0.11147934943437576 -0.3453926742076874
v 0.5584796071052551 -0.2652345299720764 -0.11939270049333572
v 0.5265589952468872 -0.2502138018608093 -0.3453926742076874
v 0.4755779504776001 -0.39586639404296875 -0.11939270049333572
v 0.44839566946029663 -0.3733792006969452 -0.3453926742076874
v 0.36279407143592834 -0.5017773509025574 -0.11939270049333572
v 0.34205809235572815 -0.47323668003082275 -0.3453926742076874
v 0.22721436619758606 -0.576312780380249 -0.11939270049333572
v 0.21422763168811798 -0.5435119271278381 -0.3453926742076874
v 0.0773579552769661 -0.6147892475128174 -0.11939270049333572
v 0.07293646037578583 -0.5797892808914185 -0.3453926742076874
v -0.077359139919281 -0.6147891283035278 -0.11939270049333572
v -0.07293757051229477 -0.5797891020774841 -0.3453926742076874
v -0.2272154688835144 -0.5763123035430908 -0.11939270049333572
v -0.21422868967056274 -0.5435115694999695 -0.3453926742076874
v -0.36279502511024475 -0.5017766356468201 -0.11939270049333572
v -0.3420589864253998 -0.473236083984375 -0.3453926742076874
v -0.47557878494262695 -0.39586538076400757 -0.11939270049333572
v -0.4483964443206787 -0.37337827682495117 -0.3453926742076874
v -0.5584802031517029 -0.2652333080768585 -0.11939270049333572
v -0.5265595316886902 -0.2502126395702362 -0.3453926742076874
v -0.6062901616096497 -0.11808852851390839 -0.11939270049333572
v -0.5716368556022644 -0.11147810518741608 -0.3453926742076874
v -0.6160047054290771 0.03632328659296036 -0.11939270049333572
v -0.5807961821556091 0.03410809859633446 -0.3453926742076874
v -0.5870133638381958 0.18829986453056335 -0.11939270049333572
v -0.5534618496894836 0.17739823460578918 -0.3453926742076874
v -0.5211377739906311 0.32829201221466064 -0.11939270049333572
v -0.491351455450058 0.3093889355659485 -0.3453926742076874
v -0.42251715064048767 0.44750335812568665 -0.11939270049333572
v -0.39836764335632324 0.4217866361141205 -0.3453926742076874
v -0.2973482012748718 0.5384435057640076 -0.11939270049333572
v -0.2803528606891632 0.5075289607048035 -0.3453926742076874
v -0.15349575877189636 0.5953983664512634 -0.11939270049333572
v -0.14472249150276184 0.5612285733222961 -0.3453926742076874
v 2.6979661171822045e-08 0.6147892475128174 -0.11939270049333572
v 5.78510706006341e-09 0.5795111060142517 -0.3453926742076874
vn 0.24571430683135986 0.9569939374923706 -0.15423038601875305
vn 6.232883720258542e-07 0.9880349040031433 -0.15423038601875305
vn 6.001042720527039e-07 0.9880349040031433 -0.15423035621643066
vn 0.24571430683135986 0.9569939374923706 -0.15423038601875305
vn 0.47598955035209656 0.8658215403556824 -0.15423040091991425
vn 0.47598960995674133 0.8658215403556824 -0.15423040091991425
vn 0.6763565540313721 0.7202463150024414 -0.15423040091991425
vn 0.6763564944267273 0.7202463746070862 -0.15423038601875305
vn 0.8342256546020508 0.5294153690338135 -0.15423038601875305
vn 0.8342256546020508 0.5294153690338135 -0.15423038601875305
vn 0.9396771788597107 0.3053191304206848 -0.15423043072223663
vn 0.9396771788597107 0.3053191304206848 -0.15423043072223663
vn 0.9860852956771851 0.062038738280534744 -0.15423038601875305
vn 0.9860852956771851 0.06203879788517952 -0.15423032641410828
vn 0.9705340266227722 -0.18513989448547363 -0.15423032641410828
vn 0.9705340266227722 -0.18513987958431244 -0.15423032641410828
vn 0.8940004110336304 -0.42068547010421753 -0.15423035621643066
vn 0.8940004110336304 -0.4206854999065399 -0.15423035621643066
vn 0.7612935304641724 -0.6297977566719055 -0.15423038601875305
vn 0.7612935304641724 -0.6297977566719055 -0.15423038601875305
vn 0.5807517170906067 -0.7993375062942505 -0.15423038601875305
vn 0.5807517170906067 -0.7993375062942505 -0.15423038601875305
vn 0.3637191951274872 -0.9186519980430603 -0.15423041582107544
vn 0.3637191951274872 -0.9186519980430603 -0.15423041582107544
vn 0.12383268773555756 -0.9802440404891968 -0.15423040091991425
vn 0.12383267283439636 -0.9802440404891968 -0.15423040091991425
vn -0.12383466958999634 -0.9802438020706177 -0.15423043072223663
vn -0.12383462488651276 -0.9802438020706177 -0.15423040091991425
vn -0.3637208938598633 -0.918651282787323 -0.15423038601875305
vn -0.3637208938598633 -0.918651282787323 -0.15423038601875305
vn -0.5807533264160156 -0.799336314201355 -0.15423040091991425
vn -0.5807533264160156 -0.799336314201355 -0.15423041582107544
vn -0.7612947821617126 -0.6297962069511414 -0.15423044562339783
vn -0.7612948417663574 -0.6297961473464966 -0.15423040091991425
vn -0.8940013647079468 -0.42068350315093994 -0.15423040091991425
vn -0.8940013647079468 -0.42068353295326233 -0.15423040091991425
vn -0.9705343842506409 -0.1851378083229065 -0.15423043072223663
vn -0.9705343842506409 -0.18513785302639008 -0.15423041582107544
vn -0.9860851764678955 0.06204076483845711 -0.15423037111759186
vn -0.9860851764678955 0.06204075738787651 -0.15423037111759186
vn -0.9396765232086182 0.30532121658325195 -0.15423041582107544
vn -0.9396765232086182 0.30532118678092957 -0.15423040091991425
vn -0.8342245221138 0.5294170379638672 -0.15423037111759186
vn -0.8342245221138 0.5294170379638672 -0.15423037111759186
vn -0.6763550043106079 0.7202478051185608 -0.15423041582107544
vn -0.6763550043106079 0.7202478051185608 -0.15423041582107544
vn -0.47598767280578613 0.8658226132392883 -0.15423043072223663
vn -0.4759877026081085 0.8658226132392883 -0.15423041582107544
vn -0.2457127869129181 0.9569944143295288 -0.15423037111759186
vn -0.2457127869129181 0.9569944143295288 -0.15423035621643066
vn 6.001042720527039e-07 0.9880349040031433 -0.15423035621643066
vn 6.232883720258542e-07 0.9880349040031433 -0.15423038601875305
vt 0.060558684170246124 0.8573732972145081
vt 0.02843334525823593 0.9863179577514529
vt 0.02843334525823593 0.8573732972145081
vt 0.06056629866361618 0.9863179577514529
vt 0.09267605096101761 0.8573732972145081
vt 0.09269080311059952 0.9863179577514529
vt 0.12477803975343704 0.8573732972145081
vt 0.12479899078607559 0.9863179577514529
vt 0.1568581461906433 0.8573732972145081
vt 0.15688395500183105 0.9863179577514529
vt 0.18891140818595886 0.8573732972145081
vt 0.18894043564796448 0.9863179577514529
vt 0.22093456983566284 0.8573732972145081
vt 0.2209649384021759 0.9863179577514529
vt 0.25292617082595825 0.8573732972145081
vt 0.2529560327529907 0.9863179577514529
vt 0.2848869264125824 0.8573732972145081
vt 0.28491437435150146 0.9863179577514529
vt 0.31681928038597107 0.8573732972145081
vt 0.31684261560440063 0.9863179577514529
vt 0.34872758388519287 0.8573732972145081
vt 0.3487453758716583 0.9863179577514529
vt 0.38061758875846863 0.8573732972145081
vt 0.3806287348270416 0.9863179577514529
vt 0.4124961495399475 0.8573732972145081
vt 0.41249993443489075 0.9863179577514529
vt 0.4443708062171936 0.8573732972145081
vt 0.44436705112457275 0.9863179577514529
vt 0.4762493371963501 0.8573732972145081
vt 0.4762382507324219 0.9863179577514529
vt 0.5081393718719482 0.8573732972145081
vt 0.5081216096878052 0.9863179577514529
vt 0.5400477051734924 0.8573732972145081
vt 0.5400243997573853 0.9863179577514529
vt 0.5719801187515259 0.8573732972145081
vt 0.5719526410102844 0.9863179577514529
vt 0.6039408445358276 0.8573732972145081
vt 0.6039109826087952 0.9863179577514529
vt 0.635932445526123 0.8573732972145081
vt 0.6359020471572876 0.9863179577514529
vt 0.6679555773735046 0.8573732972145081
vt 0.667926549911499 0.9863179577514529
vt 0.7000088691711426 0.8573732972145081
vt 0.6999830603599548 0.9863179577514529
vt 0.7320890426635742 0.8573732972145081
vt 0.7320680618286133 0.9863179577514529
vt 0.7641909122467041 0.8573732972145081
vt 0.7641761898994446 0.9863179577514529
vt 0.7963082790374756 0.8573732972145081
vt 0.7963006496429443 0.9863179577514529
vt 0.8284333348274231 0.8573732972145081
vt 0.8284333348274231 0.9863179577514529

g Glow
s 1
usemtl Glow
f 1/1/1 2/2/2 3/3/3 
f 2/2/2 1/1/1 4/4/4 
f 5/5/5 4/4/4 1/1/1 
f 4/4/4 5/5/5 6/6/6 
f 7/7/7 6/6/6 5/5/5 
f 6/6/6 7/7/7 8/8/8 
f 9/9/9 8/8/8 7/7/7 
f 8/8/8 9/9/9 10/10/10 
f 11/11/11 10/10/10 9/9/9 
f 10/10/10 11/11/11 12/12/12 
f 13/13/13 12/12/12 11/11/11 
f 12/12/12 13/13/13 14/14/14 
f 15/15/15 14/14/14 13/13/13 
f 14/14/14 15/15/15 16/16/16 
f 17/17/17 16/16/16 15/15/15 
f 16/16/16 17/17/17 18/18/18 
f 19/19/19 18/18/18 17/17/17 
f 18/18/18 19/19/19 20/20/20 
f 21/21/21 20/20/20 19/19/19 
f 20/20/20 21/21/21 22/22/22 
f 23/23/23 22/22/22 21/21/21 
f 22/22/22 23/23/23 24/24/24 
f 25/25/25 24/24/24 23/23/23 
f 24/24/24 25/25/25 26/26/26 
f 27/27/27 26/26/26 25/25/25 
f 26/26/26 27/27/27 28/28/28 
f 29/29/29 28/28/28 27/27/27 
f 28/28/28 29/29/29 30/30/30 
f 31/31/31 30/30/30 29/29/29 
f 30/30/30 31/31/31 32/32/32 
f 33/33/33 32/32/32 31/31/31 
f 32/32/32 33/33/33 34/34/34 
f 35/35/35 34/34/34 33/33/33 
f 34/34/34 35/35/35 36/36/36 
f 37/37/37 36/36/36 35/35/35 
f 36/36/36 37/37/37 38/38/38 
f 39/39/39 38/38/38 37/37/37 
f 38/38/38 39/39/39 40/40/40 
f 41/41/41 40/40/40 39/39/39 
f 40/40/40 41/41/41 42/42/42 
f 43/43/43 42/42/42 41/41/41 
f 42/42/42 43/43/43 44/44/44 
f 45/45/45 44/44/44 43/43/43 
f 44/44/44 45/45/45 46/46/46 
f 47/47/47 46/46/46 45/45/45 
f 46/46/46 47/47/47 48/48/48 
f 49/49/49 48/48/48 47/47/47 
f 48/48/48 49/49/49 50/50/50 
f 51/51/51 50/50/50 49/49/49 
f 50/50/50 51/51/51 52/52/52 

