v 0.08493869751691818 0.28251391649246216 -0.05884765833616257
v 0.10405978560447693 0.28251391649246216 0.0
v 0.10405978560447693 0.15715625882148743 0.0
v 0.08493869751691818 0.15715625882148743 -0.05884765833616257
v 0.034878142178058624 0.28251391649246216 -0.09521875530481339
v 0.034878142178058624 0.15715625882148743 -0.09521875530481339
v 0.08493869751691818 0.28251391649246216 0.05884765833616257
v 0.08493869751691818 0.15715625882148743 0.05884765833616257
v 0.034878142178058624 0.28251391649246216 0.09521875530481339
v 0.034878142178058624 0.15715625882148743 0.09521875530481339
v -0.027004674077033997 0.28251391649246216 -0.09521875530481339
v 0.034878142178058624 0.28251391649246216 -0.09521875530481339
v 0.034878142178058624 0.15715625882148743 -0.09521875530481339
v -0.027004674077033997 0.15715625882148743 -0.09521875530481339
v -0.07706522196531296 0.28251391649246216 -0.05884765833616257
v -0.07706522196531296 0.15715625882148743 -0.05884765833616257
v -0.0961882695555687 0.28251391649246216 0.0
v -0.07706522196531296 0.28251391649246216 -0.05884765833616257
v -0.07706522196531296 0.15715625882148743 -0.05884765833616257
v -0.0961882695555687 0.15715625882148743 0.0
v -0.07706522196531296 0.15715625882148743 0.05884765833616257
v -0.07706522196531296 0.28251391649246216 0.05884765833616257
v -0.027004674077033997 0.15715625882148743 0.09521875530481339
v -0.027004674077033997 0.28251391649246216 0.09521875530481339
v -0.027004674077033997 0.28251391649246216 0.09521875530481339
v -0.027004674077033997 0.15715625882148743 0.09521875530481339
v 0.034878142178058624 0.15715625882148743 0.09521875530481339
v 0.034878142178058624 0.28251391649246216 0.09521875530481339
vn 0.8090065121650696 0.0 -0.587799608707428
vn 0.9510443806648254 0.0 -0.30905431509017944
vn 0.9510443806648254 0.0 -0.30905431509017944
vn 0.8090065121650696 0.0 -0.587799608707428
vn 0.30901503562927246 0.0 -0.9510570764541626
vn 0.30901503562927246 0.0 -0.9510570764541626
vn 0.8090065121650696 0.0 0.587799608707428
vn 0.8090065121650696 0.0 0.587799608707428
vn 0.30901506543159485 0.0 0.9510570764541626
vn 0.30901506543159485 0.0 0.9510570764541626
vn -0.3090094327926636 0.0 -0.9510589241981506
vn 0.30901503562927246 0.0 -0.9510570764541626
vn 0.30901503562927246 0.0 -0.9510570764541626
vn -0.3090094327926636 0.0 -0.9510589241981506
vn -0.808997392654419 0.0 -0.5878122448921204
vn -0.808997392654419 0.0 -0.5878122448921204
vn -0.9510443806648254 0.0 -0.30905431509017944
vn -0.808997392654419 0.0 -0.5878122448921204
vn -0.808997392654419 0.0 -0.5878122448921204
vn -0.9510443806648254 0.0 -0.30905431509017944
vn -0.808997392654419 0.0 0.5878121852874756
vn -0.808997392654419 0.0 0.5878121852874756
vn -0.30900946259498596 0.0 0.9510589241981506
vn -0.30900946259498596 0.0 0.9510589241981506
vn -0.30900946259498596 0.0 0.9510589241981506
vn -0.30900946259498596 0.0 0.9510589241981506
vn 0.30901506543159485 0.0 0.9510570764541626
vn 0.30901506543159485 0.0 0.9510570764541626
vt 0.7486062049865723 0.08126819133758545
vt 0.7486062049865723 0.08255302906036377
vt 0.7458691596984863 0.08255302906036377
vt 0.7458691596984863 0.08126819133758545
vt 0.7486062049865723 0.0804741382598877
vt 0.7458691596984863 0.0804741382598877
vt 0.7486062049865723 0.08383798599243164
vt 0.7458691596984863 0.08383798599243164
vt 0.7486062049865723 0.0846320390701294
vt 0.7458691596984863 0.0846320390701294
vt 0.7528500556945801 0.06911331415176392
vt 0.7514989376068115 0.06911331415176392
vt 0.7514989376068115 0.0663762092590332
vt 0.7528500556945801 0.0663762092590332
vt 0.7539429664611816 0.06911331415176392
vt 0.7539429664611816 0.0663762092590332
vt 0.7568762302398682 0.06782835721969604
vt 0.7568762302398682 0.06911331415176392
vt 0.7541391849517822 0.06911331415176392
vt 0.7541391849517822 0.06782835721969604
vt 0.7541391849517822 0.0665435791015625
vt 0.7568762302398682 0.0665435791015625
vt 0.7541391849517822 0.06574946641921997
vt 0.7568762302398682 0.06574946641921997
vt 0.7513025999069214 0.0663762092590332
vt 0.7513025999069214 0.06911331415176392
vt 0.7499516010284424 0.06911331415176392
vt 0.7499516010284424 0.0663762092590332

g legRotateSide
s 1
usemtl legRotateSide
f 1/1/1 2/2/2 3/3/3 
f 1/1/1 3/3/3 4/4/4 
f 5/5/5 1/1/1 4/4/4 
f 5/5/5 4/4/4 6/6/6 
f 7/7/7 3/3/3 2/2/2 
f 7/7/7 8/8/8 3/3/3 
f 9/9/9 8/8/8 7/7/7 
f 9/9/9 10/10/10 8/8/8 
f 11/11/11 12/12/12 13/13/13 
f 11/11/11 13/13/13 14/14/14 
f 15/15/15 11/11/11 14/14/14 
f 15/15/15 14/14/14 16/16/16 
f 17/17/17 18/18/18 19/19/19 
f 17/17/17 19/19/19 20/20/20 
f 17/17/17 20/20/20 21/21/21 
f 17/17/17 21/21/21 22/22/22 
f 22/22/22 21/21/21 23/23/23 
f 22/22/22 23/23/23 24/24/24 
f 25/25/25 26/26/26 27/27/27 
f 25/25/25 27/27/27 28/28/28 

