v 0.08493945747613907 0.28251391649246216 -0.05884765833616257
v 0.10406055301427841 0.28251391649246216 4.3916627586731655e-18
v 0.10406055301427841 0.15715625882148743 4.065471115148086e-18
v 0.08493945747613907 0.15715625882148743 -0.05884765833616257
v 0.03487890958786011 0.28251391649246216 -0.09521875530481339
v 0.03487890958786011 0.15715625882148743 -0.09521875530481339
v 0.08493945747613907 0.28251391649246216 0.05884765833616257
v 0.08493945747613907 0.15715625882148743 0.05884765833616257
v 0.03487890958786011 0.28251391649246216 0.09521875530481339
v 0.03487890958786011 0.15715625882148743 0.09521875530481339
v -0.027003906667232513 0.28251391649246216 -0.09521875530481339
v 0.03487890958786011 0.28251391649246216 -0.09521875530481339
v 0.03487890958786011 0.15715625882148743 -0.09521875530481339
v -0.027003906667232513 0.15715625882148743 -0.09521875530481339
v -0.07706445455551147 0.28251391649246216 -0.05884765833616257
v -0.07706445455551147 0.15715625882148743 -0.05884765833616257
v -0.09618750214576721 0.28251391649246216 0.0
v -0.07706445455551147 0.28251391649246216 -0.05884765833616257
v -0.07706445455551147 0.15715625882148743 -0.05884765833616257
v -0.09618750214576721 0.15715625882148743 0.0
v -0.07706445455551147 0.15715625882148743 0.05884765833616257
v -0.07706445455551147 0.28251391649246216 0.05884765833616257
v -0.027003906667232513 0.15715625882148743 0.09521875530481339
v -0.027003906667232513 0.28251391649246216 0.09521875530481339
v -0.027003906667232513 0.28251391649246216 0.09521875530481339
v -0.027003906667232513 0.15715625882148743 0.09521875530481339
v 0.03487890958786011 0.15715625882148743 0.09521875530481339
v 0.03487890958786011 0.28251391649246216 0.09521875530481339
vn 0.8090065121650696 0.0 -0.587799608707428
vn 0.951044499874115 0.0 -0.3090541362762451
vn 0.951044499874115 0.0 -0.3090541362762451
vn 0.8090065121650696 0.0 -0.587799608707428
vn 0.30901503562927246 0.0 -0.9510571956634521
vn 0.30901503562927246 0.0 -0.9510571956634521
vn 0.8090065121650696 0.0 0.587799608707428
vn 0.8090065121650696 0.0 0.587799608707428
vn 0.30901503562927246 0.0 0.9510571956634521
vn 0.30901503562927246 0.0 0.9510571956634521
vn -0.30900904536247253 0.0 -0.9510591626167297
vn 0.30901503562927246 0.0 -0.9510571956634521
vn 0.30901503562927246 0.0 -0.9510571956634521
vn -0.30900904536247253 0.0 -0.9510591626167297
vn -0.8089973330497742 0.0 -0.5878123044967651
vn -0.8089973330497742 0.0 -0.5878123044967651
vn -0.951044499874115 0.0 -0.3090541362762451
vn -0.8089973330497742 0.0 -0.5878123044967651
vn -0.8089973330497742 0.0 -0.5878123044967651
vn -0.951044499874115 0.0 -0.3090541362762451
vn -0.8089973330497742 0.0 0.5878123044967651
vn -0.8089973330497742 0.0 0.5878123044967651
vn -0.30900904536247253 0.0 0.9510591626167297
vn -0.30900904536247253 0.0 0.9510591626167297
vn -0.30900904536247253 0.0 0.9510591626167297
vn -0.30900904536247253 0.0 0.9510591626167297
vn 0.30901503562927246 0.0 0.9510571956634521
vn 0.30901503562927246 0.0 0.9510571956634521
vt 0.7461878061294556 0.08556246757507324
vt 0.7461878061294556 0.08809089660644531
vt 0.7408017516136169 0.08809089660644531
vt 0.7408017516136169 0.08556246757507324
vt 0.7461878061294556 0.08399975299835205
vt 0.7408017516136169 0.08399975299835205
vt 0.7461878061294556 0.09061932563781738
vt 0.7408017516136169 0.09061932563781738
vt 0.7461878061294556 0.09218204021453857
vt 0.7408017516136169 0.09218204021453857
vt 0.7515548467636108 0.0855107307434082
vt 0.748896062374115 0.0855107307434082
vt 0.748896062374115 0.08012467622756958
vt 0.7515548467636108 0.08012467622756958
vt 0.7537057399749756 0.0855107307434082
vt 0.7537057399749756 0.08012467622756958
vt 0.7516695261001587 0.0896536111831665
vt 0.7516695261001587 0.09218204021453857
vt 0.7462835311889648 0.09218204021453857
vt 0.7462835311889648 0.0896536111831665
vt 0.7462835311889648 0.08712518215179443
vt 0.7516695261001587 0.08712518215179443
vt 0.7462835311889648 0.08556246757507324
vt 0.7516695261001587 0.08556246757507324
vt 0.7488166093826294 0.07856196165084839
vt 0.7488166093826294 0.08394801616668701
vt 0.7461577653884888 0.08394801616668701
vt 0.7461577653884888 0.07856196165084839

g legRotateSide_LOD0
s 1
usemtl legRotateSide_LOD0
f 1/1/1 2/2/2 3/3/3 
f 1/1/1 3/3/3 4/4/4 
f 5/5/5 1/1/1 4/4/4 
f 5/5/5 4/4/4 6/6/6 
f 7/7/7 3/3/3 2/2/2 
f 7/7/7 8/8/8 3/3/3 
f 9/9/9 8/8/8 7/7/7 
f 9/9/9 10/10/10 8/8/8 
f 11/11/11 12/12/12 13/13/13 
f 11/11/11 13/13/13 14/14/14 
f 15/15/15 11/11/11 14/14/14 
f 15/15/15 14/14/14 16/16/16 
f 17/17/17 18/18/18 19/19/19 
f 17/17/17 19/19/19 20/20/20 
f 17/17/17 20/20/20 21/21/21 
f 17/17/17 21/21/21 22/22/22 
f 22/22/22 21/21/21 23/23/23 
f 22/22/22 23/23/23 24/24/24 
f 25/25/25 26/26/26 27/27/27 
f 25/25/25 27/27/27 28/28/28 

