v 0.10657617449760437 0.3808037340641022 -0.07761523872613907
v 0.13179688155651093 0.3808037340641022 0.0
v 0.13179688155651093 0.21546876430511475 0.0
v 0.10657617449760437 0.21546876430511475 -0.07761523872613907
v 0.040552735328674316 0.3808037340641022 -0.12558594346046448
v 0.040552735328674316 0.21546876430511475 -0.12558594346046448
v 0.10657617449760437 0.3808037340641022 0.07761328667402267
v 0.10657617449760437 0.21546876430511475 0.07761328667402267
v 0.040552735328674316 0.3808037340641022 0.12558399140834808
v 0.040552735328674316 0.21546876430511475 0.12558399140834808
v -0.04106445610523224 0.3808037340641022 -0.12558594346046448
v 0.040552735328674316 0.3808037340641022 -0.12558594346046448
v 0.040552735328674316 0.21546876430511475 -0.12558594346046448
v -0.04106445610523224 0.21546876430511475 -0.12558594346046448
v -0.10709179937839508 0.3808037340641022 -0.07761523872613907
v -0.10709179937839508 0.21546876430511475 -0.07761523872613907
v -0.13231250643730164 0.3808037340641022 0.0
v -0.10709179937839508 0.3808037340641022 -0.07761523872613907
v -0.10709179937839508 0.21546876430511475 -0.07761523872613907
v -0.13231250643730164 0.21546876430511475 0.0
v -0.10709179937839508 0.21546876430511475 0.07761328667402267
v -0.10709179937839508 0.3808037340641022 0.07761328667402267
v -0.04106445610523224 0.21546876430511475 0.12558399140834808
v -0.04106445610523224 0.3808037340641022 0.12558399140834808
v -0.04106445610523224 0.3808037340641022 0.12558399140834808
v -0.04106445610523224 0.21546876430511475 0.12558399140834808
v 0.040552735328674316 0.21546876430511475 0.12558399140834808
v 0.040552735328674316 0.3808037340641022 0.12558399140834808
vn 0.8090065121650696 0.0 -0.587799608707428
vn 0.9510443806648254 0.0 -0.30905431509017944
vn 0.9510443806648254 0.0 -0.30905431509017944
vn 0.8090065121650696 0.0 -0.587799608707428
vn 0.30901506543159485 0.0 -0.9510570764541626
vn 0.30901506543159485 0.0 -0.9510570764541626
vn 0.8090065121650696 0.0 0.587799608707428
vn 0.8090065121650696 0.0 0.587799608707428
vn 0.30901509523391724 0.0 0.9510570764541626
vn 0.30901509523391724 0.0 0.9510570764541626
vn -0.3090094327926636 0.0 -0.9510589241981506
vn 0.30901506543159485 0.0 -0.9510570764541626
vn 0.30901506543159485 0.0 -0.9510570764541626
vn -0.3090094327926636 0.0 -0.9510589241981506
vn -0.808997392654419 0.0 -0.5878123044967651
vn -0.808997392654419 0.0 -0.5878123044967651
vn -0.9510443806648254 0.0 -0.30905431509017944
vn -0.808997392654419 0.0 -0.5878123044967651
vn -0.808997392654419 0.0 -0.5878123044967651
vn -0.9510443806648254 0.0 -0.30905431509017944
vn -0.808997392654419 0.0 0.5878121852874756
vn -0.808997392654419 0.0 0.5878121852874756
vn -0.30900946259498596 0.0 0.9510589241981506
vn -0.30900946259498596 0.0 0.9510589241981506
vn -0.30900946259498596 0.0 0.9510589241981506
vn -0.30900946259498596 0.0 0.9510589241981506
vn 0.30901509523391724 0.0 0.9510570764541626
vn 0.30901509523391724 0.0 0.9510570764541626
vt 0.7427539825439453 0.0886421799659729
vt 0.7427539825439453 0.09194445610046387
vt 0.7357223033905029 0.09194445610046387
vt 0.7357223033905029 0.0886421799659729
vt 0.7427539825439453 0.08660328388214111
vt 0.7357223033905029 0.08660328388214111
vt 0.7427539825439453 0.09524452686309814
vt 0.7357223033905029 0.09524452686309814
vt 0.7427539825439453 0.09728491306304932
vt 0.7357223033905029 0.09728491306304932
vt 0.7497615814208984 0.08857542276382446
vt 0.7462899684906006 0.08857542276382446
vt 0.7462899684906006 0.08154332637786865
vt 0.7497615814208984 0.08154332637786865
vt 0.7525699138641357 0.08857542276382446
vt 0.7525699138641357 0.08154332637786865
vt 0.7499111294746399 0.09398329257965088
vt 0.7499111294746399 0.09728491306304932
vt 0.7428787350654602 0.09728491306304932
vt 0.7428787350654602 0.09398329257965088
vt 0.7428787350654602 0.0906827449798584
vt 0.7499111294746399 0.0906827449798584
vt 0.7428787350654602 0.0886421799659729
vt 0.7499111294746399 0.0886421799659729
vt 0.7461861371994019 0.07950341701507568
vt 0.7461861371994019 0.08653479814529419
vt 0.7427146434783936 0.08653479814529419
vt 0.7427146434783936 0.07950341701507568

g legRotateSide_LOD0
s 1
usemtl legRotateSide_LOD0
f 1/1/1 2/2/2 3/3/3 
f 1/1/1 3/3/3 4/4/4 
f 5/5/5 1/1/1 4/4/4 
f 5/5/5 4/4/4 6/6/6 
f 7/7/7 3/3/3 2/2/2 
f 7/7/7 8/8/8 3/3/3 
f 9/9/9 8/8/8 7/7/7 
f 9/9/9 10/10/10 8/8/8 
f 11/11/11 12/12/12 13/13/13 
f 11/11/11 13/13/13 14/14/14 
f 15/15/15 11/11/11 14/14/14 
f 15/15/15 14/14/14 16/16/16 
f 17/17/17 18/18/18 19/19/19 
f 17/17/17 19/19/19 20/20/20 
f 17/17/17 20/20/20 21/21/21 
f 17/17/17 21/21/21 22/22/22 
f 22/22/22 21/21/21 23/23/23 
f 22/22/22 23/23/23 24/24/24 
f 25/25/25 26/26/26 27/27/27 
f 25/25/25 27/27/27 28/28/28 

