v -0.017506327480077744 -0.1329118311405182 -0.015623719431459904
v 0.0004926961264573038 -0.12927450239658356 -0.04089715704321861
v 0.05229818448424339 -0.3856741189956665 -0.04089715704321861
v 0.03429902344942093 -0.3893108367919922 -0.015623719431459904
v 0.08142070472240448 -0.3797905743122101 -0.05054944008588791
v 0.029615210369229317 -0.12339095026254654 -0.05054944008588791
v 0.11054794490337372 -0.37390410900115967 -0.04089715704321861
v 0.0587426982820034 -0.1175057590007782 -0.04089715704321861
v 0.12854453921318054 -0.37026792764663696 -0.015623719431459904
v 0.07674186676740646 -0.11386904120445251 -0.015623719431459904
v 0.07674186676740646 -0.11386904120445251 -0.015623719431459904
v 0.07674186676740646 -0.11386904120445251 0.015618469566106796
v 0.12854453921318054 -0.37026792764663696 0.015618469566106796
v 0.12854453921318054 -0.37026792764663696 -0.015623719431459904
v 0.11054794490337372 -0.37390410900115967 0.04089190810918808
v 0.0587426982820034 -0.1175057590007782 0.04089190810918808
v 0.0587426982820034 -0.1175057590007782 0.04089190810918808
v 0.029615210369229317 -0.12339095026254654 0.05054944008588791
v 0.08142070472240448 -0.3797905743122101 0.05054944008588791
v 0.11054794490337372 -0.37390410900115967 0.04089190810918808
v 0.05229818448424339 -0.3856741189956665 0.04089190810918808
v 0.0004926961264573038 -0.12927450239658356 0.04089190810918808
v 0.03429902344942093 -0.3893108367919922 0.015618469566106796
v -0.017506327480077744 -0.1329118311405182 0.015618469566106796
v -0.017506327480077744 -0.1329118311405182 0.015618469566106796
v -0.017506327480077744 -0.1329118311405182 -0.015623719431459904
v 0.03429902344942093 -0.3893108367919922 -0.015623719431459904
v 0.03429902344942093 -0.3893108367919922 0.015618469566106796
v 0.1158900335431099 -0.4918888509273529 -0.024827126413583755
v 0.115900419652462 -0.49188828468322754 0.02485022507607937
v 0.09318484365940094 -0.4964772164821625 0.024805940687656403
v 0.09317111223936081 -0.4964797794818878 -0.024822689592838287
v 0.07404740154743195 -0.4805743396282196 -0.02482503280043602
v 0.07406474649906158 -0.480570912361145 0.024808412417769432
v 0.06471698731184006 -0.09258046746253967 -0.05575128272175789
v 0.025013480335474014 -0.10060255974531174 -0.06891492009162903
v -0.0012434794334694743 0.02935056947171688 -0.06891492009162903
v 0.038462575525045395 0.03737315535545349 -0.05575128272175789
v -0.04094428941607475 0.021328352391719818 -0.05575128272175789
v -0.014690013602375984 -0.10862459242343903 -0.05575128272175789
v -0.06548698246479034 0.016369489952921867 -0.021295106038451195
v -0.03922489657998085 -0.1135825365781784 -0.021295106038451195
v 0.08925455808639526 -0.08762264251708984 -0.021295106038451195
v 0.06300029903650284 0.0423303097486496 -0.021295106038451195
v -0.03922489657998085 -0.1135825365781784 -0.021295106038451195
v -0.03922489657998085 -0.1135825365781784 0.021295106038451195
v -0.06548698246479034 0.016369489952921867 0.021295106038451195
v -0.06548698246479034 0.016369489952921867 -0.021295106038451195
v -0.04094428941607475 0.021328352391719818 0.05575128272175789
v -0.014690013602375984 -0.10862459242343903 0.05575128272175789
v -0.014690013602375984 -0.10862459242343903 0.05575128272175789
v 0.025013480335474014 -0.10060255974531174 0.06891492009162903
v -0.0012434794334694743 0.02935056947171688 0.06891492009162903
v -0.04094428941607475 0.021328352391719818 0.05575128272175789
v 0.038462575525045395 0.03737315535545349 0.05575128272175789
v 0.06471698731184006 -0.09258046746253967 0.05575128272175789
v 0.06300029903650284 0.0423303097486496 0.021295106038451195
v 0.08925455808639526 -0.08762264251708984 0.021295106038451195
v 0.08925455808639526 -0.08762264251708984 0.021295106038451195
v 0.08925455808639526 -0.08762264251708984 -0.021295106038451195
v 0.06300029903650284 0.0423303097486496 -0.021295106038451195
v 0.06300029903650284 0.0423303097486496 0.021295106038451195
v 0.029615210369229317 -0.12339095026254654 -0.05054944008588791
v 0.025013480335474014 -0.10060255974531174 -0.06891492009162903
v 0.06471698731184006 -0.09258046746253967 -0.05575128272175789
v 0.0587426982820034 -0.1175057590007782 -0.04089715704321861
v 0.0004926961264573038 -0.12927450239658356 -0.04089715704321861
v -0.014690013602375984 -0.10862459242343903 -0.05575128272175789
v -0.017506327480077744 -0.1329118311405182 -0.015623719431459904
v -0.03922489657998085 -0.1135825365781784 -0.021295106038451195
v -0.014690013602375984 -0.10862459242343903 -0.05575128272175789
v 0.0004926961264573038 -0.12927450239658356 -0.04089715704321861
v -0.017506327480077744 -0.1329118311405182 0.015618469566106796
v -0.03922489657998085 -0.1135825365781784 0.021295106038451195
v 0.0004926961264573038 -0.12927450239658356 0.04089190810918808
v -0.014690013602375984 -0.10862459242343903 0.05575128272175789
v 0.029615210369229317 -0.12339095026254654 0.05054944008588791
v 0.025013480335474014 -0.10060255974531174 0.06891492009162903
v -0.014690013602375984 -0.10862459242343903 0.05575128272175789
v 0.0004926961264573038 -0.12927450239658356 0.04089190810918808
v 0.0587426982820034 -0.1175057590007782 0.04089190810918808
v 0.06471698731184006 -0.09258046746253967 0.05575128272175789
v 0.07674186676740646 -0.11386904120445251 0.015618469566106796
v 0.08925455808639526 -0.08762264251708984 0.021295106038451195
v 0.06471698731184006 -0.09258046746253967 0.05575128272175789
v 0.0587426982820034 -0.1175057590007782 0.04089190810918808
v 0.07674186676740646 -0.11386904120445251 -0.015623719431459904
v 0.08925455808639526 -0.08762264251708984 -0.021295106038451195
v 0.0587426982820034 -0.1175057590007782 -0.04089715704321861
v 0.06471698731184006 -0.09258046746253967 -0.05575128272175789
v 0.05229818448424339 -0.3856741189956665 -0.04089715704321861
v 0.05477804318070412 -0.385172963142395 -0.02485198713839054
v 0.03429902344942093 -0.3893108367919922 -0.015623719431459904
v 0.08142070472240448 -0.3797905743122101 -0.05054944008588791
v 0.10806195437908173 -0.3744063079357147 -0.02483314648270607
v 0.11054794490337372 -0.37390410900115967 -0.04089715704321861
v 0.12854453921318054 -0.37026792764663696 -0.015623719431459904
v 0.10806813836097717 -0.3744059205055237 0.024824684485793114
v 0.12854453921318054 -0.37026792764663696 0.015618469566106796
v 0.11054794490337372 -0.37390410900115967 0.04089190810918808
v 0.08142070472240448 -0.3797905743122101 0.05054944008588791
v 0.05229818448424339 -0.3856741189956665 0.04089190810918808
v 0.05478396639227867 -0.3851713240146637 0.02480584755539894
v 0.03429902344942093 -0.3893108367919922 0.015618469566106796
v 0.07404740154743195 -0.4805743396282196 -0.02482503280043602
v 0.05477804318070412 -0.385172963142395 -0.02485198713839054
v 0.10806195437908173 -0.3744063079357147 -0.02483314648270607
v 0.12733685970306396 -0.4698059558868408 -0.024830583482980728
v 0.09317111223936081 -0.4964797794818878 -0.024822689592838287
v 0.1158900335431099 -0.4918888509273529 -0.024827126413583755
v 0.10806195437908173 -0.3744063079357147 -0.02483314648270607
v 0.10806813836097717 -0.3744059205055237 0.024824684485793114
v 0.1273474097251892 -0.46980535984039307 0.024843454360961914
v 0.12733685970306396 -0.4698059558868408 -0.024830583482980728
v 0.1158900335431099 -0.4918888509273529 -0.024827126413583755
v 0.115900419652462 -0.49188828468322754 0.02485022507607937
v 0.1273474097251892 -0.46980535984039307 0.024843454360961914
v 0.10806813836097717 -0.3744059205055237 0.024824684485793114
v 0.05478396639227867 -0.3851713240146637 0.02480584755539894
v 0.07406474649906158 -0.480570912361145 0.024808412417769432
v 0.115900419652462 -0.49188828468322754 0.02485022507607937
v 0.09318484365940094 -0.4964772164821625 0.024805940687656403
v 0.05478396639227867 -0.3851713240146637 0.02480584755539894
v 0.05477804318070412 -0.385172963142395 -0.02485198713839054
v 0.07404740154743195 -0.4805743396282196 -0.02482503280043602
v 0.07406474649906158 -0.480570912361145 0.024808412417769432
vn -0.9321845173835754 -0.1883474439382553 -0.3091236352920532
vn -0.5762762427330017 -0.11643633991479874 -0.8089178800582886
vn -0.5762763023376465 -0.11643635481595993 -0.8089178800582886
vn -0.9321825504302979 -0.18834702670574188 -0.3091294765472412
vn -2.2374449599738e-06 -4.5207468701846665e-07 -1.0
vn -2.2373862975655356e-06 -4.5206283516563417e-07 -1.0
vn 0.5762780904769897 0.11643671989440918 -0.8089165687561035
vn 0.5762780904769897 0.11643671989440918 -0.8089165687561035
vn 0.9322206377983093 0.18834753334522247 -0.3090144693851471
vn 0.9322214722633362 0.1883477121591568 -0.30901193618774414
vn 0.9322214722633362 0.1883477121591568 -0.30901193618774414
vn 0.9322683215141296 0.1883571892976761 0.3088647425174713
vn 0.9322674870491028 0.18835699558258057 0.3088672161102295
vn 0.9322206377983093 0.18834753334522247 -0.3090144693851471
vn 0.5759565830230713 0.1163717582821846 0.8091549277305603
vn 0.5759565830230713 0.1163717582821846 0.8091549277305603
vn 0.5759565830230713 0.1163717582821846 0.8091549277305603
vn -2.2454926238424378e-06 -4.537007498583989e-07 1.0
vn -2.245551740998053e-06 -4.5371265855465026e-07 1.0
vn 0.5759565830230713 0.1163717582821846 0.8091549277305603
vn -0.5759549140930176 -0.11637141555547714 0.8091561198234558
vn -0.5759549736976624 -0.11637141555547714 0.8091561198234558
vn -0.9322294592857361 -0.18835650384426117 0.3089821934700012
vn -0.9322314262390137 -0.1883569210767746 0.30897635221481323
vn -0.9322314262390137 -0.1883569210767746 0.30897635221481323
vn -0.9321845173835754 -0.1883474439382553 -0.3091236352920532
vn -0.9321825504302979 -0.18834702670574188 -0.3091294765472412
vn -0.9322294592857361 -0.18835650384426117 0.3089821934700012
vn 0.19805124402046204 -0.980191707611084 2.3154982045525685e-05
vn 0.1980436146259308 -0.9801931977272034 -2.288159157615155e-05
vn 0.1980436146259308 -0.9801931977272034 -2.2881589757162146e-05
vn 0.19805124402046204 -0.980191707611084 2.3154978407546878e-05
vn -0.945356547832489 -0.3260382115840912 0.0002501843555364758
vn -0.9453395009040833 -0.3260876536369324 0.00025018767337314785
vn 0.5759512782096863 0.11635757982730865 -0.8091607093811035
vn 1.606962030109571e-07 -7.643359367648372e-07 -1.0
vn 1.606962030109571e-07 -7.643359367648372e-07 -1.0
vn 0.5759537816047668 0.11635807901620865 -0.8091589212417603
vn -0.575962483882904 -0.1163693368434906 -0.8091510534286499
vn -0.5759660601615906 -0.1163700744509697 -0.8091483116149902
vn -0.9322217106819153 -0.18837404251098633 -0.3089950382709503
vn -0.9322195053100586 -0.1883736252784729 -0.30900171399116516
vn 0.9322299957275391 0.18832799792289734 -0.3089982271194458
vn 0.9322298765182495 0.18832796812057495 -0.3089984953403473
vn -0.9322195053100586 -0.1883736252784729 -0.30900171399116516
vn -0.9322196245193481 -0.1883736103773117 0.3090016841888428
vn -0.9322217106819153 -0.18837402760982513 0.3089950382709503
vn -0.9322217106819153 -0.18837404251098633 -0.3089950382709503
vn -0.5761982798576355 -0.11641699820756912 0.8089762330055237
vn -0.5762020349502563 -0.11641774326562881 0.808973491191864
vn -0.5762020349502563 -0.11641774326562881 0.808973491191864
vn 1.4818508020653098e-07 -7.644045467714022e-07 1.0
vn 1.4818508020653098e-07 -7.644045467714022e-07 1.0
vn -0.5761982798576355 -0.11641699820756912 0.8089762330055237
vn 0.5761896967887878 0.11640577018260956 0.8089840412139893
vn 0.5761871933937073 0.11640527099370956 0.8089859485626221
vn 0.9322298765182495 0.18832795321941376 0.3089984953403473
vn 0.9322299957275391 0.18832798302173615 0.3089982271194458
vn 0.9322299957275391 0.18832798302173615 0.3089982271194458
vn 0.9322299957275391 0.18832799792289734 -0.3089982271194458
vn 0.9322298765182495 0.18832796812057495 -0.3089984953403473
vn 0.9322298765182495 0.18832795321941376 0.3089984953403473
vn 0.12273916602134705 -0.6075261831283569 -0.7847592830657959
vn 0.12275227159261703 -0.6075234413146973 -0.7847593426704407
vn 0.5748602151870728 -0.5161818265914917 -0.6348952651023865
vn 0.5748571753501892 -0.5161823630332947 -0.6348976492881775
vn -0.32932019233703613 -0.6989009380340576 -0.6348903179168701
vn -0.32932472229003906 -0.6989018321037292 -0.6348869204521179
vn -0.6087995171546936 -0.7553451061248779 -0.24252226948738098
vn -0.6088052988052368 -0.7553462386131287 -0.24250394105911255
vn -0.32932472229003906 -0.6989018321037292 -0.6348869204521179
vn -0.32932019233703613 -0.6989009380340576 -0.6348903179168701
vn -0.6088441014289856 -0.7553299069404602 0.2424575239419937
vn -0.6088393926620483 -0.7553289532661438 0.2424723505973816
vn -0.3292837142944336 -0.6989400386810303 0.6348661780357361
vn -0.32927563786506653 -0.6989384889602661 0.6348720788955688
vn 0.12276964634656906 -0.6076773405075073 0.7846373319625854
vn 0.12278272956609726 -0.6076747179031372 0.7846373319625854
vn -0.32927563786506653 -0.6989384889602661 0.6348720788955688
vn -0.3292837142944336 -0.6989400386810303 0.6348661780357361
vn 0.5748388767242432 -0.5162326097488403 0.6348734498023987
vn 0.5748293399810791 -0.5162343978881836 0.634880542755127
vn 0.8543446063995361 -0.4596901535987854 0.24244652688503265
vn 0.8543387651443481 -0.4596913754940033 0.24246473610401154
vn 0.5748293399810791 -0.5162343978881836 0.634880542755127
vn 0.5748388767242432 -0.5162326097488403 0.6348734498023987
vn 0.8543092608451843 -0.4597216248512268 -0.24251112341880798
vn 0.8543140888214111 -0.4597207307815552 -0.24249625205993652
vn 0.5748571753501892 -0.5161823630332947 -0.6348976492881775
vn 0.5748602151870728 -0.5161818265914917 -0.6348952651023865
vn 0.19805403053760529 -0.9801911115646362 4.540667760011274e-06
vn 0.19804567098617554 -0.9801928400993347 7.410208581859479e-06
vn 0.19798608124256134 -0.9802048802375793 2.459675306454301e-05
vn 0.19805796444416046 -0.9801903367042542 2.3666503693675622e-05
vn 0.19805826246738434 -0.9801902174949646 -3.349574853928061e-06
vn 0.19809101521968842 -0.9801835417747498 -1.718704152153805e-05
vn 0.19807292520999908 -0.9801873564720154 -3.263831604272127e-05
vn 0.1980508714914322 -0.980191707611084 -1.5972462279023603e-05
vn 0.19807292520999908 -0.9801873564720154 3.3552631066413596e-05
vn 0.19809100031852722 -0.9801835417747498 1.7222324458998628e-05
vn 0.19805796444416046 -0.9801903367042542 -2.366040280321613e-05
vn 0.19804370403289795 -0.9801931977272034 -3.456130070844665e-05
vn 0.19805051386356354 -0.9801918268203735 -3.435487087699585e-05
vn 0.19809988141059875 -0.980181872844696 -3.326018122606911e-05
vn 0.00013145478442311287 -0.00012800005788449198 -1.0
vn -7.794573321007192e-05 -9.671834413893521e-05 -1.0
vn -7.794571865815669e-05 -9.67183368629776e-05 -1.0
vn 0.00013145584671292454 -0.00012799988326150924 -1.0
vn -7.794572593411431e-05 -9.671834413893521e-05 -1.0
vn -7.794573321007192e-05 -9.67183368629776e-05 -1.0
vn 0.9681345224380493 0.19557538628578186 -0.1564151495695114
vn 0.9681892991065979 0.19562645256519318 0.15601226687431335
vn 0.9977895021438599 0.06645386666059494 -0.00017630340880714357
vn 0.9977872371673584 0.06648676097393036 -0.00017630145885050297
vn 0.19805124402046204 -0.980191707611084 2.3154982045525685e-05
vn 0.1980436146259308 -0.9801931977272034 -2.288159157615155e-05
vn -0.0005461065447889268 1.5460415170309716e-06 0.9999998807907104
vn -7.293043017853051e-05 3.9244569052243605e-05 1.0
vn -7.293041562661529e-05 3.92445654142648e-05 1.0
vn -0.0005461067194119096 1.5460142321899184e-06 0.9999998807907104
vn -7.29304229025729e-05 3.924457632820122e-05 1.0
vn -7.29304229025729e-05 3.9244569052243605e-05 1.0
vn -0.96800696849823 -0.19562530517578125 0.1571408063173294
vn -0.9681288599967957 -0.19555597007274628 -0.1564750224351883
vn -0.945356547832489 -0.3260382115840912 0.0002501843555364758
vn -0.9453395009040833 -0.3260876536369324 0.00025018767337314785
vt 0.741912841796875 0.09648025035858154
vt 0.7411507368087769 0.0966346263885498
vt 0.7389551401138306 0.08576959371566772
vt 0.7397180199623108 0.08561497926712036
vt 0.7377209663391113 0.08601850271224976
vt 0.7399172782897949 0.09688377380371094
vt 0.7364869117736816 0.08626776933670044
vt 0.738681972026825 0.09713327884674072
vt 0.7357245087623596 0.08642202615737915
vt 0.7379191517829895 0.09728699922561646
vt 0.7475926876068115 0.08626776933670044
vt 0.7489163279533386 0.08626776933670044
vt 0.7489163279533386 0.09713327884674072
vt 0.7475926876068115 0.09713327884674072
vt 0.7499877214431763 0.09728723764419556
vt 0.7499877214431763 0.08642202615737915
vt 0.7442205548286438 0.08576959371566772
vt 0.745455265045166 0.08601850271224976
vt 0.7432596683502197 0.09688377380371094
vt 0.7420249581336975 0.0966346263885498
vt 0.7444937229156494 0.09713327884674072
vt 0.7466890811920166 0.08626776933670044
vt 0.7452565431594849 0.09728723764419556
vt 0.747451901435852 0.08642202615737915
vt 0.7500980496406555 0.08642202615737915
vt 0.7514220476150513 0.08642202615737915
vt 0.7514220476150513 0.09728723764419556
vt 0.7500980496406555 0.09728723764419556
vt 0.7368324398994446 0.0855444073677063
vt 0.7368317246437073 0.08343905210494995
vt 0.7377942204475403 0.08344155550003052
vt 0.7377952337265015 0.0855444073677063
vt 0.7386051416397095 0.0855444073677063
vt 0.7386040687561035 0.08344072103500366
vt 0.2511611878871918 0.09098541736602783
vt 0.2517232596874237 0.09087187051773071
vt 0.25209498405456543 0.09271156787872314
vt 0.2515328526496887 0.09282517433166504
vt 0.252657026052475 0.09259802103042603
vt 0.25228533148765564 0.09075826406478882
vt 0.2530044615268707 0.09252780675888062
vt 0.25263267755508423 0.09068810939788818
vt 0.2508138120174408 0.09105557203292847
vt 0.25118547677993774 0.09289532899856567
vt 0.253114253282547 0.09017473459243774
vt 0.25251129269599915 0.09017473459243774
vt 0.25251129269599915 0.08833497762680054
vt 0.253114253282547 0.08833497762680054
vt 0.25202351808547974 0.08826476335525513
vt 0.25202351808547974 0.09010452032089233
vt 0.25450438261032104 0.09260296821594238
vt 0.2539423108100891 0.09248942136764526
vt 0.25431403517723083 0.09064972400665283
vt 0.2548760771751404 0.09076327085494995
vt 0.2537519037723541 0.09053611755371094
vt 0.2533802390098572 0.09237587451934814
vt 0.25340455770492554 0.0904659628868103
vt 0.2530328631401062 0.09230566024780273
vt 0.2547198534011841 0.09002530574798584
vt 0.25411689281463623 0.09002530574798584
vt 0.25411689281463623 0.08818554878234863
vt 0.2547198534011841 0.08818554878234863
vt 0.2516581118106842 0.09054923057556152
vt 0.2517232596874237 0.09087187051773071
vt 0.2511611878871918 0.09098541736602783
vt 0.25124576687812805 0.09063255786895752
vt 0.2520703971385956 0.0904659628868103
vt 0.25228533148765564 0.09075826406478882
vt 0.25303396582603455 0.09044831991195679
vt 0.253114253282547 0.09017473459243774
vt 0.2536020576953888 0.09010452032089233
vt 0.2533917725086212 0.09039682149887085
vt 0.25259166955947876 0.09044831991195679
vt 0.25251129269599915 0.09017473459243774
vt 0.2522338926792145 0.09039682149887085
vt 0.25202351808547974 0.09010452032089233
vt 0.2538771629333496 0.09281206130981445
vt 0.2539423108100891 0.09248942136764526
vt 0.25450438261032104 0.09260296821594238
vt 0.254289448261261 0.09289532899856567
vt 0.25346481800079346 0.09272873401641846
vt 0.2533802390098572 0.09237587451934814
vt 0.25463947653770447 0.09039688110351562
vt 0.2547198534011841 0.09002530574798584
vt 0.2552076280117035 0.09009552001953125
vt 0.2549973130226135 0.09044831991195679
vt 0.2541971802711487 0.09039688110351562
vt 0.25411689281463623 0.09002530574798584
vt 0.2538394033908844 0.09044831991195679
vt 0.2536291182041168 0.09009552001953125
vt 0.7441596984863281 0.08513474464416504
vt 0.7440550327301025 0.08445501327514648
vt 0.744922399520874 0.08406376838684082
vt 0.7429255247116089 0.0855444073677063
vt 0.741796612739563 0.08445417881011963
vt 0.7416909337043762 0.08513474464416504
vt 0.7409286499023438 0.08406376838684082
vt 0.7417968511581421 0.08234953880310059
vt 0.7409286499023438 0.0827399492263794
vt 0.7416909337043762 0.08166879415512085
vt 0.7429255247116089 0.08125978708267212
vt 0.7441596984863281 0.08166879415512085
vt 0.7440550327301025 0.08235049247741699
vt 0.744922399520874 0.0827399492263794
vt 0.7526902556419373 0.08185184001922607
vt 0.7535063028335571 0.08589398860931396
vt 0.7512480020523071 0.08635103702545166
vt 0.7504316568374634 0.08230829238891602
vt 0.7518793344497681 0.08117794990539551
vt 0.7509163618087769 0.08137238025665283
vt 0.7450321912765503 0.08071935176849365
vt 0.7471358776092529 0.08071935176849365
vt 0.7471369504928589 0.08476263284683228
vt 0.7450321912765503 0.08476263284683228
vt 0.7450321912765503 0.0856972336769104
vt 0.747137188911438 0.0856972336769104
vt 0.7472469806671143 0.08456790447235107
vt 0.7480636239051819 0.08052515983581543
vt 0.7503219842910767 0.08098137378692627
vt 0.7495046854019165 0.08502405881881714
vt 0.7477320432662964 0.08550423383712769
vt 0.7486950755119324 0.0856972336769104
vt 0.7387152314186096 0.08150160312652588
vt 0.7408185601234436 0.08150160312652588
vt 0.7408179044723511 0.0855444073677063
vt 0.7387152910232544 0.0855444073677063

g pipe_LOD0
s 1
usemtl pipe_LOD0
f 1/1/1 2/2/2 3/3/3 
f 1/1/1 3/3/3 4/4/4 
f 2/2/2 5/5/5 3/3/3 
f 2/2/2 6/6/6 5/5/5 
f 6/6/6 7/7/7 5/5/5 
f 6/6/6 8/8/8 7/7/7 
f 8/8/8 9/9/9 7/7/7 
f 8/8/8 10/10/10 9/9/9 
f 11/11/11 12/12/12 13/13/13 
f 11/11/11 13/13/13 14/14/14 
f 12/12/12 15/15/15 13/13/13 
f 12/12/12 16/16/16 15/15/15 
f 17/17/17 18/18/18 19/19/19 
f 17/17/17 19/19/19 20/20/20 
f 18/18/18 21/21/21 19/19/19 
f 18/18/18 22/22/22 21/21/21 
f 22/22/22 23/23/23 21/21/21 
f 22/22/22 24/24/24 23/23/23 
f 25/25/25 26/26/26 27/27/27 
f 25/25/25 27/27/27 28/28/28 
f 29/29/29 30/30/30 31/31/31 
f 29/29/29 31/31/31 32/32/32 
f 33/33/33 32/32/32 31/31/31 
f 33/33/33 31/31/31 34/34/34 
f 35/35/35 36/36/36 37/37/37 
f 35/35/35 37/37/37 38/38/38 
f 36/36/36 39/39/39 37/37/37 
f 36/36/36 40/40/40 39/39/39 
f 40/40/40 41/41/41 39/39/39 
f 40/40/40 42/42/42 41/41/41 
f 43/43/43 35/35/35 38/38/38 
f 43/43/43 38/38/38 44/44/44 
f 45/45/45 46/46/46 47/47/47 
f 45/45/45 47/47/47 48/48/48 
f 46/46/46 49/49/49 47/47/47 
f 46/46/46 50/50/50 49/49/49 
f 51/51/51 52/52/52 53/53/53 
f 51/51/51 53/53/53 54/54/54 
f 52/52/52 55/55/55 53/53/53 
f 52/52/52 56/56/56 55/55/55 
f 56/56/56 57/57/57 55/55/55 
f 56/56/56 58/58/58 57/57/57 
f 59/59/59 60/60/60 61/61/61 
f 59/59/59 61/61/61 62/62/62 
f 63/63/63 64/64/64 65/65/65 
f 63/63/63 65/65/65 66/66/66 
f 67/67/67 64/64/64 63/63/63 
f 67/67/67 68/68/68 64/64/64 
f 69/69/69 70/70/70 71/71/71 
f 69/69/69 71/71/71 72/72/72 
f 73/73/73 70/70/70 69/69/69 
f 73/73/73 74/74/74 70/70/70 
f 75/75/75 74/74/74 73/73/73 
f 75/75/75 76/76/76 74/74/74 
f 77/77/77 78/78/78 79/79/79 
f 77/77/77 79/79/79 80/80/80 
f 81/81/81 78/78/78 77/77/77 
f 81/81/81 82/82/82 78/78/78 
f 83/83/83 84/84/84 85/85/85 
f 83/83/83 85/85/85 86/86/86 
f 87/87/87 84/84/84 83/83/83 
f 87/87/87 88/88/88 84/84/84 
f 89/89/89 88/88/88 87/87/87 
f 89/89/89 90/90/90 88/88/88 
f 91/91/91 92/92/92 93/93/93 
f 94/94/94 92/92/92 91/91/91 
f 94/94/94 95/95/95 92/92/92 
f 96/96/96 95/95/95 94/94/94 
f 97/97/97 95/95/95 96/96/96 
f 98/98/98 95/95/95 97/97/97 
f 98/98/98 97/97/97 99/99/99 
f 100/100/100 98/98/98 99/99/99 
f 101/101/101 98/98/98 100/100/100 
f 102/102/102 98/98/98 101/101/101 
f 102/102/102 103/103/103 98/98/98 
f 93/93/93 92/92/92 103/103/103 
f 104/104/104 103/103/103 102/102/102 
f 93/93/93 103/103/103 104/104/104 
f 105/105/105 106/106/106 107/107/107 
f 105/105/105 107/107/107 108/108/108 
f 109/109/109 105/105/105 108/108/108 
f 109/109/109 108/108/108 110/110/110 
f 111/111/111 112/112/112 113/113/113 
f 111/111/111 113/113/113 114/114/114 
f 113/113/113 115/115/115 114/114/114 
f 113/113/113 116/116/116 115/115/115 
f 117/117/117 118/118/118 119/119/119 
f 117/117/117 119/119/119 120/120/120 
f 121/121/121 117/117/117 120/120/120 
f 121/121/121 120/120/120 122/122/122 
f 123/123/123 124/124/124 125/125/125 
f 123/123/123 125/125/125 126/126/126 

