v 0.1917230188846588 0.6766747236251831 -1.7153087854385376
v 0.23338621854782104 0.6766747236251831 -1.7153087854385376
v 0.27977293729782104 0.6766747236251831 -1.768309235572815
v 0.2939556837081909 0.6766742467880249 -1.8369860649108887
v 0.2939556837081909 0.6766742467880249 -1.8369860649108887
v 0.31316038966178894 0.6766747236251831 -1.768309235572815
v 0.35508421063423157 0.6766747236251831 -1.7153148651123047
v 0.39662596583366394 0.6766747236251831 -1.7150304317474365
v 0.27977293729782104 0.6766747236251831 -1.768309235572815
v 0.31316038966178894 0.6766747236251831 -1.768309235572815
v 0.2939556837081909 0.6766742467880249 -1.8369860649108887
v 0.19190429151058197 0.6695818305015564 -1.7149523496627808
v 0.2939514219760895 0.6695805788040161 -1.8366259336471558
v 0.27977293729782104 0.6695818305015564 -1.7679553031921387
v 0.2335675060749054 0.6695818305015564 -1.7149523496627808
v 0.2939514219760895 0.6695805788040161 -1.8366259336471558
v 0.3964349329471588 0.6695818305015564 -1.7146679162979126
v 0.35489317774772644 0.6695818305015564 -1.7149511575698853
v 0.31316038966178894 0.6695818305015564 -1.7679553031921387
v 0.27977293729782104 0.6695818305015564 -1.7679553031921387
v 0.2939514219760895 0.6695805788040161 -1.8366259336471558
v 0.31316038966178894 0.6695818305015564 -1.7679553031921387
v 0.19190429151058197 0.6695818305015564 -1.7149523496627808
v 0.1917230188846588 0.6766747236251831 -1.7153087854385376
v 0.2939556837081909 0.6766742467880249 -1.8369860649108887
v 0.2939514219760895 0.6695805788040161 -1.8366259336471558
v 0.27977293729782104 0.6695818305015564 -1.7679553031921387
v 0.27977293729782104 0.6766747236251831 -1.768309235572815
v 0.23338621854782104 0.6766747236251831 -1.7153087854385376
v 0.2335675060749054 0.6695818305015564 -1.7149523496627808
v 0.2335675060749054 0.6695818305015564 -1.7149523496627808
v 0.23338621854782104 0.6766747236251831 -1.7153087854385376
v 0.1917230188846588 0.6766747236251831 -1.7153087854385376
v 0.19190429151058197 0.6695818305015564 -1.7149523496627808
v 0.2939514219760895 0.6695805788040161 -1.8366259336471558
v 0.2939556837081909 0.6766742467880249 -1.8369860649108887
v 0.39662596583366394 0.6766747236251831 -1.7150304317474365
v 0.3964349329471588 0.6695818305015564 -1.7146679162979126
v 0.3964349329471588 0.6695818305015564 -1.7146679162979126
v 0.39662596583366394 0.6766747236251831 -1.7150304317474365
v 0.35508421063423157 0.6766747236251831 -1.7153148651123047
v 0.35489317774772644 0.6695818305015564 -1.7149511575698853
v 0.35489317774772644 0.6695818305015564 -1.7149511575698853
v 0.35508421063423157 0.6766747236251831 -1.7153148651123047
v 0.31316038966178894 0.6766747236251831 -1.768309235572815
v 0.31316038966178894 0.6695818305015564 -1.7679553031921387
v 0.31316038966178894 0.6695810556411743 -1.0005053281784058
v 0.27977293729782104 0.6695810556411743 -1.0333447456359863
v 0.27977293729782104 0.6695818305015564 -1.7679553031921387
v 0.31316038966178894 0.6695818305015564 -1.7679553031921387
v 0.27977293729782104 0.6695810556411743 -1.0333447456359863
v 0.27977293729782104 0.6766742467880249 -1.0333447456359863
v 0.27977293729782104 0.6766747236251831 -1.768309235572815
v 0.27977293729782104 0.6695818305015564 -1.7679553031921387
v 0.27977293729782104 0.6766742467880249 -1.0333447456359863
v 0.31316038966178894 0.6766742467880249 -0.9998559355735779
v 0.31316038966178894 0.6766747236251831 -1.768309235572815
v 0.27977293729782104 0.6766747236251831 -1.768309235572815
v 0.31316038966178894 0.6766742467880249 -0.9998559355735779
v 0.31316038966178894 0.6695810556411743 -1.0005053281784058
v 0.31316038966178894 0.6695818305015564 -1.7679553031921387
v 0.31316038966178894 0.6766747236251831 -1.768309235572815
v -0.39662596583366394 0.6766747236251831 -1.7153087854385376
v -0.3549627661705017 0.6766747236251831 -1.7153087854385376
v -0.3085760474205017 0.6766747236251831 -1.768309235572815
v -0.29439330101013184 0.6766742467880249 -1.8369860649108887
v -0.29439330101013184 0.6766742467880249 -1.8369860649108887
v -0.2751885950565338 0.6766747236251831 -1.768309235572815
v -0.23326475918293 0.6766747236251831 -1.7153148651123047
v -0.1917230188846588 0.6766747236251831 -1.7150304317474365
v -0.3085760474205017 0.6766747236251831 -1.768309235572815
v -0.2751885950565338 0.6766747236251831 -1.768309235572815
v -0.29439330101013184 0.6766742467880249 -1.8369860649108887
v -0.396444708108902 0.6695818305015564 -1.7149523496627808
v -0.2943975627422333 0.6695805788040161 -1.8366259336471558
v -0.3085760474205017 0.6695818305015564 -1.7679553031921387
v -0.35478147864341736 0.6695818305015564 -1.7149523496627808
v -0.2943975627422333 0.6695805788040161 -1.8366259336471558
v -0.19191405177116394 0.6695818305015564 -1.7146679162979126
v -0.2334558069705963 0.6695818305015564 -1.7149511575698853
v -0.2751885950565338 0.6695818305015564 -1.7679553031921387
v -0.3085760474205017 0.6695818305015564 -1.7679553031921387
v -0.2943975627422333 0.6695805788040161 -1.8366259336471558
v -0.2751885950565338 0.6695818305015564 -1.7679553031921387
v -0.396444708108902 0.6695818305015564 -1.7149523496627808
v -0.39662596583366394 0.6766747236251831 -1.7153087854385376
v -0.29439330101013184 0.6766742467880249 -1.8369860649108887
v -0.2943975627422333 0.6695805788040161 -1.8366259336471558
v -0.3085760474205017 0.6695818305015564 -1.7679553031921387
v -0.3085760474205017 0.6766747236251831 -1.768309235572815
v -0.3549627661705017 0.6766747236251831 -1.7153087854385376
v -0.35478147864341736 0.6695818305015564 -1.7149523496627808
v -0.35478147864341736 0.6695818305015564 -1.7149523496627808
v -0.3549627661705017 0.6766747236251831 -1.7153087854385376
v -0.39662596583366394 0.6766747236251831 -1.7153087854385376
v -0.396444708108902 0.6695818305015564 -1.7149523496627808
v -0.2943975627422333 0.6695805788040161 -1.8366259336471558
v -0.29439330101013184 0.6766742467880249 -1.8369860649108887
v -0.1917230188846588 0.6766747236251831 -1.7150304317474365
v -0.19191405177116394 0.6695818305015564 -1.7146679162979126
v -0.19191405177116394 0.6695818305015564 -1.7146679162979126
v -0.1917230188846588 0.6766747236251831 -1.7150304317474365
v -0.23326475918293 0.6766747236251831 -1.7153148651123047
v -0.2334558069705963 0.6695818305015564 -1.7149511575698853
v -0.2334558069705963 0.6695818305015564 -1.7149511575698853
v -0.23326475918293 0.6766747236251831 -1.7153148651123047
v -0.2751885950565338 0.6766747236251831 -1.768309235572815
v -0.2751885950565338 0.6695818305015564 -1.7679553031921387
v -0.2751885950565338 0.6695810556411743 -1.0339940786361694
v -0.3085760474205017 0.6695810556411743 -1.0005053281784058
v -0.3085760474205017 0.6695818305015564 -1.7679553031921387
v -0.2751885950565338 0.6695818305015564 -1.7679553031921387
v -0.3085760474205017 0.6695810556411743 -1.0005053281784058
v -0.3085760474205017 0.6766742467880249 -0.9998559355735779
v -0.3085760474205017 0.6766747236251831 -1.768309235572815
v -0.3085760474205017 0.6695818305015564 -1.7679553031921387
v -0.3085760474205017 0.6766742467880249 -0.9998559355735779
v -0.2751885950565338 0.6766742467880249 -1.0333447456359863
v -0.2751885950565338 0.6766747236251831 -1.768309235572815
v -0.3085760474205017 0.6766747236251831 -1.768309235572815
v -0.2751885950565338 0.6766742467880249 -1.0333447456359863
v -0.2751885950565338 0.6695810556411743 -1.0339940786361694
v -0.2751885950565338 0.6695818305015564 -1.7679553031921387
v -0.2751885950565338 0.6766747236251831 -1.768309235572815
v -0.2751885950565338 0.6695810556411743 -1.0339940786361694
v 0.27977293729782104 0.6695810556411743 -1.0339940786361694
v 0.31316038966178894 0.6695810556411743 -1.0005053281784058
v -0.2751885950565338 0.6695810556411743 -1.0339940786361694
v 0.31316038966178894 0.6695810556411743 -1.0005053281784058
v -0.3085760474205017 0.6695810556411743 -1.0005053281784058
v -0.3085760474205017 0.6695810556411743 -1.0005053281784058
v 0.31316038966178894 0.6695810556411743 -1.0005053281784058
v 0.31316038966178894 0.6766742467880249 -0.9998559355735779
v -0.3085760474205017 0.6766742467880249 -0.9998559355735779
v -0.3085760474205017 0.6766742467880249 -0.9998559355735779
v 0.31316038966178894 0.6766742467880249 -0.9998559355735779
v 0.27977293729782104 0.6766742467880249 -1.0333447456359863
v -0.3085760474205017 0.6766742467880249 -0.9998559355735779
v 0.27977293729782104 0.6766742467880249 -1.0333447456359863
v -0.2751885950565338 0.6766742467880249 -1.0333447456359863
v -0.2751885950565338 0.6766742467880249 -1.0333447456359863
v 0.27977293729782104 0.6766742467880249 -1.0333447456359863
v 0.27977293729782104 0.6695810556411743 -1.0339940786361694
v -0.2751885950565338 0.6695810556411743 -1.0339940786361694
vn -3.233403049307526e-06 1.0 -5.693989805877209e-06
vn -3.233403049307526e-06 1.0 -5.693989805877209e-06
vn -3.233403049307526e-06 1.0 -5.693989805877209e-06
vn -3.233403049307526e-06 1.0 -5.693989805877209e-06
vn 3.535424866640824e-06 1.0 -5.750944637838984e-06
vn 3.535424866640824e-06 1.0 -5.750944637838984e-06
vn 3.535424866640824e-06 1.0 -5.750944637838984e-06
vn 3.535424866640824e-06 1.0 -5.750944637838984e-06
vn 0.0 1.0 -6.654679509665584e-06
vn 0.0 1.0 -6.654679509665584e-06
vn 0.0 1.0 -6.654679509665584e-06
vn 8.637407518108375e-06 -1.0 1.466648518544389e-05
vn 8.637407518108375e-06 -1.0 1.466648518544389e-05
vn 8.637407518108375e-06 -1.0 1.466648518544389e-05
vn 8.637407518108375e-06 -1.0 1.466648518544389e-05
vn -9.44781095313374e-06 -1.0 1.595693720446434e-05
vn -9.44781095313374e-06 -1.0 1.595693720446434e-05
vn -9.44781095313374e-06 -1.0 1.595693720446434e-05
vn -9.44781095313374e-06 -1.0 1.595693720446434e-05
vn 0.0 -1.0 1.7969236068893224e-05
vn 0.0 -1.0 1.7969236068893224e-05
vn 0.0 -1.0 1.7969236068893224e-05
vn -0.7652360796928406 -0.041994426399469376 -0.642378568649292
vn -0.7652360796928406 -0.041994426399469376 -0.642378568649292
vn -0.7652360796928406 -0.041994426399469376 -0.642378568649292
vn -0.7652360796928406 -0.041994426399469376 -0.642378568649292
vn 0.7524626851081848 0.04253314435482025 0.6572601199150085
vn 0.7524626851081848 0.04253314435482025 0.6572601199150085
vn 0.7524626851081848 0.04253314435482025 0.6572601199150085
vn 0.7524626851081848 0.04253314435482025 0.6572601199150085
vn 0.0 0.05019040405750275 0.9987396597862244
vn 0.0 0.05019040405750275 0.9987396597862244
vn 0.0 0.05019040405750275 0.9987396597862244
vn 0.0 0.05019040405750275 0.9987396597862244
vn 0.7645761370658875 -0.04328365623950958 -0.6430785655975342
vn 0.7645761370658875 -0.04328365623950958 -0.6430785655975342
vn 0.7645761370658875 -0.04328365623950958 -0.6430785655975342
vn 0.7645761370658875 -0.04328365623950958 -0.6430785655975342
vn -0.006824001669883728 0.051315564662218094 0.9986591339111328
vn -0.006824001669883728 0.051315564662218094 0.9986591339111328
vn -0.006824001669883728 0.051315564662218094 0.9986591339111328
vn -0.006824001669883728 0.051315564662218094 0.9986591339111328
vn -0.784290075302124 0.04188291355967522 0.6189790368080139
vn -0.784290075302124 0.04188291355967522 0.6189790368080139
vn -0.784290075302124 0.04188291355967522 0.6189790368080139
vn -0.784290075302124 0.04188291355967522 0.6189790368080139
vn 4.995902145310538e-07 -1.0 -1.0344945167162223e-06
vn 4.995902145310538e-07 -1.0 -1.0344945167162223e-06
vn 4.995902145310538e-07 -1.0 -1.0344945167162223e-06
vn 4.995902145310538e-07 -1.0 -1.0344945167162223e-06
vn -1.0 0.0 0.0
vn -1.0 0.0 0.0
vn -1.0 0.0 0.0
vn -1.0 0.0 0.0
vn -3.054059618534666e-07 1.0 6.079768581912504e-07
vn -3.054059618534666e-07 1.0 6.079768581912504e-07
vn -3.054059618534666e-07 1.0 6.079768581912504e-07
vn -3.054059618534666e-07 1.0 6.079768581912504e-07
vn 1.0 2.976337611926283e-07 0.0
vn 1.0 2.976337611926283e-07 0.0
vn 1.0 2.976337611926283e-07 0.0
vn 1.0 2.976337611926283e-07 0.0
vn -3.23339986607607e-06 1.0 -5.693984348908998e-06
vn -3.23339986607607e-06 1.0 -5.693984348908998e-06
vn -3.23339986607607e-06 1.0 -5.693984348908998e-06
vn -3.23339986607607e-06 1.0 -5.693984348908998e-06
vn 3.535426458256552e-06 1.0 -5.750947366323089e-06
vn 3.535426458256552e-06 1.0 -5.750947366323089e-06
vn 3.535426458256552e-06 1.0 -5.750947366323089e-06
vn 3.535426458256552e-06 1.0 -5.750947366323089e-06
vn 0.0 1.0 -6.654679509665584e-06
vn 0.0 1.0 -6.654679509665584e-06
vn 0.0 1.0 -6.654679509665584e-06
vn 8.637413884571288e-06 -1.0 1.466649609938031e-05
vn 8.637413884571288e-06 -1.0 1.466649609938031e-05
vn 8.637413884571288e-06 -1.0 1.466649609938031e-05
vn 8.637413884571288e-06 -1.0 1.466649609938031e-05
vn -9.44781095313374e-06 -1.0 1.595693720446434e-05
vn -9.44781095313374e-06 -1.0 1.595693720446434e-05
vn -9.44781095313374e-06 -1.0 1.595693720446434e-05
vn -9.44781095313374e-06 -1.0 1.595693720446434e-05
vn 0.0 -1.0 1.7969212422030978e-05
vn 0.0 -1.0 1.7969212422030978e-05
vn 0.0 -1.0 1.7969212422030978e-05
vn -0.7652361989021301 -0.04199216514825821 -0.6423785090446472
vn -0.7652361989021301 -0.04199216514825821 -0.6423785090446472
vn -0.7652361989021301 -0.04199216514825821 -0.6423785090446472
vn -0.7652361989021301 -0.04199216514825821 -0.6423785090446472
vn 0.7524627447128296 0.04253020137548447 0.6572601795196533
vn 0.7524627447128296 0.04253020137548447 0.6572601795196533
vn 0.7524627447128296 0.04253020137548447 0.6572601795196533
vn 0.7524627447128296 0.04253020137548447 0.6572601795196533
vn 0.0 0.05019040405750275 0.9987396597862244
vn 0.0 0.05019040405750275 0.9987396597862244
vn 0.0 0.05019040405750275 0.9987396597862244
vn 0.0 0.05019040405750275 0.9987396597862244
vn 0.7645760178565979 -0.04328414425253868 -0.6430784463882446
vn 0.7645760178565979 -0.04328414425253868 -0.6430784463882446
vn 0.7645760178565979 -0.04328414425253868 -0.6430784463882446
vn 0.7645760178565979 -0.04328414425253868 -0.6430784463882446
vn -0.006824001669883728 0.05131562426686287 0.9986591339111328
vn -0.006824001669883728 0.05131562426686287 0.9986591339111328
vn -0.006824001669883728 0.05131562426686287 0.9986591339111328
vn -0.006824001669883728 0.05131562426686287 0.9986591339111328
vn -0.7842898964881897 0.04188482090830803 0.6189789175987244
vn -0.7842898964881897 0.04188482090830803 0.6189789175987244
vn -0.7842898964881897 0.04188482090830803 0.6189789175987244
vn -0.7842898964881897 0.04188482090830803 0.6189789175987244
vn -5.096902668810799e-07 -1.0 -1.0349421017963323e-06
vn -5.096902668810799e-07 -1.0 -1.0349421017963323e-06
vn -5.096902668810799e-07 -1.0 -1.0349421017963323e-06
vn -5.096902668810799e-07 -1.0 -1.0349421017963323e-06
vn -1.0 5.51497862488759e-07 0.0
vn -1.0 5.51497862488759e-07 0.0
vn -1.0 5.51497862488759e-07 0.0
vn -1.0 5.51497862488759e-07 0.0
vn 3.0540613238372316e-07 1.0 6.079772560951824e-07
vn 3.0540613238372316e-07 1.0 6.079772560951824e-07
vn 3.0540613238372316e-07 1.0 6.079772560951824e-07
vn 3.0540613238372316e-07 1.0 6.079772560951824e-07
vn 1.0 2.2653873656963697e-06 0.0
vn 1.0 2.2653873656963697e-06 0.0
vn 1.0 2.2653873656963697e-06 0.0
vn 1.0 2.2653873656963697e-06 0.0
vn 0.0 -1.0 0.0
vn 0.0 -1.0 0.0
vn 0.0 -1.0 0.0
vn 0.0 -1.0 0.0
vn 0.0 -1.0 0.0
vn 0.0 -1.0 0.0
vn 0.0 -0.09117399901151657 0.9958349466323853
vn 0.0 -0.09117399901151657 0.9958349466323853
vn 0.0 -0.09117399901151657 0.9958349466323853
vn 0.0 -0.09117399901151657 0.9958349466323853
vn 0.0 1.0 0.0
vn 0.0 1.0 0.0
vn 0.0 1.0 0.0
vn 0.0 1.0 0.0
vn 0.0 1.0 0.0
vn 0.0 1.0 0.0
vn 0.0 0.0911732017993927 -0.9958350658416748
vn 0.0 0.0911732017993927 -0.9958350658416748
vn 0.0 0.0911732017993927 -0.9958350658416748
vn 0.0 0.0911732017993927 -0.9958350658416748
vt 2.9721031188964844 -0.5830647945404053
vt 2.9643185138702393 0.21803927421569824
vt 2.2066476345062256 1.010679930448532
vt 1.4654368162155151 1.0064588785171509
vt 2.9721031188964844 -0.5830647945404053
vt 2.9643185138702393 0.21803927421569824
vt 2.2066476345062256 1.010679930448532
vt 1.4654368162155151 1.0064588785171509
vt 0.008834617212414742 0.9999999999995172
vt 0.0 0.1365024447441101
vt 0.9970316886901855 0.5682112872600555
vt 2.9721031188964844 -0.5830647945404053
vt 1.4654368162155151 1.0064588785171509
vt 2.2066476345062256 1.010679930448532
vt 2.9643185138702393 0.21803927421569824
vt 2.9721031188964844 -0.5830647945404053
vt 1.4654368162155151 1.0064588785171509
vt 2.2066476345062256 1.010679930448532
vt 2.9643185138702393 0.21803927421569824
vt 0.008834617212414742 0.9999999999995172
vt 0.9970316886901855 0.5682112872600555
vt 0.0 0.1365024447441101
vt 2.9721031188964844 -0.5830647945404053
vt 2.9721031188964844 -0.5830647945404053
vt 1.4654368162155151 1.0064588785171509
vt 1.4654368162155151 1.0064588785171509
vt 2.2066476345062256 1.010679930448532
vt 2.2066476345062256 1.010679930448532
vt 2.9643185138702393 0.21803927421569824
vt 2.9643185138702393 0.21803927421569824
vt 2.9643185138702393 0.21803927421569824
vt 2.9643185138702393 0.21803927421569824
vt 2.9721031188964844 -0.5830647945404053
vt 2.9721031188964844 -0.5830647945404053
vt 2.9721031188964844 -0.5830647945404053
vt 2.9721031188964844 -0.5830647945404053
vt 1.4654368162155151 1.0064588785171509
vt 1.4654368162155151 1.0064588785171509
vt 1.4654368162155151 1.0064588785171509
vt 1.4654368162155151 1.0064588785171509
vt 2.2066476345062256 1.010679930448532
vt 2.2066476345062256 1.010679930448532
vt 2.2066476345062256 1.010679930448532
vt 2.2066476345062256 1.010679930448532
vt 2.9643185138702393 0.21803927421569824
vt 2.9643185138702393 0.21803927421569824
vt 0.5400000214576721 0.0
vt 0.5400000214576721 0.25
vt 0.5200000405311584 0.25
vt 0.5200000405311584 0.0
vt 0.5400000214576721 0.25
vt 0.5400000214576721 0.5
vt 0.5200000405311584 0.5
vt 0.5200000405311584 0.25
vt 0.5400000214576721 0.5
vt 0.5400000214576721 0.75
vt 0.5200000405311584 0.75
vt 0.5200000405311584 0.5
vt 0.5400000214576721 0.75
vt 0.5400000214576721 1.0
vt 0.5200000405311584 1.0
vt 0.5200000405311584 0.75
vt 2.9721031188964844 -0.5830647945404053
vt 2.9643185138702393 0.21803927421569824
vt 2.2066476345062256 1.010679930448532
vt 1.4654368162155151 1.0064588785171509
vt 2.9721031188964844 -0.5830647945404053
vt 2.9643185138702393 0.21803927421569824
vt 2.2066476345062256 1.010679930448532
vt 1.4654368162155151 1.0064588785171509
vt 0.008834617212414742 0.9999999999995172
vt 0.0 0.1365024447441101
vt 0.9970316886901855 0.5682112872600555
vt 2.9721031188964844 -0.5830647945404053
vt 1.4654368162155151 1.0064588785171509
vt 2.2066476345062256 1.010679930448532
vt 2.9643185138702393 0.21803927421569824
vt 2.9721031188964844 -0.5830647945404053
vt 1.4654368162155151 1.0064588785171509
vt 2.2066476345062256 1.010679930448532
vt 2.9643185138702393 0.21803927421569824
vt 0.008834617212414742 0.9999999999995172
vt 0.9970316886901855 0.5682112872600555
vt 0.0 0.1365024447441101
vt 2.9721031188964844 -0.5830647945404053
vt 2.9721031188964844 -0.5830647945404053
vt 1.4654368162155151 1.0064588785171509
vt 1.4654368162155151 1.0064588785171509
vt 2.2066476345062256 1.010679930448532
vt 2.2066476345062256 1.010679930448532
vt 2.9643185138702393 0.21803927421569824
vt 2.9643185138702393 0.21803927421569824
vt 2.9643185138702393 0.21803927421569824
vt 2.9643185138702393 0.21803927421569824
vt 2.9721031188964844 -0.5830647945404053
vt 2.9721031188964844 -0.5830647945404053
vt 2.9721031188964844 -0.5830647945404053
vt 2.9721031188964844 -0.5830647945404053
vt 1.4654368162155151 1.0064588785171509
vt 1.4654368162155151 1.0064588785171509
vt 1.4654368162155151 1.0064588785171509
vt 1.4654368162155151 1.0064588785171509
vt 2.2066476345062256 1.010679930448532
vt 2.2066476345062256 1.010679930448532
vt 2.2066476345062256 1.010679930448532
vt 2.2066476345062256 1.010679930448532
vt 2.9643185138702393 0.21803927421569824
vt 2.9643185138702393 0.21803927421569824
vt 0.5400000214576721 0.0
vt 0.5400000214576721 0.25
vt 0.5200000405311584 0.25
vt 0.5200000405311584 0.0
vt 0.5400000214576721 0.25
vt 0.5400000214576721 0.5
vt 0.5200000405311584 0.5
vt 0.5200000405311584 0.25
vt 0.5400000214576721 0.5
vt 0.5400000214576721 0.75
vt 0.5200000405311584 0.75
vt 0.5200000405311584 0.5
vt 0.5400000214576721 0.75
vt 0.5400000214576721 1.0
vt 0.5200000405311584 1.0
vt 0.5200000405311584 0.75
vt 0.0 1.0
vt 0.0 0.0
vt 1.0 0.0
vt 0.0 1.0
vt 1.0 0.0
vt 1.0 1.0
vt 0.0 1.0
vt 0.0 0.0
vt 1.0 0.0
vt 1.0 1.0
vt 0.0 1.0
vt 0.0 0.0
vt 1.0 0.0
vt 0.0 1.0
vt 1.0 0.0
vt 1.0 1.0
vt 0.0 1.0
vt 0.0 0.0
vt 1.0 0.0
vt 1.0 1.0

g polySurface1865
s 1
usemtl polySurface1865
f 1/1/1 2/2/2 3/3/3 
f 1/1/1 3/3/3 4/4/4 
f 5/5/5 6/6/6 7/7/7 
f 5/5/5 7/7/7 8/8/8 
f 9/9/9 10/10/10 11/11/11 
f 12/12/12 13/13/13 14/14/14 
f 12/12/12 14/14/14 15/15/15 
f 16/16/16 17/17/17 18/18/18 
f 16/16/16 18/18/18 19/19/19 
f 20/20/20 21/21/21 22/22/22 
f 23/23/23 24/24/24 25/25/25 
f 23/23/23 25/25/25 26/26/26 
f 27/27/27 28/28/28 29/29/29 
f 27/27/27 29/29/29 30/30/30 
f 31/31/31 32/32/32 33/33/33 
f 31/31/31 33/33/33 34/34/34 
f 35/35/35 36/36/36 37/37/37 
f 35/35/35 37/37/37 38/38/38 
f 39/39/39 40/40/40 41/41/41 
f 39/39/39 41/41/41 42/42/42 
f 43/43/43 44/44/44 45/45/45 
f 43/43/43 45/45/45 46/46/46 
f 47/47/47 48/48/48 49/49/49 
f 47/47/47 49/49/49 50/50/50 
f 51/51/51 52/52/52 53/53/53 
f 51/51/51 53/53/53 54/54/54 
f 55/55/55 56/56/56 57/57/57 
f 55/55/55 57/57/57 58/58/58 
f 59/59/59 60/60/60 61/61/61 
f 59/59/59 61/61/61 62/62/62 
f 63/63/63 64/64/64 65/65/65 
f 63/63/63 65/65/65 66/66/66 
f 67/67/67 68/68/68 69/69/69 
f 67/67/67 69/69/69 70/70/70 
f 71/71/71 72/72/72 73/73/73 
f 74/74/74 75/75/75 76/76/76 
f 74/74/74 76/76/76 77/77/77 
f 78/78/78 79/79/79 80/80/80 
f 78/78/78 80/80/80 81/81/81 
f 82/82/82 83/83/83 84/84/84 
f 85/85/85 86/86/86 87/87/87 
f 85/85/85 87/87/87 88/88/88 
f 89/89/89 90/90/90 91/91/91 
f 89/89/89 91/91/91 92/92/92 
f 93/93/93 94/94/94 95/95/95 
f 93/93/93 95/95/95 96/96/96 
f 97/97/97 98/98/98 99/99/99 
f 97/97/97 99/99/99 100/100/100 
f 101/101/101 102/102/102 103/103/103 
f 101/101/101 103/103/103 104/104/104 
f 105/105/105 106/106/106 107/107/107 
f 105/105/105 107/107/107 108/108/108 
f 109/109/109 110/110/110 111/111/111 
f 109/109/109 111/111/111 112/112/112 
f 113/113/113 114/114/114 115/115/115 
f 113/113/113 115/115/115 116/116/116 
f 117/117/117 118/118/118 119/119/119 
f 117/117/117 119/119/119 120/120/120 
f 121/121/121 122/122/122 123/123/123 
f 121/121/121 123/123/123 124/124/124 
f 125/125/125 126/126/126 127/127/127 
f 128/128/128 129/129/129 130/130/130 
f 131/131/131 132/132/132 133/133/133 
f 131/131/131 133/133/133 134/134/134 
f 135/135/135 136/136/136 137/137/137 
f 138/138/138 139/139/139 140/140/140 
f 141/141/141 142/142/142 143/143/143 
f 141/141/141 143/143/143 144/144/144 

