v 0.3105505406856537 1.0698386430740356 -3.3527984619140625
v 0.3522137403488159 1.0698386430740356 -3.3527984619140625
v 0.3986004590988159 1.0698386430740356 -3.40579891204834
v 0.4127832055091858 1.069838285446167 -3.474475622177124
v 0.4127832055091858 1.069838285446167 -3.474475622177124
v 0.4319879114627838 1.0698386430740356 -3.40579891204834
v 0.47391173243522644 1.0698386430740356 -3.35280442237854
v 0.5154534578323364 1.0698386430740356 -3.352519989013672
v 0.3986004590988159 1.0698386430740356 -3.40579891204834
v 0.4319879114627838 1.0698386430740356 -3.40579891204834
v 0.4127832055091858 1.069838285446167 -3.474475622177124
v 0.31073179841041565 1.0627458095550537 -3.3524420261383057
v 0.41277891397476196 1.0627446174621582 -3.4741156101226807
v 0.3986004590988159 1.0627458095550537 -3.405444860458374
v 0.3523949980735779 1.0627458095550537 -3.3524420261383057
v 0.41277891397476196 1.0627446174621582 -3.4741156101226807
v 0.5152624249458313 1.0627458095550537 -3.3521575927734375
v 0.4737206995487213 1.0627458095550537 -3.35244083404541
v 0.4319879114627838 1.0627458095550537 -3.405444860458374
v 0.3986004590988159 1.0627458095550537 -3.405444860458374
v 0.41277891397476196 1.0627446174621582 -3.4741156101226807
v 0.4319879114627838 1.0627458095550537 -3.405444860458374
v 0.31073179841041565 1.0627458095550537 -3.3524420261383057
v 0.3105505406856537 1.0698386430740356 -3.3527984619140625
v 0.4127832055091858 1.069838285446167 -3.474475622177124
v 0.41277891397476196 1.0627446174621582 -3.4741156101226807
v 0.3986004590988159 1.0627458095550537 -3.405444860458374
v 0.3986004590988159 1.0698386430740356 -3.40579891204834
v 0.3522137403488159 1.0698386430740356 -3.3527984619140625
v 0.3523949980735779 1.0627458095550537 -3.3524420261383057
v 0.3523949980735779 1.0627458095550537 -3.3524420261383057
v 0.3522137403488159 1.0698386430740356 -3.3527984619140625
v 0.3105505406856537 1.0698386430740356 -3.3527984619140625
v 0.31073179841041565 1.0627458095550537 -3.3524420261383057
v 0.41277891397476196 1.0627446174621582 -3.4741156101226807
v 0.4127832055091858 1.069838285446167 -3.474475622177124
v 0.5154534578323364 1.0698386430740356 -3.352519989013672
v 0.5152624249458313 1.0627458095550537 -3.3521575927734375
v 0.5152624249458313 1.0627458095550537 -3.3521575927734375
v 0.5154534578323364 1.0698386430740356 -3.352519989013672
v 0.47391173243522644 1.0698386430740356 -3.35280442237854
v 0.4737206995487213 1.0627458095550537 -3.35244083404541
v 0.4737206995487213 1.0627458095550537 -3.35244083404541
v 0.47391173243522644 1.0698386430740356 -3.35280442237854
v 0.4319879114627838 1.0698386430740356 -3.40579891204834
v 0.4319879114627838 1.0627458095550537 -3.405444860458374
v 0.4319879114627838 1.0627449750900269 -1.9580413103103638
v 0.3986004590988159 1.0627449750900269 -1.9908807277679443
v 0.3986004590988159 1.0627458095550537 -3.405444860458374
v 0.4319879114627838 1.0627458095550537 -3.405444860458374
v 0.3986004590988159 1.0627449750900269 -1.9908807277679443
v 0.3986004590988159 1.069838285446167 -1.9908807277679443
v 0.3986004590988159 1.0698386430740356 -3.40579891204834
v 0.3986004590988159 1.0627458095550537 -3.405444860458374
v 0.3986004590988159 1.069838285446167 -1.9908807277679443
v 0.4319879114627838 1.069838285446167 -1.9573919773101807
v 0.4319879114627838 1.0698386430740356 -3.40579891204834
v 0.3986004590988159 1.0698386430740356 -3.40579891204834
v 0.4319879114627838 1.069838285446167 -1.9573919773101807
v 0.4319879114627838 1.0627449750900269 -1.9580413103103638
v 0.4319879114627838 1.0627458095550537 -3.405444860458374
v 0.4319879114627838 1.0698386430740356 -3.40579891204834
v -0.5154534578323364 1.0698386430740356 -3.3527984619140625
v -0.4737902581691742 1.0698386430740356 -3.3527984619140625
v -0.4274035692214966 1.0698386430740356 -3.40579891204834
v -0.4132208228111267 1.069838285446167 -3.474475622177124
v -0.4132208228111267 1.069838285446167 -3.474475622177124
v -0.3940161168575287 1.0698386430740356 -3.40579891204834
v -0.35209226608276367 1.0698386430740356 -3.35280442237854
v -0.3105505406856537 1.0698386430740356 -3.352519989013672
v -0.4274035692214966 1.0698386430740356 -3.40579891204834
v -0.3940161168575287 1.0698386430740356 -3.40579891204834
v -0.4132208228111267 1.069838285446167 -3.474475622177124
v -0.5152722001075745 1.0627458095550537 -3.3524420261383057
v -0.41322508454322815 1.0627446174621582 -3.4741156101226807
v -0.4274035692214966 1.0627458095550537 -3.405444860458374
v -0.47360900044441223 1.0627458095550537 -3.3524420261383057
v -0.41322508454322815 1.0627446174621582 -3.4741156101226807
v -0.3107415735721588 1.0627458095550537 -3.3521575927734375
v -0.3522833287715912 1.0627458095550537 -3.35244083404541
v -0.3940161168575287 1.0627458095550537 -3.405444860458374
v -0.4274035692214966 1.0627458095550537 -3.405444860458374
v -0.41322508454322815 1.0627446174621582 -3.4741156101226807
v -0.3940161168575287 1.0627458095550537 -3.405444860458374
v -0.5152722001075745 1.0627458095550537 -3.3524420261383057
v -0.5154534578323364 1.0698386430740356 -3.3527984619140625
v -0.4132208228111267 1.069838285446167 -3.474475622177124
v -0.41322508454322815 1.0627446174621582 -3.4741156101226807
v -0.4274035692214966 1.0627458095550537 -3.405444860458374
v -0.4274035692214966 1.0698386430740356 -3.40579891204834
v -0.4737902581691742 1.0698386430740356 -3.3527984619140625
v -0.47360900044441223 1.0627458095550537 -3.3524420261383057
v -0.47360900044441223 1.0627458095550537 -3.3524420261383057
v -0.4737902581691742 1.0698386430740356 -3.3527984619140625
v -0.5154534578323364 1.0698386430740356 -3.3527984619140625
v -0.5152722001075745 1.0627458095550537 -3.3524420261383057
v -0.41322508454322815 1.0627446174621582 -3.4741156101226807
v -0.4132208228111267 1.069838285446167 -3.474475622177124
v -0.3105505406856537 1.0698386430740356 -3.352519989013672
v -0.3107415735721588 1.0627458095550537 -3.3521575927734375
v -0.3107415735721588 1.0627458095550537 -3.3521575927734375
v -0.3105505406856537 1.0698386430740356 -3.352519989013672
v -0.35209226608276367 1.0698386430740356 -3.35280442237854
v -0.3522833287715912 1.0627458095550537 -3.35244083404541
v -0.3522833287715912 1.0627458095550537 -3.35244083404541
v -0.35209226608276367 1.0698386430740356 -3.35280442237854
v -0.3940161168575287 1.0698386430740356 -3.40579891204834
v -0.3940161168575287 1.0627458095550537 -3.405444860458374
v -0.3940161168575287 1.0627449750900269 -1.9915300607681274
v -0.4274035692214966 1.0627449750900269 -1.9580413103103638
v -0.4274035692214966 1.0627458095550537 -3.405444860458374
v -0.3940161168575287 1.0627458095550537 -3.405444860458374
v -0.4274035692214966 1.0627449750900269 -1.9580413103103638
v -0.4274035692214966 1.069838285446167 -1.9573919773101807
v -0.4274035692214966 1.0698386430740356 -3.40579891204834
v -0.4274035692214966 1.0627458095550537 -3.405444860458374
v -0.4274035692214966 1.069838285446167 -1.9573919773101807
v -0.3940161168575287 1.069838285446167 -1.9908807277679443
v -0.3940161168575287 1.0698386430740356 -3.40579891204834
v -0.4274035692214966 1.0698386430740356 -3.40579891204834
v -0.3940161168575287 1.069838285446167 -1.9908807277679443
v -0.3940161168575287 1.0627449750900269 -1.9915300607681274
v -0.3940161168575287 1.0627458095550537 -3.405444860458374
v -0.3940161168575287 1.0698386430740356 -3.40579891204834
v -0.3940161168575287 1.0627449750900269 -1.9915300607681274
v 0.3986004590988159 1.0627449750900269 -1.9915300607681274
v 0.4319879114627838 1.0627449750900269 -1.9580413103103638
v -0.3940161168575287 1.0627449750900269 -1.9915300607681274
v 0.4319879114627838 1.0627449750900269 -1.9580413103103638
v -0.4274035692214966 1.0627449750900269 -1.9580413103103638
v -0.4274035692214966 1.0627449750900269 -1.9580413103103638
v 0.4319879114627838 1.0627449750900269 -1.9580413103103638
v 0.4319879114627838 1.069838285446167 -1.9573919773101807
v -0.4274035692214966 1.069838285446167 -1.9573919773101807
v -0.4274035692214966 1.069838285446167 -1.9573919773101807
v 0.4319879114627838 1.069838285446167 -1.9573919773101807
v 0.3986004590988159 1.069838285446167 -1.9908807277679443
v -0.4274035692214966 1.069838285446167 -1.9573919773101807
v 0.3986004590988159 1.069838285446167 -1.9908807277679443
v -0.3940161168575287 1.069838285446167 -1.9908807277679443
v -0.3940161168575287 1.069838285446167 -1.9908807277679443
v 0.3986004590988159 1.069838285446167 -1.9908807277679443
v 0.3986004590988159 1.0627449750900269 -1.9915300607681274
v -0.3940161168575287 1.0627449750900269 -1.9915300607681274
vn -3.2334494335373165e-06 1.0 -6.507411399070406e-06
vn -3.2334494335373165e-06 1.0 -6.507411399070406e-06
vn -3.2334494335373165e-06 1.0 -6.507411399070406e-06
vn -3.2334494335373165e-06 1.0 -6.507411399070406e-06
vn 3.5354728424863424e-06 1.0 -4.866175913775805e-06
vn 3.5354728424863424e-06 1.0 -4.866175913775805e-06
vn 3.5354728424863424e-06 1.0 -4.866175913775805e-06
vn 3.5354728424863424e-06 1.0 -4.866175913775805e-06
vn 0.0 1.0 -5.323736331774853e-06
vn 0.0 1.0 -5.323736331774853e-06
vn 0.0 1.0 -5.323736331774853e-06
vn 8.637407518108375e-06 -1.0 1.6296095054713078e-05
vn 8.637407518108375e-06 -1.0 1.6296095054713078e-05
vn 8.637407518108375e-06 -1.0 1.6296095054713078e-05
vn 8.637407518108375e-06 -1.0 1.6296095054713078e-05
vn -9.44781095313374e-06 -1.0 1.4183944585965946e-05
vn -9.44781095313374e-06 -1.0 1.4183944585965946e-05
vn -9.44781095313374e-06 -1.0 1.4183944585965946e-05
vn -9.44781095313374e-06 -1.0 1.4183944585965946e-05
vn 0.0 -1.0 1.7303709682892077e-05
vn 0.0 -1.0 1.7303709682892077e-05
vn 0.0 -1.0 1.7303709682892077e-05
vn -0.7652381658554077 -0.04199445992708206 -0.6423760652542114
vn -0.7652381658554077 -0.04199445992708206 -0.6423760652542114
vn -0.7652381658554077 -0.04199445992708206 -0.6423760652542114
vn -0.7652381658554077 -0.04199445992708206 -0.6423760652542114
vn 0.7524620294570923 0.042533136904239655 0.6572608351707458
vn 0.7524620294570923 0.042533136904239655 0.6572608351707458
vn 0.7524620294570923 0.042533136904239655 0.6572608351707458
vn 0.7524620294570923 0.042533136904239655 0.6572608351707458
vn 0.0 0.050190433859825134 0.9987396597862244
vn 0.0 0.050190433859825134 0.9987396597862244
vn 0.0 0.050190433859825134 0.9987396597862244
vn 0.0 0.050190433859825134 0.9987396597862244
vn 0.7645719051361084 -0.04328449070453644 -0.6430833339691162
vn 0.7645719051361084 -0.04328449070453644 -0.6430833339691162
vn 0.7645719051361084 -0.04328449070453644 -0.6430833339691162
vn 0.7645719051361084 -0.04328449070453644 -0.6430833339691162
vn -0.006821350660175085 0.051315080374479294 0.9986592531204224
vn -0.006821350660175085 0.051315080374479294 0.9986592531204224
vn -0.006821350660175085 0.051315080374479294 0.9986592531204224
vn -0.006821350660175085 0.051315080374479294 0.9986592531204224
vn -0.7842902541160583 0.04188128188252449 0.61897873878479
vn -0.7842902541160583 0.04188128188252449 0.61897873878479
vn -0.7842902541160583 0.04188128188252449 0.61897873878479
vn -0.7842902541160583 0.04188128188252449 0.61897873878479
vn 2.622024624088226e-07 -1.0 -5.110014171805233e-07
vn 2.622024624088226e-07 -1.0 -5.110014171805233e-07
vn 2.622024624088226e-07 -1.0 -5.110014171805233e-07
vn 2.622024624088226e-07 -1.0 -5.110014171805233e-07
vn -1.0 0.0 0.0
vn -1.0 0.0 0.0
vn -1.0 0.0 0.0
vn -1.0 0.0 0.0
vn -1.6035643568557134e-07 1.0 3.1922428433972527e-07
vn -1.6035643568557134e-07 1.0 3.1922428433972527e-07
vn -1.6035643568557134e-07 1.0 3.1922428433972527e-07
vn -1.6035643568557134e-07 1.0 3.1922428433972527e-07
vn 1.0 -2.6650718609744217e-06 0.0
vn 1.0 -2.6650718609744217e-06 0.0
vn 1.0 -2.6650718609744217e-06 0.0
vn 1.0 -2.6650718609744217e-06 0.0
vn -3.233450797779369e-06 1.0 -6.507414127554512e-06
vn -3.233450797779369e-06 1.0 -6.507414127554512e-06
vn -3.233450797779369e-06 1.0 -6.507414127554512e-06
vn -3.233450797779369e-06 1.0 -6.507414127554512e-06
vn 3.5354760257177986e-06 1.0 -4.866180006501963e-06
vn 3.5354760257177986e-06 1.0 -4.866180006501963e-06
vn 3.5354760257177986e-06 1.0 -4.866180006501963e-06
vn 3.5354760257177986e-06 1.0 -4.866180006501963e-06
vn 0.0 1.0 -5.323736331774853e-06
vn 0.0 1.0 -5.323736331774853e-06
vn 0.0 1.0 -5.323736331774853e-06
vn 8.637407518108375e-06 -1.0 1.6296095054713078e-05
vn 8.637407518108375e-06 -1.0 1.6296095054713078e-05
vn 8.637407518108375e-06 -1.0 1.6296095054713078e-05
vn 8.637407518108375e-06 -1.0 1.6296095054713078e-05
vn -9.447819138586055e-06 -1.0 1.4183958228386473e-05
vn -9.447819138586055e-06 -1.0 1.4183958228386473e-05
vn -9.447819138586055e-06 -1.0 1.4183958228386473e-05
vn -9.447819138586055e-06 -1.0 1.4183958228386473e-05
vn 0.0 -1.0 1.7303709682892077e-05
vn 0.0 -1.0 1.7303709682892077e-05
vn 0.0 -1.0 1.7303709682892077e-05
vn -0.7652381658554077 -0.04199519753456116 -0.6423761248588562
vn -0.7652381658554077 -0.04199519753456116 -0.6423761248588562
vn -0.7652381658554077 -0.04199519753456116 -0.6423761248588562
vn -0.7652381658554077 -0.04199519753456116 -0.6423761248588562
vn 0.7524620294570923 0.04253334924578667 0.6572608351707458
vn 0.7524620294570923 0.04253334924578667 0.6572608351707458
vn 0.7524620294570923 0.04253334924578667 0.6572608351707458
vn 0.7524620294570923 0.04253334924578667 0.6572608351707458
vn 0.0 0.05019047111272812 0.9987396597862244
vn 0.0 0.05019047111272812 0.9987396597862244
vn 0.0 0.05019047111272812 0.9987396597862244
vn 0.0 0.05019047111272812 0.9987396597862244
vn 0.7645718455314636 -0.043285761028528214 -0.643083393573761
vn 0.7645718455314636 -0.043285761028528214 -0.643083393573761
vn 0.7645718455314636 -0.043285761028528214 -0.643083393573761
vn 0.7645718455314636 -0.043285761028528214 -0.643083393573761
vn -0.006821350660175085 0.05131512135267258 0.9986592531204224
vn -0.006821350660175085 0.05131512135267258 0.9986592531204224
vn -0.006821350660175085 0.05131512135267258 0.9986592531204224
vn -0.006821350660175085 0.05131512135267258 0.9986592531204224
vn -0.7842902541160583 0.04188014194369316 0.6189787983894348
vn -0.7842902541160583 0.04188014194369316 0.6189787983894348
vn -0.7842902541160583 0.04188014194369316 0.6189787983894348
vn -0.7842902541160583 0.04188014194369316 0.6189787983894348
vn -2.6744839942693943e-07 -1.0 -5.111175482852559e-07
vn -2.6744839942693943e-07 -1.0 -5.111175482852559e-07
vn -2.6744839942693943e-07 -1.0 -5.111175482852559e-07
vn -2.6744839942693943e-07 -1.0 -5.111175482852559e-07
vn -1.0 2.2216670458874432e-06 0.0
vn -1.0 2.2216670458874432e-06 0.0
vn -1.0 2.2216670458874432e-06 0.0
vn -1.0 2.2216670458874432e-06 0.0
vn 1.603565920049732e-07 1.0 3.19224596978529e-07
vn 1.603565920049732e-07 1.0 3.19224596978529e-07
vn 1.603565920049732e-07 1.0 3.19224596978529e-07
vn 1.603565920049732e-07 1.0 3.19224596978529e-07
vn 1.0 -2.01523562282091e-06 0.0
vn 1.0 -2.01523562282091e-06 0.0
vn 1.0 -2.01523562282091e-06 0.0
vn 1.0 -2.01523562282091e-06 0.0
vn 0.0 -1.0 3.5303573895362206e-06
vn 0.0 -1.0 3.5303573895362206e-06
vn 0.0 -1.0 3.5303573895362206e-06
vn 0.0 -1.0 3.5303573895362206e-06
vn 0.0 -1.0 3.5303573895362206e-06
vn 0.0 -1.0 3.5303573895362206e-06
vn 0.0 -0.09117365628480911 0.9958349466323853
vn 0.0 -0.09117365628480911 0.9958349466323853
vn 0.0 -0.09117365628480911 0.9958349466323853
vn 0.0 -0.09117365628480911 0.9958349466323853
vn 0.0 1.0 0.0
vn 0.0 1.0 0.0
vn 0.0 1.0 0.0
vn 0.0 1.0 0.0
vn 0.0 1.0 0.0
vn 0.0 1.0 0.0
vn 0.0 0.09117188304662704 -0.9958351850509644
vn 0.0 0.09117188304662704 -0.9958351850509644
vn 0.0 0.09117188304662704 -0.9958351850509644
vn 0.0 0.09117188304662704 -0.9958351850509644
vt 2.9721031188964844 -0.5830647945404053
vt 2.9643185138702393 0.21803927421569824
vt 2.2066476345062256 1.010679930448532
vt 1.4654368162155151 1.0064588785171509
vt 2.9721031188964844 -0.5830647945404053
vt 2.9643185138702393 0.21803927421569824
vt 2.2066476345062256 1.010679930448532
vt 1.4654368162155151 1.0064588785171509
vt 0.008834617212414742 0.9999999999995172
vt 0.0 0.1365024447441101
vt 0.9970316886901855 0.5682112872600555
vt 2.9721031188964844 -0.5830647945404053
vt 1.4654368162155151 1.0064588785171509
vt 2.2066476345062256 1.010679930448532
vt 2.9643185138702393 0.21803927421569824
vt 2.9721031188964844 -0.5830647945404053
vt 1.4654368162155151 1.0064588785171509
vt 2.2066476345062256 1.010679930448532
vt 2.9643185138702393 0.21803927421569824
vt 0.008834617212414742 0.9999999999995172
vt 0.9970316886901855 0.5682112872600555
vt 0.0 0.1365024447441101
vt 2.9721031188964844 -0.5830647945404053
vt 2.9721031188964844 -0.5830647945404053
vt 1.4654368162155151 1.0064588785171509
vt 1.4654368162155151 1.0064588785171509
vt 2.2066476345062256 1.010679930448532
vt 2.2066476345062256 1.010679930448532
vt 2.9643185138702393 0.21803927421569824
vt 2.9643185138702393 0.21803927421569824
vt 2.9643185138702393 0.21803927421569824
vt 2.9643185138702393 0.21803927421569824
vt 2.9721031188964844 -0.5830647945404053
vt 2.9721031188964844 -0.5830647945404053
vt 2.9721031188964844 -0.5830647945404053
vt 2.9721031188964844 -0.5830647945404053
vt 1.4654368162155151 1.0064588785171509
vt 1.4654368162155151 1.0064588785171509
vt 1.4654368162155151 1.0064588785171509
vt 1.4654368162155151 1.0064588785171509
vt 2.2066476345062256 1.010679930448532
vt 2.2066476345062256 1.010679930448532
vt 2.2066476345062256 1.010679930448532
vt 2.2066476345062256 1.010679930448532
vt 2.9643185138702393 0.21803927421569824
vt 2.9643185138702393 0.21803927421569824
vt 0.5400000214576721 0.0
vt 0.5400000214576721 0.25
vt 0.5200000405311584 0.25
vt 0.5200000405311584 0.0
vt 0.5400000214576721 0.25
vt 0.5400000214576721 0.5
vt 0.5200000405311584 0.5
vt 0.5200000405311584 0.25
vt 0.5400000214576721 0.5
vt 0.5400000214576721 0.75
vt 0.5200000405311584 0.75
vt 0.5200000405311584 0.5
vt 0.5400000214576721 0.75
vt 0.5400000214576721 1.0
vt 0.5200000405311584 1.0
vt 0.5200000405311584 0.75
vt 2.9721031188964844 -0.5830647945404053
vt 2.9643185138702393 0.21803927421569824
vt 2.2066476345062256 1.010679930448532
vt 1.4654368162155151 1.0064588785171509
vt 2.9721031188964844 -0.5830647945404053
vt 2.9643185138702393 0.21803927421569824
vt 2.2066476345062256 1.010679930448532
vt 1.4654368162155151 1.0064588785171509
vt 0.008834617212414742 0.9999999999995172
vt 0.0 0.1365024447441101
vt 0.9970316886901855 0.5682112872600555
vt 2.9721031188964844 -0.5830647945404053
vt 1.4654368162155151 1.0064588785171509
vt 2.2066476345062256 1.010679930448532
vt 2.9643185138702393 0.21803927421569824
vt 2.9721031188964844 -0.5830647945404053
vt 1.4654368162155151 1.0064588785171509
vt 2.2066476345062256 1.010679930448532
vt 2.9643185138702393 0.21803927421569824
vt 0.008834617212414742 0.9999999999995172
vt 0.9970316886901855 0.5682112872600555
vt 0.0 0.1365024447441101
vt 2.9721031188964844 -0.5830647945404053
vt 2.9721031188964844 -0.5830647945404053
vt 1.4654368162155151 1.0064588785171509
vt 1.4654368162155151 1.0064588785171509
vt 2.2066476345062256 1.010679930448532
vt 2.2066476345062256 1.010679930448532
vt 2.9643185138702393 0.21803927421569824
vt 2.9643185138702393 0.21803927421569824
vt 2.9643185138702393 0.21803927421569824
vt 2.9643185138702393 0.21803927421569824
vt 2.9721031188964844 -0.5830647945404053
vt 2.9721031188964844 -0.5830647945404053
vt 2.9721031188964844 -0.5830647945404053
vt 2.9721031188964844 -0.5830647945404053
vt 1.4654368162155151 1.0064588785171509
vt 1.4654368162155151 1.0064588785171509
vt 1.4654368162155151 1.0064588785171509
vt 1.4654368162155151 1.0064588785171509
vt 2.2066476345062256 1.010679930448532
vt 2.2066476345062256 1.010679930448532
vt 2.2066476345062256 1.010679930448532
vt 2.2066476345062256 1.010679930448532
vt 2.9643185138702393 0.21803927421569824
vt 2.9643185138702393 0.21803927421569824
vt 0.5400000214576721 0.0
vt 0.5400000214576721 0.25
vt 0.5200000405311584 0.25
vt 0.5200000405311584 0.0
vt 0.5400000214576721 0.25
vt 0.5400000214576721 0.5
vt 0.5200000405311584 0.5
vt 0.5200000405311584 0.25
vt 0.5400000214576721 0.5
vt 0.5400000214576721 0.75
vt 0.5200000405311584 0.75
vt 0.5200000405311584 0.5
vt 0.5400000214576721 0.75
vt 0.5400000214576721 1.0
vt 0.5200000405311584 1.0
vt 0.5200000405311584 0.75
vt 0.0 1.0
vt 0.0 0.0
vt 1.0 0.0
vt 0.0 1.0
vt 1.0 0.0
vt 1.0 1.0
vt 0.0 1.0
vt 0.0 0.0
vt 1.0 0.0
vt 1.0 1.0
vt 0.0 1.0
vt 0.0 0.0
vt 1.0 0.0
vt 0.0 1.0
vt 1.0 0.0
vt 1.0 1.0
vt 0.0 1.0
vt 0.0 0.0
vt 1.0 0.0
vt 1.0 1.0

g RC_Jet_L4_arrow
s 1
usemtl RC_Jet_L4_arrow
f 1/1/1 2/2/2 3/3/3 
f 1/1/1 3/3/3 4/4/4 
f 5/5/5 6/6/6 7/7/7 
f 5/5/5 7/7/7 8/8/8 
f 9/9/9 10/10/10 11/11/11 
f 12/12/12 13/13/13 14/14/14 
f 12/12/12 14/14/14 15/15/15 
f 16/16/16 17/17/17 18/18/18 
f 16/16/16 18/18/18 19/19/19 
f 20/20/20 21/21/21 22/22/22 
f 23/23/23 24/24/24 25/25/25 
f 23/23/23 25/25/25 26/26/26 
f 27/27/27 28/28/28 29/29/29 
f 27/27/27 29/29/29 30/30/30 
f 31/31/31 32/32/32 33/33/33 
f 31/31/31 33/33/33 34/34/34 
f 35/35/35 36/36/36 37/37/37 
f 35/35/35 37/37/37 38/38/38 
f 39/39/39 40/40/40 41/41/41 
f 39/39/39 41/41/41 42/42/42 
f 43/43/43 44/44/44 45/45/45 
f 43/43/43 45/45/45 46/46/46 
f 47/47/47 48/48/48 49/49/49 
f 47/47/47 49/49/49 50/50/50 
f 51/51/51 52/52/52 53/53/53 
f 51/51/51 53/53/53 54/54/54 
f 55/55/55 56/56/56 57/57/57 
f 55/55/55 57/57/57 58/58/58 
f 59/59/59 60/60/60 61/61/61 
f 59/59/59 61/61/61 62/62/62 
f 63/63/63 64/64/64 65/65/65 
f 63/63/63 65/65/65 66/66/66 
f 67/67/67 68/68/68 69/69/69 
f 67/67/67 69/69/69 70/70/70 
f 71/71/71 72/72/72 73/73/73 
f 74/74/74 75/75/75 76/76/76 
f 74/74/74 76/76/76 77/77/77 
f 78/78/78 79/79/79 80/80/80 
f 78/78/78 80/80/80 81/81/81 
f 82/82/82 83/83/83 84/84/84 
f 85/85/85 86/86/86 87/87/87 
f 85/85/85 87/87/87 88/88/88 
f 89/89/89 90/90/90 91/91/91 
f 89/89/89 91/91/91 92/92/92 
f 93/93/93 94/94/94 95/95/95 
f 93/93/93 95/95/95 96/96/96 
f 97/97/97 98/98/98 99/99/99 
f 97/97/97 99/99/99 100/100/100 
f 101/101/101 102/102/102 103/103/103 
f 101/101/101 103/103/103 104/104/104 
f 105/105/105 106/106/106 107/107/107 
f 105/105/105 107/107/107 108/108/108 
f 109/109/109 110/110/110 111/111/111 
f 109/109/109 111/111/111 112/112/112 
f 113/113/113 114/114/114 115/115/115 
f 113/113/113 115/115/115 116/116/116 
f 117/117/117 118/118/118 119/119/119 
f 117/117/117 119/119/119 120/120/120 
f 121/121/121 122/122/122 123/123/123 
f 121/121/121 123/123/123 124/124/124 
f 125/125/125 126/126/126 127/127/127 
f 128/128/128 129/129/129 130/130/130 
f 131/131/131 132/132/132 133/133/133 
f 131/131/131 133/133/133 134/134/134 
f 135/135/135 136/136/136 137/137/137 
f 138/138/138 139/139/139 140/140/140 
f 141/141/141 142/142/142 143/143/143 
f 141/141/141 143/143/143 144/144/144 

