v 0.2470739632844925 0.9711957573890686 -2.5025885105133057
v 0.2887371778488159 0.9711957573890686 -2.5025885105133057
v 0.3351238965988159 0.9711957573890686 -2.555588960647583
v 0.3493066430091858 0.9711952805519104 -2.624265670776367
v 0.3493066430091858 0.9711952805519104 -2.624265670776367
v 0.3685113489627838 0.9711957573890686 -2.555588960647583
v 0.41043516993522644 0.9711957573890686 -2.502594470977783
v 0.4519769251346588 0.9711957573890686 -2.502310037612915
v 0.3351238965988159 0.9711957573890686 -2.555588960647583
v 0.3685113489627838 0.9711957573890686 -2.555588960647583
v 0.3493066430091858 0.9711952805519104 -2.624265670776367
v 0.24725525081157684 0.9641028642654419 -2.502232074737549
v 0.34930235147476196 0.9641016125679016 -2.623905658721924
v 0.3351238965988159 0.9641028642654419 -2.555234909057617
v 0.28891846537590027 0.9641028642654419 -2.502232074737549
v 0.34930235147476196 0.9641016125679016 -2.623905658721924
v 0.4517858922481537 0.9641028642654419 -2.5019476413726807
v 0.4102441370487213 0.9641028642654419 -2.5022308826446533
v 0.3685113489627838 0.9641028642654419 -2.555234909057617
v 0.3351238965988159 0.9641028642654419 -2.555234909057617
v 0.34930235147476196 0.9641016125679016 -2.623905658721924
v 0.3685113489627838 0.9641028642654419 -2.555234909057617
v 0.24725525081157684 0.9641028642654419 -2.502232074737549
v 0.2470739632844925 0.9711957573890686 -2.5025885105133057
v 0.3493066430091858 0.9711952805519104 -2.624265670776367
v 0.34930235147476196 0.9641016125679016 -2.623905658721924
v 0.3351238965988159 0.9641028642654419 -2.555234909057617
v 0.3351238965988159 0.9711957573890686 -2.555588960647583
v 0.2887371778488159 0.9711957573890686 -2.5025885105133057
v 0.28891846537590027 0.9641028642654419 -2.502232074737549
v 0.28891846537590027 0.9641028642654419 -2.502232074737549
v 0.2887371778488159 0.9711957573890686 -2.5025885105133057
v 0.2470739632844925 0.9711957573890686 -2.5025885105133057
v 0.24725525081157684 0.9641028642654419 -2.502232074737549
v 0.34930235147476196 0.9641016125679016 -2.623905658721924
v 0.3493066430091858 0.9711952805519104 -2.624265670776367
v 0.4519769251346588 0.9711957573890686 -2.502310037612915
v 0.4517858922481537 0.9641028642654419 -2.5019476413726807
v 0.4517858922481537 0.9641028642654419 -2.5019476413726807
v 0.4519769251346588 0.9711957573890686 -2.502310037612915
v 0.41043516993522644 0.9711957573890686 -2.502594470977783
v 0.4102441370487213 0.9641028642654419 -2.5022308826446533
v 0.4102441370487213 0.9641028642654419 -2.5022308826446533
v 0.41043516993522644 0.9711957573890686 -2.502594470977783
v 0.3685113489627838 0.9711957573890686 -2.555588960647583
v 0.3685113489627838 0.9641028642654419 -2.555234909057617
v 0.3685113489627838 0.9641020894050598 -1.4650323390960693
v 0.3351238965988159 0.9641020894050598 -1.4978716373443604
v 0.3351238965988159 0.9641028642654419 -2.555234909057617
v 0.3685113489627838 0.9641028642654419 -2.555234909057617
v 0.3351238965988159 0.9641020894050598 -1.4978716373443604
v 0.3351238965988159 0.9711952805519104 -1.4978716373443604
v 0.3351238965988159 0.9711957573890686 -2.555588960647583
v 0.3351238965988159 0.9641028642654419 -2.555234909057617
v 0.3351238965988159 0.9711952805519104 -1.4978716373443604
v 0.3685113489627838 0.9711952805519104 -1.4643828868865967
v 0.3685113489627838 0.9711957573890686 -2.555588960647583
v 0.3351238965988159 0.9711957573890686 -2.555588960647583
v 0.3685113489627838 0.9711952805519104 -1.4643828868865967
v 0.3685113489627838 0.9641020894050598 -1.4650323390960693
v 0.3685113489627838 0.9641028642654419 -2.555234909057617
v 0.3685113489627838 0.9711957573890686 -2.555588960647583
v -0.45197629928588867 0.9711957573890686 -2.5025885105133057
v -0.41031309962272644 0.9711957573890686 -2.5025885105133057
v -0.36392638087272644 0.9711957573890686 -2.555588960647583
v -0.34974363446235657 0.9711952805519104 -2.624265670776367
v -0.34974363446235657 0.9711952805519104 -2.624265670776367
v -0.33053892850875854 0.9711957573890686 -2.555588960647583
v -0.2886151075363159 0.9711957573890686 -2.502594470977783
v -0.24707335233688354 0.9711957573890686 -2.502310037612915
v -0.36392638087272644 0.9711957573890686 -2.555588960647583
v -0.33053892850875854 0.9711957573890686 -2.555588960647583
v -0.34974363446235657 0.9711952805519104 -2.624265670776367
v -0.4517950415611267 0.9641028642654419 -2.502232074737549
v -0.3497479259967804 0.9641016125679016 -2.623905658721924
v -0.36392638087272644 0.9641028642654419 -2.555234909057617
v -0.4101318120956421 0.9641028642654419 -2.502232074737549
v -0.3497479259967804 0.9641016125679016 -2.623905658721924
v -0.24726440012454987 0.9641028642654419 -2.5019476413726807
v -0.28880614042282104 0.9641028642654419 -2.5022308826446533
v -0.33053892850875854 0.9641028642654419 -2.555234909057617
v -0.36392638087272644 0.9641028642654419 -2.555234909057617
v -0.3497479259967804 0.9641016125679016 -2.623905658721924
v -0.33053892850875854 0.9641028642654419 -2.555234909057617
v -0.4517950415611267 0.9641028642654419 -2.502232074737549
v -0.45197629928588867 0.9711957573890686 -2.5025885105133057
v -0.34974363446235657 0.9711952805519104 -2.624265670776367
v -0.3497479259967804 0.9641016125679016 -2.623905658721924
v -0.36392638087272644 0.9641028642654419 -2.555234909057617
v -0.36392638087272644 0.9711957573890686 -2.555588960647583
v -0.41031309962272644 0.9711957573890686 -2.5025885105133057
v -0.4101318120956421 0.9641028642654419 -2.502232074737549
v -0.4101318120956421 0.9641028642654419 -2.502232074737549
v -0.41031309962272644 0.9711957573890686 -2.5025885105133057
v -0.45197629928588867 0.9711957573890686 -2.5025885105133057
v -0.4517950415611267 0.9641028642654419 -2.502232074737549
v -0.3497479259967804 0.9641016125679016 -2.623905658721924
v -0.34974363446235657 0.9711952805519104 -2.624265670776367
v -0.24707335233688354 0.9711957573890686 -2.502310037612915
v -0.24726440012454987 0.9641028642654419 -2.5019476413726807
v -0.24726440012454987 0.9641028642654419 -2.5019476413726807
v -0.24707335233688354 0.9711957573890686 -2.502310037612915
v -0.2886151075363159 0.9711957573890686 -2.502594470977783
v -0.28880614042282104 0.9641028642654419 -2.5022308826446533
v -0.28880614042282104 0.9641028642654419 -2.5022308826446533
v -0.2886151075363159 0.9711957573890686 -2.502594470977783
v -0.33053892850875854 0.9711957573890686 -2.555588960647583
v -0.33053892850875854 0.9641028642654419 -2.555234909057617
v -0.33053892850875854 0.9641020894050598 -1.498521089553833
v -0.36392638087272644 0.9641020894050598 -1.4650323390960693
v -0.36392638087272644 0.9641028642654419 -2.555234909057617
v -0.33053892850875854 0.9641028642654419 -2.555234909057617
v -0.36392638087272644 0.9641020894050598 -1.4650323390960693
v -0.36392638087272644 0.9711952805519104 -1.4643828868865967
v -0.36392638087272644 0.9711957573890686 -2.555588960647583
v -0.36392638087272644 0.9641028642654419 -2.555234909057617
v -0.36392638087272644 0.9711952805519104 -1.4643828868865967
v -0.33053892850875854 0.9711952805519104 -1.4978716373443604
v -0.33053892850875854 0.9711957573890686 -2.555588960647583
v -0.36392638087272644 0.9711957573890686 -2.555588960647583
v -0.33053892850875854 0.9711952805519104 -1.4978716373443604
v -0.33053892850875854 0.9641020894050598 -1.498521089553833
v -0.33053892850875854 0.9641028642654419 -2.555234909057617
v -0.33053892850875854 0.9711957573890686 -2.555588960647583
v -0.33053892850875854 0.9641020894050598 -1.498521089553833
v 0.3351238965988159 0.9641020894050598 -1.498521089553833
v 0.3685113489627838 0.9641020894050598 -1.4650323390960693
v -0.33053892850875854 0.9641020894050598 -1.498521089553833
v 0.3685113489627838 0.9641020894050598 -1.4650323390960693
v -0.36392638087272644 0.9641020894050598 -1.4650323390960693
v -0.36392638087272644 0.9641020894050598 -1.4650323390960693
v 0.3685113489627838 0.9641020894050598 -1.4650323390960693
v 0.3685113489627838 0.9711952805519104 -1.4643828868865967
v -0.36392638087272644 0.9711952805519104 -1.4643828868865967
v -0.36392638087272644 0.9711952805519104 -1.4643828868865967
v 0.3685113489627838 0.9711952805519104 -1.4643828868865967
v 0.3351238965988159 0.9711952805519104 -1.4978716373443604
v -0.36392638087272644 0.9711952805519104 -1.4643828868865967
v 0.3351238965988159 0.9711952805519104 -1.4978716373443604
v -0.33053892850875854 0.9711952805519104 -1.4978716373443604
v -0.33053892850875854 0.9711952805519104 -1.4978716373443604
v 0.3351238965988159 0.9711952805519104 -1.4978716373443604
v 0.3351238965988159 0.9641020894050598 -1.498521089553833
v -0.33053892850875854 0.9641020894050598 -1.498521089553833
vn -3.23339986607607e-06 1.0 -4.8805586629896425e-06
vn -3.23339986607607e-06 1.0 -4.8805586629896425e-06
vn -3.23339986607607e-06 1.0 -4.8805586629896425e-06
vn -3.23339986607607e-06 1.0 -4.8805586629896425e-06
vn 3.535421910783043e-06 1.0 -3.981419922638452e-06
vn 3.535421910783043e-06 1.0 -3.981419922638452e-06
vn 3.535421910783043e-06 1.0 -3.981419922638452e-06
vn 3.535421910783043e-06 1.0 -3.981419922638452e-06
vn 0.0 1.0 -5.323743607732467e-06
vn 0.0 1.0 -5.323743607732467e-06
vn 0.0 1.0 -5.323743607732467e-06
vn 8.637407518108375e-06 -1.0 1.466648518544389e-05
vn 8.637407518108375e-06 -1.0 1.466648518544389e-05
vn 8.637407518108375e-06 -1.0 1.466648518544389e-05
vn 8.637407518108375e-06 -1.0 1.466648518544389e-05
vn -9.447802767681424e-06 -1.0 1.595692265254911e-05
vn -9.447802767681424e-06 -1.0 1.595692265254911e-05
vn -9.447802767681424e-06 -1.0 1.595692265254911e-05
vn -9.447802767681424e-06 -1.0 1.595692265254911e-05
vn 0.0 -1.0 1.8634764273883775e-05
vn 0.0 -1.0 1.8634764273883775e-05
vn 0.0 -1.0 1.8634764273883775e-05
vn -0.7652368545532227 -0.04199449345469475 -0.6423776745796204
vn -0.7652368545532227 -0.04199449345469475 -0.6423776745796204
vn -0.7652368545532227 -0.04199449345469475 -0.6423776745796204
vn -0.7652368545532227 -0.04199449345469475 -0.6423776745796204
vn 0.7524619698524475 0.04253445938229561 0.6572607755661011
vn 0.7524619698524475 0.04253445938229561 0.6572607755661011
vn 0.7524619698524475 0.04253445938229561 0.6572607755661011
vn 0.7524619698524475 0.04253445938229561 0.6572607755661011
vn 0.0 0.05019014701247215 0.9987396597862244
vn 0.0 0.05019014701247215 0.9987396597862244
vn 0.0 0.05019014701247215 0.9987396597862244
vn 0.0 0.05019014701247215 0.9987396597862244
vn 0.7645726203918457 -0.04328509047627449 -0.6430824995040894
vn 0.7645726203918457 -0.04328509047627449 -0.6430824995040894
vn 0.7645726203918457 -0.04328509047627449 -0.6430824995040894
vn 0.7645726203918457 -0.04328509047627449 -0.6430824995040894
vn -0.00682141724973917 0.051315583288669586 0.9986592531204224
vn -0.00682141724973917 0.051315583288669586 0.9986592531204224
vn -0.00682141724973917 0.051315583288669586 0.9986592531204224
vn -0.00682141724973917 0.051315583288669586 0.9986592531204224
vn -0.7842901945114136 0.04187869280576706 0.6189790964126587
vn -0.7842901945114136 0.04187869280576706 0.6189790964126587
vn -0.7842901945114136 0.04187869280576706 0.6189790964126587
vn -0.7842901945114136 0.04187869280576706 0.6189790964126587
vn 3.494257043712423e-07 -1.0 -6.809891601733398e-07
vn 3.494257043712423e-07 -1.0 -6.809891601733398e-07
vn 3.494257043712423e-07 -1.0 -6.809891601733398e-07
vn 3.494257043712423e-07 -1.0 -6.809891601733398e-07
vn -1.0 0.0 0.0
vn -1.0 0.0 0.0
vn -1.0 0.0 0.0
vn -1.0 0.0 0.0
vn -2.136663397322991e-07 1.0 4.25349242050288e-07
vn -2.136663397322991e-07 1.0 4.25349242050288e-07
vn -2.136663397322991e-07 1.0 4.25349242050288e-07
vn -2.136663397322991e-07 1.0 4.25349242050288e-07
vn 1.0 -1.886042923615605e-06 0.0
vn 1.0 -1.886042923615605e-06 0.0
vn 1.0 -1.886042923615605e-06 0.0
vn 1.0 -1.886042923615605e-06 0.0
vn -3.23339986607607e-06 1.0 -4.8805586629896425e-06
vn -3.23339986607607e-06 1.0 -4.8805586629896425e-06
vn -3.23339986607607e-06 1.0 -4.8805586629896425e-06
vn -3.23339986607607e-06 1.0 -4.8805586629896425e-06
vn 3.5354235023987712e-06 1.0 -3.981421741627855e-06
vn 3.5354235023987712e-06 1.0 -3.981421741627855e-06
vn 3.5354235023987712e-06 1.0 -3.981421741627855e-06
vn 3.5354235023987712e-06 1.0 -3.981421741627855e-06
vn 0.0 1.0 -5.323736331774853e-06
vn 0.0 1.0 -5.323736331774853e-06
vn 0.0 1.0 -5.323736331774853e-06
vn 8.637407518108375e-06 -1.0 1.466648518544389e-05
vn 8.637407518108375e-06 -1.0 1.466648518544389e-05
vn 8.637407518108375e-06 -1.0 1.466648518544389e-05
vn 8.637407518108375e-06 -1.0 1.466648518544389e-05
vn -9.44781095313374e-06 -1.0 1.595693720446434e-05
vn -9.44781095313374e-06 -1.0 1.595693720446434e-05
vn -9.44781095313374e-06 -1.0 1.595693720446434e-05
vn -9.44781095313374e-06 -1.0 1.595693720446434e-05
vn 0.0 -1.0 1.8634764273883775e-05
vn 0.0 -1.0 1.8634764273883775e-05
vn 0.0 -1.0 1.8634764273883775e-05
vn -0.7652368545532227 -0.04199468344449997 -0.6423776745796204
vn -0.7652368545532227 -0.04199468344449997 -0.6423776745796204
vn -0.7652368545532227 -0.04199468344449997 -0.6423776745796204
vn -0.7652368545532227 -0.04199468344449997 -0.6423776745796204
vn 0.7524621486663818 0.04253244772553444 0.6572608947753906
vn 0.7524621486663818 0.04253244772553444 0.6572608947753906
vn 0.7524621486663818 0.04253244772553444 0.6572608947753906
vn 0.7524621486663818 0.04253244772553444 0.6572608947753906
vn 0.0 0.050190120935440063 0.9987396597862244
vn 0.0 0.050190120935440063 0.9987396597862244
vn 0.0 0.050190120935440063 0.9987396597862244
vn 0.0 0.050190120935440063 0.9987396597862244
vn 0.7645726203918457 -0.04328490421175957 -0.6430824995040894
vn 0.7645726203918457 -0.04328490421175957 -0.6430824995040894
vn 0.7645726203918457 -0.04328490421175957 -0.6430824995040894
vn 0.7645726203918457 -0.04328490421175957 -0.6430824995040894
vn -0.00682141724973917 0.051315657794475555 0.9986592531204224
vn -0.00682141724973917 0.051315657794475555 0.9986592531204224
vn -0.00682141724973917 0.051315657794475555 0.9986592531204224
vn -0.00682141724973917 0.051315657794475555 0.9986592531204224
vn -0.7842901349067688 0.041879989206790924 0.6189790368080139
vn -0.7842901349067688 0.041879989206790924 0.6189790368080139
vn -0.7842901349067688 0.041879989206790924 0.6189790368080139
vn -0.7842901349067688 0.041879989206790924 0.6189790368080139
vn -3.564435928637977e-07 -1.0 -6.811952175667102e-07
vn -3.564435928637977e-07 -1.0 -6.811952175667102e-07
vn -3.564435928637977e-07 -1.0 -6.811952175667102e-07
vn -3.564435928637977e-07 -1.0 -6.811952175667102e-07
vn -1.0 1.396041625412181e-06 0.0
vn -1.0 1.396041625412181e-06 0.0
vn -1.0 1.396041625412181e-06 0.0
vn -1.0 1.396041625412181e-06 0.0
vn 2.1366646762999153e-07 1.0 4.2534946942396346e-07
vn 2.1366646762999153e-07 1.0 4.2534946942396346e-07
vn 2.1366646762999153e-07 1.0 4.2534946942396346e-07
vn 2.1366646762999153e-07 1.0 4.2534946942396346e-07
vn 1.0 -1.093709897759254e-06 0.0
vn 1.0 -1.093709897759254e-06 0.0
vn 1.0 -1.093709897759254e-06 0.0
vn 1.0 -1.093709897759254e-06 0.0
vn 0.0 -1.0 0.0
vn 0.0 -1.0 0.0
vn 0.0 -1.0 0.0
vn 0.0 -1.0 0.0
vn 0.0 -1.0 0.0
vn 0.0 -1.0 0.0
vn 0.0 -0.09117338806390762 0.9958349466323853
vn 0.0 -0.09117338806390762 0.9958349466323853
vn 0.0 -0.09117338806390762 0.9958349466323853
vn 0.0 -0.09117338806390762 0.9958349466323853
vn 0.0 1.0 0.0
vn 0.0 1.0 0.0
vn 0.0 1.0 0.0
vn 0.0 1.0 0.0
vn 0.0 1.0 0.0
vn 0.0 1.0 0.0
vn 0.0 0.09117313474416733 -0.9958350658416748
vn 0.0 0.09117313474416733 -0.9958350658416748
vn 0.0 0.09117313474416733 -0.9958350658416748
vn 0.0 0.09117313474416733 -0.9958350658416748
vt 2.9721031188964844 -0.5830647945404053
vt 2.9643185138702393 0.21803927421569824
vt 2.2066476345062256 1.010679930448532
vt 1.4654368162155151 1.0064588785171509
vt 2.9721031188964844 -0.5830647945404053
vt 2.9643185138702393 0.21803927421569824
vt 2.2066476345062256 1.010679930448532
vt 1.4654368162155151 1.0064588785171509
vt 0.008834617212414742 0.9999999999995172
vt 0.0 0.1365024447441101
vt 0.9970316886901855 0.5682112872600555
vt 2.9721031188964844 -0.5830647945404053
vt 1.4654368162155151 1.0064588785171509
vt 2.2066476345062256 1.010679930448532
vt 2.9643185138702393 0.21803927421569824
vt 2.9721031188964844 -0.5830647945404053
vt 1.4654368162155151 1.0064588785171509
vt 2.2066476345062256 1.010679930448532
vt 2.9643185138702393 0.21803927421569824
vt 0.008834617212414742 0.9999999999995172
vt 0.9970316886901855 0.5682112872600555
vt 0.0 0.1365024447441101
vt 2.9721031188964844 -0.5830647945404053
vt 2.9721031188964844 -0.5830647945404053
vt 1.4654368162155151 1.0064588785171509
vt 1.4654368162155151 1.0064588785171509
vt 2.2066476345062256 1.010679930448532
vt 2.2066476345062256 1.010679930448532
vt 2.9643185138702393 0.21803927421569824
vt 2.9643185138702393 0.21803927421569824
vt 2.9643185138702393 0.21803927421569824
vt 2.9643185138702393 0.21803927421569824
vt 2.9721031188964844 -0.5830647945404053
vt 2.9721031188964844 -0.5830647945404053
vt 2.9721031188964844 -0.5830647945404053
vt 2.9721031188964844 -0.5830647945404053
vt 1.4654368162155151 1.0064588785171509
vt 1.4654368162155151 1.0064588785171509
vt 1.4654368162155151 1.0064588785171509
vt 1.4654368162155151 1.0064588785171509
vt 2.2066476345062256 1.010679930448532
vt 2.2066476345062256 1.010679930448532
vt 2.2066476345062256 1.010679930448532
vt 2.2066476345062256 1.010679930448532
vt 2.9643185138702393 0.21803927421569824
vt 2.9643185138702393 0.21803927421569824
vt 0.5400000214576721 0.0
vt 0.5400000214576721 0.25
vt 0.5200000405311584 0.25
vt 0.5200000405311584 0.0
vt 0.5400000214576721 0.25
vt 0.5400000214576721 0.5
vt 0.5200000405311584 0.5
vt 0.5200000405311584 0.25
vt 0.5400000214576721 0.5
vt 0.5400000214576721 0.75
vt 0.5200000405311584 0.75
vt 0.5200000405311584 0.5
vt 0.5400000214576721 0.75
vt 0.5400000214576721 1.0
vt 0.5200000405311584 1.0
vt 0.5200000405311584 0.75
vt 2.9721031188964844 -0.5830647945404053
vt 2.9643185138702393 0.21803927421569824
vt 2.2066476345062256 1.010679930448532
vt 1.4654368162155151 1.0064588785171509
vt 2.9721031188964844 -0.5830647945404053
vt 2.9643185138702393 0.21803927421569824
vt 2.2066476345062256 1.010679930448532
vt 1.4654368162155151 1.0064588785171509
vt 0.008834617212414742 0.9999999999995172
vt 0.0 0.1365024447441101
vt 0.9970316886901855 0.5682112872600555
vt 2.9721031188964844 -0.5830647945404053
vt 1.4654368162155151 1.0064588785171509
vt 2.2066476345062256 1.010679930448532
vt 2.9643185138702393 0.21803927421569824
vt 2.9721031188964844 -0.5830647945404053
vt 1.4654368162155151 1.0064588785171509
vt 2.2066476345062256 1.010679930448532
vt 2.9643185138702393 0.21803927421569824
vt 0.008834617212414742 0.9999999999995172
vt 0.9970316886901855 0.5682112872600555
vt 0.0 0.1365024447441101
vt 2.9721031188964844 -0.5830647945404053
vt 2.9721031188964844 -0.5830647945404053
vt 1.4654368162155151 1.0064588785171509
vt 1.4654368162155151 1.0064588785171509
vt 2.2066476345062256 1.010679930448532
vt 2.2066476345062256 1.010679930448532
vt 2.9643185138702393 0.21803927421569824
vt 2.9643185138702393 0.21803927421569824
vt 2.9643185138702393 0.21803927421569824
vt 2.9643185138702393 0.21803927421569824
vt 2.9721031188964844 -0.5830647945404053
vt 2.9721031188964844 -0.5830647945404053
vt 2.9721031188964844 -0.5830647945404053
vt 2.9721031188964844 -0.5830647945404053
vt 1.4654368162155151 1.0064588785171509
vt 1.4654368162155151 1.0064588785171509
vt 1.4654368162155151 1.0064588785171509
vt 1.4654368162155151 1.0064588785171509
vt 2.2066476345062256 1.010679930448532
vt 2.2066476345062256 1.010679930448532
vt 2.2066476345062256 1.010679930448532
vt 2.2066476345062256 1.010679930448532
vt 2.9643185138702393 0.21803927421569824
vt 2.9643185138702393 0.21803927421569824
vt 0.5400000214576721 0.0
vt 0.5400000214576721 0.25
vt 0.5200000405311584 0.25
vt 0.5200000405311584 0.0
vt 0.5400000214576721 0.25
vt 0.5400000214576721 0.5
vt 0.5200000405311584 0.5
vt 0.5200000405311584 0.25
vt 0.5400000214576721 0.5
vt 0.5400000214576721 0.75
vt 0.5200000405311584 0.75
vt 0.5200000405311584 0.5
vt 0.5400000214576721 0.75
vt 0.5400000214576721 1.0
vt 0.5200000405311584 1.0
vt 0.5200000405311584 0.75
vt 0.0 1.0
vt 0.0 0.0
vt 1.0 0.0
vt 0.0 1.0
vt 1.0 0.0
vt 1.0 1.0
vt 0.0 1.0
vt 0.0 0.0
vt 1.0 0.0
vt 1.0 1.0
vt 0.0 1.0
vt 0.0 0.0
vt 1.0 0.0
vt 0.0 1.0
vt 1.0 0.0
vt 1.0 1.0
vt 0.0 1.0
vt 0.0 0.0
vt 1.0 0.0
vt 1.0 1.0

g RC_Jet_L3_arrow
s 1
usemtl RC_Jet_L3_arrow
f 1/1/1 2/2/2 3/3/3 
f 1/1/1 3/3/3 4/4/4 
f 5/5/5 6/6/6 7/7/7 
f 5/5/5 7/7/7 8/8/8 
f 9/9/9 10/10/10 11/11/11 
f 12/12/12 13/13/13 14/14/14 
f 12/12/12 14/14/14 15/15/15 
f 16/16/16 17/17/17 18/18/18 
f 16/16/16 18/18/18 19/19/19 
f 20/20/20 21/21/21 22/22/22 
f 23/23/23 24/24/24 25/25/25 
f 23/23/23 25/25/25 26/26/26 
f 27/27/27 28/28/28 29/29/29 
f 27/27/27 29/29/29 30/30/30 
f 31/31/31 32/32/32 33/33/33 
f 31/31/31 33/33/33 34/34/34 
f 35/35/35 36/36/36 37/37/37 
f 35/35/35 37/37/37 38/38/38 
f 39/39/39 40/40/40 41/41/41 
f 39/39/39 41/41/41 42/42/42 
f 43/43/43 44/44/44 45/45/45 
f 43/43/43 45/45/45 46/46/46 
f 47/47/47 48/48/48 49/49/49 
f 47/47/47 49/49/49 50/50/50 
f 51/51/51 52/52/52 53/53/53 
f 51/51/51 53/53/53 54/54/54 
f 55/55/55 56/56/56 57/57/57 
f 55/55/55 57/57/57 58/58/58 
f 59/59/59 60/60/60 61/61/61 
f 59/59/59 61/61/61 62/62/62 
f 63/63/63 64/64/64 65/65/65 
f 63/63/63 65/65/65 66/66/66 
f 67/67/67 68/68/68 69/69/69 
f 67/67/67 69/69/69 70/70/70 
f 71/71/71 72/72/72 73/73/73 
f 74/74/74 75/75/75 76/76/76 
f 74/74/74 76/76/76 77/77/77 
f 78/78/78 79/79/79 80/80/80 
f 78/78/78 80/80/80 81/81/81 
f 82/82/82 83/83/83 84/84/84 
f 85/85/85 86/86/86 87/87/87 
f 85/85/85 87/87/87 88/88/88 
f 89/89/89 90/90/90 91/91/91 
f 89/89/89 91/91/91 92/92/92 
f 93/93/93 94/94/94 95/95/95 
f 93/93/93 95/95/95 96/96/96 
f 97/97/97 98/98/98 99/99/99 
f 97/97/97 99/99/99 100/100/100 
f 101/101/101 102/102/102 103/103/103 
f 101/101/101 103/103/103 104/104/104 
f 105/105/105 106/106/106 107/107/107 
f 105/105/105 107/107/107 108/108/108 
f 109/109/109 110/110/110 111/111/111 
f 109/109/109 111/111/111 112/112/112 
f 113/113/113 114/114/114 115/115/115 
f 113/113/113 115/115/115 116/116/116 
f 117/117/117 118/118/118 119/119/119 
f 117/117/117 119/119/119 120/120/120 
f 121/121/121 122/122/122 123/123/123 
f 121/121/121 123/123/123 124/124/124 
f 125/125/125 126/126/126 127/127/127 
f 128/128/128 129/129/129 130/130/130 
f 131/131/131 132/132/132 133/133/133 
f 131/131/131 133/133/133 134/134/134 
f 135/135/135 136/136/136 137/137/137 
f 138/138/138 139/139/139 140/140/140 
f 141/141/141 142/142/142 143/143/143 
f 141/141/141 143/143/143 144/144/144 

