v 0.11336669325828552 0.9372847676277161 -0.8256489634513855
v 0.0005908202729187906 0.6650192737579346 -0.8256490230560303
v -0.11218627542257309 0.9372851252555847 -0.8256490230560303
v 0.2728540003299713 0.7777950763702393 -0.8256490230560303
v 0.2728564441204071 0.5522433519363403 -0.8256490230560303
v 0.11336669325828552 0.39275404810905457 -0.8256490230560303
v -0.1121850535273552 0.39275413751602173 -0.825649082660675
v -0.2716748118400574 0.5522436499595642 -0.8256490230560303
v -0.2716723680496216 0.7777950167655945 -0.8256490230560303
v -0.20343749225139618 1.1575900316238403 0.5113757252693176
v -0.4919799566268921 0.8690494894981384 0.5113757848739624
v -0.2888781726360321 0.7849217057228088 0.8277356028556824
v -0.11931151896715164 0.9544891119003296 0.8277356028556824
v -0.11931151896715164 0.9544891119003296 0.8277356028556824
v 0.12049315869808197 0.9544885158538818 0.8277356028556824
v 0.2046191394329071 1.1575896739959717 0.5113757252693176
v -0.20343749225139618 1.1575900316238403 0.5113757252693176
v 0.12049315869808197 0.9544885158538818 0.8277356028556824
v 0.29005858302116394 0.7849217057228088 0.8277356028556824
v 0.4931591749191284 0.8690493702888489 0.5113757252693176
v 0.2046191394329071 1.1575896739959717 0.5113757252693176
v 0.29005858302116394 0.7849217057228088 0.8277356028556824
v 0.29005613923072815 0.5451182723045349 0.8277356028556824
v 0.4931616187095642 0.46098995208740234 0.5113757252693176
v 0.4931591749191284 0.8690493702888489 0.5113757252693176
v 0.29005613923072815 0.5451182723045349 0.8277356028556824
v 0.12049072235822678 0.3755502998828888 0.8277356028556824
v 0.2046191394329071 0.17244906723499298 0.5113757848739624
v 0.4931616187095642 0.46098995208740234 0.5113757252693176
v 0.12049072235822678 0.3755502998828888 0.8277356028556824
v -0.11931274086236954 0.37555089592933655 0.8277356028556824
v -0.20343993604183197 0.17244979739189148 0.5113757848739624
v 0.2046191394329071 0.17244906723499298 0.5113757848739624
v -0.11931274086236954 0.37555089592933655 0.8277356028556824
v -0.2888781726360321 0.5451177358627319 0.8277356028556824
v -0.4919799566268921 0.46099066734313965 0.5113757252693176
v -0.20343993604183197 0.17244979739189148 0.5113757848739624
v -0.2888781726360321 0.5451177358627319 0.8277356028556824
v -0.2888781726360321 0.7849217057228088 0.8277356028556824
v -0.4919799566268921 0.8690494894981384 0.5113757848739624
v -0.4919799566268921 0.46099066734313965 0.5113757252693176
v -0.11218627542257309 0.9372851252555847 -0.8256490230560303
v -0.20343749225139618 1.1575900316238403 0.5113757252693176
v 0.2046191394329071 1.1575896739959717 0.5113757252693176
v 0.11336669325828552 0.9372847676277161 -0.8256489634513855
v 0.11336669325828552 0.9372847676277161 -0.8256489634513855
v 0.2046191394329071 1.1575896739959717 0.5113757252693176
v 0.4931591749191284 0.8690493702888489 0.5113757252693176
v 0.2728540003299713 0.7777950763702393 -0.8256490230560303
v 0.2728540003299713 0.7777950763702393 -0.8256490230560303
v 0.4931591749191284 0.8690493702888489 0.5113757252693176
v 0.4931616187095642 0.46098995208740234 0.5113757252693176
v 0.2728564441204071 0.5522433519363403 -0.8256490230560303
v 0.2728564441204071 0.5522433519363403 -0.8256490230560303
v 0.4931616187095642 0.46098995208740234 0.5113757252693176
v 0.2046191394329071 0.17244906723499298 0.5113757848739624
v 0.11336669325828552 0.39275404810905457 -0.8256490230560303
v 0.11336669325828552 0.39275404810905457 -0.8256490230560303
v 0.2046191394329071 0.17244906723499298 0.5113757848739624
v -0.20343993604183197 0.17244979739189148 0.5113757848739624
v -0.1121850535273552 0.39275413751602173 -0.825649082660675
v -0.1121850535273552 0.39275413751602173 -0.825649082660675
v -0.20343993604183197 0.17244979739189148 0.5113757848739624
v -0.4919799566268921 0.46099066734313965 0.5113757252693176
v -0.2716748118400574 0.5522436499595642 -0.8256490230560303
v -0.2716748118400574 0.5522436499595642 -0.8256490230560303
v -0.4919799566268921 0.46099066734313965 0.5113757252693176
v -0.4919799566268921 0.8690494894981384 0.5113757848739624
v -0.2716723680496216 0.7777950167655945 -0.8256490230560303
v -0.2716723680496216 0.7777950167655945 -0.8256490230560303
v -0.4919799566268921 0.8690494894981384 0.5113757848739624
v -0.20343749225139618 1.1575900316238403 0.5113757252693176
v -0.11218627542257309 0.9372851252555847 -0.8256490230560303
v -0.11931151896715164 0.9544891119003296 0.8277356028556824
v 0.0005908202729187906 0.6650192737579346 0.8277356028556824
v 0.12049315869808197 0.9544885158538818 0.8277356028556824
v 0.29005858302116394 0.7849217057228088 0.8277356028556824
v 0.29005613923072815 0.5451182723045349 0.8277356028556824
v 0.12049072235822678 0.3755502998828888 0.8277356028556824
v -0.11931274086236954 0.37555089592933655 0.8277356028556824
v -0.2888781726360321 0.5451177358627319 0.8277356028556824
v -0.2888781726360321 0.7849217057228088 0.8277356028556824
vn 1.711463539777469e-07 2.3918124725241796e-07 -1.0
vn 1.7114557238073758e-07 1.1959087942159385e-07 -1.0
vn 3.4229032053190167e-07 0.0 -1.0
vn -1.7114579975441302e-07 1.6912711942040914e-07 -1.0
vn 0.0 0.0 -1.0
vn 3.4228906997668673e-07 0.0 -1.0
vn 3.422893257720716e-07 2.3918096303532366e-07 -1.0
vn 1.711447623620188e-07 1.691265225645111e-07 -1.0
vn 1.7114557238073758e-07 0.0 -1.0
vn -0.5950348377227783 0.595038115978241 0.5402436256408691
vn -0.5950348973274231 0.5950381755828857 0.5402435660362244
vn -0.5950348973274231 0.595038115978241 0.5402436256408691
vn -0.5950348973274231 0.595038115978241 0.5402436256408691
vn 1.3578519428847358e-06 0.8415089249610901 0.5402432680130005
vn 1.357851829197898e-06 0.8415088653564453 0.5402432680130005
vn 1.357851829197898e-06 0.8415089249610901 0.5402432680130005
vn 1.357851829197898e-06 0.8415088653564453 0.5402432680130005
vn 0.5950378179550171 0.5950366258621216 0.5402420163154602
vn 0.5950377583503723 0.5950365662574768 0.5402420163154602
vn 0.5950378179550171 0.5950366258621216 0.5402420163154602
vn 0.5950378179550171 0.5950366258621216 0.5402420163154602
vn 0.8415080904960632 0.0 0.5402445197105408
vn 0.8415080904960632 0.0 0.5402445793151855
vn 0.8415080904960632 0.0 0.5402445197105408
vn 0.8415080904960632 0.0 0.5402445197105408
vn 0.5950344204902649 -0.5950365662574768 0.5402458310127258
vn 0.5950344204902649 -0.5950364470481873 0.5402458310127258
vn 0.5950344800949097 -0.5950365662574768 0.540245771408081
vn 0.5950344800949097 -0.5950365662574768 0.5402458310127258
vn -1.6881035662663635e-06 -0.8415082693099976 0.5402442216873169
vn -1.6881035662663635e-06 -0.8415082693099976 0.5402442216873169
vn -1.6881035662663635e-06 -0.8415082693099976 0.5402442812919617
vn -1.6881035662663635e-06 -0.8415082693099976 0.5402442216873169
vn -0.595038652420044 -0.5950338840484619 0.5402441024780273
vn -0.5950387120246887 -0.5950338244438171 0.5402441024780273
vn -0.5950387120246887 -0.5950338244438171 0.5402441024780273
vn -0.5950387120246887 -0.5950338244438171 0.5402441024780273
vn -0.8415074944496155 -2.7616995339485584e-06 0.5402454137802124
vn -0.8415074944496155 -2.7616995339485584e-06 0.5402454733848572
vn -0.8415074944496155 -2.761698851827532e-06 0.5402453541755676
vn -0.8415074944496155 -2.761699306574883e-06 0.5402454137802124
vn 1.248599232894776e-06 0.986695408821106 -0.1625797152519226
vn 1.248599232894776e-06 0.986695408821106 -0.1625797152519226
vn 1.248599232894776e-06 0.986695408821106 -0.162579745054245
vn 1.248599232894776e-06 0.986695408821106 -0.162579745054245
vn 0.6976993680000305 0.6976985931396484 -0.16257955133914948
vn 0.6976993680000305 0.6976985931396484 -0.16257955133914948
vn 0.6976993680000305 0.6976985931396484 -0.16257955133914948
vn 0.6976993680000305 0.6976986527442932 -0.16257958114147186
vn 0.986695408821106 0.0 -0.16257990896701813
vn 0.986695408821106 0.0 -0.16257989406585693
vn 0.986695408821106 0.0 -0.16257989406585693
vn 0.986695408821106 0.0 -0.16257989406585693
vn 0.6976994872093201 -0.6976984143257141 -0.16258011758327484
vn 0.6976994872093201 -0.6976982951164246 -0.16258011758327484
vn 0.6976994276046753 -0.6976984143257141 -0.16258013248443604
vn 0.6976994872093201 -0.6976984143257141 -0.16258010268211365
vn -1.2118683798689744e-06 -0.9866956472396851 -0.16257882118225098
vn -1.2118682661821367e-06 -0.9866956472396851 -0.16257882118225098
vn -1.2118682661821367e-06 -0.9866956472396851 -0.16257882118225098
vn -1.2118682661821367e-06 -0.9866956472396851 -0.16257882118225098
vn -0.6976996660232544 -0.6976981163024902 -0.16258041560649872
vn -0.6976996660232544 -0.6976981163024902 -0.16258041560649872
vn -0.697699785232544 -0.6976981163024902 -0.16258041560649872
vn -0.6976996660232544 -0.6976982355117798 -0.16258041560649872
vn -0.9866951704025269 6.267497155931778e-06 -0.16258104145526886
vn -0.9866951704025269 6.267497155931778e-06 -0.16258104145526886
vn -0.9866951704025269 6.267497155931778e-06 -0.16258102655410767
vn -0.9866951704025269 6.2674962464370765e-06 -0.16258105635643005
vn -0.6977028846740723 0.697694718837738 -0.162581667304039
vn -0.6977028250694275 0.6976947784423828 -0.1625816524028778
vn -0.6977027654647827 0.697694718837738 -0.162581667304039
vn -0.6977027654647827 0.697694718837738 -0.162581667304039
vn 0.0 0.0 1.0
vn 0.0 0.0 1.0
vn 0.0 0.0 1.0
vn 0.0 0.0 1.0
vn 1.5140720677209174e-07 0.0 1.0
vn 1.5140629727738997e-07 0.0 1.0
vn -3.0281455565273063e-07 0.0 1.0
vn -3.028144419658929e-07 0.0 1.0
vn 0.0 0.0 1.0
vt 0.5 0.9999999850988388
vt 0.5 0.8499999940395355
vt 0.6104854345321655 0.9542354196310043
vt 0.3895145654678345 0.9542354196310043
vt 0.34375 0.84375
vt 0.3895145654678345 0.7332645654678345
vt 0.5 0.6875
vt 0.6104854345321655 0.7332645654678345
vt 0.65625 0.84375
vt 0.625 0.35679906606674194
vt 0.59375 0.35679924488067627
vt 0.5993167757987976 0.31238579750061035
vt 0.6194537878036499 0.31238579750061035
vt 0.38056668639183044 0.31238579750061035
vt 0.4007038176059723 0.31238579750061035
vt 0.40625014901161194 0.35679882764816284
vt 0.375 0.3567991852760315
vt 0.4118167459964752 0.31238579750061035
vt 0.4319538474082947 0.31238579750061035
vt 0.4375 0.3568000793457031
vt 0.40625014901161194 0.35679882764816284
vt 0.44306671619415283 0.31238579750061035
vt 0.4632037580013275 0.31238579750061035
vt 0.46875 0.35679900646209717
vt 0.4375 0.3568000793457031
vt 0.47431662678718567 0.31238579750061035
vt 0.4944537281990051 0.3123858571052551
vt 0.5 0.35679906606674194
vt 0.46875 0.35679900646209717
vt 0.5055665969848633 0.31238579750061035
vt 0.5257037878036499 0.3123858571052551
vt 0.53125 0.35679924488067627
vt 0.5 0.35679906606674194
vt 0.5368167161941528 0.31238579750061035
vt 0.5569536685943604 0.31238579750061035
vt 0.5624999403953552 0.35679906606674194
vt 0.53125 0.35679924488067627
vt 0.5680666565895081 0.31238579750061035
vt 0.5882037878036499 0.3123858571052551
vt 0.59375 0.35679924488067627
vt 0.5624999403953552 0.35679906606674194
vt 0.375 0.6875
vt 0.375 0.3567991852760315
vt 0.40625014901161194 0.35679882764816284
vt 0.40625 0.6875
vt 0.40625 0.6875
vt 0.40625014901161194 0.35679882764816284
vt 0.4375 0.3568000793457031
vt 0.4375 0.6875
vt 0.4375 0.6875
vt 0.4375 0.3568000793457031
vt 0.46875 0.35679900646209717
vt 0.46875 0.6875
vt 0.46875 0.6875
vt 0.46875 0.35679900646209717
vt 0.5 0.35679906606674194
vt 0.5 0.6875
vt 0.5 0.6875
vt 0.5 0.35679906606674194
vt 0.53125 0.35679924488067627
vt 0.53125 0.6875
vt 0.53125 0.6875
vt 0.53125 0.35679924488067627
vt 0.5624999403953552 0.35679906606674194
vt 0.5625 0.6875
vt 0.5625 0.6875
vt 0.5624999403953552 0.35679906606674194
vt 0.59375 0.35679924488067627
vt 0.59375 0.6875
vt 0.59375 0.6875
vt 0.59375 0.35679924488067627
vt 0.625 0.35679906606674194
vt 0.625 0.6875
vt 0.5711953639984131 0.08727723360061646
vt 0.5 0.1625000238418579
vt 0.4999997019767761 0.05778706073760986
vt 0.42880433797836304 0.08727723360061646
vt 0.3993143141269684 0.15847247838974
vt 0.4288043677806854 0.22966796159744263
vt 0.5 0.2591581344604492
vt 0.5711950659751892 0.2296680212020874
vt 0.6006850600242615 0.15847241878509521

g RC_Thruster_T3_Collider
s 1
usemtl RC_Thruster_T3_Collider
f 1/1/1 2/2/2 3/3/3 
f 4/4/4 2/2/2 1/1/1 
f 5/5/5 2/2/2 4/4/4 
f 6/6/6 2/2/2 5/5/5 
f 7/7/7 2/2/2 6/6/6 
f 8/8/8 2/2/2 7/7/7 
f 9/9/9 2/2/2 8/8/8 
f 3/3/3 2/2/2 9/9/9 
f 10/10/10 11/11/11 12/12/12 
f 10/10/10 12/12/12 13/13/13 
f 14/14/14 15/15/15 16/16/16 
f 14/14/14 16/16/16 17/17/17 
f 18/18/18 19/19/19 20/20/20 
f 18/18/18 20/20/20 21/21/21 
f 22/22/22 23/23/23 24/24/24 
f 22/22/22 24/24/24 25/25/25 
f 26/26/26 27/27/27 28/28/28 
f 26/26/26 28/28/28 29/29/29 
f 30/30/30 31/31/31 32/32/32 
f 30/30/30 32/32/32 33/33/33 
f 34/34/34 35/35/35 36/36/36 
f 34/34/34 36/36/36 37/37/37 
f 38/38/38 39/39/39 40/40/40 
f 38/38/38 40/40/40 41/41/41 
f 42/42/42 43/43/43 44/44/44 
f 42/42/42 44/44/44 45/45/45 
f 46/46/46 47/47/47 48/48/48 
f 46/46/46 48/48/48 49/49/49 
f 50/50/50 51/51/51 52/52/52 
f 50/50/50 52/52/52 53/53/53 
f 54/54/54 55/55/55 56/56/56 
f 54/54/54 56/56/56 57/57/57 
f 58/58/58 59/59/59 60/60/60 
f 58/58/58 60/60/60 61/61/61 
f 62/62/62 63/63/63 64/64/64 
f 62/62/62 64/64/64 65/65/65 
f 66/66/66 67/67/67 68/68/68 
f 66/66/66 68/68/68 69/69/69 
f 70/70/70 71/71/71 72/72/72 
f 70/70/70 72/72/72 73/73/73 
f 74/74/74 75/75/75 76/76/76 
f 76/76/76 75/75/75 77/77/77 
f 77/77/77 75/75/75 78/78/78 
f 78/78/78 75/75/75 79/79/79 
f 79/79/79 75/75/75 80/80/80 
f 80/80/80 75/75/75 81/81/81 
f 81/81/81 75/75/75 82/82/82 
f 82/82/82 75/75/75 74/74/74 

