v 0.23826049268245697 1.9380183219909668 -2.1774768829345703
v 0.0 1.3626599311828613 -2.177476644515991
v -0.23833739757537842 1.9380183219909668 -2.1774768829345703
v 0.5754040479660034 1.600978970527649 -2.1774768829345703
v 0.5754040479660034 1.1243383884429932 -2.177476644515991
v 0.23826049268245697 0.7872999906539917 -2.1774768829345703
v -0.2383447140455246 0.7872999906539917 -2.1774768829345703
v -0.5753576755523682 1.1243383884429932 -2.1774768829345703
v -0.5753576755523682 1.600978970527649 -2.177476644515991
v -0.750964343547821 2.6667983531951904 1.4512653350830078
v -1.2170813083648682 2.2051444053649902 1.451265573501587
v -1.0032873153686523 1.7782409191131592 2.4223861694335938
v -0.41557249426841736 2.3659605979919434 2.4223861694335938
v -0.41557249426841736 2.3659605979919434 2.4223861694335938
v 0.4155822694301605 2.3659579753875732 2.4223861694335938
v 0.7509570121765137 2.6667983531951904 1.451265573501587
v -0.750964343547821 2.6667983531951904 1.4512653350830078
v 0.4155822694301605 2.3659579753875732 2.4223861694335938
v 1.0032958984375 1.7782409191131592 2.4223861694335938
v 1.217073917388916 2.2051429748535156 1.4512653350830078
v 0.7509570121765137 2.6667983531951904 1.451265573501587
v 1.0032958984375 1.7782409191131592 2.4223861694335938
v 1.003292202949524 0.9470832347869873 2.4223861694335938
v 1.217073917388916 0.5201782584190369 1.4512653350830078
v 1.217073917388916 2.2051429748535156 1.4512653350830078
v 1.003292202949524 0.9470832347869873 2.4223861694335938
v 0.41557249426841736 0.3593617081642151 2.4223861694335938
v 0.8399267196655273 0.11598484963178635 1.4512653350830078
v 1.217073917388916 0.5201782584190369 1.4512653350830078
v 0.41557249426841736 0.3593617081642151 2.4223861694335938
v -0.4155859351158142 0.35936376452445984 2.4223861694335938
v -0.8399340510368347 0.11598680913448334 1.4512653350830078
v 0.8399267196655273 0.11598484963178635 1.4512653350830078
v -0.4155859351158142 0.35936376452445984 2.4223861694335938
v -1.0032958984375 0.947081446647644 2.4223861694335938
v -1.2170813083648682 0.5201816558837891 1.4512653350830078
v -0.8399340510368347 0.11598680913448334 1.4512653350830078
v -1.0032958984375 0.947081446647644 2.4223861694335938
v -1.0032873153686523 1.7782409191131592 2.4223861694335938
v -1.2170813083648682 2.2051444053649902 1.451265573501587
v -1.2170813083648682 0.5201816558837891 1.4512653350830078
v -0.23833739757537842 1.9380183219909668 -2.1774768829345703
v -0.49043944478034973 2.295353889465332 -1.100851058959961
v 0.4903918206691742 2.295353889465332 -1.100851058959961
v 0.23826049268245697 1.9380183219909668 -2.1774768829345703
v 0.23826049268245697 1.9380183219909668 -2.1774768829345703
v 0.4903918206691742 2.295353889465332 -1.100851058959961
v 0.9327294826507568 1.884521484375 -1.100851058959961
v 0.5754040479660034 1.600978970527649 -2.1774768829345703
v 0.5754040479660034 1.600978970527649 -2.1774768829345703
v 0.9327294826507568 1.884521484375 -1.100851058959961
v 0.9327294826507568 0.8407979607582092 -1.100851058959961
v 0.5754040479660034 1.1243383884429932 -2.177476644515991
v 0.5754040479660034 1.1243383884429932 -2.177476644515991
v 0.9327294826507568 0.8407979607582092 -1.100851058959961
v 0.4903918206691742 0.4299655854701996 -1.1008514165878296
v 0.23826049268245697 0.7872999906539917 -2.1774768829345703
v 0.23826049268245697 0.7872999906539917 -2.1774768829345703
v 0.4903918206691742 0.4299655854701996 -1.1008514165878296
v -0.49043944478034973 0.42996641993522644 -1.1008514165878296
v -0.2383447140455246 0.7872999906539917 -2.1774768829345703
v -0.2383447140455246 0.7872999906539917 -2.1774768829345703
v -0.49043944478034973 0.42996641993522644 -1.1008514165878296
v -0.932708740234375 0.8407993912696838 -1.1008514165878296
v -0.5753576755523682 1.1243383884429932 -2.1774768829345703
v -0.5753576755523682 1.1243383884429932 -2.1774768829345703
v -0.932708740234375 0.8407993912696838 -1.1008514165878296
v -0.932708740234375 1.884521722793579 -1.1008509397506714
v -0.5753576755523682 1.600978970527649 -2.177476644515991
v -0.5753576755523682 1.600978970527649 -2.177476644515991
v -0.932708740234375 1.884521722793579 -1.1008509397506714
v -0.49043944478034973 2.295353889465332 -1.100851058959961
v -0.23833739757537842 1.9380183219909668 -2.1774768829345703
v -0.41557249426841736 2.3659605979919434 2.4223861694335938
v 0.0 1.3626599311828613 2.4223861694335938
v 0.4155822694301605 2.3659579753875732 2.4223861694335938
v 1.0032958984375 1.7782409191131592 2.4223861694335938
v 1.003292202949524 0.9470832347869873 2.4223861694335938
v 0.41557249426841736 0.3593617081642151 2.4223861694335938
v -0.4155859351158142 0.35936376452445984 2.4223861694335938
v -1.0032958984375 0.947081446647644 2.4223861694335938
v -1.0032873153686523 1.7782409191131592 2.4223861694335938
v -0.49043944478034973 2.295353889465332 -1.100851058959961
v -0.750964343547821 2.6667983531951904 1.4512653350830078
v 0.7509570121765137 2.6667983531951904 1.451265573501587
v 0.4903918206691742 2.295353889465332 -1.100851058959961
v -0.932708740234375 1.884521722793579 -1.1008509397506714
v -1.2170813083648682 2.2051444053649902 1.451265573501587
v -0.750964343547821 2.6667983531951904 1.4512653350830078
v -0.49043944478034973 2.295353889465332 -1.100851058959961
v -0.932708740234375 0.8407993912696838 -1.1008514165878296
v -1.2170813083648682 0.5201816558837891 1.4512653350830078
v -1.2170813083648682 2.2051444053649902 1.451265573501587
v -0.932708740234375 1.884521722793579 -1.1008509397506714
v -0.49043944478034973 0.42996641993522644 -1.1008514165878296
v -0.8399340510368347 0.11598680913448334 1.4512653350830078
v -1.2170813083648682 0.5201816558837891 1.4512653350830078
v -0.932708740234375 0.8407993912696838 -1.1008514165878296
v 0.4903918206691742 0.4299655854701996 -1.1008514165878296
v 0.8399267196655273 0.11598484963178635 1.4512653350830078
v -0.8399340510368347 0.11598680913448334 1.4512653350830078
v -0.49043944478034973 0.42996641993522644 -1.1008514165878296
v 0.9327294826507568 0.8407979607582092 -1.100851058959961
v 1.217073917388916 0.5201782584190369 1.4512653350830078
v 0.8399267196655273 0.11598484963178635 1.4512653350830078
v 0.4903918206691742 0.4299655854701996 -1.1008514165878296
v 0.9327294826507568 1.884521484375 -1.100851058959961
v 1.217073917388916 2.2051429748535156 1.4512653350830078
v 1.217073917388916 0.5201782584190369 1.4512653350830078
v 0.9327294826507568 0.8407979607582092 -1.100851058959961
v 0.4903918206691742 2.295353889465332 -1.100851058959961
v 0.7509570121765137 2.6667983531951904 1.451265573501587
v 1.217073917388916 2.2051429748535156 1.4512653350830078
v 0.9327294826507568 1.884521484375 -1.100851058959961
vn -3.5608340454018617e-07 -4.527554722244531e-07 -1.0
vn 0.0 0.0 -1.0
vn 0.0 -5.853421498613898e-07 -1.0
vn -5.340694997357787e-07 -5.076984734841972e-07 -1.0
vn 1.7798062401652714e-07 0.0 -1.0
vn 3.5607993709163566e-07 5.853174229741853e-07 -1.0
vn 1.7805936636250408e-07 4.5271934823176707e-07 -1.0
vn 3.561017649644782e-07 5.076490197097883e-07 -1.0
vn 1.7804867979975825e-07 0.0 -1.0
vn -0.6420391798019409 0.6447669267654419 0.4148027300834656
vn -0.6420392394065857 0.6447668671607971 0.4148027002811432
vn -0.6420391798019409 0.6447669267654419 0.41480275988578796
vn -0.6420391798019409 0.6447669267654419 0.4148027300834656
vn 1.050746163855365e-06 0.9568495154380798 0.29058393836021423
vn 1.050746163855365e-06 0.9568495154380798 0.29058393836021423
vn 1.0507460501685273e-06 0.9568495154380798 0.29058390855789185
vn 1.0507460501685273e-06 0.9568495154380798 0.29058390855789185
vn 0.6420420408248901 0.644769549369812 0.41479411721229553
vn 0.6420420408248901 0.644769549369812 0.41479411721229553
vn 0.6420420408248901 0.6447696089744568 0.41479411721229553
vn 0.6420420408248901 0.6447696089744568 0.41479411721229553
vn 0.9774971604347229 -1.2255401315997005e-06 0.21094834804534912
vn 0.9774971604347229 -1.2255401315997005e-06 0.21094834804534912
vn 0.9774971604347229 -1.2255401315997005e-06 0.21094833314418793
vn 0.9774971604347229 -1.2255401315997005e-06 0.21094834804534912
vn 0.6495367884635925 -0.631824791431427 0.4229649305343628
vn 0.6495367288589478 -0.631824791431427 0.4229649305343628
vn 0.6495367288589478 -0.631824791431427 0.422964870929718
vn 0.6495367884635925 -0.631824791431427 0.4229649603366852
vn -1.5706669955761754e-06 -0.9711211919784546 0.23858682811260223
vn -1.5706668818893377e-06 -0.9711211919784546 0.23858684301376343
vn -1.5706668818893377e-06 -0.9711211919784546 0.23858684301376343
vn -1.5706668818893377e-06 -0.9711211919784546 0.23858679831027985
vn -0.6495399475097656 -0.631822943687439 0.42296302318573
vn -0.6495399475097656 -0.6318228244781494 0.4229629635810852
vn -0.6495399475097656 -0.6318228840827942 0.4229629635810852
vn -0.6495399475097656 -0.6318228244781494 0.4229629933834076
vn -0.9774952530860901 3.2170357826544205e-06 0.21095755696296692
vn -0.9774952530860901 3.217036010028096e-06 0.21095754206180573
vn -0.9774952530860901 3.217036010028096e-06 0.21095755696296692
vn -0.9774952530860901 3.217036464775447e-06 0.21095755696296692
vn 0.0 0.9490897059440613 -0.31500592827796936
vn 0.0 0.9490897059440613 -0.31500592827796936
vn 0.0 0.9490897059440613 -0.31500592827796936
vn 0.0 0.9490897059440613 -0.31500592827796936
vn 0.6404116749763489 0.6674796938896179 -0.37992584705352783
vn 0.6404116749763489 0.6674797534942627 -0.3799258768558502
vn 0.6404116749763489 0.6674797534942627 -0.3799258768558502
vn 0.6404116749763489 0.6674797534942627 -0.3799258768558502
vn 0.9490923881530762 0.0 -0.31499791145324707
vn 0.9490923881530762 0.0 -0.31499794125556946
vn 0.9490923881530762 0.0 -0.31499794125556946
vn 0.9490923881530762 0.0 -0.31499791145324707
vn 0.6404120922088623 -0.6674795746803284 -0.37992537021636963
vn 0.6404120922088623 -0.6674795746803284 -0.37992537021636963
vn 0.6404120326042175 -0.6674796938896179 -0.37992534041404724
vn 0.6404120326042175 -0.6674796938896179 -0.37992537021636963
vn -5.316131819199654e-07 -0.9490900039672852 -0.315004825592041
vn -5.316131819199654e-07 -0.9490901231765747 -0.31500479578971863
vn -5.316131819199654e-07 -0.9490900039672852 -0.315004825592041
vn -5.316130682331277e-07 -0.9490900039672852 -0.315004825592041
vn -0.6404980421066284 -0.6673992276191711 -0.37992164492607117
vn -0.6404980421066284 -0.6673992872238159 -0.37992164492607117
vn -0.6404980421066284 -0.6673992872238159 -0.3799216151237488
vn -0.6404979825019836 -0.6673992276191711 -0.37992164492607117
vn -0.9490855932235718 0.0 -0.31501829624176025
vn -0.9490855932235718 0.0 -0.31501829624176025
vn -0.9490855932235718 0.0 -0.31501829624176025
vn -0.9490855932235718 0.0 -0.31501829624176025
vn -0.6404940485954285 0.6674011945724487 -0.3799249529838562
vn -0.6404940485954285 0.6674011945724487 -0.3799249529838562
vn -0.6404940485954285 0.6674011945724487 -0.3799249231815338
vn -0.6404940485954285 0.6674011945724487 -0.3799249529838562
vn 0.0 0.0 1.0
vn 0.0 0.0 1.0
vn 0.0 0.0 1.0
vn 1.1710781677720661e-07 0.0 1.0
vn 0.0 0.0 1.0
vn 1.1710966418831958e-07 0.0 1.0
vn 2.3421638672971312e-07 0.0 1.0
vn 0.0 0.0 1.0
vn 0.0 0.0 1.0
vn 0.0 0.9898545145988464 -0.14208519458770752
vn 0.0 0.9898545145988464 -0.14208517968654633
vn 0.0 0.9898545145988464 -0.14208517968654633
vn 0.0 0.9898545145988464 -0.14208517968654633
vn -0.6829841136932373 0.7110872268676758 -0.16699597239494324
vn -0.6829840540885925 0.7110872268676758 -0.16699597239494324
vn -0.6829841136932373 0.711087167263031 -0.16699597239494324
vn -0.6829841136932373 0.711087167263031 -0.16699597239494324
vn -0.9940159320831299 2.199597162189093e-07 -0.10923561453819275
vn -0.9940159320831299 2.1995975885147345e-07 -0.10923561453819275
vn -0.9940159320831299 2.199597162189093e-07 -0.10923561453819275
vn -0.9940159320831299 2.199597162189093e-07 -0.10923561453819275
vn -0.6948479413986206 -0.6985892057418823 -0.17076143622398376
vn -0.6948479413986206 -0.6985892653465271 -0.17076142132282257
vn -0.6948479413986206 -0.6985892057418823 -0.17076140642166138
vn -0.6948479413986206 -0.6985892057418823 -0.17076142132282257
vn -1.0454700714035425e-06 -0.992719292640686 -0.1204514354467392
vn -1.0454701850903803e-06 -0.992719292640686 -0.12045145779848099
vn -1.0454701850903803e-06 -0.992719292640686 -0.12045145034790039
vn -1.0454700714035425e-06 -0.992719292640686 -0.1204514354467392
vn 0.6948168873786926 -0.6986196041107178 -0.17076320946216583
vn 0.6948169469833374 -0.6986196041107178 -0.17076320946216583
vn 0.6948169469833374 -0.6986196041107178 -0.17076322436332703
vn 0.6948169469833374 -0.6986196041107178 -0.17076319456100464
vn 0.9940170049667358 0.0 -0.10922496765851974
vn 0.9940170049667358 0.0 -0.10922497510910034
vn 0.9940170049667358 0.0 -0.10922496765851974
vn 0.9940170049667358 0.0 -0.10922496020793915
vn 0.6829579472541809 0.7111119031906128 -0.1669979840517044
vn 0.6829579472541809 0.7111119031906128 -0.1669979691505432
vn 0.6829579472541809 0.711111843585968 -0.1669979840517044
vn 0.6829579472541809 0.711111843585968 -0.1669979691505432
vt 0.5 0.9999999850988388
vt 0.5 0.8499999940395355
vt 0.6104854345321655 0.9542354196310043
vt 0.3895145654678345 0.9542354196310043
vt 0.34375 0.84375
vt 0.3895145654678345 0.7332645654678345
vt 0.5 0.6875
vt 0.6104854345321655 0.7332645654678345
vt 0.65625 0.84375
vt 0.625 0.35679906606674194
vt 0.59375 0.35679924488067627
vt 0.5993167757987976 0.31238579750061035
vt 0.6194537878036499 0.31238579750061035
vt 0.38056668639183044 0.31238579750061035
vt 0.4007038176059723 0.31238579750061035
vt 0.40625014901161194 0.35679882764816284
vt 0.375 0.3567991852760315
vt 0.4118167459964752 0.31238579750061035
vt 0.4319538474082947 0.31238579750061035
vt 0.4375 0.3568000793457031
vt 0.40625014901161194 0.35679882764816284
vt 0.44306671619415283 0.31238579750061035
vt 0.4632037580013275 0.31238579750061035
vt 0.46875 0.35679900646209717
vt 0.4375 0.3568000793457031
vt 0.47431662678718567 0.31238579750061035
vt 0.4944537281990051 0.3123858571052551
vt 0.5 0.35679906606674194
vt 0.46875 0.35679900646209717
vt 0.5055665969848633 0.31238579750061035
vt 0.5257037878036499 0.3123858571052551
vt 0.53125 0.35679924488067627
vt 0.5 0.35679906606674194
vt 0.5368167161941528 0.31238579750061035
vt 0.5569536685943604 0.31238579750061035
vt 0.5624999403953552 0.35679906606674194
vt 0.53125 0.35679924488067627
vt 0.5680666565895081 0.31238579750061035
vt 0.5882037878036499 0.3123858571052551
vt 0.59375 0.35679924488067627
vt 0.5624999403953552 0.35679906606674194
vt 0.375 0.6875
vt 0.375 0.5221495926380157
vt 0.4062500596046448 0.5221494138240814
vt 0.40625 0.6875
vt 0.40625 0.6875
vt 0.4062500596046448 0.5221494138240814
vt 0.4375 0.5221500396728516
vt 0.4375 0.6875
vt 0.4375 0.6875
vt 0.4375 0.5221500396728516
vt 0.46875 0.5221495032310486
vt 0.46875 0.6875
vt 0.46875 0.6875
vt 0.46875 0.5221495032310486
vt 0.5 0.522149533033371
vt 0.5 0.6875
vt 0.5 0.6875
vt 0.5 0.522149533033371
vt 0.53125 0.5221496224403381
vt 0.53125 0.6875
vt 0.53125 0.6875
vt 0.53125 0.5221496224403381
vt 0.5625 0.522149533033371
vt 0.5625 0.6875
vt 0.5625 0.6875
vt 0.5625 0.522149533033371
vt 0.59375 0.5221496224403381
vt 0.59375 0.6875
vt 0.59375 0.6875
vt 0.59375 0.5221496224403381
vt 0.625 0.522149533033371
vt 0.625 0.6875
vt 0.5711953639984131 0.08727723360061646
vt 0.5 0.1625000238418579
vt 0.4999997019767761 0.05778706073760986
vt 0.42880433797836304 0.08727723360061646
vt 0.3993143141269684 0.15847247838974
vt 0.4288043677806854 0.22966796159744263
vt 0.5 0.2591581344604492
vt 0.5711950659751892 0.2296680212020874
vt 0.6006850600242615 0.15847241878509521
vt 0.375 0.5221495926380157
vt 0.375 0.3567991852760315
vt 0.40625014901161194 0.35679882764816284
vt 0.4062500596046448 0.5221494138240814
vt 0.59375 0.5221496224403381
vt 0.59375 0.35679924488067627
vt 0.625 0.35679906606674194
vt 0.625 0.522149533033371
vt 0.5625 0.522149533033371
vt 0.5624999403953552 0.35679906606674194
vt 0.59375 0.35679924488067627
vt 0.59375 0.5221496224403381
vt 0.53125 0.5221496224403381
vt 0.53125 0.35679924488067627
vt 0.5624999403953552 0.35679906606674194
vt 0.5625 0.522149533033371
vt 0.5 0.522149533033371
vt 0.5 0.35679906606674194
vt 0.53125 0.35679924488067627
vt 0.53125 0.5221496224403381
vt 0.46875 0.5221495032310486
vt 0.46875 0.35679900646209717
vt 0.5 0.35679906606674194
vt 0.5 0.522149533033371
vt 0.4375 0.5221500396728516
vt 0.4375 0.3568000793457031
vt 0.46875 0.35679900646209717
vt 0.46875 0.5221495032310486
vt 0.4062500596046448 0.5221494138240814
vt 0.40625014901161194 0.35679882764816284
vt 0.4375 0.3568000793457031
vt 0.4375 0.5221500396728516

g RC_Thruster_T9_Collider
s 1
usemtl RC_Thruster_T9_Collider
f 1/1/1 2/2/2 3/3/3 
f 4/4/4 2/2/2 1/1/1 
f 5/5/5 2/2/2 4/4/4 
f 6/6/6 2/2/2 5/5/5 
f 7/7/7 2/2/2 6/6/6 
f 8/8/8 2/2/2 7/7/7 
f 9/9/9 2/2/2 8/8/8 
f 3/3/3 2/2/2 9/9/9 
f 10/10/10 11/11/11 12/12/12 
f 10/10/10 12/12/12 13/13/13 
f 14/14/14 15/15/15 16/16/16 
f 14/14/14 16/16/16 17/17/17 
f 18/18/18 19/19/19 20/20/20 
f 18/18/18 20/20/20 21/21/21 
f 22/22/22 23/23/23 24/24/24 
f 22/22/22 24/24/24 25/25/25 
f 26/26/26 27/27/27 28/28/28 
f 26/26/26 28/28/28 29/29/29 
f 30/30/30 31/31/31 32/32/32 
f 30/30/30 32/32/32 33/33/33 
f 34/34/34 35/35/35 36/36/36 
f 34/34/34 36/36/36 37/37/37 
f 38/38/38 39/39/39 40/40/40 
f 38/38/38 40/40/40 41/41/41 
f 42/42/42 43/43/43 44/44/44 
f 42/42/42 44/44/44 45/45/45 
f 46/46/46 47/47/47 48/48/48 
f 46/46/46 48/48/48 49/49/49 
f 50/50/50 51/51/51 52/52/52 
f 50/50/50 52/52/52 53/53/53 
f 54/54/54 55/55/55 56/56/56 
f 54/54/54 56/56/56 57/57/57 
f 58/58/58 59/59/59 60/60/60 
f 58/58/58 60/60/60 61/61/61 
f 62/62/62 63/63/63 64/64/64 
f 62/62/62 64/64/64 65/65/65 
f 66/66/66 67/67/67 68/68/68 
f 66/66/66 68/68/68 69/69/69 
f 70/70/70 71/71/71 72/72/72 
f 70/70/70 72/72/72 73/73/73 
f 74/74/74 75/75/75 76/76/76 
f 76/76/76 75/75/75 77/77/77 
f 77/77/77 75/75/75 78/78/78 
f 78/78/78 75/75/75 79/79/79 
f 79/79/79 75/75/75 80/80/80 
f 80/80/80 75/75/75 81/81/81 
f 81/81/81 75/75/75 82/82/82 
f 82/82/82 75/75/75 74/74/74 
f 83/83/83 84/84/84 85/85/85 
f 83/83/83 85/85/85 86/86/86 
f 87/87/87 88/88/88 89/89/89 
f 87/87/87 89/89/89 90/90/90 
f 91/91/91 92/92/92 93/93/93 
f 91/91/91 93/93/93 94/94/94 
f 95/95/95 96/96/96 97/97/97 
f 95/95/95 97/97/97 98/98/98 
f 99/99/99 100/100/100 101/101/101 
f 99/99/99 101/101/101 102/102/102 
f 103/103/103 104/104/104 105/105/105 
f 103/103/103 105/105/105 106/106/106 
f 107/107/107 108/108/108 109/109/109 
f 107/107/107 109/109/109 110/110/110 
f 111/111/111 112/112/112 113/113/113 
f 111/111/111 113/113/113 114/114/114 

