v -0.15096190571784973 -1.5490251779556274 -0.062530517578125
v -0.15096190571784973 -0.7432055473327637 -0.062530517578125
v -0.11554137617349625 -0.7432055473327637 -0.1155407652258873
v -0.11554137617349625 -1.5490251779556274 -0.1155407652258873
v -0.11554137617349625 -1.5490251779556274 -0.1155407652258873
v -0.11554137617349625 -0.7432055473327637 -0.1155407652258873
v -0.062530517578125 -0.7432055473327637 -0.15096190571784973
v -0.062530517578125 -1.5490251779556274 -0.15096190571784973
v -0.062530517578125 -1.5490251779556274 -0.15096190571784973
v -0.062530517578125 -0.7432055473327637 -0.15096190571784973
v 0.0 -0.7432055473327637 -0.16339965164661407
v 0.0 -1.5490251779556274 -0.16339965164661407
v 0.0 -1.5490251779556274 -0.16339965164661407
v 0.0 -0.7432055473327637 -0.16339965164661407
v 0.062530517578125 -0.7432055473327637 -0.15096190571784973
v 0.062530517578125 -1.5490251779556274 -0.15096190571784973
v 0.062530517578125 -1.5490251779556274 -0.15096190571784973
v 0.062530517578125 -0.7432055473327637 -0.15096190571784973
v 0.11554137617349625 -0.7432055473327637 -0.1155407652258873
v 0.11554137617349625 -1.5490251779556274 -0.1155407652258873
v 0.11554137617349625 -1.5490251779556274 -0.1155407652258873
v 0.11554137617349625 -0.7432055473327637 -0.1155407652258873
v 0.15096190571784973 -0.7432055473327637 -0.062530517578125
v 0.15096190571784973 -1.5490251779556274 -0.062530517578125
v 0.15096190571784973 -1.5490251779556274 -0.062530517578125
v 0.15096190571784973 -0.7432055473327637 -0.062530517578125
v 0.16339965164661407 -0.7432055473327637 0.0
v 0.16339965164661407 -1.5490251779556274 0.0
v 0.15096190571784973 -0.7432055473327637 0.062530517578125
v 0.15096190571784973 -1.5490251779556274 0.062530517578125
v 0.11554137617349625 -0.7432055473327637 0.1155407652258873
v 0.11554137617349625 -1.5490251779556274 0.1155407652258873
v 0.062530517578125 -0.7432055473327637 0.15096190571784973
v 0.062530517578125 -1.5490251779556274 0.15096190571784973
v 0.0 -0.7432055473327637 0.16339965164661407
v 0.0 -1.5490251779556274 0.16339965164661407
v -0.062530517578125 -0.7432055473327637 0.15096190571784973
v -0.062530517578125 -1.5490251779556274 0.15096190571784973
v -0.11554137617349625 -0.7432055473327637 0.1155407652258873
v -0.11554137617349625 -1.5490251779556274 0.1155407652258873
v -0.15096190571784973 -0.7432055473327637 0.062530517578125
v -0.15096190571784973 -1.5490251779556274 0.062530517578125
v -0.16339965164661407 -0.7432055473327637 0.0
v -0.16339965164661407 -1.5490251779556274 0.0
v -0.15096190571784973 -0.7432055473327637 -0.062530517578125
v -0.15096190571784973 -1.5490251779556274 -0.062530517578125
v -0.11554137617349625 -1.5490251779556274 -0.1155407652258873
v 0.0 -1.5490251779556274 0.0
v -0.15096190571784973 -1.5490251779556274 -0.062530517578125
v -0.062530517578125 -1.5490251779556274 -0.15096190571784973
v 0.0 -1.5490251779556274 0.0
v -0.11554137617349625 -1.5490251779556274 -0.1155407652258873
v 0.11554137617349625 -1.5490251779556274 -0.1155407652258873
v 0.062530517578125 -1.5490251779556274 -0.15096190571784973
v -0.15096190571784973 -1.5490251779556274 0.062530517578125
v -0.11554137617349625 -1.5490251779556274 0.1155407652258873
v 0.0 -1.5490251779556274 -0.16339965164661407
v 0.0 -1.5490251779556274 0.0
v -0.062530517578125 -1.5490251779556274 -0.15096190571784973
v 0.062530517578125 -1.5490251779556274 -0.15096190571784973
v 0.0 -1.5490251779556274 0.0
v 0.0 -1.5490251779556274 -0.16339965164661407
v 0.15096190571784973 -1.5490251779556274 -0.062530517578125
v 0.0 -1.5490251779556274 0.0
v 0.11554137617349625 -1.5490251779556274 -0.1155407652258873
v 0.16339965164661407 -1.5490251779556274 0.0
v 0.0 -1.5490251779556274 0.0
v 0.15096190571784973 -1.5490251779556274 -0.062530517578125
v -0.15096190571784973 -1.5490251779556274 -0.062530517578125
v -0.16339965164661407 -1.5490251779556274 0.0
v 0.15096190571784973 -1.5490251779556274 0.062530517578125
v 0.0 -1.5490251779556274 0.0
v 0.16339965164661407 -1.5490251779556274 0.0
v 0.11554137617349625 -1.5490251779556274 0.1155407652258873
v 0.0 -1.5490251779556274 0.0
v 0.15096190571784973 -1.5490251779556274 0.062530517578125
v 0.062530517578125 -1.5490251779556274 0.15096190571784973
v 0.0 -1.5490251779556274 0.0
v 0.11554137617349625 -1.5490251779556274 0.1155407652258873
v 0.0 -1.5490251779556274 0.16339965164661407
v 0.0 -1.5490251779556274 0.0
v 0.062530517578125 -1.5490251779556274 0.15096190571784973
v -0.062530517578125 -1.5490251779556274 0.15096190571784973
v 0.0 -1.5490251779556274 0.0
v 0.0 -1.5490251779556274 0.16339965164661407
v -0.11554137617349625 -1.5490251779556274 0.1155407652258873
v 0.0 -1.5490251779556274 0.0
v -0.062530517578125 -1.5490251779556274 0.15096190571784973
v -0.16339965164661407 -1.5490251779556274 0.0
v 0.0 -1.5490251779556274 0.0
v -0.15096190571784973 -1.5490251779556274 0.062530517578125
v -0.15096190571784973 -0.7432055473327637 -0.062530517578125
v 0.0 -0.7432055473327637 0.0
v -0.11554137617349625 -0.7432055473327637 -0.1155407652258873
v -0.16339965164661407 -0.7432055473327637 0.0
v -0.11554137617349625 -0.7432055473327637 -0.1155407652258873
v 0.0 -0.7432055473327637 0.0
v -0.062530517578125 -0.7432055473327637 -0.15096190571784973
v -0.062530517578125 -0.7432055473327637 -0.15096190571784973
v 0.0 -0.7432055473327637 0.0
v 0.0 -0.7432055473327637 -0.16339965164661407
v 0.0 -0.7432055473327637 -0.16339965164661407
v 0.0 -0.7432055473327637 0.0
v 0.062530517578125 -0.7432055473327637 -0.15096190571784973
v 0.062530517578125 -0.7432055473327637 -0.15096190571784973
v 0.0 -0.7432055473327637 0.0
v 0.11554137617349625 -0.7432055473327637 -0.1155407652258873
v 0.11554137617349625 -0.7432055473327637 -0.1155407652258873
v 0.0 -0.7432055473327637 0.0
v 0.15096190571784973 -0.7432055473327637 -0.062530517578125
v 0.15096190571784973 -0.7432055473327637 -0.062530517578125
v 0.0 -0.7432055473327637 0.0
v 0.16339965164661407 -0.7432055473327637 0.0
v 0.16339965164661407 -0.7432055473327637 0.0
v 0.0 -0.7432055473327637 0.0
v 0.15096190571784973 -0.7432055473327637 0.062530517578125
v 0.15096190571784973 -0.7432055473327637 0.062530517578125
v 0.0 -0.7432055473327637 0.0
v 0.11554137617349625 -0.7432055473327637 0.1155407652258873
v 0.11554137617349625 -0.7432055473327637 0.1155407652258873
v 0.0 -0.7432055473327637 0.0
v 0.062530517578125 -0.7432055473327637 0.15096190571784973
v 0.062530517578125 -0.7432055473327637 0.15096190571784973
v 0.0 -0.7432055473327637 0.0
v 0.0 -0.7432055473327637 0.16339965164661407
v 0.0 -0.7432055473327637 0.16339965164661407
v 0.0 -0.7432055473327637 0.0
v -0.062530517578125 -0.7432055473327637 0.15096190571784973
v -0.062530517578125 -0.7432055473327637 0.15096190571784973
v 0.0 -0.7432055473327637 0.0
v -0.11554137617349625 -0.7432055473327637 0.1155407652258873
v -0.11554137617349625 -0.7432055473327637 0.1155407652258873
v 0.0 -0.7432055473327637 0.0
v -0.15096190571784973 -0.7432055473327637 0.062530517578125
v -0.16339965164661407 -0.7432055473327637 0.0
vn -0.9238798022270203 0.0 -0.38268280029296875
vn -0.9238798022270203 0.0 -0.38268280029296875
vn -0.7071048021316528 0.0 -0.707108736038208
vn -0.7071048021316528 0.0 -0.707108736038208
vn -0.7071048021316528 0.0 -0.707108736038208
vn -0.7071048021316528 0.0 -0.707108736038208
vn -0.3826838731765747 0.0 -0.9238793253898621
vn -0.3826838731765747 0.0 -0.9238793253898621
vn -0.3826838731765747 0.0 -0.9238793253898621
vn -0.3826838731765747 0.0 -0.9238793253898621
vn 0.0 0.0 -1.0
vn 0.0 0.0 -1.0
vn 0.0 0.0 -1.0
vn 0.0 0.0 -1.0
vn 0.3826838731765747 0.0 -0.9238793253898621
vn 0.3826838731765747 0.0 -0.9238793253898621
vn 0.3826838731765747 0.0 -0.9238793253898621
vn 0.3826838731765747 0.0 -0.9238793253898621
vn 0.7071048021316528 0.0 -0.707108736038208
vn 0.7071048021316528 0.0 -0.707108736038208
vn 0.7071048021316528 0.0 -0.707108736038208
vn 0.7071048021316528 0.0 -0.707108736038208
vn 0.9238798022270203 0.0 -0.38268280029296875
vn 0.9238798022270203 0.0 -0.38268280029296875
vn 0.9238798022270203 0.0 -0.38268280029296875
vn 0.9238798022270203 0.0 -0.38268280029296875
vn 1.0 0.0 0.0
vn 1.0 0.0 0.0
vn 0.923880934715271 0.0 0.3826799988746643
vn 0.923880934715271 0.0 0.3826799988746643
vn 0.7071086764335632 0.0 0.7071048617362976
vn 0.7071086764335632 0.0 0.7071048617362976
vn 0.3826838731765747 0.0 0.9238793253898621
vn 0.3826838731765747 0.0 0.9238793253898621
vn 0.0 0.0 1.0
vn 0.0 0.0 1.0
vn -0.3826838731765747 0.0 0.9238793253898621
vn -0.3826838731765747 0.0 0.9238793253898621
vn -0.7071086764335632 0.0 0.7071048617362976
vn -0.7071086764335632 0.0 0.7071048617362976
vn -0.923880934715271 0.0 0.3826799988746643
vn -0.923880934715271 0.0 0.3826799988746643
vn -1.0 0.0 0.0
vn -1.0 0.0 0.0
vn -0.9238798022270203 0.0 -0.38268280029296875
vn -0.9238798022270203 0.0 -0.38268280029296875
vn 0.0 -1.0 2.9868263595744793e-07
vn 0.0 -1.0 0.0
vn 0.0 -1.0 0.0
vn 0.0 -1.0 2.98681584354199e-07
vn 0.0 -1.0 0.0
vn 0.0 -1.0 2.9868263595744793e-07
vn 0.0 -1.0 0.0
vn 0.0 -1.0 0.0
vn 0.0 -1.0 0.0
vn 0.0 -1.0 0.0
vn 0.0 -1.0 0.0
vn 0.0 -1.0 0.0
vn 0.0 -1.0 2.98681584354199e-07
vn 0.0 -1.0 0.0
vn 0.0 -1.0 0.0
vn 0.0 -1.0 0.0
vn 0.0 -1.0 0.0
vn 0.0 -1.0 0.0
vn 0.0 -1.0 0.0
vn 0.0 -1.0 0.0
vn 0.0 -1.0 0.0
vn 0.0 -1.0 0.0
vn 0.0 -1.0 0.0
vn 0.0 -1.0 0.0
vn 0.0 -1.0 0.0
vn 0.0 -1.0 0.0
vn 0.0 -1.0 0.0
vn 0.0 -1.0 -2.986819538364216e-07
vn 0.0 -1.0 0.0
vn 0.0 -1.0 0.0
vn 0.0 -1.0 -2.98681584354199e-07
vn 0.0 -1.0 0.0
vn 0.0 -1.0 -2.986819538364216e-07
vn 0.0 -1.0 0.0
vn 0.0 -1.0 0.0
vn 0.0 -1.0 -2.98681584354199e-07
vn 0.0 -1.0 0.0
vn 0.0 -1.0 0.0
vn 0.0 -1.0 0.0
vn 0.0 -1.0 0.0
vn 0.0 -1.0 0.0
vn 0.0 -1.0 0.0
vn 0.0 -1.0 0.0
vn 0.0 -1.0 0.0
vn 0.0 -1.0 0.0
vn 0.0 1.0 -1.194727587972011e-06
vn 0.0 1.0 0.0
vn 0.0 1.0 1.19472713322466e-06
vn 0.0 1.0 -1.1947203120143968e-06
vn 0.0 1.0 1.19472713322466e-06
vn 0.0 1.0 0.0
vn 0.0 1.0 0.0
vn 0.0 1.0 0.0
vn 0.0 1.0 0.0
vn 0.0 1.0 0.0
vn 0.0 1.0 0.0
vn 0.0 1.0 0.0
vn 0.0 1.0 0.0
vn 0.0 1.0 0.0
vn 0.0 1.0 0.0
vn 0.0 1.0 0.0
vn 0.0 1.0 0.0
vn 0.0 1.0 0.0
vn 0.0 1.0 -1.194730430142954e-06
vn 0.0 1.0 -1.194730430142954e-06
vn 0.0 1.0 0.0
vn 0.0 1.0 1.1947259963562828e-06
vn 0.0 1.0 1.1947259963562828e-06
vn 0.0 1.0 0.0
vn 0.0 1.0 1.1947363418585155e-06
vn 0.0 1.0 1.1947363418585155e-06
vn 0.0 1.0 0.0
vn 0.0 1.0 -1.1947215625696117e-06
vn 0.0 1.0 -1.1947215625696117e-06
vn 0.0 1.0 0.0
vn 0.0 1.0 0.0
vn 0.0 1.0 0.0
vn 0.0 1.0 0.0
vn 0.0 1.0 0.0
vn 0.0 1.0 0.0
vn 0.0 1.0 0.0
vn 0.0 1.0 0.0
vn 0.0 1.0 0.0
vn 0.0 1.0 0.0
vn 0.0 1.0 0.0
vn 0.0 1.0 0.0
vn 0.0 1.0 0.0
vn 0.0 1.0 1.194730430142954e-06
vn 0.0 1.0 -1.1947203120143968e-06
vt 0.7386398315429688 0.05170929431915283
vt 0.7386398315429688 0.060662150382995605
vt 0.7382464408874512 0.060662150382995605
vt 0.7382464408874512 0.05170929431915283
vt 0.739537239074707 0.05170929431915283
vt 0.739537239074707 0.060662150382995605
vt 0.7389483451843262 0.060662150382995605
vt 0.7389483451843262 0.05170929431915283
vt 0.7405010461807251 0.05170929431915283
vt 0.7405010461807251 0.060662150382995605
vt 0.7398064136505127 0.060662150382995605
vt 0.7398064136505127 0.05170929431915283
vt 0.7414369583129883 0.05170929431915283
vt 0.7414369583129883 0.060662150382995605
vt 0.7407423257827759 0.060662150382995605
vt 0.7407423257827759 0.05170929431915283
vt 0.7422672510147095 0.05170929431915283
vt 0.7422672510147095 0.060662150382995605
vt 0.7416783571243286 0.060662150382995605
vt 0.7416783571243286 0.05170929431915283
vt 0.7429298162460327 0.05170941352844238
vt 0.7429298162460327 0.060662150382995605
vt 0.7425363063812256 0.060662150382995605
vt 0.7425363063812256 0.05170941352844238
vt 0.7432383298873901 0.060662150382995605
vt 0.7432383298873901 0.05170941352844238
vt 0.7439329624176025 0.05170941352844238
vt 0.7439329624176025 0.060662150382995605
vt 0.7448689937591553 0.05170941352844238
vt 0.7448689937591553 0.060662150382995605
vt 0.7456991672515869 0.05170941352844238
vt 0.7456991672515869 0.060662150382995605
vt 0.7463617324829102 0.05170941352844238
vt 0.7463617324829102 0.060662150382995605
vt 0.7473649978637695 0.05170941352844238
vt 0.7473649978637695 0.060662150382995605
vt 0.7483010292053223 0.05170941352844238
vt 0.7483010292053223 0.060662150382995605
vt 0.7491312026977539 0.05170941352844238
vt 0.7491312026977539 0.060662150382995605
vt 0.7497937679290771 0.05170941352844238
vt 0.7497937679290771 0.060662150382995605
vt 0.750796914100647 0.05170941352844238
vt 0.750796914100647 0.060662150382995605
vt 0.7517329454421997 0.05170941352844238
vt 0.7517329454421997 0.060662150382995605
vt 0.7325100898742676 0.03883063793182373
vt 0.7312264442443848 0.03754699230194092
vt 0.7329037189483643 0.03824174404144287
vt 0.7413589954376221 0.04101824760437012
vt 0.7406642436981201 0.039340972900390625
vt 0.7419478893280029 0.04062461853027344
vt 0.7390263080596924 0.04085862636566162
vt 0.7396153211593628 0.04125213623046875
vt 0.7420294284820557 0.03771018981933594
vt 0.7416360378265381 0.03712129592895508
vt 0.756810188293457 0.041390299797058105
vt 0.756810188293457 0.03957498073577881
vt 0.7575048208236694 0.04125213623046875
vt 0.7329423427581787 0.04109621047973633
vt 0.7336370944976807 0.03941905498504639
vt 0.7336370944976807 0.041234374046325684
vt 0.7377783060073853 0.0380856990814209
vt 0.7394554615020752 0.037390947341918945
vt 0.7381719350814819 0.03867471218109131
vt 0.756810188293457 0.026861071586608887
vt 0.7586255073547363 0.026861071586608887
vt 0.7569483518600464 0.02755582332611084
vt 0.7609055042266846 0.027165770530700684
vt 0.7610435485839844 0.02647101879119873
vt 0.7278546094894409 0.026166439056396484
vt 0.7295317649841309 0.026861071586608887
vt 0.7277164459228516 0.026861071586608887
vt 0.7330238819122314 0.0372772216796875
vt 0.7343075275421143 0.03856098651885986
vt 0.7326303720474243 0.03786623477935791
vt 0.7641071081161499 0.039145827293395996
vt 0.7648017406463623 0.04082298278808594
vt 0.7635180950164795 0.039539217948913574
vt 0.7639789581298828 0.04041147232055664
vt 0.7639789581298828 0.04222691059112549
vt 0.7632840871810913 0.04054975509643555
vt 0.7366009950637817 0.040393829345703125
vt 0.7359063625335693 0.042070865631103516
vt 0.7359063625335693 0.04025554656982422
vt 0.7307941913604736 0.03977322578430176
vt 0.7295103073120117 0.04105699062347412
vt 0.7302051782608032 0.03937983512878418
vt 0.7528536319732666 0.026842594146728516
vt 0.7510383129119873 0.026842594146728516
vt 0.7527153491973877 0.026147842407226562
vt 0.7270071506500244 0.041018128395080566
vt 0.7263123989105225 0.039340972900390625
vt 0.7275960445404053 0.04062473773956299
vt 0.7260004281997681 0.04115629196166992
vt 0.7364881038665771 0.038440704345703125
vt 0.7352043390274048 0.03715705871582031
vt 0.7368814945220947 0.037851810455322266
vt 0.750063419342041 0.027087807655334473
vt 0.7483861446380615 0.02639305591583252
vt 0.7502015829086304 0.02639305591583252
vt 0.7333537340164185 0.02709507942199707
vt 0.7315382957458496 0.02709507942199707
vt 0.7332155704498291 0.026400327682495117
vt 0.7451494932174683 0.037554264068603516
vt 0.7434723377227783 0.03824901580810547
vt 0.7447559833526611 0.036965250968933105
vt 0.7589519023895264 0.03991079330444336
vt 0.757668137550354 0.04119443893432617
vt 0.7583627700805664 0.03951728343963623
vt 0.7388629913330078 0.04023778438568115
vt 0.7381682395935059 0.041914939880371094
vt 0.7381682395935059 0.0400996208190918
vt 0.7598448991775513 0.03963160514831543
vt 0.7598448991775513 0.04144704341888428
vt 0.7591501474380493 0.039769649505615234
vt 0.7481951713562012 0.03930175304412842
vt 0.7488899230957031 0.04097902774810791
vt 0.7476061582565308 0.03969526290893555
vt 0.7278759479522705 0.03712129592895508
vt 0.7291595935821533 0.03840506076812744
vt 0.7274823188781738 0.03771018981933594
vt 0.7620962858200073 0.026244401931762695
vt 0.7637734413146973 0.02693915367126465
vt 0.761958122253418 0.02693915367126465
vt 0.745110273361206 0.02647113800048828
vt 0.7469255924224854 0.02647113800048828
vt 0.7452484369277954 0.027165770530700684
vt 0.7621140480041504 0.037851691246032715
vt 0.7637913227081299 0.03715693950653076
vt 0.7625075578689575 0.038440704345703125
vt 0.7549381256103516 0.04058659076690674
vt 0.7562218904495239 0.039302945137023926
vt 0.755527138710022 0.04098010063171387
vt 0.75649094581604 0.041234374046325684

g Skid_Steering_Suspension
s 1
usemtl Skid_Steering_Suspension
f 1/1/1 2/2/2 3/3/3 
f 1/1/1 3/3/3 4/4/4 
f 5/5/5 6/6/6 7/7/7 
f 5/5/5 7/7/7 8/8/8 
f 9/9/9 10/10/10 11/11/11 
f 9/9/9 11/11/11 12/12/12 
f 13/13/13 14/14/14 15/15/15 
f 13/13/13 15/15/15 16/16/16 
f 17/17/17 18/18/18 19/19/19 
f 17/17/17 19/19/19 20/20/20 
f 21/21/21 22/22/22 23/23/23 
f 21/21/21 23/23/23 24/24/24 
f 25/25/25 26/26/26 27/27/27 
f 25/25/25 27/27/27 28/28/28 
f 28/28/28 27/27/27 29/29/29 
f 28/28/28 29/29/29 30/30/30 
f 30/30/30 29/29/29 31/31/31 
f 30/30/30 31/31/31 32/32/32 
f 32/32/32 31/31/31 33/33/33 
f 32/32/32 33/33/33 34/34/34 
f 34/34/34 33/33/33 35/35/35 
f 34/34/34 35/35/35 36/36/36 
f 36/36/36 35/35/35 37/37/37 
f 36/36/36 37/37/37 38/38/38 
f 38/38/38 37/37/37 39/39/39 
f 38/38/38 39/39/39 40/40/40 
f 40/40/40 39/39/39 41/41/41 
f 40/40/40 41/41/41 42/42/42 
f 42/42/42 41/41/41 43/43/43 
f 42/42/42 43/43/43 44/44/44 
f 44/44/44 43/43/43 45/45/45 
f 44/44/44 45/45/45 46/46/46 
f 47/47/47 48/48/48 49/49/49 
f 50/50/50 51/51/51 52/52/52 
f 53/53/53 51/51/51 54/54/54 
f 55/55/55 51/51/51 56/56/56 
f 57/57/57 58/58/58 59/59/59 
f 60/60/60 61/61/61 62/62/62 
f 63/63/63 64/64/64 65/65/65 
f 66/66/66 67/67/67 68/68/68 
f 69/69/69 67/67/67 70/70/70 
f 71/71/71 72/72/72 73/73/73 
f 74/74/74 75/75/75 76/76/76 
f 77/77/77 78/78/78 79/79/79 
f 80/80/80 81/81/81 82/82/82 
f 83/83/83 84/84/84 85/85/85 
f 86/86/86 87/87/87 88/88/88 
f 89/89/89 90/90/90 91/91/91 
f 92/92/92 93/93/93 94/94/94 
f 95/95/95 93/93/93 92/92/92 
f 96/96/96 97/97/97 98/98/98 
f 99/99/99 100/100/100 101/101/101 
f 102/102/102 103/103/103 104/104/104 
f 105/105/105 106/106/106 107/107/107 
f 108/108/108 109/109/109 110/110/110 
f 111/111/111 112/112/112 113/113/113 
f 114/114/114 115/115/115 116/116/116 
f 117/117/117 118/118/118 119/119/119 
f 120/120/120 121/121/121 122/122/122 
f 123/123/123 124/124/124 125/125/125 
f 126/126/126 127/127/127 128/128/128 
f 129/129/129 130/130/130 131/131/131 
f 132/132/132 133/133/133 134/134/134 
f 134/134/134 133/133/133 135/135/135 

