v -0.17174267768859863 0.23480600118637085 -0.097259521484375
v 0.17174267768859863 0.23480600118637085 -0.097259521484375
v 0.17174267768859863 0.17971277236938477 -0.17971312999725342
v -0.17174267768859863 0.17971277236938477 -0.17971312999725342
v -0.17174267768859863 0.17971277236938477 -0.17971312999725342
v 0.17174267768859863 0.17971277236938477 -0.17971312999725342
v 0.17174267768859863 0.09725990891456604 -0.2348058968782425
v -0.17174267768859863 0.09725990891456604 -0.2348058968782425
v -0.17174267768859863 0.09725990891456604 -0.2348058968782425
v 0.17174267768859863 0.09725990891456604 -0.2348058968782425
v 0.17174267768859863 1.2397772763961257e-07 -0.2541516125202179
v -0.17174267768859863 1.2397772763961257e-07 -0.2541516125202179
v -0.17174267768859863 1.2397772763961257e-07 -0.2541516125202179
v 0.17174267768859863 1.2397772763961257e-07 -0.2541516125202179
v 0.17174267768859863 -0.09725966304540634 -0.2348058968782425
v -0.17174267768859863 -0.09725966304540634 -0.2348058968782425
v -0.17174267768859863 -0.09725966304540634 -0.2348058968782425
v 0.17174267768859863 -0.09725966304540634 -0.2348058968782425
v 0.17174267768859863 -0.17971257865428925 -0.17971312999725342
v -0.17174267768859863 -0.17971257865428925 -0.17971312999725342
v -0.17174267768859863 -0.17971257865428925 -0.17971312999725342
v 0.17174267768859863 -0.17971257865428925 -0.17971312999725342
v 0.17174267768859863 -0.2348058521747589 -0.097259521484375
v -0.17174267768859863 -0.2348058521747589 -0.097259521484375
v -0.17174267768859863 -0.2348058521747589 -0.097259521484375
v 0.17174267768859863 -0.2348058521747589 -0.097259521484375
v 0.17174267768859863 -0.2541520595550537 -2.9558576723417995e-14
v -0.17174267768859863 -0.2541520595550537 -2.9558576723417995e-14
v -0.17174267768859863 -0.2541520595550537 -2.9558576723417995e-14
v 0.17174267768859863 -0.2541520595550537 -2.9558576723417995e-14
v 0.17174267768859863 -0.23480592668056488 0.097259521484375
v -0.17174267768859863 -0.23480592668056488 0.097259521484375
v -0.17174267768859863 -0.23480592668056488 0.097259521484375
v 0.17174267768859863 -0.23480592668056488 0.097259521484375
v 0.17174267768859863 -0.1797126978635788 0.17971312999725342
v -0.17174267768859863 -0.1797126978635788 0.17971312999725342
v -0.17174267768859863 -0.1797126978635788 0.17971312999725342
v 0.17174267768859863 -0.1797126978635788 0.17971312999725342
v 0.17174267768859863 -0.09725981205701828 0.2348058968782425
v -0.17174267768859863 -0.09725981205701828 0.2348058968782425
v -0.17174267768859863 -0.09725981205701828 0.2348058968782425
v 0.17174267768859863 -0.09725981205701828 0.2348058968782425
v 0.17174267768859863 -2.861016490385282e-08 0.2541516125202179
v -0.17174267768859863 -2.861016490385282e-08 0.2541516125202179
v -0.17174267768859863 -2.861016490385282e-08 0.2541516125202179
v 0.17174267768859863 -2.861016490385282e-08 0.2541516125202179
v 0.17174267768859863 0.0972597599029541 0.2348058968782425
v -0.17174267768859863 0.0972597599029541 0.2348058968782425
v -0.17174267768859863 0.0972597599029541 0.2348058968782425
v 0.17174267768859863 0.0972597599029541 0.2348058968782425
v 0.17174267768859863 0.1797126978635788 0.17971312999725342
v -0.17174267768859863 0.1797126978635788 0.17971312999725342
v -0.17174267768859863 0.1797126978635788 0.17971312999725342
v 0.17174267768859863 0.1797126978635788 0.17971312999725342
v 0.17174267768859863 0.23480592668056488 0.097259521484375
v -0.17174267768859863 0.23480592668056488 0.097259521484375
v -0.17174267768859863 0.23480592668056488 0.097259521484375
v 0.17174267768859863 0.23480592668056488 0.097259521484375
v 0.17174267768859863 0.2541520893573761 -2.9558576723417995e-14
v -0.17174267768859863 0.2541520893573761 -2.9558576723417995e-14
v -0.17174267768859863 0.2541520893573761 -2.9558576723417995e-14
v 0.17174267768859863 0.2541520893573761 -2.9558576723417995e-14
v 0.17174267768859863 0.23480600118637085 -0.097259521484375
v -0.17174267768859863 0.23480600118637085 -0.097259521484375
v -0.17174267768859863 0.17971277236938477 -0.17971312999725342
v -0.17174267768859863 9.536806899745898e-09 -2.9558576723417995e-14
v -0.17174267768859863 0.23480600118637085 -0.097259521484375
v -0.17174267768859863 0.09725990891456604 -0.2348058968782425
v -0.17174267768859863 9.536806899745898e-09 -2.9558576723417995e-14
v -0.17174267768859863 0.17971277236938477 -0.17971312999725342
v -0.17174267768859863 1.2397772763961257e-07 -0.2541516125202179
v -0.17174267768859863 9.536806899745898e-09 -2.9558576723417995e-14
v -0.17174267768859863 0.09725990891456604 -0.2348058968782425
v -0.17174267768859863 -0.09725966304540634 -0.2348058968782425
v -0.17174267768859863 9.536806899745898e-09 -2.9558576723417995e-14
v -0.17174267768859863 1.2397772763961257e-07 -0.2541516125202179
v -0.17174267768859863 -0.17971257865428925 -0.17971312999725342
v -0.17174267768859863 9.536806899745898e-09 -2.9558576723417995e-14
v -0.17174267768859863 -0.09725966304540634 -0.2348058968782425
v -0.17174267768859863 -0.2348058521747589 -0.097259521484375
v -0.17174267768859863 9.536806899745898e-09 -2.9558576723417995e-14
v -0.17174267768859863 -0.17971257865428925 -0.17971312999725342
v -0.17174267768859863 -0.09725981205701828 0.2348058968782425
v -0.17174267768859863 -0.1797126978635788 0.17971312999725342
v -0.17174267768859863 -0.2541520595550537 -2.9558576723417995e-14
v -0.17174267768859863 9.536806899745898e-09 -2.9558576723417995e-14
v -0.17174267768859863 -0.2348058521747589 -0.097259521484375
v -0.17174267768859863 -0.23480592668056488 0.097259521484375
v -0.17174267768859863 9.536806899745898e-09 -2.9558576723417995e-14
v -0.17174267768859863 -0.2541520595550537 -2.9558576723417995e-14
v -0.17174267768859863 -0.1797126978635788 0.17971312999725342
v -0.17174267768859863 9.536806899745898e-09 -2.9558576723417995e-14
v -0.17174267768859863 -0.23480592668056488 0.097259521484375
v -0.17174267768859863 -2.861016490385282e-08 0.2541516125202179
v -0.17174267768859863 9.536806899745898e-09 -2.9558576723417995e-14
v -0.17174267768859863 -0.09725981205701828 0.2348058968782425
v -0.17174267768859863 0.0972597599029541 0.2348058968782425
v -0.17174267768859863 9.536806899745898e-09 -2.9558576723417995e-14
v -0.17174267768859863 -2.861016490385282e-08 0.2541516125202179
v -0.17174267768859863 0.1797126978635788 0.17971312999725342
v -0.17174267768859863 9.536806899745898e-09 -2.9558576723417995e-14
v -0.17174267768859863 0.0972597599029541 0.2348058968782425
v -0.17174267768859863 0.23480592668056488 0.097259521484375
v -0.17174267768859863 9.536806899745898e-09 -2.9558576723417995e-14
v -0.17174267768859863 0.1797126978635788 0.17971312999725342
v -0.17174267768859863 0.2541520893573761 -2.9558576723417995e-14
v -0.17174267768859863 9.536806899745898e-09 -2.9558576723417995e-14
v -0.17174267768859863 0.23480592668056488 0.097259521484375
v -0.17174267768859863 0.23480600118637085 -0.097259521484375
v -0.17174267768859863 9.536806899745898e-09 -2.9558576723417995e-14
v -0.17174267768859863 0.2541520893573761 -2.9558576723417995e-14
v 0.17174267768859863 0.23480600118637085 -0.097259521484375
v 0.17174267768859863 9.536806899745898e-09 -2.9558576723417995e-14
v 0.17174267768859863 0.17971277236938477 -0.17971312999725342
v 0.17174267768859863 0.17971277236938477 -0.17971312999725342
v 0.17174267768859863 9.536806899745898e-09 -2.9558576723417995e-14
v 0.17174267768859863 0.09725990891456604 -0.2348058968782425
v 0.17174267768859863 0.09725990891456604 -0.2348058968782425
v 0.17174267768859863 9.536806899745898e-09 -2.9558576723417995e-14
v 0.17174267768859863 1.2397772763961257e-07 -0.2541516125202179
v 0.17174267768859863 1.2397772763961257e-07 -0.2541516125202179
v 0.17174267768859863 9.536806899745898e-09 -2.9558576723417995e-14
v 0.17174267768859863 -0.09725966304540634 -0.2348058968782425
v 0.17174267768859863 -0.09725966304540634 -0.2348058968782425
v 0.17174267768859863 9.536806899745898e-09 -2.9558576723417995e-14
v 0.17174267768859863 -0.17971257865428925 -0.17971312999725342
v 0.17174267768859863 -0.23480592668056488 0.097259521484375
v 0.17174267768859863 -0.1797126978635788 0.17971312999725342
v 0.17174267768859863 -0.1797126978635788 0.17971312999725342
v 0.17174267768859863 -0.09725981205701828 0.2348058968782425
v 0.17174267768859863 -0.17971257865428925 -0.17971312999725342
v 0.17174267768859863 9.536806899745898e-09 -2.9558576723417995e-14
v 0.17174267768859863 -0.2348058521747589 -0.097259521484375
v 0.17174267768859863 -0.2348058521747589 -0.097259521484375
v 0.17174267768859863 9.536806899745898e-09 -2.9558576723417995e-14
v 0.17174267768859863 -0.2541520595550537 -2.9558576723417995e-14
v 0.17174267768859863 -0.23480592668056488 0.097259521484375
v 0.17174267768859863 -0.09725981205701828 0.2348058968782425
v 0.17174267768859863 9.536806899745898e-09 -2.9558576723417995e-14
v 0.17174267768859863 -2.861016490385282e-08 0.2541516125202179
v 0.17174267768859863 -2.861016490385282e-08 0.2541516125202179
v 0.17174267768859863 9.536806899745898e-09 -2.9558576723417995e-14
v 0.17174267768859863 0.0972597599029541 0.2348058968782425
v 0.17174267768859863 0.0972597599029541 0.2348058968782425
v 0.17174267768859863 9.536806899745898e-09 -2.9558576723417995e-14
v 0.17174267768859863 0.1797126978635788 0.17971312999725342
v 0.17174267768859863 0.1797126978635788 0.17971312999725342
v 0.17174267768859863 9.536806899745898e-09 -2.9558576723417995e-14
v 0.17174267768859863 0.23480592668056488 0.097259521484375
v 0.17174267768859863 0.23480592668056488 0.097259521484375
v 0.17174267768859863 9.536806899745898e-09 -2.9558576723417995e-14
v 0.17174267768859863 0.2541520893573761 -2.9558576723417995e-14
v 0.17174267768859863 0.2541520893573761 -2.9558576723417995e-14
v 0.17174267768859863 9.536806899745898e-09 -2.9558576723417995e-14
v 0.17174267768859863 0.23480600118637085 -0.097259521484375
vn 0.0 0.9238801002502441 -0.38268187642097473
vn 0.0 0.9238801002502441 -0.38268187642097473
vn 0.0 0.7071075439453125 -0.7071059346199036
vn 0.0 0.7071075439453125 -0.7071059346199036
vn 0.0 0.7071075439453125 -0.7071059346199036
vn 0.0 0.7071075439453125 -0.7071059346199036
vn 0.0 0.3826792538166046 -0.9238812327384949
vn 0.0 0.3826792538166046 -0.9238812327384949
vn 0.0 0.3826792538166046 -0.9238812327384949
vn 0.0 0.3826792538166046 -0.9238812327384949
vn 0.0 0.0 -1.0
vn 0.0 0.0 -1.0
vn 0.0 0.0 -1.0
vn 0.0 0.0 -1.0
vn 0.0 -0.38267916440963745 -0.9238812327384949
vn 0.0 -0.38267916440963745 -0.9238812327384949
vn 0.0 -0.38267916440963745 -0.9238812327384949
vn 0.0 -0.38267916440963745 -0.9238812327384949
vn 0.0 -0.7071072459220886 -0.7071062326431274
vn 0.0 -0.7071072459220886 -0.7071062326431274
vn 0.0 -0.7071072459220886 -0.7071062326431274
vn 0.0 -0.7071072459220886 -0.7071062326431274
vn 0.0 -0.9238797426223755 -0.3826828896999359
vn 0.0 -0.9238797426223755 -0.3826828896999359
vn 0.0 -0.9238797426223755 -0.3826828896999359
vn 0.0 -0.9238797426223755 -0.3826828896999359
vn 0.0 -1.0 -4.579734991239093e-07
vn 0.0 -1.0 -4.579734991239093e-07
vn 0.0 -1.0 -4.579734991239093e-07
vn 0.0 -1.0 -4.579734991239093e-07
vn 0.0 -0.9238800406455994 0.3826824426651001
vn 0.0 -0.9238800406455994 0.3826824426651001
vn 0.0 -0.9238800406455994 0.3826824426651001
vn 0.0 -0.9238800406455994 0.3826824426651001
vn 0.0 -0.7071073651313782 0.7071061134338379
vn 0.0 -0.7071073651313782 0.7071061134338379
vn 0.0 -0.7071073651313782 0.7071061134338379
vn 0.0 -0.7071073651313782 0.7071061134338379
vn 0.0 -0.3826792538166046 0.9238812327384949
vn 0.0 -0.3826792538166046 0.9238812327384949
vn 0.0 -0.3826792538166046 0.9238812327384949
vn 0.0 -0.3826792538166046 0.9238812327384949
vn 0.0 0.0 1.0
vn 0.0 0.0 1.0
vn 0.0 0.0 1.0
vn 0.0 0.0 1.0
vn 0.0 0.3826790750026703 0.9238812327384949
vn 0.0 0.3826790750026703 0.9238812327384949
vn 0.0 0.3826790750026703 0.9238812327384949
vn 0.0 0.3826790750026703 0.9238812327384949
vn 0.0 0.7071073651313782 0.7071061134338379
vn 0.0 0.7071073651313782 0.7071061134338379
vn 0.0 0.7071073651313782 0.7071061134338379
vn 0.0 0.7071073651313782 0.7071061134338379
vn 0.0 0.9238800406455994 0.382682204246521
vn 0.0 0.9238800406455994 0.382682204246521
vn 0.0 0.9238800406455994 0.382682204246521
vn 0.0 0.9238800406455994 0.382682204246521
vn 0.0 1.0 3.6347103105072165e-07
vn 0.0 1.0 3.6347103105072165e-07
vn 0.0 1.0 3.6347103105072165e-07
vn 0.0 1.0 3.6347103105072165e-07
vn 0.0 0.9238801002502441 -0.38268187642097473
vn 0.0 0.9238801002502441 -0.38268187642097473
vn -1.0 -4.938286224387411e-07 0.0
vn -1.0 0.0 0.0
vn -1.0 -4.938334541293443e-07 0.0
vn -1.0 0.0 0.0
vn -1.0 0.0 0.0
vn -1.0 -4.938286224387411e-07 0.0
vn -1.0 0.0 0.0
vn -1.0 0.0 0.0
vn -1.0 0.0 0.0
vn -1.0 0.0 0.0
vn -1.0 0.0 0.0
vn -1.0 0.0 0.0
vn -1.0 2.469152775574912e-07 0.0
vn -1.0 0.0 0.0
vn -1.0 0.0 0.0
vn -1.0 2.4691661337783444e-07 0.0
vn -1.0 0.0 0.0
vn -1.0 2.469152775574912e-07 0.0
vn -1.0 0.0 0.0
vn -1.0 4.938325446346425e-07 0.0
vn -1.0 0.0 0.0
vn -1.0 0.0 0.0
vn -1.0 2.4691661337783444e-07 0.0
vn -1.0 4.938333404425066e-07 0.0
vn -1.0 0.0 0.0
vn -1.0 0.0 0.0
vn -1.0 4.938325446346425e-07 0.0
vn -1.0 0.0 0.0
vn -1.0 4.938333404425066e-07 0.0
vn -1.0 0.0 0.0
vn -1.0 0.0 0.0
vn -1.0 0.0 0.0
vn -1.0 0.0 0.0
vn -1.0 0.0 0.0
vn -1.0 0.0 0.0
vn -1.0 -2.4691433964108e-07 0.0
vn -1.0 0.0 0.0
vn -1.0 0.0 0.0
vn -1.0 -2.469166702212533e-07 0.0
vn -1.0 0.0 0.0
vn -1.0 -2.4691433964108e-07 0.0
vn -1.0 0.0 0.0
vn -1.0 0.0 0.0
vn -1.0 -2.469166702212533e-07 0.0
vn -1.0 -4.938334541293443e-07 0.0
vn -1.0 0.0 0.0
vn -1.0 0.0 0.0
vn 1.0 -1.2345836353233608e-07 0.0
vn 1.0 0.0 0.0
vn 1.0 -1.234571556096853e-07 0.0
vn 1.0 -1.234571556096853e-07 0.0
vn 1.0 0.0 0.0
vn 1.0 0.0 0.0
vn 1.0 0.0 0.0
vn 1.0 0.0 0.0
vn 1.0 0.0 0.0
vn 1.0 0.0 0.0
vn 1.0 0.0 0.0
vn 1.0 0.0 0.0
vn 1.0 0.0 0.0
vn 1.0 0.0 0.0
vn 1.0 2.4691627231732127e-07 0.0
vn 1.0 1.2345833511062665e-07 0.0
vn 1.0 1.2345765298960032e-07 0.0
vn 1.0 1.2345765298960032e-07 0.0
vn 1.0 0.0 0.0
vn 1.0 2.4691627231732127e-07 0.0
vn 1.0 0.0 0.0
vn 1.0 2.4691661337783444e-07 0.0
vn 1.0 2.4691661337783444e-07 0.0
vn 1.0 0.0 0.0
vn 1.0 0.0 0.0
vn 1.0 1.2345833511062665e-07 0.0
vn 1.0 0.0 0.0
vn 1.0 0.0 0.0
vn 1.0 0.0 0.0
vn 1.0 0.0 0.0
vn 1.0 0.0 0.0
vn 1.0 0.0 0.0
vn 1.0 0.0 0.0
vn 1.0 0.0 0.0
vn 1.0 -2.4691433964108e-07 0.0
vn 1.0 -2.4691433964108e-07 0.0
vn 1.0 0.0 0.0
vn 1.0 -2.469166702212533e-07 0.0
vn 1.0 -2.469166702212533e-07 0.0
vn 1.0 0.0 0.0
vn 1.0 0.0 0.0
vn 1.0 0.0 0.0
vn 1.0 0.0 0.0
vn 1.0 -1.2345836353233608e-07 0.0
vt 0.9607241153717041 0.07305800914764404
vt 0.9601583480834961 0.07305800914764404
vt 0.9601583480834961 0.0729672908782959
vt 0.9607241153717041 0.0729672908782959
vt 0.9316003918647766 0.07332885265350342
vt 0.9310346841812134 0.07332885265350342
vt 0.9310346841812134 0.07319307327270508
vt 0.9316003918647766 0.07319307327270508
vt 0.9486826062202454 0.07377457618713379
vt 0.9481167793273926 0.07377457618713379
vt 0.9481167793273926 0.07361435890197754
vt 0.9486826062202454 0.07361435890197754
vt 0.9316704273223877 0.07366299629211426
vt 0.9311047196388245 0.07366299629211426
vt 0.9311047196388245 0.07350277900695801
vt 0.9316704273223877 0.07350277900695801
vt 0.9440619945526123 0.07329273223876953
vt 0.9434962868690491 0.07329273223876953
vt 0.9434962868690491 0.07315695285797119
vt 0.9440619945526123 0.07315695285797119
vt 0.9515529274940491 0.07307028770446777
vt 0.9509872198104858 0.07307028770446777
vt 0.9509872198104858 0.07297956943511963
vt 0.9515529274940491 0.07297956943511963
vt 0.9496569633483887 0.0804605484008789
vt 0.9496569633483887 0.0798947811126709
vt 0.9498172402381897 0.0798947811126709
vt 0.9498172402381897 0.0804605484008789
vt 0.9398558139801025 0.08026182651519775
vt 0.9398558139801025 0.07969605922698975
vt 0.940015971660614 0.07969605922698975
vt 0.940015971660614 0.08026182651519775
vt 0.9467166662216187 0.08026182651519775
vt 0.9467166662216187 0.07969605922698975
vt 0.946852445602417 0.07969605922698975
vt 0.946852445602417 0.08026182651519775
vt 0.935795247554779 0.08014237880706787
vt 0.935795247554779 0.07957661151885986
vt 0.935886025428772 0.07957661151885986
vt 0.935886025428772 0.08014237880706787
vt 0.9286543130874634 0.08012175559997559
vt 0.9286543130874634 0.07955598831176758
vt 0.9288145899772644 0.07955598831176758
vt 0.9288145899772644 0.08012175559997559
vt 0.9361453056335449 0.08012175559997559
vt 0.9361453056335449 0.07955598831176758
vt 0.936305582523346 0.07955598831176758
vt 0.936305582523346 0.08012175559997559
vt 0.9276041984558105 0.08012175559997559
vt 0.9276041984558105 0.07955598831176758
vt 0.9277399778366089 0.07955598831176758
vt 0.9277399778366089 0.08012175559997559
vt 0.942236065864563 0.08012175559997559
vt 0.942236065864563 0.07955598831176758
vt 0.9423268437385559 0.07955598831176758
vt 0.9423268437385559 0.08012175559997559
vt 0.9470667243003845 0.08012175559997559
vt 0.9470667243003845 0.07955610752105713
vt 0.9472269415855408 0.07955610752105713
vt 0.9472269415855408 0.08012175559997559
vt 0.9306145906448364 0.08005177974700928
vt 0.9306145906448364 0.07948601245880127
vt 0.9307748079299927 0.07948601245880127
vt 0.9307748079299927 0.08005177974700928
vt 0.952543318271637 0.07548868656158447
vt 0.9522473812103271 0.07578468322753906
vt 0.9524075984954834 0.07539796829223633
vt 0.9317014813423157 0.07494103908538818
vt 0.9313146471977234 0.07510125637054443
vt 0.9316107034683228 0.07480525970458984
vt 0.9295631051063538 0.07377099990844727
vt 0.9291445016860962 0.07377099990844727
vt 0.9295311570167542 0.07361090183258057
vt 0.9525641202926636 0.0738213062286377
vt 0.9521773457527161 0.07366108894348145
vt 0.9525959491729736 0.07366108894348145
vt 0.9276201725006104 0.07504725456237793
vt 0.9273242354393005 0.07475113868713379
vt 0.927711009979248 0.07491147518157959
vt 0.9540877342224121 0.07554137706756592
vt 0.9539275765419006 0.07515466213226318
vt 0.9542236328125 0.07545065879821777
vt 0.9528074860572815 0.07496476173400879
vt 0.9528981447219849 0.07510066032409668
vt 0.936985433101654 0.07678008079528809
vt 0.936985433101654 0.07636141777038574
vt 0.9371455311775208 0.07674813270568848
vt 0.9306146502494812 0.07660818099975586
vt 0.9307748079299927 0.07622146606445312
vt 0.9307748079299927 0.07664000988006592
vt 0.9584780931472778 0.07546722888946533
vt 0.9587741494178772 0.07517123222351074
vt 0.9586139917373657 0.07555806636810303
vt 0.9467166662216187 0.07347977161407471
vt 0.9471352696418762 0.07347977161407471
vt 0.9467484951019287 0.0736398696899414
vt 0.9268659949302673 0.07333087921142578
vt 0.9272527694702148 0.07349109649658203
vt 0.9268341064453125 0.07349109649658203
vt 0.9487676620483398 0.07475662231445312
vt 0.9490637183189392 0.07505261898040771
vt 0.9486769437789917 0.07489252090454102
vt 0.9510529041290283 0.07525789737701416
vt 0.9512132406234741 0.07564473152160645
vt 0.9509171843528748 0.07534873485565186
vt 0.9624888300895691 0.07685291767120361
vt 0.9624888300895691 0.07727158069610596
vt 0.9623286128044128 0.07688474655151367
vt 0.9276944398880005 0.07653474807739258
vt 0.9275342226028442 0.07692146301269531
vt 0.9275342226028442 0.07650291919708252
vt 0.9299803972244263 0.07527458667755127
vt 0.930140495300293 0.075661301612854
vt 0.9298445582389832 0.07536530494689941
vt 0.9540182948112488 0.07478857040405273
vt 0.9543143510818481 0.07508468627929688
vt 0.9539276361465454 0.07492446899414062
vt 0.9584400057792664 0.07350099086761475
vt 0.9588267803192139 0.07366108894348145
vt 0.9584082365036011 0.07366108894348145
vt 0.95035719871521 0.07348430156707764
vt 0.9507757425308228 0.07348430156707764
vt 0.9503889679908752 0.07364451885223389
vt 0.9502171277999878 0.0748516321182251
vt 0.9506039023399353 0.07469141483306885
vt 0.9503077864646912 0.07498741149902344
vt 0.9501672387123108 0.07554137706756592
vt 0.9503031969070435 0.07545065879821777
vt 0.9512832164764404 0.07510066032409668
vt 0.9513738751411438 0.07496476173400879
vt 0.9274641871452332 0.07546722888946533
vt 0.9277602434158325 0.07517123222351074
vt 0.9276000261306763 0.07555806636810303
vt 0.9374054670333862 0.07660818099975586
vt 0.9375656247138977 0.07622146606445312
vt 0.9375656247138977 0.07664000988006592
vt 0.9379857182502747 0.07667815685272217
vt 0.9374421834945679 0.07358121871948242
vt 0.9370554089546204 0.07342100143432617
vt 0.9374740123748779 0.07342100143432617
vt 0.9349537491798401 0.07349109649658203
vt 0.9345350861549377 0.07349109649658203
vt 0.9349218606948853 0.07333087921142578
vt 0.9524240493774414 0.07492446899414062
vt 0.9520373344421387 0.07508468627929688
vt 0.952333390712738 0.07478857040405273
vt 0.9481327533721924 0.07521402835845947
vt 0.9478368163108826 0.07551002502441406
vt 0.947996973991394 0.07512331008911133
vt 0.9546478390693665 0.07644808292388916
vt 0.9544876217842102 0.0768347978591919
vt 0.9544876217842102 0.0764162540435791
vt 0.951077401638031 0.07634615898132324
vt 0.951077401638031 0.07676482200622559
vt 0.9509171843528748 0.07637810707092285

g Skid_Static_Hinge
s 1
usemtl Skid_Static_Hinge
f 1/1/1 2/2/2 3/3/3 
f 1/1/1 3/3/3 4/4/4 
f 5/5/5 6/6/6 7/7/7 
f 5/5/5 7/7/7 8/8/8 
f 9/9/9 10/10/10 11/11/11 
f 9/9/9 11/11/11 12/12/12 
f 13/13/13 14/14/14 15/15/15 
f 13/13/13 15/15/15 16/16/16 
f 17/17/17 18/18/18 19/19/19 
f 17/17/17 19/19/19 20/20/20 
f 21/21/21 22/22/22 23/23/23 
f 21/21/21 23/23/23 24/24/24 
f 25/25/25 26/26/26 27/27/27 
f 25/25/25 27/27/27 28/28/28 
f 29/29/29 30/30/30 31/31/31 
f 29/29/29 31/31/31 32/32/32 
f 33/33/33 34/34/34 35/35/35 
f 33/33/33 35/35/35 36/36/36 
f 37/37/37 38/38/38 39/39/39 
f 37/37/37 39/39/39 40/40/40 
f 41/41/41 42/42/42 43/43/43 
f 41/41/41 43/43/43 44/44/44 
f 45/45/45 46/46/46 47/47/47 
f 45/45/45 47/47/47 48/48/48 
f 49/49/49 50/50/50 51/51/51 
f 49/49/49 51/51/51 52/52/52 
f 53/53/53 54/54/54 55/55/55 
f 53/53/53 55/55/55 56/56/56 
f 57/57/57 58/58/58 59/59/59 
f 57/57/57 59/59/59 60/60/60 
f 61/61/61 62/62/62 63/63/63 
f 61/61/61 63/63/63 64/64/64 
f 65/65/65 66/66/66 67/67/67 
f 68/68/68 69/69/69 70/70/70 
f 71/71/71 72/72/72 73/73/73 
f 74/74/74 75/75/75 76/76/76 
f 77/77/77 78/78/78 79/79/79 
f 80/80/80 81/81/81 82/82/82 
f 83/83/83 81/81/81 84/84/84 
f 85/85/85 86/86/86 87/87/87 
f 88/88/88 89/89/89 90/90/90 
f 91/91/91 92/92/92 93/93/93 
f 94/94/94 95/95/95 96/96/96 
f 97/97/97 98/98/98 99/99/99 
f 100/100/100 101/101/101 102/102/102 
f 103/103/103 104/104/104 105/105/105 
f 106/106/106 107/107/107 108/108/108 
f 109/109/109 110/110/110 111/111/111 
f 112/112/112 113/113/113 114/114/114 
f 115/115/115 116/116/116 117/117/117 
f 118/118/118 119/119/119 120/120/120 
f 121/121/121 122/122/122 123/123/123 
f 124/124/124 125/125/125 126/126/126 
f 127/127/127 125/125/125 128/128/128 
f 129/129/129 125/125/125 130/130/130 
f 131/131/131 132/132/132 133/133/133 
f 134/134/134 135/135/135 136/136/136 
f 136/136/136 135/135/135 137/137/137 
f 138/138/138 139/139/139 140/140/140 
f 141/141/141 142/142/142 143/143/143 
f 144/144/144 145/145/145 146/146/146 
f 147/147/147 148/148/148 149/149/149 
f 150/150/150 151/151/151 152/152/152 
f 153/153/153 154/154/154 155/155/155 

