v 0.5 -0.08695800602436066 0.5
v 0.5 0.0 0.5
v -0.5 0.0 0.5
v -0.5 -0.08695800602436066 0.5
v 0.5 0.0 0.5
v 0.5 0.0 -0.5
v -0.5 0.0 -0.5
v -0.5 0.0 0.5
v 0.5 0.0 -0.5
v 0.5 -0.08695800602436066 -0.5
v -0.5 -0.08695800602436066 -0.5
v -0.5 0.0 -0.5
v -0.5 -0.08695800602436066 0.5
v -0.5 0.0 0.5
v -0.5 0.0 -0.5
v -0.5 -0.08695800602436066 -0.5
v 0.5 -0.08695800602436066 -0.5
v 0.5 0.0 -0.5
v 0.5 0.0 0.5
v 0.5 -0.08695800602436066 0.5
v -0.46074017882347107 -0.1336199939250946 0.46074217557907104
v -0.46074017882347107 -0.1336199939250946 -0.46074217557907104
v 0.46074017882347107 -0.1336199939250946 -0.46074217557907104
v 0.46074017882347107 -0.1336199939250946 0.46074217557907104
v -0.5 -0.08695800602436066 0.5
v -0.46074017882347107 -0.1336199939250946 0.46074217557907104
v 0.46074017882347107 -0.1336199939250946 0.46074217557907104
v 0.5 -0.08695800602436066 0.5
v 0.5 -0.08695800602436066 0.5
v 0.46074017882347107 -0.1336199939250946 0.46074217557907104
v 0.46074017882347107 -0.1336199939250946 -0.46074217557907104
v 0.5 -0.08695800602436066 -0.5
v 0.5 -0.08695800602436066 -0.5
v 0.46074017882347107 -0.1336199939250946 -0.46074217557907104
v -0.46074017882347107 -0.1336199939250946 -0.46074217557907104
v -0.5 -0.08695800602436066 -0.5
v -0.5 -0.08695800602436066 -0.5
v -0.46074017882347107 -0.1336199939250946 -0.46074217557907104
v -0.46074017882347107 -0.1336199939250946 0.46074217557907104
v -0.5 -0.08695800602436066 0.5
v 0.12320961058139801 -0.7394079566001892 0.2796997129917145
v 0.12320952862501144 -0.13362014293670654 0.46074217557907104
v -0.12320952862501144 -0.13362014293670654 0.46074217557907104
v -0.12320952862501144 -0.7394079566001892 0.2796997129917145
v 0.12320952862501144 -0.13362014293670654 0.46074217557907104
v 0.12320952862501144 -0.0869581550359726 -0.022084960713982582
v -0.12320952862501144 -0.0869581550359726 -0.022084960713982582
v -0.12320952862501144 -0.13362014293670654 0.46074217557907104
v -0.12320952862501144 -0.7394079566001892 0.2796997129917145
v -0.12320952862501144 -0.13362014293670654 0.46074217557907104
v -0.12320952862501144 -0.0869581550359726 -0.022084960713982582
v 0.12320961058139801 -0.7394079566001892 0.2796997129917145
v 0.12320952862501144 -0.0869581550359726 -0.022084960713982582
v 0.12320952862501144 -0.13362014293670654 0.46074217557907104
v -0.2303260713815689 -0.7872464060783386 -0.0212255846709013
v -0.2303260713815689 -0.11491698771715164 -0.2990148961544037
v -0.1762840300798416 -0.1149163767695427 -0.38652464747428894
v -0.1762840300798416 -0.7872467041015625 -0.1087353527545929
v -0.1762840300798416 -0.7872467041015625 -0.1087353527545929
v -0.1762840300798416 -0.1149163767695427 -0.38652464747428894
v -0.09540435671806335 -0.11491698771715164 -0.4450012147426605
v -0.09540435671806335 -0.78724604845047 -0.1672094762325287
v -0.09540435671806335 -0.78724604845047 -0.1672094762325287
v -0.09540435671806335 -0.11491698771715164 -0.4450012147426605
v -1.5258788721439487e-07 -0.11491698771715164 -0.46553221344947815
v -1.5258788721439487e-07 -0.7872457504272461 -0.1877429187297821
v 0.09540405124425888 -0.11491698771715164 -0.4450012147426605
v 0.09540405124425888 -0.78724604845047 -0.1672094762325287
v 0.09540405124425888 -0.78724604845047 -0.1672094762325287
v 0.09540405124425888 -0.11491698771715164 -0.4450012147426605
v 0.17628386616706848 -0.1149163767695427 -0.38652464747428894
v 0.17628386616706848 -0.7872467041015625 -0.1087353527545929
v 0.17628386616706848 -0.7872467041015625 -0.1087353527545929
v 0.17628386616706848 -0.1149163767695427 -0.38652464747428894
v 0.2303260713815689 -0.11491698771715164 -0.2990148961544037
v 0.2303260713815689 -0.7872464060783386 -0.0212255846709013
v 0.2303260713815689 -0.7872464060783386 -0.0212255846709013
v 0.2303260713815689 -0.11491698771715164 -0.2990148961544037
v 0.24930313229560852 -0.11491698771715164 -0.19578613340854645
v 0.24930313229560852 -0.7872464060783386 0.0820019543170929
v 0.24930313229560852 -0.7872464060783386 0.0820019543170929
v 0.24930313229560852 -0.11491698771715164 -0.19578613340854645
v 0.2303260713815689 -0.11491698771715164 -0.0925610363483429
v 0.2303260713815689 -0.7872467041015625 0.18522949516773224
v 0.1762840300798416 -0.11491668224334717 -0.0050500486977398396
v 0.1762840300798416 -0.7872467041015625 0.2727417051792145
v 0.09540420025587082 -0.11491698771715164 0.05342163145542145
v 0.09540420025587082 -0.7872467041015625 0.3312133848667145
v 0.09540420025587082 -0.7872467041015625 0.3312133848667145
v 0.09540420025587082 -0.11491698771715164 0.05342163145542145
v 0.0 -0.11491698771715164 0.07395507395267487
v 0.0 -0.7872464060783386 0.35174560546875
v 0.0 -0.7872464060783386 0.35174560546875
v 0.0 -0.11491698771715164 0.07395507395267487
v -0.09540420025587082 -0.11491698771715164 0.05342163145542145
v -0.09540420025587082 -0.7872467041015625 0.3312133848667145
v -0.09540420025587082 -0.7872467041015625 0.3312133848667145
v -0.09540420025587082 -0.11491698771715164 0.05342163145542145
v -0.17628386616706848 -0.11491668224334717 -0.0050500486977398396
v -0.17628386616706848 -0.7872467041015625 0.2727417051792145
v -0.17628386616706848 -0.7872467041015625 0.2727417051792145
v -0.17628386616706848 -0.11491668224334717 -0.0050500486977398396
v -0.2303260713815689 -0.11491698771715164 -0.0925610363483429
v -0.2303260713815689 -0.7872467041015625 0.18522949516773224
v -0.2303260713815689 -0.7872467041015625 0.18522949516773224
v -0.2303260713815689 -0.11491698771715164 -0.0925610363483429
v -0.24930313229560852 -0.11491698771715164 -0.19578613340854645
v -0.24930313229560852 -0.7872464060783386 0.0820019543170929
v -0.24930313229560852 -0.7872464060783386 0.0820019543170929
v -0.24930313229560852 -0.11491698771715164 -0.19578613340854645
v -0.2303260713815689 -0.11491698771715164 -0.2990148961544037
v -0.2303260713815689 -0.7872464060783386 -0.0212255846709013
v -0.09540435671806335 -0.78724604845047 -0.1672094762325287
v -1.5258788721439487e-07 -0.7872457504272461 -0.1877429187297821
v 0.09540405124425888 -0.78724604845047 -0.1672094762325287
v -0.1762840300798416 -0.7872467041015625 -0.1087353527545929
v 0.17628386616706848 -0.7872467041015625 -0.1087353527545929
v -0.2303260713815689 -0.7872464060783386 -0.0212255846709013
v 0.2303260713815689 -0.7872464060783386 -0.0212255846709013
v -0.24930313229560852 -0.7872464060783386 0.0820019543170929
v 0.24930313229560852 -0.7872464060783386 0.0820019543170929
v -0.2303260713815689 -0.7872467041015625 0.18522949516773224
v 0.2303260713815689 -0.7872467041015625 0.18522949516773224
v -0.17628386616706848 -0.7872467041015625 0.2727417051792145
v 0.1762840300798416 -0.7872467041015625 0.2727417051792145
v -0.09540420025587082 -0.7872467041015625 0.3312133848667145
v 0.09540420025587082 -0.7872467041015625 0.3312133848667145
v 0.0 -0.7872464060783386 0.35174560546875
vn 0.0 0.0 1.0
vn 0.0 0.0 1.0
vn 0.0 0.0 1.0
vn 0.0 0.0 1.0
vn 0.0 1.0 0.0
vn 0.0 1.0 0.0
vn 0.0 1.0 0.0
vn 0.0 1.0 0.0
vn 0.0 0.0 -1.0
vn 0.0 0.0 -1.0
vn 0.0 0.0 -1.0
vn 0.0 0.0 -1.0
vn -1.0 0.0 0.0
vn -1.0 0.0 0.0
vn -1.0 0.0 0.0
vn -1.0 0.0 0.0
vn 1.0 0.0 0.0
vn 1.0 0.0 0.0
vn 1.0 0.0 0.0
vn 1.0 0.0 0.0
vn 0.0 -1.0 0.0
vn 0.0 -1.0 0.0
vn 0.0 -1.0 0.0
vn 0.0 -1.0 0.0
vn 0.0 -0.6437854766845703 0.7652060389518738
vn 0.0 -0.6437854170799255 0.7652060985565186
vn 0.0 -0.6437854170799255 0.7652060985565186
vn 0.0 -0.6437854766845703 0.7652060389518738
vn 0.7651901841163635 -0.6438043117523193 0.0
vn 0.7651901841163635 -0.6438043117523193 0.0
vn 0.7651901841163635 -0.6438043117523193 0.0
vn 0.7651901841163635 -0.6438043117523193 0.0
vn 0.0 -0.6437854766845703 -0.7652060389518738
vn 0.0 -0.6437854170799255 -0.7652060985565186
vn 0.0 -0.6437854170799255 -0.7652060985565186
vn 0.0 -0.6437854766845703 -0.7652060389518738
vn -0.7651906609535217 -0.643803596496582 0.0
vn -0.7651907801628113 -0.6438036561012268 0.0
vn -0.7651907801628113 -0.6438036561012268 0.0
vn -0.7651906609535217 -0.643803596496582 0.0
vn 0.0 -0.2863408923149109 0.9581277966499329
vn 0.0 -0.28634095191955566 0.9581277966499329
vn 0.0 -0.2863409221172333 0.9581277966499329
vn 0.0 -0.2863409221172333 0.9581277966499329
vn 0.0 0.9953625202178955 0.09619534760713577
vn 0.0 0.9953625202178955 0.09619534760713577
vn 0.0 0.9953625202178955 0.09619534760713577
vn 0.0 0.9953625202178955 0.09619534760713577
vn -1.0 0.0 0.0
vn -1.0 0.0 0.0
vn -1.0 0.0 0.0
vn 1.0 1.6225253318680188e-07 0.0
vn 1.0 1.6225253318680188e-07 0.0
vn 1.0 1.6225253318680188e-07 0.0
vn -0.9399988651275635 -0.13028334081172943 -0.3153226673603058
vn -0.9052634835243225 -0.16223494708538055 -0.39265474677085876
vn -0.6808770298957825 -0.2796765863895416 -0.6768953800201416
vn -0.7307898998260498 -0.26066136360168457 -0.6308737397193909
vn -0.7307898998260498 -0.26066136360168457 -0.6308737397193909
vn -0.6808770298957825 -0.2796765863895416 -0.6768953800201416
vn -0.3638473451137543 -0.35569146275520325 -0.8608709573745728
vn -0.3997419476509094 -0.35002800822257996 -0.8471640348434448
vn -0.3997419476509094 -0.35002800822257996 -0.8471640348434448
vn -0.3638473451137543 -0.35569146275520325 -0.8608709573745728
vn 0.0 -0.3818652033805847 -0.9242180585861206
vn 0.0 -0.38186517357826233 -0.9242180585861206
vn 0.36384710669517517 -0.35569146275520325 -0.8608709573745728
vn 0.39974161982536316 -0.3500281274318695 -0.8471640944480896
vn 0.39974161982536316 -0.3500281274318695 -0.8471640944480896
vn 0.36384710669517517 -0.35569146275520325 -0.8608709573745728
vn 0.6808763146400452 -0.2796768844127655 -0.6768960356712341
vn 0.7307891845703125 -0.26066169142723083 -0.630874514579773
vn 0.7307891845703125 -0.26066169142723083 -0.630874514579773
vn 0.6808763146400452 -0.2796768844127655 -0.6768960356712341
vn 0.9052631855010986 -0.16223502159118652 -0.3926554322242737
vn 0.9399986267089844 -0.13028331100940704 -0.3153231143951416
vn 0.9399986267089844 -0.13028331100940704 -0.3153231143951416
vn 0.9052631855010986 -0.16223502159118652 -0.3926554322242737
vn 0.9988136291503906 -0.018595214933156967 -0.04500594735145569
vn 0.9988136291503906 0.018595503643155098 0.04500626400113106
vn 0.9988136291503906 0.018595503643155098 0.04500626400113106
vn 0.9988136291503906 -0.018595214933156967 -0.04500594735145569
vn 0.9399998188018799 0.1302827149629593 0.31532010436058044
vn 0.905266523361206 0.1622331738471985 0.3926485776901245
vn 0.7307868599891663 0.26066383719444275 0.630876362323761
vn 0.6808653473854065 0.27968186140060425 0.67690509557724
vn 0.3997151255607605 0.3500332832336426 0.8471744656562805
vn 0.36382561922073364 0.3556954860687256 0.8608784675598145
vn 0.36382561922073364 0.3556954860687256 0.8608784675598145
vn 0.3997151255607605 0.3500332832336426 0.8471744656562805
vn 0.0 0.38186556100845337 0.9242178797721863
vn 0.0 0.38186556100845337 0.9242178797721863
vn 0.0 0.38186556100845337 0.9242178797721863
vn 0.0 0.38186556100845337 0.9242178797721863
vn -0.3997154235839844 0.3500332236289978 0.8471742868423462
vn -0.36382585763931274 0.35569536685943604 0.8608783483505249
vn -0.36382585763931274 0.35569536685943604 0.8608783483505249
vn -0.3997154235839844 0.3500332236289978 0.8471742868423462
vn -0.7307867407798767 0.26066386699676514 0.6308765411376953
vn -0.680865466594696 0.2796818017959595 0.6769048571586609
vn -0.680865466594696 0.2796818017959595 0.6769048571586609
vn -0.7307867407798767 0.26066386699676514 0.6308765411376953
vn -0.9399995803833008 0.13028298318386078 0.31532058119773865
vn -0.9052661657333374 0.16223353147506714 0.39264923334121704
vn -0.9052661657333374 0.16223353147506714 0.39264923334121704
vn -0.9399995803833008 0.13028298318386078 0.31532058119773865
vn -0.9988136291503906 -0.018595347180962563 -0.045005954802036285
vn -0.9988136291503906 0.018595457077026367 0.04500626400113106
vn -0.9988136291503906 0.018595457077026367 0.04500626400113106
vn -0.9988136291503906 -0.018595347180962563 -0.045005954802036285
vn -0.9052634835243225 -0.16223494708538055 -0.39265474677085876
vn -0.9399988651275635 -0.13028334081172943 -0.3153226673603058
vn 0.0 -1.0 -1.0672648613763158e-06
vn 0.0 -1.0 -1.067264747689478e-06
vn 0.0 -1.0 -1.0672648613763158e-06
vn 0.0 -1.0 -1.0672648613763158e-06
vn 0.0 -1.0 -1.0672648613763158e-06
vn 0.0 -1.0 -1.0672648613763158e-06
vn 0.0 -1.0 -1.0672648613763158e-06
vn 0.0 -1.0 -1.0672648613763158e-06
vn 0.0 -1.0 -1.0672648613763158e-06
vn 0.0 -1.0 -1.0672649750631535e-06
vn 0.0 -1.0 -1.0672648613763158e-06
vn 0.0 -1.0 -1.0672649750631535e-06
vn 0.0 -1.0 -1.0672648613763158e-06
vn 0.0 -1.0 -1.0672648613763158e-06
vn 0.0 -1.0 -1.0672648613763158e-06
vn 0.0 -1.0 -1.0672649750631535e-06
vt 0.7326034903526306 0.03366434574127197
vt 0.7330356240272522 0.03366434574127197
vt 0.7330356240272522 0.03863281011581421
vt 0.7326034903526306 0.03863281011581421
vt 0.7333056330680847 0.03863281011581421
vt 0.7333056330680847 0.0336642861366272
vt 0.7382740378379822 0.0336642861366272
vt 0.7382740378379822 0.03863281011581421
vt 0.7385315299034119 0.0336642861366272
vt 0.7389635443687439 0.0336642861366272
vt 0.7389635443687439 0.03863281011581421
vt 0.7385315299034119 0.03863281011581421
vt 0.7392334342002869 0.03366434574127197
vt 0.739665687084198 0.03366434574127197
vt 0.739665687084198 0.03863281011581421
vt 0.7392334342002869 0.03863281011581421
vt 0.739935576915741 0.03366434574127197
vt 0.740367591381073 0.03366434574127197
vt 0.740367591381073 0.03863281011581421
vt 0.739935576915741 0.03863281011581421
vt 0.7234541773796082 0.024848997592926025
vt 0.7234541773796082 0.029427409172058105
vt 0.7188757061958313 0.029427409172058105
vt 0.7188757061958313 0.024848997592926025
vt 0.7408693432807922 0.03863281011581421
vt 0.740637481212616 0.03843778371810913
vt 0.740637481212616 0.03385937213897705
vt 0.7408693432807922 0.03366434574127197
vt 0.7414153218269348 0.038710832595825195
vt 0.7411834597587585 0.03851574659347534
vt 0.7411834597587585 0.03393733501434326
vt 0.7414153218269348 0.033742308616638184
vt 0.7417294383049011 0.0336642861366272
vt 0.7419614195823669 0.033859312534332275
vt 0.7419614195823669 0.03843778371810913
vt 0.7417294383049011 0.03863281011581421
vt 0.7425073981285095 0.038710832595825195
vt 0.7422755360603333 0.03851574659347534
vt 0.7422755360603333 0.03393733501434326
vt 0.7425073981285095 0.033742308616638184
vt 0.2173856496810913 0.09876501560211182
vt 0.2173858880996704 0.09575510025024414
vt 0.21861016750335693 0.09575510025024414
vt 0.21861016750335693 0.09876501560211182
vt 0.23158156871795654 0.09556704759597778
vt 0.23158156871795654 0.09316807985305786
vt 0.23280596733093262 0.09316807985305786
vt 0.23280596733093262 0.09556704759597778
vt 0.24652099609375 0.09930092096328735
vt 0.24562156200408936 0.09629100561141968
vt 0.24802041053771973 0.09605920314788818
vt 0.23339307308197021 0.09883290529251099
vt 0.2318936586380005 0.09559118747711182
vt 0.2342926263809204 0.09582304954528809
vt 0.2464359998703003 0.09954839944839478
vt 0.2464359998703003 0.10288888216018677
vt 0.24616754055023193 0.10288888216018677
vt 0.24616754055023193 0.09954839944839478
vt 0.2140437364578247 0.09642845392227173
vt 0.2140437364578247 0.09976893663406372
vt 0.21364176273345947 0.09976893663406372
vt 0.21364176273345947 0.09642845392227173
vt 0.22526967525482178 0.09635043144226074
vt 0.22526967525482178 0.09969091415405273
vt 0.22479569911956787 0.09969091415405273
vt 0.22479569911956787 0.09635043144226074
vt 0.2240157127380371 0.09961289167404175
vt 0.2240157127380371 0.09627240896224976
vt 0.24220144748687744 0.09635043144226074
vt 0.24220144748687744 0.09969091415405273
vt 0.2417994737625122 0.09969091415405273
vt 0.2417994737625122 0.09635043144226074
vt 0.21453428268432617 0.09642845392227173
vt 0.21453428268432617 0.09976893663406372
vt 0.2142658233642578 0.09976893663406372
vt 0.2142658233642578 0.09642845392227173
vt 0.2168940305709839 0.09962433576583862
vt 0.21551382541656494 0.09628385305404663
vt 0.2160266637802124 0.09628385305404663
vt 0.21740686893463135 0.09962433576583862
vt 0.24083983898162842 0.10258829593658447
vt 0.23945963382720947 0.09924781322479248
vt 0.23997247219085693 0.09924781322479248
vt 0.24135267734527588 0.10258835554122925
vt 0.2407524585723877 0.09932583570480347
vt 0.2421325445175171 0.10266631841659546
vt 0.241388201713562 0.0991697907447815
vt 0.2427682876586914 0.10251027345657349
vt 0.21364176273345947 0.10336834192276001
vt 0.21364176273345947 0.10002779960632324
vt 0.21411573886871338 0.10002779960632324
vt 0.21411573886871338 0.10336828231811523
vt 0.2165278196334839 0.10321229696273804
vt 0.2165278196334839 0.09987181425094604
vt 0.2170017957687378 0.09987181425094604
vt 0.2170017957687378 0.10321229696273804
vt 0.25131547451019287 0.10305631160736084
vt 0.25131547451019287 0.09971576929092407
vt 0.25171732902526855 0.09971576929092407
vt 0.25171732902526855 0.10305631160736084
vt 0.21434378623962402 0.10336834192276001
vt 0.21434378623962402 0.10002779960632324
vt 0.21461236476898193 0.10002779960632324
vt 0.21461236476898193 0.10336834192276001
vt 0.24211156368255615 0.10040432214736938
vt 0.2434917688369751 0.09706383943557739
vt 0.24400460720062256 0.09706383943557739
vt 0.2426244020462036 0.10040432214736938
vt 0.2493654489517212 0.09915637969970703
vt 0.2507457733154297 0.09581583738327026
vt 0.25125861167907715 0.09581583738327026
vt 0.2498784065246582 0.09915637969970703
vt 0.23571228981018066 0.0955430269241333
vt 0.2352381944656372 0.095645010471344
vt 0.2347642183303833 0.0955430269241333
vt 0.23611414432525635 0.09525245428085327
vt 0.23436236381530762 0.09525245428085327
vt 0.23638272285461426 0.09481769800186157
vt 0.23409390449523926 0.09481769800186157
vt 0.23647689819335938 0.09430480003356934
vt 0.2339996099472046 0.09430480003356934
vt 0.23638272285461426 0.0937919020652771
vt 0.23409390449523926 0.0937919020652771
vt 0.23611414432525635 0.09335708618164062
vt 0.23436236381530762 0.09335708618164062
vt 0.2357121706008911 0.09306657314300537
vt 0.2347642183303833 0.09306657314300537
vt 0.2352381944656372 0.0929645299911499

g Skid_Static_T5
s 1
usemtl Skid_Static_T5
f 1/1/1 2/2/2 3/3/3 
f 1/1/1 3/3/3 4/4/4 
f 5/5/5 6/6/6 7/7/7 
f 5/5/5 7/7/7 8/8/8 
f 9/9/9 10/10/10 11/11/11 
f 9/9/9 11/11/11 12/12/12 
f 13/13/13 14/14/14 15/15/15 
f 13/13/13 15/15/15 16/16/16 
f 17/17/17 18/18/18 19/19/19 
f 17/17/17 19/19/19 20/20/20 
f 21/21/21 22/22/22 23/23/23 
f 21/21/21 23/23/23 24/24/24 
f 25/25/25 26/26/26 27/27/27 
f 25/25/25 27/27/27 28/28/28 
f 29/29/29 30/30/30 31/31/31 
f 29/29/29 31/31/31 32/32/32 
f 33/33/33 34/34/34 35/35/35 
f 33/33/33 35/35/35 36/36/36 
f 37/37/37 38/38/38 39/39/39 
f 37/37/37 39/39/39 40/40/40 
f 41/41/41 42/42/42 43/43/43 
f 41/41/41 43/43/43 44/44/44 
f 45/45/45 46/46/46 47/47/47 
f 45/45/45 47/47/47 48/48/48 
f 49/49/49 50/50/50 51/51/51 
f 52/52/52 53/53/53 54/54/54 
f 55/55/55 56/56/56 57/57/57 
f 55/55/55 57/57/57 58/58/58 
f 59/59/59 60/60/60 61/61/61 
f 59/59/59 61/61/61 62/62/62 
f 63/63/63 64/64/64 65/65/65 
f 63/63/63 65/65/65 66/66/66 
f 66/66/66 65/65/65 67/67/67 
f 66/66/66 67/67/67 68/68/68 
f 69/69/69 70/70/70 71/71/71 
f 69/69/69 71/71/71 72/72/72 
f 73/73/73 74/74/74 75/75/75 
f 73/73/73 75/75/75 76/76/76 
f 77/77/77 78/78/78 79/79/79 
f 77/77/77 79/79/79 80/80/80 
f 81/81/81 82/82/82 83/83/83 
f 81/81/81 83/83/83 84/84/84 
f 84/84/84 83/83/83 85/85/85 
f 84/84/84 85/85/85 86/86/86 
f 86/86/86 85/85/85 87/87/87 
f 86/86/86 87/87/87 88/88/88 
f 89/89/89 90/90/90 91/91/91 
f 89/89/89 91/91/91 92/92/92 
f 93/93/93 94/94/94 95/95/95 
f 93/93/93 95/95/95 96/96/96 
f 97/97/97 98/98/98 99/99/99 
f 97/97/97 99/99/99 100/100/100 
f 101/101/101 102/102/102 103/103/103 
f 101/101/101 103/103/103 104/104/104 
f 105/105/105 106/106/106 107/107/107 
f 105/105/105 107/107/107 108/108/108 
f 109/109/109 110/110/110 111/111/111 
f 109/109/109 111/111/111 112/112/112 
f 113/113/113 114/114/114 115/115/115 
f 115/115/115 116/116/116 113/113/113 
f 115/115/115 117/117/117 116/116/116 
f 117/117/117 118/118/118 116/116/116 
f 117/117/117 119/119/119 118/118/118 
f 119/119/119 120/120/120 118/118/118 
f 119/119/119 121/121/121 120/120/120 
f 121/121/121 122/122/122 120/120/120 
f 121/121/121 123/123/123 122/122/122 
f 123/123/123 124/124/124 122/122/122 
f 123/123/123 125/125/125 124/124/124 
f 125/125/125 126/126/126 124/124/124 
f 125/125/125 127/127/127 126/126/126 
f 127/127/127 128/128/128 126/126/126 

