v -0.1594623327255249 -1.236913800239563 0.3248080611228943
v -0.16366033256053925 -1.6236231327056885 0.3248080611228943
v 0.3071514368057251 -1.6287345886230469 0.14601169526576996
v 0.31134942173957825 -1.2420252561569214 0.14601169526576996
v 1.3704296350479126 -1.2791932821273804 -0.2562929689884186
v 1.3746283054351807 -0.8924843668937683 -0.2562929689884186
v -1.2149018049240112 -0.8643709421157837 0.7271127700805664
v -1.2191009521484375 -1.2510801553726196 0.7271127700805664
v 1.3704296350479126 -1.2791932821273804 -0.2562929689884186
v 1.191651463508606 -1.2772523164749146 -0.7271120548248291
v 1.1958495378494263 -0.8905434012413025 -0.7271120548248291
v 1.3746283054351807 -0.8924843668937683 -0.2562929689884186
v 0.13257135450839996 -1.2400844097137451 -0.32480859756469727
v 0.12837335467338562 -1.626793622970581 -0.32480859756469727
v -0.34243839979171753 -1.6216822862625122 -0.14601099491119385
v -0.338240385055542 -1.2349728345870972 -0.14601099491119385
v -1.3978790044784546 -1.2491391897201538 0.256292462348938
v -1.2191009521484375 -1.2510801553726196 0.7271127700805664
v -1.2149018049240112 -0.8643709421157837 0.7271127700805664
v -1.3936797380447388 -0.8624300360679626 0.256292462348938
v -0.34243839979171753 -1.6216822862625122 -0.14601099491119385
v 0.12837335467338562 -1.626793622970581 -0.32480859756469727
v 0.3071514368057251 -1.6287345886230469 0.14601169526576996
v -0.16366033256053925 -1.6236231327056885 0.3248080611228943
v -0.338240385055542 -1.2349728345870972 -0.14601099491119385
v -0.1594623327255249 -1.236913800239563 0.3248080611228943
v 0.31134942173957825 -1.2420252561569214 0.14601169526576996
v 0.13257135450839996 -1.2400844097137451 -0.32480859756469727
v 1.3746283054351807 -0.8924843668937683 -0.2562929689884186
v 1.1958495378494263 -0.8905434012413025 -0.7271120548248291
v -1.3936797380447388 -0.8624300360679626 0.256292462348938
v -1.2149018049240112 -0.8643709421157837 0.7271127700805664
v 0.3071514368057251 -1.6287345886230469 0.14601169526576996
v 0.12837335467338562 -1.626793622970581 -0.32480859756469727
v 1.191651463508606 -1.2772523164749146 -0.7271120548248291
v 1.3704296350479126 -1.2791932821273804 -0.2562929689884186
v 0.12837335467338562 -1.626793622970581 -0.32480859756469727
v 0.13257135450839996 -1.2400844097137451 -0.32480859756469727
v 1.1958495378494263 -0.8905434012413025 -0.7271120548248291
v 1.191651463508606 -1.2772523164749146 -0.7271120548248291
v 0.12837335467338562 -1.626793622970581 -0.32480859756469727
v 0.13257135450839996 -1.2400844097137451 -0.32480859756469727
v 1.1958495378494263 -0.8905434012413025 -0.7271120548248291
v 1.191651463508606 -1.2772523164749146 -0.7271120548248291
v 0.13257135450839996 -1.2400844097137451 -0.32480859756469727
v 0.12837335467338562 -1.626793622970581 -0.32480859756469727
v 1.191651463508606 -1.2772523164749146 -0.7271120548248291
v 1.1958495378494263 -0.8905434012413025 -0.7271120548248291
v -0.34243839979171753 -1.6216822862625122 -0.14601099491119385
v -0.338240385055542 -1.2349728345870972 -0.14601099491119385
v -1.3936797380447388 -0.8624300360679626 0.256292462348938
v -1.3978790044784546 -1.2491391897201538 0.256292462348938
v -0.338240385055542 -1.2349728345870972 -0.14601099491119385
v -0.34243839979171753 -1.6216822862625122 -0.14601099491119385
v -1.3978790044784546 -1.2491391897201538 0.256292462348938
v -1.3936797380447388 -0.8624300360679626 0.256292462348938
v -0.34243839979171753 -1.6216822862625122 -0.14601099491119385
v -0.16366033256053925 -1.6236231327056885 0.3248080611228943
v -1.2191009521484375 -1.2510801553726196 0.7271127700805664
v -1.3978790044784546 -1.2491391897201538 0.256292462348938
v -0.338240385055542 -1.2349728345870972 -0.14601099491119385
v -0.34243839979171753 -1.6216822862625122 -0.14601099491119385
v -1.3978790044784546 -1.2491391897201538 0.256292462348938
v -1.3936797380447388 -0.8624300360679626 0.256292462348938
v -0.09004095196723938 0.9284856915473938 0.22269871830940247
v -0.11651434004306793 -1.5099101066589355 0.22269871830940247
v 0.20628106594085693 -1.5134146213531494 0.10011326521635056
v 0.23275445401668549 0.9249812364578247 0.10011326521635056
v -0.21261419355869293 0.9298164248466492 -0.10010279715061188
v -0.23908880352973938 -1.5085793733596802 -0.10010279715061188
v -0.11651434004306793 -1.5099101066589355 0.22269871830940247
v -0.09004095196723938 0.9284856915473938 0.22269871830940247
v 0.11018121242523193 0.9263119101524353 -0.222688227891922
v 0.08370782434940338 -1.512083888053894 -0.222688227891922
v 0.23275445401668549 0.9249812364578247 0.10011326521635056
v 0.20628106594085693 -1.5134146213531494 0.10011326521635056
vn 0.3549841344356537 -0.0038539946544915438 0.934864342212677
vn 0.3549841344356537 -0.0038539490196853876 0.9348644614219666
vn 0.3549843728542328 -0.0038537734653800726 0.934864342212677
vn 0.3549843728542328 -0.0038537955842912197 0.934864342212677
vn 0.3549845218658447 -0.0038538682274520397 0.9348642826080322
vn 0.35498446226119995 -0.003853867296129465 0.9348642826080322
vn 0.3549841344356537 -0.003854140406474471 0.934864342212677
vn 0.3549841344356537 -0.003854140406474471 0.934864342212677
vn 0.934809148311615 -0.010148847475647926 -0.3550054728984833
vn 0.934809148311615 -0.010148847475647926 -0.3550054728984833
vn 0.934809148311615 -0.010148845613002777 -0.3550054728984833
vn 0.934809148311615 -0.010148845613002777 -0.3550054728984833
vn -0.35498619079589844 0.003853622591122985 -0.9348636269569397
vn -0.3549862205982208 0.003853622591122985 -0.9348636269569397
vn -0.3549862504005432 0.003853623056784272 -0.9348636269569397
vn -0.3549862504005432 0.003853622591122985 -0.9348636269569397
vn -0.934809684753418 0.010151074267923832 0.35500413179397583
vn -0.934809684753418 0.010151074267923832 0.35500413179397583
vn -0.934809684753418 0.010151074267923832 0.35500413179397583
vn -0.934809684753418 0.010151074267923832 0.35500413179397583
vn -0.010855908505618572 -0.9999411106109619 0.0
vn -0.010855910368263721 -0.9999411106109619 0.0
vn -0.010855908505618572 -0.9999411106109619 0.0
vn -0.010855908505618572 -0.9999411106109619 0.0
vn 0.21196091175079346 0.974281907081604 -0.07646866887807846
vn 0.21196101605892181 0.9742817878723145 -0.07646869868040085
vn -0.19075870513916016 0.9786539673805237 0.07646878063678741
vn -0.19075891375541687 0.9786538481712341 0.07646884769201279
vn -0.2734425663948059 0.9558318853378296 0.10777116566896439
vn -0.2734425365924835 0.9558318853378296 0.10777116566896439
vn 0.29412969946861267 0.9496700167655945 -0.10777096450328827
vn 0.2941296696662903 0.9496700167655945 -0.10777096450328827
vn 0.2734428942203522 -0.95583176612854 -0.10777117311954498
vn 0.2734428942203522 -0.95583176612854 -0.10777115821838379
vn 0.2734428942203522 -0.95583176612854 -0.10777115821838379
vn 0.2734428942203522 -0.95583176612854 -0.10777117311954498
vn -0.35498350858688354 0.003853590227663517 -0.9348645806312561
vn -0.35498353838920593 0.003853590227663517 -0.9348645806312561
vn -0.35498353838920593 0.0038535906933248043 -0.9348645806312561
vn -0.3549835979938507 0.003853590227663517 -0.9348645806312561
vn -0.35498350858688354 0.003853590227663517 -0.9348645806312561
vn -0.35498353838920593 0.003853590227663517 -0.9348645806312561
vn -0.35498353838920593 0.0038535906933248043 -0.9348645806312561
vn -0.3549835979938507 0.003853590227663517 -0.9348645806312561
vn 0.3549835979938507 -0.003853590227663517 0.9348645806312561
vn 0.35498350858688354 -0.003853590227663517 0.9348645806312561
vn 0.3549835681915283 -0.003853590227663517 0.9348645806312561
vn 0.35498353838920593 -0.0038535906933248043 0.9348645806312561
vn 0.35498324036598206 -0.0038541427347809076 0.9348647594451904
vn 0.35498324036598206 -0.0038541422691196203 0.9348647594451904
vn 0.35498324036598206 -0.003854142501950264 0.9348646998405457
vn 0.35498324036598206 -0.0038541422691196203 0.9348647594451904
vn -0.35498321056365967 0.0038541422691196203 -0.9348647594451904
vn -0.35498324036598206 0.0038541427347809076 -0.9348647594451904
vn -0.35498321056365967 0.0038541422691196203 -0.9348647594451904
vn -0.35498324036598206 0.0038541427347809076 -0.9348647594451904
vn -0.29412949085235596 -0.949670135974884 0.10777093470096588
vn -0.29412946105003357 -0.949670135974884 0.10777091234922409
vn -0.29412946105003357 -0.949670135974884 0.10777092725038528
vn -0.29412946105003357 -0.949670135974884 0.10777091234922409
vn -0.35498321056365967 0.0038541422691196203 -0.9348647594451904
vn -0.35498324036598206 0.0038541427347809076 -0.9348647594451904
vn -0.35498321056365967 0.0038541422691196203 -0.9348647594451904
vn -0.35498324036598206 0.0038541427347809076 -0.9348647594451904
vn -0.4099794626235962 0.004451266024261713 0.9120839238166809
vn -0.4099796414375305 0.004451268818229437 0.9120838046073914
vn 0.9120134115219116 -0.009901630692183971 0.4100409746170044
vn 0.9120134115219116 -0.009901630692183971 0.41004082560539246
vn -0.9120134115219116 0.009901856072247028 -0.4100409746170044
vn -0.9120134711265564 0.009901856072247028 -0.4100407361984253
vn -0.4099796414375305 0.004451268818229437 0.9120838046073914
vn -0.4099794626235962 0.004451266024261713 0.9120839238166809
vn 0.4099797308444977 -0.004451045300811529 -0.9120838046073914
vn 0.4099794924259186 -0.004451042506843805 -0.9120839238166809
vn 0.9120134115219116 -0.009901630692183971 0.41004082560539246
vn 0.9120134115219116 -0.009901630692183971 0.4100409746170044
vt 0.9029641151428223 0.10847574472427368
vt 0.9037624597549438 0.10847574472427368
vt 0.9037624597549438 0.10951566696166992
vt 0.9029641151428223 0.10951566696166992
vt 0.9030169248580933 0.11185568571090698
vt 0.9022183418273926 0.11185568571090698
vt 0.9022183418273926 0.1061357855796814
vt 0.9030169248580933 0.1061357855796814
vt 0.8891024589538574 0.04785078763961792
vt 0.8891024589538574 0.046810805797576904
vt 0.8899010419845581 0.046810805797576904
vt 0.8899010419845581 0.04785078763961792
vt 0.9449034929275513 0.04808241128921509
vt 0.9441049098968506 0.04808241128921509
vt 0.9441049098968506 0.04704242944717407
vt 0.9449034929275513 0.04704242944717407
vt 0.9472076892852783 0.04796105623245239
vt 0.9472076892852783 0.04692119359970093
vt 0.9480061531066895 0.04692119359970093
vt 0.9480061531066895 0.04796105623245239
vt 0.9475425481796265 0.1088988184928894
vt 0.9475425481796265 0.10993880033493042
vt 0.9465025663375854 0.10993880033493042
vt 0.9465025663375854 0.1088988184928894
vt 0.9479129314422607 0.1088988184928894
vt 0.9489527940750122 0.1088988184928894
vt 0.9489527940750122 0.10993880033493042
vt 0.9479129314422607 0.10993880033493042
vt 0.9489527940750122 0.11227881908416748
vt 0.9479129314422607 0.11227881908416748
vt 0.9479129314422607 0.10655885934829712
vt 0.9489527940750122 0.10655885934829712
vt 0.9465025663375854 0.10993880033493042
vt 0.9475425481796265 0.10993880033493042
vt 0.9475425481796265 0.11227881908416748
vt 0.9465025663375854 0.11227881908416748
vt 0.8910768032073975 0.05084627866744995
vt 0.8918755054473877 0.05084627866744995
vt 0.8926209211349487 0.053186237812042236
vt 0.891822338104248 0.053186237812042236
vt 0.901090145111084 0.05086594820022583
vt 0.9018887281417847 0.05086594820022583
vt 0.9026342630386353 0.053205907344818115
vt 0.9018356800079346 0.053205907344818115
vt 0.9482351541519165 0.05044764280319214
vt 0.9490339756011963 0.05044764280319214
vt 0.9482883214950562 0.052787601947784424
vt 0.947489857673645 0.052787601947784424
vt 0.8981211185455322 0.052877604961395264
vt 0.8973227739334106 0.052877604961395264
vt 0.896577000617981 0.05053752660751343
vt 0.8973757028579712 0.05053752660751343
vt 0.9317874908447266 0.05363386869430542
vt 0.9309890270233154 0.05363386869430542
vt 0.931734561920166 0.051293790340423584
vt 0.9325329065322876 0.051293790340423584
vt 0.9475425481796265 0.1088988184928894
vt 0.9465025663375854 0.1088988184928894
vt 0.9465025663375854 0.10655885934829712
vt 0.9475425481796265 0.10655885934829712
vt 0.9337618350982666 0.05363386869430542
vt 0.932963490486145 0.05363386869430542
vt 0.933708906173706 0.051293790340423584
vt 0.9345076084136963 0.051293790340423584
vt 0.9415664672851562 0.11933040618896484
vt 0.9415664672851562 0.11285412311553955
vt 0.9422793388366699 0.11285412311553955
vt 0.9422793388366699 0.11933040618896484
vt 0.9456642866134644 0.11285418272018433
vt 0.9456642866134644 0.11933046579360962
vt 0.9449511766433716 0.11933046579360962
vt 0.9449511766433716 0.11285418272018433
vt 0.9467922449111938 0.11285418272018433
vt 0.9467922449111938 0.11933046579360962
vt 0.9479209184646606 0.11285418272018433
vt 0.9479209184646606 0.11933046579360962

g suspensionBottomRight
s 1
usemtl suspensionBottomRight
f 1/1/1 2/2/2 3/3/3 
f 1/1/1 3/3/3 4/4/4 
f 4/4/4 3/3/3 5/5/5 
f 4/4/4 5/5/5 6/6/6 
f 2/2/2 1/1/1 7/7/7 
f 2/2/2 7/7/7 8/8/8 
f 9/9/9 10/10/10 11/11/11 
f 9/9/9 11/11/11 12/12/12 
f 13/13/13 14/14/14 15/15/15 
f 13/13/13 15/15/15 16/16/16 
f 17/17/17 18/18/18 19/19/19 
f 17/17/17 19/19/19 20/20/20 
f 21/21/21 22/22/22 23/23/23 
f 21/21/21 23/23/23 24/24/24 
f 25/25/25 26/26/26 27/27/27 
f 25/25/25 27/27/27 28/28/28 
f 28/28/28 27/27/27 29/29/29 
f 28/28/28 29/29/29 30/30/30 
f 26/26/26 25/25/25 31/31/31 
f 26/26/26 31/31/31 32/32/32 
f 33/33/33 34/34/34 35/35/35 
f 33/33/33 35/35/35 36/36/36 
f 37/37/37 38/38/38 39/39/39 
f 37/37/37 39/39/39 40/40/40 
f 41/41/41 42/42/42 43/43/43 
f 41/41/41 43/43/43 44/44/44 
f 45/45/45 46/46/46 47/47/47 
f 45/45/45 47/47/47 48/48/48 
f 49/49/49 50/50/50 51/51/51 
f 49/49/49 51/51/51 52/52/52 
f 53/53/53 54/54/54 55/55/55 
f 53/53/53 55/55/55 56/56/56 
f 57/57/57 58/58/58 59/59/59 
f 57/57/57 59/59/59 60/60/60 
f 61/61/61 62/62/62 63/63/63 
f 61/61/61 63/63/63 64/64/64 
f 65/65/65 66/66/66 67/67/67 
f 65/65/65 67/67/67 68/68/68 
f 69/69/69 70/70/70 71/71/71 
f 69/69/69 71/71/71 72/72/72 
f 73/73/73 70/70/70 69/69/69 
f 73/73/73 74/74/74 70/70/70 
f 75/75/75 74/74/74 73/73/73 
f 75/75/75 76/76/76 74/74/74 

