v 0.14062011241912842 -0.6182382702827454 -0.14061522483825684
v 0.14062011241912842 -0.8341928124427795 -0.14061522483825684
v -0.14061889052391052 -0.8341928124427795 -0.14061522483825684
v -0.14061889052391052 -0.6182382702827454 -0.14061522483825684
v -0.5669091939926147 -0.6325717568397522 -0.14061522483825684
v -0.5669091939926147 -0.4166175127029419 -0.14061522483825684
v 0.5669091939926147 -0.4166175127029419 -0.14061522483825684
v 0.5669091939926147 -0.6325719356536865 -0.14061522483825684
v -0.5669091939926147 -0.6325717568397522 -0.14061522483825684
v -0.5669091939926147 -0.6325717568397522 0.14061522483825684
v -0.5669091939926147 -0.4166175127029419 0.14061522483825684
v -0.5669091939926147 -0.4166175127029419 -0.14061522483825684
v -0.14061889052391052 -0.6182382702827454 0.14061522483825684
v -0.14061889052391052 -0.8341928124427795 0.14061522483825684
v 0.14062011241912842 -0.8341928124427795 0.14061522483825684
v 0.14062011241912842 -0.6182382702827454 0.14061522483825684
v -0.5669091939926147 -0.4166175127029419 0.14061522483825684
v -0.5669091939926147 -0.6325717568397522 0.14061522483825684
v 0.5669091939926147 -0.6325719356536865 0.14061522483825684
v 0.5669091939926147 -0.6325719356536865 -0.14061522483825684
v 0.5669091939926147 -0.4166175127029419 -0.14061522483825684
v 0.5669091939926147 -0.4166175127029419 0.14061522483825684
v 0.14062011241912842 -0.8341928124427795 0.14061522483825684
v -0.14061889052391052 -0.8341928124427795 0.14061522483825684
v -0.14061889052391052 -0.8341928124427795 -0.14061522483825684
v 0.14062011241912842 -0.8341928124427795 -0.14061522483825684
v 0.14062011241912842 -0.6182382702827454 0.14061522483825684
v 0.14062011241912842 -0.6182382702827454 -0.14061522483825684
v -0.14061889052391052 -0.6182382702827454 -0.14061522483825684
v -0.14061889052391052 -0.6182382702827454 0.14061522483825684
v -0.5669091939926147 -0.4166175127029419 -0.14061522483825684
v -0.5669091939926147 -0.4166175127029419 0.14061522483825684
v 0.5669091939926147 -0.4166175127029419 0.14061522483825684
v 0.5669091939926147 -0.4166175127029419 -0.14061522483825684
v -0.14061889052391052 -0.8341928124427795 -0.14061522483825684
v -0.14061889052391052 -0.8341928124427795 0.14061522483825684
v -0.5669091939926147 -0.6325717568397522 0.14061522483825684
v -0.5669091939926147 -0.6325717568397522 -0.14061522483825684
v -0.14061889052391052 -0.8341928124427795 0.14061522483825684
v -0.14061889052391052 -0.6182382702827454 0.14061522483825684
v -0.5669091939926147 -0.4166175127029419 0.14061522483825684
v -0.5669091939926147 -0.6325717568397522 0.14061522483825684
v -0.14061889052391052 -0.6182382702827454 0.14061522483825684
v -0.14061889052391052 -0.8341928124427795 0.14061522483825684
v -0.5669091939926147 -0.6325717568397522 0.14061522483825684
v -0.5669091939926147 -0.4166175127029419 0.14061522483825684
v 0.14062011241912842 -0.8341928124427795 0.14061522483825684
v 0.14062011241912842 -0.6182382702827454 0.14061522483825684
v 0.5669091939926147 -0.4166175127029419 0.14061522483825684
v 0.5669091939926147 -0.6325719356536865 0.14061522483825684
v 0.14062011241912842 -0.6182382702827454 0.14061522483825684
v 0.14062011241912842 -0.8341928124427795 0.14061522483825684
v 0.5669091939926147 -0.6325719356536865 0.14061522483825684
v 0.5669091939926147 -0.4166175127029419 0.14061522483825684
v 0.14062011241912842 -0.8341928124427795 0.14061522483825684
v 0.14062011241912842 -0.8341928124427795 -0.14061522483825684
v 0.5669091939926147 -0.6325719356536865 -0.14061522483825684
v 0.5669091939926147 -0.6325719356536865 0.14061522483825684
v 0.14062011241912842 -0.6182382702827454 0.14061522483825684
v 0.14062011241912842 -0.8341928124427795 0.14061522483825684
v 0.5669091939926147 -0.6325719356536865 0.14061522483825684
v 0.5669091939926147 -0.4166175127029419 0.14061522483825684
v 0.09702026098966599 0.8341928124427795 -0.09702148288488388
v 0.09702026098966599 -0.8000994920730591 -0.09702148288488388
v -0.0970178171992302 -0.8000994920730591 -0.09702148288488388
v -0.0970178171992302 0.8341928124427795 -0.09702148288488388
v 0.09702026098966599 0.8341928124427795 0.09701171517372131
v 0.09702026098966599 -0.8000994920730591 0.09701171517372131
v 0.09702026098966599 -0.8000994920730591 -0.09702148288488388
v 0.09702026098966599 0.8341928124427795 -0.09702148288488388
v -0.0970178171992302 0.8341928124427795 0.09701171517372131
v -0.0970178171992302 -0.8000994920730591 0.09701171517372131
v -0.0970178171992302 0.8341928124427795 -0.09702148288488388
v -0.0970178171992302 -0.8000994920730591 -0.09702148288488388
vn -2.8009460493194638e-06 0.0 -1.0
vn -2.212422259617597e-06 0.0 -1.0
vn 0.0 0.0 -1.0
vn 0.0 0.0 -1.0
vn 0.0 0.0 -1.0
vn 0.0 0.0 -1.0
vn -4.2432002373971045e-06 0.0 -1.0
vn -4.243199782649754e-06 0.0 -1.0
vn -1.0 0.0 0.0
vn -1.0 0.0 0.0
vn -1.0 0.0 0.0
vn -1.0 0.0 0.0
vn 0.0 0.0 1.0
vn 0.0 0.0 1.0
vn 0.0 0.0 1.0
vn 0.0 0.0 1.0
vn 0.0 0.0 1.0
vn 0.0 0.0 1.0
vn 1.0 0.0 0.0
vn 1.0 0.0 0.0
vn 1.0 0.0 0.0
vn 1.0 0.0 0.0
vn 0.0 -1.0 0.0
vn 0.0 -1.0 0.0
vn 0.0 -1.0 0.0
vn 0.0 -1.0 0.0
vn -0.27405503392219543 0.961713969707489 0.0
vn -0.27405503392219543 0.961713969707489 0.0
vn 0.27405479550361633 0.9617140889167786 0.0
vn 0.27405479550361633 0.9617140889167786 0.0
vn 0.42755651473999023 0.9039886593818665 0.0
vn 0.42755651473999023 0.9039886593818665 0.0
vn -0.4275570511817932 0.9039883613586426 0.0
vn -0.4275570511817932 0.9039883613586426 0.0
vn -0.42755651473999023 -0.9039886593818665 0.0
vn -0.42755651473999023 -0.9039886593818665 0.0
vn -0.42755651473999023 -0.9039886593818665 0.0
vn -0.42755651473999023 -0.9039886593818665 0.0
vn 0.0 0.0 1.0
vn 0.0 0.0 1.0
vn 0.0 0.0 1.0
vn 0.0 0.0 1.0
vn 0.0 0.0 -1.0
vn 0.0 0.0 -1.0
vn 0.0 0.0 -1.0
vn 0.0 0.0 -1.0
vn 0.0 0.0 -1.0
vn 0.0 0.0 -1.0
vn 0.0 0.0 -1.0
vn 0.0 0.0 -1.0
vn 0.0 0.0 1.0
vn 0.0 0.0 1.0
vn 0.0 0.0 1.0
vn 0.0 0.0 1.0
vn 0.4275570511817932 -0.9039883613586426 0.0
vn 0.4275570511817932 -0.9039883613586426 0.0
vn 0.4275570511817932 -0.9039883613586426 0.0
vn 0.4275570511817932 -0.9039883613586426 0.0
vn 0.0 0.0 1.0
vn 0.0 0.0 1.0
vn 0.0 0.0 1.0
vn 0.0 0.0 1.0
vn 0.7070971131324768 0.0 -0.707116425037384
vn 0.7070971131324768 0.0 -0.707116425037384
vn -0.7070971131324768 0.0 -0.707116425037384
vn -0.7070971131324768 0.0 -0.707116425037384
vn 0.7070971131324768 0.0 0.707116425037384
vn 0.7070971131324768 0.0 0.707116425037384
vn 0.7070971131324768 0.0 -0.707116425037384
vn 0.7070971131324768 0.0 -0.707116425037384
vn -0.7070971131324768 0.0 0.707116425037384
vn -0.7070971131324768 0.0 0.707116425037384
vn -0.7070971131324768 0.0 -0.707116425037384
vn -0.7070971131324768 0.0 -0.707116425037384
vt 0.9336045384407043 0.0856090784072876
vt 0.93451327085495 0.0856090784072876
vt 0.93451327085495 0.08679234981536865
vt 0.9336045384407043 0.08679234981536865
vt 0.9336647391319275 0.08858591318130493
vt 0.9327561259269714 0.08858591318130493
vt 0.9327561259269714 0.08381545543670654
vt 0.9336647391319275 0.08381545543670654
vt 0.9495391249656677 0.04302781820297241
vt 0.9495391249656677 0.04184454679489136
vt 0.9504478573799133 0.04184454679489136
vt 0.9504478573799133 0.04302781820297241
vt 0.9311262965202332 0.043168842792510986
vt 0.9302175641059875 0.043168842792510986
vt 0.9302175641059875 0.04198557138442993
vt 0.9311262965202332 0.04198557138442993
vt 0.9318334460258484 0.04543048143386841
vt 0.9309248328208923 0.04543048143386841
vt 0.9554627537727356 0.04302781820297241
vt 0.9554627537727356 0.04184454679489136
vt 0.9563713669776917 0.04184454679489136
vt 0.9563713669776917 0.04302781820297241
vt 0.9096820950508118 0.0857500433921814
vt 0.9096820950508118 0.08693331480026245
vt 0.9084988236427307 0.08693331480026245
vt 0.9084988236427307 0.0857500433921814
vt 0.9310639500617981 0.0857500433921814
vt 0.9322472214698792 0.0857500433921814
vt 0.9322472214698792 0.08693331480026245
vt 0.9310639500617981 0.08693331480026245
vt 0.9322472214698792 0.0887269377708435
vt 0.9310639500617981 0.0887269377708435
vt 0.9310639500617981 0.08395653963088989
vt 0.9322472214698792 0.08395653963088989
vt 0.9084988236427307 0.08693331480026245
vt 0.9096820950508118 0.08693331480026245
vt 0.9096820950508118 0.0887269377708435
vt 0.9084988236427307 0.0887269377708435
vt 0.9113193154335022 0.043777406215667725
vt 0.9122280478477478 0.043777406215667725
vt 0.9130762219429016 0.04557102918624878
vt 0.9121676087379456 0.04557102918624878
vt 0.9499643445014954 0.04349035024642944
vt 0.9508729577064514 0.04349035024642944
vt 0.9500247836112976 0.0452839732170105
vt 0.949116051197052 0.0452839732170105
vt 0.9161790013313293 0.0452839732170105
vt 0.9152703881263733 0.0452839732170105
vt 0.9144222140312195 0.04349035024642944
vt 0.9153308272361755 0.04349035024642944
vt 0.8962915539741516 0.04560166597366333
vt 0.8953829407691956 0.04560166597366333
vt 0.8962311148643494 0.043808162212371826
vt 0.8971397280693054 0.043808162212371826
vt 0.9096820950508118 0.0857500433921814
vt 0.9084988236427307 0.0857500433921814
vt 0.9084988236427307 0.08395653963088989
vt 0.9096820950508118 0.08395653963088989
vt 0.9212539792060852 0.04555624723434448
vt 0.9203453660011292 0.04555624723434448
vt 0.9211936593055725 0.04376262426376343
vt 0.9221022725105286 0.04376262426376343
vt 0.9104731678962708 0.1135486364364624
vt 0.9104731678962708 0.10667246580123901
vt 0.9112895131111145 0.10667246580123901
vt 0.9112895131111145 0.1135486364364624
vt 0.9124177098274231 0.10667246580123901
vt 0.9124177098274231 0.1135486364364624
vt 0.9116016030311584 0.1135486364364624
vt 0.9116016030311584 0.10667246580123901
vt 0.9135461449623108 0.10667246580123901
vt 0.9135461449623108 0.1135486364364624
vt 0.914815366268158 0.10667246580123901
vt 0.914815366268158 0.1135486364364624

g suspension
s 1
usemtl suspension
f 1/1/1 2/2/2 3/3/3 
f 1/1/1 3/3/3 4/4/4 
f 4/4/4 3/3/3 5/5/5 
f 4/4/4 5/5/5 6/6/6 
f 2/2/2 1/1/1 7/7/7 
f 2/2/2 7/7/7 8/8/8 
f 9/9/9 10/10/10 11/11/11 
f 9/9/9 11/11/11 12/12/12 
f 13/13/13 14/14/14 15/15/15 
f 13/13/13 15/15/15 16/16/16 
f 14/14/14 13/13/13 17/17/17 
f 14/14/14 17/17/17 18/18/18 
f 19/19/19 20/20/20 21/21/21 
f 19/19/19 21/21/21 22/22/22 
f 23/23/23 24/24/24 25/25/25 
f 23/23/23 25/25/25 26/26/26 
f 27/27/27 28/28/28 29/29/29 
f 27/27/27 29/29/29 30/30/30 
f 30/30/30 29/29/29 31/31/31 
f 30/30/30 31/31/31 32/32/32 
f 28/28/28 27/27/27 33/33/33 
f 28/28/28 33/33/33 34/34/34 
f 35/35/35 36/36/36 37/37/37 
f 35/35/35 37/37/37 38/38/38 
f 39/39/39 40/40/40 41/41/41 
f 39/39/39 41/41/41 42/42/42 
f 43/43/43 44/44/44 45/45/45 
f 43/43/43 45/45/45 46/46/46 
f 47/47/47 48/48/48 49/49/49 
f 47/47/47 49/49/49 50/50/50 
f 51/51/51 52/52/52 53/53/53 
f 51/51/51 53/53/53 54/54/54 
f 55/55/55 56/56/56 57/57/57 
f 55/55/55 57/57/57 58/58/58 
f 59/59/59 60/60/60 61/61/61 
f 59/59/59 61/61/61 62/62/62 
f 63/63/63 64/64/64 65/65/65 
f 63/63/63 65/65/65 66/66/66 
f 67/67/67 68/68/68 69/69/69 
f 67/67/67 69/69/69 70/70/70 
f 71/71/71 68/68/68 67/67/67 
f 71/71/71 72/72/72 68/68/68 
f 73/73/73 72/72/72 71/71/71 
f 73/73/73 74/74/74 72/72/72 

