v 0.8723474144935608 0.07497821003198624 -0.1298660933971405
v -0.8723474144935608 0.07497821003198624 -0.1298660933971405
v -0.8723474144935608 0.07497821003198624 0.1298653483390808
v 0.8723474144935608 0.07497821003198624 0.1298653483390808
v 0.8723474144935608 0.07497821003198624 0.1298653483390808
v -0.8723474144935608 0.07497821003198624 0.1298653483390808
v -0.8723474144935608 -0.1499563306570053 -3.752962243197544e-07
v 0.8723474144935608 -0.1499563306570053 -3.752962243197544e-07
v 0.8723474144935608 -0.1499563306570053 -3.752962243197544e-07
v -0.8723474144935608 -0.1499563306570053 -3.752962243197544e-07
v -0.8723474144935608 0.07497821003198624 -0.1298660933971405
v 0.8723474144935608 0.07497821003198624 -0.1298660933971405
v 0.8723474144935608 0.07497821003198624 0.1298653483390808
v 0.8723474144935608 3.1037455272553416e-08 -3.752962243197544e-07
v 0.8723474144935608 0.07497821003198624 -0.1298660933971405
v 0.8723474144935608 -0.1499563306570053 -3.752962243197544e-07
v -0.8723474144935608 0.07497821003198624 -0.1298660933971405
v -0.8723474144935608 3.1037455272553416e-08 -3.752962243197544e-07
v -0.8723474144935608 0.07497821003198624 0.1298653483390808
v -0.8723474144935608 -0.1499563306570053 -3.752962243197544e-07
vn 0.0 1.0 0.0
vn 0.0 1.0 0.0
vn 0.0 1.0 0.0
vn 0.0 1.0 0.0
vn 0.0 -0.499999076128006 0.866025984287262
vn 0.0 -0.499999076128006 0.866025984287262
vn 0.0 -0.499999076128006 0.866025984287262
vn 0.0 -0.499999076128006 0.866025984287262
vn 0.0 -0.499999076128006 -0.866025984287262
vn 0.0 -0.499999076128006 -0.866025984287262
vn 0.0 -0.499999076128006 -0.866025984287262
vn 0.0 -0.499999076128006 -0.866025984287262
vn 1.0 0.0 0.0
vn 1.0 0.0 0.0
vn 1.0 0.0 0.0
vn 1.0 0.0 0.0
vn -1.0 0.0 0.0
vn -1.0 0.0 0.0
vn -1.0 0.0 0.0
vn -1.0 0.0 0.0
vt 0.5663565397262573 0.12020355463027954
vt 0.5663565397262573 0.09088283777236938
vt 0.5728560090065002 0.09088283777236938
vt 0.5728560090065002 0.12020355463027954
vt 0.5728560090065002 0.12020355463027954
vt 0.5728560090065002 0.09088283777236938
vt 0.5793554186820984 0.09088283777236938
vt 0.5793554186820984 0.12020355463027954
vt 0.5793554186820984 0.12020355463027954
vt 0.5793554186820984 0.09088283777236938
vt 0.5858548283576965 0.09088283777236938
vt 0.5858548283576965 0.12020355463027954
vt 0.5700125098228455 0.12183624505996704
vt 0.5761057138442993 0.1328774094581604
vt 0.5700125098228455 0.14294373989105225
vt 0.588292121887207 0.13238996267318726
vt 0.5700125098228455 0.06821596622467041
vt 0.5761057138442993 0.07925719022750854
vt 0.5700125098228455 0.08932346105575562
vt 0.588292121887207 0.0787697434425354

g wheelTopLeft
s 1
usemtl wheelTopLeft
f 1/1/1 2/2/2 3/3/3 
f 1/1/1 3/3/3 4/4/4 
f 5/5/5 6/6/6 7/7/7 
f 5/5/5 7/7/7 8/8/8 
f 9/9/9 10/10/10 11/11/11 
f 9/9/9 11/11/11 12/12/12 
f 13/13/13 14/14/14 15/15/15 
f 16/16/16 14/14/14 13/13/13 
f 15/15/15 14/14/14 16/16/16 
f 17/17/17 18/18/18 19/19/19 
f 19/19/19 18/18/18 20/20/20 
f 20/20/20 18/18/18 17/17/17 

