v -0.46009334921836853 -0.4592013359069824 -0.4429510831832886
v -0.46009334921836853 -0.4592013359069824 0.41768378019332886
v -0.46009334921836853 0.44020628929138184 -0.4592013359069824
v 0.4600933790206909 -0.4592013359069824 -0.44215407967567444
v 0.4600933790206909 0.44020628929138184 -0.4592013359069824
v 0.46009328961372375 -0.4592013359069824 0.41768378019332886
v 0.3999999761581421 -0.3999999761581421 -0.4600939154624939
v -0.3999999761581421 -0.3999999761581421 -0.4600939154624939
v -0.3999999761581421 0.44020628929138184 -0.4600939154624939
v 0.3999999761581421 0.44020628929138184 -0.4600939154624939
v 0.3999999761581421 -0.4600939154624939 0.4360865652561188
v -0.3999999761581421 -0.4600939154624939 0.4360865652561188
v -0.3999999761581421 -0.4600939154624939 -0.3999999761581421
v 0.3999999761581421 -0.4600939154624939 -0.3999999761581421
v 0.41180548071861267 0.4360719621181488 -0.4228615164756775
v -0.41180548071861267 0.4360719621181488 -0.4228615164756775
v -0.41180548071861267 -0.4228615164756775 0.43195226788520813
v 0.41180548071861267 -0.4228615164756775 0.43195226788520813
vn -1.0 0.0 0.0
vn -1.0 0.0 0.0
vn -1.0 0.0 0.0
vn 1.0 0.0 0.0
vn 1.0 0.0 0.0
vn 1.0 0.0 0.0
vn 0.0 0.0 -1.0
vn 0.0 0.0 -1.0
vn 0.0 0.0 -1.0
vn 0.0 0.0 -1.0
vn 0.0 -1.0 0.0
vn 0.0 -1.0 0.0
vn 0.0 -1.0 0.0
vn 0.0 -1.0 0.0
vn 0.0 0.7054049968719482 0.7088045477867126
vn 0.0 0.7054049968719482 0.7088045477867126
vn 0.0 0.7054049968719482 0.7088045477867126
vn 0.0 0.7054049968719482 0.7088045477867126
vt 0.23732154071331024 0.7387329638004303
vt 0.12387745082378387 0.7387329638004303
vt 0.23946356773376465 0.6201780736446381
vt 0.2450106143951416 0.7387329638004303
vt 0.24276353418827057 0.6201780736446381
vt 0.35834962129592896 0.7387329638004303
vt 0.39355242252349854 0.5121833980083466
vt 0.49900397658348083 0.5121833980083466
vt 0.49900397658348083 0.6229346990585327
vt 0.39355242252349854 0.6229346990585327
vt 0.285033255815506 0.5079740881919861
vt 0.3904847800731659 0.5079740881919861
vt 0.3904847800731659 0.6181823313236237
vt 0.285033255815506 0.6181823313236237
vt 0.36164963245391846 0.6249304413795471
vt 0.4702134132385254 0.6249304413795471
vt 0.4702134132385254 0.7376072406768799
vt 0.36164963245391846 0.7376072406768799

g Glass_Edge
s 1
usemtl Glass_Edge
f 1/1/1 2/2/2 3/3/3 
f 4/4/4 5/5/5 6/6/6 
f 7/7/7 8/8/8 9/9/9 
f 7/7/7 9/9/9 10/10/10 
f 11/11/11 12/12/12 13/13/13 
f 11/11/11 13/13/13 14/14/14 
f 15/15/15 16/16/16 17/17/17 
f 15/15/15 17/17/17 18/18/18 

