v -0.4600927233695984 -0.4592013359069824 0.4176837205886841
v -0.4343476891517639 -0.29650992155075073 0.3972170054912567
v -0.46009397506713867 -0.13062003254890442 0.3931628465652466
v 0.46484124660491943 -0.4592013359069824 -0.4095098376274109
v 0.46484121680259705 0.08056122809648514 0.2650580108165741
v 0.46484124660491943 -0.13061998784542084 0.3931628465652466
v 0.46484121680259705 0.2660224735736847 0.07960574328899384
v 0.46484121680259705 0.40063291788101196 -0.148792564868927
v 0.46484121680259705 0.45910775661468506 -0.42655760049819946
v 0.46484076976776123 -0.29650989174842834 0.3972170054912567
v 0.46484121680259705 -0.4592013359069824 0.4176837205886841
v 0.3999999761581421 -0.3999999761581421 -0.46009397506713867
v -0.3999999761581421 -0.3999999761581421 -0.46009397506713867
v -0.3999999761581421 0.44020628929138184 -0.46009397506713867
v 0.3999999761581421 0.44020628929138184 -0.46009397506713867
v 0.3999999761581421 -0.4600939154624939 0.4740069508552551
v -0.3999999761581421 -0.4600939154624939 0.43608641624450684
v -0.3999999761581421 -0.4600939154624939 -0.3999999761581421
v 0.3999999761581421 -0.4600939154624939 -0.3999999761581421
v 0.46484124660491943 -0.13061998784542084 0.3931628465652466
v 0.46484121680259705 0.08056122809648514 0.2650580108165741
v -0.4600927233695984 0.08056122809648514 0.2650580108165741
v -0.46009397506713867 -0.13062003254890442 0.3931628465652466
v -0.4600927233695984 0.2660224735736847 0.07960574328899384
v 0.46484121680259705 0.2660224735736847 0.07960574328899384
v -0.4600927233695984 0.40063291788101196 -0.148792564868927
v 0.46484121680259705 0.40063291788101196 -0.148792564868927
v -0.4600927233695984 0.45910775661468506 -0.42655760049819946
v 0.46484121680259705 0.45910775661468506 -0.42655760049819946
v 0.4600933790206909 -0.4282388985157013 0.46750736236572266
v -0.4600933790206909 -0.4282388985157013 0.46750736236572266
v 0.46484124660491943 -0.13061998784542084 0.3931628465652466
v 0.4600933790206909 -0.4282388985157013 0.46750736236572266
v 0.46484076976776123 -0.29650989174842834 0.3972170054912567
v -0.4343476891517639 -0.29650992155075073 0.3972170054912567
v -0.4600933790206909 -0.4282388985157013 0.46750736236572266
v -0.46009397506713867 -0.13062003254890442 0.3931628465652466
v -0.4600927233695984 -0.4592013359069824 -0.4103069603443146
v -0.46009397506713867 -0.13062003254890442 0.3931628465652466
v -0.4600927233695984 0.08056122809648514 0.2650580108165741
v -0.4600927233695984 -0.4592013359069824 0.4176837205886841
v -0.4600927233695984 0.2660224735736847 0.07960574328899384
v -0.4600927233695984 0.40063291788101196 -0.148792564868927
v -0.4600927233695984 0.45910775661468506 -0.42655760049819946
vn 0.3069184422492981 0.07082879543304443 0.9490965604782104
vn 0.3069184422492981 0.07082879543304443 0.9490965604782104
vn 0.3069184720516205 0.07082878798246384 0.9490965604782104
vn 1.0 2.3075428146057675e-07 0.0
vn 1.0 2.3075428146057675e-07 0.0
vn 1.0 2.3075428146057675e-07 0.0
vn 1.0 1.0546943229883254e-07 0.0
vn 1.0 0.0 0.0
vn 1.0 0.0 0.0
vn 1.0 1.8147353841868608e-07 5.590201226368663e-07
vn 1.0 1.8147353841868608e-07 5.590201226368663e-07
vn 0.0 0.0 -1.0
vn 0.0 0.0 -1.0
vn 0.0 0.0 -1.0
vn 0.0 0.0 -1.0
vn 0.0 -1.0 0.0
vn 0.0 -1.0 0.0
vn 0.0 -1.0 0.0
vn 0.0 -1.0 0.0
vn 0.001555092167109251 0.3705354630947113 0.9288170337677002
vn 0.0 0.6201537847518921 0.7844803333282471
vn 0.0 0.6201536655426025 0.7844803929328918
vn 0.0 0.3698829114437103 0.9290784001350403
vn 0.0 0.791027843952179 0.6117801666259766
vn 0.0 0.791027843952179 0.6117801666259766
vn 0.0 0.9343273043632507 0.3564163148403168
vn 0.0 0.9343273043632507 0.3564163148403168
vn 0.0 0.9785512685775757 0.20600385963916779
vn 0.0 0.9785512685775757 0.20600385963916779
vn 0.003045897465199232 0.24230411648750305 0.9701955914497375
vn 0.0 0.24235090613365173 0.9701886177062988
vn 0.001555092167109251 0.3705354630947113 0.9288170337677002
vn 0.003045897465199232 0.24230411648750305 0.9701955914497375
vn 0.9975032210350037 0.0017231089295819402 0.0705995112657547
vn -0.8154453039169312 -0.1402824968099594 -0.5615780353546143
vn -0.8154451847076416 -0.1402825117111206 -0.5615780353546143
vn -0.8154453039169312 -0.1402825266122818 -0.5615780353546143
vn -1.0 4.380845439300174e-06 -3.208567022738862e-06
vn -1.0 4.380845439300174e-06 -3.208567022738862e-06
vn -1.0 4.380845894047525e-06 -3.2085672501125373e-06
vn -1.0 -3.948430276068393e-06 0.0
vn -1.0 0.0 0.0
vn -1.0 0.0 0.0
vn -1.0 0.0 0.0
vt 0.12387745082378387 0.7387329638004303
vt 0.13832572102546692 0.7239136099815369
vt 0.1599981188774109 0.7016845345497131
vt 0.2450106143951416 0.7387329638004303
vt 0.315004825592041 0.6942748725414276
vt 0.32222896814346313 0.7016845345497131
vt 0.30055657029151917 0.6794555187225342
vt 0.27166005969047546 0.6498168110847473
vt 0.24276353418827057 0.6201780736446381
vt 0.3439013659954071 0.7239136099815369
vt 0.35834962129592896 0.7387329638004303
vt 0.39355242252349854 0.5121833980083466
vt 0.49900397658348083 0.5121833980083466
vt 0.49900397658348083 0.6229346990585327
vt 0.39355242252349854 0.6229346990585327
vt 0.285033255815506 0.5079740881919861
vt 0.3904847800731659 0.5079740881919861
vt 0.3904847800731659 0.6181823313236237
vt 0.285033255815506 0.6181823313236237
vt 0.36164963245391846 0.7148865759372711
vt 0.36164963245391846 0.6953534483909607
vt 0.4702134132385254 0.6953534483909607
vt 0.4702134132385254 0.7148865759372711
vt 0.4702134132385254 0.6735437214374542
vt 0.36164963245391846 0.6735437214374542
vt 0.4702134132385254 0.6530996561050415
vt 0.36164963245391846 0.6530996561050415
vt 0.4702134132385254 0.6249304413795471
vt 0.36164963245391846 0.6249304413795471
vt 0.36164963245391846 0.7368569374084473
vt 0.4702134132385254 0.7368569374084473
vt 0.32222896814346313 0.7016845345497131
vt 0.32945311069488525 0.709094226360321
vt 0.3439013659954071 0.7239136099815369
vt 0.13832572102546692 0.7239136099815369
vt 0.15277397632598877 0.709094226360321
vt 0.1599981188774109 0.7016845345497131
vt 0.23732154071331024 0.7387329638004303
vt 0.1599981188774109 0.7016845345497131
vt 0.16722224652767181 0.6942748725414276
vt 0.12387745082378387 0.7387329638004303
vt 0.18167051672935486 0.6794555187225342
vt 0.21056704223155975 0.6498168110847473
vt 0.23946356773376465 0.6201780736446381

g Glass_RoundEdge
s 1
usemtl Glass_RoundEdge
f 1/1/1 2/2/2 3/3/3 
f 4/4/4 5/5/5 6/6/6 
f 4/4/4 7/7/7 5/5/5 
f 4/4/4 8/8/8 7/7/7 
f 4/4/4 9/9/9 8/8/8 
f 4/4/4 6/6/6 10/10/10 
f 4/4/4 10/10/10 11/11/11 
f 12/12/12 13/13/13 14/14/14 
f 12/12/12 14/14/14 15/15/15 
f 16/16/16 17/17/17 18/18/18 
f 16/16/16 18/18/18 19/19/19 
f 20/20/20 21/21/21 22/22/22 
f 20/20/20 22/22/22 23/23/23 
f 21/21/21 24/24/24 22/22/22 
f 21/21/21 25/25/25 24/24/24 
f 25/25/25 26/26/26 24/24/24 
f 25/25/25 27/27/27 26/26/26 
f 27/27/27 28/28/28 26/26/26 
f 27/27/27 29/29/29 28/28/28 
f 30/30/30 20/20/20 23/23/23 
f 30/30/30 23/23/23 31/31/31 
f 32/32/32 33/33/33 34/34/34 
f 35/35/35 36/36/36 37/37/37 
f 38/38/38 39/39/39 40/40/40 
f 38/38/38 41/41/41 39/39/39 
f 38/38/38 40/40/40 42/42/42 
f 38/38/38 42/42/42 43/43/43 
f 38/38/38 43/43/43 44/44/44 

