v 0.5 -0.5 -0.5
v -0.5 -0.5 -0.5
v 0.5 0.5 -0.5
v 0.5 -0.5 -0.5
v 0.5 0.5 -0.5
v 0.5 -0.19999998807907104 -0.19999998807907104
v 0.0 0.0 4.5474734072206875e-15
v 0.5 -0.19999998807907104 -0.19999998807907104
v 0.5 0.5 -0.5
v 0.0 0.0 4.5474734072206875e-15
v -0.5 -0.5 -0.5
v 0.5 -0.5 -0.5
v 0.5 -0.19999998807907104 -0.19999998807907104
v -0.5 -0.5 -0.5
v 0.0 0.0 4.5474734072206875e-15
v 0.5 0.5 -0.5
vn 0.0 0.0 -1.0
vn 0.0 0.0 -1.0
vn 0.0 0.0 -1.0
vn 1.0 0.0 0.0
vn 1.0 0.0 0.0
vn 1.0 0.0 0.0
vn 0.4649905562400818 0.34874293208122253 0.8137334585189819
vn 0.4649905562400818 0.34874293208122253 0.8137334585189819
vn 0.4649905562400818 0.34874293208122253 0.8137334585189819
vn 0.0 -0.7071067690849304 0.7071067690849304
vn 0.0 -0.7071067690849304 0.7071067690849304
vn 0.0 -0.7071067690849304 0.7071067690849304
vn 0.0 -0.7071067690849304 0.7071067690849304
vn -0.7071067690849304 0.7071067690849304 0.0
vn -0.7071067690849304 0.7071067690849304 0.0
vn -0.7071067690849304 0.7071067690849304 0.0
vt 0.7829952239990234 0.7700718641281128
vt 0.8283011317253113 0.985205814242363
vt 0.98618084192276 0.8272475600242615
vt 0.7829952239990234 0.7700718641281128
vt 0.7279077172279358 0.554933488368988
vt 0.4896465241909027 0.7455506920814514
vt 0.3078572750091553 0.8209613710641861
vt 0.4896465241909027 0.7455506920814514
vt 0.45114409923553467 0.8152061700820923
vt 0.3078572750091553 0.8209613710641861
vt 0.8283011317253113 0.985205814242363
vt 0.7829952239990234 0.7700718641281128
vt 0.4896465241909027 0.7455506920814514
vt 0.8283011317253113 0.985205814242363
vt 0.3078572750091553 0.8209613710641861
vt 0.45114409923553467 0.8152061700820923

g innerSlope_Collision3
s 1
usemtl innerSlope_Collision3
f 1/1/1 2/2/2 3/3/3 
f 4/4/4 5/5/5 6/6/6 
f 7/7/7 8/8/8 9/9/9 
f 10/10/10 11/11/11 12/12/12 
f 10/10/10 12/12/12 13/13/13 
f 14/14/14 15/15/15 16/16/16 

