v -0.5 -0.5 -0.5
v -0.5 -0.5 0.5
v -0.5 0.5 0.5
v -0.19999998807907104 -0.19999998807907104 0.5
v -0.5 0.5 0.5
v -0.5 -0.5 0.5
v -0.5 0.5 0.5
v -0.19999998807907104 -0.19999998807907104 0.5
v 0.0 0.0 4.5474734072206875e-15
v -0.19999998807907104 -0.19999998807907104 0.5
v -0.5 -0.5 0.5
v -0.5 -0.5 -0.5
v 0.0 0.0 4.5474734072206875e-15
v -0.5 0.5 0.5
v 0.0 0.0 4.5474734072206875e-15
v -0.5 -0.5 -0.5
vn -1.0 0.0 0.0
vn -1.0 0.0 0.0
vn -1.0 0.0 0.0
vn 0.0 0.0 1.0
vn 0.0 0.0 1.0
vn 0.0 0.0 1.0
vn 0.8137334585189819 0.34874293208122253 0.4649905562400818
vn 0.8137334585189819 0.34874293208122253 0.4649905562400818
vn 0.8137334585189819 0.34874293208122253 0.4649905562400818
vn 0.7071067690849304 -0.7071067690849304 0.0
vn 0.7071067690849304 -0.7071067690849304 0.0
vn 0.7071067690849304 -0.7071067690849304 0.0
vn 0.7071067690849304 -0.7071067690849304 0.0
vn 0.0 0.7071067690849304 -0.7071067690849304
vn 0.0 0.7071067690849304 -0.7071067690849304
vn 0.0 0.7071067690849304 -0.7071067690849304
vt 0.98618084192276 0.9852060526609421
vt 0.7040553092956543 0.7700717449188232
vt 0.8283013105392456 0.8272472023963928
vt 0.42210686206817627 0.7067210078239441
vt 0.5798145532608032 0.7030335962772369
vt 0.7040553092956543 0.7700717449188232
vt 0.24052077531814575 0.693952739238739
vt 0.42210686206817627 0.7067210078239441
vt 0.3078572750091553 0.8209613710641861
vt 0.42210686206817627 0.7067210078239441
vt 0.7040553092956543 0.7700717449188232
vt 0.98618084192276 0.9852060526609421
vt 0.3078572750091553 0.8209613710641861
vt 0.8283013105392456 0.8272472023963928
vt 0.3078572750091553 0.8209613710641861
vt 0.98618084192276 0.9852060526609421

g innerSlope_Collision5
s 1
usemtl innerSlope_Collision5
f 1/1/1 2/2/2 3/3/3 
f 4/4/4 5/5/5 6/6/6 
f 7/7/7 8/8/8 9/9/9 
f 10/10/10 11/11/11 12/12/12 
f 10/10/10 12/12/12 13/13/13 
f 14/14/14 15/15/15 16/16/16 

