v 0.5 -0.5 0.5
v 0.5 -0.5 -0.5
v 0.5 0.5 0.5
v 0.5 0.5 -0.5
v -0.5 -0.5 -0.5
v -0.5 -0.5 0.5
v -0.5 0.49999991059303284 -0.5
v -0.5 0.49999991059303284 0.5
v -0.16648337244987488 -0.5 0.5
v -0.16648337244987488 -0.5 -0.5
v 0.1664833426475525 -0.5 0.5
v 0.1664833426475525 -0.5 -0.5
v 0.1664833426475525 -0.5 0.5
v 0.16648337244987488 0.49999991059303284 0.5
v -0.16648337244987488 -0.5 0.5
v -0.1664833426475525 0.49999991059303284 0.5
v 0.16648337244987488 0.49999991059303284 0.5
v 0.16648337244987488 0.49999991059303284 -0.5
v -0.1664833426475525 0.49999991059303284 0.5
v -0.1664833426475525 0.49999991059303284 -0.5
v 0.16648337244987488 0.49999991059303284 -0.5
v 0.1664833426475525 -0.5 -0.5
v -0.1664833426475525 0.49999991059303284 -0.5
v -0.16648337244987488 -0.5 -0.5
v 0.1664833426475525 -0.5 0.5
v 0.5 -0.5 0.5
v 0.16648337244987488 0.49999991059303284 0.5
v 0.5 0.5 0.5
v 0.5 -0.5 -0.5
v 0.1664833426475525 -0.5 -0.5
v 0.5 0.5 -0.5
v 0.16648337244987488 0.49999991059303284 -0.5
v 0.16648337244987488 0.49999991059303284 0.5
v 0.5 0.5 0.5
v 0.16648337244987488 0.49999991059303284 -0.5
v 0.5 0.5 -0.5
v 0.1664833426475525 -0.5 -0.5
v 0.5 -0.5 -0.5
v 0.1664833426475525 -0.5 0.5
v 0.5 -0.5 0.5
v -0.5 -0.5 0.5
v -0.16648337244987488 -0.5 0.5
v -0.5 0.49999991059303284 0.5
v -0.1664833426475525 0.49999991059303284 0.5
v -0.5 0.49999991059303284 0.5
v -0.1664833426475525 0.49999991059303284 0.5
v -0.5 0.49999991059303284 -0.5
v -0.1664833426475525 0.49999991059303284 -0.5
v -0.16648337244987488 -0.5 -0.5
v -0.5 -0.5 -0.5
v -0.1664833426475525 0.49999991059303284 -0.5
v -0.5 0.49999991059303284 -0.5
v -0.5 -0.5 -0.5
v -0.16648337244987488 -0.5 -0.5
v -0.5 -0.5 0.5
v -0.16648337244987488 -0.5 0.5
vn 1.0 0.0 0.0
vn 1.0 0.0 0.0
vn 1.0 0.0 0.0
vn 1.0 0.0 0.0
vn -1.0 0.0 0.0
vn -1.0 0.0 0.0
vn -1.0 0.0 0.0
vn -1.0 0.0 0.0
vn 0.0 -1.0 0.0
vn 0.0 -1.0 0.0
vn 0.0 -1.0 0.0
vn 0.0 -1.0 0.0
vn 0.0 0.0 1.0
vn 0.0 0.0 1.0
vn 0.0 0.0 1.0
vn 0.0 0.0 1.0
vn 0.0 1.0 0.0
vn 0.0 1.0 0.0
vn 0.0 1.0 0.0
vn 0.0 1.0 0.0
vn 0.0 0.0 -1.0
vn 0.0 0.0 -1.0
vn 0.0 0.0 -1.0
vn 0.0 0.0 -1.0
vn 0.0 0.0 1.0
vn 0.0 0.0 1.0
vn 0.0 0.0 1.0
vn 0.0 0.0 1.0
vn 0.0 0.0 -1.0
vn 0.0 0.0 -1.0
vn 0.0 0.0 -1.0
vn 0.0 0.0 -1.0
vn -2.2875606475736276e-07 1.0 0.0
vn -2.2875606475736276e-07 1.0 0.0
vn -2.2875605054650805e-07 1.0 0.0
vn -2.2875606475736276e-07 1.0 0.0
vn 0.0 -1.0 0.0
vn 0.0 -1.0 0.0
vn 0.0 -1.0 0.0
vn 0.0 -1.0 0.0
vn 0.0 0.0 1.0
vn 0.0 0.0 1.0
vn 0.0 0.0 1.0
vn 0.0 0.0 1.0
vn 0.0 1.0 0.0
vn 0.0 1.0 0.0
vn 0.0 1.0 0.0
vn 0.0 1.0 0.0
vn 0.0 0.0 -1.0
vn 0.0 0.0 -1.0
vn 0.0 0.0 -1.0
vn 0.0 0.0 -1.0
vn 0.0 -1.0 0.0
vn 0.0 -1.0 0.0
vn 0.0 -1.0 0.0
vn 0.0 -1.0 0.0
vt 0.3244815468788147 0.35170888900756836
vt 0.6003897786140442 0.35170888900756836
vt 0.3244815468788147 0.6276170909404755
vt 0.6003897786140442 0.6276170909404755
vt 0.3244815468788147 0.35170888900756836
vt 0.6003897786140442 0.35170894861221313
vt 0.3244815468788147 0.6276170611381531
vt 0.6003897786140442 0.6276170611381531
vt 0.4863116443157196 0.8803390264511108
vt 0.9006426334381104 0.8803390264511108
vt 0.48631712794303894 0.9959075450897217
vt 0.9006479978561401 0.9959206581115723
vt 0.48631712794303894 0.9959075450897217
vt 0.07196986675262451 0.9959518909454346
vt 0.4863116443157196 0.8803390264511108
vt 0.07196903228759766 0.8804068565368652
vt 0.07196986675262451 0.9959518909454346
vt -0.34229373931884766 0.9959009885787964
vt 0.07196903228759766 0.8804068565368652
vt -0.3423118591308594 0.8803255632519722
vt 1.314965009689331 0.995869517326355
vt 0.9006479978561401 0.9959206581115723
vt 1.314971923828125 0.8803404569625854
vt 0.9006426334381104 0.8803390264511108
vt 0.48633092641830444 0.8800443410873413
vt 0.4863564074039459 0.9961672425270081
vt 0.0719836950302124 0.8800886869430542
vt 0.07200050354003906 0.9962359070777893
vt 0.9006423950195312 0.9962303042411804
vt 0.9006502628326416 0.880089521408081
vt 1.3149681091308594 0.9962396025657654
vt 1.3149666786193848 0.8800841569900513
vt 0.0719836950302124 0.8800886869430542
vt 0.07200050354003906 0.9962359070777893
vt -0.34227967262268066 0.8800377771258354
vt -0.34230804443359375 0.9961814284324646
vt 0.9006502628326416 0.880089521408081
vt 0.9006423950195312 0.9962303042411804
vt 0.48633092641830444 0.8800443410873413
vt 0.4863564074039459 0.9961672425270081
vt 0.48630404472351074 0.8800262212753296
vt 0.48630914092063904 0.9961882829666138
vt 0.07194650173187256 0.880089521408081
vt 0.07196652889251709 0.9962561130523682
vt 0.07194650173187256 0.880089521408081
vt 0.07196652889251709 0.9962561130523682
vt -0.3423335552215576 0.8800443410873413
vt -0.3423137664794922 0.9961748123168945
vt 0.9006402492523193 0.9961882829666138
vt 0.9006462097167969 0.8800214529037476
vt 1.314969539642334 0.9961897134780884
vt 1.3149933815002441 0.8800853490829468
vt 0.9006462097167969 0.8800214529037476
vt 0.9006402492523193 0.9961882829666138
vt 0.48630404472351074 0.8800262212753296
vt 0.48630914092063904 0.9961882829666138

g RC_Cube
s 1
usemtl RC_Cube
f 1/1/1 2/2/2 3/3/3 
f 2/2/2 4/4/4 3/3/3 
f 5/5/5 6/6/6 7/7/7 
f 6/6/6 8/8/8 7/7/7 
f 9/9/9 10/10/10 11/11/11 
f 10/10/10 12/12/12 11/11/11 
f 13/13/13 14/14/14 15/15/15 
f 14/14/14 16/16/16 15/15/15 
f 17/17/17 18/18/18 19/19/19 
f 18/18/18 20/20/20 19/19/19 
f 21/21/21 22/22/22 23/23/23 
f 22/22/22 24/24/24 23/23/23 
f 25/25/25 26/26/26 27/27/27 
f 26/26/26 28/28/28 27/27/27 
f 29/29/29 30/30/30 31/31/31 
f 30/30/30 32/32/32 31/31/31 
f 33/33/33 34/34/34 35/35/35 
f 34/34/34 36/36/36 35/35/35 
f 37/37/37 38/38/38 39/39/39 
f 38/38/38 40/40/40 39/39/39 
f 41/41/41 42/42/42 43/43/43 
f 42/42/42 44/44/44 43/43/43 
f 45/45/45 46/46/46 47/47/47 
f 46/46/46 48/48/48 47/47/47 
f 49/49/49 50/50/50 51/51/51 
f 50/50/50 52/52/52 51/51/51 
f 53/53/53 54/54/54 55/55/55 
f 54/54/54 56/56/56 55/55/55 

