v 0.49998533725738525 -0.5000678300857544 -0.5001946687698364
v -0.20732665061950684 -0.20705607533454895 -0.5001946687698364
v -0.20732665061950684 -0.5000678300857544 -0.2070135474205017
v 0.49998533725738525 -0.5000678300857544 -0.5001946687698364
v -0.20732665061950684 -0.5000678300857544 -0.2070135474205017
v -0.4998534917831421 -0.5000678300857544 -0.5001946687698364
v -0.20732665061950684 -0.20705607533454895 -0.5001946687698364
v 0.49998533725738525 -0.5000678300857544 -0.5001946687698364
v -0.4998534917831421 -0.5000678300857544 -0.5001946687698364
v -0.20732665061950684 -0.20705607533454895 -0.5001946687698364
v -0.4998534917831421 -0.5000678300857544 -0.5001946687698364
v -0.20732665061950684 -0.5000678300857544 -0.2070135474205017
vn 0.1392372101545334 0.7002192139625549 0.7002185583114624
vn 0.5497559309005737 0.5499116778373718 0.6287809610366821
vn 0.5498984456062317 0.6287306547164917 0.5498266816139221
vn 0.00017149861378129572 -1.0 0.00017206050688400865
vn 0.00017149864288512617 -1.0 0.00017206050688400865
vn 0.0001714986574370414 -1.0 0.00017206050688400865
vn -7.45674769859761e-05 -0.00020724274509120733 -1.0
vn -7.45674769859761e-05 -0.00020724274509120733 -1.0
vn -7.456746971001849e-05 -0.0002072427305392921 -1.0
vn -0.5781006217002869 0.5771384835243225 0.5768109560012817
vn -0.5781006217002869 0.5771384835243225 0.576810896396637
vn -0.5781006217002869 0.5771384239196777 0.576810896396637
vt 0.7205916047096252 0.5746797621250153
vt 0.7839120626449585 0.645336925983429
vt 0.8137381076812744 0.5936766266822815
vt 0.7369173765182495 0.5549333095550537
vt 0.6258140206336975 0.600917637348175
vt 0.5798094272613525 0.5549376606941223
vt 0.6258140206336975 0.6009178161621094
vt 0.5798150300979614 0.7120431661605835
vt 0.5798094868659973 0.5549376606941223
vt 0.7839120626449585 0.645336925983429
vt 0.5798094868659973 0.5549376606941223
vt 0.6258140206336975 0.600917637348175

g RC_Corner_Slope_Collision3
s 1
usemtl RC_Corner_Slope_Collision3
f 1/1/1 2/2/2 3/3/3 
f 4/4/4 5/5/5 6/6/6 
f 7/7/7 8/8/8 9/9/9 
f 10/10/10 11/11/11 12/12/12 

