v -0.4998534917831421 -0.20705638825893402 -0.20737487077713013
v -0.4998534917831421 0.5000678300857544 -0.5001946687698364
v -0.4998534917831421 -0.5000678300857544 -0.5001946687698364
v -0.4998534917831421 -0.5000678300857544 -0.5001946687698364
v -0.4998534917831421 0.5000678300857544 -0.5001946687698364
v -0.20732665061950684 -0.20705607533454895 -0.5001946687698364
v -0.4998534917831421 -0.20705638825893402 -0.20737487077713013
v -0.20732665061950684 -0.20705607533454895 -0.5001946687698364
v -0.4998534917831421 0.5000678300857544 -0.5001946687698364
v -0.4998534917831421 -0.5000678300857544 -0.5001946687698364
v -0.20732665061950684 -0.20705607533454895 -0.5001946687698364
v -0.4998534917831421 -0.20705638825893402 -0.20737487077713013
vn -1.0 -9.664460230851546e-05 -8.839133806759492e-05
vn -1.0 -9.664459503255785e-05 -8.839133806759492e-05
vn -1.0 -9.664460230851546e-05 -8.839133806759492e-05
vn -7.456746971001849e-05 -0.0002072427305392921 -1.0
vn -7.45674769859761e-05 -0.0002072427305392921 -1.0
vn -7.45674769859761e-05 -0.00020724274509120733 -1.0
vn 0.6288299560546875 0.5497696399688721 0.5498420596122742
vn 0.5497559309005737 0.5499116778373718 0.6287809610366821
vn 0.7002487778663635 0.13898442685604095 0.7002391219139099
vn 0.5778578519821167 -0.5769133567810059 0.5772791504859924
vn 0.5778578519821167 -0.5769132971763611 0.5772792100906372
vn 0.5778578519821167 -0.5769133567810059 0.577279269695282
vt 0.6258139610290527 0.6009178161621094
vt 0.5798150897026062 0.7120431065559387
vt 0.5798094272613525 0.5549376606941223
vt 0.5798094868659973 0.5549376606941223
vt 0.7369173765182495 0.5549332499504089
vt 0.6258140206336975 0.6009178161621094
vt 0.8435640931129456 0.6453365683555603
vt 0.7839120626449585 0.645336925983429
vt 0.8137381076812744 0.7344286739826202
vt 0.5798094272613525 0.5549376606941223
vt 0.6258140206336975 0.6009178161621094
vt 0.8435640931129456 0.6453365683555603

g RC_Corner_Slope_Collision4
s 1
usemtl RC_Corner_Slope_Collision4
f 1/1/1 2/2/2 3/3/3 
f 4/4/4 5/5/5 6/6/6 
f 7/7/7 8/8/8 9/9/9 
f 10/10/10 11/11/11 12/12/12 

