v -0.49998778104782104 -0.4996386468410492 0.4996386468410492
v -0.49998778104782104 -0.4996386468410492 -0.5003613233566284
v -0.11730224639177322 -0.4996386468410492 0.42496457695961
v 0.2071215808391571 -0.4996386468410492 0.2081921398639679
v 0.4238940477371216 -0.4996386468410492 -0.11623168736696243
v 0.500012218952179 -0.4996386468410492 -0.5003613233566284
v -0.49998778104782104 -0.4996386468410492 -0.5003613233566284
v -0.49998778104782104 0.5003613233566284 -0.5003613233566284
v 0.500012218952179 -0.4996386468410492 -0.5003613233566284
v -0.49998778104782104 -0.4996386468410492 -0.5003613233566284
v -0.49998778104782104 -0.4996386468410492 0.4996386468410492
v -0.49998778104782104 0.5003613233566284 -0.5003613233566284
v -0.49998778104782104 0.5003613233566284 -0.5003613233566284
v 0.4238940477371216 -0.4996386468410492 -0.11623168736696243
v 0.500012218952179 -0.4996386468410492 -0.5003613233566284
v 0.2071215808391571 -0.4996386468410492 0.2081921398639679
v -0.11730224639177322 -0.4996386468410492 0.42496457695961
v -0.49998778104782104 -0.4996386468410492 0.4996386468410492
vn -0.0009441886795684695 -0.9999996423721313 0.0
vn -0.0009441888541914523 -0.9999996423721313 0.0
vn -0.0009441889123991132 -0.9999996423721313 0.0
vn -0.000306065718177706 -1.0 -0.00020449001749511808
vn 0.0 -0.9999996423721313 -0.0009406138560734689
vn 0.0 -0.9999996423721313 -0.0009406139142811298
vn 0.0 0.0 -1.0
vn 0.0 0.0 -1.0
vn 0.0 0.0 -1.0
vn -1.0 0.0 0.0
vn -1.0 0.0 0.0
vn -1.0 0.0 0.0
vn 0.4802335798740387 0.7346575856208801 0.4792223572731018
vn 0.6533457040786743 0.7070501446723938 0.27059078216552734
vn 0.7003275752067566 0.7000711560249329 0.1394335776567459
vn 0.4998731315135956 0.7072157263755798 0.4999728202819824
vn 0.27030694484710693 0.707322895526886 0.6531681418418884
vn 0.13860808312892914 0.7004091143608093 0.7001534700393677
vt 0.9861750602722168 0.6347134411334991
vt 0.9861809015274048 0.7923130095005035
vt 0.9257022142410278 0.6467101573944092
vt 0.8747218251228333 0.6808493733406067
vt 0.8404763340950012 0.7319408059120178
vt 0.8284768462181091 0.7923128306865692
vt 0.98618084192276 0.17010140419006348
vt 0.98618084192276 0.012812674045562744
vt 0.8286131024360657 0.17038023471832275
vt 0.98618084192276 0.17010140419006348
vt 0.98618084192276 0.012812674045562744
vt 0.8286131024360657 0.17038023471832275
vt 0.6848334074020386 0.6119587123394012
vt 0.6256844997406006 0.8009791076183319
vt 0.5755292177200317 0.8009791076183319
vt 0.6845970749855042 0.8009790480136871
vt 0.7436594367027283 0.8009790480136871
vt 0.7937474250793457 0.8009790629148483

g RC_Cone
s 1
usemtl RC_Cone
f 1/1/1 2/2/2 3/3/3 
f 2/2/2 4/4/4 3/3/3 
f 2/2/2 5/5/5 4/4/4 
f 2/2/2 6/6/6 5/5/5 
f 7/7/7 8/8/8 9/9/9 
f 10/10/10 11/11/11 12/12/12 
f 13/13/13 14/14/14 15/15/15 
f 13/13/13 16/16/16 14/14/14 
f 13/13/13 17/17/17 16/16/16 
f 18/18/18 17/17/17 13/13/13 

