v -0.49980467557907104 -0.5000678300857544 -0.49985471367836
v -0.49998533725738525 -0.4999869465827942 0.500034749507904
v -0.49989500641822815 -0.4238591194152832 0.11709289252758026
v -0.49989500641822815 -0.20705638825893402 -0.20737487077713013
v -0.49989500641822815 0.11741146445274353 -0.42417845129966736
v -0.49998533725738525 0.5000678300857544 -0.5000354051589966
v -0.49980467557907104 -0.5000678300857544 -0.49985471367836
v -0.49980467557907104 -0.5000678300857544 -0.49985471367836
v 0.49998533725738525 -0.49998724460601807 -0.4999450445175171
v 0.11714354902505875 -0.49998724460601807 -0.42381712794303894
v -0.20732665061950684 -0.49998724460601807 -0.2070135474205017
v -0.4241284132003784 -0.49998724460601807 0.11745422333478928
v -0.49998533725738525 -0.4999869465827942 0.500034749507904
v -0.49980467557907104 -0.5000678300857544 -0.49985471367836
v -0.49980467557907104 -0.5000678300857544 -0.49985471367836
v -0.49998533725738525 0.5000678300857544 -0.5000354051589966
v -0.4241284132003784 0.11741146445274353 -0.4999450445175171
v -0.20732665061950684 -0.20705607533454895 -0.4999450445175171
v 0.11714354902505875 -0.42385944724082947 -0.4999450445175171
v 0.49998533725738525 -0.49998724460601807 -0.4999450445175171
v -0.49980467557907104 -0.5000678300857544 -0.49985471367836
v -0.20732665061950684 -0.20705607533454895 -0.4999450445175171
v -0.49989500641822815 -0.20705638825893402 -0.20737487077713013
v -0.20732665061950684 -0.49998724460601807 -0.2070135474205017
v 0.11714354902505875 -0.49998724460601807 -0.42381712794303894
v 0.11714354902505875 -0.42385944724082947 -0.4999450445175171
v 0.49998533725738525 -0.49998724460601807 -0.4999450445175171
v -0.49989500641822815 -0.4238591194152832 0.11709289252758026
v -0.4241284132003784 -0.49998724460601807 0.11745422333478928
v -0.49998533725738525 -0.4999869465827942 0.500034749507904
v -0.4241284132003784 0.11741146445274353 -0.4999450445175171
v -0.49989500641822815 0.11741146445274353 -0.42417845129966736
v -0.49998533725738525 0.5000678300857544 -0.5000354051589966
vn -1.0 -9.664460230851546e-05 -8.839133806759492e-05
vn -1.0 -9.664460958447307e-05 -8.839133806759492e-05
vn -1.0 -9.664460958447307e-05 -8.839133806759492e-05
vn -1.0 -9.664460230851546e-05 -8.839133806759492e-05
vn -1.0 -9.664460230851546e-05 -8.839133806759492e-05
vn -1.0 -9.664459503255785e-05 -8.839133806759492e-05
vn -1.0 -9.664460230851546e-05 -8.839133806759492e-05
vn 0.0001714986574370414 -1.0 0.00017206050688400865
vn 0.00017149861378129572 -1.0 0.00017206050688400865
vn 0.00017149864288512617 -1.0 0.00017206050688400865
vn 0.00017149864288512617 -1.0 0.00017206050688400865
vn 0.00017149864288512617 -1.0 0.00017206050688400865
vn 0.0001714986574370414 -1.0 0.00017206052143592387
vn 0.0001714986574370414 -1.0 0.00017206050688400865
vn -7.456746971001849e-05 -0.0002072427305392921 -1.0
vn -7.45674769859761e-05 -0.0002072427305392921 -1.0
vn -7.45674769859761e-05 -0.0002072427305392921 -1.0
vn -7.45674769859761e-05 -0.00020724274509120733 -1.0
vn -7.456748426193371e-05 -0.00020724274509120733 -1.0
vn -7.45674769859761e-05 -0.00020724274509120733 -1.0
vn -7.456746971001849e-05 -0.0002072427305392921 -1.0
vn 0.5497559309005737 0.5499116778373718 0.6287809610366821
vn 0.6288299560546875 0.5497696399688721 0.5498420596122742
vn 0.5498984456062317 0.6287306547164917 0.5498266816139221
vn 0.3893219530582428 0.6513168811798096 0.6513177156448364
vn 0.3893219232559204 0.6513168811798096 0.6513177156448364
vn 0.1392372101545334 0.7002192139625549 0.7002185583114624
vn 0.6516305208206177 0.6508932709693909 0.38950681686401367
vn 0.6517242193222046 0.6509844660758972 0.38919755816459656
vn 0.7015600204467773 0.6989019513130188 0.13910241425037384
vn 0.6512975096702576 0.3893907368183136 0.6512959003448486
vn 0.6512975096702576 0.38939085602760315 0.6512959003448486
vn 0.7002487778663635 0.13898442685604095 0.7002391219139099
vt 0.5798094272613525 0.5549376606941223
vt 0.7369174957275391 0.5549332499504089
vt 0.6767904758453369 0.5668537616729736
vt 0.6258139610290527 0.6009178161621094
vt 0.592110812664032 0.6501680016517639
vt 0.5798150897026062 0.7120431065559387
vt 0.5798094272613525 0.5549376606941223
vt 0.5798094272613525 0.5549376606941223
vt 0.7369173765182495 0.5549333095550537
vt 0.6767905354499817 0.5668536722660065
vt 0.6258140206336975 0.600917637348175
vt 0.5921107530593872 0.6501680016517639
vt 0.5798149108886719 0.712043285369873
vt 0.5798094272613525 0.5549376606941223
vt 0.5798094868659973 0.5549376606941223
vt 0.7369173765182495 0.5549332499504089
vt 0.6767903566360474 0.5668536424636841
vt 0.6258140206336975 0.6009178161621094
vt 0.5921108722686768 0.6501677632331848
vt 0.5798150300979614 0.7120431661605835
vt 0.5798094868659973 0.5549376606941223
vt 0.7839120626449585 0.645336925983429
vt 0.8435640931129456 0.6453365683555603
vt 0.8137381076812744 0.5936766266822815
vt 0.7579498291015625 0.5869571268558502
vt 0.7501983046531677 0.6003828346729279
vt 0.7205916047096252 0.5746797621250153
vt 0.8772776126861572 0.6003828346729279
vt 0.8695262670516968 0.5869568884372711
vt 0.9042370319366455 0.5741351842880249
vt 0.8059865832328796 0.6970104873180389
vt 0.8214898705482483 0.6970103979110718
vt 0.8137381076812744 0.7344286739826202

g RC_Corner_Slope
s 1
usemtl RC_Corner_Slope
f 1/1/1 2/2/2 3/3/3 
f 3/3/3 4/4/4 1/1/1 
f 4/4/4 5/5/5 1/1/1 
f 5/5/5 6/6/6 7/7/7 
f 8/8/8 9/9/9 10/10/10 
f 10/10/10 11/11/11 8/8/8 
f 11/11/11 12/12/12 8/8/8 
f 12/12/12 13/13/13 14/14/14 
f 15/15/15 16/16/16 17/17/17 
f 17/17/17 18/18/18 15/15/15 
f 18/18/18 19/19/19 15/15/15 
f 19/19/19 20/20/20 21/21/21 
f 22/22/22 23/23/23 24/24/24 
f 22/22/22 24/24/24 25/25/25 
f 22/22/22 25/25/25 26/26/26 
f 26/26/26 25/25/25 27/27/27 
f 24/24/24 23/23/23 28/28/28 
f 24/24/24 28/28/28 29/29/29 
f 29/29/29 28/28/28 30/30/30 
f 31/31/31 23/23/23 22/22/22 
f 31/31/31 32/32/32 23/23/23 
f 31/31/31 33/33/33 32/32/32 

