v 0.49977537989616394 -0.5 -0.49999967217445374
v 0.11676025390625 -0.42386436462402344 -0.49999967217445374
v 0.1167626902461052 -0.42386436462402344 0.5000002980232239
v 0.49977537989616394 -0.5 0.5000002980232239
v -0.20775389671325684 -0.20703069865703583 -0.49999967217445374
v -0.20775389671325684 -0.20703069865703583 0.5000002980232239
v -0.4245873987674713 0.11748117208480835 0.5000002980232239
v -0.4245873987674713 0.11748117208480835 -0.5000002980232239
v -0.5003613233566284 0.5001357793807983 0.5000002980232239
v -0.5003613233566284 0.5001357793807983 -0.49999967217445374
v 0.49977537989616394 -0.5 -0.49999967217445374
v 0.49977537989616394 -0.5 0.5000002980232239
v -0.5 -0.5 0.5000002980232239
v -0.5 -0.5 -0.49999967217445374
v -0.5 -0.5 -0.49999967217445374
v -0.5 -0.5 0.5000002980232239
v -0.5003613233566284 0.5001357793807983 0.5000002980232239
v -0.5003613233566284 0.5001357793807983 -0.49999967217445374
v 0.11676025390625 -0.42386436462402344 -0.49999967217445374
v 0.49977537989616394 -0.5 -0.49999967217445374
v -0.5 -0.5 -0.49999967217445374
v -0.20775389671325684 -0.20703069865703583 -0.49999967217445374
v -0.4245873987674713 0.11748117208480835 -0.5000002980232239
v -0.5003613233566284 0.5001357793807983 -0.49999967217445374
v -0.4245873987674713 0.11748117208480835 0.5000002980232239
v -0.5003613233566284 0.5001357793807983 0.5000002980232239
v -0.5 -0.5 0.5000002980232239
v -0.20775389671325684 -0.20703069865703583 0.5000002980232239
v 0.1167626902461052 -0.42386436462402344 0.5000002980232239
v 0.49977537989616394 -0.5 0.5000002980232239
vn 0.19496645033359528 0.9808098673820496 -2.188164387462166e-07
vn 0.3825738728046417 0.9239249229431152 -4.5865550646340125e-07
vn 0.3825733959674835 0.9239251017570496 -4.5865485276408435e-07
vn 0.19496645033359528 0.9808098673820496 -2.188164387462166e-07
vn 0.7071040272712708 0.7071094512939453 -3.4716370578280475e-07
vn 0.707103967666626 0.7071095108985901 -3.4716390473477077e-07
vn 0.9240218997001648 0.3823394775390625 0.0
vn 0.9240218997001648 0.3823394477367401 0.0
vn 0.9809514284133911 0.1942535936832428 0.0
vn 0.9809514284133911 0.1942535638809204 0.0
vn 0.0 -1.0 0.0
vn 0.0 -1.0 0.0
vn 0.0 -1.0 0.0
vn 0.0 -1.0 0.0
vn -1.0 0.0 0.0
vn -1.0 0.0 0.0
vn -1.0 0.0 0.0
vn -1.0 0.0 0.0
vn 4.168277882854454e-07 -3.811466058323276e-07 -1.0
vn 4.168277882854454e-07 -3.811465774106182e-07 -1.0
vn 4.16827759863736e-07 -3.811465774106182e-07 -1.0
vn 4.16827759863736e-07 -3.811465774106182e-07 -1.0
vn 4.168278735505737e-07 -3.811465774106182e-07 -1.0
vn 4.168277882854454e-07 -3.811465774106182e-07 -1.0
vn -1.667308538344514e-06 0.0 1.0
vn -1.6673084246576764e-06 0.0 1.0
vn -1.667308538344514e-06 0.0 1.0
vn -1.6673084246576764e-06 0.0 1.0
vn -1.667308538344514e-06 0.0 1.0
vn -1.667308538344514e-06 0.0 1.0
vt 0.8282696008682251 0.18045556545257568
vt 0.8282696008682251 0.23009741306304932
vt 0.9861806035041809 0.23009741306304932
vt 0.9861806035041809 0.18045544624328613
vt 0.8282694816589355 0.3600956201553345
vt 0.9861803650856018 0.3600956201553345
vt 0.9861806035041809 0.4900944232940674
vt 0.8282696008682251 0.4900944232940674
vt 0.98618084192276 0.5397355556488037
vt 0.8282696008682251 0.5397356152534485
vt 0.8283011317253113 0.985205814242363
vt 0.8283013105392456 0.8272472023963928
vt 0.98618084192276 0.8272475600242615
vt 0.98618084192276 0.9852060526609421
vt 0.98618084192276 0.9852060526609421
vt 0.8283011317253113 0.985205814242363
vt 0.8283013105392456 0.8272472023963928
vt 0.98618084192276 0.8272475600242615
vt 0.5916908383369446 0.6469162702560425
vt 0.5798149108886719 0.7066787481307983
vt 0.5798095464706421 0.5549376904964447
vt 0.6242430210113525 0.5993476212024689
vt 0.6734789609909058 0.566446840763092
vt 0.7315528392791748 0.5549334585666656
vt 0.5916908383369446 0.6469161808490753
vt 0.5798149108886719 0.7066788673400879
vt 0.5798095464706421 0.5549376308917999
vt 0.6242430210113525 0.5993478000164032
vt 0.6734788417816162 0.5664467513561249
vt 0.7315528988838196 0.5549334287643433

g RC_Edge_Slope
s 1
usemtl RC_Edge_Slope
f 1/1/1 2/2/2 3/3/3 
f 1/1/1 3/3/3 4/4/4 
f 3/3/3 2/2/2 5/5/5 
f 3/3/3 5/5/5 6/6/6 
f 5/5/5 7/7/7 6/6/6 
f 5/5/5 8/8/8 7/7/7 
f 8/8/8 9/9/9 7/7/7 
f 8/8/8 10/10/10 9/9/9 
f 11/11/11 12/12/12 13/13/13 
f 11/11/11 13/13/13 14/14/14 
f 15/15/15 16/16/16 17/17/17 
f 15/15/15 17/17/17 18/18/18 
f 19/19/19 20/20/20 21/21/21 
f 19/19/19 21/21/21 22/22/22 
f 21/21/21 23/23/23 22/22/22 
f 21/21/21 24/24/24 23/23/23 
f 25/25/25 26/26/26 27/27/27 
f 28/28/28 25/25/25 27/27/27 
f 29/29/29 28/28/28 27/27/27 
f 29/29/29 27/27/27 30/30/30 

