v 0.5 -0.5 0.5
v -0.5 0.5 0.5
v -0.5 -0.5 0.5
v 0.5 -0.5 0.5
v 0.5 0.5 -0.5
v -0.5 0.5 0.5
v 0.5 0.5 -0.5
v 0.5 -0.5 -0.5
v -0.5 -0.5 -0.5
v -0.5 0.5 -0.5
v 0.5 -0.5 -0.5
v 0.5 -0.5 0.5
v -0.5 -0.5 0.5
v -0.5 -0.5 -0.5
v -0.5 -0.5 0.5
v -0.5 0.5 0.5
v -0.5 0.5 -0.5
v -0.5 -0.5 -0.5
v 0.5000005960464478 -0.5 -0.49999937415122986
v 0.5000005960464478 0.5 -0.49999937415122986
v 0.5000005960464478 -0.5 0.5
v 0.5 0.5 -0.5
v -0.5 0.5 -0.5
v -0.5 0.5 0.5
vn 0.0 0.0 1.0
vn 0.0 0.0 1.0
vn 0.0 0.0 1.0
vn 0.5773502588272095 0.5773502588272095 0.5773502588272095
vn 0.5773502588272095 0.5773502588272095 0.5773502588272095
vn 0.5773502588272095 0.5773502588272095 0.5773502588272095
vn 0.0 0.0 -1.0
vn 0.0 0.0 -1.0
vn 0.0 0.0 -1.0
vn 0.0 0.0 -1.0
vn 0.0 -1.0 0.0
vn 0.0 -1.0 0.0
vn 0.0 -1.0 0.0
vn 0.0 -1.0 0.0
vn -1.0 0.0 0.0
vn -1.0 0.0 0.0
vn -1.0 0.0 0.0
vn -1.0 0.0 0.0
vn 1.0 0.0 0.0
vn 1.0 0.0 0.0
vn 1.0 0.0 0.0
vn 0.0 1.0 0.0
vn 0.0 1.0 0.0
vn 0.0 1.0 0.0
vt 0.8304203152656555 0.17037701606750488
vt 0.98618084192276 0.014616727828979492
vt 0.98618084192276 0.17010140419006348
vt 0.684823751449585 0.6181542277336121
vt 0.7886257767677307 0.7981516569852829
vt 0.5811845660209656 0.7980290949344635
vt 0.8283011317253113 0.985205814242363
vt 0.8283013105392456 0.8272472023963928
vt 0.98618084192276 0.8272475600242615
vt 0.98618084192276 0.9852060526609421
vt 0.8283011317253113 0.985205814242363
vt 0.8283013105392456 0.8272472023963928
vt 0.98618084192276 0.8272475600242615
vt 0.98618084192276 0.9852060526609421
vt 0.8283011317253113 0.985205814242363
vt 0.8283013105392456 0.8272472023963928
vt 0.98618084192276 0.8272475600242615
vt 0.98618084192276 0.9852060526609421
vt 0.98618084192276 0.17010140419006348
vt 0.98618084192276 0.014616727828979492
vt 0.8304203152656555 0.17037701606750488
vt 0.8304203152656555 0.17037701606750488
vt 0.98618084192276 0.17010140419006348
vt 0.98618084192276 0.014616727828979492

g RC_Inner
s 1
usemtl RC_Inner
f 1/1/1 2/2/2 3/3/3 
f 4/4/4 5/5/5 6/6/6 
f 7/7/7 8/8/8 9/9/9 
f 7/7/7 9/9/9 10/10/10 
f 11/11/11 12/12/12 13/13/13 
f 11/11/11 13/13/13 14/14/14 
f 15/15/15 16/16/16 17/17/17 
f 15/15/15 17/17/17 18/18/18 
f 19/19/19 20/20/20 21/21/21 
f 22/22/22 23/23/23 24/24/24 

