v -0.11732909828424454 0.4238797724246979 0.5000128149986267
v -0.500012218952179 0.5 0.5000128149986267
v -0.500012218952179 -0.5000512003898621 0.5000128149986267
v 0.2070947289466858 0.20710715651512146 0.5000128149986267
v 0.4238671660423279 -0.11731616407632828 0.5000128149986267
v 0.49998778104782104 -0.49997425079345703 0.5000128149986267
v 0.49998778104782104 0.4238797724246979 -0.11730407178401947
v 0.49998778104782104 -0.5000512003898621 -0.49998655915260315
v 0.49998778104782104 0.5 -0.49997374415397644
v 0.49998778104782104 0.20710715651512146 0.20711974799633026
v 0.49998778104782104 -0.11731616407632828 0.42389219999313354
v 0.49998778104782104 -0.49997425079345703 0.5000128149986267
v -0.500012218952179 0.5 -0.5000128149986267
v -0.500012218952179 -0.5000512003898621 -0.4999871850013733
v -0.500012218952179 -0.5000512003898621 0.5000128149986267
v -0.500012218952179 0.5 0.5000128149986267
v 0.49998778104782104 0.5 -0.4999743402004242
v 0.49998778104782104 -0.5000512003898621 -0.4999871850013733
v -0.500012218952179 -0.5000512003898621 -0.4999871850013733
v -0.500012218952179 0.5 -0.5000128149986267
v -0.500012218952179 -0.5000512003898621 -0.4999871850013733
v 0.49998778104782104 -0.5000512003898621 -0.4999871850013733
v 0.49998778104782104 -0.49997425079345703 0.5000128149986267
v -0.500012218952179 -0.5000512003898621 0.5000128149986267
v -0.11732909828424454 0.5 0.42389219999313354
v -0.500012218952179 0.5 -0.5000128149986267
v -0.500012218952179 0.5 0.5000128149986267
v 0.2070947289466858 0.5 0.20711974799633026
v 0.4238671660423279 0.5 -0.11730407178401947
v 0.49998778104782104 0.5 -0.4999743402004242
v 0.49998778104782104 0.20710715651512146 0.20711974799633026
v 0.2070947289466858 0.5 0.20711974799633026
v 0.2070947289466858 0.20710715651512146 0.5000128149986267
v 0.4238671660423279 0.5 -0.11730407178401947
v 0.49998778104782104 0.4238797724246979 -0.11730407178401947
v 0.49998778104782104 0.5 -0.4999743402004242
v -0.11732909828424454 0.4238797724246979 0.5000128149986267
v -0.11732909828424454 0.5 0.42389219999313354
v -0.500012218952179 0.5 0.5000128149986267
v 0.49998778104782104 -0.11731616407632828 0.42389219999313354
v 0.4238671660423279 -0.11731616407632828 0.5000128149986267
v 0.49998778104782104 -0.49997425079345703 0.5000128149986267
vn -1.2758835055137752e-06 0.0 1.0
vn -1.5310515664168634e-06 0.0 1.0
vn -1.2758324885453476e-07 0.0 1.0
vn 5.103171929476957e-07 0.0 1.0
vn 1.0207944569629035e-06 0.0 1.0
vn 0.0 0.0 1.0
vn 1.0 0.0 0.0
vn 1.0 0.0 0.0
vn 1.0 0.0 0.0
vn 1.0 0.0 0.0
vn 1.0 0.0 0.0
vn 1.0 0.0 0.0
vn -1.0 5.37385403731605e-07 0.0
vn -1.0 5.373852900447673e-07 0.0
vn -1.0 5.37385403731605e-07 0.0
vn -1.0 5.37385403731605e-07 0.0
vn 1.874904046417214e-05 -6.408351964637404e-06 -1.0
vn 1.874904046417214e-05 -6.408351964637404e-06 -1.0
vn 1.874904046417214e-05 -6.408351964637404e-06 -1.0
vn 1.874904046417214e-05 -6.408351964637404e-06 -1.0
vn 3.847120751743205e-05 -1.0 3.842772275675088e-05
vn 3.847120751743205e-05 -1.0 3.842772275675088e-05
vn 3.847120751743205e-05 -1.0 3.842772275675088e-05
vn 3.847120751743205e-05 -1.0 3.842772275675088e-05
vn 0.0 1.0 0.0
vn 0.0 1.0 0.0
vn 0.0 1.0 0.0
vn 0.0 1.0 0.0
vn 0.0 1.0 0.0
vn 0.0 1.0 0.0
vn 0.6287776827812195 0.5498359203338623 0.5498355031013489
vn 0.5498353838920593 0.6287783980369568 0.5498353838920593
vn 0.5498349070549011 0.5498361587524414 0.6287779808044434
vn 0.6513121128082275 0.6513131260871887 0.38933753967285156
vn 0.6513121724128723 0.6513131260871887 0.3893374800682068
vn 0.700210690498352 0.700217604637146 0.13928532600402832
vn 0.3893355131149292 0.6513139009475708 0.6513124704360962
vn 0.38933563232421875 0.651313841342926 0.6513125896453857
vn 0.1392817348241806 0.7002162337303162 0.7002126574516296
vn 0.6513112187385559 0.38934004306793213 0.6513124704360962
vn 0.6513112187385559 0.38934004306793213 0.6513124704360962
vn 0.7002131938934326 0.13929049670696259 0.7002140283584595
vt 0.9257028698921204 0.646710216999054
vt 0.9861748218536377 0.6347134709358215
vt 0.98618084192276 0.792312890291214
vt 0.8747220039367676 0.6808491945266724
vt 0.8404759764671326 0.7319408655166626
vt 0.8284772634506226 0.7923127114772797
vt 0.8404754996299744 0.7319411635398865
vt 0.98618084192276 0.7923131883144379
vt 0.8284769058227539 0.7923123240470886
vt 0.8747212886810303 0.6808491349220276
vt 0.9257025122642517 0.6467099189758301
vt 0.9861743450164795 0.6347137093544006
vt 0.9861809015274048 0.8272478878498077
vt 0.9861809015274048 0.9852060526609421
vt 0.8283010125160217 0.9852060526609421
vt 0.8283010125160217 0.8272477686405182
vt 0.9861809015274048 0.8272478878498077
vt 0.9861809015274048 0.9852060526609421
vt 0.8283007740974426 0.9852060526609421
vt 0.8283007740974426 0.8272478878498077
vt 0.8283007740974426 0.9852059334516525
vt 0.8283007740974426 0.8272475004196167
vt 0.9861809015274048 0.8272475004196167
vt 0.9861809015274048 0.9852060526609421
vt 0.8404756188392639 0.7319409251213074
vt 0.98618084192276 0.7923129498958588
vt 0.828477144241333 0.7923123836517334
vt 0.8747217655181885 0.6808492541313171
vt 0.9257027506828308 0.6467099785804749
vt 0.9861747026443481 0.6347131133079529
vt 0.7839120626449585 0.645336925983429
vt 0.8137381076812744 0.5936766266822815
vt 0.8435640931129456 0.6453365683555603
vt 0.7579498291015625 0.5869571268558502
vt 0.7501983046531677 0.6003828346729279
vt 0.7299754023551941 0.5810473263263702
vt 0.8772776126861572 0.6003828346729279
vt 0.8695262670516968 0.5869568884372711
vt 0.8925073146820068 0.5818433165550232
vt 0.8059865832328796 0.6970104873180389
vt 0.8214898705482483 0.6970103979110718
vt 0.8137381076812744 0.725380003452301

g RC_Inner_Round
s 1
usemtl RC_Inner_Round
f 1/1/1 2/2/2 3/3/3 
f 4/4/4 1/1/1 3/3/3 
f 5/5/5 4/4/4 3/3/3 
f 6/6/6 5/5/5 3/3/3 
f 7/7/7 8/8/8 9/9/9 
f 10/10/10 8/8/8 7/7/7 
f 11/11/11 8/8/8 10/10/10 
f 12/12/12 8/8/8 11/11/11 
f 13/13/13 14/14/14 15/15/15 
f 13/13/13 15/15/15 16/16/16 
f 17/17/17 18/18/18 19/19/19 
f 17/17/17 19/19/19 20/20/20 
f 21/21/21 22/22/22 23/23/23 
f 21/21/21 23/23/23 24/24/24 
f 25/25/25 26/26/26 27/27/27 
f 28/28/28 26/26/26 25/25/25 
f 29/29/29 26/26/26 28/28/28 
f 30/30/30 26/26/26 29/29/29 
f 31/31/31 32/32/32 33/33/33 
f 31/31/31 34/34/34 32/32/32 
f 31/31/31 35/35/35 34/34/34 
f 35/35/35 36/36/36 34/34/34 
f 32/32/32 37/37/37 33/33/33 
f 32/32/32 38/38/38 37/37/37 
f 38/38/38 39/39/39 37/37/37 
f 40/40/40 31/31/31 33/33/33 
f 40/40/40 33/33/33 41/41/41 
f 40/40/40 41/41/41 42/42/42 

