v -0.5 0.5 0.5
v 0.5 -0.5 0.5
v 0.5 -0.5 -0.5
v -0.5 0.5 -0.5
v -0.5 -0.5 -0.5
v -0.5 -0.5 0.5
v -0.5 0.5 0.5
v -0.5 0.5 -0.5
v -0.5 -0.5 0.5
v -0.5 -0.5 -0.5
v 0.5 -0.5 -0.5
v 0.5 -0.5 0.5
v -0.5 -0.5 0.5
v 0.5 -0.5 0.5
v -0.5 0.5 0.5
v -0.5 -0.5 -0.5
v -0.5 0.5 -0.5
v 0.5 -0.5 -0.5
vn 0.7071067690849304 0.7071067690849304 0.0
vn 0.7071067690849304 0.7071067690849304 0.0
vn 0.7071067690849304 0.7071067690849304 0.0
vn 0.7071067690849304 0.7071067690849304 0.0
vn -1.0 0.0 0.0
vn -1.0 0.0 0.0
vn -1.0 0.0 0.0
vn -1.0 0.0 0.0
vn 0.0 -1.0 0.0
vn 0.0 -1.0 0.0
vn 0.0 -1.0 0.0
vn 0.0 -1.0 0.0
vn 0.0 0.0 1.0
vn 0.0 0.0 1.0
vn 0.0 0.0 1.0
vn 0.0 0.0 -1.0
vn 0.0 0.0 -1.0
vn 0.0 0.0 -1.0
vt 0.98618084192276 0.8272475600242615
vt 0.98618084192276 0.9852060526609421
vt 0.8283011317253113 0.985205814242363
vt 0.8283013105392456 0.8272472023963928
vt 0.8283013105392456 0.8272472023963928
vt 0.98618084192276 0.8272475600242615
vt 0.98618084192276 0.9852060526609421
vt 0.8283011317253113 0.985205814242363
vt 0.98618084192276 0.9852060526609421
vt 0.8283011317253113 0.985205814242363
vt 0.8283013105392456 0.8272472023963928
vt 0.98618084192276 0.8272475600242615
vt 0.98618084192276 0.17010140419006348
vt 0.8286131024360657 0.17038023471832275
vt 0.98618084192276 0.012812674045562744
vt 0.98618084192276 0.17010140419006348
vt 0.98618084192276 0.012812674045562744
vt 0.8286131024360657 0.17038023471832275

g RC_Prism
s 1
usemtl RC_Prism
f 1/1/1 2/2/2 3/3/3 
f 1/1/1 3/3/3 4/4/4 
f 5/5/5 6/6/6 7/7/7 
f 5/5/5 7/7/7 8/8/8 
f 9/9/9 10/10/10 11/11/11 
f 9/9/9 11/11/11 12/12/12 
f 13/13/13 14/14/14 15/15/15 
f 16/16/16 17/17/17 18/18/18 

