v 0.49977537989616394 -0.5 -0.49999967217445374
v 0.006618652027100325 -0.3684636652469635 -0.49999967217445374
v 0.006621093489229679 -0.3684636652469635 0.5000002980232239
v 0.49977537989616394 -0.5 0.5000002980232239
v 0.49977537989616394 -0.5 -0.49999967217445374
v 0.49977537989616394 -0.5 0.5000002980232239
v -0.5 -0.5 0.5000002980232239
v -0.5 -0.5 -0.49999967217445374
v 0.006618652027100325 -0.3684636652469635 -0.49999967217445374
v 0.49977537989616394 -0.5 -0.49999967217445374
v -0.5 -0.5 -0.49999967217445374
v 0.006621093489229679 -0.3684636652469635 0.5000002980232239
v -0.5 -0.5 0.5000002980232239
v 0.49977537989616394 -0.5 0.5000002980232239
vn 0.19496645033359528 0.9808098673820496 -2.188164387462166e-07
vn 0.3825738728046417 0.9239249229431152 -4.5865550646340125e-07
vn 0.3825733959674835 0.9239251017570496 -4.5865485276408435e-07
vn 0.19496645033359528 0.9808098673820496 -2.188164387462166e-07
vn 0.0 -1.0 0.0
vn 0.0 -1.0 0.0
vn 0.0 -1.0 0.0
vn 0.0 -1.0 0.0
vn 4.168277882854454e-07 -3.811466058323276e-07 -1.0
vn 4.168277882854454e-07 -3.811465774106182e-07 -1.0
vn 4.16827759863736e-07 -3.811465774106182e-07 -1.0
vn -1.667308538344514e-06 0.0 1.0
vn -1.667308538344514e-06 0.0 1.0
vn -1.667308538344514e-06 0.0 1.0
vt 0.8282696008682251 0.18045556545257568
vt 0.8282696008682251 0.23009741306304932
vt 0.9861806035041809 0.23009741306304932
vt 0.9861806035041809 0.18045544624328613
vt 0.8283011317253113 0.985205814242363
vt 0.8283013105392456 0.8272472023963928
vt 0.98618084192276 0.8272475600242615
vt 0.98618084192276 0.9852060526609421
vt 0.5916908383369446 0.6469162702560425
vt 0.5798149108886719 0.7066787481307983
vt 0.5798095464706421 0.5549376904964447
vt 0.6734788417816162 0.5664467513561249
vt 0.5798095464706421 0.5549376308917999
vt 0.7315528988838196 0.5549334287643433

g slope_Collider3
s 1
usemtl slope_Collider3
f 1/1/1 2/2/2 3/3/3 
f 1/1/1 3/3/3 4/4/4 
f 5/5/5 6/6/6 7/7/7 
f 5/5/5 7/7/7 8/8/8 
f 9/9/9 10/10/10 11/11/11 
f 12/12/12 13/13/13 14/14/14 

