v 0.006618652027100325 -0.3684636652469635 -0.49999967217445374
v -0.37245604395866394 0.0289249699562788 -0.5000002980232239
v -0.37245604395866394 0.0289249699562788 0.5000002980232239
v 0.006621093489229679 -0.3684636652469635 0.5000002980232239
v -0.5 -0.5 -0.49999967217445374
v -0.37245604395866394 0.0289249699562788 -0.5000002980232239
v 0.006618652027100325 -0.3684636652469635 -0.49999967217445374
v -0.5 -0.5 0.5000002980232239
v 0.006621093489229679 -0.3684636652469635 0.5000002980232239
v -0.37245604395866394 0.0289249699562788 0.5000002980232239
vn 0.3825738728046417 0.9239249229431152 -4.5865550646340125e-07
vn 0.9240218997001648 0.3823394775390625 0.0
vn 0.9240218997001648 0.3823395371437073 0.0
vn 0.3825733959674835 0.9239251017570496 -4.5865485276408435e-07
vn 4.16827759863736e-07 -3.811465774106182e-07 -1.0
vn 4.168278735505737e-07 -3.811465774106182e-07 -1.0
vn 4.168277882854454e-07 -3.811466058323276e-07 -1.0
vn -1.667308538344514e-06 0.0 1.0
vn -1.667308538344514e-06 0.0 1.0
vn -1.667308538344514e-06 0.0 1.0
vt 0.8282696008682251 0.23009741306304932
vt 0.8282696008682251 0.4900944232940674
vt 0.9861806035041809 0.4900944232940674
vt 0.9861806035041809 0.23009741306304932
vt 0.5798095464706421 0.5549376904964447
vt 0.6734789609909058 0.566446840763092
vt 0.5916908383369446 0.6469162702560425
vt 0.5798095464706421 0.5549376308917999
vt 0.6734788417816162 0.5664467513561249
vt 0.5916908383369446 0.6469161808490753

g slope_Collider2
s 1
usemtl slope_Collider2
f 1/1/1 2/2/2 3/3/3 
f 1/1/1 3/3/3 4/4/4 
f 5/5/5 6/6/6 7/7/7 
f 8/8/8 9/9/9 10/10/10 

