v -0.37245604395866394 0.0289249699562788 -0.5000002980232239
v -0.5003613233566284 0.5001357793807983 -0.49999967217445374
v -0.5003613233566284 0.5001357793807983 0.5000002980232239
v -0.37245604395866394 0.0289249699562788 0.5000002980232239
v -0.5 -0.5 -0.49999967217445374
v -0.5 -0.5 0.5000002980232239
v -0.5003613233566284 0.5001357793807983 0.5000002980232239
v -0.5003613233566284 0.5001357793807983 -0.49999967217445374
v -0.37245604395866394 0.0289249699562788 0.5000002980232239
v -0.5003613233566284 0.5001357793807983 0.5000002980232239
v -0.5 -0.5 0.5000002980232239
v -0.5 -0.5 -0.49999967217445374
v -0.5003613233566284 0.5001357793807983 -0.49999967217445374
v -0.37245604395866394 0.0289249699562788 -0.5000002980232239
vn 0.9240218997001648 0.3823394775390625 0.0
vn 0.9809514284133911 0.1942535638809204 0.0
vn 0.9809514284133911 0.1942535787820816 0.0
vn 0.9240218997001648 0.3823395371437073 0.0
vn -1.0 0.0 0.0
vn -1.0 0.0 0.0
vn -1.0 0.0 0.0
vn -1.0 0.0 0.0
vn -1.667308538344514e-06 0.0 1.0
vn -1.6673084246576764e-06 0.0 1.0
vn -1.667308538344514e-06 0.0 1.0
vn 4.16827759863736e-07 -3.811465774106182e-07 -1.0
vn 4.168277882854454e-07 -3.811465774106182e-07 -1.0
vn 4.168278735505737e-07 -3.811465774106182e-07 -1.0
vt 0.8282696008682251 0.4900944232940674
vt 0.8282696008682251 0.5397356152534485
vt 0.98618084192276 0.5397355556488037
vt 0.9861806035041809 0.4900944232940674
vt 0.98618084192276 0.9852060526609421
vt 0.8283011317253113 0.985205814242363
vt 0.8283013105392456 0.8272472023963928
vt 0.98618084192276 0.8272475600242615
vt 0.5916908383369446 0.6469161808490753
vt 0.5798149108886719 0.7066788673400879
vt 0.5798095464706421 0.5549376308917999
vt 0.5798095464706421 0.5549376904964447
vt 0.7315528392791748 0.5549334585666656
vt 0.6734789609909058 0.566446840763092

g slope_Collider1
s 1
usemtl slope_Collider1
f 1/1/1 2/2/2 3/3/3 
f 1/1/1 3/3/3 4/4/4 
f 5/5/5 6/6/6 7/7/7 
f 5/5/5 7/7/7 8/8/8 
f 9/9/9 10/10/10 11/11/11 
f 12/12/12 13/13/13 14/14/14 

