v -1.4356859922409058 -0.12015380710363388 -0.4650024175643921
v -0.5050708055496216 -0.5 -0.4650024175643921
v -0.41001462936401367 -0.4999975562095642 0.1189538910984993
v -1.300209879875183 -0.11897058039903641 0.4081951081752777
v 0.4949291944503784 -0.5 -0.46500492095947266
v -1.300209879875183 0.11897058039903641 0.4081951081752777
v -1.4356859922409058 0.12015380710363388 -0.4650024175643921
v -1.4356859922409058 -0.12015380710363388 -0.4650024175643921
v -0.8827563524246216 -0.11897058039903641 1.2274900674819946
v -1.300209879875183 0.11897058039903641 0.4081951081752777
v -0.8827563524246216 0.11897058039903641 1.2274900674819946
v -0.2325604259967804 0.11897058039903641 1.8776859045028687
v -0.2325604259967804 -0.11897058039903641 1.8776859045028687
v -0.41001462936401367 -0.4999975562095642 0.1189538910984993
v -1.300209879875183 -0.11897058039903641 0.4081951081752777
v 0.8759741187095642 -0.4999975562095642 1.4049439430236816
v 0.4949291944503784 -0.5 -0.46500492095947266
v 1.459932804107666 -0.5 0.49999985098838806
v 1.459932804107666 -0.12015380710363388 -0.4650045931339264
v 1.459932804107666 0.5 0.49999985098838806
v 1.459932804107666 0.12015380710363388 -0.4650045931339264
v 0.4949291944503784 0.5 -0.46500492095947266
v 1.459932804107666 0.5 1.5000001192092896
v 1.459932804107666 -0.5 1.5000001192092896
v 0.8759741187095642 0.4999975562095642 1.4049439430236816
v -0.41001462936401367 0.4999975562095642 0.1189538910984993
v -0.5050708055496216 0.5 -0.4650024175643921
v 0.5867334008216858 -0.11897058039903641 2.295137882232666
v 0.8759741187095642 -0.4999975562095642 1.4049439430236816
v 1.459932804107666 -0.12015380710363388 2.4306154251098633
v 1.459932804107666 0.5 1.5000001192092896
v 1.459932804107666 0.12015380710363388 2.4306154251098633
v 1.459932804107666 -0.12015380710363388 2.4306154251098633
v 0.5867334008216858 0.11897058039903641 2.295137882232666
v 1.459932804107666 0.5 1.5000001192092896
v 0.8759741187095642 0.4999975562095642 1.4049439430236816
v -0.2325604259967804 0.11897058039903641 1.8776859045028687
v 0.5867334008216858 -0.11897058039903641 2.295137882232666
v -0.2325604259967804 -0.11897058039903641 1.8776859045028687
v 0.8759741187095642 -0.4999975562095642 1.4049439430236816
v -0.8827563524246216 0.11897058039903641 1.2274900674819946
v -0.41001462936401367 0.4999975562095642 0.1189538910984993
v -1.300209879875183 0.11897058039903641 0.4081951081752777
v -1.4356859922409058 0.12015380710363388 -0.4650024175643921
v -0.5050708055496216 0.5 -0.4650024175643921
v 1.459932804107666 0.12015380710363388 2.4306154251098633
v 0.5867334008216858 0.11897058039903641 2.295137882232666
v 1.459932804107666 -0.12015380710363388 2.4306154251098633
v 1.459932804107666 0.12015380710363388 -0.4650045931339264
v 1.459932804107666 -0.12015380710363388 -0.4650045931339264
v 0.4949291944503784 -0.5 -0.46500492095947266
v 0.4949291944503784 0.5 -0.46500492095947266
v -0.5050708055496216 -0.5 -0.4650024175643921
v -1.4356859922409058 -0.12015380710363388 -0.4650024175643921
v -1.4356859922409058 0.12015380710363388 -0.4650024175643921
v -0.5050708055496216 0.5 -0.4650024175643921
v 0.4949291944503784 0.5 -0.46500492095947266
v 0.4949291944503784 -0.5 -0.46500492095947266
v 1.459932804107666 -0.5 0.49999985098838806
v 1.459932804107666 -0.5 1.5000001192092896
v 0.8759741187095642 -0.4999975562095642 1.4049439430236816
vn -0.45769158005714417 -0.6145219802856445 -0.6425582766532898
vn -0.17441333830356598 -0.5785885453224182 -0.7967528700828552
vn -0.17168478667736053 -0.9804507493972778 0.09612904489040375
vn -0.6114734411239624 -0.7687473297119141 0.18742398917675018
vn 0.03622295707464218 -0.823458194732666 -0.5662195682525635
vn -0.6114734411239624 0.7687473297119141 0.18742398917675018
vn -0.45769158005714417 0.6145219802856445 -0.6425582766532898
vn -0.45769158005714417 -0.6145219802856445 -0.6425582766532898
vn -0.36781200766563416 -0.8766311407089233 0.31021302938461304
vn -0.6114734411239624 0.7687473297119141 0.18742398917675018
vn -0.36781200766563416 0.8766312599182129 0.31021302938461304
vn -0.3102130591869354 0.8766312599182129 0.3678119480609894
vn -0.3102130591869354 -0.8766311407089233 0.367811918258667
vn -0.17168478667736053 -0.9804507493972778 0.09612904489040375
vn -0.6114734411239624 -0.7687473297119141 0.18742398917675018
vn -0.09612918645143509 -0.9804507493972778 0.17168495059013367
vn 0.03622295707464218 -0.823458194732666 -0.5662195682525635
vn 0.5662194490432739 -0.823458194732666 -0.03622373193502426
vn 0.6712469458580017 -0.31441381573677063 -0.6712462902069092
vn 0.5662195682525635 0.8234580755233765 -0.03622371330857277
vn 0.6712470054626465 0.31441378593444824 -0.6712462306022644
vn 0.03622293844819069 0.8234580755233765 -0.5662196278572083
vn 0.7967525124549866 0.5785895586013794 0.1744123101234436
vn 0.7967525124549866 -0.5785894989967346 0.17441225051879883
vn -0.0961291640996933 0.9804507493972778 0.17168495059013367
vn -0.17168477177619934 0.9804507493972778 0.09612900763750076
vn -0.17441333830356598 0.5785885453224182 -0.7967528700828552
vn -0.18742376565933228 -0.7687475085258484 0.6114733815193176
vn -0.09612918645143509 -0.9804507493972778 0.17168495059013367
vn 0.6425570845603943 -0.6145228743553162 0.45769202709198
vn 0.7967525124549866 0.5785895586013794 0.1744123101234436
vn 0.6425570845603943 0.6145228743553162 0.45769208669662476
vn 0.6425570845603943 -0.6145228743553162 0.45769202709198
vn -0.1874237209558487 0.7687473297119141 0.6114734411239624
vn 0.7967525124549866 0.5785895586013794 0.1744123101234436
vn -0.0961291640996933 0.9804507493972778 0.17168495059013367
vn -0.3102130591869354 0.8766312599182129 0.3678119480609894
vn -0.18742376565933228 -0.7687475085258484 0.6114733815193176
vn -0.3102130591869354 -0.8766311407089233 0.367811918258667
vn -0.09612918645143509 -0.9804507493972778 0.17168495059013367
vn -0.36781200766563416 0.8766312599182129 0.31021302938461304
vn -0.17168477177619934 0.9804507493972778 0.09612900763750076
vn -0.6114734411239624 0.7687473297119141 0.18742398917675018
vn -0.45769158005714417 0.6145219802856445 -0.6425582766532898
vn -0.17441333830356598 0.5785885453224182 -0.7967528700828552
vn 0.6425570845603943 0.6145228743553162 0.45769208669662476
vn -0.1874237209558487 0.7687473297119141 0.6114734411239624
vn 0.6425570845603943 -0.6145228743553162 0.45769202709198
vn 0.6712470054626465 0.31441378593444824 -0.6712462306022644
vn 0.6712469458580017 -0.31441381573677063 -0.6712462902069092
vn 0.03622295707464218 -0.823458194732666 -0.5662195682525635
vn 0.03622293844819069 0.8234580755233765 -0.5662196278572083
vn -0.17441333830356598 -0.5785885453224182 -0.7967528700828552
vn -0.45769158005714417 -0.6145219802856445 -0.6425582766532898
vn -0.45769158005714417 0.6145219802856445 -0.6425582766532898
vn -0.17441333830356598 0.5785885453224182 -0.7967528700828552
vn 0.03622293844819069 0.8234580755233765 -0.5662196278572083
vn 0.03622295707464218 -0.823458194732666 -0.5662195682525635
vn 0.5662194490432739 -0.823458194732666 -0.03622373193502426
vn 0.7967525124549866 -0.5785894989967346 0.17441225051879883
vn -0.09612918645143509 -0.9804507493972778 0.17168495059013367
vt 0.2505025565624237 0.11023890972137451
vt 0.2505066692829132 0.11024582386016846
vt 0.2505073547363281 0.10973560810089111
vt 0.25050315260887146 0.11040210723876953
vt 0.2505108416080475 0.11025547981262207
vt 0.25050315260887146 0.11040210723876953
vt 0.2505020499229431 0.11023807525634766
vt 0.2505025565624237 0.11023890972137451
vt 0.2505049407482147 0.1105492115020752
vt 0.25050315260887146 0.11040210723876953
vt 0.2505049407482147 0.1105492115020752
vt 0.2505076825618744 0.11066603660583496
vt 0.2505076825618744 0.11066603660583496
vt 0.2505073547363281 0.10973560810089111
vt 0.25050315260887146 0.11040210723876953
vt 0.25051236152648926 0.11091601848602295
vt 0.25051450729370117 0.10261034965515137
vt 0.2505154013633728 0.11060047149658203
vt 0.2505178451538086 0.11095607280731201
vt 0.25051549077033997 0.11077892780303955
vt 0.2505189776420593 0.1129961609840393
vt 0.2505001723766327 0.11146324872970581
vt 0.25051501393318176 0.11059790849685669
vt 0.25051501393318176 0.11059790849685669
vt 0.250512957572937 0.11055147647857666
vt 0.25050631165504456 0.1104174256324768
vt 0.2505066692829132 0.11024594306945801
vt 0.25051113963127136 0.11074107885360718
vt 0.25051236152648926 0.11091601848602295
vt 0.25051382184028625 0.11086535453796387
vt 0.25051501393318176 0.11059790849685669
vt 0.25051257014274597 0.1109129786491394
vt 0.25051382184028625 0.11086535453796387
vt 0.25051113963127136 0.11074107885360718
vt 0.25051501393318176 0.11059790849685669
vt 0.250512957572937 0.11055147647857666
vt 0.2505076825618744 0.11066603660583496
vt 0.25051113963127136 0.11074107885360718
vt 0.2505076825618744 0.11066603660583496
vt 0.25051236152648926 0.11091601848602295
vt 0.2505049407482147 0.1105492115020752
vt 0.25050631165504456 0.1104174256324768
vt 0.25050315260887146 0.11040210723876953
vt 0.2505020499229431 0.11023807525634766
vt 0.2505066692829132 0.11024594306945801
vt 0.25051257014274597 0.1109129786491394
vt 0.25051113963127136 0.11074107885360718
vt 0.25051382184028625 0.11086535453796387
vt 0.2505189776420593 0.1129961609840393
vt 0.2505178451538086 0.11095607280731201
vt 0.25051450729370117 0.10261034965515137
vt 0.2505001723766327 0.11146324872970581
vt 0.25056812167167664 0.11403369903564453
vt 0.2504618465900421 0.11403369903564453
vt 0.2504568099975586 0.11403369903564453
vt 0.2504618465900421 0.11403369903564453
vt 0.2505001723766327 0.11146324872970581
vt 0.25051450729370117 0.10261034965515137
vt 0.2505154013633728 0.11060047149658203
vt 0.25051501393318176 0.11059790849685669
vt 0.25051236152648926 0.11091601848602295

g Strut_Slice_Short_Collision
s 1
usemtl Strut_Slice_Short_Collision
f 1/1/1 2/2/2 3/3/3 
f 1/1/1 3/3/3 4/4/4 
f 5/5/5 3/3/3 2/2/2 
f 4/4/4 6/6/6 7/7/7 
f 4/4/4 7/7/7 8/8/8 
f 9/9/9 10/10/10 4/4/4 
f 9/9/9 11/11/11 10/10/10 
f 12/12/12 11/11/11 9/9/9 
f 12/12/12 9/9/9 13/13/13 
f 13/13/13 9/9/9 14/14/14 
f 15/15/15 14/14/14 9/9/9 
f 13/13/13 14/14/14 16/16/16 
f 17/17/17 16/16/16 14/14/14 
f 17/17/17 18/18/18 16/16/16 
f 18/18/18 17/17/17 19/19/19 
f 19/19/19 20/20/20 18/18/18 
f 19/19/19 21/21/21 20/20/20 
f 21/21/21 22/22/22 20/20/20 
f 18/18/18 20/20/20 23/23/23 
f 18/18/18 23/23/23 24/24/24 
f 20/20/20 25/25/25 23/23/23 
f 20/20/20 22/22/22 26/26/26 
f 20/20/20 26/26/26 25/25/25 
f 22/22/22 27/27/27 26/26/26 
f 28/28/28 29/29/29 24/24/24 
f 28/28/28 24/24/24 30/30/30 
f 24/24/24 31/31/31 32/32/32 
f 24/24/24 32/32/32 33/33/33 
f 34/34/34 32/32/32 35/35/35 
f 34/34/34 35/35/35 36/36/36 
f 37/37/37 34/34/34 36/36/36 
f 38/38/38 34/34/34 37/37/37 
f 38/38/38 37/37/37 39/39/39 
f 39/39/39 40/40/40 38/38/38 
f 36/36/36 41/41/41 37/37/37 
f 36/36/36 42/42/42 41/41/41 
f 43/43/43 41/41/41 42/42/42 
f 44/44/44 43/43/43 42/42/42 
f 44/44/44 42/42/42 45/45/45 
f 46/46/46 47/47/47 38/38/38 
f 46/46/46 38/38/38 48/48/48 
f 49/49/49 50/50/50 51/51/51 
f 49/49/49 51/51/51 52/52/52 
f 53/53/53 54/54/54 55/55/55 
f 53/53/53 55/55/55 56/56/56 
f 57/57/57 53/53/53 56/56/56 
f 57/57/57 58/58/58 53/53/53 
f 59/59/59 60/60/60 61/61/61 

