v 0.4778954088687897 0.4986909329891205 -0.44656217098236084
v 0.14555136859416962 1.4474854469299316 -0.44656217098236084
v 0.46032169461250305 1.4474854469299316 0.6778073906898499
v 0.7241194844245911 0.4986909329891205 0.5254413485527039
v 0.18225271999835968 1.4474854469299316 0.8377819061279297
v -0.17221292853355408 1.4474854469299316 -0.44656217098236084
v -0.09683181345462799 0.4986909329891205 1.021087884902954
v -0.4949278235435486 0.4986909329891205 -0.4465962052345276
v 0.7241194844245911 -0.4986909329891205 0.5254413485527039
v 0.4778954088687897 -0.4986909329891205 -0.44656217098236084
v -0.17221292853355408 -1.4474854469299316 -0.44656217098236084
v -0.4949278235435486 -0.4986909329891205 -0.4465962052345276
v 0.14555136859416962 -1.4474854469299316 -0.44656217098236084
v -0.09683181345462799 -0.4986909329891205 1.021087884902954
v 0.18225271999835968 -1.4474854469299316 0.8377819061279297
v 0.46032169461250305 -1.4474854469299316 0.6778073906898499
v 0.4778954088687897 -0.4986909329891205 -0.44656217098236084
v 0.7241194844245911 -0.4986909329891205 0.5254413485527039
v 0.46032169461250305 -1.4474854469299316 0.6778073906898499
v 0.14555136859416962 -1.4474854469299316 -0.44656217098236084
v 0.18225271999835968 -1.4474854469299316 0.8377819061279297
v -0.17221292853355408 -1.4474854469299316 -0.44656217098236084
v -0.09683181345462799 -0.4986909329891205 1.021087884902954
v -0.4949278235435486 -0.4986909329891205 -0.4465962052345276
vn 0.4119599461555481 0.07175633311271667 -0.908372163772583
vn 0.29701924324035645 0.24297529458999634 -0.92344069480896
vn 0.7330169081687927 0.24535265564918518 0.6344196796417236
vn 0.8162956833839417 0.07122224569320679 0.5732266306877136
vn -0.012277972884476185 0.2901701033115387 0.9568963646888733
vn -0.49598798155784607 0.28549328446388245 -0.8200545907020569
vn -0.1672440469264984 0.10139007121324539 0.980688214302063
vn -0.6418537497520447 0.1009269580245018 -0.7601562142372131
vn 0.8162956833839417 -0.07122223824262619 0.5732266306877136
vn 0.4119599461555481 -0.07175633311271667 -0.908372163772583
vn -0.49598798155784607 -0.28549328446388245 -0.8200545907020569
vn -0.6418537497520447 -0.1009269580245018 -0.7601562142372131
vn 0.29701921343803406 -0.24297529458999634 -0.92344069480896
vn -0.1672440469264984 -0.10139007121324539 0.980688214302063
vn -0.012277972884476185 -0.2901701033115387 0.9568963646888733
vn 0.7330169081687927 -0.245352640748024 0.6344196796417236
vn 0.4119599461555481 -0.07175633311271667 -0.908372163772583
vn 0.8162956833839417 -0.07122223824262619 0.5732266306877136
vn 0.7330169081687927 -0.245352640748024 0.6344196796417236
vn 0.29701921343803406 -0.24297529458999634 -0.92344069480896
vn -0.012277972884476185 -0.2901701033115387 0.9568963646888733
vn -0.49598798155784607 -0.28549328446388245 -0.8200545907020569
vn -0.1672440469264984 -0.10139007121324539 0.980688214302063
vn -0.6418537497520447 -0.1009269580245018 -0.7601562142372131
vt 0.9999998807907104 0.16916656494140625
vt 0.9999998807907104 0.25
vt 0.916666567325592 0.25
vt 0.9166665077209473 0.16916656494140625
vt 0.916666567325592 0.5
vt 0.9999998807907104 0.5
vt 0.9166665077209473 0.5808334648609161
vt 0.9999998807907104 0.5808334648609161
vt 0.9166665077209473 0.16916656494140625
vt 0.9999998807907104 0.16916656494140625
vt 0.9999998807907104 0.5
vt 0.9999998807907104 0.5808334648609161
vt 0.9999998807907104 0.25
vt 0.9166665077209473 0.5808334648609161
vt 0.916666567325592 0.5
vt 0.916666567325592 0.25
vt 0.9999998807907104 0.16916656494140625
vt 0.9166665077209473 0.16916656494140625
vt 0.916666567325592 0.25
vt 0.9999998807907104 0.25
vt 0.916666567325592 0.5
vt 0.9999998807907104 0.5
vt 0.9166665077209473 0.5808334648609161
vt 0.9999998807907104 0.5808334648609161

g strut_arc_COL1
s 1
usemtl strut_arc_COL1
f 1/1/1 2/2/2 3/3/3 
f 1/1/1 3/3/3 4/4/4 
f 2/2/2 5/5/5 3/3/3 
f 2/2/2 6/6/6 5/5/5 
f 6/6/6 7/7/7 5/5/5 
f 6/6/6 8/8/8 7/7/7 
f 1/1/1 4/4/4 9/9/9 
f 1/1/1 9/9/9 10/10/10 
f 2/2/2 1/1/1 10/10/10 
f 8/8/8 6/6/6 11/11/11 
f 11/11/11 12/12/12 8/8/8 
f 7/7/7 8/8/8 12/12/12 
f 6/6/6 13/13/13 11/11/11 
f 6/6/6 2/2/2 13/13/13 
f 2/2/2 10/10/10 13/13/13 
f 7/7/7 12/12/12 14/14/14 
f 5/5/5 7/7/7 14/14/14 
f 14/14/14 15/15/15 5/5/5 
f 15/15/15 3/3/3 5/5/5 
f 15/15/15 16/16/16 3/3/3 
f 16/16/16 4/4/4 3/3/3 
f 16/16/16 9/9/9 4/4/4 
f 17/17/17 18/18/18 19/19/19 
f 17/17/17 19/19/19 20/20/20 
f 20/20/20 19/19/19 21/21/21 
f 20/20/20 21/21/21 22/22/22 
f 22/22/22 21/21/21 23/23/23 
f 22/22/22 23/23/23 24/24/24 

