v -0.20836913585662842 0.06082664430141449 -0.5030480623245239
v -0.1854577660560608 0.1351838856935501 -0.4477349817752838
v 0.1854577660560608 0.1351838856935501 -0.4477349817752838
v 0.20836913585662842 0.06082664430141449 -0.5030480623245239
v 0.20836913585662842 0.06082664430141449 -0.5030480623245239
v 0.1854577660560608 0.1351838856935501 -0.4477349817752838
v 0.4477349817752838 0.1351838856935501 -0.18545806407928467
v 0.5030480623245239 0.06082664430141449 -0.2083694338798523
v 0.5030480623245239 0.06082664430141449 -0.2083694338798523
v 0.4477349817752838 0.1351838856935501 -0.18545806407928467
v 0.4477349817752838 0.1351838856935501 0.1854577660560608
v 0.5030480623245239 0.06082664430141449 0.20836913585662842
v 0.5030480623245239 0.06082664430141449 0.20836913585662842
v 0.4477349817752838 0.1351838856935501 0.1854577660560608
v 0.1854577660560608 0.1351838856935501 0.4477352797985077
v 0.20836913585662842 0.06082664430141449 0.5030480623245239
v 0.20836913585662842 0.06082664430141449 0.5030480623245239
v 0.1854577660560608 0.1351838856935501 0.4477352797985077
v -0.18545791506767273 0.1351838856935501 0.4477352797985077
v -0.20836913585662842 0.06082664430141449 0.5030480623245239
v -0.20836913585662842 0.06082664430141449 0.5030480623245239
v -0.18545791506767273 0.1351838856935501 0.4477352797985077
v -0.4477352797985077 0.1351838856935501 0.18545806407928467
v -0.5030480623245239 0.06082664430141449 0.2083694338798523
v -0.5030480623245239 0.06082664430141449 0.2083694338798523
v -0.4477352797985077 0.1351838856935501 0.18545806407928467
v -0.44773513078689575 0.1351838856935501 -0.18545806407928467
v -0.5030480623245239 0.06082664430141449 -0.2083694338798523
v -0.5030480623245239 0.06082664430141449 -0.2083694338798523
v -0.44773513078689575 0.1351838856935501 -0.18545806407928467
v -0.1854577660560608 0.1351838856935501 -0.4477349817752838
v -0.20836913585662842 0.06082664430141449 -0.5030480623245239
v 0.18509216606616974 7.657069317082508e-17 -0.44685178995132446
v 2.8421708795129297e-16 0.0 0.0
v -0.18509216606616974 1.2191636377406763e-16 -0.44685178995132446
v 0.44685178995132446 -1.3600231489175351e-17 -0.18509185314178467
v 0.44685178995132446 -9.582612110718968e-17 0.1850915551185608
v 0.18509216606616974 -1.218816751278996e-16 0.44685178995132446
v -0.18509216606616974 -7.653599790721216e-17 0.44685178995132446
v -0.4468514919281006 1.3634925925607663e-17 0.18509216606616974
v -0.4468514919281006 9.582612110718968e-17 -0.18509216606616974
v -0.1854577660560608 0.1351838856935501 -0.4477349817752838
v 2.8421708795129297e-16 0.1351838856935501 0.0
v 0.1854577660560608 0.1351838856935501 -0.4477349817752838
v 0.4477349817752838 0.1351838856935501 -0.18545806407928467
v 0.4477349817752838 0.1351838856935501 0.1854577660560608
v 0.1854577660560608 0.1351838856935501 0.4477352797985077
v -0.18545791506767273 0.1351838856935501 0.4477352797985077
v -0.4477352797985077 0.1351838856935501 0.18545806407928467
v -0.44773513078689575 0.1351838856935501 -0.18545806407928467
v -0.20836913585662842 0.06082664430141449 -0.5030480623245239
v 0.20836913585662842 0.06082664430141449 -0.5030480623245239
v 0.18509216606616974 7.657069317082508e-17 -0.44685178995132446
v -0.18509216606616974 1.2191636377406763e-16 -0.44685178995132446
v -0.18509216606616974 1.2191636377406763e-16 -0.44685178995132446
v -0.4468514919281006 9.582612110718968e-17 -0.18509216606616974
v -0.5030480623245239 0.06082664430141449 -0.2083694338798523
v -0.20836913585662842 0.06082664430141449 -0.5030480623245239
v 0.20836913585662842 0.06082664430141449 -0.5030480623245239
v 0.5030480623245239 0.06082664430141449 -0.2083694338798523
v 0.44685178995132446 -1.3600231489175351e-17 -0.18509185314178467
v 0.18509216606616974 7.657069317082508e-17 -0.44685178995132446
v 0.5030480623245239 0.06082664430141449 -0.2083694338798523
v 0.5030480623245239 0.06082664430141449 0.20836913585662842
v 0.44685178995132446 -9.582612110718968e-17 0.1850915551185608
v 0.44685178995132446 -1.3600231489175351e-17 -0.18509185314178467
v 0.5030480623245239 0.06082664430141449 0.20836913585662842
v 0.20836913585662842 0.06082664430141449 0.5030480623245239
v 0.18509216606616974 -1.218816751278996e-16 0.44685178995132446
v 0.44685178995132446 -9.582612110718968e-17 0.1850915551185608
v 0.20836913585662842 0.06082664430141449 0.5030480623245239
v -0.20836913585662842 0.06082664430141449 0.5030480623245239
v -0.18509216606616974 -7.653599790721216e-17 0.44685178995132446
v 0.18509216606616974 -1.218816751278996e-16 0.44685178995132446
v -0.20836913585662842 0.06082664430141449 0.5030480623245239
v -0.5030480623245239 0.06082664430141449 0.2083694338798523
v -0.4468514919281006 1.3634925925607663e-17 0.18509216606616974
v -0.18509216606616974 -7.653599790721216e-17 0.44685178995132446
v -0.5030480623245239 0.06082664430141449 0.2083694338798523
v -0.5030480623245239 0.06082664430141449 -0.2083694338798523
v -0.4468514919281006 9.582612110718968e-17 -0.18509216606616974
v -0.4468514919281006 1.3634925925607663e-17 0.18509216606616974
vn 0.0 0.0 -1.0
vn 0.0 0.0 -1.0
vn 0.0 0.0 -1.0
vn 0.0 0.0 -1.0
vn 0.7071062326431274 0.0 -0.7071072459220886
vn 0.7071062326431274 0.0 -0.7071072459220886
vn 0.7071062326431274 0.0 -0.7071072459220886
vn 0.7071062326431274 0.0 -0.7071072459220886
vn 1.0 0.0 0.0
vn 1.0 0.0 0.0
vn 1.0 0.0 0.0
vn 1.0 0.0 0.0
vn 0.7071065902709961 0.0 0.70710688829422
vn 0.7071065902709961 0.0 0.70710688829422
vn 0.7071065902709961 0.0 0.70710688829422
vn 0.7071065902709961 0.0 0.70710688829422
vn 0.0 0.0 1.0
vn 0.0 0.0 1.0
vn 0.0 0.0 1.0
vn 0.0 0.0 1.0
vn -0.7071064114570618 0.0 0.7071070671081543
vn -0.7071064114570618 0.0 0.7071070671081543
vn -0.7071064114570618 0.0 0.7071070671081543
vn -0.7071064114570618 0.0 0.7071070671081543
vn -1.0 0.0 0.0
vn -1.0 0.0 0.0
vn -1.0 0.0 0.0
vn -1.0 0.0 0.0
vn -0.7071062326431274 0.0 -0.7071072459220886
vn -0.7071062326431274 0.0 -0.7071072459220886
vn -0.7071062326431274 0.0 -0.7071072459220886
vn -0.7071062326431274 0.0 -0.7071072459220886
vn 0.0 -1.0 0.0
vn 0.0 -1.0 0.0
vn 0.0 -1.0 0.0
vn 0.0 -1.0 0.0
vn 0.0 -1.0 0.0
vn 0.0 -1.0 0.0
vn 0.0 -1.0 0.0
vn 0.0 -1.0 0.0
vn 0.0 -1.0 0.0
vn 0.0 1.0 0.0
vn 0.0 1.0 0.0
vn 0.0 1.0 0.0
vn 0.0 1.0 0.0
vn 0.0 1.0 0.0
vn 0.0 1.0 0.0
vn 0.0 1.0 0.0
vn 0.0 1.0 0.0
vn 0.0 1.0 0.0
vn 0.0 -0.6785974502563477 -0.7345103621482849
vn 0.0 -0.6785974502563477 -0.7345103621482849
vn 0.0 -0.6785974502563477 -0.7345103621482849
vn 0.0 -0.6785974502563477 -0.7345103621482849
vn -0.5193774700164795 -0.6785971522331238 -0.519377589225769
vn -0.5193774700164795 -0.6785971522331238 -0.519377589225769
vn -0.5193774700164795 -0.6785971522331238 -0.519377589225769
vn -0.5193774700164795 -0.6785971522331238 -0.519377589225769
vn 0.5193775296211243 -0.6785971522331238 -0.5193774700164795
vn 0.5193775296211243 -0.6785971522331238 -0.5193774700164795
vn 0.5193775296211243 -0.6785971522331238 -0.5193774700164795
vn 0.5193775296211243 -0.6785971522331238 -0.5193774700164795
vn 0.7345108389854431 -0.6785970330238342 0.0
vn 0.7345108389854431 -0.6785970330238342 0.0
vn 0.7345108389854431 -0.6785970330238342 0.0
vn 0.7345108389854431 -0.6785970330238342 0.0
vn 0.5193772912025452 -0.6785977482795715 0.5193769335746765
vn 0.5193772912025452 -0.6785977482795715 0.5193769335746765
vn 0.5193772912025452 -0.6785977482795715 0.5193769335746765
vn 0.5193772912025452 -0.6785977482795715 0.5193769335746765
vn 0.0 -0.6785990595817566 0.7345088720321655
vn 0.0 -0.6785990595817566 0.7345088720321655
vn 0.0 -0.6785990595817566 0.7345088720321655
vn 0.0 -0.6785990595817566 0.7345088720321655
vn -0.5193767547607422 -0.6785981059074402 0.5193768739700317
vn -0.5193767547607422 -0.6785981059074402 0.5193768739700317
vn -0.5193767547607422 -0.6785981059074402 0.5193768739700317
vn -0.5193767547607422 -0.6785981059074402 0.5193768739700317
vn -0.7345088720321655 -0.6785989999771118 0.0
vn -0.7345088720321655 -0.6785989999771118 0.0
vn -0.7345088720321655 -0.6785989999771118 0.0
vn -0.7345088720321655 -0.6785989999771118 0.0
vt 0.8583862781524658 0.056638360023498535
vt 0.8584806323051453 0.05641067028045654
vt 0.8600075840950012 0.05641067028045654
vt 0.8601018190383911 0.056638360023498535
vt 0.8601018190383911 0.056638360023498535
vt 0.8600075840950012 0.05641067028045654
vt 0.8610873222351074 0.05533099174499512
vt 0.8613148927688599 0.055425286293029785
vt 0.8613148927688599 0.055425286293029785
vt 0.8610873222351074 0.05533099174499512
vt 0.8610873222351074 0.05380415916442871
vt 0.8613148927688599 0.05370974540710449
vt 0.8613148927688599 0.05370974540710449
vt 0.8610873222351074 0.05380415916442871
vt 0.8600075840950012 0.052724361419677734
vt 0.8601018190383911 0.05249667167663574
vt 0.8601018190383911 0.05249667167663574
vt 0.8600075840950012 0.052724361419677734
vt 0.8584806323051453 0.052724361419677734
vt 0.8583862781524658 0.05249667167663574
vt 0.8583862781524658 0.05249667167663574
vt 0.8584806323051453 0.052724361419677734
vt 0.8574008941650391 0.05380415916442871
vt 0.8571732044219971 0.05370974540710449
vt 0.8571732044219971 0.05370974540710449
vt 0.8574008941650391 0.05380415916442871
vt 0.8574008941650391 0.05533099174499512
vt 0.8571732044219971 0.055425286293029785
vt 0.8571732044219971 0.055425286293029785
vt 0.8574008941650391 0.05533099174499512
vt 0.8584806323051453 0.05641067028045654
vt 0.8583862781524658 0.056638360023498535
vt 0.8468087911605835 0.050568580627441406
vt 0.8449692726135254 0.04980665445327759
vt 0.8468087911605835 0.04904472827911377
vt 0.845731258392334 0.05164623260498047
vt 0.8442074060440063 0.05164623260498047
vt 0.8431297540664673 0.050568580627441406
vt 0.8431297540664673 0.04904472827911377
vt 0.8442074060440063 0.04796725511550903
vt 0.845731258392334 0.04796725511550903
vt 0.8584806323051453 0.05641067028045654
vt 0.8592440485954285 0.05456745624542236
vt 0.8600075840950012 0.05641067028045654
vt 0.8610873222351074 0.05533099174499512
vt 0.8610873222351074 0.05380415916442871
vt 0.8600075840950012 0.052724361419677734
vt 0.8584806323051453 0.052724361419677734
vt 0.8574008941650391 0.05380415916442871
vt 0.8574008941650391 0.05533099174499512
vt 0.8470401763916016 0.04894876480102539
vt 0.8470401763916016 0.050664424896240234
vt 0.8468087911605835 0.050568580627441406
vt 0.8468087911605835 0.04904472827911377
vt 0.8468087911605835 0.04904472827911377
vt 0.845731258392334 0.04796725511550903
vt 0.845827043056488 0.04773586988449097
vt 0.8470401763916016 0.04894876480102539
vt 0.8470401763916016 0.050664424896240234
vt 0.845827043056488 0.05187726020812988
vt 0.845731258392334 0.05164623260498047
vt 0.8468087911605835 0.050568580627441406
vt 0.845827043056488 0.05187726020812988
vt 0.8441115617752075 0.05187726020812988
vt 0.8442074060440063 0.05164623260498047
vt 0.845731258392334 0.05164623260498047
vt 0.8441115617752075 0.05187726020812988
vt 0.8428983092308044 0.050664424896240234
vt 0.8431297540664673 0.050568580627441406
vt 0.8442074060440063 0.05164623260498047
vt 0.8428983092308044 0.050664424896240234
vt 0.8428983092308044 0.04894876480102539
vt 0.8431297540664673 0.04904472827911377
vt 0.8431297540664673 0.050568580627441406
vt 0.8428983092308044 0.04894876480102539
vt 0.8441115617752075 0.04773586988449097
vt 0.8442074060440063 0.04796725511550903
vt 0.8431297540664673 0.04904472827911377
vt 0.8441115617752075 0.04773586988449097
vt 0.845827043056488 0.04773586988449097
vt 0.845731258392334 0.04796725511550903
vt 0.8442074060440063 0.04796725511550903

g Base
s 1
usemtl Base
f 1/1/1 2/2/2 3/3/3 
f 1/1/1 3/3/3 4/4/4 
f 5/5/5 6/6/6 7/7/7 
f 5/5/5 7/7/7 8/8/8 
f 9/9/9 10/10/10 11/11/11 
f 9/9/9 11/11/11 12/12/12 
f 13/13/13 14/14/14 15/15/15 
f 13/13/13 15/15/15 16/16/16 
f 17/17/17 18/18/18 19/19/19 
f 17/17/17 19/19/19 20/20/20 
f 21/21/21 22/22/22 23/23/23 
f 21/21/21 23/23/23 24/24/24 
f 25/25/25 26/26/26 27/27/27 
f 25/25/25 27/27/27 28/28/28 
f 29/29/29 30/30/30 31/31/31 
f 29/29/29 31/31/31 32/32/32 
f 33/33/33 34/34/34 35/35/35 
f 36/36/36 34/34/34 33/33/33 
f 37/37/37 34/34/34 36/36/36 
f 38/38/38 34/34/34 37/37/37 
f 39/39/39 34/34/34 38/38/38 
f 40/40/40 34/34/34 39/39/39 
f 41/41/41 34/34/34 40/40/40 
f 35/35/35 34/34/34 41/41/41 
f 42/42/42 43/43/43 44/44/44 
f 44/44/44 43/43/43 45/45/45 
f 45/45/45 43/43/43 46/46/46 
f 46/46/46 43/43/43 47/47/47 
f 47/47/47 43/43/43 48/48/48 
f 48/48/48 43/43/43 49/49/49 
f 49/49/49 43/43/43 50/50/50 
f 50/50/50 43/43/43 42/42/42 
f 51/51/51 52/52/52 53/53/53 
f 51/51/51 53/53/53 54/54/54 
f 55/55/55 56/56/56 57/57/57 
f 55/55/55 57/57/57 58/58/58 
f 59/59/59 60/60/60 61/61/61 
f 59/59/59 61/61/61 62/62/62 
f 63/63/63 64/64/64 65/65/65 
f 63/63/63 65/65/65 66/66/66 
f 67/67/67 68/68/68 69/69/69 
f 67/67/67 69/69/69 70/70/70 
f 71/71/71 72/72/72 73/73/73 
f 71/71/71 73/73/73 74/74/74 
f 75/75/75 76/76/76 77/77/77 
f 75/75/75 77/77/77 78/78/78 
f 79/79/79 80/80/80 81/81/81 
f 79/79/79 81/81/81 82/82/82 

