v -0.5030480623245239 0.06082664430141449 0.20836913585662842
v -0.444926381111145 0.1351838856935501 0.18429411947727203
v -0.444926381111145 0.1351838856935501 -0.1842944324016571
v -0.5030480623245239 0.06082664430141449 -0.20836913585662842
v -0.5030480623245239 0.06082664430141449 -0.20836913585662842
v -0.444926381111145 0.1351838856935501 -0.1842944324016571
v -0.18429458141326904 0.1351838856935501 -0.4449261426925659
v -0.2083694338798523 0.06082664430141449 -0.5030480623245239
v -0.2083694338798523 0.06082664430141449 -0.5030480623245239
v -0.18429458141326904 0.1351838856935501 -0.4449261426925659
v 0.18429450690746307 0.1351838856935501 -0.44492673873901367
v 0.20836928486824036 0.06082664430141449 -0.5030480623245239
v 0.20836928486824036 0.06082664430141449 -0.5030480623245239
v 0.18429450690746307 0.1351838856935501 -0.44492673873901367
v 0.44492653012275696 0.1351838856935501 -0.18429473042488098
v 0.5030482411384583 0.06082664430141449 -0.20836913585662842
v 0.5030482411384583 0.06082664430141449 -0.20836913585662842
v 0.44492653012275696 0.1351838856935501 -0.18429473042488098
v 0.44492653012275696 0.1351838856935501 0.18429411947727203
v 0.5030482411384583 0.06082664430141449 0.20836913585662842
v 0.5030482411384583 0.06082664430141449 0.20836913585662842
v 0.44492653012275696 0.1351838856935501 0.18429411947727203
v 0.184294655919075 0.1351838856935501 0.4449264407157898
v 0.2083694338798523 0.06082664430141449 0.5030480623245239
v 0.2083694338798523 0.06082664430141449 0.5030480623245239
v 0.184294655919075 0.1351838856935501 0.4449264407157898
v -0.18429462611675262 0.1351838856935501 0.4449261426925659
v -0.2083694338798523 0.06082664430141449 0.5030480623245239
v -0.2083694338798523 0.06082664430141449 0.5030480623245239
v -0.18429462611675262 0.1351838856935501 0.4449261426925659
v -0.444926381111145 0.1351838856935501 0.18429411947727203
v -0.5030480623245239 0.06082664430141449 0.20836913585662842
v -0.44685178995132446 7.657069317082508e-17 -0.18509216606616974
v 2.156955106502091e-16 0.0 5.684341759025859e-16
v -0.44685178995132446 1.2191636377406763e-16 0.18509216606616974
v -0.18509185314178467 -1.3600231489175351e-17 -0.44685178995132446
v 0.18509170413017273 -9.582612110718968e-17 -0.44685178995132446
v 0.4468516409397125 -1.218816751278996e-16 -0.18509216606616974
v 0.4468516409397125 -7.653599790721216e-17 0.18509216606616974
v 0.1850920021533966 1.3634925925607663e-17 0.4468511939048767
v -0.1850920021533966 9.582612110718968e-17 0.4468511939048767
v -0.444926381111145 0.1351838856935501 0.18429411947727203
v 8.814927454636745e-09 0.1351838856935501 5.684341759025859e-16
v -0.444926381111145 0.1351838856935501 -0.1842944324016571
v -0.18429458141326904 0.1351838856935501 -0.4449261426925659
v 0.18429450690746307 0.1351838856935501 -0.44492673873901367
v 0.44492653012275696 0.1351838856935501 -0.18429473042488098
v 0.44492653012275696 0.1351838856935501 0.18429411947727203
v 0.184294655919075 0.1351838856935501 0.4449264407157898
v -0.18429462611675262 0.1351838856935501 0.4449261426925659
v -0.5030480623245239 0.06082664430141449 0.20836913585662842
v -0.5030480623245239 0.06082664430141449 -0.20836913585662842
v -0.44685178995132446 7.657069317082508e-17 -0.18509216606616974
v -0.44685178995132446 1.2191636377406763e-16 0.18509216606616974
v -0.44685178995132446 1.2191636377406763e-16 0.18509216606616974
v -0.1850920021533966 9.582612110718968e-17 0.4468511939048767
v -0.2083694338798523 0.06082664430141449 0.5030480623245239
v -0.5030480623245239 0.06082664430141449 0.20836913585662842
v -0.5030480623245239 0.06082664430141449 -0.20836913585662842
v -0.2083694338798523 0.06082664430141449 -0.5030480623245239
v -0.18509185314178467 -1.3600231489175351e-17 -0.44685178995132446
v -0.44685178995132446 7.657069317082508e-17 -0.18509216606616974
v -0.2083694338798523 0.06082664430141449 -0.5030480623245239
v 0.20836928486824036 0.06082664430141449 -0.5030480623245239
v 0.18509170413017273 -9.582612110718968e-17 -0.44685178995132446
v -0.18509185314178467 -1.3600231489175351e-17 -0.44685178995132446
v 0.20836928486824036 0.06082664430141449 -0.5030480623245239
v 0.5030482411384583 0.06082664430141449 -0.20836913585662842
v 0.4468516409397125 -1.218816751278996e-16 -0.18509216606616974
v 0.18509170413017273 -9.582612110718968e-17 -0.44685178995132446
v 0.5030482411384583 0.06082664430141449 -0.20836913585662842
v 0.5030482411384583 0.06082664430141449 0.20836913585662842
v 0.4468516409397125 -7.653599790721216e-17 0.18509216606616974
v 0.4468516409397125 -1.218816751278996e-16 -0.18509216606616974
v 0.5030482411384583 0.06082664430141449 0.20836913585662842
v 0.2083694338798523 0.06082664430141449 0.5030480623245239
v 0.1850920021533966 1.3634925925607663e-17 0.4468511939048767
v 0.4468516409397125 -7.653599790721216e-17 0.18509216606616974
v 0.2083694338798523 0.06082664430141449 0.5030480623245239
v -0.2083694338798523 0.06082664430141449 0.5030480623245239
v -0.1850920021533966 9.582612110718968e-17 0.4468511939048767
v 0.1850920021533966 1.3634925925607663e-17 0.4468511939048767
vn -1.0 0.0 0.0
vn -1.0 0.0 0.0
vn -1.0 0.0 0.0
vn -1.0 0.0 0.0
vn -0.7071072459220886 0.0 -0.7071062326431274
vn -0.7071072459220886 0.0 -0.7071062326431274
vn -0.7071072459220886 0.0 -0.7071062326431274
vn -0.7071072459220886 0.0 -0.7071062326431274
vn 0.0 0.0 -1.0
vn 0.0 0.0 -1.0
vn 0.0 0.0 -1.0
vn 0.0 0.0 -1.0
vn 0.70710688829422 0.0 -0.7071065902709961
vn 0.70710688829422 0.0 -0.7071065902709961
vn 0.70710688829422 0.0 -0.7071065902709961
vn 0.70710688829422 0.0 -0.7071065902709961
vn 1.0 0.0 0.0
vn 1.0 0.0 0.0
vn 1.0 0.0 0.0
vn 1.0 0.0 0.0
vn 0.7071070671081543 0.0 0.7071064114570618
vn 0.7071070671081543 0.0 0.7071064114570618
vn 0.7071070671081543 0.0 0.7071064114570618
vn 0.7071070671081543 0.0 0.7071064114570618
vn 0.0 0.0 1.0
vn 0.0 0.0 1.0
vn 0.0 0.0 1.0
vn 0.0 0.0 1.0
vn -0.7071072459220886 0.0 0.7071062326431274
vn -0.7071072459220886 0.0 0.7071062326431274
vn -0.7071072459220886 0.0 0.7071062326431274
vn -0.7071072459220886 0.0 0.7071062326431274
vn 0.0 -1.0 0.0
vn 0.0 -1.0 0.0
vn 0.0 -1.0 0.0
vn 0.0 -1.0 0.0
vn 0.0 -1.0 0.0
vn 0.0 -1.0 0.0
vn 0.0 -1.0 0.0
vn 0.0 -1.0 0.0
vn 0.0 -1.0 0.0
vn 0.0 1.0 0.0
vn 0.0 1.0 0.0
vn 0.0 1.0 0.0
vn 0.0 1.0 0.0
vn 0.0 1.0 0.0
vn 0.0 1.0 0.0
vn 0.0 1.0 0.0
vn 0.0 1.0 0.0
vn 0.0 1.0 0.0
vn -0.7345103621482849 -0.6785974502563477 0.0
vn -0.7345103621482849 -0.6785974502563477 0.0
vn -0.7345103621482849 -0.6785974502563477 0.0
vn -0.7345103621482849 -0.6785974502563477 0.0
vn -0.519377589225769 -0.6785971522331238 0.5193774700164795
vn -0.519377589225769 -0.6785971522331238 0.5193774700164795
vn -0.519377589225769 -0.6785971522331238 0.5193774700164795
vn -0.519377589225769 -0.6785971522331238 0.5193774700164795
vn -0.5193774700164795 -0.6785971522331238 -0.5193775296211243
vn -0.5193774700164795 -0.6785971522331238 -0.5193775296211243
vn -0.5193774700164795 -0.6785971522331238 -0.5193775296211243
vn -0.5193774700164795 -0.6785971522331238 -0.5193775296211243
vn 0.0 -0.6785970330238342 -0.7345108389854431
vn 0.0 -0.6785970330238342 -0.7345108389854431
vn 0.0 -0.6785970330238342 -0.7345108389854431
vn 0.0 -0.6785970330238342 -0.7345108389854431
vn 0.5193769335746765 -0.6785977482795715 -0.5193772912025452
vn 0.5193769335746765 -0.6785977482795715 -0.5193772912025452
vn 0.5193769335746765 -0.6785977482795715 -0.5193772912025452
vn 0.5193769335746765 -0.6785977482795715 -0.5193772912025452
vn 0.7345088720321655 -0.6785990595817566 0.0
vn 0.7345088720321655 -0.6785990595817566 0.0
vn 0.7345088720321655 -0.6785990595817566 0.0
vn 0.7345088720321655 -0.6785990595817566 0.0
vn 0.5193768739700317 -0.6785981059074402 0.5193767547607422
vn 0.5193768739700317 -0.6785981059074402 0.5193767547607422
vn 0.5193768739700317 -0.6785981059074402 0.5193767547607422
vn 0.5193768739700317 -0.6785981059074402 0.5193767547607422
vn 0.0 -0.6785989999771118 0.7345088720321655
vn 0.0 -0.6785989999771118 0.7345088720321655
vn 0.0 -0.6785989999771118 0.7345088720321655
vn 0.0 -0.6785989999771118 0.7345088720321655
vt 0.8177186250686646 0.04764026403427124
vt 0.8176195025444031 0.047879576683044434
vt 0.816102147102356 0.047879576683044434
vt 0.8160030841827393 0.04764026403427124
vt 0.8160030841827393 0.04764026403427124
vt 0.816102147102356 0.047879576683044434
vt 0.8150293231010437 0.048952341079711914
vt 0.8147900104522705 0.048853278160095215
vt 0.8147900104522705 0.048853278160095215
vt 0.8150293231010437 0.048952341079711914
vt 0.8150293231010437 0.05046975612640381
vt 0.8147900104522705 0.05056893825531006
vt 0.8147900104522705 0.05056893825531006
vt 0.8150293231010437 0.05046975612640381
vt 0.816102147102356 0.05154263973236084
vt 0.8160030841827393 0.05178201198577881
vt 0.8160030841827393 0.05178201198577881
vt 0.816102147102356 0.05154263973236084
vt 0.8176195025444031 0.05154263973236084
vt 0.8177186250686646 0.05178201198577881
vt 0.8177186250686646 0.05178201198577881
vt 0.8176195025444031 0.05154263973236084
vt 0.8186923861503601 0.05046975612640381
vt 0.8189316391944885 0.05056893825531006
vt 0.8189316391944885 0.05056893825531006
vt 0.8186923861503601 0.05046975612640381
vt 0.8186923861503601 0.048952341079711914
vt 0.8189316391944885 0.048853278160095215
vt 0.8189316391944885 0.048853278160095215
vt 0.8186923861503601 0.048952341079711914
vt 0.8176195025444031 0.047879576683044434
vt 0.8177186250686646 0.04764026403427124
vt 0.8656457662582397 0.04904484748840332
vt 0.8674851655960083 0.04980665445327759
vt 0.8656457662582397 0.050568580627441406
vt 0.8667232990264893 0.04796725511550903
vt 0.8682471513748169 0.04796725511550903
vt 0.8693246245384216 0.04904484748840332
vt 0.8693246245384216 0.050568580627441406
vt 0.8682471513748169 0.05164611339569092
vt 0.8667232990264893 0.05164611339569092
vt 0.8176195025444031 0.047879576683044434
vt 0.8168607950210571 0.04971110820770264
vt 0.816102147102356 0.047879576683044434
vt 0.8150293231010437 0.048952341079711914
vt 0.8150293231010437 0.05046975612640381
vt 0.816102147102356 0.05154263973236084
vt 0.8176195025444031 0.05154263973236084
vt 0.8186923861503601 0.05046975612640381
vt 0.8186923861503601 0.048952341079711914
vt 0.8654143214225769 0.050664424896240234
vt 0.8654143214225769 0.04894876480102539
vt 0.8656457662582397 0.04904484748840332
vt 0.8656457662582397 0.050568580627441406
vt 0.8656457662582397 0.050568580627441406
vt 0.8667232990264893 0.05164611339569092
vt 0.8666273355484009 0.051877498626708984
vt 0.8654143214225769 0.050664424896240234
vt 0.8654143214225769 0.04894876480102539
vt 0.8666273355484009 0.04773586988449097
vt 0.8667232990264893 0.04796725511550903
vt 0.8656457662582397 0.04904484748840332
vt 0.8666273355484009 0.04773586988449097
vt 0.8683429956436157 0.04773586988449097
vt 0.8682471513748169 0.04796725511550903
vt 0.8667232990264893 0.04796725511550903
vt 0.8683429956436157 0.04773586988449097
vt 0.869556188583374 0.04894876480102539
vt 0.8693246245384216 0.04904484748840332
vt 0.8682471513748169 0.04796725511550903
vt 0.869556188583374 0.04894876480102539
vt 0.869556188583374 0.050664424896240234
vt 0.8693246245384216 0.050568580627441406
vt 0.8693246245384216 0.04904484748840332
vt 0.869556188583374 0.050664424896240234
vt 0.8683429956436157 0.051877498626708984
vt 0.8682471513748169 0.05164611339569092
vt 0.8693246245384216 0.050568580627441406
vt 0.8373903632164001 0.01513671875
vt 0.8373903632164001 0.016852378845214844
vt 0.8371590375900269 0.016756534576416016
vt 0.8371590375900269 0.015232563018798828

g Base
s 1
usemtl Base
f 1/1/1 2/2/2 3/3/3 
f 1/1/1 3/3/3 4/4/4 
f 5/5/5 6/6/6 7/7/7 
f 5/5/5 7/7/7 8/8/8 
f 9/9/9 10/10/10 11/11/11 
f 9/9/9 11/11/11 12/12/12 
f 13/13/13 14/14/14 15/15/15 
f 13/13/13 15/15/15 16/16/16 
f 17/17/17 18/18/18 19/19/19 
f 17/17/17 19/19/19 20/20/20 
f 21/21/21 22/22/22 23/23/23 
f 21/21/21 23/23/23 24/24/24 
f 25/25/25 26/26/26 27/27/27 
f 25/25/25 27/27/27 28/28/28 
f 29/29/29 30/30/30 31/31/31 
f 29/29/29 31/31/31 32/32/32 
f 33/33/33 34/34/34 35/35/35 
f 36/36/36 34/34/34 33/33/33 
f 37/37/37 34/34/34 36/36/36 
f 38/38/38 34/34/34 37/37/37 
f 39/39/39 34/34/34 38/38/38 
f 40/40/40 34/34/34 39/39/39 
f 41/41/41 34/34/34 40/40/40 
f 35/35/35 34/34/34 41/41/41 
f 42/42/42 43/43/43 44/44/44 
f 44/44/44 43/43/43 45/45/45 
f 45/45/45 43/43/43 46/46/46 
f 46/46/46 43/43/43 47/47/47 
f 47/47/47 43/43/43 48/48/48 
f 48/48/48 43/43/43 49/49/49 
f 49/49/49 43/43/43 50/50/50 
f 50/50/50 43/43/43 42/42/42 
f 51/51/51 52/52/52 53/53/53 
f 51/51/51 53/53/53 54/54/54 
f 55/55/55 56/56/56 57/57/57 
f 55/55/55 57/57/57 58/58/58 
f 59/59/59 60/60/60 61/61/61 
f 59/59/59 61/61/61 62/62/62 
f 63/63/63 64/64/64 65/65/65 
f 63/63/63 65/65/65 66/66/66 
f 67/67/67 68/68/68 69/69/69 
f 67/67/67 69/69/69 70/70/70 
f 71/71/71 72/72/72 73/73/73 
f 71/71/71 73/73/73 74/74/74 
f 75/75/75 76/76/76 77/77/77 
f 75/75/75 77/77/77 78/78/78 
f 79/79/79 80/80/80 81/81/81 
f 79/79/79 81/81/81 82/82/82 

