v 0.5000014901161194 0.04347820580005646 -0.4650038480758667
v 0.5000014901161194 0.04347820580005646 0.4650038480758667
v 0.5000014901161194 -0.008473042398691177 0.4650038480758667
v 0.5000014901161194 -0.008473042398691177 -0.4650038480758667
v 0.4650052785873413 -0.043469496071338654 -0.4650038480758667
v 0.4650052785873413 -0.043469496071338654 0.4650038480758667
v -0.4650023579597473 -0.043469496071338654 0.4650038480758667
v -0.4650023579597473 -0.043469496071338654 -0.4650038480758667
v 0.4650052785873413 0.04347820580005646 0.5
v -0.4650023579597473 0.04347820580005646 0.5
v -0.4650023579597473 -0.008473042398691177 0.5
v 0.4650052785873413 -0.008473042398691177 0.5
v -0.4650023579597473 0.04347820580005646 -0.5
v 0.4650052785873413 0.04347820580005646 -0.5
v 0.4650052785873413 -0.008473042398691177 -0.5
v -0.4650023579597473 -0.008473042398691177 -0.5
v -0.4999985098838806 0.04347820580005646 0.4650038480758667
v -0.4999985098838806 0.04347820580005646 -0.4650038480758667
v -0.4999985098838806 -0.008473042398691177 -0.4650038480758667
v -0.4999985098838806 -0.008473042398691177 0.4650038480758667
v 0.5000014901161194 -0.008473042398691177 0.4650038480758667
v 0.5000014901161194 0.04347820580005646 0.4650038480758667
v 0.4650052785873413 0.04347820580005646 0.5
v 0.4650052785873413 -0.008473042398691177 0.5
v 0.4650052785873413 -0.043469496071338654 0.4650038480758667
v 0.4650052785873413 -0.043469496071338654 -0.4650038480758667
v 0.5000014901161194 -0.008473042398691177 -0.4650038480758667
v 0.5000014901161194 -0.008473042398691177 0.4650038480758667
v 0.4650052785873413 -0.008473042398691177 0.5
v -0.4650023579597473 -0.008473042398691177 0.5
v -0.4650023579597473 -0.043469496071338654 0.4650038480758667
v 0.4650052785873413 -0.043469496071338654 0.4650038480758667
v 0.4650052785873413 -0.008473042398691177 -0.5
v 0.4650052785873413 0.04347820580005646 -0.5
v 0.5000014901161194 0.04347820580005646 -0.4650038480758667
v 0.5000014901161194 -0.008473042398691177 -0.4650038480758667
v 0.4650052785873413 -0.043469496071338654 -0.4650038480758667
v -0.4650023579597473 -0.043469496071338654 -0.4650038480758667
v -0.4650023579597473 -0.008473042398691177 -0.5
v 0.4650052785873413 -0.008473042398691177 -0.5
v -0.4650023579597473 -0.008473042398691177 0.5
v -0.4650023579597473 0.04347820580005646 0.5
v -0.4999985098838806 0.04347820580005646 0.4650038480758667
v -0.4999985098838806 -0.008473042398691177 0.4650038480758667
v -0.4999985098838806 -0.008473042398691177 0.4650038480758667
v -0.4999985098838806 -0.008473042398691177 -0.4650038480758667
v -0.4650023579597473 -0.043469496071338654 -0.4650038480758667
v -0.4650023579597473 -0.043469496071338654 0.4650038480758667
v -0.4999985098838806 -0.008473042398691177 -0.4650038480758667
v -0.4999985098838806 0.04347820580005646 -0.4650038480758667
v -0.4650023579597473 0.04347820580005646 -0.5
v -0.4650023579597473 -0.008473042398691177 -0.5
v 0.4650052785873413 -0.008473042398691177 0.5
v 0.4650052785873413 -0.043469496071338654 0.4650038480758667
v 0.5000014901161194 -0.008473042398691177 0.4650038480758667
v 0.5000014901161194 -0.008473042398691177 -0.4650038480758667
v 0.4650052785873413 -0.043469496071338654 -0.4650038480758667
v 0.4650052785873413 -0.008473042398691177 -0.5
v -0.4999985098838806 -0.008473042398691177 0.4650038480758667
v -0.4650023579597473 -0.043469496071338654 0.4650038480758667
v -0.4650023579597473 -0.008473042398691177 0.5
v -0.4650023579597473 -0.008473042398691177 -0.5
v -0.4650023579597473 -0.043469496071338654 -0.4650038480758667
v -0.4999985098838806 -0.008473042398691177 -0.4650038480758667
vn 1.0 0.0 0.0
vn 1.0 0.0 0.0
vn 1.0 0.0 0.0
vn 1.0 0.0 0.0
vn 0.0 -1.0 0.0
vn 0.0 -1.0 0.0
vn 0.0 -1.0 0.0
vn 0.0 -1.0 0.0
vn 0.0 0.0 1.0
vn 0.0 0.0 1.0
vn 0.0 0.0 1.0
vn 0.0 0.0 1.0
vn 0.0 0.0 -1.0
vn 0.0 0.0 -1.0
vn 0.0 0.0 -1.0
vn 0.0 0.0 -1.0
vn -1.0 0.0 0.0
vn -1.0 0.0 0.0
vn -1.0 0.0 0.0
vn -1.0 0.0 0.0
vn 0.7071079611778259 0.0 0.7071055769920349
vn 0.7071079611778259 0.0 0.7071055769920349
vn 0.7071079611778259 0.0 0.7071055769920349
vn 0.7071079611778259 0.0 0.7071055769920349
vn 0.7071086168289185 -0.7071049213409424 0.0
vn 0.7071086168289185 -0.7071049213409424 0.0
vn 0.7071086168289185 -0.7071049213409424 0.0
vn 0.7071086168289185 -0.7071049213409424 0.0
vn 0.0 -0.7071066498756409 0.70710688829422
vn 0.0 -0.7071066498756409 0.70710688829422
vn 0.0 -0.7071066498756409 0.70710688829422
vn 0.0 -0.7071066498756409 0.70710688829422
vn 0.7071079611778259 0.0 -0.7071055769920349
vn 0.7071079611778259 0.0 -0.7071055769920349
vn 0.7071079611778259 0.0 -0.7071055769920349
vn 0.7071079611778259 0.0 -0.7071055769920349
vn 0.0 -0.7071066498756409 -0.70710688829422
vn 0.0 -0.7071066498756409 -0.70710688829422
vn 0.0 -0.7071066498756409 -0.70710688829422
vn 0.0 -0.7071066498756409 -0.70710688829422
vn -0.7071079611778259 0.0 0.7071055769920349
vn -0.7071079611778259 0.0 0.7071055769920349
vn -0.7071079611778259 0.0 0.7071055769920349
vn -0.7071079611778259 0.0 0.7071055769920349
vn -0.7071080207824707 -0.7071055173873901 0.0
vn -0.7071080207824707 -0.7071055173873901 0.0
vn -0.7071080207824707 -0.7071055173873901 0.0
vn -0.7071080207824707 -0.7071055173873901 0.0
vn -0.7071079611778259 0.0 -0.7071055769920349
vn -0.7071079611778259 0.0 -0.7071055769920349
vn -0.7071079611778259 0.0 -0.7071055769920349
vn -0.7071079611778259 0.0 -0.7071055769920349
vn 0.5773522257804871 -0.5773493647575378 0.5773491859436035
vn 0.5773522257804871 -0.5773493647575378 0.5773491859436035
vn 0.5773522853851318 -0.5773493647575378 0.5773491263389587
vn 0.5773522853851318 -0.5773493647575378 -0.5773491263389587
vn 0.5773522257804871 -0.5773493647575378 -0.5773491859436035
vn 0.5773522257804871 -0.5773493647575378 -0.5773491859436035
vn -0.5773522853851318 -0.5773493647575378 0.5773491263389587
vn -0.5773522257804871 -0.5773493647575378 0.5773491859436035
vn -0.5773522257804871 -0.5773493647575378 0.5773491859436035
vn -0.5773522257804871 -0.5773493647575378 -0.5773491859436035
vn -0.5773522257804871 -0.5773493647575378 -0.5773491859436035
vn -0.5773522853851318 -0.5773493647575378 -0.5773491263389587
vt 0.26057153940200806 0.045879065990448
vt 0.26057153940200806 0.05406498908996582
vt 0.26034289598464966 0.05406498908996582
vt 0.26034289598464966 0.045879065990448
vt 0.1500435471534729 0.04963362216949463
vt 0.1500435471534729 0.04487341642379761
vt 0.1548037976026535 0.04487341642379761
vt 0.1548037976026535 0.04963362216949463
vt 0.2614189386367798 0.04587912559509277
vt 0.2614189386367798 0.05406498908996582
vt 0.2610759735107422 0.05395066738128662
vt 0.2610759437084198 0.04598003625869751
vt 0.25042614340782166 0.05406498908996582
vt 0.25042614340782166 0.045879065990448
vt 0.25076913833618164 0.0459933876991272
vt 0.25076910853385925 0.05396413803100586
vt 0.26188844442367554 0.04587912559509277
vt 0.26188844442367554 0.05406498908996582
vt 0.26165974140167236 0.05406498908996582
vt 0.26165977120399475 0.04587912559509277
vt 0.2610759437084198 0.045685410499572754
vt 0.2614189386367798 0.045571088790893555
vt 0.2614189386367798 0.04587912559509277
vt 0.2610759437084198 0.04598003625869751
vt 0.04052408039569855 0.0430525541305542
vt 0.04052408039569855 0.05682319402694702
vt 0.040005892515182495 0.05682319402694702
vt 0.040005892515182495 0.0430525541305542
vt 0.04052408039569855 0.04253435134887695
vt 0.054294705390930176 0.04253435134887695
vt 0.054294705390930176 0.0430525541305542
vt 0.04052408039569855 0.0430525541305542
vt 0.25076913833618164 0.0459933876991272
vt 0.25042614340782166 0.045879065990448
vt 0.25042614340782166 0.04557102918624878
vt 0.25076910853385925 0.045685410499572754
vt 0.04052408039569855 0.05682319402694702
vt 0.054294705390930176 0.05682319402694702
vt 0.054294705390930176 0.05734139680862427
vt 0.04052408039569855 0.05734139680862427
vt 0.2610759735107422 0.05395066738128662
vt 0.2614189386367798 0.05406498908996582
vt 0.2614189386367798 0.05437302589416504
vt 0.2610759437084198 0.05425870418548584
vt 0.05481290817260742 0.0430525541305542
vt 0.05481290817260742 0.05682319402694702
vt 0.054294705390930176 0.05682319402694702
vt 0.054294705390930176 0.0430525541305542
vt 0.25076913833618164 0.05425870418548584
vt 0.25042614340782166 0.05437302589416504
vt 0.25042614340782166 0.05406498908996582
vt 0.25076910853385925 0.05396413803100586
vt 0.04052408039569855 0.04253435134887695
vt 0.04052408039569855 0.0430525541305542
vt 0.040005892515182495 0.0430525541305542
vt 0.040005892515182495 0.05682319402694702
vt 0.04052408039569855 0.05682319402694702
vt 0.04052408039569855 0.05734139680862427
vt 0.05481290817260742 0.0430525541305542
vt 0.054294705390930176 0.0430525541305542
vt 0.054294705390930176 0.04253435134887695
vt 0.054294705390930176 0.05734139680862427
vt 0.054294705390930176 0.05682319402694702
vt 0.05481290817260742 0.05682319402694702

g C6_Plasma_T10_Base
s 1
usemtl C6_Plasma_T10_Base
f 1/1/1 2/2/2 3/3/3 
f 1/1/1 3/3/3 4/4/4 
f 5/5/5 6/6/6 7/7/7 
f 5/5/5 7/7/7 8/8/8 
f 9/9/9 10/10/10 11/11/11 
f 9/9/9 11/11/11 12/12/12 
f 13/13/13 14/14/14 15/15/15 
f 13/13/13 15/15/15 16/16/16 
f 17/17/17 18/18/18 19/19/19 
f 17/17/17 19/19/19 20/20/20 
f 21/21/21 22/22/22 23/23/23 
f 21/21/21 23/23/23 24/24/24 
f 25/25/25 26/26/26 27/27/27 
f 25/25/25 27/27/27 28/28/28 
f 29/29/29 30/30/30 31/31/31 
f 29/29/29 31/31/31 32/32/32 
f 33/33/33 34/34/34 35/35/35 
f 33/33/33 35/35/35 36/36/36 
f 37/37/37 38/38/38 39/39/39 
f 37/37/37 39/39/39 40/40/40 
f 41/41/41 42/42/42 43/43/43 
f 41/41/41 43/43/43 44/44/44 
f 45/45/45 46/46/46 47/47/47 
f 45/45/45 47/47/47 48/48/48 
f 49/49/49 50/50/50 51/51/51 
f 49/49/49 51/51/51 52/52/52 
f 53/53/53 54/54/54 55/55/55 
f 56/56/56 57/57/57 58/58/58 
f 59/59/59 60/60/60 61/61/61 
f 62/62/62 63/63/63 64/64/64 

