v 0.010030649602413177 4.4222979340702295e-06 2.5465320504736155e-05
v 0.010030649602413177 0.02000442147254944 2.5465320504736155e-05
v -0.009969350881874561 0.02000442147254944 2.5465320504736155e-05
v -0.009969350881874561 4.4222979340702295e-06 2.5465320504736155e-05
v 3.064892007387243e-05 4.4222979340702295e-06 -0.009974534623324871
v 3.064892007387243e-05 0.02000442147254944 -0.009974534623324871
v 3.064981501665898e-05 0.02000442147254944 0.010025464929640293
v 3.064981501665898e-05 4.4222979340702295e-06 0.010025464929640293
vn 0.0 0.0 1.0
vn 0.0 0.0 1.0
vn 0.0 0.0 1.0
vn 0.0 0.0 1.0
vn 1.0 0.0 0.0
vn 1.0 0.0 0.0
vn 1.0 0.0 0.0
vn 1.0 0.0 0.0
vt -0.0006306171417236328 0.0008314847946166992
vt 0.9991682767868042 -0.0006308555603027344
vt 1.0006306171417236 0.9991680383682251
vt 0.00083160400390625 1.000630497932434
vt 9.99948606477119e-05 9.995698928833008e-05
vt 0.9999000430107117 9.995698928833008e-05
vt 0.9999000430107117 0.9999000199895818
vt 9.998001041822135e-05 0.9999000199895818

g ChaingGun_Projectile
s 1
usemtl ChaingGun_Projectile
f 1/1/1 2/2/2 3/3/3 
f 1/1/1 3/3/3 4/4/4 
f 5/5/5 6/6/6 7/7/7 
f 5/5/5 7/7/7 8/8/8 

