v -0.1668400913476944 -0.0843631848692894 -0.06910731643438339
v -0.1668400913476944 0.0843631848692894 -0.06910731643438339
v -0.12769390642642975 0.0843631848692894 -0.127693772315979
v -0.12769390642642975 -0.0843631848692894 -0.127693772315979
v -0.06910749524831772 0.0843631848692894 -0.16684000194072723
v -0.06910749524831772 -0.0843631848692894 -0.16684000194072723
v -9.149218271886639e-08 0.0843631848692894 -0.18058635294437408
v -9.149218271886639e-08 -0.0843631848692894 -0.18058635294437408
v 0.06910733133554459 0.0843631848692894 -0.1668400764465332
v 0.06910733133554459 -0.0843631848692894 -0.1668400764465332
v 0.1276937872171402 0.0843631848692894 -0.12769389152526855
v 0.1276937872171402 -0.0843631848692894 -0.12769389152526855
v 0.16684003174304962 0.0843631848692894 -0.06910748034715652
v 0.16684003174304962 -0.0843631848692894 -0.06910748034715652
v 0.18058636784553528 0.0843631848692894 -6.458271428755324e-08
v 0.18058636784553528 -0.0843631848692894 -6.458271428755324e-08
v 0.1668400764465332 0.0843631848692894 0.06910736113786697
v 0.1668400764465332 -0.0843631848692894 0.06910736113786697
v 0.12769387662410736 0.0843631848692894 0.12769381701946259
v 0.12769387662410736 -0.0843631848692894 0.12769381701946259
v 0.06910744309425354 0.0843631848692894 0.16684003174304962
v 0.06910744309425354 -0.0843631848692894 0.16684003174304962
v 2.6909466654956304e-08 0.0843631848692894 0.18058636784553528
v 2.6909466654956304e-08 -0.0843631848692894 0.18058636784553528
v -0.06910739094018936 0.0843631848692894 0.16684004664421082
v -0.06910739094018936 -0.0843631848692894 0.16684004664421082
v -0.12769383192062378 0.0843631848692894 0.12769386172294617
v -0.12769383192062378 -0.0843631848692894 0.12769386172294617
v -0.16684004664421082 0.0843631848692894 0.06910741329193115
v -0.16684004664421082 -0.0843631848692894 0.06910741329193115
v -0.18058636784553528 0.0843631848692894 0.0
v -0.18058636784553528 -0.0843631848692894 0.0
v -0.1668400913476944 0.0843631848692894 -0.06910731643438339
v -0.1668400913476944 -0.0843631848692894 -0.06910731643438339
v -0.12769390642642975 -0.0843631848692894 -0.127693772315979
v 0.0 -0.0843631848692894 0.0
v -0.1668400913476944 -0.0843631848692894 -0.06910731643438339
v -0.06910749524831772 -0.0843631848692894 -0.16684000194072723
v -9.149218271886639e-08 -0.0843631848692894 -0.18058635294437408
v 0.06910733133554459 -0.0843631848692894 -0.1668400764465332
v 0.1276937872171402 -0.0843631848692894 -0.12769389152526855
v 0.16684003174304962 -0.0843631848692894 -0.06910748034715652
v 0.18058636784553528 -0.0843631848692894 -6.458271428755324e-08
v 0.1668400764465332 -0.0843631848692894 0.06910736113786697
v 0.12769387662410736 -0.0843631848692894 0.12769381701946259
v 0.06910744309425354 -0.0843631848692894 0.16684003174304962
v 2.6909466654956304e-08 -0.0843631848692894 0.18058636784553528
v -0.06910739094018936 -0.0843631848692894 0.16684004664421082
v -0.12769383192062378 -0.0843631848692894 0.12769386172294617
v -0.16684004664421082 -0.0843631848692894 0.06910741329193115
v -0.18058636784553528 -0.0843631848692894 0.0
v -0.1668400913476944 0.0843631848692894 -0.06910731643438339
v 0.0 0.0843631848692894 0.0
v -0.12769390642642975 0.0843631848692894 -0.127693772315979
v -0.06910749524831772 0.0843631848692894 -0.16684000194072723
v -9.149218271886639e-08 0.0843631848692894 -0.18058635294437408
v 0.06910733133554459 0.0843631848692894 -0.1668400764465332
v 0.1276937872171402 0.0843631848692894 -0.12769389152526855
v 0.16684003174304962 0.0843631848692894 -0.06910748034715652
v 0.18058636784553528 0.0843631848692894 -6.458271428755324e-08
v 0.1668400764465332 0.0843631848692894 0.06910736113786697
v 0.12769387662410736 0.0843631848692894 0.12769381701946259
v 0.06910744309425354 0.0843631848692894 0.16684003174304962
v 2.6909466654956304e-08 0.0843631848692894 0.18058636784553528
v -0.06910739094018936 0.0843631848692894 0.16684004664421082
v -0.12769383192062378 0.0843631848692894 0.12769386172294617
v -0.16684004664421082 0.0843631848692894 0.06910741329193115
v -0.18058636784553528 0.0843631848692894 0.0
vn -0.9238796234130859 0.0 -0.3826831877231598
vn -0.9238796234130859 0.0 -0.3826831877231598
vn -0.7071071267127991 0.0 -0.707106351852417
vn -0.7071071267127991 0.0 -0.707106351852417
vn -0.3826839029788971 0.0 -0.9238794445991516
vn -0.3826839029788971 0.0 -0.9238794445991516
vn -5.310956225912378e-07 0.0 -1.0
vn -5.310956225912378e-07 0.0 -1.0
vn 0.3826828896999359 0.0 -0.9238797426223755
vn 0.3826828896999359 0.0 -0.9238797426223755
vn 0.707106351852417 0.0 -0.7071071863174438
vn 0.707106351852417 0.0 -0.7071071863174438
vn 0.9238794445991516 0.0 -0.3826838433742523
vn 0.9238794445991516 0.0 -0.3826838433742523
vn 1.0 0.0 -2.811682691117312e-07
vn 1.0 0.0 -2.811682691117312e-07
vn 0.9238796234130859 0.0 0.3826831579208374
vn 0.9238796234130859 0.0 0.3826831579208374
vn 0.7071069478988647 0.0 0.7071065902709961
vn 0.7071069478988647 0.0 0.7071065902709961
vn 0.3826836347579956 0.0 0.9238794445991516
vn 0.3826836347579956 0.0 0.9238794445991516
vn 1.2496367673975328e-07 0.0 1.0
vn 1.2496367673975328e-07 0.0 1.0
vn -0.38268330693244934 0.0 0.9238795042037964
vn -0.38268330693244934 0.0 0.9238795042037964
vn -0.7071066498756409 0.0 0.70710688829422
vn -0.7071066498756409 0.0 0.70710688829422
vn -0.9238795042037964 0.0 0.38268351554870605
vn -0.9238795042037964 0.0 0.38268351554870605
vn -1.0 0.0 2.811684680636972e-07
vn -1.0 0.0 2.811684680636972e-07
vn -0.9238796234130859 0.0 -0.3826831877231598
vn -0.9238796234130859 0.0 -0.3826831877231598
vn 0.0 -1.0 0.0
vn 0.0 -1.0 0.0
vn 0.0 -1.0 0.0
vn 0.0 -1.0 0.0
vn 0.0 -1.0 0.0
vn 0.0 -1.0 0.0
vn 0.0 -1.0 0.0
vn 0.0 -1.0 0.0
vn 0.0 -1.0 0.0
vn 0.0 -1.0 0.0
vn 0.0 -1.0 0.0
vn 0.0 -1.0 0.0
vn 0.0 -1.0 0.0
vn 0.0 -1.0 0.0
vn 0.0 -1.0 0.0
vn 0.0 -1.0 0.0
vn 0.0 -1.0 0.0
vn 0.0 1.0 0.0
vn 0.0 1.0 0.0
vn 0.0 1.0 0.0
vn 0.0 1.0 0.0
vn 0.0 1.0 0.0
vn 0.0 1.0 0.0
vn 0.0 1.0 0.0
vn 0.0 1.0 0.0
vn 0.0 1.0 0.0
vn 0.0 1.0 0.0
vn 0.0 1.0 0.0
vn 0.0 1.0 0.0
vn 0.0 1.0 0.0
vn 0.0 1.0 0.0
vn 0.0 1.0 0.0
vn 0.0 1.0 0.0
vn 0.0 1.0 0.0
vt 0.375 0.6875
vt 0.375 0.31156015396118164
vt 0.390625 0.31156015396118164
vt 0.390625 0.6875
vt 0.40625 0.31156015396118164
vt 0.40625 0.6875
vt 0.421875 0.31156015396118164
vt 0.421875 0.6875
vt 0.4375 0.31156015396118164
vt 0.4375 0.6875
vt 0.453125 0.31156015396118164
vt 0.453125 0.6875
vt 0.46875 0.31156015396118164
vt 0.46875 0.6875
vt 0.484375 0.31156015396118164
vt 0.484375 0.6875
vt 0.5 0.31156015396118164
vt 0.5 0.6875
vt 0.515625 0.31156015396118164
vt 0.515625 0.6875
vt 0.53125 0.31156015396118164
vt 0.53125 0.6875
vt 0.546875 0.31156015396118164
vt 0.546875 0.6875
vt 0.5625 0.31156015396118164
vt 0.5625 0.6875
vt 0.578125 0.31156015396118164
vt 0.578125 0.6875
vt 0.59375 0.31156015396118164
vt 0.59375 0.6875
vt 0.609375 0.31156015396118164
vt 0.609375 0.6875
vt 0.625 0.31156015396118164
vt 0.625 0.6875
vt 0.6104854941368103 0.9542353674769402
vt 0.5 0.8499999940395355
vt 0.6443561911582947 0.9035442024469376
vt 0.5597943663597107 0.9881061315536499
vt 0.5000000596046448 0.9999999850988388
vt 0.44020578265190125 0.9881062060594559
vt 0.38951462507247925 0.9542354792356491
vt 0.3556438386440277 0.9035443365573883
vt 0.34375 0.8437500596046448
vt 0.3556438088417053 0.7839557528495789
vt 0.3895145356655121 0.7332645952701569
vt 0.4402056932449341 0.6993938386440277
vt 0.4999999701976776 0.6875
vt 0.5597942471504211 0.6993938088417053
vt 0.6104854345321655 0.7332645654678345
vt 0.6443561911582947 0.7839557081460953
vt 0.65625 0.84375
vt 0.6443561911582947 0.09645569324493408
vt 0.5 0.1625000238418579
vt 0.6104854345321655 0.04576456546783447
vt 0.5597942471504211 0.011893808841705322
vt 0.4999999701976776 0.0
vt 0.4402056932449341 0.011893868446350098
vt 0.3895145356655121 0.04576456546783447
vt 0.3556438088417053 0.09645575284957886
vt 0.34375 0.15625005960464478
vt 0.3556438386440277 0.21604430675506592
vt 0.38951462507247925 0.2667354941368103
vt 0.44020578265190125 0.3006061911582947
vt 0.5000000596046448 0.3125
vt 0.5597943663597107 0.3006061315536499
vt 0.6104854941368103 0.26673537492752075
vt 0.6443561911582947 0.21604418754577637
vt 0.65625 0.15625

g cylinder_col
s 1
usemtl cylinder_col
f 1/1/1 2/2/2 3/3/3 
f 1/1/1 3/3/3 4/4/4 
f 4/4/4 3/3/3 5/5/5 
f 4/4/4 5/5/5 6/6/6 
f 6/6/6 5/5/5 7/7/7 
f 6/6/6 7/7/7 8/8/8 
f 8/8/8 7/7/7 9/9/9 
f 8/8/8 9/9/9 10/10/10 
f 10/10/10 9/9/9 11/11/11 
f 10/10/10 11/11/11 12/12/12 
f 12/12/12 11/11/11 13/13/13 
f 12/12/12 13/13/13 14/14/14 
f 14/14/14 13/13/13 15/15/15 
f 14/14/14 15/15/15 16/16/16 
f 16/16/16 15/15/15 17/17/17 
f 16/16/16 17/17/17 18/18/18 
f 18/18/18 17/17/17 19/19/19 
f 18/18/18 19/19/19 20/20/20 
f 20/20/20 19/19/19 21/21/21 
f 20/20/20 21/21/21 22/22/22 
f 22/22/22 21/21/21 23/23/23 
f 22/22/22 23/23/23 24/24/24 
f 24/24/24 23/23/23 25/25/25 
f 24/24/24 25/25/25 26/26/26 
f 26/26/26 25/25/25 27/27/27 
f 26/26/26 27/27/27 28/28/28 
f 28/28/28 27/27/27 29/29/29 
f 28/28/28 29/29/29 30/30/30 
f 30/30/30 29/29/29 31/31/31 
f 30/30/30 31/31/31 32/32/32 
f 32/32/32 31/31/31 33/33/33 
f 32/32/32 33/33/33 34/34/34 
f 35/35/35 36/36/36 37/37/37 
f 38/38/38 36/36/36 35/35/35 
f 39/39/39 36/36/36 38/38/38 
f 40/40/40 36/36/36 39/39/39 
f 41/41/41 36/36/36 40/40/40 
f 42/42/42 36/36/36 41/41/41 
f 43/43/43 36/36/36 42/42/42 
f 44/44/44 36/36/36 43/43/43 
f 45/45/45 36/36/36 44/44/44 
f 46/46/46 36/36/36 45/45/45 
f 47/47/47 36/36/36 46/46/46 
f 48/48/48 36/36/36 47/47/47 
f 49/49/49 36/36/36 48/48/48 
f 50/50/50 36/36/36 49/49/49 
f 51/51/51 36/36/36 50/50/50 
f 37/37/37 36/36/36 51/51/51 
f 52/52/52 53/53/53 54/54/54 
f 54/54/54 53/53/53 55/55/55 
f 55/55/55 53/53/53 56/56/56 
f 56/56/56 53/53/53 57/57/57 
f 57/57/57 53/53/53 58/58/58 
f 58/58/58 53/53/53 59/59/59 
f 59/59/59 53/53/53 60/60/60 
f 60/60/60 53/53/53 61/61/61 
f 61/61/61 53/53/53 62/62/62 
f 62/62/62 53/53/53 63/63/63 
f 63/63/63 53/53/53 64/64/64 
f 64/64/64 53/53/53 65/65/65 
f 65/65/65 53/53/53 66/66/66 
f 66/66/66 53/53/53 67/67/67 
f 67/67/67 53/53/53 68/68/68 
f 68/68/68 53/53/53 52/52/52 

