v -0.5057324171066284 2.4156432151794434 0.5057910084724426
v 6.83593752910383e-05 2.4156408309936523 0.7152929306030273
v 6.83593752910383e-05 2.5515074729919434 0.0
v -0.7152441143989563 2.4156432151794434 0.0
v -0.5057324171066284 2.4156432151794434 -0.5058007836341858
v 6.83593752910383e-05 2.4156432151794434 -0.7153124809265137
v 0.5058495998382568 2.4156432151794434 -0.5058007836341858
v 0.715380847454071 2.4156432151794434 0.0
v 0.5058495998382568 2.4156432151794434 0.5057910084724426
v -0.6321825981140137 0.4977746605873108 0.6322264075279236
v 3.9062499126885086e-05 0.4977746605873108 0.8941013813018799
v 6.83593752910383e-05 2.1131017208099365 0.8941012620925903
v -0.6321484446525574 2.1131017208099365 0.6322262287139893
v -0.8940673470497131 0.4977746605873108 -1.5258788721439487e-07
v -0.8940331935882568 2.1131017208099365 -3.0517577442878974e-07
v 0.6322851181030273 2.1131017208099365 0.6322262287139893
v 0.6322558522224426 0.4977746605873108 0.6322264075279236
v 0.8941699266433716 2.1131017208099365 -3.0517577442878974e-07
v 0.8941406011581421 0.4977746605873108 -1.5258788721439487e-07
v -0.8940331935882568 2.1131017208099365 -3.0517577442878974e-07
v -0.6321484446525574 2.1131017208099365 -0.6322265267372131
v -0.6321825981140137 0.4977746605873108 -0.6322265267372131
v -0.8940673470497131 0.4977746605873108 -1.5258788721439487e-07
v 3.9062499126885086e-05 0.4977746605873108 -0.8941015601158142
v 6.83593752910383e-05 2.1131017208099365 -0.8941015601158142
v 0.6322558522224426 0.4977746605873108 -0.6322265267372131
v 0.6322851181030273 2.1131017208099365 -0.6322265267372131
v 0.8941406011581421 0.4977746605873108 -1.5258788721439487e-07
v 0.8941699266433716 2.1131017208099365 -3.0517577442878974e-07
v 6.83593752910383e-05 2.1131017208099365 0.8941012620925903
v 6.83593752910383e-05 2.4156408309936523 0.7152929306030273
v -0.5057324171066284 2.4156432151794434 0.5057910084724426
v -0.6321484446525574 2.1131017208099365 0.6322262287139893
v 0.6322851181030273 2.1131017208099365 0.6322262287139893
v 0.5058495998382568 2.4156432151794434 0.5057910084724426
v -0.7152441143989563 2.4156432151794434 0.0
v -0.8940331935882568 2.1131017208099365 -3.0517577442878974e-07
v -0.6321484446525574 2.1131017208099365 0.6322262287139893
v -0.5057324171066284 2.4156432151794434 0.5057910084724426
v -0.5057324171066284 2.4156432151794434 -0.5058007836341858
v -0.6321484446525574 2.1131017208099365 -0.6322265267372131
v 6.83593752910383e-05 2.4156432151794434 -0.7153124809265137
v 6.83593752910383e-05 2.1131017208099365 -0.8941015601158142
v -0.6321484446525574 2.1131017208099365 -0.6322265267372131
v -0.5057324171066284 2.4156432151794434 -0.5058007836341858
v 0.5058495998382568 2.4156432151794434 -0.5058007836341858
v 0.6322851181030273 2.1131017208099365 -0.6322265267372131
v 0.715380847454071 2.4156432151794434 0.0
v 0.8941699266433716 2.1131017208099365 -3.0517577442878974e-07
v 0.6322851181030273 2.1131017208099365 -0.6322265267372131
v 0.5058495998382568 2.4156432151794434 -0.5058007836341858
v 0.5058495998382568 2.4156432151794434 0.5057910084724426
v 0.6322851181030273 2.1131017208099365 0.6322262287139893
v -0.6322168111801147 0.0 0.6322265267372131
v 9.765624781721272e-06 0.0 0.8941015601158142
v 3.9062499126885086e-05 0.4977746605873108 0.8941013813018799
v -0.6321825981140137 0.4977746605873108 0.6322264075279236
v 0.6322265267372131 0.0 0.6322265267372131
v 0.6322558522224426 0.4977746605873108 0.6322264075279236
v 0.8941113352775574 0.0 1.818989362888275e-14
v 0.8941406011581421 0.4977746605873108 -1.5258788721439487e-07
v 0.6322265267372131 0.0 -0.6322265267372131
v 0.6322558522224426 0.4977746605873108 -0.6322265267372131
v -0.8940673470497131 0.4977746605873108 -1.5258788721439487e-07
v -0.8941015601158142 0.0 1.818989362888275e-14
v -0.6322168111801147 0.0 0.6322265267372131
v -0.6321825981140137 0.4977746605873108 0.6322264075279236
v -0.6321825981140137 0.4977746605873108 -0.6322265267372131
v -0.6322168111801147 0.0 -0.6322265267372131
v 3.9062499126885086e-05 0.4977746605873108 -0.8941015601158142
v 9.765624781721272e-06 0.0 -0.8941015601158142
v -0.6322168111801147 0.0 -0.6322265267372131
v -0.6321825981140137 0.4977746605873108 -0.6322265267372131
v 0.6322558522224426 0.4977746605873108 -0.6322265267372131
v 0.6322265267372131 0.0 -0.6322265267372131
v -0.6322168111801147 0.0 -0.6322265267372131
v 9.765624781721272e-06 0.0 -0.8941015601158142
v 0.6322265267372131 0.0 -0.6322265267372131
v -0.8941015601158142 0.0 1.818989362888275e-14
v 0.8941113352775574 0.0 1.818989362888275e-14
v -0.6322168111801147 0.0 0.6322265267372131
v 0.6322265267372131 0.0 0.6322265267372131
v 9.765624781721272e-06 0.0 0.8941015601158142
vn -0.3195478916168213 0.892065167427063 0.3195447325706482
vn 0.0 0.8920665979385376 0.4519040584564209
vn 0.0 1.0 0.0
vn -0.4519076645374298 0.8920648097991943 -1.7941839587365394e-06
vn -0.31954413652420044 0.8920660018920898 -0.3195461630821228
vn 8.050706128415186e-07 0.8920784592628479 -0.45188048481941223
vn 0.31954991817474365 0.8920612931251526 -0.3195537030696869
vn 0.4518982470035553 0.8920695185661316 -2.779062015179079e-06
vn 0.3195532560348511 0.8920619487762451 0.3195483982563019
vn -0.6999321579933167 -0.14204567670822144 0.6999414563179016
vn 0.0 -0.14204567670822144 0.9898601174354553
vn 0.0 0.0 1.0
vn -0.7071022391319275 0.0 0.7071112990379333
vn -0.989861011505127 -0.14203941822052002 0.0
vn -1.0 0.0 0.0
vn 0.7070963978767395 0.0 0.7071171402931213
vn 0.6999286413192749 -0.1420430988073349 0.6999455690383911
vn 1.0 0.0 0.0
vn 0.989860475063324 -0.1420431137084961 0.0
vn -1.0 0.0 0.0
vn -0.7071022391319275 0.0 -0.7071112990379333
vn -0.6999314427375793 -0.14203809201717377 -0.6999436020851135
vn -0.989861011505127 -0.14203941822052002 0.0
vn 0.0 -0.14204227924346924 -0.9898605942726135
vn 0.0 0.0 -1.0
vn 0.6999271512031555 -0.14204275608062744 -0.699946939945221
vn 0.7070963978767395 0.0 -0.7071171402931213
vn 0.989860475063324 -0.1420431137084961 0.0
vn 1.0 0.0 0.0
vn 2.8748542035827995e-07 0.5087875723838806 0.8608921766281128
vn 0.0 0.8920665979385376 0.4519040584564209
vn -0.3195478916168213 0.892065167427063 0.3195447325706482
vn -0.6087486743927002 0.5087658166885376 0.6087547540664673
vn 0.6087382435798645 0.5087829828262329 0.6087508201599121
vn 0.3195532560348511 0.8920619487762451 0.3195483982563019
vn -0.4519076645374298 0.8920648097991943 -1.7941839587365394e-06
vn -0.8608942031860352 0.5087840557098389 1.4373996748417994e-07
vn -0.6087486743927002 0.5087658166885376 0.6087547540664673
vn -0.3195478916168213 0.892065167427063 0.3195447325706482
vn -0.31954413652420044 0.8920660018920898 -0.3195461630821228
vn -0.6087577939033508 0.5087500214576721 -0.6087588667869568
vn 8.050706128415186e-07 0.8920784592628479 -0.45188048481941223
vn -1.6578588883930934e-06 0.5087608098983765 -0.8609079718589783
vn -0.6087577939033508 0.5087500214576721 -0.6087588667869568
vn -0.31954413652420044 0.8920660018920898 -0.3195461630821228
vn 0.31954991817474365 0.8920612931251526 -0.3195537030696869
vn 0.6087407469749451 0.5087779760360718 -0.6087526082992554
vn 0.4518982470035553 0.8920695185661316 -2.779062015179079e-06
vn 0.8608942031860352 0.5087840557098389 1.7248765971089597e-07
vn 0.6087407469749451 0.5087779760360718 -0.6087526082992554
vn 0.31954991817474365 0.8920612931251526 -0.3195537030696869
vn 0.3195532560348511 0.8920619487762451 0.3195483982563019
vn 0.6087382435798645 0.5087829828262329 0.6087508201599121
vn -0.7070977687835693 0.0 0.7071157097816467
vn 0.0 0.0 1.0
vn 0.0 0.0 1.0
vn -0.7070977687835693 0.0 0.7071157097816467
vn 0.7070924639701843 0.0 0.7071210145950317
vn 0.7070924639701843 0.0 0.7071210145950317
vn 1.0 0.0 0.0
vn 1.0 0.0 0.0
vn 0.7070924639701843 0.0 -0.7071210145950317
vn 0.7070924639701843 0.0 -0.7071210145950317
vn -1.0 0.0 0.0
vn -1.0 0.0 0.0
vn -0.7070977687835693 0.0 0.7071157097816467
vn -0.7070977687835693 0.0 0.7071157097816467
vn -0.7070977687835693 0.0 -0.7071157097816467
vn -0.7070977687835693 0.0 -0.7071157097816467
vn 0.0 0.0 -1.0
vn 0.0 0.0 -1.0
vn -0.7070977687835693 0.0 -0.7071157097816467
vn -0.7070977687835693 0.0 -0.7071157097816467
vn 0.7070924639701843 0.0 -0.7071210145950317
vn 0.7070924639701843 0.0 -0.7071210145950317
vn 0.0 -1.0 0.0
vn 0.0 -1.0 0.0
vn 1.2768799706464051e-06 -1.0 0.0
vn 0.0 -1.0 0.0
vn 0.0 -1.0 0.0
vn -1.2768759916070849e-06 -1.0 0.0
vn 0.0 -1.0 0.0
vn 0.0 -1.0 0.0
vt 0.08245129138231277 0.0777406096458435
vt 0.08214578777551651 0.07700300216674805
vt 0.08318887650966644 0.07700300216674805
vt 0.08318887650966644 0.07804614305496216
vt 0.08392643928527832 0.0777406096458435
vt 0.08423197269439697 0.07700300216674805
vt 0.08392643928527832 0.07626545429229736
vt 0.08318887650966644 0.07595980167388916
vt 0.08245129138231277 0.07626545429229736
vt 0.9141526818275452 0.6846580803394318
vt 0.835242748260498 0.7852781414985657
vt 0.5767329931259155 0.5891709625720978
vt 0.6556373238563538 0.48855680227279663
vt 0.9930609464645386 0.5840263664722443
vt 0.7345331311225891 0.38794082403182983
vt 0.49782341718673706 0.689791351556778
vt 0.7563384175300598 0.885892242193222
vt 0.4189149737358093 0.7904228866100311
vt 0.6774424314498901 0.9865082204341888
vt 0.4189149737358093 0.7904228568077087
vt 0.49782341718673706 0.6897913217544556
vt 0.7563384771347046 0.8858922719955444
vt 0.6774424314498901 0.9865082502365112
vt 0.835242748260498 0.7852781414985657
vt 0.5767329931259155 0.5891709327697754
vt 0.9141526818275452 0.6846580505371094
vt 0.6556373834609985 0.4885568618774414
vt 0.9930609464645386 0.5840263664722443
vt 0.7345330715179443 0.38794076442718506
vt 0.08518993854522705 0.07712417840957642
vt 0.08563113212585449 0.07712417840957642
vt 0.08563113212585449 0.07786178588867188
vt 0.08518993854522705 0.07804614305496216
vt 0.08518993854522705 0.0762021541595459
vt 0.08563113212585449 0.07638657093048096
vt 0.08470100164413452 0.07712423801422119
vt 0.08425983786582947 0.07712411880493164
vt 0.08425983786582947 0.0762021541595459
vt 0.08470100164413452 0.07638657093048096
vt 0.08470100164413452 0.0778617262840271
vt 0.08425983786582947 0.07804614305496216
vt 0.08519983291625977 0.07526630163192749
vt 0.08564102649688721 0.07526630163192749
vt 0.08564102649688721 0.07618820667266846
vt 0.08519983291625977 0.07600390911102295
vt 0.08519983291625977 0.0745287537574768
vt 0.08564102649688721 0.07434433698654175
vt 0.08516603708267212 0.07712417840957642
vt 0.08472490310668945 0.07712411880493164
vt 0.08472490310668945 0.0762021541595459
vt 0.08516603708267212 0.0763864517211914
vt 0.08516603708267212 0.0778617262840271
vt 0.08472490310668945 0.07804614305496216
vt 0.9125402569770813 0.0925331711769104
vt 0.9125402569770813 0.08966654539108276
vt 0.9147972464561462 0.08966648578643799
vt 0.9147972464561462 0.09253299236297607
vt 0.912801206111908 0.08674752712249756
vt 0.9150581955909729 0.08674752712249756
vt 0.912801206111908 0.08388090133666992
vt 0.9150581955909729 0.08388090133666992
vt 0.912801206111908 0.08101433515548706
vt 0.9150581955909729 0.08101433515548706
vt 0.9173956513404846 0.08388090133666992
vt 0.9151386618614197 0.08388090133666992
vt 0.9151386618614197 0.08101433515548706
vt 0.9173956513404846 0.08101433515548706
vt 0.9173956513404846 0.08674752712249756
vt 0.9151386618614197 0.08674752712249756
vt 0.9148918986320496 0.08966642618179321
vt 0.9171488285064697 0.08966648578643799
vt 0.9171488285064697 0.0925331711769104
vt 0.9148918986320496 0.09253299236297607
vt 0.9148918986320496 0.08679986000061035
vt 0.9171488285064697 0.0867999792098999
vt 0.905519962310791 0.09134566783905029
vt 0.9043326377868652 0.08847916126251221
vt 0.905519962310791 0.08561259508132935
vt 0.9083865880966187 0.0925331711769104
vt 0.9083865880966187 0.08442509174346924
vt 0.9112531542778015 0.09134566783905029
vt 0.9112531542778015 0.08561259508132935
vt 0.9124405384063721 0.08847916126251221

g Gryo_Mortar_Shell
s 1
usemtl Gryo_Mortar_Shell
f 1/1/1 2/2/2 3/3/3 
f 3/3/3 4/4/4 1/1/1 
f 3/3/3 5/5/5 4/4/4 
f 3/3/3 6/6/6 5/5/5 
f 3/3/3 7/7/7 6/6/6 
f 3/3/3 8/8/8 7/7/7 
f 3/3/3 9/9/9 8/8/8 
f 3/3/3 2/2/2 9/9/9 
f 10/10/10 11/11/11 12/12/12 
f 10/10/10 12/12/12 13/13/13 
f 13/13/13 14/14/14 10/10/10 
f 13/13/13 15/15/15 14/14/14 
f 16/16/16 12/12/12 11/11/11 
f 16/16/16 11/11/11 17/17/17 
f 18/18/18 16/16/16 17/17/17 
f 18/18/18 17/17/17 19/19/19 
f 20/20/20 21/21/21 22/22/22 
f 20/20/20 22/22/22 23/23/23 
f 21/21/21 24/24/24 22/22/22 
f 21/21/21 25/25/25 24/24/24 
f 25/25/25 26/26/26 24/24/24 
f 25/25/25 27/27/27 26/26/26 
f 27/27/27 28/28/28 26/26/26 
f 27/27/27 29/29/29 28/28/28 
f 30/30/30 31/31/31 32/32/32 
f 30/30/30 32/32/32 33/33/33 
f 31/31/31 30/30/30 34/34/34 
f 31/31/31 34/34/34 35/35/35 
f 36/36/36 37/37/37 38/38/38 
f 36/36/36 38/38/38 39/39/39 
f 40/40/40 37/37/37 36/36/36 
f 40/40/40 41/41/41 37/37/37 
f 42/42/42 43/43/43 44/44/44 
f 42/42/42 44/44/44 45/45/45 
f 46/46/46 43/43/43 42/42/42 
f 46/46/46 47/47/47 43/43/43 
f 48/48/48 49/49/49 50/50/50 
f 48/48/48 50/50/50 51/51/51 
f 52/52/52 49/49/49 48/48/48 
f 52/52/52 53/53/53 49/49/49 
f 54/54/54 55/55/55 56/56/56 
f 54/54/54 56/56/56 57/57/57 
f 56/56/56 55/55/55 58/58/58 
f 56/56/56 58/58/58 59/59/59 
f 59/59/59 58/58/58 60/60/60 
f 59/59/59 60/60/60 61/61/61 
f 61/61/61 60/60/60 62/62/62 
f 61/61/61 62/62/62 63/63/63 
f 64/64/64 65/65/65 66/66/66 
f 64/64/64 66/66/66 67/67/67 
f 68/68/68 65/65/65 64/64/64 
f 68/68/68 69/69/69 65/65/65 
f 70/70/70 71/71/71 72/72/72 
f 70/70/70 72/72/72 73/73/73 
f 74/74/74 71/71/71 70/70/70 
f 74/74/74 75/75/75 71/71/71 
f 76/76/76 77/77/77 78/78/78 
f 78/78/78 79/79/79 76/76/76 
f 78/78/78 80/80/80 79/79/79 
f 80/80/80 81/81/81 79/79/79 
f 80/80/80 82/82/82 81/81/81 
f 82/82/82 83/83/83 81/81/81 

