v 0.12980957329273224 0.42473065853118896 -1.2237671613693237
v 0.0 0.030855407938361168 -1.3052092790603638
v -0.3344824016094208 0.2760317921638489 -1.2237473726272583
v -0.6243505477905273 0.48853713274002075 -0.9872698187828064
v 0.2423095703125 0.7661064267158508 -0.9873066544532776
v 0.4147070348262787 0.029122313484549522 -1.2237153053283691
v 0.0 0.030855407938361168 -1.3052092790603638
v 0.7741015553474426 0.027641981840133667 -0.9872098565101624
v 0.12648925185203552 -0.3640759289264679 -1.223663330078125
v 0.0 0.030855407938361168 -1.3052092790603638
v 0.2361132800579071 -0.7063236236572266 -0.9871131181716919
v -0.33653318881988525 -0.21147742867469788 -1.22368323802948
v 0.0 0.030855407938361168 -1.3052092790603638
v -0.628173828125 -0.4214751422405243 -0.9871500730514526
v -0.3344824016094208 0.2760317921638489 -1.2237473726272583
v 0.0 0.030855407938361168 -1.3052092790603638
v -0.6243505477905273 0.48853713274002075 -0.9872698187828064
v -0.635302722454071 0.9131554961204529 -0.6189593076705933
v -1.032509684562683 0.37124237418174744 -0.6188879013061523
v 0.004589843563735485 1.11809504032135 -0.6189867854118347
v 0.6427245736122131 0.9077807664871216 -0.6189593076705933
v 1.0353808403015137 0.3625463843345642 -0.6188879013061523
v 1.0325487852096558 -0.30934736132621765 -0.618799090385437
v 0.6353319883346558 -0.8512603640556335 -0.6187273859977722
v -0.004550781100988388 -1.0561994314193726 -0.6186999082565308
v -0.6426757574081421 -0.8458860516548157 -0.6187273859977722
v -1.0353319644927979 -0.30065155029296875 -0.618799090385437
v -1.032509684562683 0.37124237418174744 -0.6188879013061523
v -1.1592284440994263 0.4130920171737671 0.099334716796875
v -0.7132617235183716 1.0215011835098267 0.09925399720668793
v 0.005126953125 1.2515875101089478 0.0992237851023674
v 0.72157222032547 1.015466570854187 0.09925399720668793
v 1.1624022722244263 0.4033288359642029 0.09933456033468246
v 1.1592284440994263 -0.35101044178009033 0.09943389892578125
v 0.7132617235183716 -0.9594192504882812 0.09951431304216385
v -0.005126953125 -1.1895055770874023 0.09954528510570526
v -0.72157222032547 -0.9533854722976685 0.09951431304216385
v -1.1624022722244263 -0.34124755859375 0.09943404793739319
v -1.1592284440994263 0.4130920171737671 0.099334716796875
v 0.6621679663658142 0.9345327615737915 0.8742731809616089
v 0.004707030951976776 1.1512163877487183 0.8742446899414062
v -0.6545507907867432 0.9400704503059387 0.8742727637290955
v -1.0637987852096558 0.38174405694007874 0.8743466138839722
v -0.004707030951976776 -1.0889310836791992 0.8745400905609131
v 0.6545507907867432 -0.8777845501899719 0.8745115399360657
v 1.0637987852096558 -0.31945908069610596 0.874437689781189
v 1.0667089223861694 0.37278473377227783 0.8743467330932617
v -0.7414257526397705 0.2755843997001648 1.537207007408142
v -0.45619139075279236 0.6647131443023682 1.5371556282043457
v 0.003291015513241291 0.8118731379508972 1.5371358394622803
v 0.4615136682987213 0.6608538627624512 1.537155270576477
v 0.7434472441673279 0.26933959126472473 1.537207007408142
v 0.7414257526397705 -0.213124081492424 1.5372707843780518
v 0.45619139075279236 -0.6022530794143677 1.53732168674469
v -0.003291015513241291 -0.7494128346443176 1.5373417139053345
v -0.6621679663658142 -0.8722472786903381 0.8745115399360657
v -1.0667089223861694 -0.31049925088882446 0.8744375705718994
v -1.0637987852096558 0.38174405694007874 0.8743466138839722
v -0.4615136682987213 -0.5983938574790955 1.53732168674469
v -0.7434472441673279 -0.20687972009181976 1.537270426750183
v -0.7414257526397705 0.2755843997001648 1.537207007408142
v 0.32763731479644775 0.4782494604587555 1.7400177717208862
v 0.002335204975679517 0.585463285446167 1.740004062652588
v -0.3238641321659088 0.4809890389442444 1.7400181293487549
v -0.5263671875 0.20473255217075348 1.7400542497634888
v -0.32763731479644775 -0.4157358705997467 1.740135908126831
v -0.002335204975679517 -0.5229495167732239 1.7401500940322876
v 0.3238641321659088 -0.4184754490852356 1.7401362657546997
v 0.5263671875 -0.14221899211406708 1.7400997877120972
v 0.5278027057647705 0.20029914379119873 1.7400542497634888
v -0.2600976526737213 0.39245542883872986 1.8377741575241089
v 0.0018749999580904841 0.47636017203330994 1.8377628326416016
v 0.0 0.031294096261262894 1.9897894859313965
v 0.2631250023841858 0.3902554214000702 1.8377740383148193
v 0.0 0.031294096261262894 1.9897894859313965
v 0.4238867163658142 0.1670297235250473 1.8378032445907593
v 0.0 0.031294096261262894 1.9897894859313965
v 0.4227343797683716 -0.10805099457502365 1.8378396034240723
v 0.0 0.031294096261262894 1.9897894859313965
v 0.0 0.031294096261262894 1.9897894859313965
v -0.4227343797683716 0.17059020698070526 1.8378031253814697
v 0.0 0.031294096261262894 1.9897894859313965
v 0.2600976526737213 -0.3299160599708557 1.8378691673278809
v -0.0018749999580904841 -0.41382062435150146 1.837880253791809
v 0.0 0.031294096261262894 1.9897894859313965
v -0.2631250023841858 -0.32771605253219604 1.837868571281433
v 0.0 0.031294096261262894 1.9897894859313965
v -0.5278027057647705 -0.13778594136238098 1.7400994300842285
v -0.5263671875 0.20473255217075348 1.7400542497634888
v -0.4238867163658142 -0.10449080914258957 1.8378394842147827
v 0.0 0.031294096261262894 1.9897894859313965
v -0.4227343797683716 0.17059020698070526 1.8378031253814697
v 0.0 0.031294096261262894 1.9897894859313965
vn 0.23104974627494812 0.31511613726615906 -0.9204987287521362
vn -1.0432088970446785e-07 -0.0001296486589126289 -1.0
vn -0.22839733958244324 0.3170463442802429 -0.9204978346824646
vn -0.40427839756011963 0.5612809062004089 -0.7221652865409851
vn 0.4089767634868622 0.5578713417053223 -0.7221617102622986
vn 0.37119776010513306 -0.12244722992181778 -0.9204449653625488
vn -1.0432088970446785e-07 -0.0001296486589126289 -1.0
vn 0.657042920589447 -0.21664386987686157 -0.7220526933670044
vn -0.0016433728160336614 -0.39096376299858093 -0.9204046130180359
vn -1.0432088970446785e-07 -0.0001296486589126289 -1.0
vn -0.002911011455580592 -0.6918811798095703 -0.7220054864883423
vn -0.3722180724143982 -0.11932721734046936 -0.9204427003860474
vn -1.0432088970446785e-07 -0.0001296486589126289 -1.0
vn -0.6588280200958252 -0.21111474931240082 -0.7220637798309326
vn -0.22839733958244324 0.3170463442802429 -0.9204978346824646
vn -1.0432088970446785e-07 -0.0001296486589126289 -1.0
vn -0.40427839756011963 0.5612809062004089 -0.7221652865409851
vn -0.5253916382789612 0.729508638381958 -0.43792790174484253
vn -0.853878915309906 0.2813597619533539 -0.4378669559955597
vn 0.0037803067825734615 0.898991048336029 -0.43795058131217957
vn 0.5315051674842834 0.7250691652297974 -0.43792346119880676
vn 0.8562031984329224 0.27418792247772217 -0.4378778040409088
vn 0.8538721203804016 -0.2814801335334778 -0.43780285120010376
vn 0.5253894925117493 -0.7296257019042969 -0.4377354383468628
vn -0.003780476748943329 -0.8991059064865112 -0.43771490454673767
vn -0.5314903259277344 -0.7251968383789062 -0.4377300441265106
vn -0.8562157154083252 -0.2742762565612793 -0.43779832124710083
vn -0.853878915309906 0.2813597619533539 -0.4378669559955597
vn -0.94968581199646 0.3129906952381134 -0.011565144173800945
vn -0.5843371152877808 0.8114273548126221 -0.011651630513370037
vn 0.004205887671560049 0.9999231100082397 -0.011671632528305054
vn 0.5911457538604736 0.8064805865287781 -0.011647321283817291
vn 0.9522791504859924 0.3050084710121155 -0.011586367152631283
vn 0.9496816396713257 -0.31300589442253113 -0.011491910554468632
vn 0.584334135055542 -0.8114326000213623 -0.011433065868914127
vn -0.004205232951790094 -0.9999260902404785 -0.01140645518898964
vn -0.591149091720581 -0.8064813017845154 -0.011430406011641026
vn -0.9522826075553894 -0.30500131845474243 -0.011487707495689392
vn -0.94968581199646 0.3129906952381134 -0.011565144173800945
vn 0.5613070130348206 0.7658244371414185 0.31376317143440247
vn 0.003992648329585791 0.9495012164115906 0.3137378990650177
vn -0.5548480749130249 0.7705158591270447 0.31376543641090393
vn -0.9017543792724609 0.2972470223903656 0.3138202726840973
vn -0.003993464168161154 -0.949417769908905 0.31399041414260864
vn 0.5548495054244995 -0.7704344987869263 0.31396275758743286
vn 0.9017581343650818 -0.2971411347389221 0.3139096200466156
vn 0.9042204022407532 0.2896532118320465 0.3138258159160614
vn -0.7677131295204163 0.25308215618133545 0.5886985063552856
vn -0.47236740589141846 0.6560261845588684 0.5886414051055908
vn 0.0033993858378380537 0.8084108829498291 0.5886086821556091
vn 0.47787439823150635 0.6520377397537231 0.5886279940605164
vn 0.7698231339454651 0.24664407968521118 0.5886757373809814
vn 0.7677209377288818 -0.252948135137558 0.5887459516525269
vn 0.4723692238330841 -0.6558753848075867 0.5888079404830933
vn -0.0033998461440205574 -0.8082610368728638 0.5888144969940186
vn -0.561305820941925 -0.7657427787780762 0.3139647841453552
vn -0.9042198657989502 -0.2895720601081848 0.3139019310474396
vn -0.9017543792724609 0.2972470223903656 0.3138202726840973
vn -0.47788205742836 -0.6518653631210327 0.5888127088546753
vn -0.76981520652771 -0.2464868724346161 0.5887517929077148
vn -0.7677131295204163 0.25308215618133545 0.5886985063552856
vn 0.3944511413574219 0.5382362604141235 0.744788646697998
vn 0.0028056090231984854 0.6673154234886169 0.7447699904441833
vn -0.3899063169956207 0.5415436625480652 0.7447842955589294
vn -0.6336939930915833 0.20895183086395264 0.7448294758796692
vn -0.39445024728775024 -0.5380401015281677 0.7449307441711426
vn -0.002804767107591033 -0.6671191453933716 0.7449457049369812
vn 0.38990694284439087 -0.5413475036621094 0.7449264526367188
vn 0.6336944699287415 -0.2087557315826416 0.7448840737342834
vn 0.6354296207427979 0.20361636579036713 0.7448285818099976
vn -0.27900540828704834 0.38753408193588257 0.8786200881004333
vn 0.0020079519599676132 0.47756847739219666 0.8785922527313232
vn 3.793294069964759e-07 0.0001336375280516222 1.0
vn 0.2822490334510803 0.3851800858974457 0.8786191940307617
vn 3.793294069964759e-07 0.0001336375280516222 1.0
vn 0.4546920359134674 0.14573578536510468 0.8786445260047913
vn 3.793294069964759e-07 0.0001336375280516222 1.0
vn 0.4534505307674408 -0.1493512988090515 0.8786790370941162
vn 3.793294069964759e-07 0.0001336375280516222 1.0
vn 3.793294069964759e-07 0.0001336375280516222 1.0
vn -0.4534379541873932 0.14952516555786133 0.8786559104919434
vn 3.793294069964759e-07 0.0001336375280516222 1.0
vn 0.2790067493915558 -0.38730326294898987 0.8787214756011963
vn -0.002007808070629835 -0.4773084819316864 0.8787335157394409
vn 3.793294069964759e-07 0.0001336375280516222 1.0
vn -0.28225237131118774 -0.38492923974990845 0.8787281513214111
vn 3.793294069964759e-07 0.0001336375280516222 1.0
vn -0.6354290843009949 -0.20341992378234863 0.7448827624320984
vn -0.6336939930915833 0.20895183086395264 0.7448294758796692
vn -0.45469459891319275 -0.14545826613903046 0.878689169883728
vn 3.793294069964759e-07 0.0001336375280516222 1.0
vn -0.4534379541873932 0.14952516555786133 0.8786559104919434
vn 3.793294069964759e-07 0.0001336375280516222 1.0
vt 0.25820115208625793 0.8337423801422119
vt 0.1869502067565918 0.9943570303730667
vt 0.07350292801856995 0.8337423801422119
vt 0.0565270334482193 0.7207520604133606
vt 0.2549089789390564 0.7207520604133606
vt 0.45137250423431396 0.8337423801422119
vt 0.37858009338378906 0.9945080140605569
vt 0.4509524703025818 0.7207520604133606
vt 0.6456272602081299 0.8337423801422119
vt 0.572908878326416 0.9945266270078719
vt 0.6470938920974731 0.7207520604133606
vt 0.8361511826515198 0.8337423801422119
vt 0.7657279968261719 0.9943853407166898
vt 0.8433405756950378 0.7207520604133606
vt 0.9702839851379395 0.8337423801422119
vt 0.9489974975585938 0.994290613103658
vt 0.9943600296974182 0.7207520604133606
vt 0.10251948982477188 0.6439934372901917
vt -0.00014215990086086094 0.6439934372901917
vt 0.20306412875652313 0.6439934372901917
vt 0.3024212121963501 0.6439934372901917
vt 0.40128093957901 0.6439934372901917
vt 0.5000001192092896 0.6439934372901917
vt 0.5987203121185303 0.6439934372901917
vt 0.6975798606872559 0.6439934372901917
vt 0.7969357371330261 0.6439934372901917
vt 0.8974801898002625 0.6439934372901917
vt 1.0001424551010132 0.6439934372901917
vt -0.007280150428414345 0.542860358953476
vt 0.09786803275346756 0.542860358953476
vt 0.20028141140937805 0.542860358953476
vt 0.30089816451072693 0.542860358953476
vt 0.40062859654426575 0.542860358953476
vt 0.5000002980232239 0.542860358953476
vt 0.5993726253509521 0.542860358953476
vt 0.699101984500885 0.542860358953476
vt 0.7997187972068787 0.542860358953476
vt 0.9021334648132324 0.542860358953476
vt 1.0072808265686035 0.542860358953476
vt 0.30029335618019104 0.4361584782600403
vt 0.19926393032073975 0.4361584782600403
vt 0.09594956040382385 0.4361584782600403
vt -0.013109679333865643 0.4361584782600403
vt 0.6997065544128418 0.4361584782600403
vt 0.5996661186218262 0.4361584782600403
vt 0.5000005960464478 0.4361584782600403
vt 0.40033456683158875 0.4361584782600403
vt 0.0009359339019283652 0.2947379946708679
vt 0.1009688675403595 0.2947379946708679
vt 0.20108458399772644 0.2947379946708679
vt 0.30090567469596863 0.2947379946708679
vt 0.40049442648887634 0.2947379946708679
vt 0.4999995827674866 0.2947379946708679
vt 0.5995058417320251 0.2947379946708679
vt 0.6990970373153687 0.2947379946708679
vt 0.8007360100746155 0.4361584782600403
vt 0.9040511250495911 0.4361584782600403
vt 1.0131103992462158 0.4361584782600403
vt 0.7989180684089661 0.2947379946708679
vt 0.8990316987037659 0.2947379946708679
vt 0.9990646243095398 0.2947379946708679
vt 0.3001292943954468 0.11151444911956787
vt 0.20037853717803955 0.11031830310821533
vt 0.10114748775959015 0.10899138450622559
vt 0.004061020910739899 0.10867154598236084
vt 0.7996047139167786 0.11031997203826904
vt 0.6998918652534485 0.11152774095535278
vt 0.5999756455421448 0.11230945587158203
vt 0.500020444393158 0.11254799365997314
vt 0.40001824498176575 0.11231034994125366
vt 0.10998795926570892 0.05099368095397949
vt 0.20685553550720215 0.05349743366241455
vt 0.1519814133644104 -0.1088484525680542
vt 0.3042713701725006 0.05561715364456177
vt 0.25134873390197754 -0.1088484525680542
vt 0.4020800292491913 0.056922316551208496
vt 0.35065871477127075 -0.1088484525680542
vt 0.49999552965164185 0.057328879833221436
vt 0.45014142990112305 -0.1088484525680542
vt 0.05045344680547714 -0.1088484525680542
vt 0.014340274035930634 0.050222814083099365
vt 0.5498988628387451 -0.1088484525680542
vt 0.5979722738265991 0.05693173408508301
vt 0.6957143545150757 0.055621981620788574
vt 0.6493372917175293 -0.1088484525680542
vt 0.7931541204452515 0.05352121591567993
vt 0.7486852407455444 -0.1088484525680542
vt 0.8988441824913025 0.10899615287780762
vt 0.9959211945533752 0.10863125324249268
vt 0.8899729251861572 0.051000893115997314
vt 0.8479629755020142 -0.10884833335876465
vt 0.985610842704773 0.050182342529296875
vt 0.949433445930481 -0.1088484525680542

g Gyro_Mortar_Shell_Egg_LOD
s 1
usemtl Gyro_Mortar_Shell_Egg_LOD
f 1/1/1 2/2/2 3/3/3 
f 4/4/4 1/1/1 3/3/3 
f 4/4/4 5/5/5 1/1/1 
f 5/5/5 6/6/6 1/1/1 
f 6/6/6 7/7/7 1/1/1 
f 5/5/5 8/8/8 6/6/6 
f 8/8/8 9/9/9 6/6/6 
f 9/9/9 10/10/10 6/6/6 
f 8/8/8 11/11/11 9/9/9 
f 11/11/11 12/12/12 9/9/9 
f 12/12/12 13/13/13 9/9/9 
f 11/11/11 14/14/14 12/12/12 
f 14/14/14 15/15/15 12/12/12 
f 15/15/15 16/16/16 12/12/12 
f 14/14/14 17/17/17 15/15/15 
f 18/18/18 5/5/5 4/4/4 
f 19/19/19 18/18/18 4/4/4 
f 18/18/18 20/20/20 5/5/5 
f 20/20/20 21/21/21 5/5/5 
f 21/21/21 8/8/8 5/5/5 
f 21/21/21 22/22/22 8/8/8 
f 22/22/22 23/23/23 8/8/8 
f 23/23/23 11/11/11 8/8/8 
f 23/23/23 24/24/24 11/11/11 
f 24/24/24 25/25/25 11/11/11 
f 25/25/25 14/14/14 11/11/11 
f 25/25/25 26/26/26 14/14/14 
f 26/26/26 27/27/27 14/14/14 
f 27/27/27 17/17/17 14/14/14 
f 27/27/27 28/28/28 17/17/17 
f 29/29/29 18/18/18 19/19/19 
f 29/29/29 30/30/30 18/18/18 
f 30/30/30 20/20/20 18/18/18 
f 30/30/30 31/31/31 20/20/20 
f 31/31/31 21/21/21 20/20/20 
f 31/31/31 32/32/32 21/21/21 
f 32/32/32 22/22/22 21/21/21 
f 32/32/32 33/33/33 22/22/22 
f 33/33/33 23/23/23 22/22/22 
f 33/33/33 34/34/34 23/23/23 
f 34/34/34 24/24/24 23/23/23 
f 34/34/34 35/35/35 24/24/24 
f 35/35/35 25/25/25 24/24/24 
f 35/35/35 36/36/36 25/25/25 
f 36/36/36 26/26/26 25/25/25 
f 36/36/36 37/37/37 26/26/26 
f 37/37/37 27/27/27 26/26/26 
f 37/37/37 38/38/38 27/27/27 
f 38/38/38 28/28/28 27/27/27 
f 38/38/38 39/39/39 28/28/28 
f 40/40/40 33/33/33 32/32/32 
f 41/41/41 40/40/40 32/32/32 
f 41/41/41 32/32/32 31/31/31 
f 42/42/42 41/41/41 31/31/31 
f 42/42/42 31/31/31 30/30/30 
f 43/43/43 42/42/42 30/30/30 
f 43/43/43 30/30/30 29/29/29 
f 44/44/44 37/37/37 36/36/36 
f 45/45/45 44/44/44 36/36/36 
f 45/45/45 36/36/36 35/35/35 
f 46/46/46 45/45/45 35/35/35 
f 46/46/46 35/35/35 34/34/34 
f 47/47/47 46/46/46 34/34/34 
f 40/40/40 47/47/47 33/33/33 
f 47/47/47 34/34/34 33/33/33 
f 48/48/48 42/42/42 43/43/43 
f 48/48/48 49/49/49 42/42/42 
f 49/49/49 41/41/41 42/42/42 
f 49/49/49 50/50/50 41/41/41 
f 50/50/50 40/40/40 41/41/41 
f 50/50/50 51/51/51 40/40/40 
f 51/51/51 47/47/47 40/40/40 
f 51/51/51 52/52/52 47/47/47 
f 52/52/52 46/46/46 47/47/47 
f 52/52/52 53/53/53 46/46/46 
f 53/53/53 45/45/45 46/46/46 
f 53/53/53 54/54/54 45/45/45 
f 54/54/54 44/44/44 45/45/45 
f 54/54/54 55/55/55 44/44/44 
f 55/55/55 56/56/56 44/44/44 
f 44/44/44 56/56/56 37/37/37 
f 56/56/56 38/38/38 37/37/37 
f 56/56/56 57/57/57 38/38/38 
f 57/57/57 39/39/39 38/38/38 
f 57/57/57 58/58/58 39/39/39 
f 55/55/55 59/59/59 56/56/56 
f 59/59/59 57/57/57 56/56/56 
f 59/59/59 60/60/60 57/57/57 
f 60/60/60 58/58/58 57/57/57 
f 60/60/60 61/61/61 58/58/58 
f 62/62/62 52/52/52 51/51/51 
f 63/63/63 62/62/62 51/51/51 
f 63/63/63 51/51/51 50/50/50 
f 64/64/64 63/63/63 50/50/50 
f 64/64/64 50/50/50 49/49/49 
f 65/65/65 64/64/64 49/49/49 
f 65/65/65 49/49/49 48/48/48 
f 66/66/66 60/60/60 59/59/59 
f 67/67/67 66/66/66 59/59/59 
f 67/67/67 59/59/59 55/55/55 
f 68/68/68 67/67/67 55/55/55 
f 68/68/68 55/55/55 54/54/54 
f 69/69/69 68/68/68 54/54/54 
f 69/69/69 54/54/54 53/53/53 
f 69/69/69 53/53/53 52/52/52 
f 62/62/62 70/70/70 52/52/52 
f 69/69/69 52/52/52 70/70/70 
f 71/71/71 63/63/63 64/64/64 
f 71/71/71 72/72/72 63/63/63 
f 73/73/73 72/72/72 71/71/71 
f 72/72/72 62/62/62 63/63/63 
f 74/74/74 70/70/70 62/62/62 
f 72/72/72 74/74/74 62/62/62 
f 75/75/75 74/74/74 72/72/72 
f 74/74/74 76/76/76 70/70/70 
f 76/76/76 69/69/69 70/70/70 
f 77/77/77 76/76/76 74/74/74 
f 78/78/78 68/68/68 69/69/69 
f 76/76/76 78/78/78 69/69/69 
f 79/79/79 78/78/78 76/76/76 
f 80/80/80 71/71/71 81/81/81 
f 81/81/81 71/71/71 64/64/64 
f 81/81/81 64/64/64 65/65/65 
f 82/82/82 83/83/83 78/78/78 
f 78/78/78 83/83/83 68/68/68 
f 83/83/83 67/67/67 68/68/68 
f 83/83/83 84/84/84 67/67/67 
f 85/85/85 84/84/84 83/83/83 
f 84/84/84 66/66/66 67/67/67 
f 84/84/84 86/86/86 66/66/66 
f 87/87/87 86/86/86 84/84/84 
f 86/86/86 88/88/88 66/66/66 
f 66/66/66 88/88/88 60/60/60 
f 88/88/88 61/61/61 60/60/60 
f 88/88/88 89/89/89 61/61/61 
f 90/90/90 89/89/89 88/88/88 
f 86/86/86 90/90/90 88/88/88 
f 91/91/91 90/90/90 86/86/86 
f 90/90/90 92/92/92 89/89/89 
f 93/93/93 92/92/92 90/90/90 

