v -0.46500363945961 0.03499649092555046 0.5
v 0.46500363945961 0.03499649092555046 0.5
v 0.46500363945961 0.965003490447998 0.5
v -0.46500363945961 0.965003490447998 0.5
v 0.5 0.965003490447998 0.46500349044799805
v 0.5 0.03499649092555046 0.46500349044799805
v 0.5 0.03499649092555046 -0.46500349044799805
v 0.5 0.965003490447998 -0.46500349044799805
v -0.5 0.03499649092555046 -0.46500349044799805
v -0.5 0.03499649092555046 0.46500349044799805
v -0.5 0.965003490447998 0.46500349044799805
v -0.5 0.965003490447998 -0.46500349044799805
v -0.46500363945961 1.0 0.46500349044799805
v 0.46500363945961 1.0 0.46500349044799805
v 0.46500363945961 1.0 -0.46500349044799805
v -0.46500363945961 1.0 -0.46500349044799805
v -0.46500363945961 0.965003490447998 -0.5
v 0.46500363945961 0.965003490447998 -0.5
v 0.46500363945961 0.03499649092555046 -0.5
v -0.46500363945961 0.03499649092555046 -0.5
v 0.46500363945961 0.0 0.46500349044799805
v 0.46500363945961 0.0 -0.46500349044799805
v 0.5 0.03499649092555046 -0.46500349044799805
v 0.5 0.03499649092555046 0.46500349044799805
v 0.46500363945961 0.03499649092555046 0.5
v -0.46500363945961 0.03499649092555046 0.5
v -0.46500363945961 0.0 0.46500349044799805
v 0.46500363945961 0.0 0.46500349044799805
v 0.5 0.03499649092555046 0.46500349044799805
v 0.5 0.965003490447998 0.46500349044799805
v 0.46500363945961 0.965003490447998 0.5
v 0.46500363945961 0.03499649092555046 0.5
v -0.5 0.03499649092555046 0.46500349044799805
v -0.5 0.03499649092555046 -0.46500349044799805
v -0.46500363945961 0.0 -0.46500349044799805
v -0.46500363945961 0.0 0.46500349044799805
v -0.46500363945961 0.03499649092555046 0.5
v -0.46500363945961 0.965003490447998 0.5
v -0.5 0.965003490447998 0.46500349044799805
v -0.5 0.03499649092555046 0.46500349044799805
v 0.5 0.965003490447998 0.46500349044799805
v 0.5 0.965003490447998 -0.46500349044799805
v 0.46500363945961 1.0 -0.46500349044799805
v 0.46500363945961 1.0 0.46500349044799805
v 0.46500363945961 1.0 0.46500349044799805
v -0.46500363945961 1.0 0.46500349044799805
v -0.46500363945961 0.965003490447998 0.5
v 0.46500363945961 0.965003490447998 0.5
v -0.46500363945961 1.0 0.46500349044799805
v -0.46500363945961 1.0 -0.46500349044799805
v -0.5 0.965003490447998 -0.46500349044799805
v -0.5 0.965003490447998 0.46500349044799805
v 0.5 0.965003490447998 -0.46500349044799805
v 0.5 0.03499649092555046 -0.46500349044799805
v 0.46500363945961 0.03499649092555046 -0.5
v 0.46500363945961 0.965003490447998 -0.5
v 0.46500363945961 0.965003490447998 -0.5
v -0.46500363945961 0.965003490447998 -0.5
v -0.46500363945961 1.0 -0.46500349044799805
v 0.46500363945961 1.0 -0.46500349044799805
v -0.46500363945961 0.965003490447998 -0.5
v -0.46500363945961 0.03499649092555046 -0.5
v -0.5 0.03499649092555046 -0.46500349044799805
v -0.5 0.965003490447998 -0.46500349044799805
v 0.46500363945961 0.0 -0.46500349044799805
v -0.46500363945961 0.0 -0.46500349044799805
v -0.46500363945961 0.03499649092555046 -0.5
v 0.46500363945961 0.03499649092555046 -0.5
v 0.5 0.03499649092555046 0.46500349044799805
v 0.46500363945961 0.03499649092555046 0.5
v 0.46500363945961 0.0 0.46500349044799805
v -0.46500363945961 0.0 0.46500349044799805
v -0.46500363945961 0.03499649092555046 0.5
v -0.5 0.03499649092555046 0.46500349044799805
v 0.46500363945961 1.0 0.46500349044799805
v 0.46500363945961 0.965003490447998 0.5
v 0.5 0.965003490447998 0.46500349044799805
v -0.5 0.965003490447998 0.46500349044799805
v -0.46500363945961 0.965003490447998 0.5
v -0.46500363945961 1.0 0.46500349044799805
v 0.46500363945961 0.965003490447998 -0.5
v 0.46500363945961 1.0 -0.46500349044799805
v 0.5 0.965003490447998 -0.46500349044799805
v -0.5 0.965003490447998 -0.46500349044799805
v -0.46500363945961 1.0 -0.46500349044799805
v -0.46500363945961 0.965003490447998 -0.5
v 0.46500363945961 0.0 -0.46500349044799805
v 0.46500363945961 0.03499649092555046 -0.5
v 0.5 0.03499649092555046 -0.46500349044799805
v -0.5 0.03499649092555046 -0.46500349044799805
v -0.46500363945961 0.03499649092555046 -0.5
v -0.46500363945961 0.0 -0.46500349044799805
v 0.46500363945961 0.0 -0.46500349044799805
v 9.239668474769758e-10 0.0 0.0
v -0.46500363945961 0.0 -0.46500349044799805
v -0.46500363945961 0.0 0.46500349044799805
v 0.46500363945961 0.0 0.46500349044799805
vn 0.0 0.0 1.0
vn 0.0 0.0 1.0
vn 0.0 0.0 1.0
vn 0.0 0.0 1.0
vn 1.0 0.0 0.0
vn 1.0 0.0 0.0
vn 1.0 0.0 0.0
vn 1.0 0.0 0.0
vn -1.0 0.0 0.0
vn -1.0 0.0 0.0
vn -1.0 0.0 0.0
vn -1.0 0.0 0.0
vn 0.0 1.0 0.0
vn 0.0 1.0 0.0
vn 0.0 1.0 0.0
vn 0.0 1.0 0.0
vn 0.0 0.0 -1.0
vn 0.0 0.0 -1.0
vn 0.0 0.0 -1.0
vn 0.0 0.0 -1.0
vn 0.7071084380149841 -0.7071050405502319 0.0
vn 0.7071084380149841 -0.7071050405502319 0.0
vn 0.7071084380149841 -0.7071050405502319 0.0
vn 0.7071084380149841 -0.7071050405502319 0.0
vn 0.0 -0.70710688829422 0.7071065902709961
vn 0.0 -0.70710688829422 0.7071065902709961
vn 0.0 -0.70710688829422 0.7071065902709961
vn 0.0 -0.70710688829422 0.7071065902709961
vn 0.7071082592010498 0.0 0.707105278968811
vn 0.7071082592010498 0.0 0.707105278968811
vn 0.7071082592010498 0.0 0.707105278968811
vn 0.7071082592010498 0.0 0.707105278968811
vn -0.7071084380149841 -0.7071050405502319 0.0
vn -0.7071084380149841 -0.7071050405502319 0.0
vn -0.7071084380149841 -0.7071050405502319 0.0
vn -0.7071084380149841 -0.7071050405502319 0.0
vn -0.7071082592010498 0.0 0.707105278968811
vn -0.7071082592010498 0.0 0.707105278968811
vn -0.7071082592010498 0.0 0.707105278968811
vn -0.7071082592010498 0.0 0.707105278968811
vn 0.7071084380149841 0.7071050405502319 0.0
vn 0.7071084380149841 0.7071050405502319 0.0
vn 0.7071084380149841 0.7071050405502319 0.0
vn 0.7071084380149841 0.7071050405502319 0.0
vn 0.0 0.70710688829422 0.7071065902709961
vn 0.0 0.70710688829422 0.7071065902709961
vn 0.0 0.70710688829422 0.7071065902709961
vn 0.0 0.70710688829422 0.7071065902709961
vn -0.7071084380149841 0.7071050405502319 0.0
vn -0.7071084380149841 0.7071050405502319 0.0
vn -0.7071084380149841 0.7071050405502319 0.0
vn -0.7071084380149841 0.7071050405502319 0.0
vn 0.7071082592010498 0.0 -0.707105278968811
vn 0.7071082592010498 0.0 -0.707105278968811
vn 0.7071082592010498 0.0 -0.707105278968811
vn 0.7071082592010498 0.0 -0.707105278968811
vn 0.0 0.70710688829422 -0.7071065902709961
vn 0.0 0.70710688829422 -0.7071065902709961
vn 0.0 0.70710688829422 -0.7071065902709961
vn 0.0 0.70710688829422 -0.7071065902709961
vn -0.7071082592010498 0.0 -0.707105278968811
vn -0.7071082592010498 0.0 -0.707105278968811
vn -0.7071082592010498 0.0 -0.707105278968811
vn -0.7071082592010498 0.0 -0.707105278968811
vn 0.0 -0.70710688829422 -0.7071065902709961
vn 0.0 -0.70710688829422 -0.7071065902709961
vn 0.0 -0.70710688829422 -0.7071065902709961
vn 0.0 -0.70710688829422 -0.7071065902709961
vn 0.5773512125015259 -0.5773497819900513 0.5773497819900513
vn 0.5773512125015259 -0.577349841594696 0.577349841594696
vn 0.5773512125015259 -0.577349841594696 0.577349841594696
vn -0.5773512125015259 -0.577349841594696 0.577349841594696
vn -0.5773512125015259 -0.577349841594696 0.577349841594696
vn -0.5773512125015259 -0.5773497819900513 0.5773497819900513
vn 0.5773512125015259 0.577349841594696 0.577349841594696
vn 0.5773512125015259 0.577349841594696 0.577349841594696
vn 0.5773512125015259 0.5773497819900513 0.5773497819900513
vn -0.5773512125015259 0.5773497819900513 0.5773497819900513
vn -0.5773512125015259 0.577349841594696 0.577349841594696
vn -0.5773512125015259 0.577349841594696 0.577349841594696
vn 0.5773512125015259 0.577349841594696 -0.577349841594696
vn 0.5773512125015259 0.577349841594696 -0.577349841594696
vn 0.5773512125015259 0.5773497819900513 -0.5773497819900513
vn -0.5773512125015259 0.5773497819900513 -0.5773497819900513
vn -0.5773512125015259 0.577349841594696 -0.577349841594696
vn -0.5773512125015259 0.577349841594696 -0.577349841594696
vn 0.5773512125015259 -0.577349841594696 -0.577349841594696
vn 0.5773512125015259 -0.577349841594696 -0.577349841594696
vn 0.5773512125015259 -0.5773497819900513 -0.5773497819900513
vn -0.5773512125015259 -0.5773497819900513 -0.5773497819900513
vn -0.5773512125015259 -0.577349841594696 -0.577349841594696
vn -0.5773512125015259 -0.577349841594696 -0.577349841594696
vn 0.0 -1.0 0.0
vn 0.0 -1.0 0.0
vn 0.0 -1.0 0.0
vn 0.0 -1.0 0.0
vn 0.0 -1.0 0.0
vt 0.761279821395874 0.08995330333709717
vt 0.761279821395874 0.07965528964996338
vt 0.7715780735015869 0.07965528964996338
vt 0.7715780735015869 0.08995330333709717
vt 0.7611020803451538 0.07965528964996338
vt 0.7611020803451538 0.08995330333709717
vt 0.7508039474487305 0.08995330333709717
vt 0.7508039474487305 0.07965528964996338
vt 0.7530105710029602 0.07953965663909912
vt 0.7427125573158264 0.07953965663909912
vt 0.7427125573158264 0.06924152374267578
vt 0.7530105710029602 0.06924152374267578
vt 0.07825005054473877 0.09975636005401611
vt 0.06383007764816284 0.09975636005401611
vt 0.06383007764816284 0.08533644676208496
vt 0.07825005054473877 0.08533644676208496
vt 0.7530105710029602 0.10036706924438477
vt 0.7427125573158264 0.10036706924438477
vt 0.7427125573158264 0.0900689959526062
vt 0.7530105710029602 0.0900689959526062
vt 0.07707321643829346 0.06971609592437744
vt 0.07707321643829346 0.0841360092163086
vt 0.0765305757522583 0.0841360092163086
vt 0.0765305757522583 0.06971609592437744
vt 0.07707321643829346 0.06917345523834229
vt 0.09149327874183655 0.06917345523834229
vt 0.09149327874183655 0.06971609592437744
vt 0.07707321643829346 0.06971609592437744
vt 0.07581102848052979 0.08467864990234375
vt 0.07581102848052979 0.0702587366104126
vt 0.07635360956192017 0.0702587366104126
vt 0.07635360956192017 0.08467864990234375
vt 0.0920356810092926 0.06971609592437744
vt 0.0920356810092926 0.0841360092163086
vt 0.09149327874183655 0.0841360092163086
vt 0.09149327874183655 0.06971609592437744
vt 0.07509100437164307 0.08467864990234375
vt 0.07509100437164307 0.0702587366104126
vt 0.07563364505767822 0.0702587366104126
vt 0.07563364505767822 0.08467864990234375
vt 0.06328761577606201 0.09975636005401611
vt 0.06328761577606201 0.08533644676208496
vt 0.06383007764816284 0.08533644676208496
vt 0.06383007764816284 0.09975636005401611
vt 0.06383007764816284 0.09975636005401611
vt 0.07825005054473877 0.09975636005401611
vt 0.07825005054473877 0.10029900074005127
vt 0.06383007764816284 0.10029900074005127
vt 0.07825005054473877 0.09975636005401611
vt 0.07825005054473877 0.08533644676208496
vt 0.07879269123077393 0.08533644676208496
vt 0.07879269123077393 0.09975636005401611
vt 0.07437145709991455 0.08467864990234375
vt 0.07437145709991455 0.0702587366104126
vt 0.07491409778594971 0.0702587366104126
vt 0.07491409778594971 0.08467864990234375
vt 0.06383007764816284 0.0847938060760498
vt 0.07825005054473877 0.0847938060760498
vt 0.07825005054473877 0.08533644676208496
vt 0.06383007764816284 0.08533644676208496
vt 0.07365185022354126 0.08467864990234375
vt 0.07365185022354126 0.0702587366104126
vt 0.07419431209564209 0.0702587366104126
vt 0.07419431209564209 0.08467864990234375
vt 0.07707321643829346 0.0841360092163086
vt 0.09149327874183655 0.0841360092163086
vt 0.09149327874183655 0.08467864990234375
vt 0.07707321643829346 0.08467864990234375
vt 0.0765305757522583 0.06971609592437744
vt 0.07707321643829346 0.06917345523834229
vt 0.07707321643829346 0.06971609592437744
vt 0.09149327874183655 0.06971609592437744
vt 0.09149327874183655 0.06917345523834229
vt 0.0920356810092926 0.06971609592437744
vt 0.06383007764816284 0.09975636005401611
vt 0.06383007764816284 0.10029900074005127
vt 0.06328761577606201 0.09975636005401611
vt 0.07879269123077393 0.09975636005401611
vt 0.07825005054473877 0.10029900074005127
vt 0.07825005054473877 0.09975636005401611
vt 0.06383007764816284 0.0847938060760498
vt 0.06383007764816284 0.08533644676208496
vt 0.06328761577606201 0.08533644676208496
vt 0.07879269123077393 0.08533644676208496
vt 0.07825005054473877 0.08533644676208496
vt 0.07825005054473877 0.0847938060760498
vt 0.07707321643829346 0.0841360092163086
vt 0.07707321643829346 0.08467864990234375
vt 0.0765305757522583 0.0841360092163086
vt 0.0920356810092926 0.0841360092163086
vt 0.09149327874183655 0.08467864990234375
vt 0.09149327874183655 0.0841360092163086
vt 0.7532238364219666 0.09006905555725098
vt 0.7583729028701782 0.09521806240081787
vt 0.7532238364219666 0.10036706924438477
vt 0.7635218501091003 0.10036706924438477
vt 0.7635218501091003 0.09006905555725098

g Ion_Destabiliser_Base
s 1
usemtl Ion_Destabiliser_Base
f 1/1/1 2/2/2 3/3/3 
f 1/1/1 3/3/3 4/4/4 
f 5/5/5 6/6/6 7/7/7 
f 5/5/5 7/7/7 8/8/8 
f 9/9/9 10/10/10 11/11/11 
f 9/9/9 11/11/11 12/12/12 
f 13/13/13 14/14/14 15/15/15 
f 13/13/13 15/15/15 16/16/16 
f 17/17/17 18/18/18 19/19/19 
f 17/17/17 19/19/19 20/20/20 
f 21/21/21 22/22/22 23/23/23 
f 21/21/21 23/23/23 24/24/24 
f 25/25/25 26/26/26 27/27/27 
f 25/25/25 27/27/27 28/28/28 
f 29/29/29 30/30/30 31/31/31 
f 29/29/29 31/31/31 32/32/32 
f 33/33/33 34/34/34 35/35/35 
f 33/33/33 35/35/35 36/36/36 
f 37/37/37 38/38/38 39/39/39 
f 37/37/37 39/39/39 40/40/40 
f 41/41/41 42/42/42 43/43/43 
f 41/41/41 43/43/43 44/44/44 
f 45/45/45 46/46/46 47/47/47 
f 45/45/45 47/47/47 48/48/48 
f 49/49/49 50/50/50 51/51/51 
f 49/49/49 51/51/51 52/52/52 
f 53/53/53 54/54/54 55/55/55 
f 53/53/53 55/55/55 56/56/56 
f 57/57/57 58/58/58 59/59/59 
f 57/57/57 59/59/59 60/60/60 
f 61/61/61 62/62/62 63/63/63 
f 61/61/61 63/63/63 64/64/64 
f 65/65/65 66/66/66 67/67/67 
f 65/65/65 67/67/67 68/68/68 
f 69/69/69 70/70/70 71/71/71 
f 72/72/72 73/73/73 74/74/74 
f 75/75/75 76/76/76 77/77/77 
f 78/78/78 79/79/79 80/80/80 
f 81/81/81 82/82/82 83/83/83 
f 84/84/84 85/85/85 86/86/86 
f 87/87/87 88/88/88 89/89/89 
f 90/90/90 91/91/91 92/92/92 
f 93/93/93 94/94/94 95/95/95 
f 95/95/95 94/94/94 96/96/96 
f 96/96/96 94/94/94 97/97/97 
f 97/97/97 94/94/94 93/93/93 

