v -0.27059805393218994 -0.9238795042037964 -0.27059805393218994
v -0.4999999403953552 -0.7071067690849304 -0.4999999403953552
v 0.0 -0.7071067690849304 -0.7071067094802856
v 0.0 -0.9238795042037964 -0.3826833963394165
v 0.4999999403953552 -0.7071067690849304 -0.4999999403953552
v 0.27059805393218994 -0.9238795042037964 -0.27059805393218994
v 0.7071067094802856 -0.7071067690849304 0.0
v 0.3826833963394165 -0.9238795042037964 0.0
v 0.4999999403953552 -0.7071067690849304 0.4999999403953552
v 0.27059805393218994 -0.9238795042037964 0.27059805393218994
v 0.0 -0.7071067690849304 0.7071067094802856
v 0.0 -0.9238795042037964 0.3826834261417389
v -0.4999999701976776 -0.7071067690849304 0.4999999701976776
v -0.27059805393218994 -0.9238795042037964 0.27059805393218994
v -0.7071067690849304 -0.7071067690849304 0.0
v -0.3826834559440613 -0.9238795042037964 0.0
v -0.4999999403953552 -0.7071067690849304 -0.4999999403953552
v -0.27059805393218994 -0.9238795042037964 -0.27059805393218994
v 0.6532813906669617 -0.3826834261417389 -0.6532813906669617
v 0.9238793849945068 -0.3826834261417389 0.0
v 0.6532813906669617 -0.3826834261417389 0.6532813906669617
v 0.0 -0.3826834261417389 0.9238794445991516
v -0.6532814502716064 -0.3826834261417389 0.6532814502716064
v -0.9238795042037964 -0.3826834261417389 0.0
v -0.6532813906669617 -0.3826834261417389 -0.6532813906669617
v 0.9999998807907104 0.0 0.0
v 0.7071067094802856 0.0 -0.7071067094802856
v 0.0 -0.3826834261417389 -0.9238793849945068
v -0.6532813906669617 -0.3826834261417389 -0.6532813906669617
v 0.0 0.0 -0.9999998807907104
v -0.7071067094802856 0.0 -0.7071067094802856
v 0.7071067094802856 0.0 0.7071067094802856
v 0.0 0.0 0.9999999403953552
v -0.7071067690849304 0.0 0.7071067690849304
v -1.0 0.0 0.0
v -0.7071067094802856 0.0 -0.7071067094802856
v 0.0 0.3826834261417389 -0.9238793849945068
v -0.6532813906669617 0.3826834261417389 -0.6532813906669617
v 0.6532813906669617 0.3826834261417389 -0.6532813906669617
v 0.9238793849945068 0.3826834261417389 0.0
v 0.6532813906669617 0.3826834261417389 0.6532813906669617
v 0.0 0.3826834261417389 0.9238794445991516
v -0.6532814502716064 0.3826834261417389 0.6532814502716064
v -0.9238795042037964 0.3826834261417389 0.0
v -0.6532813906669617 0.3826834261417389 -0.6532813906669617
v 0.0 0.7071067690849304 -0.7071067094802856
v -0.4999999403953552 0.7071067690849304 -0.4999999403953552
v 0.4999999403953552 0.7071067690849304 -0.4999999403953552
v 0.7071067094802856 0.7071067690849304 0.0
v 0.4999999403953552 0.7071067690849304 0.4999999403953552
v 0.0 0.7071067690849304 0.7071067094802856
v -0.4999999701976776 0.7071067690849304 0.4999999701976776
v -0.7071067690849304 0.7071067690849304 0.0
v -0.4999999403953552 0.7071067690849304 -0.4999999403953552
v 0.0 0.9238795042037964 -0.3826833963394165
v -0.27059805393218994 0.9238795042037964 -0.27059805393218994
v 0.27059805393218994 0.9238795042037964 -0.27059805393218994
v 0.3826833963394165 0.9238795042037964 0.0
v 0.27059805393218994 0.9238795042037964 0.27059805393218994
v 0.0 0.9238795042037964 0.3826834261417389
v -0.27059805393218994 0.9238795042037964 0.27059805393218994
v -0.3826834559440613 0.9238795042037964 0.0
v -0.27059805393218994 0.9238795042037964 -0.27059805393218994
v 0.0 1.0 0.0
v 0.0 1.0 0.0
v 0.0 1.0 0.0
v 0.0 1.0 0.0
v 0.0 1.0 0.0
v 0.0 1.0 0.0
v 0.0 1.0 0.0
v 0.0 1.0 0.0
v 0.0 -1.0 0.0
v 0.0 -1.0 0.0
v 0.0 -1.0 0.0
v 0.0 -1.0 0.0
v 0.0 -1.0 0.0
v 0.0 -1.0 0.0
v 0.0 -1.0 0.0
v 0.0 -1.0 0.0
vn -0.269132524728775 -0.9247352480888367 -0.2691325545310974
vn -0.49849388003349304 -0.709230363368988 -0.49849390983581543
vn 0.0 -0.7092303037643433 -0.7049768567085266
vn 0.0 -0.9247352480888367 -0.3806109130382538
vn 0.49849390983581543 -0.7092303037643433 -0.49849390983581543
vn 0.2691325545310974 -0.9247352480888367 -0.2691325545310974
vn 0.7049768567085266 -0.7092303037643433 0.0
vn 0.3806109130382538 -0.9247352480888367 0.0
vn 0.49849390983581543 -0.7092303037643433 0.49849388003349304
vn 0.269132524728775 -0.9247352480888367 0.2691325545310974
vn 0.0 -0.709230363368988 0.7049767971038818
vn 0.0 -0.9247352480888367 0.3806109130382538
vn -0.49849385023117065 -0.709230363368988 0.49849390983581543
vn -0.26913249492645264 -0.9247353076934814 0.2691325545310974
vn -0.7049767971038818 -0.709230363368988 0.0
vn -0.380610853433609 -0.9247353076934814 0.0
vn -0.49849388003349304 -0.709230363368988 -0.49849390983581543
vn -0.269132524728775 -0.9247352480888367 -0.2691325545310974
vn 0.6527329683303833 -0.38455086946487427 -0.6527330279350281
vn 0.9231038093566895 -0.3845508098602295 0.0
vn 0.6527330279350281 -0.38455089926719666 0.6527329683303833
vn 0.0 -0.38455092906951904 0.9231038093566895
vn -0.6527329087257385 -0.38455089926719666 0.6527329683303833
vn -0.9231038093566895 -0.38455092906951904 0.0
vn -0.6527329683303833 -0.38455089926719666 -0.6527330279350281
vn 1.0 0.0 0.0
vn 0.7071067690849304 0.0 -0.7071067690849304
vn 0.0 -0.3845508098602295 -0.9231038093566895
vn -0.6527329683303833 -0.38455089926719666 -0.6527330279350281
vn 0.0 0.0 -1.0
vn -0.7071067094802856 0.0 -0.7071068286895752
vn 0.7071067690849304 0.0 0.7071067094802856
vn 0.0 0.0 1.0
vn -0.7071067690849304 0.0 0.7071067690849304
vn -1.0 0.0 0.0
vn -0.7071067094802856 0.0 -0.7071068286895752
vn 0.0 0.3845508098602295 -0.9231038093566895
vn -0.6527329087257385 0.38455092906951904 -0.6527330279350281
vn 0.6527329683303833 0.3845508396625519 -0.6527329683303833
vn 0.9231038093566895 0.3845508098602295 0.0
vn 0.6527329683303833 0.38455089926719666 0.6527329683303833
vn 0.0 0.38455089926719666 0.9231038093566895
vn -0.6527329087257385 0.38455089926719666 0.6527329683303833
vn -0.9231038093566895 0.38455095887184143 0.0
vn -0.6527329087257385 0.38455092906951904 -0.6527330279350281
vn 0.0 0.7092303037643433 -0.7049768567085266
vn -0.49849388003349304 0.7092303037643433 -0.4984939694404602
vn 0.49849390983581543 0.7092303037643433 -0.49849390983581543
vn 0.7049768567085266 0.7092303037643433 0.0
vn 0.49849390983581543 0.7092303037643433 0.49849388003349304
vn 0.0 0.7092303037643433 0.7049768567085266
vn -0.49849385023117065 0.709230363368988 0.49849390983581543
vn -0.7049767971038818 0.709230363368988 0.0
vn -0.49849388003349304 0.7092303037643433 -0.4984939694404602
vn 0.0 0.9247352480888367 -0.3806109130382538
vn -0.269132524728775 0.9247352480888367 -0.2691325545310974
vn 0.2691325545310974 0.9247352480888367 -0.2691325545310974
vn 0.3806109130382538 0.9247352480888367 0.0
vn 0.269132524728775 0.9247352480888367 0.2691325545310974
vn 0.0 0.9247352480888367 0.3806109130382538
vn -0.26913249492645264 0.9247353076934814 0.2691325545310974
vn -0.380610853433609 0.9247353076934814 0.0
vn -0.269132524728775 0.9247352480888367 -0.2691325545310974
vn 0.0 1.0 0.0
vn 0.0 1.0 0.0
vn 0.0 1.0 0.0
vn 0.0 1.0 0.0
vn 0.0 1.0 0.0
vn 0.0 1.0 0.0
vn 0.0 1.0 0.0
vn 0.0 1.0 0.0
vn 0.0 -1.0 0.0
vn 0.0 -1.0 0.0
vn 0.0 -1.0 0.0
vn 0.0 -1.0 0.0
vn 0.0 -1.0 0.0
vn 0.0 -1.0 0.0
vn 0.0 -1.0 0.0
vn 0.0 -1.0 0.0
vt 0.0 0.875
vt 0.0 0.75
vt 0.125 0.75
vt 0.125 0.875
vt 0.25 0.75
vt 0.25 0.875
vt 0.375 0.75
vt 0.375 0.875
vt 0.5 0.75
vt 0.5 0.875
vt 0.625 0.75
vt 0.625 0.875
vt 0.75 0.75
vt 0.75 0.875
vt 0.875 0.75
vt 0.875 0.875
vt 1.0 0.75
vt 1.0 0.875
vt 0.25 0.625
vt 0.375 0.625
vt 0.5 0.625
vt 0.625 0.625
vt 0.75 0.625
vt 0.875 0.625
vt 1.0 0.625
vt 0.375 0.5
vt 0.25 0.5
vt 0.125 0.625
vt 0.0 0.625
vt 0.125 0.5
vt 0.0 0.5
vt 0.5 0.5
vt 0.625 0.5
vt 0.75 0.5
vt 0.875 0.5
vt 1.0 0.5
vt 0.125 0.375
vt 0.0 0.375
vt 0.25 0.375
vt 0.375 0.375
vt 0.5 0.375
vt 0.625 0.375
vt 0.75 0.375
vt 0.875 0.375
vt 1.0 0.375
vt 0.125 0.25
vt 0.0 0.25
vt 0.25 0.25
vt 0.375 0.25
vt 0.5 0.25
vt 0.625 0.25
vt 0.75 0.25
vt 0.875 0.25
vt 1.0 0.25
vt 0.125 0.125
vt 0.0 0.125
vt 0.25 0.125
vt 0.375 0.125
vt 0.5 0.125
vt 0.625 0.125
vt 0.75 0.125
vt 0.875 0.125
vt 1.0 0.125
vt 0.0625 0.0
vt 0.1875 0.0
vt 0.3125 0.0
vt 0.4375 0.0
vt 0.5625 0.0
vt 0.6875 0.0
vt 0.8125 0.0
vt 0.9375 0.0
vt 0.0625 1.0
vt 0.1875 1.0
vt 0.3125 1.0
vt 0.4375 1.0
vt 0.5625 1.0
vt 0.6875 1.0
vt 0.8125 1.0
vt 0.9375 1.0

g LowPolySphere
s 1
usemtl LowPolySphere
f 1/1/1 2/2/2 3/3/3 
f 1/1/1 3/3/3 4/4/4 
f 4/4/4 3/3/3 5/5/5 
f 4/4/4 5/5/5 6/6/6 
f 6/6/6 5/5/5 7/7/7 
f 6/6/6 7/7/7 8/8/8 
f 8/8/8 7/7/7 9/9/9 
f 8/8/8 9/9/9 10/10/10 
f 10/10/10 9/9/9 11/11/11 
f 10/10/10 11/11/11 12/12/12 
f 12/12/12 11/11/11 13/13/13 
f 12/12/12 13/13/13 14/14/14 
f 14/14/14 13/13/13 15/15/15 
f 14/14/14 15/15/15 16/16/16 
f 16/16/16 15/15/15 17/17/17 
f 16/16/16 17/17/17 18/18/18 
f 3/3/3 19/19/19 5/5/5 
f 5/5/5 19/19/19 20/20/20 
f 5/5/5 20/20/20 7/7/7 
f 7/7/7 20/20/20 21/21/21 
f 7/7/7 21/21/21 9/9/9 
f 9/9/9 21/21/21 22/22/22 
f 9/9/9 22/22/22 11/11/11 
f 11/11/11 22/22/22 23/23/23 
f 11/11/11 23/23/23 13/13/13 
f 13/13/13 23/23/23 24/24/24 
f 13/13/13 24/24/24 15/15/15 
f 15/15/15 24/24/24 25/25/25 
f 15/15/15 25/25/25 17/17/17 
f 19/19/19 26/26/26 20/20/20 
f 19/19/19 27/27/27 26/26/26 
f 28/28/28 27/27/27 19/19/19 
f 3/3/3 28/28/28 19/19/19 
f 2/2/2 28/28/28 3/3/3 
f 2/2/2 29/29/29 28/28/28 
f 29/29/29 30/30/30 28/28/28 
f 28/28/28 30/30/30 27/27/27 
f 29/29/29 31/31/31 30/30/30 
f 20/20/20 26/26/26 32/32/32 
f 20/20/20 32/32/32 21/21/21 
f 21/21/21 32/32/32 33/33/33 
f 21/21/21 33/33/33 22/22/22 
f 22/22/22 33/33/33 34/34/34 
f 22/22/22 34/34/34 23/23/23 
f 23/23/23 34/34/34 35/35/35 
f 23/23/23 35/35/35 24/24/24 
f 24/24/24 35/35/35 36/36/36 
f 24/24/24 36/36/36 25/25/25 
f 31/31/31 37/37/37 30/30/30 
f 31/31/31 38/38/38 37/37/37 
f 30/30/30 37/37/37 39/39/39 
f 30/30/30 39/39/39 27/27/27 
f 27/27/27 39/39/39 40/40/40 
f 27/27/27 40/40/40 26/26/26 
f 26/26/26 40/40/40 41/41/41 
f 26/26/26 41/41/41 32/32/32 
f 32/32/32 41/41/41 42/42/42 
f 32/32/32 42/42/42 33/33/33 
f 33/33/33 42/42/42 43/43/43 
f 33/33/33 43/43/43 34/34/34 
f 34/34/34 43/43/43 44/44/44 
f 34/34/34 44/44/44 35/35/35 
f 35/35/35 44/44/44 45/45/45 
f 35/35/35 45/45/45 36/36/36 
f 38/38/38 46/46/46 37/37/37 
f 38/38/38 47/47/47 46/46/46 
f 37/37/37 46/46/46 48/48/48 
f 37/37/37 48/48/48 39/39/39 
f 39/39/39 48/48/48 49/49/49 
f 39/39/39 49/49/49 40/40/40 
f 40/40/40 49/49/49 50/50/50 
f 40/40/40 50/50/50 41/41/41 
f 41/41/41 50/50/50 51/51/51 
f 41/41/41 51/51/51 42/42/42 
f 42/42/42 51/51/51 52/52/52 
f 42/42/42 52/52/52 43/43/43 
f 43/43/43 52/52/52 53/53/53 
f 43/43/43 53/53/53 44/44/44 
f 44/44/44 53/53/53 54/54/54 
f 44/44/44 54/54/54 45/45/45 
f 47/47/47 55/55/55 46/46/46 
f 47/47/47 56/56/56 55/55/55 
f 46/46/46 55/55/55 57/57/57 
f 46/46/46 57/57/57 48/48/48 
f 48/48/48 57/57/57 58/58/58 
f 48/48/48 58/58/58 49/49/49 
f 49/49/49 58/58/58 59/59/59 
f 49/49/49 59/59/59 50/50/50 
f 50/50/50 59/59/59 60/60/60 
f 50/50/50 60/60/60 51/51/51 
f 51/51/51 60/60/60 61/61/61 
f 51/51/51 61/61/61 52/52/52 
f 52/52/52 61/61/61 62/62/62 
f 52/52/52 62/62/62 53/53/53 
f 53/53/53 62/62/62 63/63/63 
f 53/53/53 63/63/63 54/54/54 
f 56/56/56 64/64/64 55/55/55 
f 55/55/55 65/65/65 57/57/57 
f 57/57/57 66/66/66 58/58/58 
f 58/58/58 67/67/67 59/59/59 
f 59/59/59 68/68/68 60/60/60 
f 60/60/60 69/69/69 61/61/61 
f 61/61/61 70/70/70 62/62/62 
f 62/62/62 71/71/71 63/63/63 
f 4/4/4 72/72/72 1/1/1 
f 6/6/6 73/73/73 4/4/4 
f 8/8/8 74/74/74 6/6/6 
f 10/10/10 75/75/75 8/8/8 
f 12/12/12 76/76/76 10/10/10 
f 14/14/14 77/77/77 12/12/12 
f 16/16/16 78/78/78 14/14/14 
f 18/18/18 79/79/79 16/16/16 

