v -0.03038117103278637 -0.005724313668906689 -1.406739592552185
v -0.04681207612156868 -0.03345092386007309 -1.2410902976989746
v -0.06846918910741806 -0.0074881031177937984 -1.2405126094818115
v -0.0418744757771492 0.00805400125682354 -1.40643310546875
v -0.07424082607030869 0.025825414806604385 -1.2399342060089111
v -0.044937506318092346 0.025733355432748795 -1.4061260223388672
v -0.06258033961057663 0.05756324529647827 -1.2395102977752686
v -0.03874928876757622 0.042576491832733154 -1.4059011936187744
v -0.03661230206489563 0.07922124862670898 -1.2393542528152466
v -0.02496820129454136 0.054070260375738144 -1.4058183431625366
v -0.0032947014551609755 0.08499626815319061 -1.2395081520080566
v -0.007286683656275272 0.05713508650660515 -1.4058998823165894
v 0.028444979339838028 0.0733407512307167 -1.239930510520935
v 0.009557431563735008 0.05094950646162033 -1.4061241149902344
v 0.050102099776268005 0.047377925366163254 -1.2405081987380981
v 0.02105073444545269 0.03717118874192238 -1.4064306020736694
v 0.05587373673915863 0.014064406976103783 -1.2410866022109985
v 0.024113764986395836 0.019491834565997124 -1.4067376852035522
v 0.04421325400471687 -0.0176734309643507 -1.2415105104446411
v 0.017925547435879707 0.002648698864504695 -1.406962513923645
v 0.018245205283164978 -0.039331428706645966 -1.2416664361953735
v 0.004144462291151285 -0.00884507317095995 -1.4070453643798828
v -0.015072392299771309 -0.0451064370572567 -1.241512656211853
v -0.013537054881453514 -0.01190989464521408 -1.40696382522583
v -0.04681207612156868 -0.03345092386007309 -1.2410902976989746
v -0.03038117103278637 -0.005724313668906689 -1.406739592552185
v -0.07019899040460587 -0.08013474941253662 -0.733771562576294
v -0.015561885200440884 -0.10019875317811966 -0.7344986796379089
v -0.0949961468577385 -0.13469496369361877 -0.005478891544044018
v -0.014891927130520344 -0.16411133110523224 -0.006544862873852253
v 0.04179147630929947 -0.09025752544403076 -0.7347633838653564
v 0.06919468939304352 -0.1495361030101776 -0.006933019496500492
v 0.08649318665266037 -0.05297519266605377 -0.7344948649406433
v 0.1347322165966034 -0.09487615525722504 -0.006539373658597469
v 0.10656571388244629 0.0016587424324825406 -0.7337650656700134
v 0.1641611009836197 -0.014776593074202538 -0.005469397641718388
v 0.09663031250238419 0.05900508165359497 -0.7327695488929749
v 0.14959444105625153 0.06929971277713776 -0.004009781405329704
v 0.05934949591755867 0.10369779169559479 -0.7317749857902527
v 0.09493670612573624 0.13482406735420227 -0.002551648300141096
v 0.004712387919425964 0.12376179546117783 -0.7310478687286377
v 0.01483247522264719 0.16424041986465454 -0.0014856774359941483
v -0.052640970796346664 0.11382056772708893 -0.7307831645011902
v -0.06925413757562637 0.1496652215719223 -0.0010975206969305873
v -0.09734269231557846 0.07653823494911194 -0.7310516834259033
v -0.13479167222976685 0.09500528126955032 -0.0014911660691723228
v -0.11741522699594498 0.021904300898313522 -0.7317814230918884
v -0.16422054171562195 0.014905709773302078 -0.0025611429009586573
v -0.10747981816530228 -0.0354420430958271 -0.7327769994735718
v -0.14965388178825378 -0.06917059421539307 -0.00402075843885541
v -0.07019899040460587 -0.08013474941253662 -0.733771562576294
v -0.0949961468577385 -0.13469496369361877 -0.005478891544044018
v -0.08255353569984436 -0.04989257827401161 0.599532425403595
v -0.05077509209513664 -0.0879889726638794 0.5986846685409546
v -0.09102208912372589 -0.0010106873232871294 0.600381076335907
v -0.07391266524791718 0.04555920511484146 0.6010031700134277
v -0.03580860421061516 0.07733894884586334 0.6012319922447205
v 0.01307926420122385 0.08581244945526123 0.6010063886642456
v 0.05965186282992363 0.0687103271484375 0.6003866791725159
v 0.09143032133579254 0.030613921582698822 0.5995389223098755
v 0.09989885985851288 -0.01826796494424343 0.5986902713775635
v 0.08278943598270416 -0.06483786553144455 0.598068118095398
v 0.04468538239598274 -0.09661759436130524 0.5978392958641052
v -0.004202492535114288 -0.10509110987186432 0.5980649590492249
v -0.05077509209513664 -0.0879889726638794 0.5986846685409546
v 0.005247228778898716 -0.01139597874134779 0.7087938785552979
v 0.005247228778898716 -0.01139597874134779 0.7087938785552979
v 0.005247228778898716 -0.01139597874134779 0.7087938785552979
v 0.005247228778898716 -0.01139597874134779 0.7087938785552979
v 0.005247228778898716 -0.01139597874134779 0.7087938785552979
v 0.005247228778898716 -0.01139597874134779 0.7087938785552979
v 0.005247228778898716 -0.01139597874134779 0.7087938785552979
v 0.005247228778898716 -0.01139597874134779 0.7087938785552979
v 0.005247228778898716 -0.01139597874134779 0.7087938785552979
v 0.005247228778898716 -0.01139597874134779 0.7087938785552979
v 0.005247228778898716 -0.01139597874134779 0.7087938785552979
v 0.005247228778898716 -0.01139597874134779 0.7087938785552979
vn -0.567780077457428 -0.8008655905723572 -0.19036856293678284
vn -0.5706219673156738 -0.8057429790496826 -0.15864704549312592
vn -0.8984047174453735 -0.41279298067092896 -0.14990270137786865
vn -0.8937913179397583 -0.41003966331481934 -0.18167148530483246
vn -0.985744059085846 0.0914120078086853 -0.1412530541419983
vn -0.9806739091873169 0.091441810131073 -0.172965407371521
vn -0.8092520236968994 0.571753740310669 -0.13494020700454712
vn -0.8051448464393616 0.569202721118927 -0.16658328473567963
vn -0.41623854637145996 0.8995453715324402 -0.1325276643037796
vn -0.4142402410507202 0.8952272534370422 -0.16423539817333221
vn 0.08801554888486862 0.9869484901428223 -0.13485553860664368
vn 0.0873023197054863 0.9821604490280151 -0.16655080020427704
vn 0.5684036016464233 0.8105617165565491 -0.14109236001968384
vn 0.5650915503501892 0.8067057728767395 -0.17290863394737244
vn 0.8961859345436096 0.4176118075847626 -0.1498367339372635
vn 0.8911024928092957 0.41587936878204346 -0.18160583078861237
vn 0.9835235476493835 -0.08658929169178009 -0.1586935967206955
vn 0.977984607219696 -0.08560064435005188 -0.19031208753585815
vn 0.8070298433303833 -0.5669280886650085 -0.16521339118480682
vn 0.8024550676345825 -0.5633624196052551 -0.19669391214847565
vn 0.4140172600746155 -0.8947210907936096 -0.16752231121063232
vn 0.4115504026412964 -0.8893865942955017 -0.19904175400733948
vn -0.0902365893125534 -0.9821242690086365 -0.16519467532634735
vn -0.08999086916446686 -0.9763197898864746 -0.19672659039497375
vn -0.5706219673156738 -0.8057429790496826 -0.15864704549312592
vn -0.567780077457428 -0.8008655905723572 -0.19036856293678284
vn -0.57541424036026 -0.8149192333221436 -0.06931941211223602
vn -0.0904293954372406 -0.9930160045623779 -0.07577326148748398
vn -0.575212299823761 -0.8173462748527527 0.03280048072338104
vn -0.08975997567176819 -0.9956150054931641 0.026340534910559654
vn 0.4186660945415497 -0.9047737717628479 -0.0781233087182045
vn 0.4198262393474579 -0.9072874188423157 0.02398812025785446
vn 0.8154582977294922 -0.5738390684127808 -0.0757400244474411
vn 0.8169994354248047 -0.5760350227355957 0.026373695582151413
vn 0.9936310648918152 -0.08888237178325653 -0.06926200538873672
vn 0.9953441023826599 -0.09061091393232346 0.032858118414878845
vn 0.9054403901100159 0.4201507866382599 -0.0604248121380806
vn 0.9070568680763245 0.4189005196094513 0.04207245633006096
vn 0.5745192766189575 0.8168631792068481 -0.05159664526581764
vn 0.5758293271064758 0.8160063624382019 0.050540320575237274
vn 0.08953432738780975 0.9949601888656616 -0.04514291509985924
vn 0.09037697315216064 0.9942751526832581 0.05700041726231575
vn -0.4195611774921417 0.9067177176475525 -0.04279273375868797
vn -0.4192092716693878 0.9059475064277649 0.05935269594192505
vn -0.8163533806800842 0.5757831931114197 -0.045176051557064056
vn -0.8163824677467346 0.5746950507164001 0.056967105716466904
vn -0.994526207447052 0.09082657098770142 -0.051654208451509476
vn -0.9947271943092346 0.08927091956138611 0.05048283934593201
vn -0.9063354134559631 -0.4182068109512329 -0.06049123406410217
vn -0.9064344763755798 -0.42025235295295715 0.04200590401887894
vn -0.57541424036026 -0.8149192333221436 -0.06931941211223602
vn -0.575212299823761 -0.8173462748527527 0.03280048072338104
vn -0.8609640598297119 -0.4044068157672882 0.30853864550590515
vn -0.5456153750419617 -0.7824501991271973 0.3001258671283722
vn -0.9450194835662842 0.08066584914922714 0.3169090151786804
vn -0.775231659412384 0.5428016781806946 0.3230825960636139
vn -0.39709869027137756 0.8581519722938538 0.32540398836135864
vn 0.0880299061536789 0.9422396421432495 0.32316434383392334
vn 0.5501844882965088 0.7725273966789246 0.3170146644115448
vn 0.8655329942703247 0.3944839537143707 0.3086017668247223
vn 0.949587345123291 -0.09058687090873718 0.3001296818256378
vn 0.7797996997833252 -0.5527222752571106 0.2939567267894745
vn 0.4016677439212799 -0.8680741786956787 0.29173654317855835
vn -0.08346233516931534 -0.9521618485450745 0.29397574067115784
vn -0.5456153750419617 -0.7824501991271973 0.3001258671283722
vn 0.007403751369565725 -0.01607559621334076 0.9998433589935303
vn 0.007403751369565725 -0.01607559621334076 0.9998433589935303
vn 0.007403751369565725 -0.01607559621334076 0.9998433589935303
vn 0.007403751369565725 -0.01607559621334076 0.9998433589935303
vn 0.007403751369565725 -0.01607559621334076 0.9998433589935303
vn 0.007403751369565725 -0.01607559621334076 0.9998433589935303
vn 0.007403751369565725 -0.01607559621334076 0.9998433589935303
vn 0.007403751369565725 -0.01607559621334076 0.9998433589935303
vn 0.007403751369565725 -0.01607559621334076 0.9998433589935303
vn 0.007403751369565725 -0.01607559621334076 0.9998433589935303
vn 0.007403751369565725 -0.01607559621334076 0.9998433589935303
vn 0.007403751369565725 -0.01607559621334076 0.9998433589935303
vt 0.0 0.9899274436756968
vt 0.0 0.9131259843707085
vt 0.0833333432674408 0.9131259843707085
vt 0.0833333358168602 0.9899274436756968
vt 0.1666666865348816 0.9131259843707085
vt 0.1666666716337204 0.9899274436756968
vt 0.25 0.9131259843707085
vt 0.25 0.9899274436756968
vt 0.3333333432674408 0.9131259843707085
vt 0.3333333432674408 0.9899274436756968
vt 0.4166666865348816 0.9131259843707085
vt 0.4166666865348816 0.9899274436756968
vt 0.5 0.9131259843707085
vt 0.5 0.9899274436756968
vt 0.5833333134651184 0.9131259843707085
vt 0.5833333134651184 0.9899274436756968
vt 0.6666666269302368 0.9131259843707085
vt 0.6666666269302368 0.9899274436756968
vt 0.7499999403953552 0.9131259843707085
vt 0.7499999403953552 0.9899274436756968
vt 0.8333332538604736 0.9131259843707085
vt 0.8333332538604736 0.9899274436756968
vt 0.916666567325592 0.9131259843707085
vt 0.916666567325592 0.9899274436756968
vt 0.9999998211860657 0.9131259843707085
vt 0.9999998807907104 0.9899274436756968
vt 0.9999998807907104 0.6781055629253387
vt 0.916666567325592 0.6781055629253387
vt 0.9999998807907104 0.33904194831848145
vt 0.916666567325592 0.33904194831848145
vt 0.8333332538604736 0.6781055629253387
vt 0.8333332538604736 0.33904194831848145
vt 0.7499999403953552 0.6781055629253387
vt 0.7499999403953552 0.33904194831848145
vt 0.6666666269302368 0.6781055629253387
vt 0.6666666269302368 0.33904194831848145
vt 0.5833333134651184 0.6781055629253387
vt 0.5833333134651184 0.33904194831848145
vt 0.5 0.6781055629253387
vt 0.5 0.33904194831848145
vt 0.4166666865348816 0.6781055629253387
vt 0.4166666865348816 0.33904194831848145
vt 0.3333333432674408 0.6781055629253387
vt 0.3333333432674408 0.33904194831848145
vt 0.25 0.6781055629253387
vt 0.25 0.33904194831848145
vt 0.1666666865348816 0.6781055629253387
vt 0.1666666865348816 0.33904194831848145
vt 0.0833333432674408 0.6781055629253387
vt 0.0833333432674408 0.33904194831848145
vt 0.0 0.6781055629253387
vt 0.0 0.33904194831848145
vt 0.0833333432674408 0.08537763357162476
vt 0.0 0.08537763357162476
vt 0.1666666865348816 0.08537763357162476
vt 0.25 0.08537763357162476
vt 0.3333333432674408 0.08537763357162476
vt 0.4166666865348816 0.08537763357162476
vt 0.5 0.08537763357162476
vt 0.5833333134651184 0.08537763357162476
vt 0.6666666269302368 0.08537763357162476
vt 0.7499999403953552 0.08537763357162476
vt 0.8333332538604736 0.08537763357162476
vt 0.916666567325592 0.08537763357162476
vt 0.9999998807907104 0.08537763357162476
vt 0.4583333432674408 0.004516422748565674
vt 0.5416666865348816 0.004516422748565674
vt 0.625 0.004516422748565674
vt 0.7083333730697632 0.004516422748565674
vt 0.7916666865348816 0.004516422748565674
vt 0.875 0.004516422748565674
vt 0.9583333730697632 0.004516422748565674
vt 0.041666656732559204 0.004516422748565674
vt 0.125 0.004516422748565674
vt 0.2083333432674408 0.004516422748565674
vt 0.2916666865348816 0.004516422748565674
vt 0.375 0.004516422748565674

g pSphere1
s 1
usemtl pSphere1
f 1/1/1 2/2/2 3/3/3 
f 1/1/1 3/3/3 4/4/4 
f 4/4/4 3/3/3 5/5/5 
f 4/4/4 5/5/5 6/6/6 
f 6/6/6 5/5/5 7/7/7 
f 6/6/6 7/7/7 8/8/8 
f 8/8/8 7/7/7 9/9/9 
f 8/8/8 9/9/9 10/10/10 
f 10/10/10 9/9/9 11/11/11 
f 10/10/10 11/11/11 12/12/12 
f 12/12/12 11/11/11 13/13/13 
f 12/12/12 13/13/13 14/14/14 
f 14/14/14 13/13/13 15/15/15 
f 14/14/14 15/15/15 16/16/16 
f 16/16/16 15/15/15 17/17/17 
f 16/16/16 17/17/17 18/18/18 
f 18/18/18 17/17/17 19/19/19 
f 18/18/18 19/19/19 20/20/20 
f 20/20/20 19/19/19 21/21/21 
f 20/20/20 21/21/21 22/22/22 
f 22/22/22 21/21/21 23/23/23 
f 22/22/22 23/23/23 24/24/24 
f 24/24/24 23/23/23 25/25/25 
f 24/24/24 25/25/25 26/26/26 
f 23/23/23 27/27/27 25/25/25 
f 23/23/23 28/28/28 27/27/27 
f 21/21/21 28/28/28 23/23/23 
f 28/28/28 29/29/29 27/27/27 
f 28/28/28 30/30/30 29/29/29 
f 31/31/31 30/30/30 28/28/28 
f 21/21/21 31/31/31 28/28/28 
f 19/19/19 31/31/31 21/21/21 
f 31/31/31 32/32/32 30/30/30 
f 33/33/33 32/32/32 31/31/31 
f 19/19/19 33/33/33 31/31/31 
f 33/33/33 34/34/34 32/32/32 
f 35/35/35 34/34/34 33/33/33 
f 35/35/35 36/36/36 34/34/34 
f 37/37/37 36/36/36 35/35/35 
f 37/37/37 38/38/38 36/36/36 
f 39/39/39 38/38/38 37/37/37 
f 39/39/39 40/40/40 38/38/38 
f 41/41/41 40/40/40 39/39/39 
f 41/41/41 42/42/42 40/40/40 
f 43/43/43 42/42/42 41/41/41 
f 43/43/43 44/44/44 42/42/42 
f 45/45/45 44/44/44 43/43/43 
f 45/45/45 46/46/46 44/44/44 
f 47/47/47 46/46/46 45/45/45 
f 47/47/47 48/48/48 46/46/46 
f 49/49/49 48/48/48 47/47/47 
f 49/49/49 50/50/50 48/48/48 
f 51/51/51 50/50/50 49/49/49 
f 51/51/51 52/52/52 50/50/50 
f 52/52/52 53/53/53 50/50/50 
f 52/52/52 54/54/54 53/53/53 
f 50/50/50 53/53/53 55/55/55 
f 50/50/50 55/55/55 48/48/48 
f 48/48/48 55/55/55 56/56/56 
f 48/48/48 56/56/56 46/46/46 
f 46/46/46 56/56/56 57/57/57 
f 46/46/46 57/57/57 44/44/44 
f 44/44/44 57/57/57 58/58/58 
f 44/44/44 58/58/58 42/42/42 
f 42/42/42 58/58/58 59/59/59 
f 42/42/42 59/59/59 40/40/40 
f 40/40/40 59/59/59 60/60/60 
f 40/40/40 60/60/60 38/38/38 
f 38/38/38 60/60/60 61/61/61 
f 38/38/38 61/61/61 36/36/36 
f 36/36/36 61/61/61 62/62/62 
f 36/36/36 62/62/62 34/34/34 
f 34/34/34 62/62/62 63/63/63 
f 34/34/34 63/63/63 32/32/32 
f 32/32/32 63/63/63 64/64/64 
f 32/32/32 64/64/64 30/30/30 
f 30/30/30 64/64/64 65/65/65 
f 30/30/30 65/65/65 29/29/29 
f 58/58/58 66/66/66 59/59/59 
f 59/59/59 67/67/67 60/60/60 
f 60/60/60 68/68/68 61/61/61 
f 61/61/61 69/69/69 62/62/62 
f 62/62/62 70/70/70 63/63/63 
f 63/63/63 71/71/71 64/64/64 
f 64/64/64 72/72/72 65/65/65 
f 54/54/54 73/73/73 53/53/53 
f 53/53/53 74/74/74 55/55/55 
f 55/55/55 75/75/75 56/56/56 
f 56/56/56 76/76/76 57/57/57 
f 57/57/57 77/77/77 58/58/58 
f 17/17/17 35/35/35 33/33/33 
f 17/17/17 33/33/33 19/19/19 
f 15/15/15 35/35/35 17/17/17 
f 15/15/15 37/37/37 35/35/35 
f 13/13/13 37/37/37 15/15/15 
f 13/13/13 39/39/39 37/37/37 
f 11/11/11 39/39/39 13/13/13 
f 11/11/11 41/41/41 39/39/39 
f 9/9/9 41/41/41 11/11/11 
f 9/9/9 43/43/43 41/41/41 
f 7/7/7 43/43/43 9/9/9 
f 7/7/7 45/45/45 43/43/43 
f 5/5/5 45/45/45 7/7/7 
f 5/5/5 47/47/47 45/45/45 
f 3/3/3 47/47/47 5/5/5 
f 3/3/3 49/49/49 47/47/47 
f 2/2/2 49/49/49 3/3/3 
f 2/2/2 51/51/51 49/49/49 

