v -0.23096993565559387 0.0 -0.09567016363143921
v -0.2133883833885193 0.09567084908485413 -0.08838866651058197
v -0.16332046687602997 0.09567084908485413 -0.16332030296325684
v -0.17677681148052216 0.0 -0.17677612602710724
v -0.08838844299316406 0.09567084908485413 -0.21338866651058197
v -0.09567096829414368 0.0 -0.23096923530101776
v -1.1444091541079615e-07 0.09567084908485413 -0.23096923530101776
v -1.1444091541079615e-07 0.0 -0.25
v 0.08838821202516556 0.09567084908485413 -0.21338866651058197
v 0.09567073732614517 0.0 -0.23097045719623566
v 0.16332030296325684 0.09567084908485413 -0.16332030296325684
v 0.17677657306194305 0.0 -0.17677733302116394
v 0.21338827908039093 0.09567084908485413 -0.08838866651058197
v 0.2309698462486267 0.0 -0.0956713855266571
v 0.2309698462486267 0.09567084908485413 0.0
v 0.25 0.0 0.0
v 0.2133883684873581 0.09567084908485413 0.08838866651058197
v 0.23096992075443268 0.0 0.0956713855266571
v 0.163320392370224 0.09567084908485413 0.16332030296325684
v 0.176776722073555 0.0 0.17677612602710724
v 0.0883883610367775 0.09567084908485413 0.21338866651058197
v 0.09567088633775711 0.0 0.23097045719623566
v 3.814697180359872e-08 0.09567084908485413 0.23097045719623566
v 3.814697180359872e-08 0.0 0.25
v -0.08838828653097153 0.09567084908485413 0.21338866651058197
v -0.09567081183195114 0.0 0.23097045719623566
v -0.16332034766674042 0.09567084908485413 0.16332030296325684
v -0.17677664756774902 0.0 0.17677612602710724
v -0.2133883237838745 0.09567084908485413 0.08838866651058197
v -0.2309698611497879 0.0 0.0956713855266571
v -0.2309698611497879 0.09567084908485413 0.0
v -0.25 0.0 0.0
v -0.2133883833885193 0.09567084908485413 -0.08838866651058197
v -0.23096993565559387 0.0 -0.09567016363143921
v 0.06764953583478928 0.1767766922712326 0.16332030296325684
v 3.814697180359872e-08 0.1767766922712326 0.17677612602710724
v -0.06764949858188629 0.1767766922712326 0.16332030296325684
v -0.125 0.1767766922712326 0.125
v -0.163320392370224 0.1767766922712326 0.06764892488718033
v -0.1767766922712326 0.1767766922712326 0.0
v -0.163320392370224 0.1767766922712326 -0.06764892488718033
v 0.0 0.2309698611497879 0.0956713855266571
v 0.03661167249083519 0.2309698611497879 0.08838866651058197
v 0.1250000298023224 0.1767766922712326 0.125
v 0.163320392370224 0.1767766922712326 0.06764892488718033
v 0.176776722073555 0.1767766922712326 0.0
v 0.16332030296325684 0.1767766922712326 -0.06765014678239822
v 0.12499991804361343 0.1767766922712326 -0.125
v 0.06764941662549973 0.1767766922712326 -0.16332030296325684
v -7.629394360719743e-08 0.1767766922712326 -0.17677612602710724
v -0.06764961034059525 0.1767766922712326 -0.16332030296325684
v -0.12500007450580597 0.1767766922712326 -0.125
v -0.163320392370224 0.1767766922712326 -0.06764892488718033
v -0.06764953583478928 0.2309698611497879 -0.06764892488718033
v -0.0883883610367775 0.2309698611497879 -0.03661132603883743
v -0.036611709743738174 0.2309698611497879 -0.08838866651058197
v -3.814697180359872e-08 0.2309698611497879 -0.0956713855266571
v 0.03661159425973892 0.2309698611497879 -0.08838866651058197
v 0.06764949858188629 0.2309698611497879 -0.06765014678239822
v 0.08838832378387451 0.2309698611497879 -0.03661132603883743
v 0.09567084908485413 0.2309698611497879 0.0
v 0.0883883610367775 0.2309698611497879 0.03661132603883743
v 0.06764953583478928 0.2309698611497879 0.06764892488718033
v 0.0 0.25 0.0
v 0.0 0.25 0.0
v 0.0 0.25 0.0
v 0.0 0.25 0.0
v 0.0 0.25 0.0
v 0.0 0.25 0.0
v 0.0 0.25 0.0
v 0.0 0.25 0.0
v 0.0 0.25 0.0
v 0.0 0.25 0.0
v 0.0 0.25 0.0
v -0.03661163151264191 0.2309698611497879 0.08838866651058197
v -0.06764949858188629 0.2309698611497879 0.06764892488718033
v -0.0883883610367775 0.2309698611497879 0.03661132603883743
v -0.09567084908485413 0.2309698611497879 0.0
v -0.0883883610367775 0.2309698611497879 -0.03661132603883743
v 0.0 0.25 0.0
v 0.0 0.25 0.0
v 0.0 0.25 0.0
v 0.0 0.25 0.0
v 0.0 0.25 0.0
v -0.17677681148052216 0.0 -0.17677612602710724
v -0.17677681148052216 -0.07849032431840897 -0.17677612602710724
v -0.23096993565559387 -0.07849032431840897 -0.09567016363143921
v -0.23096993565559387 0.0 -0.09567016363143921
v -0.09567096829414368 0.0 -0.23096923530101776
v -0.09567096829414368 -0.07849032431840897 -0.23096923530101776
v -1.1444091541079615e-07 -0.07849032431840897 -0.25
v 0.09567073732614517 0.0 -0.23097045719623566
v 0.09567073732614517 -0.07849032431840897 -0.23097045719623566
v 0.17677657306194305 0.0 -0.17677733302116394
v 0.17677657306194305 -0.07849032431840897 -0.17677733302116394
v 0.2309698462486267 0.0 -0.0956713855266571
v 0.2309698462486267 -0.07849032431840897 -0.0956713855266571
v 0.25 -0.07849032431840897 0.0
v 0.23096992075443268 0.0 0.0956713855266571
v 0.23096992075443268 -0.07849032431840897 0.0956713855266571
v 0.176776722073555 0.0 0.17677612602710724
v 0.176776722073555 -0.07849032431840897 0.17677612602710724
v 0.09567088633775711 0.0 0.23097045719623566
v 0.09567088633775711 -0.07849032431840897 0.23097045719623566
v 3.814697180359872e-08 0.0 0.25
v 3.814697180359872e-08 -0.07849032431840897 0.25
v -0.09567081183195114 0.0 0.23097045719623566
v -0.09567081183195114 -0.07849032431840897 0.23097045719623566
v -0.17677664756774902 0.0 0.17677612602710724
v -0.17677664756774902 -0.07849032431840897 0.17677612602710724
v -0.2309698611497879 0.0 0.0956713855266571
v -0.2309698611497879 -0.07849032431840897 0.0956713855266571
v -0.25 0.0 0.0
v -0.25 -0.07849032431840897 0.0
v -0.23096993565559387 0.0 -0.09567016363143921
v -0.23096993565559387 -0.07849032431840897 -0.09567016363143921
vn -0.9187192916870117 0.10554531961679459 -0.38054564595222473
vn -0.8623837232589722 0.35873943567276 -0.35721200704574585
vn -0.6600407958030701 0.3587382733821869 -0.6600401401519775
vn -0.7031577229499817 0.10554379224777222 -0.7031568884849548
vn -0.35720983147621155 0.3587384521961212 -0.8623849153518677
vn -0.3805474042892456 0.10554458945989609 -0.918718695640564
vn -1.8816699594026431e-06 0.35874128341674805 -0.9334369897842407
vn -4.63853393739555e-06 0.10554730147123337 -0.994414210319519
vn 0.3572078347206116 0.3587426245212555 -0.862384021282196
vn 0.3805428445339203 0.10554906725883484 -0.9187200665473938
vn 0.6600393056869507 0.35874152183532715 -0.6600399613380432
vn 0.703156590461731 0.10554836690425873 -0.7031574249267578
vn 0.8623837828636169 0.35874027013778687 -0.35721075534820557
vn 0.9187191724777222 0.10554736107587814 -0.38054555654525757
vn 0.9334375262260437 0.3587399125099182 -4.02942589516897e-07
vn 0.9944143295288086 0.10554682463407516 -3.9372943660964665e-07
vn 0.8623834252357483 0.35874053835868835 0.3572114408016205
vn 0.9187187552452087 0.10554669797420502 0.3805466592311859
vn 0.660040020942688 0.3587404191493988 0.6600397229194641
vn 0.7031574249267578 0.10554616898298264 0.7031569480895996
vn 0.35721248388290405 0.35874107480049133 0.862382709980011
vn 0.38054853677749634 0.10554599016904831 0.9187180995941162
vn 0.0 0.3587419390678406 0.9334368109703064
vn 0.0 0.10554582625627518 0.9944144487380981
vn -0.3572123944759369 0.35874107480049133 0.8623828291893005
vn -0.38054850697517395 0.10554596036672592 0.9187180995941162
vn -0.660040020942688 0.3587402403354645 0.6600398421287537
vn -0.7031573057174683 0.1055460199713707 0.7031570672988892
vn -0.8623834252357483 0.35874029994010925 0.3572116494178772
vn -0.918718695640564 0.10554645210504532 0.3805469274520874
vn -0.9334375262260437 0.35873985290527344 2.660951565758296e-07
vn -0.9944143295288086 0.1055464893579483 3.7498224969567673e-07
vn -0.8623837232589722 0.35873943567276 -0.35721200704574585
vn -0.9187192916870117 0.10554531961679459 -0.38054564595222473
vn 0.2853250801563263 0.6664064526557922 0.6888339519500732
vn 0.0 0.6664068102836609 0.7455883026123047
vn -0.2853250205516815 0.6664063334465027 0.6888339519500732
vn -0.5272119045257568 0.666405975818634 0.5272102952003479
vn -0.6888347864151001 0.6664057970046997 0.2853242754936218
vn -0.7455899715423584 0.6664050221443176 0.0
vn -0.6888347864151001 0.666405975818634 -0.285323828458786
vn 0.0 0.8754989504814148 0.4832199513912201
vn 0.18492145836353302 0.8755000233650208 0.44643449783325195
vn 0.5272119045257568 0.6664060950279236 0.5272100567817688
vn 0.6888348460197449 0.6664058566093445 0.28532418608665466
vn 0.7455899715423584 0.6664050221443176 -3.529867171891965e-07
vn 0.6888349652290344 0.6664052605628967 -0.28532543778419495
vn 0.5272108912467957 0.6664051413536072 -0.5272123217582703
vn 0.28532281517982483 0.6664044857025146 -0.6888365745544434
vn 0.0 0.6664043068885803 -0.7455905675888062
vn -0.2853236198425293 0.6664055585861206 -0.6888353824615479
vn -0.5272120237350464 0.6664061546325684 -0.5272098779678345
vn -0.6888347864151001 0.666405975818634 -0.285323828458786
vn -0.3416876494884491 0.8755008578300476 -0.34168365597724915
vn -0.446434885263443 0.8755001425743103 -0.18491995334625244
vn -0.1849214732646942 0.8755000233650208 -0.44643449783325195
vn 0.0 0.8754990100860596 -0.4832199215888977
vn 0.1849183738231659 0.8754996657371521 -0.44643646478652954
vn 0.3416866660118103 0.8755001425743103 -0.3416867256164551
vn 0.44643425941467285 0.8755008578300476 -0.1849178820848465
vn 0.483217716217041 0.8755002021789551 -2.5438211537220923e-07
vn 0.4464348256587982 0.8755001425743103 0.18492016196250916
vn 0.3416875898838043 0.8755007982254028 0.34168389439582825
vn 1.1269243316291977e-07 1.0 0.0
vn 1.1269243316291977e-07 1.0 0.0
vn 1.1269243316291977e-07 1.0 0.0
vn 1.1269243316291977e-07 1.0 0.0
vn 1.1269243316291977e-07 1.0 0.0
vn 1.1269243316291977e-07 1.0 0.0
vn 1.1269243316291977e-07 1.0 0.0
vn 1.1269243316291977e-07 1.0 0.0
vn 1.1269243316291977e-07 1.0 0.0
vn 1.1269243316291977e-07 1.0 0.0
vn 1.1269243316291977e-07 1.0 0.0
vn -0.18492145836353302 0.875499963760376 0.4464346766471863
vn -0.3416874408721924 0.8755008578300476 0.3416840136051178
vn -0.4464348256587982 0.8755001425743103 0.1849202662706375
vn -0.4832175076007843 0.8755003213882446 0.0
vn -0.446434885263443 0.8755001425743103 -0.18491995334625244
vn 1.1269243316291977e-07 1.0 0.0
vn 1.1269243316291977e-07 1.0 0.0
vn 1.1269243316291977e-07 1.0 0.0
vn 1.1269243316291977e-07 1.0 0.0
vn 1.1269243316291977e-07 1.0 0.0
vn -0.7031577229499817 0.10554379224777222 -0.7031568884849548
vn -0.0316830538213253 -0.9989957213401794 -0.031683020293712616
vn -0.041395701467990875 -0.9989957213401794 -0.017146678641438484
vn -0.9187192916870117 0.10554531961679459 -0.38054564595222473
vn -0.3805474042892456 0.10554458945989609 -0.918718695640564
vn -0.017146820202469826 -0.9989957213401794 -0.041395749896764755
vn -2.8691368925137795e-07 -0.9989957213401794 -0.04480655491352081
vn 0.3805428445339203 0.10554906725883484 -0.9187200665473938
vn 0.017146609723567963 -0.9989957213401794 -0.04139592871069908
vn 0.703156590461731 0.10554836690425873 -0.7031574249267578
vn 0.03168303892016411 -0.9989957213401794 -0.03168303892016411
vn 0.9187191724777222 0.10554736107587814 -0.38054555654525757
vn 0.04139603301882744 -0.9989957213401794 -0.017146749421954155
vn 0.04480677470564842 -0.9989957213401794 0.0
vn 0.9187187552452087 0.10554669797420502 0.3805466592311859
vn 0.041395850479602814 -0.9989957213401794 0.01714678294956684
vn 0.7031574249267578 0.10554616898298264 0.7031569480895996
vn 0.03168284893035889 -0.9989957213401794 0.031682852655649185
vn 0.38054853677749634 0.10554599016904831 0.9187180995941162
vn 0.017146961763501167 -0.9989957213401794 0.041396111249923706
vn 0.0 0.10554582625627518 0.9944144487380981
vn 0.0 -0.9989957213401794 0.04480637609958649
vn -0.38054850697517395 0.10554596036672592 0.9187180995941162
vn -0.017146961763501167 -0.9989957213401794 0.041396111249923706
vn -0.7031573057174683 0.1055460199713707 0.7031570672988892
vn -0.03168284147977829 -0.9989957213401794 0.031682856380939484
vn -0.918718695640564 0.10554645210504532 0.3805469274520874
vn -0.04139584302902222 -0.9989957213401794 0.017146795988082886
vn -0.9944143295288086 0.1055464893579483 3.7498224969567673e-07
vn -0.04480652138590813 -0.9989957213401794 0.0
vn -0.9187192916870117 0.10554531961679459 -0.38054564595222473
vn -0.041395701467990875 -0.9989957213401794 -0.017146678641438484
vt 0.0 0.5
vt 0.0 0.375
vt 0.0625 0.375
vt 0.0625 0.5
vt 0.125 0.375
vt 0.125 0.5
vt 0.1875 0.375
vt 0.1875 0.5
vt 0.25 0.375
vt 0.25 0.5
vt 0.3125 0.375
vt 0.3125 0.5
vt 0.375 0.375
vt 0.375 0.5
vt 0.4375 0.375
vt 0.4375 0.5
vt 0.5 0.375
vt 0.5 0.5
vt 0.5625 0.375
vt 0.5625 0.5
vt 0.625 0.375
vt 0.625 0.5
vt 0.6875 0.375
vt 0.6875 0.5
vt 0.75 0.375
vt 0.75 0.5
vt 0.8125 0.375
vt 0.8125 0.5
vt 0.875 0.375
vt 0.875 0.5
vt 0.9375 0.375
vt 0.9375 0.5
vt 1.0 0.375
vt 1.0 0.5
vt 0.625 0.25
vt 0.6875 0.25
vt 0.75 0.25
vt 0.8125 0.25
vt 0.875 0.25
vt 0.9375 0.25
vt 1.0 0.25
vt 0.6875 0.125
vt 0.625 0.125
vt 0.5625 0.25
vt 0.5 0.25
vt 0.4375 0.25
vt 0.375 0.25
vt 0.3125 0.25
vt 0.25 0.25
vt 0.1875 0.25
vt 0.125 0.25
vt 0.0625 0.25
vt 0.0 0.25
vt 0.0625 0.125
vt 0.0 0.125
vt 0.125 0.125
vt 0.1875 0.125
vt 0.25 0.125
vt 0.3125 0.125
vt 0.375 0.125
vt 0.4375 0.125
vt 0.5 0.125
vt 0.5625 0.125
vt 0.03125 0.0
vt 0.09375 0.0
vt 0.28125 0.0
vt 0.34375 0.0
vt 0.40625 0.0
vt 0.46875 0.0
vt 0.53125 0.0
vt 0.59375 0.0
vt 0.15625 0.0
vt 0.21875 0.0
vt 0.65625 0.0
vt 0.75 0.125
vt 0.8125 0.125
vt 0.875 0.125
vt 0.9375 0.125
vt 1.0 0.125
vt 0.71875 0.0
vt 0.78125 0.0
vt 0.84375 0.0
vt 0.90625 0.0
vt 0.96875 0.0
vt 0.0625 0.5
vt 0.0625 0.5
vt 0.0 0.5
vt 0.0 0.5
vt 0.125 0.5
vt 0.125 0.5
vt 0.1875 0.5
vt 0.25 0.5
vt 0.25 0.5
vt 0.3125 0.5
vt 0.3125 0.5
vt 0.375 0.5
vt 0.375 0.5
vt 0.4375 0.5
vt 0.5 0.5
vt 0.5 0.5
vt 0.5625 0.5
vt 0.5625 0.5
vt 0.625 0.5
vt 0.625 0.5
vt 0.6875 0.5
vt 0.6875 0.5
vt 0.75 0.5
vt 0.75 0.5
vt 0.8125 0.5
vt 0.8125 0.5
vt 0.875 0.5
vt 0.875 0.5
vt 0.9375 0.5
vt 0.9375 0.5
vt 1.0 0.5
vt 1.0 0.5

g pSphere_Half
s 1
usemtl pSphere_Half
f 1/1/1 2/2/2 3/3/3 
f 1/1/1 3/3/3 4/4/4 
f 4/4/4 3/3/3 5/5/5 
f 4/4/4 5/5/5 6/6/6 
f 6/6/6 5/5/5 7/7/7 
f 6/6/6 7/7/7 8/8/8 
f 8/8/8 7/7/7 9/9/9 
f 8/8/8 9/9/9 10/10/10 
f 10/10/10 9/9/9 11/11/11 
f 10/10/10 11/11/11 12/12/12 
f 12/12/12 11/11/11 13/13/13 
f 12/12/12 13/13/13 14/14/14 
f 14/14/14 13/13/13 15/15/15 
f 14/14/14 15/15/15 16/16/16 
f 16/16/16 15/15/15 17/17/17 
f 16/16/16 17/17/17 18/18/18 
f 18/18/18 17/17/17 19/19/19 
f 18/18/18 19/19/19 20/20/20 
f 20/20/20 19/19/19 21/21/21 
f 20/20/20 21/21/21 22/22/22 
f 22/22/22 21/21/21 23/23/23 
f 22/22/22 23/23/23 24/24/24 
f 24/24/24 23/23/23 25/25/25 
f 24/24/24 25/25/25 26/26/26 
f 26/26/26 25/25/25 27/27/27 
f 26/26/26 27/27/27 28/28/28 
f 28/28/28 27/27/27 29/29/29 
f 28/28/28 29/29/29 30/30/30 
f 30/30/30 29/29/29 31/31/31 
f 30/30/30 31/31/31 32/32/32 
f 32/32/32 31/31/31 33/33/33 
f 32/32/32 33/33/33 34/34/34 
f 19/19/19 35/35/35 21/21/21 
f 21/21/21 35/35/35 36/36/36 
f 21/21/21 36/36/36 23/23/23 
f 23/23/23 36/36/36 37/37/37 
f 23/23/23 37/37/37 25/25/25 
f 25/25/25 37/37/37 38/38/38 
f 25/25/25 38/38/38 27/27/27 
f 27/27/27 38/38/38 39/39/39 
f 27/27/27 39/39/39 29/29/29 
f 29/29/29 39/39/39 40/40/40 
f 29/29/29 40/40/40 31/31/31 
f 31/31/31 40/40/40 41/41/41 
f 31/31/31 41/41/41 33/33/33 
f 35/35/35 42/42/42 36/36/36 
f 35/35/35 43/43/43 42/42/42 
f 44/44/44 43/43/43 35/35/35 
f 19/19/19 44/44/44 35/35/35 
f 17/17/17 44/44/44 19/19/19 
f 17/17/17 45/45/45 44/44/44 
f 15/15/15 45/45/45 17/17/17 
f 15/15/15 46/46/46 45/45/45 
f 13/13/13 46/46/46 15/15/15 
f 13/13/13 47/47/47 46/46/46 
f 11/11/11 47/47/47 13/13/13 
f 11/11/11 48/48/48 47/47/47 
f 9/9/9 48/48/48 11/11/11 
f 9/9/9 49/49/49 48/48/48 
f 7/7/7 49/49/49 9/9/9 
f 7/7/7 50/50/50 49/49/49 
f 5/5/5 50/50/50 7/7/7 
f 5/5/5 51/51/51 50/50/50 
f 3/3/3 51/51/51 5/5/5 
f 3/3/3 52/52/52 51/51/51 
f 2/2/2 52/52/52 3/3/3 
f 2/2/2 53/53/53 52/52/52 
f 53/53/53 54/54/54 52/52/52 
f 53/53/53 55/55/55 54/54/54 
f 52/52/52 54/54/54 56/56/56 
f 52/52/52 56/56/56 51/51/51 
f 51/51/51 56/56/56 57/57/57 
f 51/51/51 57/57/57 50/50/50 
f 50/50/50 57/57/57 58/58/58 
f 50/50/50 58/58/58 49/49/49 
f 49/49/49 58/58/58 59/59/59 
f 49/49/49 59/59/59 48/48/48 
f 48/48/48 59/59/59 60/60/60 
f 48/48/48 60/60/60 47/47/47 
f 47/47/47 60/60/60 61/61/61 
f 47/47/47 61/61/61 46/46/46 
f 46/46/46 61/61/61 62/62/62 
f 46/46/46 62/62/62 45/45/45 
f 45/45/45 62/62/62 63/63/63 
f 45/45/45 63/63/63 44/44/44 
f 44/44/44 63/63/63 43/43/43 
f 55/55/55 64/64/64 54/54/54 
f 54/54/54 65/65/65 56/56/56 
f 58/58/58 66/66/66 59/59/59 
f 59/59/59 67/67/67 60/60/60 
f 60/60/60 68/68/68 61/61/61 
f 61/61/61 69/69/69 62/62/62 
f 62/62/62 70/70/70 63/63/63 
f 63/63/63 71/71/71 43/43/43 
f 56/56/56 72/72/72 57/57/57 
f 57/57/57 73/73/73 58/58/58 
f 43/43/43 74/74/74 42/42/42 
f 36/36/36 42/42/42 75/75/75 
f 36/36/36 75/75/75 37/37/37 
f 37/37/37 75/75/75 76/76/76 
f 37/37/37 76/76/76 38/38/38 
f 38/38/38 76/76/76 77/77/77 
f 38/38/38 77/77/77 39/39/39 
f 39/39/39 77/77/77 78/78/78 
f 39/39/39 78/78/78 40/40/40 
f 40/40/40 78/78/78 79/79/79 
f 40/40/40 79/79/79 41/41/41 
f 42/42/42 80/80/80 75/75/75 
f 75/75/75 81/81/81 76/76/76 
f 76/76/76 82/82/82 77/77/77 
f 77/77/77 83/83/83 78/78/78 
f 78/78/78 84/84/84 79/79/79 
f 85/85/85 86/86/86 87/87/87 
f 85/85/85 87/87/87 88/88/88 
f 89/89/89 86/86/86 85/85/85 
f 89/89/89 90/90/90 86/86/86 
f 8/8/8 90/90/90 89/89/89 
f 8/8/8 91/91/91 90/90/90 
f 92/92/92 91/91/91 8/8/8 
f 92/92/92 93/93/93 91/91/91 
f 90/90/90 91/91/91 93/93/93 
f 94/94/94 93/93/93 92/92/92 
f 94/94/94 95/95/95 93/93/93 
f 93/93/93 95/95/95 90/90/90 
f 95/95/95 86/86/86 90/90/90 
f 96/96/96 95/95/95 94/94/94 
f 96/96/96 97/97/97 95/95/95 
f 95/95/95 97/97/97 86/86/86 
f 16/16/16 97/97/97 96/96/96 
f 16/16/16 98/98/98 97/97/97 
f 99/99/99 98/98/98 16/16/16 
f 99/99/99 100/100/100 98/98/98 
f 101/101/101 100/100/100 99/99/99 
f 101/101/101 102/102/102 100/100/100 
f 103/103/103 102/102/102 101/101/101 
f 103/103/103 104/104/104 102/102/102 
f 105/105/105 104/104/104 103/103/103 
f 105/105/105 106/106/106 104/104/104 
f 107/107/107 106/106/106 105/105/105 
f 107/107/107 108/108/108 106/106/106 
f 102/102/102 104/104/104 108/108/108 
f 104/104/104 106/106/106 108/108/108 
f 109/109/109 108/108/108 107/107/107 
f 109/109/109 110/110/110 108/108/108 
f 100/100/100 102/102/102 110/110/110 
f 102/102/102 108/108/108 110/110/110 
f 111/111/111 110/110/110 109/109/109 
f 111/111/111 112/112/112 110/110/110 
f 98/98/98 100/100/100 112/112/112 
f 100/100/100 110/110/110 112/112/112 
f 113/113/113 112/112/112 111/111/111 
f 113/113/113 114/114/114 112/112/112 
f 115/115/115 114/114/114 113/113/113 
f 115/115/115 116/116/116 114/114/114 
f 98/98/98 114/114/114 116/116/116 
f 98/98/98 112/112/112 114/114/114 
f 97/97/97 98/98/98 116/116/116 
f 97/97/97 116/116/116 86/86/86 

