v 0.2077343761920929 0.06082664430141449 0.5015130639076233
v 0.2077343761920929 0.1351838856935501 0.5015130639076233
v -0.20772460103034973 0.1351838856935501 0.501492977142334
v -0.20772460103034973 0.06082664430141449 0.501492977142334
v -0.20772460103034973 0.06082664430141449 0.501492977142334
v -0.20772460103034973 0.1351838856935501 0.501492977142334
v -0.501513659954071 0.1351838856935501 0.20773372054100037
v -0.501513659954071 0.06082664430141449 0.20773372054100037
v -0.501513659954071 0.06082664430141449 0.20773372054100037
v -0.501513659954071 0.1351838856935501 0.20773372054100037
v -0.5007055401802063 0.1351838856935501 -0.2083694338798523
v -0.5007055401802063 0.06082664430141449 -0.2083694338798523
v -0.5007055401802063 0.06082664430141449 -0.2083694338798523
v -0.5007055401802063 0.1351838856935501 -0.2083694338798523
v -0.2077343761920929 0.1351838856935501 -0.5015134811401367
v -0.2077343761920929 0.06082664430141449 -0.5015131831169128
v -0.2077343761920929 0.06082664430141449 -0.5015131831169128
v -0.2077343761920929 0.1351838856935501 -0.5015134811401367
v 0.2077343761920929 0.1351838856935501 -0.5015133619308472
v 0.2077343761920929 0.06082664430141449 -0.5015133619308472
v 0.2077343761920929 0.06082664430141449 -0.5015133619308472
v 0.2077343761920929 0.1351838856935501 -0.5015133619308472
v 0.501513659954071 0.1351838856935501 -0.20772528648376465
v 0.501513659954071 0.06082664430141449 -0.20772528648376465
v 0.501513659954071 0.06082664430141449 -0.20772528648376465
v 0.501513659954071 0.1351838856935501 -0.20772528648376465
v 0.501513659954071 0.1351838856935501 0.20773360133171082
v 0.501513659954071 0.06082664430141449 0.20773360133171082
v 0.501513659954071 0.06082664430141449 0.20773360133171082
v 0.501513659954071 0.1351838856935501 0.20773360133171082
v 0.2077343761920929 0.1351838856935501 0.5015130639076233
v 0.2077343761920929 0.06082664430141449 0.5015130639076233
v -0.18441161513328552 -5.0613359445691084e-33 0.4452078938484192
v 0.0 -3.743428758468082e-16 0.0
v 0.18441161513328552 0.0 0.4452078938484192
v -0.44520750641822815 0.0 0.18441088497638702
v -0.44520750641822815 0.0 -0.1844109147787094
v -0.18441161513328552 -5.0613359445691084e-33 -0.4452078938484192
v 0.18441161513328552 1.0122666011666463e-32 -0.4452078938484192
v 0.43425291776657104 -4.756701698895879e-18 -0.17987315356731415
v 0.44520750641822815 0.0 0.1844109147787094
v 0.0 0.1351838856935501 -5.186841178783652e-09
v -0.20772460103034973 0.1351838856935501 0.501492977142334
v 0.2077343761920929 0.1351838856935501 0.5015130639076233
v -0.501513659954071 0.1351838856935501 0.20773372054100037
v -0.5007055401802063 0.1351838856935501 -0.2083694338798523
v -0.2077343761920929 0.1351838856935501 -0.5015134811401367
v 0.2077343761920929 0.1351838856935501 -0.5015133619308472
v 0.501513659954071 0.1351838856935501 -0.20772528648376465
v 0.501513659954071 0.1351838856935501 0.20773360133171082
v 0.2077343761920929 0.06082664430141449 0.5015130639076233
v -0.20772460103034973 0.06082664430141449 0.501492977142334
v -0.18441161513328552 -5.0613359445691084e-33 0.4452078938484192
v 0.18441161513328552 0.0 0.4452078938484192
v 0.18441161513328552 0.0 0.4452078938484192
v 0.44520750641822815 0.0 0.1844109147787094
v 0.501513659954071 0.06082664430141449 0.20773360133171082
v 0.2077343761920929 0.06082664430141449 0.5015130639076233
v -0.20772460103034973 0.06082664430141449 0.501492977142334
v -0.501513659954071 0.06082664430141449 0.20773372054100037
v -0.44520750641822815 0.0 0.18441088497638702
v -0.18441161513328552 -5.0613359445691084e-33 0.4452078938484192
v -0.501513659954071 0.06082664430141449 0.20773372054100037
v -0.5007055401802063 0.06082664430141449 -0.2083694338798523
v -0.44520750641822815 0.0 -0.1844109147787094
v -0.44520750641822815 0.0 0.18441088497638702
v -0.5007055401802063 0.06082664430141449 -0.2083694338798523
v -0.2077343761920929 0.06082664430141449 -0.5015131831169128
v -0.18441161513328552 -5.0613359445691084e-33 -0.4452078938484192
v -0.44520750641822815 0.0 -0.1844109147787094
v -0.2077343761920929 0.06082664430141449 -0.5015131831169128
v 0.2077343761920929 0.06082664430141449 -0.5015133619308472
v 0.18441161513328552 1.0122666011666463e-32 -0.4452078938484192
v -0.18441161513328552 -5.0613359445691084e-33 -0.4452078938484192
v 0.2077343761920929 0.06082664430141449 -0.5015133619308472
v 0.501513659954071 0.06082664430141449 -0.20772528648376465
v 0.43425291776657104 -4.756701698895879e-18 -0.17987315356731415
v 0.18441161513328552 1.0122666011666463e-32 -0.4452078938484192
v 0.501513659954071 0.06082664430141449 -0.20772528648376465
v 0.501513659954071 0.06082664430141449 0.20773360133171082
v 0.44520750641822815 0.0 0.1844109147787094
v 0.43425291776657104 -4.756701698895879e-18 -0.17987315356731415
vn -4.83067924506031e-05 0.0 1.0
vn -4.83067924506031e-05 0.0 1.0
vn -4.83067924506031e-05 0.0 1.0
vn -4.83067924506031e-05 0.0 1.0
vn -0.7070716023445129 0.0 0.7071418762207031
vn -0.7070716023445129 0.0 0.7071418762207031
vn -0.7070716023445129 0.0 0.7071418762207031
vn -0.7070716023445129 0.0 0.7071418762207031
vn -0.9999980926513672 0.0 -0.001942350878380239
vn -0.9999980926513672 0.0 -0.001942350878380239
vn -0.9999980926513672 0.0 -0.001942350878380239
vn -0.9999980926513672 0.0 -0.001942350878380239
vn -0.7073142528533936 -1.188336796076328e-06 -0.7068991661071777
vn -0.7073142528533936 -1.188336796076328e-06 -0.7068991661071777
vn -0.7073142528533936 -1.188336796076328e-06 -0.7068991661071777
vn -0.7073142528533936 -1.188336796076328e-06 -0.7068991661071777
vn 0.0 -2.052091986115556e-06 -1.0
vn 0.0 -2.052091986115556e-06 -1.0
vn 0.0 -2.052091986115556e-06 -1.0
vn 0.0 -2.052091986115556e-06 -1.0
vn 0.7071167826652527 0.0 -0.7070966958999634
vn 0.7071167826652527 0.0 -0.7070966958999634
vn 0.7071167826652527 0.0 -0.7070966958999634
vn 0.7071167826652527 0.0 -0.7070966958999634
vn 1.0 0.0 0.0
vn 1.0 0.0 0.0
vn 1.0 0.0 0.0
vn 1.0 0.0 0.0
vn 0.7071064114570618 0.0 0.7071070671081543
vn 0.7071064114570618 0.0 0.7071070671081543
vn 0.7071064114570618 0.0 0.7071070671081543
vn 0.7071064114570618 0.0 0.7071070671081543
vn 0.0 -1.0 0.0
vn 0.0 -1.0 0.0
vn 0.0 -1.0 0.0
vn 0.0 -1.0 0.0
vn 0.0 -1.0 0.0
vn 0.0 -1.0 0.0
vn 0.0 -1.0 0.0
vn 0.0 -1.0 0.0
vn 0.0 -1.0 0.0
vn 0.0 1.0 0.0
vn 0.0 1.0 0.0
vn 0.0 1.0 0.0
vn 0.0 1.0 0.0
vn 0.0 1.0 0.0
vn 0.0 1.0 0.0
vn 0.0 1.0 0.0
vn 0.0 1.0 0.0
vn 0.0 1.0 0.0
vn -1.8779803212964907e-05 -0.6792401671409607 0.733916163444519
vn -1.8779803212964907e-05 -0.6792401671409607 0.733916163444519
vn -1.8779803212964907e-05 -0.6792401671409607 0.733916163444519
vn -1.8779803212964907e-05 -0.6792401671409607 0.733916163444519
vn 0.518913984298706 -0.679306149482727 0.5189136862754822
vn 0.518913984298706 -0.679306149482727 0.5189136862754822
vn 0.518913984298706 -0.679306149482727 0.5189136862754822
vn 0.518913984298706 -0.679306149482727 0.5189136862754822
vn -0.518942654132843 -0.6792414784431458 0.5189695954322815
vn -0.518942654132843 -0.6792414784431458 0.5189695954322815
vn -0.518942654132843 -0.6792414784431458 0.5189695954322815
vn -0.518942654132843 -0.6792414784431458 0.5189695954322815
vn -0.7362850904464722 -0.6766709685325623 -0.0007581388927064836
vn -0.7362850904464722 -0.6766709685325623 -0.0007581388927064836
vn -0.7362850904464722 -0.6766709685325623 -0.0007581388927064836
vn -0.7362850904464722 -0.6766709685325623 -0.0007581388927064836
vn -0.5192537903785706 -0.6789097785949707 -0.5190924406051636
vn -0.5192537903785706 -0.6789097785949707 -0.5190924406051636
vn -0.5192537903785706 -0.6789097785949707 -0.5190924406051636
vn -0.5192537903785706 -0.6789097785949707 -0.5190924406051636
vn 0.0 -0.6793068051338196 -0.7338542938232422
vn 0.0 -0.6793068051338196 -0.7338542938232422
vn 0.0 -0.6793068051338196 -0.7338542938232422
vn 0.0 -0.6793068051338196 -0.7338542938232422
vn 0.5029146075248718 -0.7127300500869751 -0.48897120356559753
vn 0.5029146075248718 -0.7127300500869751 -0.48897120356559753
vn 0.5029146075248718 -0.7127300500869751 -0.48897120356559753
vn 0.5029146075248718 -0.7127300500869751 -0.48897120356559753
vn 0.701352059841156 -0.7127468585968018 -0.009853758849203587
vn 0.701352059841156 -0.7127468585968018 -0.009853758849203587
vn 0.701352059841156 -0.7127468585968018 -0.009853758849203587
vn 0.701352059841156 -0.7127468585968018 -0.009853758849203587
vt 0.64369136095047 0.9623966626822948
vt 0.64369136095047 0.9881901880726218
vt 0.49957406520843506 0.9881901880726218
vt 0.49957406520843506 0.9623966626822948
vt 0.49957406520843506 0.9623966626822948
vt 0.49957406520843506 0.9881901880726218
vt 0.39766281843185425 0.9881901880726218
vt 0.39766281843185425 0.9623966626822948
vt 0.39766281843185425 0.9623966626822948
vt 0.39766281843185425 0.9881901880726218
vt 0.2550601363182068 0.9881895920261741
vt 0.2550601363182068 0.962395440787077
vt 0.2550601363182068 0.962395440787077
vt 0.2550601363182068 0.9881895920261741
vt 0.15163423120975494 0.9881892642006278
vt 0.15163423120975494 0.9623957090079784
vt 0.15163423120975494 0.9623957090079784
vt 0.15163423120975494 0.9881892642006278
vt 0.007514342665672302 0.9881904255598783
vt 0.007514134049415588 0.9623968116939068
vt 0.9916256070137024 0.9623990170657635
vt 0.9916251301765442 0.9881925424560905
vt 0.8897169232368469 0.9881909033283591
vt 0.889717161655426 0.9623973481357098
vt 0.889717161655426 0.9623973481357098
vt 0.8897169232368469 0.9881909033283591
vt 0.7455995082855225 0.9881901880726218
vt 0.745599627494812 0.9623966626822948
vt 0.745599627494812 0.9623966626822948
vt 0.7455995082855225 0.9881901880726218
vt 0.64369136095047 0.9881901880726218
vt 0.64369136095047 0.9623966626822948
vt 0.41401422023773193 0.8918000608682632
vt 0.4502464532852173 0.8043277114629745
vt 0.4864787459373474 0.8918000608682632
vt 0.3627740144729614 0.8405599147081375
vt 0.3627740144729614 0.7680955678224564
vt 0.41401422023773193 0.7168553471565247
vt 0.4864787459373474 0.7168553471565247
vt 0.5355664491653442 0.7689870744943619
vt 0.537718653678894 0.8405599147081375
vt 0.1826772838830948 0.7563648819923401
vt 0.3394761085510254 0.6914168000221252
vt 0.3394823670387268 0.8213156908750534
vt 0.2476281374692917 0.5995598435401917
vt 0.11752772331237793 0.5995598435401917
vt 0.025872206315398216 0.6914142668247223
vt 0.025872206315398216 0.8213156908750534
vt 0.11772915720939636 0.9131698682904243
vt 0.2476281374692917 0.9131698682904243
vt 0.64369136095047 0.9623966626822948
vt 0.49957406520843506 0.9623966626822948
vt 0.5076614022254944 0.9412967078387737
vt 0.6356010437011719 0.9412967078387737
vt 0.6489916443824768 0.9412967078387737
vt 0.7388848662376404 0.9412967972457409
vt 0.745599627494812 0.9623966626822948
vt 0.64369136095047 0.9623966626822948
vt 0.49957406520843506 0.9623966626822948
vt 0.39766281843185425 0.9623966626822948
vt 0.40282827615737915 0.9412967078387737
vt 0.49343734979629517 0.9412967078387737
vt 0.39766281843185425 0.9623966626822948
vt 0.2550601363182068 0.962395440787077
vt 0.26163315773010254 0.9412960819900036
vt 0.38957250118255615 0.9412965886294842
vt 0.2550601363182068 0.962395440787077
vt 0.15163423120975494 0.9623957090079784
vt 0.15782798826694489 0.9412957839667797
vt 0.24334074556827545 0.9412950687110424
vt 0.15163423120975494 0.9623957090079784
vt 0.007514134049415588 0.9623968116939068
vt 0.015604093670845032 0.9412968568503857
vt 0.14354382455348969 0.9412957839667797
vt 0.9916281700134277 0.9623978845775127
vt 0.889717161655426 0.9623973481357098
vt 0.8954810500144958 0.941297423094511
vt 0.9868500828742981 0.9412978105247021
vt 0.889717161655426 0.9623973481357098
vt 0.745599627494812 0.9623966626822948
vt 0.7536903023719788 0.9412967972457409
vt 0.8800557255744934 0.941297423094511

g RC_Plasma_cannon_T1_Base
s 1
usemtl RC_Plasma_cannon_T1_Base
f 1/1/1 2/2/2 3/3/3 
f 1/1/1 3/3/3 4/4/4 
f 5/5/5 6/6/6 7/7/7 
f 5/5/5 7/7/7 8/8/8 
f 9/9/9 10/10/10 11/11/11 
f 9/9/9 11/11/11 12/12/12 
f 13/13/13 14/14/14 15/15/15 
f 13/13/13 15/15/15 16/16/16 
f 17/17/17 18/18/18 19/19/19 
f 17/17/17 19/19/19 20/20/20 
f 21/21/21 22/22/22 23/23/23 
f 21/21/21 23/23/23 24/24/24 
f 25/25/25 26/26/26 27/27/27 
f 25/25/25 27/27/27 28/28/28 
f 29/29/29 30/30/30 31/31/31 
f 29/29/29 31/31/31 32/32/32 
f 33/33/33 34/34/34 35/35/35 
f 36/36/36 34/34/34 33/33/33 
f 37/37/37 34/34/34 36/36/36 
f 38/38/38 34/34/34 37/37/37 
f 39/39/39 34/34/34 38/38/38 
f 40/40/40 34/34/34 39/39/39 
f 41/41/41 34/34/34 40/40/40 
f 35/35/35 34/34/34 41/41/41 
f 42/42/42 43/43/43 44/44/44 
f 42/42/42 45/45/45 43/43/43 
f 42/42/42 46/46/46 45/45/45 
f 42/42/42 47/47/47 46/46/46 
f 42/42/42 48/48/48 47/47/47 
f 42/42/42 49/49/49 48/48/48 
f 42/42/42 50/50/50 49/49/49 
f 42/42/42 44/44/44 50/50/50 
f 51/51/51 52/52/52 53/53/53 
f 51/51/51 53/53/53 54/54/54 
f 55/55/55 56/56/56 57/57/57 
f 55/55/55 57/57/57 58/58/58 
f 59/59/59 60/60/60 61/61/61 
f 59/59/59 61/61/61 62/62/62 
f 63/63/63 64/64/64 65/65/65 
f 63/63/63 65/65/65 66/66/66 
f 67/67/67 68/68/68 69/69/69 
f 67/67/67 69/69/69 70/70/70 
f 71/71/71 72/72/72 73/73/73 
f 71/71/71 73/73/73 74/74/74 
f 75/75/75 76/76/76 77/77/77 
f 75/75/75 77/77/77 78/78/78 
f 79/79/79 80/80/80 81/81/81 
f 79/79/79 81/81/81 82/82/82 

