v 0.20836913585662842 0.06082664430141449 0.5030480623245239
v 0.20836913585662842 0.1351838856935501 0.5030480623245239
v -0.20836913585662842 0.1351838856935501 0.5030480623245239
v -0.20836913585662842 0.06082664430141449 0.5030480623245239
v -0.5030480623245239 0.1351838856935501 0.2083694338798523
v -0.5030480623245239 0.06082664430141449 0.2083694338798523
v -0.5030480623245239 0.1351838856935501 -0.20836928486824036
v -0.5030480623245239 0.06082664430141449 -0.20836928486824036
v -0.20836913585662842 0.1351838856935501 -0.5030482411384583
v -0.20836913585662842 0.06082664430141449 -0.5030482411384583
v 0.5030480623245239 0.06082664430141449 0.2083694338798523
v 0.5030480623245239 0.1351838856935501 0.2083694338798523
v 0.5030480623245239 0.06082664430141449 -0.2083694338798523
v 0.5030480623245239 0.1351838856935501 -0.2083694338798523
v 0.20836913585662842 0.06082664430141449 -0.5030482411384583
v 0.20836913585662842 0.1351838856935501 -0.5030482411384583
v -0.20836913585662842 0.06082664430141449 -0.5030482411384583
v -0.20836913585662842 0.1351838856935501 -0.5030482411384583
v -0.44685178995132446 0.0 0.18509185314178467
v -0.1850927621126175 0.0 0.44685178995132446
v -0.44685178995132446 0.0 -0.18509170413017273
v -0.1850927621126175 0.0 -0.4468516409397125
v 0.1850927621126175 0.0 -0.4468516409397125
v -0.1850927621126175 0.0 -0.4468516409397125
v 0.44685178995132446 0.0 -0.1850920021533966
v 0.44685178995132446 0.0 0.1850920021533966
v 0.1850927621126175 0.0 0.44685178995132446
v -0.1850927621126175 0.0 0.44685178995132446
v 0.0 0.0 -1.509361228285838e-16
v 0.1850927621126175 0.0 0.44685178995132446
v -0.44685178995132446 0.0 0.18509185314178467
v -0.44685178995132446 0.0 -0.18509170413017273
v -0.1850927621126175 0.0 -0.4468516409397125
v 0.1850927621126175 0.0 -0.4468516409397125
v 0.44685178995132446 0.0 -0.1850920021533966
v 0.44685178995132446 0.0 0.1850920021533966
v 0.0 0.1351838856935501 -1.959614032195274e-16
v -0.20836913585662842 0.1351838856935501 0.5030480623245239
v 0.20836913585662842 0.1351838856935501 0.5030480623245239
v -0.5030480623245239 0.1351838856935501 0.2083694338798523
v -0.5030480623245239 0.1351838856935501 -0.20836928486824036
v -0.20836913585662842 0.1351838856935501 -0.5030482411384583
v 0.20836913585662842 0.1351838856935501 -0.5030482411384583
v 0.5030480623245239 0.1351838856935501 -0.2083694338798523
v 0.5030480623245239 0.1351838856935501 0.2083694338798523
v 0.4578515589237213 0.11609866470098495 0.13317206501960754
v 0.4334496855735779 0.14647765457630157 0.12524482607841492
v 0.3687158226966858 0.14647765457630157 0.252288281917572
v 0.389472633600235 0.11609866470098495 0.2673712968826294
v 0.2678930461406708 0.14647765457630157 0.35311347246170044
v 0.28297361731529236 0.11609866470098495 0.373870313167572
v 0.14084716141223907 0.14647765457630157 0.4178449213504791
v 0.1487768590450287 0.11609866470098495 0.44224676489830017
v 1.7089843822759576e-05 0.14647765457630157 0.44014960527420044
v 1.7089843822759576e-05 0.11609866470098495 0.46580877900123596
v -0.1408129781484604 0.14647765457630157 0.4178449213504791
v -0.1487402319908142 0.11609866470098495 0.44224676489830017
v -0.2678564488887787 0.14647765457630157 0.35311347246170044
v -0.28293943405151367 0.11609866470098495 0.373870313167572
v -0.3686816394329071 0.14647765457630157 0.252288281917572
v -0.3894384801387787 0.11609866470098495 0.2673712968826294
v -0.4334130883216858 0.14647765457630157 0.12524482607841492
v -0.45781493186950684 0.11609866470098495 0.13317206501960754
v -0.4557177722454071 0.14647765457630157 -0.015585250221192837
v -0.4813769459724426 0.11609866470098495 -0.015585250221192837
v -0.4334130883216858 0.14647765457630157 -0.15641532838344574
v -0.45781493186950684 0.11609866470098495 -0.16434501111507416
v -0.3686816394329071 0.14647765457630157 -0.28346121311187744
v -0.3894384801387787 0.11609866470098495 -0.298541784286499
v -0.2678564488887787 0.14647765457630157 -0.38428395986557007
v -0.28293943405151367 0.11609866470098495 -0.40504324436187744
v -0.1408129781484604 0.14647765457630157 -0.44901785254478455
v -0.1487402319908142 0.11609866470098495 -0.473419725894928
v 1.7089843822759576e-05 0.14647765457630157 -0.47132253646850586
v 1.7089843822759576e-05 0.11609866470098495 -0.496979296207428
v 0.14084716141223907 0.14647765457630157 -0.44901785254478455
v 0.1487768590450287 0.11609866470098495 -0.473419725894928
v 0.2678930461406708 0.14647765457630157 -0.38428395986557007
v 0.28297361731529236 0.11609866470098495 -0.40504324436187744
v 0.3687158226966858 0.14647765457630157 -0.28346121311187744
v 0.389472633600235 0.11609866470098495 -0.298541784286499
v 0.4334472417831421 0.14647765457630157 -0.15641532838344574
v 0.4578515589237213 0.11609866470098495 -0.16434501111507416
v 0.4557543694972992 0.14647765457630157 -0.015585250221192837
v 0.4814111292362213 0.11609866470098495 -0.015585250221192837
v 1.7089843822759576e-05 0.14803071320056915 -0.015586509369313717
vn 0.352389395236969 -0.389944851398468 0.8507436513900757
vn 0.3826832175254822 0.0 0.9238796234130859
vn -0.3826832175254822 0.0 0.9238796234130859
vn -0.352389395236969 -0.3899446427822113 0.8507437109947205
vn -0.9238794445991516 0.0 0.382683664560318
vn -0.8507436513900757 -0.3899447023868561 0.3523896634578705
vn -0.9238795042037964 0.0 -0.3826834261417389
vn -0.8507436513900757 -0.389944851398468 -0.3523893654346466
vn -0.3826833963394165 0.0 -0.9238795042037964
vn -0.3523895740509033 -0.3899455964565277 -0.8507432341575623
vn 0.8507432341575623 -0.38994544744491577 0.3523896038532257
vn 0.9238794445991516 0.0 0.382683664560318
vn 0.8507432341575623 -0.3899456560611725 -0.35238951444625854
vn 0.9238794445991516 0.0 -0.3826836049556732
vn 0.3523893654346466 -0.3899456560611725 -0.8507432341575623
vn 0.38268327713012695 0.0 -0.9238796234130859
vn -0.3523895740509033 -0.3899455964565277 -0.8507432341575623
vn -0.3826833963394165 0.0 -0.9238795042037964
vn -0.6532827019691467 -0.7071053981781006 0.27059847116470337
vn -0.27059850096702576 -0.7071055173873901 0.6532825827598572
vn -0.6532825231552124 -0.7071057558059692 -0.2705981433391571
vn -0.27059832215309143 -0.70710688829422 -0.6532812714576721
vn 0.2705981135368347 -0.7071070075035095 -0.6532811522483826
vn -0.27059832215309143 -0.70710688829422 -0.6532812714576721
vn 0.6532813310623169 -0.7071069478988647 -0.27059805393218994
vn 0.653281569480896 -0.7071065902709961 0.27059823274612427
vn 0.2705983817577362 -0.7071057558059692 0.6532823443412781
vn 0.0 -1.0 0.0
vn 0.0 -1.0 0.0
vn 0.0 -1.0 0.0
vn 0.0 -1.0 0.0
vn 0.0 -1.0 0.0
vn 0.0 -1.0 0.0
vn 0.0 -1.0 0.0
vn 0.0 -1.0 0.0
vn 0.0 -1.0 0.0
vn 0.0 1.0 0.0
vn 0.0 1.0 0.0
vn 0.0 1.0 0.0
vn 0.0 1.0 0.0
vn 0.0 1.0 0.0
vn 0.0 1.0 0.0
vn 0.0 1.0 0.0
vn 0.0 1.0 0.0
vn 0.0 1.0 0.0
vn 0.7265889048576355 0.6452385783195496 0.23608380556106567
vn 0.4005730450153351 0.9069735407829285 0.13015447556972504
vn 0.34074631333351135 0.9069743156433105 0.24756747484207153
vn 0.6180709004402161 0.6452416777610779 0.4490562677383423
vn 0.24756652116775513 0.9069744944572449 0.3407461941242218
vn 0.44905492663383484 0.6452422738075256 0.6180713176727295
vn 0.1301518827676773 0.906976044178009 0.4005681276321411
vn 0.23607970774173737 0.6452482342720032 0.7265817523002625
vn -3.727683406395954e-07 0.9069779515266418 0.4211781322956085
vn -6.791956934648624e-07 0.6452547907829285 0.7639673948287964
vn -0.13015232980251312 0.9069757461547852 0.4005689024925232
vn -0.2360803633928299 0.6452468633651733 0.7265827655792236
vn -0.24756300449371338 0.9069762825965881 0.3407442271709442
vn -0.44904932379722595 0.6452487111091614 0.6180686950683594
vn -0.34074410796165466 0.9069762825965881 0.24756290018558502
vn -0.6180685758590698 0.6452487707138062 0.44904908537864685
vn -0.40056896209716797 0.9069756865501404 0.13015228509902954
vn -0.7265828251838684 0.6452468037605286 0.2360803186893463
vn -0.4211784303188324 0.9069778323173523 3.808775659308594e-07
vn -0.7639678120613098 0.6452544331550598 6.942055961189908e-07
vn -0.40056830644607544 0.9069759845733643 -0.1301519125699997
vn -0.7265819311141968 0.6452480554580688 -0.23607978224754333
vn -0.3407442271709442 0.9069762825965881 -0.247562974691391
vn -0.6180687546730042 0.6452485918998718 -0.449049174785614
vn -0.24756202101707458 0.9069784283638 -0.34073925018310547
vn -0.4490484893321991 0.645256519317627 -0.6180609464645386
vn -0.13015101850032806 0.9069756865501404 -0.4005694091320038
vn -0.23607803881168365 0.6452463865280151 -0.7265840172767639
vn -3.727863884250837e-07 0.9069728255271912 -0.4211891293525696
vn -6.79195466091187e-07 0.6452363729476929 -0.7639829516410828
vn 0.13015060126781464 0.906976044178009 -0.4005686044692993
vn 0.23607739806175232 0.6452479362487793 -0.7265828251838684
vn 0.2475655972957611 0.9069767594337463 -0.34074118733406067
vn 0.4490542411804199 0.6452502608299255 -0.6180634498596191
vn 0.3407428562641144 0.906976580619812 -0.2475637048482895
vn 0.6180663108825684 0.6452499628067017 -0.4490506052970886
vn 0.40056312084198 0.9069784283638 -0.13015130162239075
vn 0.7265744805335999 0.645256757736206 -0.23607920110225677
vn 0.4211837351322174 0.9069753885269165 -6.945338100194931e-07
vn 0.7639752626419067 0.6452454924583435 -1.223302433572826e-06
vn 0.0 1.0 0.0
vt 0.6764789819717407 0.9729710519313812
vt 0.6765503883361816 0.9587273299694061
vt 0.7556167840957642 0.9587273299694061
vt 0.7556511163711548 0.9729710519313812
vt 0.8400154113769531 0.9587273299694061
vt 0.8399090766906738 0.9729710519313812
vt 0.9141635298728943 0.9587273299694061
vt 0.9142918586730957 0.9729710519313812
vt 0.9856634736061096 0.9587273299694061
vt 0.9856634736061096 0.9729710519313812
vt 0.5964970588684082 0.9729710519313812
vt 0.5964362621307373 0.9587273299694061
vt 0.5163561701774597 0.9729710519313812
vt 0.5163929462432861 0.9587273299694061
vt 0.4473949074745178 0.9729710519313812
vt 0.4472349286079407 0.9587273299694061
vt 0.3833240866661072 0.9729710519313812
vt 0.3833240866661072 0.9587273299694061
vt 0.840569257736206 0.9895584294572473
vt 0.7553099393844604 0.9895584294572473
vt 0.9138504862785339 0.9895584294572473
vt 0.9856634736061096 0.9895584294572473
vt 0.4472821354866028 0.9895584294572473
vt 0.38332414627075195 0.9895584294572473
vt 0.5169988870620728 0.9895584583282471
vt 0.5964325666427612 0.9895584294572473
vt 0.6761614084243774 0.9895584583282471
vt 0.3121195435523987 0.7843715697526932
vt 0.33714497089385986 0.7239547669887543
vt 0.3621706962585449 0.7843715697526932
vt 0.27672839164733887 0.7489802539348602
vt 0.27672839164733887 0.6989293992519379
vt 0.3121195435523987 0.6635379791259766
vt 0.3621706962585449 0.6635379791259766
vt 0.39756178855895996 0.6989292800426483
vt 0.39756178855895996 0.7489802539348602
vt 0.6649146676063538 0.5847478210926056
vt 0.6935979127883911 0.6539955139160156
vt 0.6362313032150269 0.6539955139160156
vt 0.7341623306274414 0.6134310960769653
vt 0.7341623306274414 0.5560644268989563
vt 0.6935979127883911 0.5154998898506165
vt 0.6362313032150269 0.5154998898506165
vt 0.595666766166687 0.5560644268989563
vt 0.595666766166687 0.6134310960769653
vt 0.32707667350769043 0.8968809694051743
vt 0.33292222023010254 0.8949912562966347
vt 0.3427612781524658 0.9143793433904648
vt 0.33779191970825195 0.9179899543523788
vt 0.3581598997116089 0.9297280162572861
vt 0.3545563220977783 0.934703454375267
vt 0.3775404691696167 0.9395642168819904
vt 0.3756521940231323 0.9454064257442951
vt 0.39899981021881104 0.9429323561489582
vt 0.3990079164505005 0.9490689821541309
vt 0.4204413890838623 0.939510453492403
vt 0.42234325408935547 0.9453424103558064
vt 0.43977057933807373 0.9296368211507797
vt 0.44338011741638184 0.9345943778753281
vt 0.45510196685791016 0.9142796844244003
vt 0.4600648880004883 0.9178794473409653
vt 0.464937686920166 0.8949436992406845
vt 0.4707679748535156 0.8968343585729599
vt 0.46832072734832764 0.8735194057226181
vt 0.47444915771484375 0.8735169023275375
vt 0.4649226665496826 0.8520999997854233
vt 0.4707505702972412 0.8502054065465927
vt 0.4550759792327881 0.8327780812978745
vt 0.4600334167480469 0.8291761726140976
vt 0.43974244594573975 0.8174422830343246
vt 0.443345308303833 0.812485083937645
vt 0.4204217195510864 0.8075915426015854
vt 0.4223175048828125 0.8017639964818954
vt 0.3990004062652588 0.8041884750127792
vt 0.3990039825439453 0.7980593293905258
vt 0.3775714635848999 0.8075677007436752
vt 0.37568140029907227 0.8017355054616928
vt 0.3582284450531006 0.8174030631780624
vt 0.35462868213653564 0.8124382346868515
vt 0.3428645133972168 0.8327354043722153
vt 0.33790600299835205 0.8291240781545639
vt 0.33298444747924805 0.852070078253746
vt 0.32715070247650146 0.8501659482717514
vt 0.32955634593963623 0.873520240187645
vt 0.32341670989990234 0.8735103458166122
vt 0.3990006446838379 0.8735190480947495

g RC_Plasma_cannon_T5_Base
s 1
usemtl RC_Plasma_cannon_T5_Base
f 1/1/1 2/2/2 3/3/3 
f 1/1/1 3/3/3 4/4/4 
f 4/4/4 3/3/3 5/5/5 
f 4/4/4 5/5/5 6/6/6 
f 6/6/6 5/5/5 7/7/7 
f 6/6/6 7/7/7 8/8/8 
f 8/8/8 7/7/7 9/9/9 
f 8/8/8 9/9/9 10/10/10 
f 11/11/11 2/2/2 1/1/1 
f 11/11/11 12/12/12 2/2/2 
f 13/13/13 12/12/12 11/11/11 
f 13/13/13 14/14/14 12/12/12 
f 15/15/15 14/14/14 13/13/13 
f 15/15/15 16/16/16 14/14/14 
f 17/17/17 16/16/16 15/15/15 
f 17/17/17 18/18/18 16/16/16 
f 4/4/4 6/6/6 19/19/19 
f 4/4/4 19/19/19 20/20/20 
f 6/6/6 8/8/8 21/21/21 
f 6/6/6 21/21/21 19/19/19 
f 8/8/8 10/10/10 22/22/22 
f 8/8/8 22/22/22 21/21/21 
f 17/17/17 15/15/15 23/23/23 
f 17/17/17 23/23/23 24/24/24 
f 15/15/15 13/13/13 25/25/25 
f 15/15/15 25/25/25 23/23/23 
f 13/13/13 11/11/11 26/26/26 
f 13/13/13 26/26/26 25/25/25 
f 27/27/27 26/26/26 11/11/11 
f 1/1/1 20/20/20 27/27/27 
f 27/27/27 11/11/11 1/1/1 
f 1/1/1 4/4/4 20/20/20 
f 28/28/28 29/29/29 30/30/30 
f 31/31/31 29/29/29 28/28/28 
f 32/32/32 29/29/29 31/31/31 
f 33/33/33 29/29/29 32/32/32 
f 34/34/34 29/29/29 33/33/33 
f 35/35/35 29/29/29 34/34/34 
f 36/36/36 29/29/29 35/35/35 
f 30/30/30 29/29/29 36/36/36 
f 37/37/37 38/38/38 39/39/39 
f 37/37/37 40/40/40 38/38/38 
f 37/37/37 41/41/41 40/40/40 
f 37/37/37 42/42/42 41/41/41 
f 37/37/37 43/43/43 42/42/42 
f 37/37/37 44/44/44 43/43/43 
f 37/37/37 45/45/45 44/44/44 
f 37/37/37 39/39/39 45/45/45 
f 46/46/46 47/47/47 48/48/48 
f 46/46/46 48/48/48 49/49/49 
f 49/49/49 48/48/48 50/50/50 
f 49/49/49 50/50/50 51/51/51 
f 51/51/51 50/50/50 52/52/52 
f 51/51/51 52/52/52 53/53/53 
f 53/53/53 52/52/52 54/54/54 
f 53/53/53 54/54/54 55/55/55 
f 55/55/55 54/54/54 56/56/56 
f 55/55/55 56/56/56 57/57/57 
f 57/57/57 56/56/56 58/58/58 
f 57/57/57 58/58/58 59/59/59 
f 59/59/59 58/58/58 60/60/60 
f 59/59/59 60/60/60 61/61/61 
f 61/61/61 60/60/60 62/62/62 
f 61/61/61 62/62/62 63/63/63 
f 63/63/63 62/62/62 64/64/64 
f 63/63/63 64/64/64 65/65/65 
f 65/65/65 64/64/64 66/66/66 
f 65/65/65 66/66/66 67/67/67 
f 67/67/67 66/66/66 68/68/68 
f 67/67/67 68/68/68 69/69/69 
f 69/69/69 68/68/68 70/70/70 
f 69/69/69 70/70/70 71/71/71 
f 71/71/71 70/70/70 72/72/72 
f 71/71/71 72/72/72 73/73/73 
f 73/73/73 72/72/72 74/74/74 
f 73/73/73 74/74/74 75/75/75 
f 75/75/75 74/74/74 76/76/76 
f 75/75/75 76/76/76 77/77/77 
f 77/77/77 76/76/76 78/78/78 
f 77/77/77 78/78/78 79/79/79 
f 79/79/79 78/78/78 80/80/80 
f 79/79/79 80/80/80 81/81/81 
f 81/81/81 80/80/80 82/82/82 
f 81/81/81 82/82/82 83/83/83 
f 83/83/83 82/82/82 84/84/84 
f 83/83/83 84/84/84 85/85/85 
f 85/85/85 84/84/84 47/47/47 
f 85/85/85 47/47/47 46/46/46 
f 74/74/74 72/72/72 86/86/86 
f 76/76/76 74/74/74 86/86/86 
f 78/78/78 76/76/76 86/86/86 
f 80/80/80 78/78/78 86/86/86 
f 82/82/82 80/80/80 86/86/86 
f 84/84/84 82/82/82 86/86/86 
f 47/47/47 84/84/84 86/86/86 
f 48/48/48 47/47/47 86/86/86 
f 50/50/50 48/48/48 86/86/86 
f 52/52/52 50/50/50 86/86/86 
f 54/54/54 52/52/52 86/86/86 
f 56/56/56 54/54/54 86/86/86 
f 58/58/58 56/56/56 86/86/86 
f 60/60/60 58/58/58 86/86/86 
f 62/62/62 60/60/60 86/86/86 
f 64/64/64 62/62/62 86/86/86 
f 66/66/66 64/64/64 86/86/86 
f 68/68/68 66/66/66 86/86/86 
f 70/70/70 68/68/68 86/86/86 
f 72/72/72 70/70/70 86/86/86 

