v -0.208369180560112 0.06082664430141449 -0.5030493140220642
v -0.208369180560112 0.13518394529819489 -0.5030493140220642
v 0.20836909115314484 0.13518394529819489 -0.5030493140220642
v 0.20836909115314484 0.06082664430141449 -0.5030493140220642
v 0.5030492544174194 0.13518387079238892 -0.20836913585662842
v 0.5030492544174194 0.06082664430141449 -0.20836913585662842
v 0.5030492544174194 0.13518394529819489 0.20836913585662842
v 0.5030492544174194 0.06082664430141449 0.20836913585662842
v 0.20836909115314484 0.13518387079238892 0.5030468702316284
v 0.20836909115314484 0.06082664430141449 0.5030468702316284
v -0.5030469298362732 0.06082664430141449 -0.20836913585662842
v -0.5030469298362732 0.13518387079238892 -0.20836913585662842
v -0.5030469298362732 0.06082664430141449 0.20836913585662842
v -0.5030469298362732 0.13518394529819489 0.20836913585662842
v -0.208369180560112 0.06082664430141449 0.5030468702316284
v -0.208369180560112 0.13518387079238892 0.5030468702316284
v 0.20836909115314484 0.06082664430141449 0.5030468702316284
v 0.20836909115314484 0.13518387079238892 0.5030468702316284
v 0.44685298204421997 0.0 -0.1850927621126175
v 0.1850927323102951 0.0 -0.44685301184654236
v 0.44685298204421997 0.0 0.1850903332233429
v 0.1850927323102951 0.0 0.44685056805610657
v -0.18509036302566528 0.0 0.44685056805610657
v 0.1850927323102951 0.0 0.44685056805610657
v -0.44685062766075134 0.0 0.1850903332233429
v -0.44685062766075134 0.0 -0.1850927621126175
v -0.18509036302566528 0.0 -0.44685301184654236
v 0.1850927323102951 0.0 -0.44685301184654236
v -3.9386176098332726e-08 0.0 0.0
v -0.18509036302566528 0.0 -0.44685301184654236
v 0.44685298204421997 0.0 -0.1850927621126175
v 0.44685298204421997 0.0 0.1850903332233429
v 0.1850927323102951 0.0 0.44685056805610657
v -0.18509036302566528 0.0 0.44685056805610657
v -0.44685062766075134 0.0 0.1850903332233429
v -0.44685062766075134 0.0 -0.1850927621126175
v -0.208369180560112 0.13518394529819489 -0.5030493140220642
v -3.9386176098332726e-08 0.13518387079238892 0.0
v 0.20836909115314484 0.13518394529819489 -0.5030493140220642
v 0.5030492544174194 0.13518387079238892 -0.20836913585662842
v 0.5030492544174194 0.13518394529819489 0.20836913585662842
v 0.20836909115314484 0.13518387079238892 0.5030468702316284
v -0.208369180560112 0.13518387079238892 0.5030468702316284
v -0.5030469298362732 0.13518394529819489 0.20836913585662842
v -0.5030469298362732 0.13518387079238892 -0.20836913585662842
vn -0.35239070653915405 -0.3899453282356262 -0.8507428765296936
vn -0.3826853632926941 0.0 -0.9238787293434143
vn 0.3826834261417389 0.0 -0.9238795042037964
vn 0.3523901104927063 -0.38994330167770386 -0.8507440686225891
vn 0.9238795042037964 0.0 -0.3826833963394165
vn 0.8507440686225891 -0.38994330167770386 -0.3523901104927063
vn 0.9238787889480591 0.0 0.3826853632926941
vn 0.8507428765296936 -0.3899454176425934 0.35239073634147644
vn 0.38268157839775085 0.0 0.9238803386688232
vn 0.35238802433013916 -0.38994497060775757 0.8507441878318787
vn -0.8507441878318787 -0.3899448812007904 -0.35238802433013916
vn -0.9238803386688232 0.0 -0.38268157839775085
vn -0.8507430553436279 -0.3899470269680023 0.35238856077194214
vn -0.9238795042037964 0.0 0.3826833963394165
vn -0.35238856077194214 -0.3899470269680023 0.8507430553436279
vn -0.3826834261417389 0.0 0.9238795042037964
vn 0.35238802433013916 -0.38994497060775757 0.8507441878318787
vn 0.38268157839775085 0.0 0.9238803386688232
vn 0.6532841324806213 -0.7071034908294678 -0.27060002088546753
vn 0.27059999108314514 -0.7071034908294678 -0.6532841324806213
vn 0.6532816290855408 -0.707106351852417 0.2705985903739929
vn 0.27059733867645264 -0.7071060538291931 0.6532824635505676
vn -0.2705960273742676 -0.7071088552474976 0.6532800197601318
vn 0.27059733867645264 -0.7071060538291931 0.6532824635505676
vn -0.6532800197601318 -0.7071089148521423 0.27059605717658997
vn -0.6532825231552124 -0.7071059942245483 -0.2705973982810974
vn -0.2705986797809601 -0.7071062326431274 -0.6532816886901855
vn 0.0 -1.0 0.0
vn 0.0 -1.0 0.0
vn 0.0 -1.0 0.0
vn 0.0 -1.0 0.0
vn 0.0 -1.0 0.0
vn 0.0 -1.0 0.0
vn 0.0 -1.0 0.0
vn 0.0 -1.0 0.0
vn 0.0 -1.0 0.0
vn 0.0 1.0 1.7468582313995284e-07
vn 0.0 1.0 0.0
vn 0.0 1.0 1.6012805303944333e-07
vn 0.0 1.0 0.0
vn -1.2945238836437056e-07 1.0 0.0
vn 0.0 1.0 0.0
vn 0.0 1.0 0.0
vn 1.2945309890710632e-07 1.0 0.0
vn 0.0 1.0 0.0
vt 0.7062087655067444 0.7417593896389008
vt 0.7062134146690369 0.7475168406963348
vt 0.6740447282791138 0.7475168108940125
vt 0.6740400791168213 0.7417593598365784
vt 0.6418471932411194 0.7475168108940125
vt 0.6418425440788269 0.7417593598365784
vt 0.6096080541610718 0.7475167810916901
vt 0.6096034049987793 0.7417593598365784
vt 0.5773351788520813 0.7475167512893677
vt 0.5773351788520813 0.7417593598365784
vt 0.7383582592010498 0.7417593598365784
vt 0.7383628487586975 0.7475168704986572
vt 0.7704948782920837 0.7417594194412231
vt 0.770499587059021 0.7475168704986572
vt 0.8026232123374939 0.7417594194412231
vt 0.8026278614997864 0.7475169003009796
vt 0.8347523808479309 0.7417594194412231
vt 0.8347523808479309 0.747516930103302
vt 0.6418287754058838 0.7349683344364166
vt 0.6740373373031616 0.7349683344364166
vt 0.6097008585929871 0.7349683344364166
vt 0.5773351788520813 0.7349683344364166
vt 0.8025258779525757 0.7349683344364166
vt 0.8347523808479309 0.7349683344364166
vt 0.7705078125 0.7349683344364166
vt 0.7383604645729065 0.7349683344364166
vt 0.7062084674835205 0.7349683344364166
vt 0.42482438683509827 0.8491725772619247
vt 0.4581432640552521 0.8629736602306366
vt 0.42482438683509827 0.8767746463418007
vt 0.44434216618537903 0.829654723405838
vt 0.47194424271583557 0.829654723405838
vt 0.49146202206611633 0.8491725772619247
vt 0.49146202206611633 0.8767746463418007
vt 0.47194424271583557 0.8962924927473068
vt 0.44434216618537903 0.8962924927473068
vt 0.42146819829940796 0.9345080852508545
vt 0.45897728204727173 0.9500448703765869
vt 0.42146819829940796 0.9655815362930298
vt 0.44344061613082886 0.9875538935884833
vt 0.47451406717300415 0.9875538935884833
vt 0.49648624658584595 0.9655815362930298
vt 0.49648624658584595 0.9345080852508545
vt 0.47451406717300415 0.9125358462333679
vt 0.44344061613082886 0.9125358462333679

g RC_Plasma_cannon_T9_Base
s 1
usemtl RC_Plasma_cannon_T9_Base
f 1/1/1 2/2/2 3/3/3 
f 1/1/1 3/3/3 4/4/4 
f 4/4/4 3/3/3 5/5/5 
f 4/4/4 5/5/5 6/6/6 
f 6/6/6 5/5/5 7/7/7 
f 6/6/6 7/7/7 8/8/8 
f 8/8/8 7/7/7 9/9/9 
f 8/8/8 9/9/9 10/10/10 
f 11/11/11 2/2/2 1/1/1 
f 11/11/11 12/12/12 2/2/2 
f 13/13/13 12/12/12 11/11/11 
f 13/13/13 14/14/14 12/12/12 
f 15/15/15 14/14/14 13/13/13 
f 15/15/15 16/16/16 14/14/14 
f 17/17/17 16/16/16 15/15/15 
f 17/17/17 18/18/18 16/16/16 
f 4/4/4 6/6/6 19/19/19 
f 4/4/4 19/19/19 20/20/20 
f 6/6/6 8/8/8 21/21/21 
f 6/6/6 21/21/21 19/19/19 
f 8/8/8 10/10/10 22/22/22 
f 8/8/8 22/22/22 21/21/21 
f 17/17/17 15/15/15 23/23/23 
f 17/17/17 23/23/23 24/24/24 
f 15/15/15 13/13/13 25/25/25 
f 15/15/15 25/25/25 23/23/23 
f 13/13/13 11/11/11 26/26/26 
f 13/13/13 26/26/26 25/25/25 
f 27/27/27 26/26/26 11/11/11 
f 1/1/1 20/20/20 27/27/27 
f 27/27/27 11/11/11 1/1/1 
f 1/1/1 4/4/4 20/20/20 
f 28/28/28 29/29/29 30/30/30 
f 31/31/31 29/29/29 28/28/28 
f 32/32/32 29/29/29 31/31/31 
f 33/33/33 29/29/29 32/32/32 
f 34/34/34 29/29/29 33/33/33 
f 35/35/35 29/29/29 34/34/34 
f 36/36/36 29/29/29 35/35/35 
f 30/30/30 29/29/29 36/36/36 
f 37/37/37 38/38/38 39/39/39 
f 39/39/39 38/38/38 40/40/40 
f 40/40/40 38/38/38 41/41/41 
f 41/41/41 38/38/38 42/42/42 
f 42/42/42 38/38/38 43/43/43 
f 43/43/43 38/38/38 44/44/44 
f 44/44/44 38/38/38 45/45/45 
f 45/45/45 38/38/38 37/37/37 

