v 0.2077343761920929 0.06082664430141449 0.5015130639076233
v 0.2077343761920929 0.14647765457630157 0.5015130639076233
v -0.20772460103034973 0.14647765457630157 0.501492977142334
v -0.20772460103034973 0.06082664430141449 0.501492977142334
v -0.20772460103034973 0.06082664430141449 0.501492977142334
v -0.20772460103034973 0.14647765457630157 0.501492977142334
v -0.501513659954071 0.14647765457630157 0.20773372054100037
v -0.501513659954071 0.06082664430141449 0.20773372054100037
v -0.501513659954071 0.06082664430141449 0.20773372054100037
v -0.501513659954071 0.14647765457630157 0.20773372054100037
v -0.5108984112739563 0.14647765457630157 -0.2083694338798523
v -0.5108984112739563 0.06082664430141449 -0.2083694338798523
v -0.5108984112739563 0.06082664430141449 -0.2083694338798523
v -0.5108984112739563 0.14647765457630157 -0.2083694338798523
v -0.2077343761920929 0.14647765457630157 -0.5015134811401367
v -0.2077343761920929 0.06082664430141449 -0.5015131831169128
v -0.2077343761920929 0.06082664430141449 -0.5015131831169128
v -0.2077343761920929 0.14647765457630157 -0.5015134811401367
v 0.2077343761920929 0.14647765457630157 -0.5015133619308472
v 0.2077343761920929 0.06082664430141449 -0.5015133619308472
v 0.2077343761920929 0.06082664430141449 -0.5015133619308472
v 0.2077343761920929 0.14647765457630157 -0.5015133619308472
v 0.501513659954071 0.14647765457630157 -0.20772528648376465
v 0.501513659954071 0.06082664430141449 -0.20772528648376465
v 0.501513659954071 0.06082664430141449 -0.20772528648376465
v 0.501513659954071 0.14647765457630157 -0.20772528648376465
v 0.501513659954071 0.14647765457630157 0.20773360133171082
v 0.501513659954071 0.06082664430141449 0.20773360133171082
v 0.501513659954071 0.06082664430141449 0.20773360133171082
v 0.501513659954071 0.14647765457630157 0.20773360133171082
v 0.2077343761920929 0.14647765457630157 0.5015130639076233
v 0.2077343761920929 0.06082664430141449 0.5015130639076233
v -0.18441161513328552 -5.0613359445691084e-33 0.4452078938484192
v 0.0 -3.743428758468082e-16 0.0
v 0.18441161513328552 0.0 0.4452078938484192
v -0.44520750641822815 0.0 0.18441088497638702
v -0.44520750641822815 0.0 -0.1844109147787094
v -0.18441161513328552 -5.0613359445691084e-33 -0.4452078938484192
v 0.18441161513328552 1.0122666011666463e-32 -0.4452078938484192
v 0.43425291776657104 -4.756701698895879e-18 -0.17987315356731415
v 0.44520750641822815 0.0 0.1844109147787094
v 0.0 0.14647765457630157 -5.186841178783652e-09
v -0.20772460103034973 0.14647765457630157 0.501492977142334
v 0.2077343761920929 0.14647765457630157 0.5015130639076233
v -0.501513659954071 0.14647765457630157 0.20773372054100037
v -0.5108984112739563 0.14647765457630157 -0.2083694338798523
v -0.2077343761920929 0.14647765457630157 -0.5015134811401367
v 0.2077343761920929 0.14647765457630157 -0.5015133619308472
v 0.501513659954071 0.14647765457630157 -0.20772528648376465
v 0.501513659954071 0.14647765457630157 0.20773360133171082
v 0.2077343761920929 0.06082664430141449 0.5015130639076233
v -0.20772460103034973 0.06082664430141449 0.501492977142334
v -0.18441161513328552 -5.0613359445691084e-33 0.4452078938484192
v 0.18441161513328552 0.0 0.4452078938484192
v 0.18441161513328552 0.0 0.4452078938484192
v 0.44520750641822815 0.0 0.1844109147787094
v 0.501513659954071 0.06082664430141449 0.20773360133171082
v 0.2077343761920929 0.06082664430141449 0.5015130639076233
v -0.20772460103034973 0.06082664430141449 0.501492977142334
v -0.501513659954071 0.06082664430141449 0.20773372054100037
v -0.44520750641822815 0.0 0.18441088497638702
v -0.18441161513328552 -5.0613359445691084e-33 0.4452078938484192
v -0.501513659954071 0.06082664430141449 0.20773372054100037
v -0.5108984112739563 0.06082664430141449 -0.2083694338798523
v -0.44520750641822815 0.0 -0.1844109147787094
v -0.44520750641822815 0.0 0.18441088497638702
v -0.5108984112739563 0.06082664430141449 -0.2083694338798523
v -0.2077343761920929 0.06082664430141449 -0.5015131831169128
v -0.18441161513328552 -5.0613359445691084e-33 -0.4452078938484192
v -0.44520750641822815 0.0 -0.1844109147787094
v -0.2077343761920929 0.06082664430141449 -0.5015131831169128
v 0.2077343761920929 0.06082664430141449 -0.5015133619308472
v 0.18441161513328552 1.0122666011666463e-32 -0.4452078938484192
v -0.18441161513328552 -5.0613359445691084e-33 -0.4452078938484192
v 0.2077343761920929 0.06082664430141449 -0.5015133619308472
v 0.501513659954071 0.06082664430141449 -0.20772528648376465
v 0.43425291776657104 -4.756701698895879e-18 -0.17987315356731415
v 0.18441161513328552 1.0122666011666463e-32 -0.4452078938484192
v 0.501513659954071 0.06082664430141449 -0.20772528648376465
v 0.501513659954071 0.06082664430141449 0.20773360133171082
v 0.44520750641822815 0.0 0.1844109147787094
v 0.43425291776657104 -4.756701698895879e-18 -0.17987315356731415
vn -4.828348392038606e-05 0.0 1.0
vn -4.828348392038606e-05 0.0 1.0
vn -4.828348392038606e-05 0.0 1.0
vn -4.828348392038606e-05 0.0 1.0
vn -0.7070716619491577 0.0 0.7071418166160583
vn -0.7070716619491577 0.0 0.7071418166160583
vn -0.7070716619491577 0.0 0.7071418166160583
vn -0.7070716619491577 0.0 0.7071418166160583
vn -0.9997456669807434 0.0 0.022549943998456
vn -0.9997456669807434 0.0 0.022549943998456
vn -0.9997456669807434 0.0 0.022549943998456
vn -0.9997456669807434 0.0 0.022549943998456
vn -0.6951248645782471 -1.351822106698819e-06 -0.7188889980316162
vn -0.6951248645782471 -1.351822106698819e-06 -0.7188889980316162
vn -0.6951248645782471 -1.351822106698819e-06 -0.7188889980316162
vn -0.6951248645782471 -1.351822106698819e-06 -0.7188889980316162
vn 0.0 -1.7815074215832283e-06 -1.0
vn 0.0 -1.7815074215832283e-06 -1.0
vn 0.0 -1.7815074215832283e-06 -1.0
vn 0.0 -1.7815074215832283e-06 -1.0
vn 0.7071167230606079 0.0 -0.7070967555046082
vn 0.7071167230606079 0.0 -0.7070967555046082
vn 0.7071167230606079 0.0 -0.7070967555046082
vn 0.7071167230606079 0.0 -0.7070967555046082
vn 1.0 0.0 0.0
vn 1.0 0.0 0.0
vn 1.0 0.0 0.0
vn 1.0 0.0 0.0
vn 0.707106351852417 0.0 0.7071071267127991
vn 0.707106351852417 0.0 0.7071071267127991
vn 0.707106351852417 0.0 0.7071071267127991
vn 0.707106351852417 0.0 0.7071071267127991
vn 0.0 -1.0 0.0
vn 0.0 -1.0 0.0
vn 0.0 -1.0 0.0
vn 0.0 -1.0 0.0
vn 0.0 -1.0 0.0
vn 0.0 -1.0 0.0
vn 0.0 -1.0 0.0
vn 0.0 -1.0 0.0
vn 0.0 -1.0 0.0
vn 0.0 1.0 0.0
vn 0.0 1.0 0.0
vn 0.0 1.0 0.0
vn 0.0 1.0 0.0
vn 0.0 1.0 0.0
vn 0.0 1.0 0.0
vn 0.0 1.0 0.0
vn 0.0 1.0 0.0
vn 0.0 1.0 0.0
vn -1.8779803212964907e-05 -0.6792401671409607 0.733916163444519
vn -1.8779803212964907e-05 -0.6792401671409607 0.733916163444519
vn -1.8779803212964907e-05 -0.6792401671409607 0.733916163444519
vn -1.8779803212964907e-05 -0.6792401671409607 0.733916163444519
vn 0.518913984298706 -0.679306149482727 0.5189136862754822
vn 0.518913984298706 -0.679306149482727 0.5189136862754822
vn 0.518913984298706 -0.679306149482727 0.5189136862754822
vn 0.518913984298706 -0.679306149482727 0.5189136862754822
vn -0.518942654132843 -0.6792414784431458 0.5189695954322815
vn -0.518942654132843 -0.6792414784431458 0.5189695954322815
vn -0.518942654132843 -0.6792414784431458 0.5189695954322815
vn -0.518942654132843 -0.6792414784431458 0.5189695954322815
vn -0.7061068415641785 -0.7080549597740173 0.00844305008649826
vn -0.7061068415641785 -0.7080549597740173 0.00844305008649826
vn -0.7061068415641785 -0.7080549597740173 0.00844305008649826
vn -0.7061068415641785 -0.7080549597740173 0.00844305008649826
vn -0.49962177872657776 -0.7011722326278687 -0.5086605548858643
vn -0.49962177872657776 -0.7011722326278687 -0.5086605548858643
vn -0.49962177872657776 -0.7011722326278687 -0.5086605548858643
vn -0.49962177872657776 -0.7011722326278687 -0.5086605548858643
vn 0.0 -0.6793068051338196 -0.7338542938232422
vn 0.0 -0.6793068051338196 -0.7338542938232422
vn 0.0 -0.6793068051338196 -0.7338542938232422
vn 0.0 -0.6793068051338196 -0.7338542938232422
vn 0.5029146075248718 -0.7127300500869751 -0.48897120356559753
vn 0.5029146075248718 -0.7127300500869751 -0.48897120356559753
vn 0.5029146075248718 -0.7127300500869751 -0.48897120356559753
vn 0.5029146075248718 -0.7127300500869751 -0.48897120356559753
vn 0.701352059841156 -0.7127468585968018 -0.009853758849203587
vn 0.701352059841156 -0.7127468585968018 -0.009853758849203587
vn 0.701352059841156 -0.7127468585968018 -0.009853758849203587
vn 0.701352059841156 -0.7127468585968018 -0.009853758849203587
vt 0.6281754970550537 0.9641021862626076
vt 0.6284949779510498 0.989895798265934
vt 0.5020210146903992 0.989895798265934
vt 0.5015731453895569 0.9641021862626076
vt 0.5015731453895569 0.9641021862626076
vt 0.5020210146903992 0.989895798265934
vt 0.3753032386302948 0.989895798265934
vt 0.374908983707428 0.9641021862626076
vt 0.374908983707428 0.9641021862626076
vt 0.3753032386302948 0.989895798265934
vt 0.24963626265525818 0.989895798265934
vt 0.2494664192199707 0.9641021862626076
vt 0.2494664192199707 0.9641021862626076
vt 0.24963626265525818 0.989895798265934
vt 0.12533153593540192 0.989895798265934
vt 0.12556365132331848 0.9641021862626076
vt 0.12556365132331848 0.9641021862626076
vt 0.12533153593540192 0.989895798265934
vt 0.007514342665672302 0.989895798265934
vt 0.007514134049415588 0.9641021862626076
vt 0.9916262626647949 0.9641043841838837
vt 0.9916251301765442 0.9898979151621461
vt 0.8748891353607178 0.989895798265934
vt 0.8753833174705505 0.9641021862626076
vt 0.8753833174705505 0.9641021862626076
vt 0.8748891353607178 0.989895798265934
vt 0.7532923817634583 0.989895798265934
vt 0.7532863020896912 0.9641021862626076
vt 0.7532863020896912 0.9641021862626076
vt 0.7532923817634583 0.989895798265934
vt 0.6284949779510498 0.989895798265934
vt 0.6281754970550537 0.9641021862626076
vt 0.3607645630836487 0.9209209084510803
vt 0.3869420289993286 0.8577227145433426
vt 0.4131195545196533 0.9209209084510803
vt 0.32374387979507446 0.8839002326130867
vt 0.32374387979507446 0.8315452486276627
vt 0.3607645630836487 0.794524535536766
vt 0.4131195545196533 0.794524535536766
vt 0.4485850930213928 0.8321893364191055
vt 0.4501400589942932 0.8839002326130867
vt 0.12542559206485748 0.7993822395801544
vt 0.2378578633069992 0.7528112828731537
vt 0.23786239326000214 0.8459549993276596
vt 0.17199847102165222 0.6848412156105042
vt 0.0787101611495018 0.6848412156105042
vt 0.012988707982003689 0.752809464931488
vt 0.012988756410777569 0.8459550589323044
vt 0.07885462790727615 0.9118190407752991
vt 0.1719985157251358 0.9118190109729767
vt 0.6281754970550537 0.9641021862626076
vt 0.5015731453895569 0.9641021862626076
vt 0.5086767077445984 0.9390683248639107
vt 0.6210677623748779 0.9390682131052017
vt 0.6351986527442932 0.9390767887234688
vt 0.7462631464004517 0.9390767812728882
vt 0.7532863020896912 0.9641021862626076
vt 0.6281754970550537 0.9641021862626076
vt 0.5015731453895569 0.9641021862626076
vt 0.374908983707428 0.9641021862626076
vt 0.3820202946662903 0.9390678629279137
vt 0.49446600675582886 0.939067967236042
vt 0.374908983707428 0.9641021862626076
vt 0.2494664192199707 0.9641021862626076
vt 0.25713199377059937 0.9390221238136292
vt 0.36827829480171204 0.9390730336308479
vt 0.2494664192199707 0.9641021862626076
vt 0.12556365132331848 0.9641021862626076
vt 0.13212928175926208 0.9390919879078865
vt 0.24048462510108948 0.9390553385019302
vt 0.12556365132331848 0.9641021862626076
vt 0.007514134049415588 0.9641021862626076
vt 0.014140814542770386 0.9391173124313354
vt 0.11893699318170547 0.9391173124313354
vt 0.9916262626647949 0.9641043841838837
vt 0.8753833174705505 0.9641021862626076
vt 0.8831800222396851 0.9390649572014809
vt 0.9851239919662476 0.9391275644302368
vt 0.8753833174705505 0.9641021862626076
vt 0.7532863020896912 0.9641021862626076
vt 0.760116457939148 0.9390938729047775
vt 0.8671979904174805 0.9390281364321709

g RC_Plasma_cannon_T3_Base
s 1
usemtl RC_Plasma_cannon_T3_Base
f 1/1/1 2/2/2 3/3/3 
f 1/1/1 3/3/3 4/4/4 
f 5/5/5 6/6/6 7/7/7 
f 5/5/5 7/7/7 8/8/8 
f 9/9/9 10/10/10 11/11/11 
f 9/9/9 11/11/11 12/12/12 
f 13/13/13 14/14/14 15/15/15 
f 13/13/13 15/15/15 16/16/16 
f 17/17/17 18/18/18 19/19/19 
f 17/17/17 19/19/19 20/20/20 
f 21/21/21 22/22/22 23/23/23 
f 21/21/21 23/23/23 24/24/24 
f 25/25/25 26/26/26 27/27/27 
f 25/25/25 27/27/27 28/28/28 
f 29/29/29 30/30/30 31/31/31 
f 29/29/29 31/31/31 32/32/32 
f 33/33/33 34/34/34 35/35/35 
f 36/36/36 34/34/34 33/33/33 
f 37/37/37 34/34/34 36/36/36 
f 38/38/38 34/34/34 37/37/37 
f 39/39/39 34/34/34 38/38/38 
f 40/40/40 34/34/34 39/39/39 
f 41/41/41 34/34/34 40/40/40 
f 35/35/35 34/34/34 41/41/41 
f 42/42/42 43/43/43 44/44/44 
f 42/42/42 45/45/45 43/43/43 
f 42/42/42 46/46/46 45/45/45 
f 42/42/42 47/47/47 46/46/46 
f 42/42/42 48/48/48 47/47/47 
f 42/42/42 49/49/49 48/48/48 
f 42/42/42 50/50/50 49/49/49 
f 42/42/42 44/44/44 50/50/50 
f 51/51/51 52/52/52 53/53/53 
f 51/51/51 53/53/53 54/54/54 
f 55/55/55 56/56/56 57/57/57 
f 55/55/55 57/57/57 58/58/58 
f 59/59/59 60/60/60 61/61/61 
f 59/59/59 61/61/61 62/62/62 
f 63/63/63 64/64/64 65/65/65 
f 63/63/63 65/65/65 66/66/66 
f 67/67/67 68/68/68 69/69/69 
f 67/67/67 69/69/69 70/70/70 
f 71/71/71 72/72/72 73/73/73 
f 71/71/71 73/73/73 74/74/74 
f 75/75/75 76/76/76 77/77/77 
f 75/75/75 77/77/77 78/78/78 
f 79/79/79 80/80/80 81/81/81 
f 79/79/79 81/81/81 82/82/82 

