v 0.46000364422798157 0.0 -0.4600040018558502
v 0.46000364422798157 0.0 0.4600040018558502
v -0.46000364422798157 0.0 0.4600040018558502
v -0.46000364422798157 0.0 -0.4600040018558502
v -0.46000364422798157 0.039996031671762466 0.5
v 0.46000364422798157 0.039996031671762466 0.5
v 0.46000364422798157 0.9600039720535278 0.5
v -0.46000364422798157 0.9600039720535278 0.5
v 0.5 0.9600039720535278 0.4600040018558502
v 0.5 0.039996031671762466 0.4600040018558502
v 0.5 0.039996031671762466 -0.4600040018558502
v 0.5 0.9600039720535278 -0.4600040018558502
v -0.5 0.039996031671762466 -0.4600040018558502
v -0.5 0.039996031671762466 0.4600040018558502
v -0.5 0.9600039720535278 0.4600040018558502
v -0.5 0.9600039720535278 -0.4600040018558502
v -0.46000364422798157 1.0 0.4600040018558502
v 0.46000364422798157 1.0 0.4600040018558502
v 0.46000364422798157 1.0 -0.4600040018558502
v -0.46000364422798157 1.0 -0.4600040018558502
v -0.46000364422798157 0.9600039720535278 -0.5
v 0.46000364422798157 0.9600039720535278 -0.5
v 0.46000364422798157 0.039996031671762466 -0.5
v -0.46000364422798157 0.039996031671762466 -0.5
v 0.46000364422798157 0.0 0.4600040018558502
v 0.46000364422798157 0.0 -0.4600040018558502
v 0.5 0.039996031671762466 -0.4600040018558502
v 0.5 0.039996031671762466 0.4600040018558502
v 0.46000364422798157 0.039996031671762466 0.5
v -0.46000364422798157 0.039996031671762466 0.5
v -0.46000364422798157 0.0 0.4600040018558502
v 0.46000364422798157 0.0 0.4600040018558502
v 0.5 0.039996031671762466 0.4600040018558502
v 0.5 0.9600039720535278 0.4600040018558502
v 0.46000364422798157 0.9600039720535278 0.5
v 0.46000364422798157 0.039996031671762466 0.5
v -0.5 0.039996031671762466 0.4600040018558502
v -0.5 0.039996031671762466 -0.4600040018558502
v -0.46000364422798157 0.0 -0.4600040018558502
v -0.46000364422798157 0.0 0.4600040018558502
v -0.46000364422798157 0.039996031671762466 0.5
v -0.46000364422798157 0.9600039720535278 0.5
v -0.5 0.9600039720535278 0.4600040018558502
v -0.5 0.039996031671762466 0.4600040018558502
v 0.5 0.9600039720535278 0.4600040018558502
v 0.5 0.9600039720535278 -0.4600040018558502
v 0.46000364422798157 1.0 -0.4600040018558502
v 0.46000364422798157 1.0 0.4600040018558502
v 0.46000364422798157 1.0 0.4600040018558502
v -0.46000364422798157 1.0 0.4600040018558502
v -0.46000364422798157 0.9600039720535278 0.5
v 0.46000364422798157 0.9600039720535278 0.5
v -0.46000364422798157 1.0 0.4600040018558502
v -0.46000364422798157 1.0 -0.4600040018558502
v -0.5 0.9600039720535278 -0.4600040018558502
v -0.5 0.9600039720535278 0.4600040018558502
v 0.5 0.9600039720535278 -0.4600040018558502
v 0.5 0.039996031671762466 -0.4600040018558502
v 0.46000364422798157 0.039996031671762466 -0.5
v 0.46000364422798157 0.9600039720535278 -0.5
v 0.46000364422798157 0.9600039720535278 -0.5
v -0.46000364422798157 0.9600039720535278 -0.5
v -0.46000364422798157 1.0 -0.4600040018558502
v 0.46000364422798157 1.0 -0.4600040018558502
v -0.46000364422798157 0.9600039720535278 -0.5
v -0.46000364422798157 0.039996031671762466 -0.5
v -0.5 0.039996031671762466 -0.4600040018558502
v -0.5 0.9600039720535278 -0.4600040018558502
v 0.46000364422798157 0.0 -0.4600040018558502
v -0.46000364422798157 0.0 -0.4600040018558502
v -0.46000364422798157 0.039996031671762466 -0.5
v 0.46000364422798157 0.039996031671762466 -0.5
v 0.5 0.039996031671762466 0.4600040018558502
v 0.46000364422798157 0.039996031671762466 0.5
v 0.46000364422798157 0.0 0.4600040018558502
v -0.46000364422798157 0.0 0.4600040018558502
v -0.46000364422798157 0.039996031671762466 0.5
v -0.5 0.039996031671762466 0.4600040018558502
v 0.46000364422798157 1.0 0.4600040018558502
v 0.46000364422798157 0.9600039720535278 0.5
v 0.5 0.9600039720535278 0.4600040018558502
v -0.5 0.9600039720535278 0.4600040018558502
v -0.46000364422798157 0.9600039720535278 0.5
v -0.46000364422798157 1.0 0.4600040018558502
v 0.46000364422798157 0.9600039720535278 -0.5
v 0.46000364422798157 1.0 -0.4600040018558502
v 0.5 0.9600039720535278 -0.4600040018558502
v -0.5 0.9600039720535278 -0.4600040018558502
v -0.46000364422798157 1.0 -0.4600040018558502
v -0.46000364422798157 0.9600039720535278 -0.5
v 0.46000364422798157 0.0 -0.4600040018558502
v 0.46000364422798157 0.039996031671762466 -0.5
v 0.5 0.039996031671762466 -0.4600040018558502
v -0.5 0.039996031671762466 -0.4600040018558502
v -0.46000364422798157 0.039996031671762466 -0.5
v -0.46000364422798157 0.0 -0.4600040018558502
vn 0.0 -1.0 0.0
vn 0.0 -1.0 0.0
vn 0.0 -1.0 0.0
vn 0.0 -1.0 0.0
vn 0.0 0.0 1.0
vn 0.0 0.0 1.0
vn 0.0 0.0 1.0
vn 0.0 0.0 1.0
vn 1.0 0.0 0.0
vn 1.0 0.0 0.0
vn 1.0 0.0 0.0
vn 1.0 0.0 0.0
vn -1.0 0.0 0.0
vn -1.0 0.0 0.0
vn -1.0 0.0 0.0
vn -1.0 0.0 0.0
vn 0.0 1.0 0.0
vn 0.0 1.0 0.0
vn 0.0 1.0 0.0
vn 0.0 1.0 0.0
vn 0.0 0.0 -1.0
vn 0.0 0.0 -1.0
vn 0.0 0.0 -1.0
vn 0.0 0.0 -1.0
vn 0.7071038484573364 -0.7071096897125244 0.0
vn 0.7071038484573364 -0.7071096897125244 0.0
vn 0.7071038484573364 -0.7071096897125244 0.0
vn 0.7071038484573364 -0.7071096897125244 0.0
vn 0.0 -0.7071065306663513 0.7071070075035095
vn 0.0 -0.7071065306663513 0.7071070075035095
vn 0.0 -0.7071065306663513 0.7071070075035095
vn 0.0 -0.7071065306663513 0.7071070075035095
vn 0.7071036696434021 0.0 0.707109808921814
vn 0.7071036696434021 0.0 0.707109808921814
vn 0.7071036696434021 0.0 0.707109808921814
vn 0.7071036696434021 0.0 0.707109808921814
vn -0.7071038484573364 -0.7071096897125244 0.0
vn -0.7071038484573364 -0.7071096897125244 0.0
vn -0.7071038484573364 -0.7071096897125244 0.0
vn -0.7071038484573364 -0.7071096897125244 0.0
vn -0.7071036696434021 0.0 0.707109808921814
vn -0.7071036696434021 0.0 0.707109808921814
vn -0.7071036696434021 0.0 0.707109808921814
vn -0.7071036696434021 0.0 0.707109808921814
vn 0.7071036100387573 0.7071099877357483 0.0
vn 0.7071036100387573 0.7071099877357483 0.0
vn 0.7071036100387573 0.7071099877357483 0.0
vn 0.7071036100387573 0.7071099877357483 0.0
vn 0.0 0.7071065306663513 0.7071070075035095
vn 0.0 0.7071065306663513 0.7071070075035095
vn 0.0 0.7071065306663513 0.7071070075035095
vn 0.0 0.7071065306663513 0.7071070075035095
vn -0.7071036100387573 0.7071099877357483 0.0
vn -0.7071036100387573 0.7071099877357483 0.0
vn -0.7071036100387573 0.7071099877357483 0.0
vn -0.7071036100387573 0.7071099877357483 0.0
vn 0.7071036696434021 0.0 -0.707109808921814
vn 0.7071036696434021 0.0 -0.707109808921814
vn 0.7071036696434021 0.0 -0.707109808921814
vn 0.7071036696434021 0.0 -0.707109808921814
vn 0.0 0.7071065306663513 -0.7071070075035095
vn 0.0 0.7071065306663513 -0.7071070075035095
vn 0.0 0.7071065306663513 -0.7071070075035095
vn 0.0 0.7071065306663513 -0.7071070075035095
vn -0.7071036696434021 0.0 -0.707109808921814
vn -0.7071036696434021 0.0 -0.707109808921814
vn -0.7071036696434021 0.0 -0.707109808921814
vn -0.7071036696434021 0.0 -0.707109808921814
vn 0.0 -0.7071065306663513 -0.7071070075035095
vn 0.0 -0.7071065306663513 -0.7071070075035095
vn 0.0 -0.7071065306663513 -0.7071070075035095
vn 0.0 -0.7071065306663513 -0.7071070075035095
vn 0.5773465633392334 -0.5773521661758423 0.5773521661758423
vn 0.5773466229438782 -0.5773521065711975 0.5773521065711975
vn 0.5773466229438782 -0.5773521065711975 0.5773521065711975
vn -0.5773466229438782 -0.5773521065711975 0.5773521065711975
vn -0.5773466229438782 -0.5773521065711975 0.5773521065711975
vn -0.5773465633392334 -0.5773521661758423 0.5773521661758423
vn 0.5773469805717468 0.5773524045944214 0.5773513317108154
vn 0.5773469805717468 0.5773524045944214 0.5773513317108154
vn 0.577346920967102 0.5773524641990662 0.5773513913154602
vn -0.577346920967102 0.5773524641990662 0.5773513913154602
vn -0.5773469805717468 0.5773524045944214 0.5773513317108154
vn -0.5773469805717468 0.5773524045944214 0.5773513317108154
vn 0.5773469805717468 0.5773524045944214 -0.5773513317108154
vn 0.5773469805717468 0.5773524045944214 -0.5773513317108154
vn 0.577346920967102 0.5773524641990662 -0.5773513913154602
vn -0.577346920967102 0.5773524641990662 -0.5773513913154602
vn -0.5773469805717468 0.5773524045944214 -0.5773513317108154
vn -0.5773469805717468 0.5773524045944214 -0.5773513317108154
vn 0.5773466229438782 -0.5773521065711975 -0.5773521065711975
vn 0.5773466229438782 -0.5773521065711975 -0.5773521065711975
vn 0.5773465633392334 -0.5773521661758423 -0.5773521661758423
vn -0.5773465633392334 -0.5773521661758423 -0.5773521661758423
vn -0.5773466229438782 -0.5773521065711975 -0.5773521065711975
vn -0.5773466229438782 -0.5773521065711975 -0.5773521065711975
vt 0.6910431385040283 0.13674062490463257
vt 0.6910431385040283 0.11052548885345459
vt 0.7172583341598511 0.11052548885345459
vt 0.7172583341598511 0.13674062490463257
vt 0.7189339399337769 0.1367405652999878
vt 0.7189339399337769 0.11052542924880981
vt 0.7451489567756653 0.11052542924880981
vt 0.7451489567756653 0.1367405652999878
vt 0.7680584192276001 0.10906803607940674
vt 0.7418434023857117 0.10906803607940674
vt 0.7418434023857117 0.08285284042358398
vt 0.7680584192276001 0.08285284042358398
vt 0.7402152419090271 0.10906803607940674
vt 0.7140000462532043 0.10906803607940674
vt 0.7140000462532043 0.08285284042358398
vt 0.7402152419090271 0.08285284042358398
vt 0.716118574142456 0.08139538764953613
vt 0.6899034380912781 0.08139538764953613
vt 0.6899034380912781 0.05518019199371338
vt 0.716118574142456 0.05518019199371338
vt 0.742976725101471 0.08139538764953613
vt 0.716761589050293 0.08139538764953613
vt 0.716761589050293 0.05518019199371338
vt 0.742976725101471 0.05518019199371338
vt 0.04191046953201294 0.11022043228149414
vt 0.04191046953201294 0.14165806770324707
vt 0.04054373502731323 0.14165806770324707
vt 0.04054373502731323 0.11022043228149414
vt 0.04191046953201294 0.10885369777679443
vt 0.07334810495376587 0.10885369777679443
vt 0.07334810495376587 0.11022043228149414
vt 0.04191046953201294 0.11022043228149414
vt 0.07535761594772339 0.10885369777679443
vt 0.10679519176483154 0.10885369777679443
vt 0.10679519176483154 0.11022043228149414
vt 0.07535761594772339 0.11022043228149414
vt 0.0747147798538208 0.11022043228149414
vt 0.0747147798538208 0.14165806770324707
vt 0.07334810495376587 0.14165806770324707
vt 0.07334810495376587 0.11022043228149414
vt 0.07535761594772339 0.14165806770324707
vt 0.10679519176483154 0.14165806770324707
vt 0.10679519176483154 0.14302480220794678
vt 0.07535761594772339 0.14302480220794678
vt 0.13426876068115234 0.10847270488739014
vt 0.13426876068115234 0.07703489065170288
vt 0.13563543558120728 0.07703489065170288
vt 0.13563543558120728 0.10847270488739014
vt 0.10816198587417603 0.11022043228149414
vt 0.10816198587417603 0.14165806770324707
vt 0.10679519176483154 0.14165806770324707
vt 0.10679519176483154 0.11022043228149414
vt 0.06944090127944946 0.07566827535629272
vt 0.10087859630584717 0.07566827535629272
vt 0.10087859630584717 0.07703489065170288
vt 0.06944090127944946 0.07703489065170288
vt 0.13426876068115234 0.07703489065170288
vt 0.10283100605010986 0.07703489065170288
vt 0.10283100605010986 0.07566827535629272
vt 0.13426876068115234 0.07566827535629272
vt 0.04054373502731323 0.042482733726501465
vt 0.07198148965835571 0.042482733726501465
vt 0.07198148965835571 0.04384946823120117
vt 0.04054373502731323 0.04384946823120117
vt 0.10224539041519165 0.07703489065170288
vt 0.10224539041519165 0.10847258567810059
vt 0.10087859630584717 0.10847258567810059
vt 0.10087859630584717 0.07703489065170288
vt 0.04191046953201294 0.14165806770324707
vt 0.07334810495376587 0.14165806770324707
vt 0.07334810495376587 0.14302480220794678
vt 0.04191046953201294 0.14302480220794678
vt 0.04054373502731323 0.11022043228149414
vt 0.04191046953201294 0.10885369777679443
vt 0.04191046953201294 0.11022043228149414
vt 0.07334810495376587 0.11022043228149414
vt 0.07334810495376587 0.10885369777679443
vt 0.0747147798538208 0.11022043228149414
vt 0.10816198587417603 0.11022043228149414
vt 0.10679519176483154 0.11022043228149414
vt 0.10679519176483154 0.10885369777679443
vt 0.10679519176483154 0.14302480220794678
vt 0.10679519176483154 0.14165806770324707
vt 0.10816198587417603 0.14165806770324707
vt 0.13426876068115234 0.07566827535629272
vt 0.13563543558120728 0.07703489065170288
vt 0.13426876068115234 0.07703489065170288
vt 0.10087859630584717 0.07703489065170288
vt 0.10087859630584717 0.07566827535629272
vt 0.10224539041519165 0.07703489065170288
vt 0.04191046953201294 0.14165806770324707
vt 0.04191046953201294 0.14302480220794678
vt 0.04054373502731323 0.14165806770324707
vt 0.0747147798538208 0.14165806770324707
vt 0.07334810495376587 0.14302480220794678
vt 0.07334810495376587 0.14165806770324707

g Seeker_Base
s 1
usemtl Seeker_Base
f 1/1/1 2/2/2 3/3/3 
f 1/1/1 3/3/3 4/4/4 
f 5/5/5 6/6/6 7/7/7 
f 5/5/5 7/7/7 8/8/8 
f 9/9/9 10/10/10 11/11/11 
f 9/9/9 11/11/11 12/12/12 
f 13/13/13 14/14/14 15/15/15 
f 13/13/13 15/15/15 16/16/16 
f 17/17/17 18/18/18 19/19/19 
f 17/17/17 19/19/19 20/20/20 
f 21/21/21 22/22/22 23/23/23 
f 21/21/21 23/23/23 24/24/24 
f 25/25/25 26/26/26 27/27/27 
f 25/25/25 27/27/27 28/28/28 
f 29/29/29 30/30/30 31/31/31 
f 29/29/29 31/31/31 32/32/32 
f 33/33/33 34/34/34 35/35/35 
f 33/33/33 35/35/35 36/36/36 
f 37/37/37 38/38/38 39/39/39 
f 37/37/37 39/39/39 40/40/40 
f 41/41/41 42/42/42 43/43/43 
f 41/41/41 43/43/43 44/44/44 
f 45/45/45 46/46/46 47/47/47 
f 45/45/45 47/47/47 48/48/48 
f 49/49/49 50/50/50 51/51/51 
f 49/49/49 51/51/51 52/52/52 
f 53/53/53 54/54/54 55/55/55 
f 53/53/53 55/55/55 56/56/56 
f 57/57/57 58/58/58 59/59/59 
f 57/57/57 59/59/59 60/60/60 
f 61/61/61 62/62/62 63/63/63 
f 61/61/61 63/63/63 64/64/64 
f 65/65/65 66/66/66 67/67/67 
f 65/65/65 67/67/67 68/68/68 
f 69/69/69 70/70/70 71/71/71 
f 69/69/69 71/71/71 72/72/72 
f 73/73/73 74/74/74 75/75/75 
f 76/76/76 77/77/77 78/78/78 
f 79/79/79 80/80/80 81/81/81 
f 82/82/82 83/83/83 84/84/84 
f 85/85/85 86/86/86 87/87/87 
f 88/88/88 89/89/89 90/90/90 
f 91/91/91 92/92/92 93/93/93 
f 94/94/94 95/95/95 96/96/96 

