v 0.49994993209838867 0.057183992117643356 -0.4995511472225189
v 0.3833557069301605 0.13022975623607635 -0.38358503580093384
v 0.3833557069301605 0.13022975623607635 0.3823245167732239
v 0.5000500082969666 0.05711333453655243 0.4995494782924652
v -0.5000518560409546 0.0564882755279541 0.5004504919052124
v -0.37168821692466736 0.13022975623607635 0.3823245167732239
v -0.37168821692466736 0.13022975623607635 -0.38358503580093384
v -0.499948114156723 0.05655337870121002 -0.5004488229751587
v -0.37168821692466736 0.13022975623607635 -0.38358503580093384
v 0.3833557069301605 0.13022975623607635 -0.38358503580093384
v 0.49994993209838867 0.057183992117643356 -0.4995511472225189
v -0.499948114156723 0.05655337870121002 -0.5004488229751587
v 0.3833557069301605 0.13022975623607635 0.3823245167732239
v -0.37168821692466736 0.13022975623607635 0.3823245167732239
v -0.5000518560409546 0.0564882755279541 0.5004504919052124
v 0.5000500082969666 0.05711333453655243 0.4995494782924652
v -0.37168821692466736 0.13022975623607635 0.3823245167732239
v 0.3833557069301605 0.13022975623607635 0.3823245167732239
v 0.3833557069301605 0.13022975623607635 -0.38358503580093384
v -0.37168821692466736 0.13022975623607635 -0.38358503580093384
v 0.5 0.0 -0.5
v 0.5 0.0 0.5
v -0.5 0.0 0.5
v -0.5 0.0 -0.5
v 0.5000500082969666 0.05711333453655243 0.4995494782924652
v -0.5000518560409546 0.0564882755279541 0.5004504919052124
v -0.5 0.0 0.5
v 0.5 0.0 0.5
v 0.5 0.0 0.5
v 0.5 0.0 -0.5
v 0.49994993209838867 0.057183992117643356 -0.4995511472225189
v 0.5000500082969666 0.05711333453655243 0.4995494782924652
v 0.5 0.0 -0.5
v -0.5 0.0 -0.5
v -0.499948114156723 0.05655337870121002 -0.5004488229751587
v 0.49994993209838867 0.057183992117643356 -0.4995511472225189
v -0.5 0.0 -0.5
v -0.5 0.0 0.5
v -0.5000518560409546 0.0564882755279541 0.5004504919052124
v -0.499948114156723 0.05655337870121002 -0.5004488229751587
vn 0.5309306383132935 0.8474152684211731 3.8123653212096542e-06
vn 0.5309306383132935 0.8474152684211731 3.8123650938359788e-06
vn 0.5309306979179382 0.8474152684211731 3.8123650938359788e-06
vn 0.5309306979179382 0.8474152684211731 3.8123650938359788e-06
vn -0.49811384081840515 0.8671116232872009 2.7080525342171313e-06
vn -0.4981139004230499 0.8671116232872009 2.7080527615908068e-06
vn -0.4981139004230499 0.8671116232872009 2.7080525342171313e-06
vn -0.4981139004230499 0.8671116232872009 2.7080527615908068e-06
vn -3.129139804514125e-05 0.8460277318954468 -0.5331388115882874
vn -3.129139440716244e-05 0.8460277318954468 -0.5331388115882874
vn -3.129139804514125e-05 0.8460277318954468 -0.5331388115882874
vn -3.129139804514125e-05 0.8460277318954468 -0.5331388711929321
vn -3.036179259652272e-05 0.848381757736206 0.5293848514556885
vn -3.036179259652272e-05 0.848381757736206 0.5293848514556885
vn -3.036179259652272e-05 0.8483818769454956 0.5293848514556885
vn -3.0361794415512122e-05 0.848381757736206 0.5293848514556885
vn 0.0 1.0 0.0
vn 0.0 1.0 0.0
vn 0.0 1.0 0.0
vn 0.0 1.0 0.0
vn 0.0 -1.0 0.0
vn 0.0 -1.0 0.0
vn 0.0 -1.0 0.0
vn 0.0 -1.0 0.0
vn 0.000450489460490644 0.0 0.9999998807907104
vn 0.0004504894313868135 0.0 0.9999998807907104
vn 0.000450489460490644 0.0 0.9999998807907104
vn 0.0004504893731791526 0.0 0.9999998807907104
vn 1.0 -8.547896186428261e-07 -5.0071343139279634e-05
vn 1.0 -8.547896186428261e-07 -5.0071343139279634e-05
vn 1.0 -8.54789675486245e-07 -5.0071343139279634e-05
vn 1.0 -8.547896186428261e-07 -5.007133950130083e-05
vn 0.00044880848145112395 0.0 -0.9999998807907104
vn 0.0004488085105549544 0.0 -0.9999998807907104
vn 0.0004488085105549544 0.0 -0.9999998807907104
vn 0.0004488085687626153 0.0 -0.9999998807907104
vn -1.0 8.635079780106025e-07 -5.185656118555926e-05
vn -1.0 8.635078643237648e-07 -5.185656118555926e-05
vn -1.0 8.635079780106025e-07 -5.185656118555926e-05
vn -1.0 8.635079780106025e-07 -5.185656118555926e-05
vt 0.7374138832092285 0.10541266202926636
vt 0.7377488017082214 0.10574585199356079
vt 0.7377488017082214 0.1079452633857727
vt 0.7374136447906494 0.10828202962875366
vt 0.7407915592193604 0.1086840033531189
vt 0.7404270768165588 0.10834866762161255
vt 0.7404270768165588 0.10617417097091675
vt 0.7407912015914917 0.10584229230880737
vt 0.7254753708839417 0.07022732496261597
vt 0.7233050465583801 0.07022732496261597
vt 0.7229697704315186 0.06989389657974243
vt 0.7258440256118774 0.06989127397537231
vt 0.7313060164451599 0.07030528783798218
vt 0.7334733605384827 0.07030528783798218
vt 0.7338416576385498 0.07064443826675415
vt 0.7309712171554565 0.07064181566238403
vt 0.7360847592353821 0.1020621657371521
vt 0.7340883612632751 0.1020621657371521
vt 0.7340883612632751 0.10003739595413208
vt 0.7360847592353821 0.10003739595413208
vt 0.7183977365493774 0.10702627897262573
vt 0.7183977365493774 0.1043822169303894
vt 0.7210415601730347 0.1043822169303894
vt 0.7210415601730347 0.10702627897262573
vt 0.7280048131942749 0.10739582777023315
vt 0.7280031442642212 0.11003988981246948
vt 0.7278538942337036 0.11003977060317993
vt 0.7278538942337036 0.1073957085609436
vt 0.705096960067749 0.1072339415550232
vt 0.705096960067749 0.10459023714065552
vt 0.7052481174468994 0.10459131002426147
vt 0.7052479386329651 0.10723274946212769
vt 0.7398509383201599 0.10542148351669312
vt 0.7398509383201599 0.10806530714035034
vt 0.7397014498710632 0.10806518793106079
vt 0.7396998405456543 0.10542172193527222
vt 0.750402569770813 0.10817009210586548
vt 0.750402569770813 0.1055259108543396
vt 0.7505519390106201 0.1055249571800232
vt 0.7505521178245544 0.10817104578018188

g SMG_Base_T5
s 1
usemtl SMG_Base_T5
f 1/1/1 2/2/2 3/3/3 
f 1/1/1 3/3/3 4/4/4 
f 5/5/5 6/6/6 7/7/7 
f 5/5/5 7/7/7 8/8/8 
f 9/9/9 10/10/10 11/11/11 
f 9/9/9 11/11/11 12/12/12 
f 13/13/13 14/14/14 15/15/15 
f 13/13/13 15/15/15 16/16/16 
f 17/17/17 18/18/18 19/19/19 
f 17/17/17 19/19/19 20/20/20 
f 21/21/21 22/22/22 23/23/23 
f 21/21/21 23/23/23 24/24/24 
f 25/25/25 26/26/26 27/27/27 
f 25/25/25 27/27/27 28/28/28 
f 29/29/29 30/30/30 31/31/31 
f 29/29/29 31/31/31 32/32/32 
f 33/33/33 34/34/34 35/35/35 
f 33/33/33 35/35/35 36/36/36 
f 37/37/37 38/38/38 39/39/39 
f 37/37/37 39/39/39 40/40/40 

