v -0.09909851104021072 0.05409212037920952 0.08806518465280533
v -0.09909851104021072 0.05409179627895355 0.6514748930931091
v -0.05721374228596687 0.09369029849767685 0.6514748930931091
v -0.05721374228596687 0.09368999302387238 0.08806518465280533
v -0.05721374228596687 0.09368999302387238 0.08806518465280533
v -0.05721374228596687 0.09369029849767685 0.6514748930931091
v -6.103515488575795e-07 0.10818330198526382 0.6514754891395569
v -6.103515488575795e-07 0.10818400979042053 0.0880654901266098
v -6.103515488575795e-07 0.10818400979042053 0.0880654901266098
v -6.103515488575795e-07 0.10818330198526382 0.6514754891395569
v 0.05721435323357582 0.09369029849767685 0.6514748930931091
v 0.05721435323357582 0.09368999302387238 0.08806518465280533
v 0.05721435323357582 0.09368999302387238 0.08806518465280533
v 0.05721435323357582 0.09369029849767685 0.6514748930931091
v 0.09909728914499283 0.05409179627895355 0.6514748930931091
v 0.09909728914499283 0.05409212037920952 0.08806518465280533
v 0.09909728914499283 0.05409212037920952 0.08806518465280533
v 0.09909728914499283 0.05409179627895355 0.6514748930931091
v 0.11442870646715164 5.7220457705398076e-08 0.651475191116333
v 0.11442870646715164 5.7220457705398076e-08 0.08806518465280533
v 0.11442870646715164 5.7220457705398076e-08 0.08806518465280533
v 0.11442870646715164 5.7220457705398076e-08 0.651475191116333
v 0.09909728914499283 -0.05409169942140579 0.651475191116333
v 0.09909728914499283 -0.05409204214811325 0.0880654901266098
v 0.09909728914499283 -0.05409204214811325 0.0880654901266098
v 0.09909728914499283 -0.05409169942140579 0.651475191116333
v 0.05721435323357582 -0.09369020164012909 0.651475191116333
v 0.05721435323357582 -0.09368985891342163 0.0880654901266098
v 0.05721435323357582 -0.09368985891342163 0.0880654901266098
v 0.05721435323357582 -0.09369020164012909 0.651475191116333
v -6.103515488575795e-07 -0.10818460583686829 0.6514748930931091
v -6.103515488575795e-07 -0.10818391293287277 0.08806487917900085
v -6.103515488575795e-07 -0.10818391293287277 0.08806487917900085
v -6.103515488575795e-07 -0.10818460583686829 0.6514748930931091
v -0.05721374228596687 -0.09369020164012909 0.651475191116333
v -0.05721374228596687 -0.09368985891342163 0.0880654901266098
v -0.05721374228596687 -0.09368985891342163 0.0880654901266098
v -0.05721374228596687 -0.09369020164012909 0.651475191116333
v -0.09909851104021072 -0.05409169942140579 0.651475191116333
v -0.09909851104021072 -0.05409204214811325 0.0880654901266098
v -0.09909851104021072 -0.05409204214811325 0.0880654901266098
v -0.09909851104021072 -0.05409169942140579 0.651475191116333
v -0.11442931741476059 5.7220457705398076e-08 0.651475191116333
v -0.11442931741476059 5.7220457705398076e-08 0.08806518465280533
v -0.11442931741476059 5.7220457705398076e-08 0.08806518465280533
v -0.11442931741476059 5.7220457705398076e-08 0.651475191116333
v -0.09909851104021072 0.05409179627895355 0.6514748930931091
v -0.09909851104021072 0.05409212037920952 0.08806518465280533
v -0.05721374228596687 0.09368999302387238 0.08806518465280533
v -6.103515488575795e-07 5.7220457705398076e-08 0.08806518465280533
v -0.09909851104021072 0.05409212037920952 0.08806518465280533
v -6.103515488575795e-07 0.10818400979042053 0.0880654901266098
v 0.05721435323357582 0.09368999302387238 0.08806518465280533
v 0.09909728914499283 0.05409212037920952 0.08806518465280533
v 0.11442870646715164 5.7220457705398076e-08 0.08806518465280533
v 0.09909728914499283 -0.05409204214811325 0.0880654901266098
v 0.05721435323357582 -0.09368985891342163 0.0880654901266098
v -6.103515488575795e-07 -0.10818391293287277 0.08806487917900085
v -0.05721374228596687 -0.09368985891342163 0.0880654901266098
v -0.09909851104021072 -0.05409204214811325 0.0880654901266098
v -0.11442931741476059 5.7220457705398076e-08 0.08806518465280533
v -0.09909851104021072 0.05409179627895355 0.6514748930931091
v -6.103515488575795e-07 5.7220457705398076e-08 0.651475191116333
v -0.05721374228596687 0.09369029849767685 0.6514748930931091
v -6.103515488575795e-07 0.10818330198526382 0.6514754891395569
v 0.05721435323357582 0.09369029849767685 0.6514748930931091
v 0.09909728914499283 0.05409179627895355 0.6514748930931091
v 0.11442870646715164 5.7220457705398076e-08 0.651475191116333
v 0.09909728914499283 -0.05409169942140579 0.651475191116333
v 0.05721435323357582 -0.09369020164012909 0.651475191116333
v -6.103515488575795e-07 -0.10818460583686829 0.6514748930931091
v -0.05721374228596687 -0.09369020164012909 0.651475191116333
v -0.09909851104021072 -0.05409169942140579 0.651475191116333
v -0.11442931741476059 5.7220457705398076e-08 0.651475191116333
v 0.1268182396888733 0.23124480247497559 0.5101498365402222
v -0.12681762874126434 0.23124480247497559 0.5101498365402222
v -0.12681762874126434 0.23124480247497559 0.9109942317008972
v 0.1268182396888733 0.23124480247497559 0.9109942317008972
v 0.30616453289985657 0.13018402457237244 0.5101498365402222
v 0.1268182396888733 0.23124480247497559 0.5101498365402222
v 0.1268182396888733 0.23124480247497559 0.9109942317008972
v 0.30616453289985657 0.13018402457237244 0.9109942317008972
v -0.30616453289985657 0.13018402457237244 0.5101498365402222
v -0.30616453289985657 -0.13018371164798737 0.5101498365402222
v -0.30616453289985657 -0.13018371164798737 0.9109942317008972
v -0.30616453289985657 0.13018402457237244 0.9109942317008972
v -0.12681762874126434 0.23124480247497559 0.5101498365402222
v -0.30616453289985657 0.13018402457237244 0.5101498365402222
v -0.30616453289985657 0.13018402457237244 0.9109942317008972
v -0.12681762874126434 0.23124480247497559 0.9109942317008972
v 0.30616453289985657 0.13018402457237244 0.5101498365402222
v 0.30616453289985657 0.13018402457237244 0.9109942317008972
v 0.30616453289985657 -0.13018371164798737 0.9109939336776733
v 0.30616453289985657 -0.13018371164798737 0.5101498365402222
v 0.30616453289985657 -0.13018371164798737 0.5101498365402222
v 0.30616453289985657 -0.13018371164798737 0.9109939336776733
v 0.1268182396888733 -0.23124480247497559 0.9109942317008972
v 0.1268182396888733 -0.23124480247497559 0.5101498365402222
v 0.1268182396888733 -0.23124480247497559 0.5101498365402222
v 0.1268182396888733 -0.23124480247497559 0.9109942317008972
v -0.12681762874126434 -0.23124480247497559 0.9109942317008972
v -0.12681762874126434 -0.23124480247497559 0.5101498365402222
v -0.12681762874126434 -0.23124480247497559 0.5101498365402222
v -0.12681762874126434 -0.23124480247497559 0.9109942317008972
v -0.30616453289985657 -0.13018371164798737 0.9109942317008972
v -0.30616453289985657 -0.13018371164798737 0.5101498365402222
v -0.30616453289985657 0.13018402457237244 0.5101498365402222
v -0.12681762874126434 0.23124480247497559 0.5101498365402222
v -0.12681762874126434 0.13018402457237244 0.29053130745887756
v -0.12681762874126434 0.23124480247497559 0.5101498365402222
v 0.1268182396888733 0.23124480247497559 0.5101498365402222
v 0.1268182396888733 0.13018402457237244 0.29053130745887756
v -0.12681762874126434 0.13018402457237244 0.29053130745887756
v 0.1268182396888733 0.13018402457237244 0.29053130745887756
v 0.1268182396888733 0.23124480247497559 0.5101498365402222
v 0.30616453289985657 0.13018402457237244 0.5101498365402222
v -0.12681762874126434 0.13018402457237244 0.29053130745887756
v -0.12681762874126434 -0.13018371164798737 0.29053130745887756
v -0.30616453289985657 -0.13018371164798737 0.5101498365402222
v -0.30616453289985657 0.13018402457237244 0.5101498365402222
v -0.12681762874126434 -0.13018371164798737 0.29053130745887756
v -0.12681762874126434 0.13018402457237244 0.29053130745887756
v 0.1268182396888733 0.13018402457237244 0.29053130745887756
v 0.1268182396888733 -0.13018371164798737 0.29053130745887756
v 0.30616453289985657 -0.13018371164798737 0.5101498365402222
v 0.1268182396888733 -0.13018371164798737 0.29053130745887756
v 0.1268182396888733 0.13018402457237244 0.29053130745887756
v 0.30616453289985657 0.13018402457237244 0.5101498365402222
v -0.12681762874126434 -0.13018371164798737 0.29053130745887756
v -0.12681762874126434 -0.23124480247497559 0.5101498365402222
v -0.30616453289985657 -0.13018371164798737 0.5101498365402222
v 0.1268182396888733 -0.13018371164798737 0.29053130745887756
v 0.1268182396888733 -0.23124480247497559 0.5101498365402222
v -0.12681762874126434 -0.23124480247497559 0.5101498365402222
v -0.12681762874126434 -0.13018371164798737 0.29053130745887756
v 0.30616453289985657 -0.13018371164798737 0.5101498365402222
v 0.1268182396888733 -0.23124480247497559 0.5101498365402222
v 0.1268182396888733 -0.13018371164798737 0.29053130745887756
vn -0.6869910955429077 0.7266658544540405 0.0
vn -0.6869910955429077 0.7266658544540405 0.0
vn -0.6869910955429077 0.7266658544540405 0.0
vn -0.6869910955429077 0.7266658544540405 0.0
vn -0.24556851387023926 0.9693793058395386 3.4415634786455485e-07
vn -0.24556851387023926 0.9693793058395386 3.441563762862643e-07
vn -0.24556851387023926 0.9693793058395386 3.441563762862643e-07
vn -0.24556851387023926 0.9693793058395386 3.441564047079737e-07
vn 0.24556000530719757 0.9693813920021057 3.4414458127685066e-07
vn 0.24556005001068115 0.9693813323974609 3.441446096985601e-07
vn 0.24556000530719757 0.9693813920021057 3.441446096985601e-07
vn 0.24556000530719757 0.9693813920021057 3.441446096985601e-07
vn 0.6870090365409851 0.7266488671302795 0.0
vn 0.6870090365409851 0.7266489267349243 0.0
vn 0.6870091557502747 0.7266488671302795 0.0
vn 0.6870090365409851 0.7266488671302795 0.0
vn 0.9621014595031738 0.27269187569618225 0.0
vn 0.9621013402938843 0.27269187569618225 0.0
vn 0.9621013402938843 0.27269187569618225 0.0
vn 0.9621014595031738 0.27269187569618225 0.0
vn 0.9621014595031738 -0.27269166707992554 0.0
vn 0.9621014595031738 -0.27269163727760315 0.0
vn 0.9621014595031738 -0.27269166707992554 0.0
vn 0.9621014595031738 -0.27269163727760315 0.0
vn 0.6870089173316956 -0.7266490459442139 0.0
vn 0.6870089769363403 -0.7266489863395691 0.0
vn 0.6870089769363403 -0.7266489863395691 0.0
vn 0.6870089173316956 -0.7266490459442139 0.0
vn 0.24557146430015564 -0.9693785309791565 -8.833018796394754e-07
vn 0.24557152390480042 -0.9693785309791565 -8.833018227960565e-07
vn 0.24557152390480042 -0.9693785309791565 -8.833018796394754e-07
vn 0.24557149410247803 -0.9693785309791565 -8.833019364828942e-07
vn -0.24557988345623016 -0.9693763852119446 -8.948039180722844e-07
vn -0.24557988345623016 -0.9693763852119446 -8.948038612288656e-07
vn -0.24557988345623016 -0.9693763852119446 -8.948038612288656e-07
vn -0.24557988345623016 -0.9693763852119446 -8.948038612288656e-07
vn -0.6869909167289734 -0.7266660332679749 0.0
vn -0.6869909763336182 -0.7266659140586853 0.0
vn -0.6869909763336182 -0.7266659140586853 0.0
vn -0.6869909167289734 -0.7266660332679749 0.0
vn -0.9621046781539917 -0.27268025279045105 0.0
vn -0.9621046781539917 -0.27268028259277344 0.0
vn -0.9621046781539917 -0.27268028259277344 0.0
vn -0.9621046781539917 -0.27268028259277344 0.0
vn -0.9621046781539917 0.2726804316043854 0.0
vn -0.9621046781539917 0.27268046140670776 0.0
vn -0.9621046781539917 0.27268046140670776 0.0
vn -0.9621046781539917 0.27268046140670776 0.0
vn -7.888610525697004e-06 0.0 -1.0
vn -7.888611435191706e-06 0.0 -1.0
vn -7.888610525697004e-06 0.0 -1.0
vn 1.577761759108398e-05 2.82089695247123e-06 -1.0
vn -7.8885568655096e-06 2.8209269657963887e-06 -1.0
vn 7.888736035965849e-06 0.0 -1.0
vn 0.0 0.0 -1.0
vn 0.0 -5.641750703944126e-06 -1.0
vn 7.88874149293406e-06 -2.0649927137128543e-06 -1.0
vn 3.1554220186080784e-05 2.8209262836753624e-06 -1.0
vn -2.366642547713127e-05 2.82089695247123e-06 -1.0
vn 0.0 -2.0650800252042245e-06 -1.0
vn 0.0 -5.6417816267639864e-06 -1.0
vn 0.0 2.0650625174312154e-06 1.0
vn 0.0 2.06506229005754e-06 1.0
vn 0.0 2.065062744804891e-06 1.0
vn -2.366658372920938e-05 -2.8209151423652656e-06 1.0
vn 2.3665823391638696e-05 -2.820945155690424e-06 1.0
vn 0.0 2.064975205939845e-06 1.0
vn 0.0 5.64178844797425e-06 1.0
vn 0.0 0.0 1.0
vn -3.944336640415713e-06 0.0 1.0
vn -7.8885059338063e-06 -2.820909230649704e-06 1.0
vn 7.88875695434399e-06 -2.820878307829844e-06 1.0
vn 7.888547770562582e-06 0.0 1.0
vn 0.0 0.0 1.0
vn 0.0 1.0 0.0
vn 0.0 1.0 0.0
vn 0.0 1.0 0.0
vn 0.0 1.0 0.0
vn 0.49091851711273193 0.8712055087089539 0.0
vn 0.49091851711273193 0.8712055087089539 0.0
vn 0.49091851711273193 0.8712055087089539 0.0
vn 0.49091851711273193 0.8712055087089539 0.0
vn -1.0 0.0 0.0
vn -1.0 0.0 0.0
vn -1.0 0.0 0.0
vn -1.0 0.0 0.0
vn -0.49091851711273193 0.8712055087089539 0.0
vn -0.49091851711273193 0.8712055087089539 0.0
vn -0.49091851711273193 0.8712055087089539 0.0
vn -0.49091851711273193 0.8712055087089539 0.0
vn 1.0 -3.742805347428657e-06 0.0
vn 1.0 -3.7428055748023326e-06 0.0
vn 1.0 -3.742805802176008e-06 0.0
vn 1.0 -3.742805347428657e-06 0.0
vn 0.49092113971710205 -0.8712039589881897 0.0
vn 0.4909211993217468 -0.8712039589881897 0.0
vn 0.4909211993217468 -0.8712039589881897 0.0
vn 0.49092113971710205 -0.8712039589881897 0.0
vn 0.0 -1.0 0.0
vn 0.0 -1.0 0.0
vn 0.0 -1.0 0.0
vn 0.0 -1.0 0.0
vn -0.49091964960098267 -0.8712049126625061 0.0
vn -0.49091964960098267 -0.8712049126625061 0.0
vn -0.49091964960098267 -0.8712049126625061 0.0
vn -0.49091964960098267 -0.8712049126625061 0.0
vn -0.4556644558906555 0.8086435198783875 -0.3721097409725189
vn -0.4556644558906555 0.8086435198783875 -0.3721097409725189
vn -0.4556644558906555 0.8086435198783875 -0.3721097409725189
vn 0.0 0.9084334373474121 -0.4180294871330261
vn 0.0 0.9084334373474121 -0.4180294871330261
vn 0.0 0.9084334373474121 -0.4180294871330261
vn 0.0 0.9084334373474121 -0.4180294871330261
vn 0.45566463470458984 0.8086438775062561 -0.3721085786819458
vn 0.45566460490226746 0.8086438775062561 -0.3721086084842682
vn 0.45566466450691223 0.8086438179016113 -0.3721086084842682
vn -0.7745466232299805 0.0 -0.6325167417526245
vn -0.7745466232299805 0.0 -0.6325167417526245
vn -0.7745466232299805 0.0 -0.6325167417526245
vn -0.7745466232299805 0.0 -0.6325167417526245
vn 0.0 0.0 -1.0
vn 0.0 0.0 -1.0
vn 0.0 0.0 -1.0
vn 0.0 0.0 -1.0
vn 0.7745476365089417 0.0 -0.632515549659729
vn 0.7745476365089417 0.0 -0.632515549659729
vn 0.7745476365089417 0.0 -0.632515549659729
vn 0.7745476365089417 0.0 -0.632515549659729
vn -0.4556657671928406 -0.8086423873901367 -0.3721103072166443
vn -0.4556657671928406 -0.8086423873901367 -0.3721103072166443
vn -0.4556657671928406 -0.8086423873901367 -0.3721103072166443
vn 0.0 -0.9084329605102539 -0.4180305302143097
vn 0.0 -0.9084329605102539 -0.4180305302143097
vn 0.0 -0.9084329605102539 -0.4180305302143097
vn 0.0 -0.9084329605102539 -0.4180305302143097
vn 0.45566606521606445 -0.8086428046226501 -0.3721092641353607
vn 0.45566606521606445 -0.8086428046226501 -0.3721092641353607
vn 0.45566606521606445 -0.8086428046226501 -0.37210923433303833
vt 0.9110427498817444 0.09042739868164062
vt 0.9110427498817444 0.07158470153808594
vt 0.9120869636535645 0.07158470153808594
vt 0.9120869636535645 0.09042739868164062
vt 0.9120869636535645 0.09042739868164062
vt 0.9120869636535645 0.07158470153808594
vt 0.9131311774253845 0.07158470153808594
vt 0.9131311774253845 0.09042739868164062
vt 0.9131311774253845 0.09042739868164062
vt 0.9131311774253845 0.07158470153808594
vt 0.9141753911972046 0.07158470153808594
vt 0.9141753911972046 0.09042739868164062
vt 0.9141753911972046 0.09042739868164062
vt 0.9141753911972046 0.07158470153808594
vt 0.9152195453643799 0.07158470153808594
vt 0.9152195453643799 0.09042739868164062
vt 0.9152195453643799 0.09042739868164062
vt 0.9152195453643799 0.07158470153808594
vt 0.9162637591362 0.07158470153808594
vt 0.9162637591362 0.09042739868164062
vt 0.9162637591362 0.09042739868164062
vt 0.9162637591362 0.07158470153808594
vt 0.91730797290802 0.07158470153808594
vt 0.91730797290802 0.09042739868164062
vt 0.91730797290802 0.09042739868164062
vt 0.91730797290802 0.07158470153808594
vt 0.9183521866798401 0.07158470153808594
vt 0.9183521866798401 0.09042739868164062
vt 0.9183521866798401 0.09042739868164062
vt 0.9183521866798401 0.07158470153808594
vt 0.9193963408470154 0.07158470153808594
vt 0.9193963408470154 0.09042739868164062
vt 0.9193963408470154 0.09042739868164062
vt 0.9193963408470154 0.07158470153808594
vt 0.9204405546188354 0.07158470153808594
vt 0.9204405546188354 0.09042739868164062
vt 0.9204405546188354 0.09042739868164062
vt 0.9204405546188354 0.07158470153808594
vt 0.9214847683906555 0.07158470153808594
vt 0.9214847683906555 0.09042739868164062
vt 0.9214847683906555 0.09042739868164062
vt 0.9214847683906555 0.07158470153808594
vt 0.9225289821624756 0.07158470153808594
vt 0.9225289821624756 0.09042739868164062
vt 0.9225289821624756 0.09042739868164062
vt 0.9225289821624756 0.07158470153808594
vt 0.9235731959342957 0.07158470153808594
vt 0.9235731959342957 0.09042739868164062
vt 0.9212237000465393 0.1050412654876709
vt 0.91730797290802 0.09857213497161865
vt 0.9240902662277222 0.10217469930648804
vt 0.91730797290802 0.10609042644500732
vt 0.913392186164856 0.1050412654876709
vt 0.9105256795883179 0.10217469930648804
vt 0.9094764590263367 0.09825897216796875
vt 0.9105256795883179 0.09434318542480469
vt 0.913392186164856 0.09147655963897705
vt 0.91730797290802 0.09042739868164062
vt 0.9212237000465393 0.09147655963897705
vt 0.9240902662277222 0.09434318542480469
vt 0.9251394867897034 0.09825897216796875
vt 0.9240902662277222 0.05988454818725586
vt 0.91730797290802 0.06411361694335938
vt 0.9212237000465393 0.057017982006073
vt 0.91730797290802 0.0559687614440918
vt 0.913392186164856 0.057017982006073
vt 0.9105256795883179 0.05988454818725586
vt 0.9094764590263367 0.06380033493041992
vt 0.9105256795883179 0.06771600246429443
vt 0.913392186164856 0.07058262825012207
vt 0.91730797290802 0.0716317892074585
vt 0.9212237000465393 0.07058262825012207
vt 0.9240902662277222 0.06771600246429443
vt 0.9251394867897034 0.06380033493041992
vt 0.9126090407371521 0.09042739868164062
vt 0.9110427498817444 0.09042739868164062
vt 0.9110427498817444 0.07158470153808594
vt 0.9126090407371521 0.07158470153808594
vt 0.9141753911972046 0.09042739868164062
vt 0.9126090407371521 0.09042739868164062
vt 0.9126090407371521 0.07158470153808594
vt 0.9141753911972046 0.07158470153808594
vt 0.9220068454742432 0.09042739868164062
vt 0.9204405546188354 0.09042739868164062
vt 0.9204405546188354 0.07158470153808594
vt 0.9220068454742432 0.07158470153808594
vt 0.9235731959342957 0.09042739868164062
vt 0.9220068454742432 0.09042739868164062
vt 0.9220068454742432 0.07158470153808594
vt 0.9235731959342957 0.07158470153808594
vt 0.9141753911972046 0.09042739868164062
vt 0.9141753911972046 0.07158470153808594
vt 0.9157416820526123 0.07158470153808594
vt 0.9157416820526123 0.09042739868164062
vt 0.9157416820526123 0.09042739868164062
vt 0.9157416820526123 0.07158470153808594
vt 0.91730797290802 0.07158470153808594
vt 0.91730797290802 0.09042739868164062
vt 0.91730797290802 0.09042739868164062
vt 0.91730797290802 0.07158470153808594
vt 0.9188742637634277 0.07158470153808594
vt 0.9188742637634277 0.09042739868164062
vt 0.9188742637634277 0.09042739868164062
vt 0.9188742637634277 0.07158470153808594
vt 0.9204405546188354 0.07158470153808594
vt 0.9204405546188354 0.09042739868164062
vt 0.9251394867897034 0.09825897216796875
vt 0.9228456616401672 0.10379660129547119
vt 0.9212237000465393 0.09988093376159668
vt 0.9228456616401672 0.10379660129547119
vt 0.91730797290802 0.10609042644500732
vt 0.9156860113143921 0.10217469930648804
vt 0.9212237000465393 0.09988093376159668
vt 0.9156860113143921 0.10217469930648804
vt 0.91730797290802 0.10609042644500732
vt 0.911770224571228 0.10379660129547119
vt 0.9212237000465393 0.09988093376159668
vt 0.918929934501648 0.09434318542480469
vt 0.9228456616401672 0.09272122383117676
vt 0.9251394867897034 0.09825897216796875
vt 0.918929934501648 0.09434318542480469
vt 0.9212237000465393 0.09988093376159668
vt 0.9156860113143921 0.10217469930648804
vt 0.913392186164856 0.09663701057434082
vt 0.9094764590263367 0.09825897216796875
vt 0.913392186164856 0.09663701057434082
vt 0.9156860113143921 0.10217469930648804
vt 0.911770224571228 0.10379660129547119
vt 0.918929934501648 0.09434318542480469
vt 0.91730797290802 0.09042739868164062
vt 0.9228456616401672 0.09272122383117676
vt 0.913392186164856 0.09663701057434082
vt 0.911770224571228 0.09272122383117676
vt 0.91730797290802 0.09042739868164062
vt 0.918929934501648 0.09434318542480469
vt 0.9094764590263367 0.09825897216796875
vt 0.911770224571228 0.09272122383117676
vt 0.913392186164856 0.09663701057434082

g SMG_H_Arm_T5
s 1
usemtl SMG_H_Arm_T5
f 1/1/1 2/2/2 3/3/3 
f 1/1/1 3/3/3 4/4/4 
f 5/5/5 6/6/6 7/7/7 
f 5/5/5 7/7/7 8/8/8 
f 9/9/9 10/10/10 11/11/11 
f 9/9/9 11/11/11 12/12/12 
f 13/13/13 14/14/14 15/15/15 
f 13/13/13 15/15/15 16/16/16 
f 17/17/17 18/18/18 19/19/19 
f 17/17/17 19/19/19 20/20/20 
f 21/21/21 22/22/22 23/23/23 
f 21/21/21 23/23/23 24/24/24 
f 25/25/25 26/26/26 27/27/27 
f 25/25/25 27/27/27 28/28/28 
f 29/29/29 30/30/30 31/31/31 
f 29/29/29 31/31/31 32/32/32 
f 33/33/33 34/34/34 35/35/35 
f 33/33/33 35/35/35 36/36/36 
f 37/37/37 38/38/38 39/39/39 
f 37/37/37 39/39/39 40/40/40 
f 41/41/41 42/42/42 43/43/43 
f 41/41/41 43/43/43 44/44/44 
f 45/45/45 46/46/46 47/47/47 
f 45/45/45 47/47/47 48/48/48 
f 49/49/49 50/50/50 51/51/51 
f 52/52/52 50/50/50 49/49/49 
f 53/53/53 50/50/50 52/52/52 
f 54/54/54 50/50/50 53/53/53 
f 55/55/55 50/50/50 54/54/54 
f 56/56/56 50/50/50 55/55/55 
f 57/57/57 50/50/50 56/56/56 
f 58/58/58 50/50/50 57/57/57 
f 59/59/59 50/50/50 58/58/58 
f 60/60/60 50/50/50 59/59/59 
f 61/61/61 50/50/50 60/60/60 
f 51/51/51 50/50/50 61/61/61 
f 62/62/62 63/63/63 64/64/64 
f 64/64/64 63/63/63 65/65/65 
f 65/65/65 63/63/63 66/66/66 
f 66/66/66 63/63/63 67/67/67 
f 67/67/67 63/63/63 68/68/68 
f 68/68/68 63/63/63 69/69/69 
f 69/69/69 63/63/63 70/70/70 
f 70/70/70 63/63/63 71/71/71 
f 71/71/71 63/63/63 72/72/72 
f 72/72/72 63/63/63 73/73/73 
f 73/73/73 63/63/63 74/74/74 
f 74/74/74 63/63/63 62/62/62 
f 75/75/75 76/76/76 77/77/77 
f 75/75/75 77/77/77 78/78/78 
f 79/79/79 80/80/80 81/81/81 
f 79/79/79 81/81/81 82/82/82 
f 83/83/83 84/84/84 85/85/85 
f 83/83/83 85/85/85 86/86/86 
f 87/87/87 88/88/88 89/89/89 
f 87/87/87 89/89/89 90/90/90 
f 91/91/91 92/92/92 93/93/93 
f 91/91/91 93/93/93 94/94/94 
f 95/95/95 96/96/96 97/97/97 
f 95/95/95 97/97/97 98/98/98 
f 99/99/99 100/100/100 101/101/101 
f 99/99/99 101/101/101 102/102/102 
f 103/103/103 104/104/104 105/105/105 
f 103/103/103 105/105/105 106/106/106 
f 107/107/107 108/108/108 109/109/109 
f 110/110/110 111/111/111 112/112/112 
f 110/110/110 112/112/112 113/113/113 
f 114/114/114 115/115/115 116/116/116 
f 117/117/117 118/118/118 119/119/119 
f 117/117/117 119/119/119 120/120/120 
f 121/121/121 122/122/122 123/123/123 
f 121/121/121 123/123/123 124/124/124 
f 125/125/125 126/126/126 127/127/127 
f 125/125/125 127/127/127 128/128/128 
f 129/129/129 130/130/130 131/131/131 
f 132/132/132 133/133/133 134/134/134 
f 132/132/132 134/134/134 135/135/135 
f 136/136/136 137/137/137 138/138/138 

