v 0.10147582739591599 0.17340697348117828 0.471076637506485
v -0.10147460550069809 0.17340697348117828 0.471076637506485
v -0.10147460550069809 0.17340697348117828 0.704671323299408
v 0.10147582739591599 0.17340697348117828 0.704671323299408
v 0.2449822872877121 0.09762298315763474 0.471076637506485
v 0.10147582739591599 0.17340697348117828 0.471076637506485
v 0.10147582739591599 0.17340697348117828 0.704671323299408
v 0.2449822872877121 0.09762298315763474 0.704671323299408
v -0.24498169124126434 0.09762298315763474 0.471076637506485
v -0.24498169124126434 -0.09762267768383026 0.471076637506485
v -0.24498169124126434 -0.09762267768383026 0.704671323299408
v -0.24498169124126434 0.09762298315763474 0.704671323299408
v -0.10147460550069809 0.17340697348117828 0.471076637506485
v -0.24498169124126434 0.09762298315763474 0.471076637506485
v -0.24498169124126434 0.09762298315763474 0.704671323299408
v -0.10147460550069809 0.17340697348117828 0.704671323299408
v 0.2449822872877121 0.09762298315763474 0.471076637506485
v 0.2449822872877121 0.09762298315763474 0.704671323299408
v 0.2449822872877121 -0.09762267768383026 0.7046710252761841
v 0.2449822872877121 -0.09762267768383026 0.4710763394832611
v 0.2449822872877121 -0.09762267768383026 0.4710763394832611
v 0.2449822872877121 -0.09762267768383026 0.7046710252761841
v 0.10147582739591599 -0.17340636253356934 0.704671323299408
v 0.10147582739591599 -0.17340636253356934 0.471076637506485
v 0.10147582739591599 -0.17340636253356934 0.471076637506485
v 0.10147582739591599 -0.17340636253356934 0.704671323299408
v -0.10147460550069809 -0.17340636253356934 0.704671323299408
v -0.10147460550069809 -0.17340636253356934 0.471076637506485
v -0.10147460550069809 -0.17340636253356934 0.471076637506485
v -0.10147460550069809 -0.17340636253356934 0.704671323299408
v -0.24498169124126434 -0.09762267768383026 0.704671323299408
v -0.24498169124126434 -0.09762267768383026 0.471076637506485
v -0.24498169124126434 0.09762298315763474 0.471076637506485
v -0.10147460550069809 0.17340697348117828 0.471076637506485
v -0.10147460550069809 0.09762298315763474 0.2953457534313202
v -0.10147460550069809 0.17340697348117828 0.471076637506485
v 0.10147582739591599 0.17340697348117828 0.471076637506485
v 0.10147582739591599 0.09762298315763474 0.2953457534313202
v -0.10147460550069809 0.09762298315763474 0.2953457534313202
v 0.10147582739591599 0.09762298315763474 0.2953457534313202
v 0.10147582739591599 0.17340697348117828 0.471076637506485
v 0.2449822872877121 0.09762298315763474 0.471076637506485
v -0.10147460550069809 0.09762298315763474 0.2953457534313202
v -0.10147460550069809 -0.09762267768383026 0.2953457534313202
v -0.24498169124126434 -0.09762267768383026 0.471076637506485
v -0.24498169124126434 0.09762298315763474 0.471076637506485
v -0.10147460550069809 -0.09762267768383026 0.2953457534313202
v -0.10147460550069809 0.09762298315763474 0.2953457534313202
v 0.10147582739591599 0.09762298315763474 0.2953457534313202
v 0.10147582739591599 -0.09762267768383026 0.2953457534313202
v 0.2449822872877121 -0.09762267768383026 0.4710763394832611
v 0.10147582739591599 -0.09762267768383026 0.2953457534313202
v 0.10147582739591599 0.09762298315763474 0.2953457534313202
v 0.2449822872877121 0.09762298315763474 0.471076637506485
v -0.10147460550069809 -0.09762267768383026 0.2953457534313202
v -0.10147460550069809 -0.17340636253356934 0.471076637506485
v -0.24498169124126434 -0.09762267768383026 0.471076637506485
v 0.10147582739591599 -0.09762267768383026 0.2953457534313202
v 0.10147582739591599 -0.17340636253356934 0.471076637506485
v -0.10147460550069809 -0.17340636253356934 0.471076637506485
v -0.10147460550069809 -0.09762267768383026 0.2953457534313202
v 0.2449822872877121 -0.09762267768383026 0.4710763394832611
v 0.10147582739591599 -0.17340636253356934 0.471076637506485
v 0.10147582739591599 -0.09762267768383026 0.2953457534313202
v -0.09007934480905533 0.04916936904191971 0.08806518465280533
v -0.09007934480905533 0.04916908219456673 0.6514748930931091
v -0.052006226032972336 0.08516387641429901 0.6514748930931091
v -0.052006226032972336 0.08516359329223633 0.08806518465280533
v -0.052006226032972336 0.08516359329223633 0.08806518465280533
v -0.052006226032972336 0.08516387641429901 0.6514748930931091
v 0.0 0.09833793342113495 0.6514754891395569
v 0.0 0.09833857417106628 0.0880654901266098
v 0.0 0.09833857417106628 0.0880654901266098
v 0.0 0.09833793342113495 0.6514754891395569
v 0.05200805515050888 0.08516387641429901 0.6514748930931091
v 0.05200805515050888 0.08516359329223633 0.08806518465280533
v 0.05200805515050888 0.08516359329223633 0.08806518465280533
v 0.05200805515050888 0.08516387641429901 0.6514748930931091
v 0.09007934480905533 0.04916908219456673 0.6514748930931091
v 0.09007934480905533 0.04916936904191971 0.08806518465280533
v 0.09007934480905533 0.04916936904191971 0.08806518465280533
v 0.09007934480905533 0.04916908219456673 0.6514748930931091
v 0.10401549935340881 0.0 0.651475191116333
v 0.10401549935340881 0.0 0.08806518465280533
v 0.10401549935340881 0.0 0.08806518465280533
v 0.10401549935340881 0.0 0.651475191116333
v 0.09007934480905533 -0.04916908219456673 0.651475191116333
v 0.09007934480905533 -0.0491693876683712 0.0880654901266098
v 0.09007934480905533 -0.0491693876683712 0.0880654901266098
v 0.09007934480905533 -0.04916908219456673 0.651475191116333
v 0.05200805515050888 -0.08516387641429901 0.651475191116333
v 0.05200805515050888 -0.08516357094049454 0.0880654901266098
v 0.05200805515050888 -0.08516357094049454 0.0880654901266098
v 0.05200805515050888 -0.08516387641429901 0.651475191116333
v 0.0 -0.09833919256925583 0.6514748930931091
v 0.0 -0.09833858162164688 0.08806487917900085
v 0.0 -0.09833858162164688 0.08806487917900085
v 0.0 -0.09833919256925583 0.6514748930931091
v -0.052006226032972336 -0.08516387641429901 0.651475191116333
v -0.052006226032972336 -0.08516357094049454 0.0880654901266098
v -0.052006226032972336 -0.08516357094049454 0.0880654901266098
v -0.052006226032972336 -0.08516387641429901 0.651475191116333
v -0.09007934480905533 -0.04916908219456673 0.651475191116333
v -0.09007934480905533 -0.0491693876683712 0.0880654901266098
v -0.09007934480905533 -0.0491693876683712 0.0880654901266098
v -0.09007934480905533 -0.04916908219456673 0.651475191116333
v -0.10401488840579987 0.0 0.651475191116333
v -0.10401488840579987 0.0 0.08806518465280533
v -0.10401488840579987 0.0 0.08806518465280533
v -0.10401488840579987 0.0 0.651475191116333
v -0.09007934480905533 0.04916908219456673 0.6514748930931091
v -0.09007934480905533 0.04916936904191971 0.08806518465280533
v -0.052006226032972336 0.08516359329223633 0.08806518465280533
v 0.0 0.0 0.08806518465280533
v -0.09007934480905533 0.04916936904191971 0.08806518465280533
v 0.0 0.09833857417106628 0.0880654901266098
v 0.05200805515050888 0.08516359329223633 0.08806518465280533
v 0.09007934480905533 0.04916936904191971 0.08806518465280533
v 0.10401549935340881 0.0 0.08806518465280533
v 0.09007934480905533 -0.0491693876683712 0.0880654901266098
v 0.05200805515050888 -0.08516357094049454 0.0880654901266098
v 0.0 -0.09833858162164688 0.08806487917900085
v -0.052006226032972336 -0.08516357094049454 0.0880654901266098
v -0.09007934480905533 -0.0491693876683712 0.0880654901266098
v -0.10401488840579987 0.0 0.08806518465280533
v -0.09007934480905533 0.04916908219456673 0.6514748930931091
v 0.0 0.0 0.651475191116333
v -0.052006226032972336 0.08516387641429901 0.6514748930931091
v 0.0 0.09833793342113495 0.6514754891395569
v 0.05200805515050888 0.08516387641429901 0.6514748930931091
v 0.09007934480905533 0.04916908219456673 0.6514748930931091
v 0.10401549935340881 0.0 0.651475191116333
v 0.09007934480905533 -0.04916908219456673 0.651475191116333
v 0.05200805515050888 -0.08516387641429901 0.651475191116333
v 0.0 -0.09833919256925583 0.6514748930931091
v -0.052006226032972336 -0.08516387641429901 0.651475191116333
v -0.09007934480905533 -0.04916908219456673 0.651475191116333
v -0.10401488840579987 0.0 0.651475191116333
vn 0.0 1.0 0.0
vn 0.0 1.0 0.0
vn 0.0 1.0 0.0
vn 0.0 1.0 0.0
vn 0.4669727087020874 0.8842718005180359 0.0
vn 0.4669727087020874 0.8842718005180359 0.0
vn 0.4669727087020874 0.8842718005180359 0.0
vn 0.4669727087020874 0.8842718005180359 0.0
vn -1.0 0.0 0.0
vn -1.0 0.0 0.0
vn -1.0 0.0 0.0
vn -1.0 0.0 0.0
vn -0.46697157621383667 0.8842723369598389 0.0
vn -0.46697157621383667 0.8842723369598389 0.0
vn -0.46697157621383667 0.8842723369598389 0.0
vn -0.46697157621383667 0.8842723369598389 0.0
vn 1.0 0.0 0.0
vn 1.0 0.0 0.0
vn 1.0 0.0 0.0
vn 1.0 0.0 0.0
vn 0.4669721722602844 -0.8842719793319702 0.0
vn 0.4669721722602844 -0.884272038936615 0.0
vn 0.4669721722602844 -0.8842719793319702 0.0
vn 0.4669721722602844 -0.884272038936615 0.0
vn 0.0 -1.0 0.0
vn 0.0 -1.0 0.0
vn 0.0 -1.0 0.0
vn 0.0 -1.0 0.0
vn -0.46697062253952026 -0.8842728137969971 0.0
vn -0.46697062253952026 -0.8842728137969971 0.0
vn -0.46697062253952026 -0.8842728137969971 0.0
vn -0.46697062253952026 -0.8842728137969971 0.0
vn -0.4363228976726532 0.8262338042259216 -0.3563145697116852
vn -0.4363228976726532 0.8262338042259216 -0.3563145697116852
vn -0.4363228976726532 0.8262338042259216 -0.3563145697116852
vn 0.0 0.9182519316673279 -0.3959965407848358
vn 0.0 0.9182519316673279 -0.3959965407848358
vn 0.0 0.9182519316673279 -0.3959965407848358
vn 0.0 0.9182519316673279 -0.3959965407848358
vn 0.4363231062889099 0.8262342810630798 -0.35631316900253296
vn 0.43632304668426514 0.8262342810630798 -0.35631316900253296
vn 0.4363231062889099 0.8262342810630798 -0.35631316900253296
vn -0.7745460867881775 0.0 -0.6325174570083618
vn -0.7745460867881775 0.0 -0.6325174570083618
vn -0.7745460867881775 0.0 -0.6325174570083618
vn -0.7745460867881775 0.0 -0.6325174570083618
vn 0.0 0.0 -1.0
vn 0.0 0.0 -1.0
vn 0.0 0.0 -1.0
vn 0.0 0.0 -1.0
vn 0.7745469808578491 0.0 -0.6325163841247559
vn 0.7745469808578491 0.0 -0.6325164437294006
vn 0.7745469808578491 0.0 -0.6325164437294006
vn 0.7745469808578491 0.0 -0.6325164437294006
vn -0.4363204836845398 -0.8262353539466858 -0.35631391406059265
vn -0.4363204836845398 -0.8262353539466858 -0.3563138246536255
vn -0.4363205134868622 -0.8262353539466858 -0.3563138544559479
vn 0.0 -0.9182525277137756 -0.395995169878006
vn 0.0 -0.9182525277137756 -0.395995169878006
vn 0.0 -0.9182525277137756 -0.395995169878006
vn 0.0 -0.9182525277137756 -0.395995169878006
vn 0.43632107973098755 -0.8262349367141724 -0.3563140332698822
vn 0.43632107973098755 -0.8262349367141724 -0.3563140332698822
vn 0.4363211393356323 -0.8262349367141724 -0.3563140630722046
vn -0.6869920492172241 0.7266649007797241 0.0
vn -0.6869921088218689 0.7266649007797241 0.0
vn -0.6869921088218689 0.7266649007797241 0.0
vn -0.6869920492172241 0.7266649007797241 0.0
vn -0.24556584656238556 0.9693798422813416 3.028867752163933e-07
vn -0.24556584656238556 0.9693798422813416 3.028868036381027e-07
vn -0.24556584656238556 0.9693798422813416 3.028867752163933e-07
vn -0.24556584656238556 0.9693798422813416 3.028867752163933e-07
vn 0.24556292593479156 0.9693806171417236 2.902628750689473e-07
vn 0.24556295573711395 0.9693806171417236 2.9026290349065675e-07
vn 0.24556292593479156 0.9693806171417236 2.9026290349065675e-07
vn 0.24556295573711395 0.9693806171417236 2.902628750689473e-07
vn 0.6870118379592896 0.7266461849212646 0.0
vn 0.6870119571685791 0.7266461253166199 0.0
vn 0.6870119571685791 0.7266461253166199 0.0
vn 0.6870118379592896 0.7266461849212646 0.0
vn 0.9621000289916992 0.27269694209098816 0.0
vn 0.9621000289916992 0.27269694209098816 0.0
vn 0.9621000289916992 0.27269691228866577 0.0
vn 0.9621000289916992 0.27269691228866577 0.0
vn 0.9621000289916992 -0.2726967930793762 0.0
vn 0.9621000289916992 -0.2726967930793762 0.0
vn 0.9621000289916992 -0.2726967930793762 0.0
vn 0.9621000289916992 -0.2726967930793762 0.0
vn 0.68701171875 -0.7266463041305542 0.0
vn 0.68701171875 -0.7266463041305542 0.0
vn 0.68701171875 -0.7266463041305542 0.0
vn 0.68701171875 -0.7266463041305542 0.0
vn 0.24557414650917053 -0.9693776965141296 -7.950653753141523e-07
vn 0.24557414650917053 -0.9693776965141296 -7.950654321575712e-07
vn 0.24557414650917053 -0.9693776965141296 -7.950654321575712e-07
vn 0.24557414650917053 -0.9693776965141296 -7.950654321575712e-07
vn -0.24557724595069885 -0.9693770408630371 -7.824552312740707e-07
vn -0.24557727575302124 -0.9693770408630371 -7.824554018043273e-07
vn -0.24557724595069885 -0.9693770408630371 -7.824552881174895e-07
vn -0.24557724595069885 -0.9693770408630371 -7.824552881174895e-07
vn -0.6869919300079346 -0.7266650795936584 0.0
vn -0.6869918704032898 -0.7266650795936584 0.0
vn -0.6869918704032898 -0.7266650795936584 0.0
vn -0.6869919300079346 -0.7266650795936584 0.0
vn -0.962103545665741 -0.2726842164993286 0.0
vn -0.962103545665741 -0.272684246301651 0.0
vn -0.962103545665741 -0.2726842164993286 0.0
vn -0.962103545665741 -0.272684246301651 0.0
vn -0.962103545665741 0.27268433570861816 0.0
vn -0.962103545665741 0.27268433570861816 0.0
vn -0.9621034860610962 0.27268436551094055 0.0
vn -0.9621034860610962 0.27268436551094055 0.0
vn 0.0 0.0 -1.0
vn 0.0 0.0 -1.0
vn 0.0 0.0 -1.0
vn 1.9095054085482843e-05 3.1033541745273396e-06 -1.0
vn -9.547190529701766e-06 3.1033177947392687e-06 -1.0
vn 0.0 0.0 -1.0
vn 0.0 0.0 -1.0
vn 0.0 -6.206586476764642e-06 -1.0
vn 0.0 -2.271766106787254e-06 -1.0
vn 1.9094377421424724e-05 3.103316885244567e-06 -1.0
vn -9.547523404762615e-06 3.103352810285287e-06 -1.0
vn 0.0 -2.2717990759701934e-06 -1.0
vn 0.0 -6.206621947058011e-06 -1.0
vn 0.0 2.2717795218341053e-06 1.0
vn 0.0 2.2717795218341053e-06 1.0
vn 0.0 2.27177929446043e-06 1.0
vn -2.8642762117669918e-05 -3.103373956037103e-06 1.0
vn 2.864175257855095e-05 -3.1033371215016814e-06 1.0
vn 0.0 2.271746552651166e-06 1.0
vn 0.0 6.206624220794765e-06 1.0
vn 0.0 0.0 1.0
vn 0.0 0.0 1.0
vn -9.547129593556747e-06 -3.1032977858558297e-06 1.0
vn 9.547464287607e-06 -3.103333938270225e-06 1.0
vn 0.0 0.0 1.0
vn 0.0 0.0 1.0
vt 0.9126090407371521 0.09042739868164062
vt 0.9110427498817444 0.09042739868164062
vt 0.9110427498817444 0.07158470153808594
vt 0.9126090407371521 0.07158470153808594
vt 0.9141753911972046 0.09042739868164062
vt 0.9126090407371521 0.09042739868164062
vt 0.9126090407371521 0.07158470153808594
vt 0.9141753911972046 0.07158470153808594
vt 0.9220068454742432 0.09042739868164062
vt 0.9204405546188354 0.09042739868164062
vt 0.9204405546188354 0.07158470153808594
vt 0.9220068454742432 0.07158470153808594
vt 0.9235731959342957 0.09042739868164062
vt 0.9220068454742432 0.09042739868164062
vt 0.9220068454742432 0.07158470153808594
vt 0.9235731959342957 0.07158470153808594
vt 0.9141753911972046 0.09042739868164062
vt 0.9141753911972046 0.07158470153808594
vt 0.9157416820526123 0.07158470153808594
vt 0.9157416820526123 0.09042739868164062
vt 0.9157416820526123 0.09042739868164062
vt 0.9157416820526123 0.07158470153808594
vt 0.91730797290802 0.07158470153808594
vt 0.91730797290802 0.09042739868164062
vt 0.91730797290802 0.09042739868164062
vt 0.91730797290802 0.07158470153808594
vt 0.9188742637634277 0.07158470153808594
vt 0.9188742637634277 0.09042739868164062
vt 0.9188742637634277 0.09042739868164062
vt 0.9188742637634277 0.07158470153808594
vt 0.9204405546188354 0.07158470153808594
vt 0.9204405546188354 0.09042739868164062
vt 0.9251394867897034 0.09825897216796875
vt 0.9228456616401672 0.10379660129547119
vt 0.9212237000465393 0.09988093376159668
vt 0.9228456616401672 0.10379660129547119
vt 0.91730797290802 0.10609042644500732
vt 0.9156860113143921 0.10217469930648804
vt 0.9212237000465393 0.09988093376159668
vt 0.9156860113143921 0.10217469930648804
vt 0.91730797290802 0.10609042644500732
vt 0.911770224571228 0.10379660129547119
vt 0.9212237000465393 0.09988093376159668
vt 0.918929934501648 0.09434318542480469
vt 0.9228456616401672 0.09272122383117676
vt 0.9251394867897034 0.09825897216796875
vt 0.918929934501648 0.09434318542480469
vt 0.9212237000465393 0.09988093376159668
vt 0.9156860113143921 0.10217469930648804
vt 0.913392186164856 0.09663701057434082
vt 0.9094764590263367 0.09825897216796875
vt 0.913392186164856 0.09663701057434082
vt 0.9156860113143921 0.10217469930648804
vt 0.911770224571228 0.10379660129547119
vt 0.918929934501648 0.09434318542480469
vt 0.91730797290802 0.09042739868164062
vt 0.9228456616401672 0.09272122383117676
vt 0.913392186164856 0.09663701057434082
vt 0.911770224571228 0.09272122383117676
vt 0.91730797290802 0.09042739868164062
vt 0.918929934501648 0.09434318542480469
vt 0.9094764590263367 0.09825897216796875
vt 0.911770224571228 0.09272122383117676
vt 0.913392186164856 0.09663701057434082
vt 0.9110427498817444 0.09042739868164062
vt 0.9110427498817444 0.07158470153808594
vt 0.9120869636535645 0.07158470153808594
vt 0.9120869636535645 0.09042739868164062
vt 0.9120869636535645 0.09042739868164062
vt 0.9120869636535645 0.07158470153808594
vt 0.9131311774253845 0.07158470153808594
vt 0.9131311774253845 0.09042739868164062
vt 0.9131311774253845 0.09042739868164062
vt 0.9131311774253845 0.07158470153808594
vt 0.9141753911972046 0.07158470153808594
vt 0.9141753911972046 0.09042739868164062
vt 0.9141753911972046 0.09042739868164062
vt 0.9141753911972046 0.07158470153808594
vt 0.9152195453643799 0.07158470153808594
vt 0.9152195453643799 0.09042739868164062
vt 0.9152195453643799 0.09042739868164062
vt 0.9152195453643799 0.07158470153808594
vt 0.9162637591362 0.07158470153808594
vt 0.9162637591362 0.09042739868164062
vt 0.9162637591362 0.09042739868164062
vt 0.9162637591362 0.07158470153808594
vt 0.91730797290802 0.07158470153808594
vt 0.91730797290802 0.09042739868164062
vt 0.91730797290802 0.09042739868164062
vt 0.91730797290802 0.07158470153808594
vt 0.9183521866798401 0.07158470153808594
vt 0.9183521866798401 0.09042739868164062
vt 0.9183521866798401 0.09042739868164062
vt 0.9183521866798401 0.07158470153808594
vt 0.9193963408470154 0.07158470153808594
vt 0.9193963408470154 0.09042739868164062
vt 0.9193963408470154 0.09042739868164062
vt 0.9193963408470154 0.07158470153808594
vt 0.9204405546188354 0.07158470153808594
vt 0.9204405546188354 0.09042739868164062
vt 0.9204405546188354 0.09042739868164062
vt 0.9204405546188354 0.07158470153808594
vt 0.9214847683906555 0.07158470153808594
vt 0.9214847683906555 0.09042739868164062
vt 0.9214847683906555 0.09042739868164062
vt 0.9214847683906555 0.07158470153808594
vt 0.9225289821624756 0.07158470153808594
vt 0.9225289821624756 0.09042739868164062
vt 0.9225289821624756 0.09042739868164062
vt 0.9225289821624756 0.07158470153808594
vt 0.9235731959342957 0.07158470153808594
vt 0.9235731959342957 0.09042739868164062
vt 0.9212237000465393 0.1050412654876709
vt 0.91730797290802 0.09857213497161865
vt 0.9240902662277222 0.10217469930648804
vt 0.91730797290802 0.10609042644500732
vt 0.913392186164856 0.1050412654876709
vt 0.9105256795883179 0.10217469930648804
vt 0.9094764590263367 0.09825897216796875
vt 0.9105256795883179 0.09434318542480469
vt 0.913392186164856 0.09147655963897705
vt 0.91730797290802 0.09042739868164062
vt 0.9212237000465393 0.09147655963897705
vt 0.9240902662277222 0.09434318542480469
vt 0.9251394867897034 0.09825897216796875
vt 0.9240902662277222 0.05988454818725586
vt 0.91730797290802 0.06411361694335938
vt 0.9212237000465393 0.057017982006073
vt 0.91730797290802 0.0559687614440918
vt 0.913392186164856 0.057017982006073
vt 0.9105256795883179 0.05988454818725586
vt 0.9094764590263367 0.06380033493041992
vt 0.9105256795883179 0.06771600246429443
vt 0.913392186164856 0.07058262825012207
vt 0.91730797290802 0.0716317892074585
vt 0.9212237000465393 0.07058262825012207
vt 0.9240902662277222 0.06771600246429443
vt 0.9251394867897034 0.06380033493041992

g SMG_H_Arm_T1
s 1
usemtl SMG_H_Arm_T1
f 1/1/1 2/2/2 3/3/3 
f 1/1/1 3/3/3 4/4/4 
f 5/5/5 6/6/6 7/7/7 
f 5/5/5 7/7/7 8/8/8 
f 9/9/9 10/10/10 11/11/11 
f 9/9/9 11/11/11 12/12/12 
f 13/13/13 14/14/14 15/15/15 
f 13/13/13 15/15/15 16/16/16 
f 17/17/17 18/18/18 19/19/19 
f 17/17/17 19/19/19 20/20/20 
f 21/21/21 22/22/22 23/23/23 
f 21/21/21 23/23/23 24/24/24 
f 25/25/25 26/26/26 27/27/27 
f 25/25/25 27/27/27 28/28/28 
f 29/29/29 30/30/30 31/31/31 
f 29/29/29 31/31/31 32/32/32 
f 33/33/33 34/34/34 35/35/35 
f 36/36/36 37/37/37 38/38/38 
f 36/36/36 38/38/38 39/39/39 
f 40/40/40 41/41/41 42/42/42 
f 43/43/43 44/44/44 45/45/45 
f 43/43/43 45/45/45 46/46/46 
f 47/47/47 48/48/48 49/49/49 
f 47/47/47 49/49/49 50/50/50 
f 51/51/51 52/52/52 53/53/53 
f 51/51/51 53/53/53 54/54/54 
f 55/55/55 56/56/56 57/57/57 
f 58/58/58 59/59/59 60/60/60 
f 58/58/58 60/60/60 61/61/61 
f 62/62/62 63/63/63 64/64/64 
f 65/65/65 66/66/66 67/67/67 
f 65/65/65 67/67/67 68/68/68 
f 69/69/69 70/70/70 71/71/71 
f 69/69/69 71/71/71 72/72/72 
f 73/73/73 74/74/74 75/75/75 
f 73/73/73 75/75/75 76/76/76 
f 77/77/77 78/78/78 79/79/79 
f 77/77/77 79/79/79 80/80/80 
f 81/81/81 82/82/82 83/83/83 
f 81/81/81 83/83/83 84/84/84 
f 85/85/85 86/86/86 87/87/87 
f 85/85/85 87/87/87 88/88/88 
f 89/89/89 90/90/90 91/91/91 
f 89/89/89 91/91/91 92/92/92 
f 93/93/93 94/94/94 95/95/95 
f 93/93/93 95/95/95 96/96/96 
f 97/97/97 98/98/98 99/99/99 
f 97/97/97 99/99/99 100/100/100 
f 101/101/101 102/102/102 103/103/103 
f 101/101/101 103/103/103 104/104/104 
f 105/105/105 106/106/106 107/107/107 
f 105/105/105 107/107/107 108/108/108 
f 109/109/109 110/110/110 111/111/111 
f 109/109/109 111/111/111 112/112/112 
f 113/113/113 114/114/114 115/115/115 
f 116/116/116 114/114/114 113/113/113 
f 117/117/117 114/114/114 116/116/116 
f 118/118/118 114/114/114 117/117/117 
f 119/119/119 114/114/114 118/118/118 
f 120/120/120 114/114/114 119/119/119 
f 121/121/121 114/114/114 120/120/120 
f 122/122/122 114/114/114 121/121/121 
f 123/123/123 114/114/114 122/122/122 
f 124/124/124 114/114/114 123/123/123 
f 125/125/125 114/114/114 124/124/124 
f 115/115/115 114/114/114 125/125/125 
f 126/126/126 127/127/127 128/128/128 
f 128/128/128 127/127/127 129/129/129 
f 129/129/129 127/127/127 130/130/130 
f 130/130/130 127/127/127 131/131/131 
f 131/131/131 127/127/127 132/132/132 
f 132/132/132 127/127/127 133/133/133 
f 133/133/133 127/127/127 134/134/134 
f 134/134/134 127/127/127 135/135/135 
f 135/135/135 127/127/127 136/136/136 
f 136/136/136 127/127/127 137/137/137 
f 137/137/137 127/127/127 138/138/138 
f 138/138/138 127/127/127 126/126/126 

