v 0.061610106378793716 0.1008865013718605 0.009886779822409153
v 0.061610106378793716 0.10088678449392319 1.035783052444458
v 0.10671020299196243 0.0582466684281826 1.035783052444458
v 0.10671020299196243 0.058246955275535583 0.009886779822409153
v 0.0 0.11649364978075027 0.009886779822409153
v 0.0 0.11649300903081894 1.0357834100723267
v 0.061610106378793716 0.10088678449392319 1.035783052444458
v 0.061610106378793716 0.1008865013718605 0.009886779822409153
v -0.06160888448357582 0.1008865013718605 0.009886779822409153
v -0.06160888448357582 0.10088678449392319 1.035783052444458
v 0.0 0.11649300903081894 1.0357834100723267
v 0.0 0.11649364978075027 0.009886779822409153
v -0.10671020299196243 0.058246955275535583 0.009895934723317623
v -0.10671020299196243 0.0582466684281826 1.035783052444458
v -0.06160888448357582 0.10088678449392319 1.035783052444458
v -0.06160888448357582 0.1008865013718605 0.009886779822409153
v -0.12321776896715164 5.7220457705398076e-08 0.009895934723317623
v -0.12321776896715164 5.7220457705398076e-08 1.0357834100723267
v -0.10671020299196243 0.0582466684281826 1.035783052444458
v -0.10671020299196243 0.058246955275535583 0.009895934723317623
v -0.10671020299196243 -0.05824683979153633 0.009886779822409153
v -0.10671020299196243 -0.05824653431773186 1.0357834100723267
v -0.12321776896715164 5.7220457705398076e-08 1.0357834100723267
v -0.12321776896715164 5.7220457705398076e-08 0.009895934723317623
v -0.06160888448357582 -0.10088634490966797 0.009886779822409153
v -0.06160888448357582 -0.10088665038347244 1.0357834100723267
v -0.10671020299196243 -0.05824653431773186 1.0357834100723267
v -0.10671020299196243 -0.05824683979153633 0.009886779822409153
v 0.0 -0.11649375408887863 0.009886779822409153
v 0.0 -0.11649436503648758 1.035783052444458
v -0.06160888448357582 -0.10088665038347244 1.0357834100723267
v -0.06160888448357582 -0.10088634490966797 0.009886779822409153
v 0.061610106378793716 -0.10088634490966797 0.009886779822409153
v 0.061610106378793716 -0.10088665038347244 1.0357834100723267
v 0.0 -0.11649436503648758 1.035783052444458
v 0.0 -0.11649375408887863 0.009886779822409153
v 0.10671020299196243 -0.05824683979153633 0.009895934723317623
v 0.10671020299196243 -0.05824653431773186 1.0357834100723267
v 0.061610106378793716 -0.10088665038347244 1.0357834100723267
v 0.061610106378793716 -0.10088634490966797 0.009886779822409153
v 0.12321776896715164 5.7220457705398076e-08 0.009895934723317623
v 0.12321776896715164 5.7220457705398076e-08 1.0357834100723267
v 0.10671020299196243 -0.05824653431773186 1.0357834100723267
v 0.10671020299196243 -0.05824683979153633 0.009895934723317623
v 0.10671020299196243 0.058246955275535583 0.009886779822409153
v 0.10671020299196243 0.0582466684281826 1.035783052444458
v 0.12321776896715164 5.7220457705398076e-08 1.0357834100723267
v 0.12321776896715164 5.7220457705398076e-08 0.009895934723317623
v 0.12681885063648224 0.23093627393245697 0.6498382687568665
v -0.12681762874126434 0.23093627393245697 0.6498382687568665
v -0.12681762874126434 0.23093627393245697 1.2402727603912354
v 0.12681885063648224 0.23093627393245697 1.2402727603912354
v 0.30616453289985657 0.1300097554922104 0.6498382687568665
v 0.12681885063648224 0.23093627393245697 0.6498382687568665
v 0.12681885063648224 0.23093627393245697 1.2402727603912354
v 0.30616453289985657 0.1300097554922104 1.2402727603912354
v -0.30616453289985657 0.1300097554922104 0.6498382687568665
v -0.30616453289985657 -0.13001036643981934 0.6498382687568665
v -0.30616453289985657 -0.13001036643981934 1.2402727603912354
v -0.30616453289985657 0.1300097554922104 1.2402727603912354
v -0.12681762874126434 0.23093627393245697 0.6498382687568665
v -0.30616453289985657 0.1300097554922104 0.6498382687568665
v -0.30616453289985657 0.1300097554922104 1.2402727603912354
v -0.12681762874126434 0.23093627393245697 1.2402727603912354
v 0.30616453289985657 0.1300097554922104 0.6498382687568665
v 0.30616453289985657 0.1300097554922104 1.2402727603912354
v 0.30616453289985657 -0.13001036643981934 1.2402727603912354
v 0.30616453289985657 -0.13001036643981934 0.6498382687568665
v 0.30616453289985657 -0.13001036643981934 0.6498382687568665
v 0.30616453289985657 -0.13001036643981934 1.2402727603912354
v 0.12681885063648224 -0.23093627393245697 1.2402727603912354
v 0.12681885063648224 -0.23093627393245697 0.6498382687568665
v 0.12681885063648224 -0.23093627393245697 0.6498382687568665
v 0.12681885063648224 -0.23093627393245697 1.2402727603912354
v -0.12681762874126434 -0.23093627393245697 1.2402727603912354
v -0.12681762874126434 -0.23093627393245697 0.6498382687568665
v -0.12681762874126434 -0.23093627393245697 0.6498382687568665
v -0.12681762874126434 -0.23093627393245697 1.2402727603912354
v -0.30616453289985657 -0.13001036643981934 1.2402727603912354
v -0.30616453289985657 -0.13001036643981934 0.6498382687568665
v -0.30616453289985657 0.1300097554922104 0.6498382687568665
v -0.12681762874126434 0.23093627393245697 0.6498382687568665
v -0.12681762874126434 0.1300097554922104 0.43022000789642334
v -0.12681762874126434 0.23093627393245697 0.6498382687568665
v 0.12681885063648224 0.23093627393245697 0.6498382687568665
v 0.12681885063648224 0.1300097554922104 0.43022000789642334
v -0.12681762874126434 0.1300097554922104 0.43022000789642334
v 0.12681885063648224 0.1300097554922104 0.43022000789642334
v 0.12681885063648224 0.23093627393245697 0.6498382687568665
v 0.30616453289985657 0.1300097554922104 0.6498382687568665
v -0.12681762874126434 0.1300097554922104 0.43022000789642334
v -0.12681762874126434 -0.13001036643981934 0.43022000789642334
v -0.30616453289985657 -0.13001036643981934 0.6498382687568665
v -0.30616453289985657 0.1300097554922104 0.6498382687568665
v -0.12681762874126434 -0.13001036643981934 0.43022000789642334
v -0.12681762874126434 0.1300097554922104 0.43022000789642334
v 0.12681885063648224 0.1300097554922104 0.43022000789642334
v 0.12681885063648224 -0.13001036643981934 0.43022000789642334
v 0.30616453289985657 -0.13001036643981934 0.6498382687568665
v 0.12681885063648224 -0.13001036643981934 0.43022000789642334
v 0.12681885063648224 0.1300097554922104 0.43022000789642334
v 0.30616453289985657 0.1300097554922104 0.6498382687568665
v -0.12681762874126434 -0.13001036643981934 0.43022000789642334
v -0.12681762874126434 -0.23093627393245697 0.6498382687568665
v -0.30616453289985657 -0.13001036643981934 0.6498382687568665
v 0.12681885063648224 -0.13001036643981934 0.43022000789642334
v 0.12681885063648224 -0.23093627393245697 0.6498382687568665
v -0.12681762874126434 -0.23093627393245697 0.6498382687568665
v -0.12681762874126434 -0.13001036643981934 0.43022000789642334
v 0.30616453289985657 -0.13001036643981934 0.6498382687568665
v 0.12681885063648224 -0.23093627393245697 0.6498382687568665
v 0.12681885063648224 -0.13001036643981934 0.43022000789642334
vn 0.6870157122612 0.7266426086425781 0.0
vn 0.6870157122612 0.7266425490379333 0.0
vn 0.6870157122612 0.7266425490379333 0.0
vn 0.6870157122612 0.7266426086425781 0.0
vn 0.24555549025535583 0.9693825244903564 1.6381484613248176e-07
vn 0.24555549025535583 0.9693825244903564 1.6381486034333648e-07
vn 0.24555549025535583 0.9693825244903564 1.6381483192162705e-07
vn 0.24555546045303345 0.9693825244903564 1.6381484613248176e-07
vn -0.2455611675977707 0.9693810939788818 1.6381865464154544e-07
vn -0.2455611675977707 0.9693810939788818 1.6381865464154544e-07
vn -0.2455611675977707 0.9693810939788818 1.6381865464154544e-07
vn -0.2455611675977707 0.9693810939788818 1.6381865464154544e-07
vn -0.687014102935791 0.7266441583633423 0.0
vn -0.687014102935791 0.7266441583633423 0.0
vn -0.687014102935791 0.7266441583633423 0.0
vn -0.6870140433311462 0.7266440391540527 0.0
vn -0.962103545665741 0.2726839780807495 0.0
vn -0.962103545665741 0.2726839780807495 0.0
vn -0.962103545665741 0.2726839780807495 0.0
vn -0.962103545665741 0.2726839780807495 0.0
vn -0.9621039032936096 -0.27268293499946594 0.0
vn -0.9621039032936096 -0.27268287539482117 0.0
vn -0.9621039032936096 -0.27268290519714355 0.0
vn -0.9621039032936096 -0.27268287539482117 0.0
vn -0.6870033740997314 -0.7266542911529541 0.0
vn -0.6870033740997314 -0.7266541719436646 0.0
vn -0.6870033740997314 -0.7266541719436646 0.0
vn -0.6870033740997314 -0.7266542911529541 0.0
vn -0.24557414650917053 -0.9693776965141296 -4.329477860665065e-07
vn -0.24557414650917053 -0.9693776965141296 -4.3294772922308766e-07
vn -0.24557414650917053 -0.9693776965141296 -4.329477576447971e-07
vn -0.24557414650917053 -0.9693776965141296 -4.329477576447971e-07
vn 0.24557414650917053 -0.9693776965141296 -4.329477576447971e-07
vn 0.24557414650917053 -0.9693776965141296 -4.329478429099254e-07
vn 0.24557414650917053 -0.9693776965141296 -4.329477576447971e-07
vn 0.24557414650917053 -0.9693776965141296 -4.329477860665065e-07
vn 0.6870017051696777 -0.7266557812690735 0.0
vn 0.6870017647743225 -0.7266557812690735 0.0
vn 0.6870017647743225 -0.7266557812690735 0.0
vn 0.6870018243789673 -0.7266557216644287 0.0
vn 0.9621102213859558 -0.2726607918739319 0.0
vn 0.9621102213859558 -0.2726607918739319 0.0
vn 0.9621102213859558 -0.2726607620716095 0.0
vn 0.9621102213859558 -0.2726607918739319 0.0
vn 0.9621105194091797 0.272659569978714 0.0
vn 0.9621105194091797 0.2726595997810364 0.0
vn 0.9621105194091797 0.2726595997810364 0.0
vn 0.9621105194091797 0.2726595997810364 0.0
vn 0.0 1.0 0.0
vn 0.0 1.0 0.0
vn 0.0 1.0 0.0
vn 0.0 1.0 0.0
vn 0.49042466282844543 0.871483564376831 0.0
vn 0.49042466282844543 0.871483564376831 0.0
vn 0.49042466282844543 0.871483564376831 0.0
vn 0.49042466282844543 0.871483564376831 0.0
vn -1.0 0.0 0.0
vn -1.0 0.0 0.0
vn -1.0 0.0 0.0
vn -1.0 0.0 0.0
vn -0.49042195081710815 0.8714851140975952 0.0
vn -0.49042195081710815 0.8714851140975952 0.0
vn -0.49042195081710815 0.8714851140975952 0.0
vn -0.49042195081710815 0.8714851140975952 0.0
vn 1.0 0.0 0.0
vn 1.0 0.0 0.0
vn 1.0 0.0 0.0
vn 1.0 0.0 0.0
vn 0.4904225766658783 -0.8714847564697266 0.0
vn 0.4904225766658783 -0.8714847564697266 0.0
vn 0.4904225766658783 -0.8714847564697266 0.0
vn 0.4904225766658783 -0.8714847564697266 0.0
vn 0.0 -1.0 0.0
vn 0.0 -1.0 0.0
vn 0.0 -1.0 0.0
vn 0.0 -1.0 0.0
vn -0.49041980504989624 -0.8714863061904907 0.0
vn -0.49041980504989624 -0.8714863061904907 0.0
vn -0.49041980504989624 -0.8714863061904907 0.0
vn -0.49041980504989624 -0.8714863061904907 0.0
vn -0.4552660584449768 0.8090177774429321 -0.371783584356308
vn -0.4552660584449768 0.8090178370475769 -0.371783584356308
vn -0.4552660584449768 0.8090177774429321 -0.371783584356308
vn 0.0 0.908643901348114 -0.4175717532634735
vn 0.0 0.908643901348114 -0.4175717532634735
vn 0.0 0.908643901348114 -0.4175717532634735
vn 0.0 0.908643901348114 -0.4175717532634735
vn 0.4552724361419678 0.8090130090713501 -0.37178629636764526
vn 0.4552724063396454 0.8090130090713501 -0.37178629636764526
vn 0.4552724063396454 0.8090130090713501 -0.37178629636764526
vn -0.7745459675788879 0.0 -0.6325176358222961
vn -0.7745459675788879 0.0 -0.6325176358222961
vn -0.7745459675788879 0.0 -0.6325176358222961
vn -0.7745459675788879 0.0 -0.6325176358222961
vn 0.0 0.0 -1.0
vn 0.0 0.0 -1.0
vn 0.0 0.0 -1.0
vn 0.0 0.0 -1.0
vn 0.7745479941368103 0.0 -0.6325150728225708
vn 0.7745479941368103 0.0 -0.6325150728225708
vn 0.7745479941368103 0.0 -0.6325150728225708
vn 0.7745479941368103 0.0 -0.6325150728225708
vn -0.45526403188705444 -0.8090195655822754 -0.3717821538448334
vn -0.45526403188705444 -0.8090195655822754 -0.37178218364715576
vn -0.45526406168937683 -0.8090195655822754 -0.37178224325180054
vn 0.0 -0.9086449146270752 -0.41756972670555115
vn 0.0 -0.9086449146270752 -0.41756972670555115
vn 0.0 -0.9086449146270752 -0.41756972670555115
vn 0.0 -0.9086449146270752 -0.41756972670555115
vn 0.45527034997940063 -0.8090147972106934 -0.37178483605384827
vn 0.45527034997940063 -0.8090147972106934 -0.37178483605384827
vn 0.455270379781723 -0.8090147376060486 -0.37178486585617065
vt 0.9141753911972046 0.08748912811279297
vt 0.9141753911972046 0.07158470153808594
vt 0.9152195453643799 0.07158470153808594
vt 0.9152195453643799 0.08748912811279297
vt 0.9131311774253845 0.08748912811279297
vt 0.9131311774253845 0.07158470153808594
vt 0.9141753911972046 0.07158470153808594
vt 0.9141753911972046 0.08748912811279297
vt 0.9120869636535645 0.08748912811279297
vt 0.9120869636535645 0.07158470153808594
vt 0.9131311774253845 0.07158470153808594
vt 0.9131311774253845 0.08748912811279297
vt 0.9110427498817444 0.08748912811279297
vt 0.9110427498817444 0.07158470153808594
vt 0.9120869636535645 0.07158470153808594
vt 0.9120869636535645 0.08748912811279297
vt 0.9225289821624756 0.08748912811279297
vt 0.9225289821624756 0.07158470153808594
vt 0.9235731959342957 0.07158470153808594
vt 0.9235731959342957 0.08748912811279297
vt 0.9214847683906555 0.08748912811279297
vt 0.9214847683906555 0.07158470153808594
vt 0.9225289821624756 0.07158470153808594
vt 0.9225289821624756 0.08748912811279297
vt 0.9204405546188354 0.08748912811279297
vt 0.9204405546188354 0.07158470153808594
vt 0.9214847683906555 0.07158470153808594
vt 0.9214847683906555 0.08748912811279297
vt 0.9193963408470154 0.08748912811279297
vt 0.9193963408470154 0.07158470153808594
vt 0.9204405546188354 0.07158470153808594
vt 0.9204405546188354 0.08748912811279297
vt 0.9183521866798401 0.08748912811279297
vt 0.9183521866798401 0.07158470153808594
vt 0.9193963408470154 0.07158470153808594
vt 0.9193963408470154 0.08748912811279297
vt 0.91730797290802 0.08748912811279297
vt 0.91730797290802 0.07158470153808594
vt 0.9183521866798401 0.07158470153808594
vt 0.9183521866798401 0.08748912811279297
vt 0.9162637591362 0.08748912811279297
vt 0.9162637591362 0.07158470153808594
vt 0.91730797290802 0.07158470153808594
vt 0.91730797290802 0.08748912811279297
vt 0.9152195453643799 0.08748912811279297
vt 0.9152195453643799 0.07158470153808594
vt 0.9162637591362 0.07158470153808594
vt 0.9162637591362 0.08748912811279297
vt 0.9126090407371521 0.09042739868164062
vt 0.9110427498817444 0.09042739868164062
vt 0.9110427498817444 0.07158470153808594
vt 0.9126090407371521 0.07158470153808594
vt 0.9141753911972046 0.09042739868164062
vt 0.9126090407371521 0.09042739868164062
vt 0.9126090407371521 0.07158470153808594
vt 0.9141753911972046 0.07158470153808594
vt 0.9220068454742432 0.09042739868164062
vt 0.9204405546188354 0.09042739868164062
vt 0.9204405546188354 0.07158470153808594
vt 0.9220068454742432 0.07158470153808594
vt 0.9235731959342957 0.09042739868164062
vt 0.9220068454742432 0.09042739868164062
vt 0.9220068454742432 0.07158470153808594
vt 0.9235731959342957 0.07158470153808594
vt 0.9141753911972046 0.09042739868164062
vt 0.9141753911972046 0.07158470153808594
vt 0.9157416820526123 0.07158470153808594
vt 0.9157416820526123 0.09042739868164062
vt 0.9157416820526123 0.09042739868164062
vt 0.9157416820526123 0.07158470153808594
vt 0.91730797290802 0.07158470153808594
vt 0.91730797290802 0.09042739868164062
vt 0.91730797290802 0.09042739868164062
vt 0.91730797290802 0.07158470153808594
vt 0.9188742637634277 0.07158470153808594
vt 0.9188742637634277 0.09042739868164062
vt 0.9188742637634277 0.09042739868164062
vt 0.9188742637634277 0.07158470153808594
vt 0.9204405546188354 0.07158470153808594
vt 0.9204405546188354 0.09042739868164062
vt 0.9251394867897034 0.09825897216796875
vt 0.9228456616401672 0.10379660129547119
vt 0.9212237000465393 0.09988093376159668
vt 0.9228456616401672 0.10379660129547119
vt 0.91730797290802 0.10609042644500732
vt 0.9156860113143921 0.10217469930648804
vt 0.9212237000465393 0.09988093376159668
vt 0.9156860113143921 0.10217469930648804
vt 0.91730797290802 0.10609042644500732
vt 0.911770224571228 0.10379660129547119
vt 0.9212237000465393 0.09988093376159668
vt 0.918929934501648 0.09434318542480469
vt 0.9228456616401672 0.09272122383117676
vt 0.9251394867897034 0.09825897216796875
vt 0.918929934501648 0.09434318542480469
vt 0.9212237000465393 0.09988093376159668
vt 0.9156860113143921 0.10217469930648804
vt 0.913392186164856 0.09663701057434082
vt 0.9094764590263367 0.09825897216796875
vt 0.913392186164856 0.09663701057434082
vt 0.9156860113143921 0.10217469930648804
vt 0.911770224571228 0.10379660129547119
vt 0.918929934501648 0.09434318542480469
vt 0.91730797290802 0.09042739868164062
vt 0.9228456616401672 0.09272122383117676
vt 0.913392186164856 0.09663701057434082
vt 0.911770224571228 0.09272122383117676
vt 0.91730797290802 0.09042739868164062
vt 0.918929934501648 0.09434318542480469
vt 0.9094764590263367 0.09825897216796875
vt 0.911770224571228 0.09272122383117676
vt 0.913392186164856 0.09663701057434082

g SMG_H_Arm_T7
s 1
usemtl SMG_H_Arm_T7
f 1/1/1 2/2/2 3/3/3 
f 1/1/1 3/3/3 4/4/4 
f 5/5/5 6/6/6 7/7/7 
f 5/5/5 7/7/7 8/8/8 
f 9/9/9 10/10/10 11/11/11 
f 9/9/9 11/11/11 12/12/12 
f 13/13/13 14/14/14 15/15/15 
f 13/13/13 15/15/15 16/16/16 
f 17/17/17 18/18/18 19/19/19 
f 17/17/17 19/19/19 20/20/20 
f 21/21/21 22/22/22 23/23/23 
f 21/21/21 23/23/23 24/24/24 
f 25/25/25 26/26/26 27/27/27 
f 25/25/25 27/27/27 28/28/28 
f 29/29/29 30/30/30 31/31/31 
f 29/29/29 31/31/31 32/32/32 
f 33/33/33 34/34/34 35/35/35 
f 33/33/33 35/35/35 36/36/36 
f 37/37/37 38/38/38 39/39/39 
f 37/37/37 39/39/39 40/40/40 
f 41/41/41 42/42/42 43/43/43 
f 41/41/41 43/43/43 44/44/44 
f 45/45/45 46/46/46 47/47/47 
f 45/45/45 47/47/47 48/48/48 
f 49/49/49 50/50/50 51/51/51 
f 49/49/49 51/51/51 52/52/52 
f 53/53/53 54/54/54 55/55/55 
f 53/53/53 55/55/55 56/56/56 
f 57/57/57 58/58/58 59/59/59 
f 57/57/57 59/59/59 60/60/60 
f 61/61/61 62/62/62 63/63/63 
f 61/61/61 63/63/63 64/64/64 
f 65/65/65 66/66/66 67/67/67 
f 65/65/65 67/67/67 68/68/68 
f 69/69/69 70/70/70 71/71/71 
f 69/69/69 71/71/71 72/72/72 
f 73/73/73 74/74/74 75/75/75 
f 73/73/73 75/75/75 76/76/76 
f 77/77/77 78/78/78 79/79/79 
f 77/77/77 79/79/79 80/80/80 
f 81/81/81 82/82/82 83/83/83 
f 84/84/84 85/85/85 86/86/86 
f 84/84/84 86/86/86 87/87/87 
f 88/88/88 89/89/89 90/90/90 
f 91/91/91 92/92/92 93/93/93 
f 91/91/91 93/93/93 94/94/94 
f 95/95/95 96/96/96 97/97/97 
f 95/95/95 97/97/97 98/98/98 
f 99/99/99 100/100/100 101/101/101 
f 99/99/99 101/101/101 102/102/102 
f 103/103/103 104/104/104 105/105/105 
f 106/106/106 107/107/107 108/108/108 
f 106/106/106 108/108/108 109/109/109 
f 110/110/110 111/111/111 112/112/112 

