v 0.49994993209838867 0.057183992117643356 -0.4995511472225189
v 0.3833557069301605 0.13022975623607635 -0.38358503580093384
v 0.3833557069301605 0.13022975623607635 0.3823245167732239
v 0.5000500082969666 0.05711333453655243 0.4995494782924652
v -0.5000518560409546 0.0564882755279541 0.5004504919052124
v -0.37168821692466736 0.13022975623607635 0.3823245167732239
v -0.37168821692466736 0.13022975623607635 -0.38358503580093384
v -0.499948114156723 0.05655337870121002 -0.5004488229751587
v -0.37168821692466736 0.13022975623607635 -0.38358503580093384
v 0.3833557069301605 0.13022975623607635 -0.38358503580093384
v 0.49994993209838867 0.057183992117643356 -0.4995511472225189
v -0.499948114156723 0.05655337870121002 -0.5004488229751587
v 0.3833557069301605 0.13022975623607635 0.3823245167732239
v -0.37168821692466736 0.13022975623607635 0.3823245167732239
v -0.5000518560409546 0.0564882755279541 0.5004504919052124
v 0.5000500082969666 0.05711333453655243 0.4995494782924652
v -0.37168821692466736 0.13022975623607635 0.3823245167732239
v 0.3833557069301605 0.13022975623607635 0.3823245167732239
v 0.3833557069301605 0.13022975623607635 -0.38358503580093384
v -0.37168821692466736 0.13022975623607635 -0.38358503580093384
v 0.5 0.0 -0.5
v 0.5 0.0 0.5
v -0.5 0.0 0.5
v -0.5 0.0 -0.5
v 0.5000500082969666 0.05711333453655243 0.4995494782924652
v -0.5000518560409546 0.0564882755279541 0.5004504919052124
v -0.5 0.0 0.5
v 0.5 0.0 0.5
v 0.5 0.0 0.5
v 0.5 0.0 -0.5
v 0.49994993209838867 0.057183992117643356 -0.4995511472225189
v 0.5000500082969666 0.05711333453655243 0.4995494782924652
v 0.5 0.0 -0.5
v -0.5 0.0 -0.5
v -0.499948114156723 0.05655337870121002 -0.5004488229751587
v 0.49994993209838867 0.057183992117643356 -0.4995511472225189
v -0.5 0.0 -0.5
v -0.5 0.0 0.5
v -0.5000518560409546 0.0564882755279541 0.5004504919052124
v -0.499948114156723 0.05655337870121002 -0.5004488229751587
vn 0.5309306383132935 0.8474152684211731 3.8123653212096542e-06
vn 0.5309306383132935 0.8474152684211731 3.8123650938359788e-06
vn 0.5309306979179382 0.8474152684211731 3.8123650938359788e-06
vn 0.5309306979179382 0.8474152684211731 3.8123650938359788e-06
vn -0.49811384081840515 0.8671116232872009 2.7080525342171313e-06
vn -0.4981139004230499 0.8671116232872009 2.7080527615908068e-06
vn -0.4981139004230499 0.8671116232872009 2.7080525342171313e-06
vn -0.4981139004230499 0.8671116232872009 2.7080527615908068e-06
vn -3.129139804514125e-05 0.8460277318954468 -0.5331388115882874
vn -3.129139440716244e-05 0.8460277318954468 -0.5331388115882874
vn -3.129139804514125e-05 0.8460277318954468 -0.5331388115882874
vn -3.129139804514125e-05 0.8460277318954468 -0.5331388711929321
vn -3.036179259652272e-05 0.848381757736206 0.5293848514556885
vn -3.036179259652272e-05 0.848381757736206 0.5293848514556885
vn -3.036179259652272e-05 0.8483818769454956 0.5293848514556885
vn -3.0361794415512122e-05 0.848381757736206 0.5293848514556885
vn 0.0 1.0 0.0
vn 0.0 1.0 0.0
vn 0.0 1.0 0.0
vn 0.0 1.0 0.0
vn 0.0 -1.0 0.0
vn 0.0 -1.0 0.0
vn 0.0 -1.0 0.0
vn 0.0 -1.0 0.0
vn 0.000450489460490644 0.0 0.9999998807907104
vn 0.0004504894313868135 0.0 0.9999998807907104
vn 0.000450489460490644 0.0 0.9999998807907104
vn 0.0004504893731791526 0.0 0.9999998807907104
vn 1.0 -8.547896186428261e-07 -5.0071343139279634e-05
vn 1.0 -8.547896186428261e-07 -5.0071343139279634e-05
vn 1.0 -8.54789675486245e-07 -5.0071343139279634e-05
vn 1.0 -8.547896186428261e-07 -5.007133950130083e-05
vn 0.00044880848145112395 0.0 -0.9999998807907104
vn 0.0004488085105549544 0.0 -0.9999998807907104
vn 0.0004488085105549544 0.0 -0.9999998807907104
vn 0.0004488085687626153 0.0 -0.9999998807907104
vn -1.0 8.635079780106025e-07 -5.185656118555926e-05
vn -1.0 8.635078643237648e-07 -5.185656118555926e-05
vn -1.0 8.635079780106025e-07 -5.185656118555926e-05
vn -1.0 8.635079780106025e-07 -5.185656118555926e-05
vt 0.7509225606918335 0.10551661252975464
vt 0.7512573599815369 0.10584968328475952
vt 0.7512573599815369 0.10804921388626099
vt 0.7509222030639648 0.10838586091995239
vt 0.7346607446670532 0.10858148336410522
vt 0.7342963218688965 0.10824602842330933
vt 0.7342963218688965 0.10607165098190308
vt 0.7346603870391846 0.1057397723197937
vt 0.7272417545318604 0.07053893804550171
vt 0.7250714898109436 0.07053893804550171
vt 0.7247364521026611 0.07020562887191772
vt 0.7276103496551514 0.07020300626754761
vt 0.7114588618278503 0.07020145654678345
vt 0.7136262655258179 0.07020145654678345
vt 0.7139945030212402 0.07054060697555542
vt 0.711124062538147 0.0705379843711853
vt 0.747515082359314 0.1023516058921814
vt 0.7455187439918518 0.1023516058921814
vt 0.7455187439918518 0.10032671689987183
vt 0.747515082359314 0.10032671689987183
vt 0.7279576063156128 0.10588318109512329
vt 0.7279576063156128 0.10323923826217651
vt 0.7306014895439148 0.10323923826217651
vt 0.7306014895439148 0.10588318109512329
vt 0.7224974036216736 0.1052137017250061
vt 0.7224957942962646 0.10785752534866333
vt 0.7223464250564575 0.10785752534866333
vt 0.7223464250564575 0.1052137017250061
vt 0.7250481843948364 0.10744184255599976
vt 0.7250481843948364 0.10479801893234253
vt 0.7251993417739868 0.10479921102523804
vt 0.7251991033554077 0.10744065046310425
vt 0.7541906833648682 0.10500580072402954
vt 0.7541906833648682 0.10764974355697632
vt 0.754041314125061 0.10764962434768677
vt 0.7540396451950073 0.10500591993331909
vt 0.7358550429344177 0.10796266794204712
vt 0.7358550429344177 0.10531860589981079
vt 0.7360042929649353 0.10531753301620483
vt 0.7360044717788696 0.10796362161636353

g SMG_Base_T3
s 1
usemtl SMG_Base_T3
f 1/1/1 2/2/2 3/3/3 
f 1/1/1 3/3/3 4/4/4 
f 5/5/5 6/6/6 7/7/7 
f 5/5/5 7/7/7 8/8/8 
f 9/9/9 10/10/10 11/11/11 
f 9/9/9 11/11/11 12/12/12 
f 13/13/13 14/14/14 15/15/15 
f 13/13/13 15/15/15 16/16/16 
f 17/17/17 18/18/18 19/19/19 
f 17/17/17 19/19/19 20/20/20 
f 21/21/21 22/22/22 23/23/23 
f 21/21/21 23/23/23 24/24/24 
f 25/25/25 26/26/26 27/27/27 
f 25/25/25 27/27/27 28/28/28 
f 29/29/29 30/30/30 31/31/31 
f 29/29/29 31/31/31 32/32/32 
f 33/33/33 34/34/34 35/35/35 
f 33/33/33 35/35/35 36/36/36 
f 37/37/37 38/38/38 39/39/39 
f 37/37/37 39/39/39 40/40/40 

