v -0.10677001625299454 0.06017394736409187 3.0517577442878974e-07
v -0.10677001625299454 0.06017394736409187 0.5664681792259216
v -0.06127075105905533 0.10355882346630096 0.5664681792259216
v -0.06127075105905533 0.10355882346630096 3.0517577442878974e-07
v -0.06127075105905533 0.10355882346630096 3.0517577442878974e-07
v -0.06127075105905533 0.10355882346630096 0.5664681792259216
v 0.0 0.11920405179262161 0.5664681792259216
v 0.0 0.11920405179262161 3.0517577442878974e-07
v 0.0 0.11920405179262161 3.0517577442878974e-07
v 0.0 0.11920405179262161 0.5664681792259216
v 0.061271972954273224 0.10355862230062485 0.5664681792259216
v 0.061271972954273224 0.10355862230062485 3.0517577442878974e-07
v 0.061271972954273224 0.10355862230062485 3.0517577442878974e-07
v 0.061271972954273224 0.10355862230062485 0.5664681792259216
v 0.10677123814821243 0.060173701494932175 0.5664681792259216
v 0.10677123814821243 0.060173701494932175 3.0517577442878974e-07
v 0.10677123814821243 0.060173701494932175 3.0517577442878974e-07
v 0.10677123814821243 0.060173701494932175 0.5664681792259216
v 0.12367065250873566 1.1444091541079615e-07 0.5664681792259216
v 0.12367065250873566 1.1444091541079615e-07 3.0517577442878974e-07
v 0.12367065250873566 1.1444091541079615e-07 3.0517577442878974e-07
v 0.12367065250873566 1.1444091541079615e-07 0.5664681792259216
v 0.10677001625299454 -0.06017347052693367 0.5664681792259216
v 0.10677001625299454 -0.06017347052693367 3.0517577442878974e-07
v 0.10677001625299454 -0.06017347052693367 3.0517577442878974e-07
v 0.10677001625299454 -0.06017347052693367 0.5664681792259216
v 0.061271972954273224 -0.10355834662914276 0.5664681792259216
v 0.061271972954273224 -0.10355834662914276 3.0517577442878974e-07
v 0.061271972954273224 -0.10355834662914276 3.0517577442878974e-07
v 0.061271972954273224 -0.10355834662914276 0.5664681792259216
v 0.0 -0.11920391023159027 0.5664678812026978
v 0.0 -0.11920391023159027 -3.0517577442878974e-07
v 0.0 -0.11920391023159027 -3.0517577442878974e-07
v 0.0 -0.11920391023159027 0.5664678812026978
v -0.06127075105905533 -0.1035585030913353 0.5664681792259216
v -0.06127075105905533 -0.1035585030913353 3.0517577442878974e-07
v -0.06127075105905533 -0.1035585030913353 3.0517577442878974e-07
v -0.06127075105905533 -0.1035585030913353 0.5664681792259216
v -0.10677001625299454 -0.06017414107918739 0.5664681792259216
v -0.10677001625299454 -0.06017414107918739 3.0517577442878974e-07
v -0.10677001625299454 -0.06017414107918739 3.0517577442878974e-07
v -0.10677001625299454 -0.06017414107918739 0.5664681792259216
v -0.12367065250873566 -3.2424927098873013e-07 0.5664681792259216
v -0.12367065250873566 -3.2424927098873013e-07 3.0517577442878974e-07
v -0.12367065250873566 -3.2424927098873013e-07 3.0517577442878974e-07
v -0.12367065250873566 -3.2424927098873013e-07 0.5664681792259216
v -0.10677001625299454 0.06017394736409187 0.5664681792259216
v -0.10677001625299454 0.06017394736409187 3.0517577442878974e-07
v 0.14925169944763184 0.22115005552768707 0.5657000541687012
v -0.14925169944763184 0.22115005552768707 0.5657000541687012
v -0.14925169944763184 0.22115005552768707 1.036973237991333
v 0.14925169944763184 0.22115005552768707 1.036973237991333
v 0.30616453289985657 0.12450027465820312 0.5657000541687012
v 0.14925169944763184 0.22115005552768707 0.5657000541687012
v 0.14925169944763184 0.22115005552768707 1.036973237991333
v 0.30616453289985657 0.12450027465820312 1.036973237991333
v -0.30616453289985657 0.12450027465820312 0.5657000541687012
v -0.30616453289985657 -0.12450119107961655 0.5657000541687012
v -0.30616453289985657 -0.12450119107961655 1.036973237991333
v -0.30616453289985657 0.12450027465820312 1.036973237991333
v -0.14925169944763184 0.22115005552768707 0.5657000541687012
v -0.30616453289985657 0.12450027465820312 0.5657000541687012
v -0.30616453289985657 0.12450027465820312 1.036973237991333
v -0.14925169944763184 0.22115005552768707 1.036973237991333
v 0.30616453289985657 0.12450027465820312 0.5657000541687012
v 0.30616453289985657 0.12450027465820312 1.036973237991333
v 0.30616453289985657 -0.12450119107961655 1.036973237991333
v 0.30616453289985657 -0.12450119107961655 0.5657000541687012
v 0.30616453289985657 -0.12450119107961655 0.5657000541687012
v 0.30616453289985657 -0.12450119107961655 1.036973237991333
v 0.14925169944763184 -0.22115005552768707 1.036973237991333
v 0.14925169944763184 -0.22115005552768707 0.5657000541687012
v 0.14925169944763184 -0.22115005552768707 0.5657000541687012
v 0.14925169944763184 -0.22115005552768707 1.036973237991333
v -0.14925169944763184 -0.22115005552768707 1.036973237991333
v -0.14925169944763184 -0.22115005552768707 0.5657000541687012
v -0.14925169944763184 -0.22115005552768707 0.5657000541687012
v -0.14925169944763184 -0.22115005552768707 1.036973237991333
v -0.30616453289985657 -0.12450119107961655 1.036973237991333
v -0.30616453289985657 -0.12450119107961655 0.5657000541687012
v -0.30616453289985657 0.12450027465820312 0.5657000541687012
v -0.14925169944763184 0.22115005552768707 0.5657000541687012
v -0.14925169944763184 0.12450027465820312 0.34608185291290283
v -0.14925169944763184 0.22115005552768707 0.5657000541687012
v 0.14925169944763184 0.22115005552768707 0.5657000541687012
v 0.14925169944763184 0.12450027465820312 0.34608185291290283
v -0.14925169944763184 0.12450027465820312 0.34608185291290283
v 0.14925169944763184 0.12450027465820312 0.34608185291290283
v 0.14925169944763184 0.22115005552768707 0.5657000541687012
v 0.30616453289985657 0.12450027465820312 0.5657000541687012
v -0.14925169944763184 0.12450027465820312 0.34608185291290283
v -0.14925169944763184 -0.12450119107961655 0.34608185291290283
v -0.30616453289985657 -0.12450119107961655 0.5657000541687012
v -0.30616453289985657 0.12450027465820312 0.5657000541687012
v -0.14925169944763184 -0.12450119107961655 0.34608185291290283
v -0.14925169944763184 0.12450027465820312 0.34608185291290283
v 0.14925169944763184 0.12450027465820312 0.34608185291290283
v 0.14925169944763184 -0.12450119107961655 0.34608185291290283
v 0.30616453289985657 -0.12450119107961655 0.5657000541687012
v 0.14925169944763184 -0.12450119107961655 0.34608185291290283
v 0.14925169944763184 0.12450027465820312 0.34608185291290283
v 0.30616453289985657 0.12450027465820312 0.5657000541687012
v -0.14925169944763184 -0.12450119107961655 0.34608185291290283
v -0.14925169944763184 -0.22115005552768707 0.5657000541687012
v -0.30616453289985657 -0.12450119107961655 0.5657000541687012
v 0.14925169944763184 -0.12450119107961655 0.34608185291290283
v 0.14925169944763184 -0.22115005552768707 0.5657000541687012
v -0.14925169944763184 -0.22115005552768707 0.5657000541687012
v -0.14925169944763184 -0.12450119107961655 0.34608185291290283
v 0.30616453289985657 -0.12450119107961655 0.5657000541687012
v 0.14925169944763184 -0.22115005552768707 0.5657000541687012
v 0.14925169944763184 -0.12450119107961655 0.34608185291290283
vn -0.8565257787704468 0.5161041021347046 0.0
vn -0.8565257787704468 0.5161041021347046 0.0
vn -0.48384541273117065 0.8751534819602966 0.0
vn -0.48384541273117065 0.8751534819602966 0.0
vn -0.48384541273117065 0.8751534819602966 0.0
vn -0.48384541273117065 0.8751534819602966 0.0
vn 1.6792652104413719e-06 1.0 0.0
vn 1.6792652104413719e-06 1.0 0.0
vn 1.6792652104413719e-06 1.0 0.0
vn 1.6792652104413719e-06 1.0 0.0
vn 0.4838421940803528 0.8751552104949951 0.0
vn 0.4838421940803528 0.8751552104949951 0.0
vn 0.4838421940803528 0.8751552104949951 0.0
vn 0.4838421940803528 0.8751552104949951 0.0
vn 0.8565294742584229 0.5160982608795166 0.0
vn 0.8565294742584229 0.5160982608795166 0.0
vn 0.8565294742584229 0.5160982608795166 0.0
vn 0.8565294742584229 0.5160982608795166 0.0
vn 1.0 -1.147056718764361e-05 0.0
vn 1.0 -1.147056718764361e-05 0.0
vn 1.0 -1.147056718764361e-05 0.0
vn 1.0 -1.147056718764361e-05 0.0
vn 0.8565293550491333 -0.5160983204841614 0.0
vn 0.8565293550491333 -0.5160983204841614 0.0
vn 0.8565293550491333 -0.5160983204841614 0.0
vn 0.8565293550491333 -0.5160983204841614 0.0
vn 0.48384425044059753 -0.8751541376113892 0.0
vn 0.4838431477546692 -0.8751546740531921 0.0
vn 0.4838431477546692 -0.8751546740531921 0.0
vn 0.48384425044059753 -0.8751541376113892 0.0
vn -1.1614885124799912e-06 -1.0 0.0
vn -1.1614993127295747e-06 -1.0 0.0
vn -1.1614993127295747e-06 -1.0 0.0
vn -1.1614885124799912e-06 -1.0 0.0
vn -0.48384755849838257 -0.8751522898674011 0.0
vn -0.4838464856147766 -0.8751528859138489 0.0
vn -0.4838464856147766 -0.8751528859138489 0.0
vn -0.48384755849838257 -0.8751522898674011 0.0
vn -0.8565236926078796 -0.5161077976226807 0.0
vn -0.8565236926078796 -0.5161077976226807 0.0
vn -0.8565236926078796 -0.5161077976226807 0.0
vn -0.8565236926078796 -0.5161077976226807 0.0
vn -1.0 0.0 0.0
vn -1.0 0.0 0.0
vn -1.0 0.0 0.0
vn -1.0 0.0 0.0
vn -0.8565257787704468 0.5161041021347046 0.0
vn -0.8565257787704468 0.5161041021347046 0.0
vn 0.0 1.0 0.0
vn 0.0 1.0 0.0
vn 0.0 1.0 0.0
vn 0.0 1.0 0.0
vn 0.5244458317756653 0.8514437675476074 0.0
vn 0.5244458317756653 0.8514437675476074 0.0
vn 0.5244458317756653 0.8514437675476074 0.0
vn 0.5244458317756653 0.8514437675476074 0.0
vn -1.0 0.0 0.0
vn -1.0 0.0 0.0
vn -1.0 0.0 0.0
vn -1.0 0.0 0.0
vn -0.5244418978691101 0.851446270942688 0.0
vn -0.5244418978691101 0.851446270942688 0.0
vn -0.5244418978691101 0.851446270942688 0.0
vn -0.5244418978691101 0.851446270942688 0.0
vn 1.0 0.0 0.0
vn 1.0 0.0 0.0
vn 1.0 0.0 0.0
vn 1.0 0.0 0.0
vn 0.5244422554969788 -0.8514460325241089 0.0
vn 0.5244422554969788 -0.8514460325241089 0.0
vn 0.5244422554969788 -0.8514460325241089 0.0
vn 0.5244422554969788 -0.8514460325241089 0.0
vn 0.0 -1.0 0.0
vn 0.0 -1.0 0.0
vn 0.0 -1.0 0.0
vn 0.0 -1.0 0.0
vn -0.524438202381134 -0.8514484167098999 0.0
vn -0.524438202381134 -0.8514484167098999 0.0
vn -0.524438202381134 -0.8514484167098999 0.0
vn -0.524438202381134 -0.8514484167098999 0.0
vn -0.49110695719718933 0.7973035573959351 -0.350885808467865
vn -0.4911070168018341 0.7973035573959351 -0.350885808467865
vn -0.4911070168018341 0.7973035573959351 -0.3508857786655426
vn 0.0 0.9152882695198059 -0.40279942750930786
vn 0.0 0.9152882695198059 -0.40279942750930786
vn 0.0 0.9152882695198059 -0.40279942750930786
vn 0.0 0.9152882695198059 -0.40279942750930786
vn 0.4911070168018341 0.7973035573959351 -0.3508857786655426
vn 0.4911070168018341 0.7973035573959351 -0.350885808467865
vn 0.49110695719718933 0.7973035573959351 -0.350885808467865
vn -0.8136587142944336 0.0 -0.5813429355621338
vn -0.8136587142944336 0.0 -0.5813429355621338
vn -0.8136587142944336 0.0 -0.5813429355621338
vn -0.8136587142944336 0.0 -0.5813429355621338
vn 0.0 0.0 -1.0
vn 0.0 0.0 -1.0
vn 0.0 0.0 -1.0
vn 0.0 0.0 -1.0
vn 0.8136587142944336 0.0 -0.5813429355621338
vn 0.8136587142944336 0.0 -0.5813429355621338
vn 0.8136587142944336 0.0 -0.5813429355621338
vn 0.8136587142944336 0.0 -0.5813429355621338
vn -0.4911041855812073 -0.79730623960495 -0.3508836030960083
vn -0.4911041855812073 -0.7973062992095947 -0.3508835732936859
vn -0.49110421538352966 -0.7973062992095947 -0.3508836030960083
vn 0.0 -0.9152897000312805 -0.4027961790561676
vn 0.0 -0.9152897000312805 -0.4027961790561676
vn 0.0 -0.9152897000312805 -0.4027961790561676
vn 0.0 -0.9152897000312805 -0.4027961790561676
vn 0.49110421538352966 -0.7973062992095947 -0.3508836030960083
vn 0.4911041855812073 -0.7973062992095947 -0.3508835732936859
vn 0.4911041855812073 -0.79730623960495 -0.3508836030960083
vt 0.9142952561378479 0.08253133296966553
vt 0.9142952561378479 0.07945466041564941
vt 0.9173720479011536 0.07945466041564941
vt 0.9173720479011536 0.08253133296966553
vt 0.9142952561378479 0.08253133296966553
vt 0.9142952561378479 0.07945466041564941
vt 0.9173720479011536 0.07945466041564941
vt 0.9173720479011536 0.08253133296966553
vt 0.9142952561378479 0.08253133296966553
vt 0.9142952561378479 0.07945466041564941
vt 0.9173720479011536 0.07945466041564941
vt 0.9173720479011536 0.08253133296966553
vt 0.9142952561378479 0.08253133296966553
vt 0.9142952561378479 0.07945466041564941
vt 0.9173720479011536 0.07945466041564941
vt 0.9173720479011536 0.08253133296966553
vt 0.9142952561378479 0.08253133296966553
vt 0.9142952561378479 0.07945466041564941
vt 0.9173720479011536 0.07945466041564941
vt 0.9173720479011536 0.08253133296966553
vt 0.9142952561378479 0.08253133296966553
vt 0.9142952561378479 0.07945466041564941
vt 0.9173720479011536 0.07945466041564941
vt 0.9173720479011536 0.08253133296966553
vt 0.9142952561378479 0.08253133296966553
vt 0.9142952561378479 0.07945466041564941
vt 0.9173720479011536 0.07945466041564941
vt 0.9173720479011536 0.08253133296966553
vt 0.9142952561378479 0.08253133296966553
vt 0.9142952561378479 0.07945466041564941
vt 0.9173720479011536 0.07945466041564941
vt 0.9173720479011536 0.08253133296966553
vt 0.9142952561378479 0.08253133296966553
vt 0.9142952561378479 0.07945466041564941
vt 0.9173720479011536 0.07945466041564941
vt 0.9173720479011536 0.08253133296966553
vt 0.9142952561378479 0.08253133296966553
vt 0.9142952561378479 0.07945466041564941
vt 0.9173720479011536 0.07945466041564941
vt 0.9173720479011536 0.08253133296966553
vt 0.9142952561378479 0.08253133296966553
vt 0.9142952561378479 0.07945466041564941
vt 0.9173720479011536 0.07945466041564941
vt 0.9173720479011536 0.08253133296966553
vt 0.9142952561378479 0.08253133296966553
vt 0.9142952561378479 0.07945466041564941
vt 0.9173720479011536 0.07945466041564941
vt 0.9173720479011536 0.08253133296966553
vt 0.9126090407371521 0.09042739868164062
vt 0.9110427498817444 0.09042739868164062
vt 0.9110427498817444 0.07158470153808594
vt 0.9126090407371521 0.07158470153808594
vt 0.9141753911972046 0.09042739868164062
vt 0.9126090407371521 0.09042739868164062
vt 0.9126090407371521 0.07158470153808594
vt 0.9141753911972046 0.07158470153808594
vt 0.9220068454742432 0.09042739868164062
vt 0.9204405546188354 0.09042739868164062
vt 0.9204405546188354 0.07158470153808594
vt 0.9220068454742432 0.07158470153808594
vt 0.9235731959342957 0.09042739868164062
vt 0.9220068454742432 0.09042739868164062
vt 0.9220068454742432 0.07158470153808594
vt 0.9235731959342957 0.07158470153808594
vt 0.9141753911972046 0.09042739868164062
vt 0.9141753911972046 0.07158470153808594
vt 0.9157416820526123 0.07158470153808594
vt 0.9157416820526123 0.09042739868164062
vt 0.9157416820526123 0.09042739868164062
vt 0.9157416820526123 0.07158470153808594
vt 0.91730797290802 0.07158470153808594
vt 0.91730797290802 0.09042739868164062
vt 0.91730797290802 0.09042739868164062
vt 0.91730797290802 0.07158470153808594
vt 0.9188742637634277 0.07158470153808594
vt 0.9188742637634277 0.09042739868164062
vt 0.9188742637634277 0.09042739868164062
vt 0.9188742637634277 0.07158470153808594
vt 0.9204405546188354 0.07158470153808594
vt 0.9204405546188354 0.09042739868164062
vt 0.9251394867897034 0.09825897216796875
vt 0.9228456616401672 0.10379660129547119
vt 0.9212237000465393 0.09988093376159668
vt 0.9228456616401672 0.10379660129547119
vt 0.91730797290802 0.10609042644500732
vt 0.9156860113143921 0.10217469930648804
vt 0.9212237000465393 0.09988093376159668
vt 0.9156860113143921 0.10217469930648804
vt 0.91730797290802 0.10609042644500732
vt 0.911770224571228 0.10379660129547119
vt 0.9212237000465393 0.09988093376159668
vt 0.918929934501648 0.09434318542480469
vt 0.9228456616401672 0.09272122383117676
vt 0.9251394867897034 0.09825897216796875
vt 0.918929934501648 0.09434318542480469
vt 0.9212237000465393 0.09988093376159668
vt 0.9156860113143921 0.10217469930648804
vt 0.913392186164856 0.09663701057434082
vt 0.9094764590263367 0.09825897216796875
vt 0.913392186164856 0.09663701057434082
vt 0.9156860113143921 0.10217469930648804
vt 0.911770224571228 0.10379660129547119
vt 0.918929934501648 0.09434318542480469
vt 0.91730797290802 0.09042739868164062
vt 0.9228456616401672 0.09272122383117676
vt 0.913392186164856 0.09663701057434082
vt 0.911770224571228 0.09272122383117676
vt 0.91730797290802 0.09042739868164062
vt 0.918929934501648 0.09434318542480469
vt 0.9094764590263367 0.09825897216796875
vt 0.911770224571228 0.09272122383117676
vt 0.913392186164856 0.09663701057434082

g SMG_H_Arm_T9
s 1
usemtl SMG_H_Arm_T9
f 1/1/1 2/2/2 3/3/3 
f 1/1/1 3/3/3 4/4/4 
f 5/5/5 6/6/6 7/7/7 
f 5/5/5 7/7/7 8/8/8 
f 9/9/9 10/10/10 11/11/11 
f 9/9/9 11/11/11 12/12/12 
f 13/13/13 14/14/14 15/15/15 
f 13/13/13 15/15/15 16/16/16 
f 17/17/17 18/18/18 19/19/19 
f 17/17/17 19/19/19 20/20/20 
f 21/21/21 22/22/22 23/23/23 
f 21/21/21 23/23/23 24/24/24 
f 25/25/25 26/26/26 27/27/27 
f 25/25/25 27/27/27 28/28/28 
f 29/29/29 30/30/30 31/31/31 
f 29/29/29 31/31/31 32/32/32 
f 33/33/33 34/34/34 35/35/35 
f 33/33/33 35/35/35 36/36/36 
f 37/37/37 38/38/38 39/39/39 
f 37/37/37 39/39/39 40/40/40 
f 41/41/41 42/42/42 43/43/43 
f 41/41/41 43/43/43 44/44/44 
f 45/45/45 46/46/46 47/47/47 
f 45/45/45 47/47/47 48/48/48 
f 49/49/49 50/50/50 51/51/51 
f 49/49/49 51/51/51 52/52/52 
f 53/53/53 54/54/54 55/55/55 
f 53/53/53 55/55/55 56/56/56 
f 57/57/57 58/58/58 59/59/59 
f 57/57/57 59/59/59 60/60/60 
f 61/61/61 62/62/62 63/63/63 
f 61/61/61 63/63/63 64/64/64 
f 65/65/65 66/66/66 67/67/67 
f 65/65/65 67/67/67 68/68/68 
f 69/69/69 70/70/70 71/71/71 
f 69/69/69 71/71/71 72/72/72 
f 73/73/73 74/74/74 75/75/75 
f 73/73/73 75/75/75 76/76/76 
f 77/77/77 78/78/78 79/79/79 
f 77/77/77 79/79/79 80/80/80 
f 81/81/81 82/82/82 83/83/83 
f 84/84/84 85/85/85 86/86/86 
f 84/84/84 86/86/86 87/87/87 
f 88/88/88 89/89/89 90/90/90 
f 91/91/91 92/92/92 93/93/93 
f 91/91/91 93/93/93 94/94/94 
f 95/95/95 96/96/96 97/97/97 
f 95/95/95 97/97/97 98/98/98 
f 99/99/99 100/100/100 101/101/101 
f 99/99/99 101/101/101 102/102/102 
f 103/103/103 104/104/104 105/105/105 
f 106/106/106 107/107/107 108/108/108 
f 106/106/106 108/108/108 109/109/109 
f 110/110/110 111/111/111 112/112/112 

