v 4.954010009765625 -0.3940270245075226 -3.641352415084839
v 6.040748596191406 -0.5 -4.442583084106445
v 5.358429431915283 -0.5 -5.241464614868164
v 4.404533386230469 -0.3940270245075226 -4.284692287445068
v 5.461947917938232 -0.3940270245075226 -2.8124706745147705
v 6.660447120666504 -0.5 -3.4313085079193115
v 5.833963394165039 -0.3940269351005554 -1.9143407344818115
v 7.114314556121826 -0.5 -2.335566282272339
v 6.060906410217285 -0.3940270245075226 -0.9690527319908142
v 7.391190052032471 -0.5 -1.1823046207427979
v 6.137179851531982 -0.3940270245075226 5.859374869032763e-05
v 7.484245300292969 -0.5 4.394531060825102e-05
v 6.060906410217285 -0.3940270245075226 0.9692187309265137
v 7.391190052032471 -0.5 1.1824266910552979
v 5.83396577835083 -0.3940269351005554 1.914492130279541
v 7.114316463470459 -0.5 2.3356688022613525
v 5.461946487426758 -0.3940270245075226 2.812626838684082
v 6.660444259643555 -0.5 3.4314305782318115
v 4.954007625579834 -0.3940270245075226 3.6414990425109863
v 6.040746212005615 -0.5 4.442680358886719
v 5.356941223144531 -0.5 5.243310451507568
v 4.403151988983154 -0.3940270245075226 4.286474704742432
v 4.963469505310059 -0.6067268252372742 -3.6482226848602295
v 6.040748596191406 -0.5 -4.442583084106445
v 6.660447120666504 -0.5 -3.4313085079193115
v 5.472367286682129 -0.6067268252372742 -2.8177783489227295
v 7.114314556121826 -0.5 -2.335566282272339
v 5.845085144042969 -0.6067268252372742 -1.9179491996765137
v 7.391190052032471 -0.5 -1.1823046207427979
v 6.072457313537598 -0.6067268252372742 -0.9708886742591858
v 7.484245300292969 -0.5 4.394531060825102e-05
v 6.148874282836914 -0.6067268252372742 5.859374869032763e-05
v 7.391190052032471 -0.5 1.1824266910552979
v 6.072457313537598 -0.6067268252372742 0.9710497856140137
v 7.114316463470459 -0.5 2.3356688022613525
v 5.845088481903076 -0.6067268252372742 1.9181005954742432
v 6.660444259643555 -0.5 3.4314305782318115
v 5.472365379333496 -0.6067268252372742 2.817939281463623
v 6.040746212005615 -0.5 4.442680358886719
v 4.963468074798584 -0.6067268252372742 3.64837384223938
v 5.356941223144531 -0.5 5.243310451507568
v 4.411422252655029 -0.6067268252372742 4.294731140136719
v 4.963469505310059 -0.6067268252372742 -3.6482226848602295
v 4.954010009765625 -0.3940270245075226 -3.641352415084839
v 4.404533386230469 -0.3940270245075226 -4.284692287445068
v 4.412801265716553 -0.6067268252372742 -4.292973518371582
v 5.472367286682129 -0.6067268252372742 -2.8177783489227295
v 5.845085144042969 -0.6067268252372742 -1.9179491996765137
v 5.461947917938232 -0.3940270245075226 -2.8124706745147705
v 5.833963394165039 -0.3940269351005554 -1.9143407344818115
v 6.072457313537598 -0.6067268252372742 -0.9708886742591858
v 6.060906410217285 -0.3940270245075226 -0.9690527319908142
v 6.148874282836914 -0.6067268252372742 5.859374869032763e-05
v 6.137179851531982 -0.3940270245075226 5.859374869032763e-05
v 5.472367286682129 -0.6067268252372742 -2.8177783489227295
v 5.461947917938232 -0.3940270245075226 -2.8124706745147705
v 4.954010009765625 -0.3940270245075226 -3.641352415084839
v 6.072457313537598 -0.6067268252372742 -0.9708886742591858
v 5.833963394165039 -0.3940269351005554 -1.9143407344818115
v 5.845085144042969 -0.6067268252372742 -1.9179491996765137
v 6.072457313537598 -0.6067268252372742 0.9710497856140137
v 6.060906410217285 -0.3940270245075226 0.9692187309265137
v 6.137179851531982 -0.3940270245075226 5.859374869032763e-05
v 6.148874282836914 -0.6067268252372742 5.859374869032763e-05
v 5.845088481903076 -0.6067268252372742 1.9181005954742432
v 5.83396577835083 -0.3940269351005554 1.914492130279541
v 6.060906410217285 -0.3940270245075226 0.9692187309265137
v 6.072457313537598 -0.6067268252372742 0.9710497856140137
v 5.472365379333496 -0.6067268252372742 2.817939281463623
v 5.461946487426758 -0.3940270245075226 2.812626838684082
v 4.963468074798584 -0.6067268252372742 3.64837384223938
v 4.954007625579834 -0.3940270245075226 3.6414990425109863
v 4.403151988983154 -0.3940270245075226 4.286474704742432
v 4.411422252655029 -0.6067268252372742 4.294731140136719
v 5.358429431915283 -0.5 -5.241464614868164
v 4.412801265716553 -0.6067268252372742 -4.292973518371582
v 5.358429431915283 -0.5 -5.241464614868164
v 4.412801265716553 -0.6067268252372742 -4.292973518371582
v 4.404533386230469 -0.3940270245075226 -4.284692287445068
v 5.356941223144531 -0.5 5.243310451507568
v 4.403151988983154 -0.3940270245075226 4.286474704742432
v 4.411422252655029 -0.6067268252372742 4.294731140136719
vn 0.06355610489845276 0.9969334602355957 -0.04565350338816643
vn 0.06352373212575912 0.9969335794448853 -0.04569742828607559
vn 0.059651024639606476 0.9969183206558228 -0.05094784125685692
vn 0.059651024639606476 0.9969183206558228 -0.05094784125685692
vn 0.06979841738939285 0.996927797794342 -0.03554113209247589
vn 0.06977896392345428 0.996927797794342 -0.03557877615094185
vn 0.07454967498779297 0.9969233870506287 -0.02420812100172043
vn 0.0745406448841095 0.9969233870506287 -0.024235565215349197
vn 0.07745099812746048 0.9969208240509033 -0.01226018089801073
vn 0.07744866609573364 0.9969208240509033 -0.012274697422981262
vn 0.07842713594436646 0.9969198703765869 0.0
vn 0.07842711359262466 0.9969198703765869 0.0
vn 0.07745158672332764 0.9969208240509033 0.012260154820978642
vn 0.07744930684566498 0.9969208240509033 0.0122744245454669
vn 0.07455051690340042 0.9969232678413391 0.02420860528945923
vn 0.07454158365726471 0.9969232678413391 0.024235788732767105
vn 0.06979916244745255 0.9969276785850525 0.03554195538163185
vn 0.06977982074022293 0.9969276785850525 0.03557942807674408
vn 0.06355337053537369 0.9969333410263062 0.045660361647605896
vn 0.0635211318731308 0.9969333410263062 0.045704104006290436
vn 0.05965333804488182 0.9969182014465332 0.050948526710271835
vn 0.05965334549546242 0.9969182014465332 0.050948526710271835
vn 0.06456126272678375 -0.9968356490135193 -0.04637546092271805
vn 0.06452806293964386 -0.9968356490135193 -0.04642047733068466
vn 0.07088270038366318 -0.9968296885490417 -0.03614180535078049
vn 0.07090262323617935 -0.9968296885490417 -0.036103229969739914
vn 0.07572026550769806 -0.9968252182006836 -0.024619312956929207
vn 0.07572951912879944 -0.9968252182006836 -0.024591168388724327
vn 0.07867483049631119 -0.9968223571777344 -0.012469125911593437
vn 0.0786772221326828 -0.9968223571777344 -0.012454296462237835
vn 0.07966901361942291 -0.996821403503418 0.0
vn 0.0796690285205841 -0.996821403503418 0.0
vn 0.07867573201656342 -0.9968222379684448 0.012468898668885231
vn 0.07867807894945145 -0.9968222379684448 0.012454284355044365
vn 0.07572131603956223 -0.996825098991394 0.024619553238153458
vn 0.07573048770427704 -0.996825098991394 0.02459166944026947
vn 0.07088379561901093 -0.9968295693397522 0.03614239767193794
vn 0.07090362161397934 -0.9968295693397522 0.036104027181863785
vn 0.06452532112598419 -0.9968355298042297 0.046427417546510696
vn 0.06455834954977036 -0.9968354105949402 0.04638261720538139
vn 0.06059614568948746 -0.9968197345733643 0.05175413936376572
vn 0.060596149414777756 -0.9968197345733643 0.05175413936376572
vn -0.8109837770462036 -0.05489737167954445 0.5824874639511108
vn -0.8109831213951111 -0.05489737540483475 0.5824884176254272
vn -0.7592644691467285 -0.054737452417612076 0.6484761238098145
vn -0.7592644095420837 -0.05473744869232178 0.648476243019104
vn -0.8896635174751282 -0.054890938103199005 0.45330533385276794
vn -0.9496232271194458 -0.05489424988627434 0.3085487186908722
vn -0.8896633386611938 -0.0548909492790699 0.45330581068992615
vn -0.9496225714683533 -0.05489424988627434 0.30855095386505127
vn -0.9861982464790344 -0.05489746481180191 0.1562027782201767
vn -0.9861986637115479 -0.05489746108651161 0.1561998426914215
vn -0.9984918832778931 -0.054899346083402634 0.0
vn -0.9984918832778931 -0.054899342358112335 0.0
vn -0.8896635174751282 -0.054890938103199005 0.45330533385276794
vn -0.8896633386611938 -0.0548909492790699 0.45330581068992615
vn -0.8109831213951111 -0.05489737540483475 0.5824884176254272
vn -0.9861982464790344 -0.05489746481180191 0.1562027782201767
vn -0.9496225714683533 -0.05489424988627434 0.30855095386505127
vn -0.9496232271194458 -0.05489424988627434 0.3085487186908722
vn -0.9861987829208374 -0.054899848997592926 -0.15619808435440063
vn -0.986198902130127 -0.05489984154701233 -0.15619736909866333
vn -0.9984918832778931 -0.054899342358112335 0.0
vn -0.9984918832778931 -0.054899346083402634 0.0
vn -0.9496222734451294 -0.05489560216665268 -0.3085513710975647
vn -0.9496214985847473 -0.05489559471607208 -0.30855369567871094
vn -0.986198902130127 -0.05489984154701233 -0.15619736909866333
vn -0.9861987829208374 -0.054899848997592926 -0.15619808435440063
vn -0.8896617293357849 -0.05489679053425789 -0.4533081352710724
vn -0.889662504196167 -0.05489679053425789 -0.45330682396888733
vn -0.8109267354011536 -0.054890308529138565 -0.5825673937797546
vn -0.8109270930290222 -0.054890308529138565 -0.5825669765472412
vn -0.7592700719833374 -0.054711777716875076 -0.6484716534614563
vn -0.7592700719833374 -0.054711777716875076 -0.6484716534614563
vn 0.06059420108795166 -0.9968199729919434 -0.051752977073192596
vn 0.06059420108795166 -0.9968199729919434 -0.051752980798482895
vn -0.7081681489944458 -3.276533243479207e-05 -0.7060438394546509
vn -0.7081681489944458 -3.276533243479207e-05 -0.7060438394546509
vn -0.7081682085990906 -3.276533243479207e-05 -0.7060437202453613
vn -0.7082407474517822 -0.00013652359484694898 0.7059710025787354
vn -0.7082407474517822 -0.00013652358029503375 0.7059710025787354
vn -0.7082406878471375 -0.00013652358029503375 0.7059710025787354
vt 0.6883836984634399 0.9999950528144836
vt 0.6883836984634399 3.355741500854492e-05
vt 0.6216503977775574 4.929304122924805e-05
vt 0.6216503977775574 0.9999931454658508
vt 0.7551168203353882 0.9999968409538269
vt 0.7551168203353882 1.9252300262451172e-05
vt 0.7886581420898438 0.9999989867210388
vt 0.7886581420898438 8.761882781982422e-06
vt 0.8359320163726807 0.9999999403953552
vt 0.8359318971633911 2.086162567138672e-06
vt 0.8778986930847168 0.9999998211860657
vt 0.8778986930847168 4.172325134277344e-07
vt 0.9693983793258667 0.9999999403953552
vt 0.9693983793258667 2.562999725341797e-06
vt 1.036131501197815 0.999999463558197
vt 1.036131501197815 8.761882781982422e-06
vt 1.0711579322814941 0.9999974370002747
vt 1.0711579322814941 1.9729137420654297e-05
vt 1.1131247282028198 0.9999956488609314
vt 1.1131247282028198 3.427267074584961e-05
vt 1.179857850074768 5.072355270385742e-05
vt 1.179857850074768 0.999993622303009
vt 0.6883836984634399 0.9999950528144836
vt 0.6883836984634399 3.355741500854492e-05
vt 0.7551168203353882 1.8775463104248047e-05
vt 0.7551168203353882 0.9999966025352478
vt 0.7886581420898438 8.285045623779297e-06
vt 0.7886581420898438 0.9999987483024597
vt 0.8359318971633911 1.6093254089355469e-06
vt 0.8359320163726807 0.9999998211860657
vt 0.8778986930847168 0.0
vt 0.8778986930847168 0.9999997019767761
vt 0.9693983793258667 2.086162567138672e-06
vt 0.9693983793258667 0.9999998211860657
vt 1.036131501197815 8.52346420288086e-06
vt 1.036131501197815 0.9999993443489075
vt 1.0711579322814941 1.9490718841552734e-05
vt 1.0711579322814941 0.9999973177909851
vt 1.1131247282028198 3.427267074584961e-05
vt 1.1131247282028198 0.9999956488609314
vt 1.179857850074768 5.072355270385742e-05
vt 1.179857850074768 0.999993622303009
vt 0.6883836984634399 0.9999950528144836
vt 0.6883836984634399 0.9999950528144836
vt 0.6216503977775574 0.9999931454658508
vt 0.6216503977775574 0.9999931454658508
vt 0.7551168203353882 0.9999966025352478
vt 0.7886581420898438 0.9999987483024597
vt 0.7551168203353882 0.9999968409538269
vt 0.7886581420898438 0.9999989867210388
vt 0.8359320163726807 0.9999998211860657
vt 0.8359320163726807 0.9999999403953552
vt 0.8778986930847168 0.9999997019767761
vt 0.8778986930847168 0.9999998211860657
vt 0.7551168203353882 0.9999966025352478
vt 0.7551168203353882 0.9999968409538269
vt 0.6883836984634399 0.9999950528144836
vt 0.8359320163726807 0.9999998211860657
vt 0.7886581420898438 0.9999989867210388
vt 0.7886581420898438 0.9999987483024597
vt 0.9693983793258667 0.9999998211860657
vt 0.9693983793258667 0.9999999403953552
vt 0.8778986930847168 0.9999998211860657
vt 0.8778986930847168 0.9999997019767761
vt 1.036131501197815 0.9999993443489075
vt 1.036131501197815 0.999999463558197
vt 0.9693983793258667 0.9999999403953552
vt 0.9693983793258667 0.9999998211860657
vt 1.0711579322814941 0.9999973177909851
vt 1.0711579322814941 0.9999974370002747
vt 1.1131247282028198 0.9999956488609314
vt 1.1131247282028198 0.9999956488609314
vt 1.179857850074768 0.999993622303009
vt 1.179857850074768 0.999993622303009
vt 0.6216503977775574 4.929304122924805e-05
vt 0.6216503977775574 0.9999931454658508
vt 0.6216503977775574 4.929304122924805e-05
vt 0.6216503977775574 0.9999931454658508
vt 0.6216503977775574 0.9999931454658508
vt 1.179857850074768 5.072355270385742e-05
vt 1.179857850074768 0.999993622303009
vt 1.179857850074768 0.999993622303009

g Tesla_Blade_Blade2
s 1
usemtl Tesla_Blade_Blade2
f 1/1/1 2/2/2 3/3/3 
f 1/1/1 3/3/3 4/4/4 
f 5/5/5 2/2/2 1/1/1 
f 5/5/5 6/6/6 2/2/2 
f 7/7/7 6/6/6 5/5/5 
f 7/7/7 8/8/8 6/6/6 
f 9/9/9 8/8/8 7/7/7 
f 9/9/9 10/10/10 8/8/8 
f 11/11/11 10/10/10 9/9/9 
f 11/11/11 12/12/12 10/10/10 
f 13/13/13 12/12/12 11/11/11 
f 13/13/13 14/14/14 12/12/12 
f 15/15/15 14/14/14 13/13/13 
f 15/15/15 16/16/16 14/14/14 
f 17/17/17 16/16/16 15/15/15 
f 17/17/17 18/18/18 16/16/16 
f 19/19/19 18/18/18 17/17/17 
f 19/19/19 20/20/20 18/18/18 
f 21/21/21 20/20/20 19/19/19 
f 21/21/21 19/19/19 22/22/22 
f 23/23/23 24/24/24 25/25/25 
f 23/23/23 25/25/25 26/26/26 
f 26/26/26 25/25/25 27/27/27 
f 26/26/26 27/27/27 28/28/28 
f 28/28/28 27/27/27 29/29/29 
f 28/28/28 29/29/29 30/30/30 
f 30/30/30 29/29/29 31/31/31 
f 30/30/30 31/31/31 32/32/32 
f 32/32/32 31/31/31 33/33/33 
f 32/32/32 33/33/33 34/34/34 
f 34/34/34 33/33/33 35/35/35 
f 34/34/34 35/35/35 36/36/36 
f 36/36/36 35/35/35 37/37/37 
f 36/36/36 37/37/37 38/38/38 
f 38/38/38 37/37/37 39/39/39 
f 38/38/38 39/39/39 40/40/40 
f 40/40/40 39/39/39 41/41/41 
f 40/40/40 41/41/41 42/42/42 
f 43/43/43 44/44/44 45/45/45 
f 43/43/43 45/45/45 46/46/46 
f 47/47/47 44/44/44 43/43/43 
f 48/48/48 49/49/49 47/47/47 
f 48/48/48 50/50/50 49/49/49 
f 51/51/51 52/52/52 50/50/50 
f 53/53/53 52/52/52 51/51/51 
f 53/53/53 54/54/54 52/52/52 
f 55/55/55 56/56/56 57/57/57 
f 58/58/58 59/59/59 60/60/60 
f 61/61/61 62/62/62 63/63/63 
f 61/61/61 63/63/63 64/64/64 
f 65/65/65 66/66/66 67/67/67 
f 65/65/65 67/67/67 68/68/68 
f 69/69/69 66/66/66 65/65/65 
f 69/69/69 70/70/70 66/66/66 
f 71/71/71 70/70/70 69/69/69 
f 71/71/71 72/72/72 70/70/70 
f 73/73/73 72/72/72 71/71/71 
f 73/73/73 71/71/71 74/74/74 
f 75/75/75 24/24/24 23/23/23 
f 75/75/75 23/23/23 76/76/76 
f 77/77/77 78/78/78 79/79/79 
f 80/80/80 81/81/81 82/82/82 

