v 5.024779319763184 -0.3940270245075226 3.693359375
v 4.467453956604004 -0.3940270245075226 4.345898151397705
v 5.434976577758789 -0.5 5.316328048706055
v 6.127042770385742 -0.5 4.506054401397705
v 5.539974212646484 -0.3940270245075226 2.852656126022339
v 6.755594253540039 -0.5 3.4803318977355957
v 5.917304039001465 -0.3940269351005554 1.94167959690094
v 7.215944766998291 -0.5 2.3689258098602295
v 6.147488117218018 -0.3940270245075226 0.9828906059265137
v 7.496774673461914 -0.5 1.1991991996765137
v 6.224851608276367 -0.3940270245075226 -5.8593752328306437e-05
v 7.591159343719482 -0.5 -3.9062502764863893e-05
v 6.147488117218018 -0.3940270245075226 -0.9830663800239563
v 7.496774673461914 -0.5 -1.199316382408142
v 5.917306423187256 -0.3940269351005554 -1.941835880279541
v 7.215947151184082 -0.5 -2.3690428733825684
v 5.539972305297852 -0.3940270245075226 -2.8528125286102295
v 6.755590438842773 -0.5 -3.4804491996765137
v 5.024776935577393 -0.3940270245075226 -3.6935155391693115
v 6.127040386199951 -0.5 -4.506152153015137
v 5.433467388153076 -0.5 -5.318202972412109
v 4.466052055358887 -0.3940270245075226 -4.347714900970459
v 5.034374713897705 -0.6067268252372742 3.700331926345825
v 5.550541877746582 -0.6067268252372742 2.858027219772339
v 6.755594253540039 -0.5 3.4803318977355957
v 6.127042770385742 -0.5 4.506054401397705
v 7.215944766998291 -0.5 2.3689258098602295
v 5.928584575653076 -0.6067268252372742 1.945351481437683
v 7.496774673461914 -0.5 1.1991991996765137
v 6.159204483032227 -0.6067268252372742 0.9847655892372131
v 7.591159343719482 -0.5 -3.9062502764863893e-05
v 6.23671293258667 -0.6067268252372742 -5.8593752328306437e-05
v 7.496774673461914 -0.5 -1.199316382408142
v 6.159204483032227 -0.6067268252372742 -0.9849218726158142
v 7.215947151184082 -0.5 -2.3690428733825684
v 5.928587436676025 -0.6067268252372742 -1.9455077648162842
v 6.755590438842773 -0.5 -3.4804491996765137
v 5.550539970397949 -0.6067268252372742 -2.858203172683716
v 6.127040386199951 -0.5 -4.506152153015137
v 5.0343732833862305 -0.6067268252372742 -3.7004880905151367
v 5.433467388153076 -0.5 -5.318202972412109
v 4.474441051483154 -0.6067268252372742 -4.356093883514404
v 5.034374713897705 -0.6067268252372742 3.700331926345825
v 4.475839614868164 -0.6067268252372742 4.354296684265137
v 4.467453956604004 -0.3940270245075226 4.345898151397705
v 5.024779319763184 -0.3940270245075226 3.693359375
v 5.550541877746582 -0.6067268252372742 2.858027219772339
v 5.550541877746582 -0.6067268252372742 2.858027219772339
v 5.024779319763184 -0.3940270245075226 3.693359375
v 5.539974212646484 -0.3940270245075226 2.852656126022339
v 5.928584575653076 -0.6067268252372742 1.945351481437683
v 5.917304039001465 -0.3940269351005554 1.94167959690094
v 6.159204483032227 -0.6067268252372742 0.9847655892372131
v 6.147488117218018 -0.3940270245075226 0.9828906059265137
v 6.23671293258667 -0.6067268252372742 -5.8593752328306437e-05
v 6.224851608276367 -0.3940270245075226 -5.8593752328306437e-05
v 6.159204483032227 -0.6067268252372742 -0.9849218726158142
v 6.147488117218018 -0.3940270245075226 -0.9830663800239563
v 5.928587436676025 -0.6067268252372742 -1.9455077648162842
v 5.917306423187256 -0.3940269351005554 -1.941835880279541
v 5.550539970397949 -0.6067268252372742 -2.858203172683716
v 5.539972305297852 -0.3940270245075226 -2.8528125286102295
v 5.0343732833862305 -0.6067268252372742 -3.7004880905151367
v 5.0343732833862305 -0.6067268252372742 -3.7004880905151367
v 5.539972305297852 -0.3940270245075226 -2.8528125286102295
v 5.024776935577393 -0.3940270245075226 -3.6935155391693115
v 4.466052055358887 -0.3940270245075226 -4.347714900970459
v 4.474441051483154 -0.6067268252372742 -4.356093883514404
v 5.434976577758789 -0.5 5.316328048706055
v 4.475839614868164 -0.6067268252372742 4.354296684265137
v 5.434976577758789 -0.5 5.316328048706055
v 4.467453956604004 -0.3940270245075226 4.345898151397705
v 4.475839614868164 -0.6067268252372742 4.354296684265137
v 5.433467388153076 -0.5 -5.318202972412109
v 4.474441051483154 -0.6067268252372742 -4.356093883514404
v 4.466052055358887 -0.3940270245075226 -4.347714900970459
vn 0.06266624480485916 0.9970188140869141 0.04501451179385185
vn 0.05881590396165848 0.9970040917396545 0.05023472011089325
vn 0.05881590023636818 0.9970040917396545 0.05023471638560295
vn 0.06263427436351776 0.9970189332962036 0.045057862997055054
vn 0.06882056593894958 0.9970134496688843 0.035043440759181976
vn 0.0688013955950737 0.9970134496688843 0.03508055582642555
vn 0.07350581884384155 0.9970090985298157 0.02386905439198017
vn 0.07349688559770584 0.9970090985298157 0.023896144703030586
vn 0.07636717706918716 0.9970064759254456 0.012088583782315254
vn 0.07636487483978271 0.9970064759254456 0.012102950364351273
vn 0.07732972502708435 0.9970055222511292 0.0
vn 0.07732973247766495 0.9970055222511292 0.0
vn 0.0763670951128006 0.9970064759254456 -0.012088465504348278
vn 0.07636484503746033 0.9970064759254456 -0.012102523818612099
vn 0.07350679486989975 0.9970090985298157 -0.02386961132287979
vn 0.0734979659318924 0.9970090985298157 -0.023896491155028343
vn 0.06882297247648239 0.9970132112503052 -0.03504440188407898
vn 0.06880389153957367 0.9970132112503052 -0.03508131951093674
vn 0.06266370415687561 0.9970188140869141 -0.04502120986580849
vn 0.06263189017772675 0.9970188140869141 -0.045064374804496765
vn 0.05881759896874428 0.997003972530365 -0.05023552104830742
vn 0.05881759896874428 0.997003972530365 -0.05023552104830742
vn 0.06365768611431122 -0.9969236254692078 0.04572627693414688
vn 0.06991017609834671 -0.9969179630279541 0.035597722977399826
vn 0.06989052146673203 -0.9969179630279541 0.0356358140707016
vn 0.06362491846084595 -0.9969237446784973 0.045770708471536636
vn 0.07465997338294983 -0.9969135522842407 0.024274781346321106
vn 0.07466907054185867 -0.9969135522842407 0.024247078225016594
vn 0.07757451385259628 -0.9969107508659363 0.012294622138142586
vn 0.07757686823606491 -0.9969107508659363 0.01228001806885004
vn 0.0785541906952858 -0.9969097971916199 0.0
vn 0.0785541906952858 -0.9969099164009094 0.0
vn 0.07757403701543808 -0.9969107508659363 -0.012294251471757889
vn 0.07757633924484253 -0.9969107508659363 -0.012279843911528587
vn 0.0746619775891304 -0.9969134330749512 -0.024274908006191254
vn 0.07467101514339447 -0.9969133138656616 -0.02424739859998226
vn 0.06989207118749619 -0.9969178438186646 -0.03563661500811577
vn 0.06991160660982132 -0.9969178438186646 -0.03559882193803787
vn 0.06362149864435196 -0.9969236254692078 -0.045777685940265656
vn 0.0636540874838829 -0.9969235062599182 -0.04573347419500351
vn 0.0597476065158844 -0.9969083666801453 -0.051029838621616364
vn 0.059747617691755295 -0.9969082474708557 -0.051029834896326065
vn -0.8109446167945862 -0.05567583069205284 -0.5824682116508484
vn -0.7592335343360901 -0.05552353337407112 -0.6484454870223999
vn -0.7592335343360901 -0.05552353337407112 -0.6484455466270447
vn -0.8109447360038757 -0.05567581579089165 -0.5824677348136902
vn -0.8896251916885376 -0.05566578730940819 -0.4532860517501831
vn -0.8896251916885376 -0.05566578730940819 -0.4532860517501831
vn -0.8109447360038757 -0.05567581579089165 -0.5824677348136902
vn -0.889622688293457 -0.055665791034698486 -0.4532910883426666
vn -0.9495812058448792 -0.055683545768260956 -0.30853667855262756
vn -0.949582040309906 -0.055683549493551254 -0.3085338771343231
vn -0.9861541390419006 -0.0556919127702713 -0.15619957447052002
vn -0.9861555695533752 -0.0556919164955616 -0.15619075298309326
vn -0.998448371887207 -0.05568595230579376 0.0
vn -0.998448371887207 -0.05568595603108406 0.0
vn -0.9861562252044678 -0.05568471923470497 0.1561891883611679
vn -0.9861562252044678 -0.05568472295999527 0.15618929266929626
vn -0.9495814442634583 -0.05568872019648552 0.3085351884365082
vn -0.9495822787284851 -0.05568871647119522 0.3085325062274933
vn -0.889619767665863 -0.055688388645648956 0.4532940089702606
vn -0.8896209001541138 -0.05568839982151985 0.4532918334007263
vn -0.8108916878700256 -0.055675312876701355 0.5825417637825012
vn -0.8108916878700256 -0.055675312876701355 0.5825417637825012
vn -0.8896209001541138 -0.05568839982151985 0.4532918334007263
vn -0.81089186668396 -0.055675309151411057 0.5825415253639221
vn -0.7592529654502869 -0.055496226996183395 0.6484250426292419
vn -0.7592530250549316 -0.055496230721473694 0.6484249830245972
vn 0.0597442165017128 -0.9969086050987244 0.05102888494729996
vn 0.0597442165017128 -0.9969086050987244 0.05102887749671936
vn -0.7081716060638428 -3.768760507227853e-05 0.7060403227806091
vn -0.7081716656684875 -3.7687608710257336e-05 0.7060403227806091
vn -0.7081716656684875 -3.7687608710257336e-05 0.7060403227806091
vn -0.708227813243866 -0.00011845074914162979 -0.7059839367866516
vn -0.708227813243866 -0.00011845074914162979 -0.7059839367866516
vn -0.708227813243866 -0.0001184507564175874 -0.7059839963912964
vt 0.10000000149011612 0.9999950528144836
vt -1.1920928955078125e-07 0.9999931454658508
vt -1.1920928955078125e-07 4.929304122924805e-05
vt 0.10000000149011612 3.355741500854492e-05
vt 0.20000000298023224 0.9999968409538269
vt 0.19999998807907104 1.9252300262451172e-05
vt 0.30000001192092896 0.9999989867210388
vt 0.30000001192092896 8.761882781982422e-06
vt 0.40000003576278687 0.9999999403953552
vt 0.3999999761581421 2.086162567138672e-06
vt 0.5 0.9999998211860657
vt 0.5 4.172325134277344e-07
vt 0.6000000238418579 0.9999999403953552
vt 0.6000000238418579 2.562999725341797e-06
vt 0.699999988079071 0.999999463558197
vt 0.699999988079071 8.761882781982422e-06
vt 0.800000011920929 0.9999974370002747
vt 0.800000011920929 1.9729137420654297e-05
vt 0.9000000357627869 0.9999956488609314
vt 0.9000000357627869 3.427267074584961e-05
vt 1.0 5.072355270385742e-05
vt 1.0 0.999993622303009
vt 0.10000000149011612 0.9999950528144836
vt 0.20000000298023224 0.9999966025352478
vt 0.19999998807907104 1.8775463104248047e-05
vt 0.10000000149011612 3.355741500854492e-05
vt 0.30000001192092896 8.285045623779297e-06
vt 0.30000001192092896 0.9999987483024597
vt 0.3999999761581421 1.6093254089355469e-06
vt 0.40000003576278687 0.9999998211860657
vt 0.5 0.0
vt 0.5 0.9999997019767761
vt 0.6000000238418579 2.086162567138672e-06
vt 0.6000000238418579 0.9999998211860657
vt 0.699999988079071 8.52346420288086e-06
vt 0.699999988079071 0.9999993443489075
vt 0.800000011920929 1.9490718841552734e-05
vt 0.800000011920929 0.9999973177909851
vt 0.9000000357627869 3.427267074584961e-05
vt 0.9000000357627869 0.9999956488609314
vt 1.0 5.072355270385742e-05
vt 1.0 0.999993622303009
vt 0.10000000149011612 0.9999950528144836
vt -1.1920928955078125e-07 0.9999931454658508
vt -1.1920928955078125e-07 0.9999931454658508
vt 0.10000000149011612 0.9999950528144836
vt 0.20000000298023224 0.9999966025352478
vt 0.20000000298023224 0.9999966025352478
vt 0.10000000149011612 0.9999950528144836
vt 0.20000000298023224 0.9999968409538269
vt 0.30000001192092896 0.9999987483024597
vt 0.30000001192092896 0.9999989867210388
vt 0.40000003576278687 0.9999998211860657
vt 0.40000003576278687 0.9999999403953552
vt 0.5 0.9999997019767761
vt 0.5 0.9999998211860657
vt 0.6000000238418579 0.9999998211860657
vt 0.6000000238418579 0.9999999403953552
vt 0.699999988079071 0.9999993443489075
vt 0.699999988079071 0.999999463558197
vt 0.800000011920929 0.9999973177909851
vt 0.800000011920929 0.9999974370002747
vt 0.9000000357627869 0.9999956488609314
vt 0.9000000357627869 0.9999956488609314
vt 0.800000011920929 0.9999974370002747
vt 0.9000000357627869 0.9999956488609314
vt 1.0 0.999993622303009
vt 1.0 0.999993622303009
vt -1.1920928955078125e-07 4.929304122924805e-05
vt -1.1920928955078125e-07 0.9999931454658508
vt -1.1920928955078125e-07 4.929304122924805e-05
vt -1.1920928955078125e-07 0.9999931454658508
vt -1.1920928955078125e-07 0.9999931454658508
vt 1.0 5.072355270385742e-05
vt 1.0 0.999993622303009
vt 1.0 0.999993622303009

g Tesla_Blade_Blade2
s 1
usemtl Tesla_Blade_Blade2
f 1/1/1 2/2/2 3/3/3 
f 1/1/1 3/3/3 4/4/4 
f 5/5/5 1/1/1 4/4/4 
f 5/5/5 4/4/4 6/6/6 
f 7/7/7 5/5/5 6/6/6 
f 7/7/7 6/6/6 8/8/8 
f 9/9/9 7/7/7 8/8/8 
f 9/9/9 8/8/8 10/10/10 
f 11/11/11 9/9/9 10/10/10 
f 11/11/11 10/10/10 12/12/12 
f 13/13/13 11/11/11 12/12/12 
f 13/13/13 12/12/12 14/14/14 
f 15/15/15 13/13/13 14/14/14 
f 15/15/15 14/14/14 16/16/16 
f 17/17/17 15/15/15 16/16/16 
f 17/17/17 16/16/16 18/18/18 
f 19/19/19 17/17/17 18/18/18 
f 19/19/19 18/18/18 20/20/20 
f 21/21/21 19/19/19 20/20/20 
f 21/21/21 22/22/22 19/19/19 
f 23/23/23 24/24/24 25/25/25 
f 23/23/23 25/25/25 26/26/26 
f 24/24/24 27/27/27 25/25/25 
f 24/24/24 28/28/28 27/27/27 
f 28/28/28 29/29/29 27/27/27 
f 28/28/28 30/30/30 29/29/29 
f 30/30/30 31/31/31 29/29/29 
f 30/30/30 32/32/32 31/31/31 
f 32/32/32 33/33/33 31/31/31 
f 32/32/32 34/34/34 33/33/33 
f 34/34/34 35/35/35 33/33/33 
f 34/34/34 36/36/36 35/35/35 
f 36/36/36 37/37/37 35/35/35 
f 36/36/36 38/38/38 37/37/37 
f 38/38/38 39/39/39 37/37/37 
f 38/38/38 40/40/40 39/39/39 
f 40/40/40 41/41/41 39/39/39 
f 40/40/40 42/42/42 41/41/41 
f 43/43/43 44/44/44 45/45/45 
f 43/43/43 45/45/45 46/46/46 
f 47/47/47 43/43/43 46/46/46 
f 48/48/48 49/49/49 50/50/50 
f 51/51/51 48/48/48 50/50/50 
f 51/51/51 50/50/50 52/52/52 
f 53/53/53 51/51/51 52/52/52 
f 53/53/53 52/52/52 54/54/54 
f 55/55/55 53/53/53 54/54/54 
f 55/55/55 54/54/54 56/56/56 
f 57/57/57 55/55/55 56/56/56 
f 57/57/57 56/56/56 58/58/58 
f 59/59/59 57/57/57 58/58/58 
f 59/59/59 58/58/58 60/60/60 
f 61/61/61 59/59/59 60/60/60 
f 61/61/61 60/60/60 62/62/62 
f 63/63/63 61/61/61 62/62/62 
f 64/64/64 65/65/65 66/66/66 
f 67/67/67 64/64/64 66/66/66 
f 67/67/67 68/68/68 64/64/64 
f 69/69/69 70/70/70 23/23/23 
f 69/69/69 23/23/23 26/26/26 
f 71/71/71 72/72/72 73/73/73 
f 74/74/74 75/75/75 76/76/76 

